#N canvas 0 0 450 300 10;
#X msg 234 126 load babbage.jpg;
#X obj 234 151 #in;
#X msg 103 146 help;
#X obj 147 195 #out window;
#X obj 147 172 lti.Scaling 9;
#X msg 236 71 0.5;
#X msg 146 150 list f # \$1;
#X obj 146 127 f;
#X obj 98 73 metro 33;
#X obj 80 74 tgl 15 0 empty empty empty 0 -6 0 8 -24198 -1 -1 1 1;
#X obj 162 73 nbx 5 14 0.1 4 0 1 empty empty empty 0 -6 0 10 -260818
-1 -1 0.47 256;
#X obj 186 125 print;
#X obj 235 105 loadbang;
#X connect 0 0 1 0;
#X connect 1 0 4 1;
#X connect 2 0 4 0;
#X connect 4 0 3 0;
#X connect 5 0 7 1;
#X connect 6 0 4 0;
#X connect 7 0 6 0;
#X connect 8 0 7 0;
#X connect 9 0 8 0;
#X connect 10 0 7 1;
#X connect 10 0 11 0;
#X connect 12 0 0 0;
