#N canvas 244 0 793 365 10;
#X msg 45 12 load babbage.jpg;
#X obj 45 33 #in;
#X msg 124 134 help;
#X obj 178 13 tgl 15 0 empty empty empty 0 -6 0 8 -24198 -1 -1 0 1
;
#X obj 208 55 #out window \, title Original;
#X obj 198 33 #camera;
#X obj 198 264 fps detailed;
#X obj 199 286 display;
#X obj 198 12 metro 10;
#X msg 124 154 get;
#X obj 198 241 #out window \, title Edge_detection;
#X obj 198 186 lti.HarrisCorners 2;
#X obj 228 126 t a a;
#X obj 228 150 # avg;
#X msg 272 150 kernelSize \$1;
#X obj 272 133 nbx 5 14 0 1e+37 0 1 empty empty kernelSize 0 -6 0 10
-262144 -1 -1 7 256;
#X obj 377 130 nbx 5 14 0 128 0 1 empty empty maximumCorners 0 -6 0
10 -262144 -1 -1 50 256;
#X obj 198 214 #greyscale_to_rgb;
#X msg 377 150 maximumCorners \$1;
#X obj 198 91 lti.SplitImageToYUV 3;
#X connect 0 0 1 0;
#X connect 1 0 4 0;
#X connect 1 0 19 0;
#X connect 2 0 11 0;
#X connect 3 0 8 0;
#X connect 5 0 4 0;
#X connect 5 0 19 0;
#X connect 6 0 7 0;
#X connect 8 0 5 0;
#X connect 9 0 11 0;
#X connect 10 0 6 0;
#X connect 11 0 17 0;
#X connect 12 0 13 1;
#X connect 12 1 13 0;
#X connect 14 0 11 0;
#X connect 15 0 14 0;
#X connect 16 0 18 0;
#X connect 17 0 10 0;
#X connect 18 0 11 0;
#X connect 19 0 11 0;
