#N canvas 265 540 787 472 10;
#X text 14 15 @spread;
#X text 129 15 makes noise;
#X obj 232 159 @in;
#X obj 246 139 bng 15 250 50 0 empty empty empty 0 -6 0 8 -233017 -1
-1;
#X obj 232 207 spigot;
#X obj 278 207 == 0;
#X obj 275 140 tgl 15 0 empty empty empty 0 -6 0 8 -233017 -1 -1 0
1;
#X obj 310 207 spigot;
#X obj 310 291 @ min 255;
#X obj 310 270 @spread 1;
#X obj 310 312 @ min 0;
#X obj 310 395 @out;
#X msg 390 356 open x11 here;
#X msg 390 377 close;
#X msg 232 115 open jpeg file 1.jpg;
#X floatatom 368 241 5 0 0 0 - - -;
#X obj 195 269 @store;
#X obj 195 393 @out;
#X msg 66 357 open x11 here;
#X msg 66 378 close;
#X obj 20 197 @spread 1;
#X floatatom 78 163 5 0 0 0 - - -;
#X obj 20 88 until;
#X obj 20 51 bng 15 250 50 0 empty empty empty 0 -6 0 8 -233017 -1
-1;
#X msg 20 69 65536;
#X obj 61 88 float;
#X obj 101 88 + 1;
#X obj 20 129 @import ( 256 256 2 );
#X text 368 314 we limit here \, because the values might go out of
range;
#X text 300 141 switch displays;
#X text 702 13 gridflow;
#X connect 2 0 4 0;
#X connect 2 0 7 0;
#X connect 3 0 2 0;
#X connect 4 0 16 1;
#X connect 5 0 7 1;
#X connect 6 0 4 1;
#X connect 6 0 5 0;
#X connect 7 0 9 0;
#X connect 8 0 10 0;
#X connect 9 0 8 0;
#X connect 10 0 11 0;
#X connect 12 0 11 0;
#X connect 13 0 11 0;
#X connect 14 0 2 0;
#X connect 14 0 3 0;
#X connect 15 0 9 1;
#X connect 16 0 17 0;
#X connect 18 0 17 0;
#X connect 19 0 17 0;
#X connect 20 0 16 0;
#X connect 21 0 20 1;
#X connect 22 0 25 0;
#X connect 23 0 24 0;
#X connect 24 0 22 0;
#X connect 25 0 26 0;
#X connect 25 0 27 0;
#X connect 26 0 25 1;
#X connect 27 0 20 0;
