#N canvas 596 109 647 527 10;
#X obj 15 144 #rgb_to_greyscale;
#X obj 15 392 #out window;
#X obj 15 70 tgl 15 0 empty empty empty 17 7 0 10 -262144 -1 -1 0 1
;
#X obj 15 285 # > 128;
#X obj 15 304 # * 255;
#X obj 196 96 #for (0 0) (2 512) (1 1);
#X obj 196 77 bng 15 250 50 0 empty empty empty 17 7 0 10 -262144 -1
-1;
#X obj 215 76 loadbang;
#X obj 194 176 bng 15 250 50 0 empty empty empty 17 7 0 10 -262144
-1 -1;
#X obj 213 175 loadbang;
#X obj 194 195 #for (0 0) (3 512) (1 1);
#X obj 13 455 # * 255;
#X obj 13 419 bng 15 250 50 0 empty empty empty 17 7 0 10 -262144 -1
-1;
#X obj 14 496 display;
#X obj 13 436 #for 0 10 1;
#X obj 13 474 # / 10;
#X obj 15 211 #gamma;
#X floatatom 57 211 5 0 0 0 - - -;
#X obj 196 153 # / 5;
#X obj 196 134 # * 255;
#X obj 194 234 # * 255;
#X obj 194 253 # / 10;
#X obj 194 276 bng 15 250 50 0 empty empty empty 17 7 0 10 -262144
-1 -1;
#X obj 213 275 loadbang;
#X obj 194 334 # * 255;
#X obj 194 353 # / 17;
#X obj 194 295 #for (0 0) (4 512) (1 1);
#X obj 196 115 #store (2 2 1 # 4 2 1 3);
#X obj 194 215 #store (3 3 1 # 9 1 4 5 7 3 2 6 8);
#X obj 54 259 shunt;
#X obj 119 409 fps;
#X floatatom 121 429 5 0 0 0 - - -;
#X obj 15 87 metro 33.3333;
#X msg 274 76 2 \$1;
#X msg 269 176 3 \$1;
#X msg 269 276 4 \$1;
#X floatatom 332 72 5 0 0 0 - - -;
#X obj 56 170 loadbang;
#X obj 0 0 doc_demo;
#X msg 56 190 128;
#X obj 15 125 shunt;
#X obj 143 110 tgl 15 0 empty empty empty 17 7 0 10 -262144 -1 -1 1
1;
#X text 7 26 Copyright © 2009 \, 2010 by Mathieu Bouchard;
#X obj 15 106 #camera 0;
#X msg 29 365 border 0 \, move 0 1280;
#X obj 81 285 #greyscale_to_rgb;
#X msg 312 256 4 4 1 # 1 2 6 7 3 5 8 13 4 9 12 14 10 11 15 16;
#X obj 194 315 #store (4 4 1 # 1 9 4 12 13 5 16 8 3 11 2 10 15 7 14
6);
#X obj 16 338 #scale_by;
#X obj 71 133 #out window;
#X connect 0 0 16 0;
#X connect 1 0 30 0;
#X connect 2 0 32 0;
#X connect 3 0 4 0;
#X connect 4 0 48 0;
#X connect 5 0 27 0;
#X connect 6 0 5 0;
#X connect 7 0 5 0;
#X connect 8 0 10 0;
#X connect 9 0 10 0;
#X connect 10 0 28 0;
#X connect 11 0 15 0;
#X connect 12 0 14 0;
#X connect 14 0 11 0;
#X connect 15 0 13 0;
#X connect 16 0 3 0;
#X connect 17 0 16 1;
#X connect 18 0 29 0;
#X connect 19 0 18 0;
#X connect 20 0 21 0;
#X connect 21 0 29 0;
#X connect 22 0 26 0;
#X connect 23 0 26 0;
#X connect 24 0 25 0;
#X connect 25 0 29 0;
#X connect 26 0 47 0;
#X connect 27 0 19 0;
#X connect 28 0 20 0;
#X connect 29 0 3 1;
#X connect 29 1 45 0;
#X connect 30 0 31 0;
#X connect 32 0 43 0;
#X connect 33 0 5 1;
#X connect 34 0 10 1;
#X connect 35 0 26 1;
#X connect 36 0 33 0;
#X connect 36 0 34 0;
#X connect 36 0 35 0;
#X connect 37 0 39 0;
#X connect 39 0 17 0;
#X connect 40 0 0 0;
#X connect 40 1 16 0;
#X connect 41 0 40 1;
#X connect 41 0 29 1;
#X connect 43 0 40 0;
#X connect 43 0 49 0;
#X connect 44 0 1 0;
#X connect 45 0 3 1;
#X connect 46 0 47 1;
#X connect 47 0 24 0;
#X connect 48 0 1 0;
