#N canvas 548 21 779 541 10;
#N canvas 0 0 450 300 experimental 0;
#X obj 39 55 bng 15 250 50 0 empty empty empty 0 -6 0 8 -262144 -1
-1;
#X obj 206 70 bng 15 250 50 0 empty empty empty 0 -6 0 8 -262144 -1
-1;
#X obj 39 33 inlet;
#X obj 39 81 #for (0 0) (256 256) (1 1);
#X obj 39 104 # << (4 2);
#X obj 39 126 # +;
#X obj 39 212 outlet;
#X obj 206 87 #for (0 0) (256 256) (1 1);
#X obj 206 109 # >> (4 6);
#X obj 127 176 #inner (2 2 # 85 170 170 85) \, op & \, fold ^ \, seed
1;
#X connect 0 0 3 0;
#X connect 1 0 7 0;
#X connect 2 0 0 0;
#X connect 3 0 4 0;
#X connect 4 0 5 0;
#X connect 5 0 6 0;
#X connect 7 0 8 0;
#X connect 8 0 5 1;
#X restore 499 261 pd experimental features;
#X text 516 193 Choose Julia Mapping or Rotation;
#X obj 31 53 tgl 15 0 empty empty empty 0 -6 0 8 -24198 -1 -1 0 1;
#X obj 414 145 bng 15 250 50 0 empty empty empty 0 -6 0 8 -24198 -1
-1;
#X text 205 196 apply transform (with feedback);
#X floatatom 430 363 5 0 0 0 - - -;
#X floatatom 518 387 5 0 0 0 - - -;
#X text 434 375 zoom;
#X text 518 397 move x;
#X msg 518 368 -45;
#X obj 189 197 bng 15 250 50 0 empty empty empty 0 -6 0 8 -24198 -1
-1;
#X obj 444 119 bng 15 250 50 0 empty empty empty 0 -6 0 8 -24198 -1
-1;
#X obj 497 193 tgl 15 0 empty empty empty 0 -6 0 8 -241291 -1 -1 1
1;
#X floatatom 472 387 5 0 0 0 - - -;
#X text 471 398 move y;
#X msg 472 368 193;
#X obj 31 80 metro 33.3667;
#X obj 442 191 shunt 2;
#X obj 77 346 loadbang;
#X obj 414 91 t b b;
#X obj 414 67 loadbang;
#X obj 31 338 t a;
#X obj 201 220 loadbang;
#X obj 201 239 bng 15 250 50 0 empty empty empty 0 -6 0 8 -24198 -1
-1;
#X obj 189 317 t a;
#X obj 31 108 t b b;
#X obj 73 109 float;
#X obj 73 128 + 1;
#X obj 84 148 nbx 5 14 -1e+37 1e+37 0 0 empty empty empty 0 -6 0 10
-262144 -1 -1 22 256;
#X obj 486 323 t b;
#X text 219 240 reset transform;
#X obj 31 200 #store;
#X obj 31 276 # << 7;
#X obj 31 314 # >> 7;
#X obj 31 422 #store;
#X obj 31 451 #out window;
#X obj 414 478 # -;
#X obj 438 454 # - 128;
#X obj 414 390 # /;
#X obj 414 296 #store;
#X obj 442 210 @complex_sq;
#X obj 485 229 #inner (2 2 # 120 30 -30 120);
#X obj -13 0 cnv 15 780 30 empty empty empty 20 12 0 14 -233017 -66577
0;
#X obj -15 518 cnv 15 780 30 empty empty empty 20 12 0 14 -200249 -66577
0;
#X text -7 525 GridFlow 0.8.0;
#X text -7 525 GridFlow 0.8.0;
#X text 0 0 feedback_fractal.pd;
#X text 0 13 Copyright 2001 Mathieu Bouchard;
#X obj 189 298 #store;
#X obj 189 279 #store;
#X obj 77 422 #cast b;
#X obj 77 384 #in;
#X msg 77 365 load teapot.png;
#X obj 438 432 #pack;
#X text 431 145 apply coords;
#X text 462 118 apply type of transform;
#X obj 77 403 #scale_by 2;
#X obj 201 258 #for (0 0) (512 512) (1 1);
#X obj 442 172 #for (-256 -256) (256 256) (1 1);
#X obj 99 128 mod 60;
#X obj 73 168 sel 59;
#X obj 31 295 #fade 10;
#X obj 31 248 shunt;
#X obj 67 250 tgl 15 0 empty empty empty 0 -6 0 8 -241291 -1 -1 0 1
;
#X msg 430 344 256;
#X obj 93 295 #fade_lin 10 10;
#X connect 0 0 39 1;
#X connect 2 0 16 0;
#X connect 3 0 39 0;
#X connect 5 0 38 1;
#X connect 6 0 53 1;
#X connect 9 0 6 0;
#X connect 10 0 49 0;
#X connect 11 0 58 0;
#X connect 12 0 17 1;
#X connect 13 0 53 0;
#X connect 15 0 13 0;
#X connect 16 0 25 0;
#X connect 17 0 40 0;
#X connect 17 1 41 0;
#X connect 18 0 52 0;
#X connect 19 0 3 0;
#X connect 19 1 11 0;
#X connect 19 1 29 0;
#X connect 20 0 19 0;
#X connect 21 0 34 0;
#X connect 22 0 23 0;
#X connect 23 0 57 0;
#X connect 24 0 31 1;
#X connect 24 0 48 1;
#X connect 25 0 31 0;
#X connect 25 1 26 0;
#X connect 26 0 27 0;
#X connect 27 0 28 0;
#X connect 27 0 59 0;
#X connect 27 0 60 0;
#X connect 29 0 64 0;
#X connect 29 0 15 0;
#X connect 29 0 9 0;
#X connect 31 0 62 0;
#X connect 32 0 61 0;
#X connect 33 0 21 0;
#X connect 34 0 35 0;
#X connect 36 0 49 1;
#X connect 37 0 36 1;
#X connect 38 0 36 0;
#X connect 39 0 38 0;
#X connect 40 0 39 1;
#X connect 41 0 39 1;
#X connect 48 0 24 0;
#X connect 49 0 48 0;
#X connect 50 0 34 1;
#X connect 51 0 56 0;
#X connect 52 0 51 0;
#X connect 53 0 37 0;
#X connect 56 0 50 0;
#X connect 57 0 31 1;
#X connect 57 0 48 1;
#X connect 58 0 17 0;
#X connect 59 0 26 1;
#X connect 60 0 10 0;
#X connect 61 0 33 0;
#X connect 62 0 32 0;
#X connect 62 1 65 0;
#X connect 63 0 62 1;
#X connect 64 0 5 0;
#X connect 65 0 21 0;
