#N canvas 601 0 625 580 10;
#X obj 146 62 #in lada.jpg;
#X obj 38 290 #out window;
#X obj 38 48 tgl 15 0 empty empty empty 0 -6 0 8 -24198 -1 -1 1 1;
#X obj 38 114 #store;
#X obj 164 41 loadbang;
#X obj 146 42 bng 15 250 50 0 empty empty empty 0 -6 0 8 -262144 -1
-1;
#X obj 167 508 dac~;
#X obj 329 58 +;
#X msg 329 39 1;
#X obj 361 39 % 365;
#N canvas 0 0 450 300 fft 0;
#X obj 23 68 rifft~;
#X obj 23 88 outlet~;
#X obj 359 16 block~ 1024;
#X obj 23 48 tabreceive~ array2;
#X connect 0 0 1 0;
#X connect 3 0 0 0;
#X restore 167 432 pd fft;
#X obj 17 85 bng 15 250 50 0 empty empty empty 0 -6 0 8 -262144 -1
-1;
#X obj 38 84 t b b;
#X msg 230 250 4 2 # 0 0 0 502 1 502 1 0;
#X obj 230 269 # +;
#X obj 38 233 t a b;
#X msg 257 269 \$1 0;
#X obj 38 252 #greyscale_to_rgb;
#X obj 429 125 #store;
#X obj 429 211 #to_list;
#X obj 466 249 s array1;
#X obj 146 212 # inv+ 255;
#X obj 146 100 # min 255;
#X obj 146 81 # * 3;
#X msg 429 87 1 1 # \$1;
#X obj 255 339 table array1 502;
#X obj 429 230 t b a;
#X obj 296 269 r row;
#X obj 361 58 s row;
#X obj 429 316 exp;
#X obj 38 309 #mouse \, ...;
#X obj 79 383 #draw_polygon put;
#X obj 79 364 spigot;
#X obj 29 413 t a a;
#X obj 29 470 # +;
#X obj 146 193 t a;
#X msg 29 432 4 2 # 0 0 0 1 1 1 1 0;
#X obj 29 451 # *;
#X obj 105 459 nbx 5 14 -1e+37 1e+37 0 1 empty empty empty 0 -6 0 10
-262131 -1 -1 8 256;
#X msg 160 176 365 502 1 # 255;
#X text 254 176 clear;
#X obj 429 354 tabread4 array1;
#X obj 167 451 lop~ 1000;
#X obj 105 473 nbx 5 14 -1e+37 1e+37 0 1 empty empty empty 0 -6 0 10
-262131 -1 -1 8 256;
#X obj 54 470 #pack 2;
#X obj 462 106 # >> 4;
#X obj 146 138 # >> 2;
#X obj 38 271 #draw_polygon put (3 # 255 0 0);
#X text 4 22 Copyright 2004 Mathieu Bouchard;
#X obj 429 173 #cast f;
#X obj 146 231 #convolve (1 7 # 1 1 2 8 2 1 1);
#X obj 146 119 #convolve (2 2 # 1);
#X msg 132 344 0;
#X msg 136 364 1 # \$1;
#X msg 162 344 255;
#X obj 79 402 s feedback;
#X obj 152 157 r feedback;
#X text 505 26 How to play a car;
#X obj 0 0 doc_demo;
#X obj 543 104 * 1024;
#X msg 543 85 1000;
#X obj 543 123 / 44100;
#X floatatom 543 142 5 0 0 0 - - -;
#X obj 38 65 metro 23.22;
#X obj 429 150 #fade 4;
#X obj 429 192 # / (f # 4000);
#X obj 429 441 #to_list;
#X obj 429 479 s array2;
#X obj 429 460 list prepend 0;
#X msg 429 384 list f # \$1;
#X obj 255 358 table array2 1024;
#X obj 466 230 list prepend 0;
#X obj 429 278 for 0 1024 1;
#X obj 429 403 #import (1 1024 1) f;
#X obj 429 422 #downscale_by (1 4) smoothly;
#X obj 429 297 / 60;
#X obj 429 335 * 10;
#X obj 167 470 clip~ -1 1;
#X connect 0 0 23 0;
#X connect 1 0 30 0;
#X connect 2 0 63 0;
#X connect 3 0 15 0;
#X connect 3 0 32 0;
#X connect 4 0 0 0;
#X connect 5 0 0 0;
#X connect 7 0 9 0;
#X connect 8 0 7 0;
#X connect 9 0 7 1;
#X connect 9 0 28 0;
#X connect 9 0 24 0;
#X connect 10 0 42 0;
#X connect 11 0 12 0;
#X connect 12 0 8 0;
#X connect 12 1 3 0;
#X connect 13 0 14 0;
#X connect 14 0 47 2;
#X connect 15 0 17 0;
#X connect 15 1 13 0;
#X connect 16 0 14 1;
#X connect 17 0 47 0;
#X connect 18 0 64 0;
#X connect 19 0 26 0;
#X connect 21 0 50 0;
#X connect 22 0 51 0;
#X connect 23 0 22 0;
#X connect 24 0 18 0;
#X connect 26 0 72 0;
#X connect 26 1 71 0;
#X connect 27 0 16 0;
#X connect 29 0 76 0;
#X connect 30 0 33 0;
#X connect 30 1 33 0;
#X connect 30 4 32 1;
#X connect 30 4 52 0;
#X connect 30 6 32 1;
#X connect 30 6 54 0;
#X connect 31 0 55 0;
#X connect 32 0 31 0;
#X connect 33 0 36 0;
#X connect 33 1 34 1;
#X connect 34 0 31 2;
#X connect 35 0 3 1;
#X connect 35 0 21 0;
#X connect 36 0 37 0;
#X connect 37 0 34 0;
#X connect 38 0 44 0;
#X connect 39 0 35 0;
#X connect 41 0 69 0;
#X connect 42 0 77 0;
#X connect 43 0 44 1;
#X connect 44 0 37 1;
#X connect 45 0 18 1;
#X connect 46 0 35 0;
#X connect 47 0 1 0;
#X connect 49 0 65 0;
#X connect 50 0 45 0;
#X connect 51 0 46 0;
#X connect 52 0 53 0;
#X connect 53 0 31 1;
#X connect 54 0 31 1;
#X connect 56 0 35 0;
#X connect 59 0 61 0;
#X connect 60 0 59 0;
#X connect 61 0 62 0;
#X connect 63 0 12 0;
#X connect 64 0 49 0;
#X connect 65 0 19 0;
#X connect 66 0 68 0;
#X connect 68 0 67 0;
#X connect 69 0 73 0;
#X connect 71 0 20 0;
#X connect 72 0 75 0;
#X connect 73 0 74 0;
#X connect 74 0 66 0;
#X connect 75 0 29 0;
#X connect 76 0 41 0;
#X connect 77 0 6 0;
#X connect 77 0 6 1;
