#N canvas 582 117 634 630 10;
#X obj 33 489 #outer * (255 255 255);
#X obj 33 509 #out window;
#X obj 33 95 metro 33;
#X obj 33 70 tgl 15 0 empty empty empty 17 7 0 10 -4034 -1 -1 1 1;
#X obj 65 195 f;
#X obj 33 115 t b b;
#X obj 95 195 + 250;
#X obj 253 395 nbx 3 14 1 32 0 1 empty A empty 0 -8 0 10 -241291 -1
-1 24 256;
#X obj 253 358 nbx 3 14 0 512 0 1 empty B empty 0 -8 0 10 -241291 -1
-1 175 256;
#X obj 243 198 nbx 4 14 1 8192 0 1 empty C empty 0 -8 0 10 -241291
-1 -1 3 256;
#X obj 33 155 # c2p (128 128);
#X obj 349 25 cnv 15 220 500 empty empty empty 20 12 0 14 -241291 -66577
0;
#X text 374 28 Presets:;
#X text 24 26 Copyright 2009 by Federico Ferri;
#X text 355 539 GridFlow 0.9.5;
#X obj 33 135 #for (0 0) (256 256) (1 1);
#X msg 117 114 512 512;
#X obj 33 528 fps;
#X floatatom 33 547 5 0 0 0 - - -;
#X msg 117 94 256 256;
#X obj 33 449 # % 36000;
#X obj 33 469 # > 18000;
#X obj 33 265 # + (0 0);
#X msg 65 235 2 # 0 \$1;
#X obj 65 215 + 18000;
#X obj 33 429 #inner (1 1);
#X obj 33 409 # * (1 1);
#X obj 33 175 #t;
#X obj 143 192 #inner (1 0);
#X obj 143 212 # *;
#X obj 143 352 #outer * (1 0);
#X obj 143 392 # + (0 1);
#X obj 143 372 # * 1;
#X obj 233 258 # sin* 1;
#X obj 143 232 shunt 2;
#X obj 243 217 hradio 15 1 0 2 empty E empty 0 -8 0 10 -241291 -1 -1
0;
#X obj 143 252 # % 512;
#X obj 143 272 # > 256;
#X obj 143 292 # * 2;
#X obj 143 312 # - 1;
#X obj 279 226 nbx 3 14 0 512 0 1 empty D empty 0 -8 0 10 -241291 -1
-1 0 256;
#X obj 505 41 r P;
#X msg 505 61 \; A \$1 \; B \$2 \; C \$3 \; D \$4 \; E \$5;
#X msg 361 52 \; P 24 175 3 0 0;
#X msg 361 92 \; P 1 512 1 0 0;
#X msg 361 132 \; P 8 141 8 0 0;
#X msg 361 172 \; P 31 74 8 0 0;
#X msg 361 212 \; P 3 23 1 0 0;
#X msg 361 252 \; P 2 15 8 0 0;
#X msg 361 292 \; P 3 1 150 100 1;
#X msg 361 332 \; P 3 1 1500 25 1;
#X msg 361 372 \; P 16 1 1500 10 1;
#X msg 361 412 \; P 5 5 275 11 1;
#X msg 253 412 2 # \$1 \$1;
#X connect 0 0 1 0;
#X connect 1 0 17 0;
#X connect 2 0 5 0;
#X connect 3 0 2 0;
#X connect 4 0 6 0;
#X connect 4 0 24 0;
#X connect 5 0 15 0;
#X connect 5 1 4 0;
#X connect 6 0 4 1;
#X connect 7 0 53 0;
#X connect 8 0 32 1;
#X connect 9 0 29 1;
#X connect 10 0 27 0;
#X connect 15 0 10 0;
#X connect 16 0 15 1;
#X connect 17 0 18 0;
#X connect 19 0 15 1;
#X connect 20 0 21 0;
#X connect 21 0 0 0;
#X connect 22 0 26 0;
#X connect 23 0 22 1;
#X connect 24 0 23 0;
#X connect 25 0 20 0;
#X connect 26 0 25 0;
#X connect 27 0 22 0;
#X connect 27 1 28 0;
#X connect 28 0 29 0;
#X connect 29 0 34 0;
#X connect 30 0 32 0;
#X connect 31 0 26 1;
#X connect 32 0 31 0;
#X connect 33 0 30 0;
#X connect 34 0 36 0;
#X connect 34 1 33 0;
#X connect 35 0 34 1;
#X connect 36 0 37 0;
#X connect 37 0 38 0;
#X connect 38 0 39 0;
#X connect 39 0 30 0;
#X connect 40 0 33 1;
#X connect 41 0 42 0;
#X connect 53 0 25 1;
