#N canvas 495 370 643 604 10;
#X obj 39 122 #for (0 0) (256 256) (1 1);
#X obj 65 511 #outer * (255 255 255);
#X obj 74 549 #out window;
#X obj 76 76 metro 33;
#X obj 79 51 tgl 15 0 empty empty empty 17 7 0 10 -4034 -1 -1 0 1;
#X obj 164 172 f;
#X obj 77 101 t b b;
#X obj 54 197 #t;
#X obj 325 278 #inner (1 0);
#X obj 331 352 # % 256;
#X obj 330 375 # > 128;
#X obj 325 318 # *;
#N canvas 2 71 450 475 pinwheel 0;
#X obj 46 102 #inner (0 1);
#X obj 46 138 # + 18000;
#X obj 46 198 # + 0;
#X obj 176 102 #inner (1 0);
#X obj 46 54 #t;
#X obj 46 313 # % 36000;
#X obj 46 339 # > 18000;
#X obj 46 235 # +;
#X obj 176 138 # * 1;
#X obj 46 272 # * 1;
#X obj 149 233 inlet;
#X obj 284 102 inlet;
#X obj 46 28 inlet;
#X obj 46 373 outlet;
#X obj 84 166 inlet;
#X connect 0 0 1 0;
#X connect 1 0 2 0;
#X connect 2 0 7 0;
#X connect 3 0 8 0;
#X connect 4 0 0 0;
#X connect 4 1 3 0;
#X connect 5 0 6 0;
#X connect 6 0 13 0;
#X connect 7 0 9 0;
#X connect 8 0 7 1;
#X connect 9 0 5 0;
#X connect 10 0 9 1;
#X connect 11 0 8 1;
#X connect 12 0 4 0;
#X connect 14 0 2 1;
#X restore 63 360 pd pinwheel;
#X obj 265 338 * -1;
#N canvas 2 71 450 475 pinwheel 0;
#X obj 46 102 #inner (0 1);
#X obj 46 138 # + 18000;
#X obj 46 198 # + 0;
#X obj 176 102 #inner (1 0);
#X obj 46 54 #t;
#X obj 46 313 # % 36000;
#X obj 46 339 # > 18000;
#X obj 46 235 # +;
#X obj 176 138 # * 1;
#X obj 46 272 # * 1;
#X obj 149 233 inlet;
#X obj 284 102 inlet;
#X obj 46 28 inlet;
#X obj 46 373 outlet;
#X obj 84 166 inlet;
#X connect 0 0 1 0;
#X connect 1 0 2 0;
#X connect 2 0 7 0;
#X connect 3 0 8 0;
#X connect 4 0 0 0;
#X connect 4 1 3 0;
#X connect 5 0 6 0;
#X connect 6 0 13 0;
#X connect 7 0 9 0;
#X connect 8 0 7 1;
#X connect 9 0 5 0;
#X connect 10 0 9 1;
#X connect 11 0 8 1;
#X connect 12 0 4 0;
#X connect 14 0 2 1;
#X restore 160 360 pd pinwheel;
#X obj 61 280 #t;
#X obj 61 449 # &;
#X obj 157 447 # &;
#X obj 192 448 # ^ 1;
#X obj 62 480 # |;
#X obj 197 172 + 250;
#X obj 174 296 * 1;
#X obj 221 289 nbx 3 14 1 32 0 1 empty empty empty 0 -8 0 10 -233217
-1 -1 10 256;
#X obj 265 290 nbx 3 14 1 512 0 1 empty empty empty 0 -8 0 10 -233217
-1 -1 280 256;
#X obj 445 250 nbx 3 14 1 8 0 1 empty empty empty 0 -8 0 10 -233217
-1 -1 2 256;
#X obj 47 169 # c2p (128 128);
#X text 24 26 Copyright 2009 by Federico Ferri;
#X text 24 578 GridFlow 0.9.5;
#X connect 0 0 25 0;
#X connect 1 0 2 0;
#X connect 3 0 6 0;
#X connect 4 0 3 0;
#X connect 5 0 12 1;
#X connect 5 0 20 0;
#X connect 5 0 21 0;
#X connect 6 0 0 0;
#X connect 6 1 5 0;
#X connect 7 0 15 0;
#X connect 7 1 8 0;
#X connect 8 0 11 0;
#X connect 9 0 10 0;
#X connect 10 0 16 1;
#X connect 10 0 18 0;
#X connect 11 0 9 0;
#X connect 12 0 16 0;
#X connect 13 0 14 3;
#X connect 14 0 17 0;
#X connect 15 0 12 0;
#X connect 15 1 14 0;
#X connect 16 0 19 0;
#X connect 17 0 19 1;
#X connect 18 0 17 1;
#X connect 19 0 1 0;
#X connect 20 0 5 1;
#X connect 21 0 14 1;
#X connect 22 0 14 2;
#X connect 22 0 12 2;
#X connect 23 0 13 0;
#X connect 23 0 12 3;
#X connect 24 0 11 1;
#X connect 25 0 7 0;
