#N canvas 578 0 643 717 10;
#X obj 33 371 #outer * (255 255 255);
#X obj 33 391 #out window;
#X obj 33 95 metro 33;
#X obj 33 70 tgl 15 0 empty empty empty 17 7 0 10 -4034 -1 -1 0 1;
#X obj 154 155 f;
#X obj 33 115 t b b;
#X obj 33 195 #t;
#X obj 295 212 #inner (1 0);
#X obj 295 269 # % 256;
#X obj 295 289 # > 128;
#X obj 295 249 # *;
#X obj 235 249 * -1;
#X obj 33 215 #t;
#X obj 33 331 # &;
#X obj 130 331 # &;
#X obj 160 331 # ^ 1;
#X obj 33 351 # |;
#X obj 187 155 + 250;
#X obj 179 232 nbx 3 14 1 32 0 1 empty A empty 0 -8 0 10 -241291 -1
-1 18 256;
#X obj 235 232 nbx 3 14 0 512 0 1 empty B empty 0 -8 0 10 -241291 -1
-1 210 256;
#X obj 313 232 nbx 3 14 1 8 0 1 empty C empty 0 -8 0 10 -241291 -1
-1 3 256;
#X obj 33 155 # c2p (128 128);
#X obj 295 26 cnv 15 220 160 empty empty empty 20 12 0 14 -241291 -66577
0;
#X msg 442 125 \; A 2 \; B 15 \; C 8;
#X msg 442 59 \; A 8 \; B 141 \; C 8;
#X msg 378 59 \; A 1 \; B 512 \; C 1;
#X msg 314 125 \; A 31 \; B 74 \; C 8;
#X msg 378 125 \; A 3 \; B 23 \; C 1;
#X msg 314 59 \; A 24 \; B 175 \; C 3;
#X text 320 29 Presets:;
#X obj 154 175 * 1;
#X text 24 26 Copyright 2009 by Federico Ferri;
#X text 385 365 GridFlow 0.9.5;
#N canvas 405 103 615 481 pinwheel 0;
#X obj 46 313 # % 36000;
#X obj 46 339 # > 18000;
#X obj 46 28 inlet;
#X obj 46 373 outlet;
#X obj 46 146 # + (0 0);
#X msg 133 114 2 # 0 \$1;
#X msg 143 172 2 # \$1 1;
#X obj 190 225 inlet;
#X obj 259 130 inlet;
#X obj 154 70 inlet;
#X obj 46 242 #inner (1 1);
#X obj 139 93 + 18000;
#X obj 129 199 # * 1;
#X obj 190 244 t b a;
#X obj 154 151 f;
#X connect 0 0 1 0;
#X connect 1 0 3 0;
#X connect 2 0 4 0;
#X connect 4 0 10 0;
#X connect 5 0 4 1;
#X connect 6 0 12 0;
#X connect 7 0 13 0;
#X connect 8 0 14 0;
#X connect 9 0 11 0;
#X connect 10 0 0 0;
#X connect 11 0 5 0;
#X connect 12 0 10 1;
#X connect 13 0 14 0;
#X connect 13 1 12 1;
#X connect 14 0 6 0;
#X restore 33 291 pd pinwheel;
#N canvas 548 104 615 481 pinwheel 1;
#X obj 46 313 # % 36000;
#X obj 46 339 # > 18000;
#X obj 46 28 inlet;
#X obj 46 373 outlet;
#X obj 46 146 # + (0 0);
#X msg 133 114 2 # 0 \$1;
#X msg 134 182 2 # \$1 1;
#X obj 190 225 inlet;
#X obj 259 130 inlet;
#X obj 154 70 inlet;
#X obj 46 242 #inner (1 1);
#X obj 134 95 + 18000;
#X obj 131 204 # * 1;
#X obj 135 161 f;
#X obj 190 244 t b a;
#X connect 0 0 1 0;
#X connect 1 0 3 0;
#X connect 2 0 4 0;
#X connect 4 0 10 0;
#X connect 5 0 4 1;
#X connect 6 0 12 0;
#X connect 7 0 14 0;
#X connect 8 0 13 0;
#X connect 9 0 11 0;
#X connect 10 0 0 0;
#X connect 11 0 5 0;
#X connect 12 0 10 1;
#X connect 13 0 6 0;
#X connect 14 0 13 0;
#X connect 14 1 12 1;
#X restore 130 291 pd pinwheel;
#X obj 32 135 #for (0 0) (256 256) (1 1);
#X msg 117 114 512 512;
#X obj 33 410 fps;
#X floatatom 33 429 5 0 0 0 - - -;
#X msg 117 94 256 256;
#X connect 0 0 1 0;
#X connect 1 0 37 0;
#X connect 2 0 5 0;
#X connect 3 0 2 0;
#X connect 4 0 17 0;
#X connect 4 0 30 0;
#X connect 4 0 33 1;
#X connect 5 0 35 0;
#X connect 5 1 4 0;
#X connect 6 0 12 0;
#X connect 6 1 7 0;
#X connect 7 0 10 0;
#X connect 8 0 9 0;
#X connect 9 0 13 1;
#X connect 9 0 15 0;
#X connect 10 0 8 0;
#X connect 11 0 34 3;
#X connect 12 0 33 0;
#X connect 12 1 34 0;
#X connect 13 0 16 0;
#X connect 14 0 16 1;
#X connect 15 0 14 1;
#X connect 16 0 0 0;
#X connect 17 0 4 1;
#X connect 18 0 33 2;
#X connect 18 0 34 2;
#X connect 19 0 11 0;
#X connect 19 0 33 3;
#X connect 20 0 10 1;
#X connect 21 0 6 0;
#X connect 30 0 34 1;
#X connect 33 0 13 0;
#X connect 34 0 14 0;
#X connect 35 0 21 0;
#X connect 36 0 35 1;
#X connect 37 0 38 0;
#X connect 39 0 35 1;
