#N canvas 557 252 621 433 10;
#X obj 195 169 # + 320;
#X obj 57 314 #out window;
#X obj 195 112 # - 320;
#X obj 195 150 # tanh* 343;
#X obj 195 131 # * 30;
#X obj 57 104 tgl 15 0 empty empty empty 0 -6 0 8 -24198 -1 -1 0 1
;
#X obj 57 121 metro 100;
#X obj 304 114 hsl 128 15 0 500 0 0 empty empty empty -2 -6 0 8 -260818
-1 -1 0 1;
#X floatatom 267 113 5 0 0 0 - - -;
#X obj 304 133 hsl 128 15 0 500 0 0 empty empty empty -2 -6 0 8 -260818
-1 -1 0 1;
#X floatatom 267 132 5 0 0 0 - - -;
#X obj 304 152 hsl 128 15 0 500 0 0 empty empty empty -2 -6 0 8 -260818
-1 -1 0 1;
#X floatatom 267 151 5 0 0 0 - - -;
#X obj 304 171 hsl 128 15 0 500 0 0 empty empty empty -2 -6 0 8 -260818
-1 -1 0 1;
#X floatatom 267 170 5 0 0 0 - - -;
#X obj 0 0 doc_demo;
#X obj 57 162 shunt;
#X obj 94 163 tgl 15 0 empty empty empty 17 7 0 10 -262144 -1 -1 0
1;
#X obj 398 251 loadbang;
#X obj 392 232 bng 15 250 50 0 empty empty empty 17 7 0 10 -262144
-1 -1;
#X obj 392 290 #outer * (1 0 1 0);
#X obj 392 309 # + (0 0 0 640);
#X obj 84 291 #draw_polygon ^ (255 0 0) \, draw line \, omit odd;
#X obj 392 347 #t;
#X obj 392 366 #join 0;
#X obj 419 347 #reverse 1;
#X obj 392 271 #for 0 640 40;
#X obj 392 328 #redim (32 2);
#N canvas 733 86 441 352 Plot-a-Function™ 0;
#X obj 17 206 # inv+ 640;
#X obj 17 187 #for 0 640 1;
#X obj 47 83 outlet;
#X obj 17 225 #outer <;
#X obj 47 102 inlet;
#X text 155 243 to rgb;
#X text 71 224 make graph \, twotone channelless;
#X obj 17 263 outlet;
#X obj 10 29 #for 0 640 1;
#X obj 10 10 inlet;
#X obj 17 168 #finished;
#X obj 17 149 t a a;
#X obj 17 244 #outer * (255 255 255);
#X text 90 86 in pd \, annoyingly \, [inlet] and [outlet] are sorted
by x-position. be careful.;
#X connect 0 0 3 0;
#X connect 1 0 0 0;
#X connect 3 0 12 0;
#X connect 4 0 11 0;
#X connect 8 0 2 0;
#X connect 9 0 8 0;
#X connect 10 0 1 0;
#X connect 11 0 10 0;
#X connect 11 1 3 1;
#X connect 12 0 7 0;
#X restore 57 140 pd Plot-a-Function™;
#X text 0 22 Copyright 2003 \, 2010 Mathieu Bouchard;
#X connect 0 0 28 1;
#X connect 2 0 4 0;
#X connect 3 0 0 0;
#X connect 4 0 3 0;
#X connect 5 0 6 0;
#X connect 6 0 28 0;
#X connect 7 0 8 0;
#X connect 8 0 2 1;
#X connect 9 0 10 0;
#X connect 10 0 4 1;
#X connect 11 0 12 0;
#X connect 12 0 3 1;
#X connect 13 0 14 0;
#X connect 14 0 0 1;
#X connect 16 0 1 0;
#X connect 16 1 22 0;
#X connect 17 0 16 1;
#X connect 18 0 26 0;
#X connect 19 0 26 0;
#X connect 20 0 21 0;
#X connect 21 0 27 0;
#X connect 22 0 1 0;
#X connect 23 0 24 0;
#X connect 23 1 25 0;
#X connect 24 0 22 2;
#X connect 25 0 24 1;
#X connect 26 0 20 0;
#X connect 27 0 23 0;
#X connect 28 0 16 0;
#X connect 28 1 2 0;
