#N canvas 626 0 623 695 10;
#X obj 15 27 gemhead;
#X msg 223 49 destroy;
#X obj 0 0 doc_demo;
#X obj 315 348 #many tgl 7 7;
#X obj 15 236 translateXYZ -3.5 -3.5 -3.5;
#X obj 15 216 rotateXYZ 125 0 135;
#X floatatom 89 191 5 0 0 0 - - -;
#X floatatom 114 110 5 0 0 0 - - -;
#X obj 297 53 gf/mouse_spy;
#X obj 297 72 route keypress;
#N canvas 583 79 666 594 cubes 0;
#X obj 34 77 repeat 7;
#X obj 256 103 #store;
#X obj 78 96 f;
#X obj 102 96 + 1;
#X obj 15 436 GEMglEnd;
#X obj 15 54 t a a b;
#X msg 93 71 0;
#X obj 34 96 t a b;
#X obj 15 35 GEMglBegin 7;
#X obj 22 148 repeat 7;
#X obj 22 189 t a b;
#X obj 59 189 f;
#X obj 83 189 + 1;
#X msg 74 170 0;
#X obj 47 128 + 1;
#X obj 43 273 #unpack 3;
#X obj 256 84 pack 0 0;
#X obj 256 141 #store (2 3 # 255 0 0 0 255 0);
#X obj 256 122 #outer ignore (0);
#X obj 232 199 -;
#X obj 181 362 + 1;
#X obj 211 315 + 1;
#X obj 78 115 * 1;
#X obj 22 294 GEMglColor3f;
#X obj 162 289 GEMglVertex3f;
#X obj 162 338 GEMglVertex3f;
#X obj 162 387 GEMglVertex3f;
#X obj 162 406 GEMglVertex3f;
#X obj 397 359 + 1;
#X obj 312 332 GEMglVertex3f;
#X obj 312 372 GEMglVertex3f;
#X obj 312 412 GEMglVertex3f;
#X obj 312 292 GEMglVertex3f;
#X obj 329 237 t a;
#X obj 337 311 + 1;
#X obj 379 233 t a;
#X obj 463 343 GEMglVertex3f;
#X obj 463 383 GEMglVertex3f;
#X obj 463 423 GEMglVertex3f;
#X obj 463 303 GEMglVertex3f;
#X obj 557 321 + 1;
#X obj 575 224 t a;
#X obj 312 269 GEMglColor3f 0.7 0.7 0;
#X obj 454 271 GEMglColor3f 0 0.7 0.7;
#X obj 550 364 + 1;
#X obj 477 240 + 1;
#X obj 15 16 inlet;
#X obj 310 86 inlet;
#X connect 0 0 7 0;
#X connect 1 0 18 0;
#X connect 2 0 3 0;
#X connect 2 0 14 0;
#X connect 2 0 16 1;
#X connect 2 0 19 1;
#X connect 2 0 22 0;
#X connect 3 0 2 1;
#X connect 5 0 4 0;
#X connect 5 1 0 0;
#X connect 5 2 6 0;
#X connect 6 0 2 1;
#X connect 7 0 9 0;
#X connect 7 1 2 0;
#X connect 7 1 13 0;
#X connect 8 0 5 0;
#X connect 9 0 10 0;
#X connect 10 0 43 0;
#X connect 10 0 23 0;
#X connect 10 0 42 0;
#X connect 10 1 11 0;
#X connect 11 0 12 0;
#X connect 11 0 16 0;
#X connect 11 0 19 0;
#X connect 11 0 20 0;
#X connect 11 0 24 1;
#X connect 11 0 25 1;
#X connect 11 0 33 0;
#X connect 11 0 45 0;
#X connect 12 0 11 1;
#X connect 13 0 11 1;
#X connect 14 0 9 1;
#X connect 15 0 23 1;
#X connect 15 1 23 2;
#X connect 15 2 23 3;
#X connect 16 0 1 0;
#X connect 17 0 15 0;
#X connect 18 0 17 0;
#X connect 19 0 24 3;
#X connect 19 0 25 3;
#X connect 19 0 26 3;
#X connect 19 0 27 3;
#X connect 19 0 28 0;
#X connect 19 0 32 3;
#X connect 19 0 29 3;
#X connect 19 0 39 3;
#X connect 19 0 36 3;
#X connect 19 0 44 0;
#X connect 20 0 26 1;
#X connect 20 0 27 1;
#X connect 21 0 25 2;
#X connect 21 0 26 2;
#X connect 22 0 21 0;
#X connect 22 0 24 2;
#X connect 22 0 27 2;
#X connect 22 0 35 0;
#X connect 22 0 41 0;
#X connect 23 0 24 0;
#X connect 24 0 25 0;
#X connect 25 0 26 0;
#X connect 26 0 27 0;
#X connect 28 0 30 3;
#X connect 28 0 31 3;
#X connect 29 0 30 0;
#X connect 30 0 31 0;
#X connect 32 0 29 0;
#X connect 33 0 32 1;
#X connect 33 0 31 1;
#X connect 33 0 34 0;
#X connect 34 0 29 1;
#X connect 34 0 30 1;
#X connect 35 0 32 2;
#X connect 35 0 29 2;
#X connect 35 0 30 2;
#X connect 35 0 31 2;
#X connect 36 0 37 0;
#X connect 37 0 38 0;
#X connect 39 0 36 0;
#X connect 40 0 36 2;
#X connect 40 0 37 2;
#X connect 41 0 39 2;
#X connect 41 0 40 0;
#X connect 41 0 38 2;
#X connect 42 0 32 0;
#X connect 43 0 39 0;
#X connect 44 0 37 3;
#X connect 44 0 38 3;
#X connect 45 0 39 1;
#X connect 45 0 36 1;
#X connect 45 0 37 1;
#X connect 45 0 38 1;
#X connect 46 0 8 0;
#X connect 47 0 1 1;
#X restore 15 316 pd cubes;
#X obj 315 310 loadbang;
#X msg 315 329 7 7 #;
#X msg 297 91 symbol \$4;
#X obj 297 110 sel Up Down Left Right;
#X msg 297 286 to \$1 \$2 bang;
#X msg 218 130 0 0;
#X obj 218 111 loadbang;
#X obj 306 237 display;
#X msg 297 129 -1 0;
#X msg 329 129 1 0;
#X msg 361 129 0 -1;
#X msg 393 129 0 1;
#X obj 297 210 #clip 0 6;
#X obj 297 267 #to_list;
#X obj 315 466 #reverse 1;
#X obj 297 171 # + (0 0);
#X obj 67 38 separator;
#X obj 15 51 t a a;
#X obj 59 76 light 1 0 0;
#X floatatom 158 35 5 0 0 0 - - -;
#X obj 213 72 gemwin;
#X obj 67 57 translateXYZ 0 -5 -5;
#X msg 221 29 dimen 640 480 \, title GridFlow/GEM \, create \, 1 \,
lighting 0;
#X obj 15 131 translateXYZ 0 -7 -7;
#X connect 0 0 28 0;
#X connect 1 0 31 0;
#X connect 3 0 25 0;
#X connect 4 0 10 0;
#X connect 5 0 4 0;
#X connect 6 0 5 1;
#X connect 7 0 34 2;
#X connect 8 0 9 0;
#X connect 9 0 13 0;
#X connect 11 0 12 0;
#X connect 12 0 3 0;
#X connect 13 0 14 0;
#X connect 14 0 19 0;
#X connect 14 1 20 0;
#X connect 14 2 21 0;
#X connect 14 3 22 0;
#X connect 15 0 3 0;
#X connect 16 0 26 0;
#X connect 17 0 16 0;
#X connect 19 0 26 0;
#X connect 20 0 26 0;
#X connect 21 0 26 0;
#X connect 22 0 26 0;
#X connect 23 0 18 0;
#X connect 23 0 24 0;
#X connect 23 0 26 1;
#X connect 24 0 15 0;
#X connect 25 0 10 1;
#X connect 26 0 23 0;
#X connect 27 0 32 0;
#X connect 28 0 34 0;
#X connect 30 0 32 3;
#X connect 32 0 29 0;
#X connect 33 0 31 0;
#X connect 34 0 5 0;
