#N canvas 276 26 683 618 10;
#X obj 15 397 #out window;
#X obj 38 85 +;
#X obj 7 237 # +;
#X obj 7 275 shunt 2;
#X obj 243 169 # sin* 256;
#N canvas 609 247 325 236 distance 0;
#X text 16 15 bang;
#X text 15 149 distances to middle;
#X obj 18 36 inlet;
#X obj 18 93 #fold +;
#X text 89 95 pythagoras' theorem;
#X obj 18 131 outlet;
#X obj 18 55 #for (-128 -128) (128 128) (1 1);
#X obj 18 112 # sqrt;
#X obj 18 74 # sq-;
#X connect 2 0 6 0;
#X connect 3 0 7 0;
#X connect 6 0 8 0;
#X connect 7 0 5 0;
#X connect 8 0 3 0;
#X restore 104 19 pd distance map;
#X obj 243 110 loadbang;
#X obj 7 22 t a a;
#X obj 122 260 tgl 15 0 empty empty empty 0 -6 0 8 -241291 -1 -1 0
1;
#X msg 38 66 1;
#X obj 7 85 # -;
#X obj 7 42 #store;
#X obj 7 -33 tgl 15 0 empty empty empty 0 -6 0 8 -24198 -1 -1 1 1;
#X obj 7 256 #store;
#X obj 7 5 bng 15 250 50 0 empty empty empty 0 -6 0 8 -262144 -1 -1
;
#X obj 104 104 # + 10;
#X text 141 260 shading on/off;
#X obj 7 199 shunt 2;
#X floatatom 63 86 5 0 0 0 - - -;
#X obj 7 161 # *>>8;
#X obj 124 290 loadbang;
#X obj 104 -1 loadbang;
#X obj 104 123 # inv* 10000;
#N canvas 392 110 431 179 angle 0;
#X obj 21 99 #outer atan;
#X text 64 119 angles to centre;
#X text 22 13 bang;
#X obj 21 32 inlet;
#X obj 21 51 #for -128 128 1;
#X obj 21 70 #t;
#X obj 21 119 outlet;
#X connect 0 0 6 0;
#X connect 3 0 4 0;
#X connect 4 0 5 0;
#X connect 5 0 0 0;
#X connect 5 1 0 1;
#X restore 243 131 pd angle map;
#X obj 7 123 # *>>8;
#X obj 7 180 # *>>8;
#X obj 219 215 hsl 128 15 -256 256 0 1 empty empty empty -2 -6 0 8
-260818 -1 -1 12700 1;
#X obj 219 232 hsl 128 15 -256 256 0 1 empty empty empty -2 -6 0 8
-260818 -1 -1 3200 1;
#X text 191 333 background image;
#X obj 124 350 #in teapot.png;
#X obj 124 331 loadbang;
#X text 175 199 intensity of wave;
#X obj 7 -16 metro 33.3667;
#X text 206 -15 waves.pd is more interesting;
#X text 185 -29 this is a quite boring wave generator;
#X text 55 41 table for distance map;
#X floatatom 176 217 5 0 0 0 - - -;
#X floatatom 176 233 5 0 0 0 - - -;
#X obj 117 219 #pack 2;
#X obj -13 -85 cnv 15 680 30 empty empty empty 20 12 0 14 -233017 -66577
0;
#X text 0 -72 Copyright 2002 Mathieu Bouchard;
#X text 0 -85 ripple.pd;
#X obj -15 501 cnv 15 680 30 empty empty empty 20 12 0 14 -200249 -66577
0;
#X text -7 508 GridFlow 0.8.0;
#X text -7 508 GridFlow 0.8.0;
#X obj 161 412 #color;
#X text 246 393 color of ripple shading;
#X obj 124 309 #for (0 0) (256 256) (1 1);
#X obj 243 150 #outer + (0 9000);
#X obj 7 142 #outer ignore (0 0);
#X obj 7 218 #t;
#X obj 161 374 loadbang;
#X msg 161 393 255 255 100;
#N canvas 637 465 387 220 compute_sine 0;
#X obj 8 113 #store;
#X obj 55 113 # sin* 64;
#X obj 55 71 #for 0 1024 1;
#X obj 55 50 loadbang;
#X obj 55 92 # * 900;
#X obj 125 51 bng 15 250 50 0 empty empty empty 0 -6 0 8 -262144 -1
-1;
#X obj 8 135 outlet;
#X text 75 151 This is somewhat like [# sin];
#X text 75 166 but much faster (lookup table);
#X obj 8 11 inlet;
#X obj 8 30 #outer ignore (0);
#X connect 0 0 6 0;
#X connect 1 0 0 1;
#X connect 2 0 4 0;
#X connect 3 0 2 0;
#X connect 4 0 1 0;
#X connect 5 0 2 0;
#X connect 9 0 10 0;
#X connect 10 0 0 0;
#X restore 7 104 pd compute_sine;
#N canvas 604 460 336 147 apply_shading 0;
#X obj 60 35 #fold +;
#X obj 60 16 inlet;
#X obj 12 74 # +;
#X obj 12 16 inlet;
#X obj 60 73 #outer *>>8;
#X obj 132 73 inlet;
#X obj 60 54 # << 2;
#X obj 12 112 outlet;
#X obj 12 93 #clip;
#X connect 0 0 6 0;
#X connect 1 0 0 0;
#X connect 2 0 8 0;
#X connect 3 0 2 0;
#X connect 4 0 2 1;
#X connect 5 0 4 1;
#X connect 6 0 4 0;
#X connect 8 0 7 0;
#X restore 8 372 pd apply_shading;
#X connect 1 0 18 0;
#X connect 1 0 10 1;
#X connect 2 0 13 0;
#X connect 3 0 54 0;
#X connect 3 1 0 0;
#X connect 4 0 19 1;
#X connect 5 0 15 0;
#X connect 5 0 11 1;
#X connect 6 0 23 0;
#X connect 7 0 11 0;
#X connect 7 1 9 0;
#X connect 8 0 17 1;
#X connect 8 0 3 1;
#X connect 9 0 1 0;
#X connect 10 0 53 0;
#X connect 11 0 10 0;
#X connect 12 0 32 0;
#X connect 13 0 3 0;
#X connect 14 0 7 0;
#X connect 15 0 22 0;
#X connect 17 0 50 0;
#X connect 17 1 2 0;
#X connect 18 0 1 1;
#X connect 19 0 25 0;
#X connect 20 0 47 0;
#X connect 21 0 5 0;
#X connect 22 0 24 1;
#X connect 23 0 48 0;
#X connect 24 0 49 0;
#X connect 25 0 17 0;
#X connect 26 0 36 0;
#X connect 27 0 37 0;
#X connect 29 0 13 1;
#X connect 30 0 29 0;
#X connect 32 0 14 0;
#X connect 36 0 38 0;
#X connect 37 0 38 1;
#X connect 38 0 25 1;
#X connect 45 0 54 2;
#X connect 47 0 2 1;
#X connect 48 0 4 0;
#X connect 49 0 19 0;
#X connect 50 0 2 0;
#X connect 50 1 54 1;
#X connect 51 0 52 0;
#X connect 52 0 45 0;
#X connect 53 0 24 0;
#X connect 54 0 0 0;
