#N canvas 623 43 624 388 10;
#X obj 18 305 #out window;
#X obj 18 85 tgl 15 0 empty empty empty 17 7 0 10 -24198 -1 -1 1 1
;
#X obj 18 113 metro 33.3333;
#X text 5 25 Copyright 2007 Roman Haefeli;
#X text 38 85 <- start / stop;
#X obj 18 136 #camera 0 \, size 240 320;
#X floatatom 18 343 5 0 0 0 - - -;
#X obj 18 324 fps;
#X obj 18 174 t a a b;
#X obj 18 193 #finished;
#X obj 0 0 doc_demo;
#X text 5 39 Copyright 2010 Mathieu Bouchard;
#X obj 88 174 f;
#X obj 112 174 + 1;
#X obj 136 174 mod 600;
#X msg 88 193 put_at \$1 0 0;
#X obj 18 219 #for 0 600 1;
#X obj 18 248 # +;
#X obj 18 267 #outer ignore (0);
#X obj 18 155 #slice (119 0) (120 320);
#X obj 18 286 #store (600 320 3 b #);
#X obj 156 286 #cast b;
#X connect 0 0 7 0;
#X connect 1 0 2 0;
#X connect 2 0 5 0;
#X connect 5 0 19 0;
#X connect 7 0 6 0;
#X connect 8 0 9 0;
#X connect 8 1 21 0;
#X connect 8 2 12 0;
#X connect 9 0 16 0;
#X connect 12 0 13 0;
#X connect 12 0 15 0;
#X connect 12 0 17 1;
#X connect 13 0 14 0;
#X connect 14 0 12 1;
#X connect 15 0 20 1;
#X connect 16 0 17 0;
#X connect 17 0 18 0;
#X connect 18 0 20 0;
#X connect 19 0 8 0;
#X connect 20 0 0 0;
#X connect 21 0 20 1;
