#N canvas 579 70 647 544 10;
#X msg 483 52 create \, 1;
#X msg 483 71 destroy;
#X obj 463 264 gemhead;
#X obj 481 492 GEMglVertex3f;
#X obj 506 473 #unpack 3;
#X obj 462 511 GEMglEnd;
#X obj 481 378 repeat 16;
#X msg 510 359 0;
#X obj 481 397 t a b;
#X obj 508 416 f;
#X msg 508 435 list \$1;
#X obj 21 127 #cast f;
#X obj 508 454 #store (16 3 f #);
#X obj 27 346 s \$0-gon;
#X obj 462 359 t a a b;
#X obj 551 378 #dim;
#X obj 551 359 t a a;
#X obj 551 397 #unpack;
#X obj 532 416 + 1;
#X obj 213 80 f;
#X obj 21 239 #t;
#X msg 72 230 list f # \$1;
#X msg 318 81 0;
#X obj 213 196 +;
#X obj 467 93 gemwin 30;
#X obj 0 0 doc_demo;
#X text 1 25 Copyright © 2010 by Mathieu Bouchard;
#X obj 213 139 div 10;
#X obj 48 230 # *;
#X obj 27 297 #inner (2 3 f # 1 0 0 0 1 0) \, seed (f #);
#X obj 48 249 # + (2 f #);
#X obj 144 203 #pack 2 f;
#X obj 21 365 spigot;
#X obj 193 350 tgl 15 0 empty empty empty 17 7 0 10 -257985 -1 -1 0
1;
#X obj 21 384 t a a;
#X obj 21 403 #finished;
#X obj 21 461 #window;
#X obj 213 441 #cast i;
#X obj 213 422 # + (2 f # 256 256);
#X obj 213 384 #reverse -1;
#X obj 213 403 # * (2 f # -63 63);
#X obj 219 100 moses 360;
#X obj 144 184 * 500;
#X obj 21 277 # cos* (2 2 f #);
#X obj 21 53 tgl 15 0 empty empty empty 17 7 0 10 -4034 -1 -1 1 1;
#X obj 21 480 fps;
#X floatatom 21 499 5 0 0 0 - - -;
#X obj 21 108 #outer + (0 9000);
#X obj 213 177 * 0.1;
#X obj 237 196 * 0.9;
#X obj 21 70 metro 16.6666;
#X obj 193 331 loadbang;
#X obj 213 158 shunt;
#X obj 249 159 tgl 15 0 empty empty empty 17 7 0 10 -262144 -1 -1 1
1;
#X obj 358 174 wrap;
#X obj 358 154 / 10;
#X obj 343 225 +;
#X obj 358 206 expr (3-2*$f1)*$f1*$f1;
#X obj 213 120 t f f;
#X obj 21 422 #store (512 512 3 b # 128 0 40);
#X text 205 211 linear recursive lop;
#X text 265 157 ease in?;
#X msg 181 152 0;
#X obj 551 340 r \$0-gon;
#X floatatom 302 122 5 0 0 0 - - -;
#X obj 21 442 #draw_polygon put (3 b # 255);
#N canvas 495 0 752 542 cubify 1;
#X obj 14 16 inlet;
#X obj 14 365 outlet;
#X text 51 15 gem;
#X text 56 365 gem;
#X obj 584 235 separator;
#X obj 584 273 translateXYZ 0 0 1;
#X obj 584 292 color 1 0 0;
#X obj 14 89 rotateXYZ;
#X floatatom 65 71 5 0 0 0 - - -;
#X floatatom 48 53 5 0 0 0 - - -;
#X floatatom 31 35 5 0 0 0 - - -;
#X obj 470 291 color 0 1 1;
#X obj 470 272 translateXYZ 0 0 1;
#X obj 584 254 rotateXYZ 90 0 0;
#X obj 470 234 separator;
#X obj 470 253 rotateXYZ -90 0 0;
#X obj 356 234 separator;
#X obj 356 272 translateXYZ 0 0 1;
#X obj 242 271 translateXYZ 0 0 1;
#X obj 242 233 separator;
#X obj 242 252 rotateXYZ 0 -90 0;
#X obj 356 253 rotateXYZ 0 90 0;
#X obj 128 271 translateXYZ 0 0 1;
#X obj 128 233 separator;
#X obj 128 252 rotateXYZ 0 180 0;
#X obj 14 271 translateXYZ 0 0 1;
#X obj 603 66 t f;
#X floatatom 603 48 5 0 0 0 - - -;
#X obj 356 291 color 0 1 0;
#X obj 242 290 color 1 0 1;
#X obj 128 290 color 0 0 1;
#X obj 14 290 color 1 1 0;
#X obj 14 154 scaleXYZ 0.5 0.5 0.5;
#X obj 603 29 loadbang;
#X obj 201 74 separator;
#X obj 14 173 t a a a a a a;
#X obj 14 120 t a a;
#X obj 201 112 light 1 1 1;
#X obj 201 93 translateXYZ 7 7 7;
#X text 179 56 does not work properly... some polygons turn black.
;
#X connect 0 0 7 0;
#X connect 4 0 13 0;
#X connect 5 0 6 0;
#X connect 6 0 1 0;
#X connect 7 0 36 0;
#X connect 8 0 7 3;
#X connect 9 0 7 2;
#X connect 10 0 7 1;
#X connect 11 0 1 0;
#X connect 12 0 11 0;
#X connect 13 0 5 0;
#X connect 14 0 15 0;
#X connect 15 0 12 0;
#X connect 16 0 21 0;
#X connect 17 0 28 0;
#X connect 18 0 29 0;
#X connect 19 0 20 0;
#X connect 20 0 18 0;
#X connect 21 0 17 0;
#X connect 22 0 30 0;
#X connect 23 0 24 0;
#X connect 24 0 22 0;
#X connect 25 0 31 0;
#X connect 26 0 5 3;
#X connect 26 0 12 3;
#X connect 26 0 17 3;
#X connect 26 0 18 3;
#X connect 26 0 22 3;
#X connect 26 0 25 3;
#X connect 27 0 26 0;
#X connect 28 0 1 0;
#X connect 29 0 1 0;
#X connect 30 0 1 0;
#X connect 31 0 1 0;
#X connect 32 0 35 0;
#X connect 33 0 27 0;
#X connect 34 0 38 0;
#X connect 35 0 25 0;
#X connect 35 1 23 0;
#X connect 35 2 19 0;
#X connect 35 3 16 0;
#X connect 35 4 14 0;
#X connect 35 5 4 0;
#X connect 36 0 32 0;
#X connect 36 1 34 0;
#X connect 38 0 37 0;
#X restore 490 302 pd cubify;
#X obj 463 283 shunt;
#X obj 500 284 tgl 15 0 empty empty empty 17 7 0 10 -257985 -1 -1 1
1;
#X obj 123 258 # cos* (2 f # 3);
#X obj 123 277 # + (2 f # 1);
#X obj 237 80 + 0.1;
#X text 366 224 cubic interpolator;
#X text 361 189 integral of 6x - 6x^2 = 3x^2 - 2x^3;
#X obj 463 321 GEMglNormal3f 0 0 1;
#X obj 21 89 #for 0 36000 75;
#X obj 463 340 GEMglBegin 7;
#X connect 0 0 24 0;
#X connect 1 0 24 0;
#X connect 2 0 67 0;
#X connect 4 0 3 1;
#X connect 4 1 3 2;
#X connect 4 2 3 3;
#X connect 6 0 8 0;
#X connect 7 0 9 1;
#X connect 8 0 3 0;
#X connect 8 1 9 0;
#X connect 9 0 10 0;
#X connect 9 0 18 0;
#X connect 10 0 12 0;
#X connect 11 0 20 0;
#X connect 12 0 4 0;
#X connect 14 0 5 0;
#X connect 14 1 6 0;
#X connect 14 2 7 0;
#X connect 15 0 17 0;
#X connect 16 0 15 0;
#X connect 16 1 12 1;
#X connect 17 0 6 1;
#X connect 18 0 9 1;
#X connect 19 0 42 0;
#X connect 19 0 41 0;
#X connect 19 0 58 0;
#X connect 20 0 43 0;
#X connect 20 1 28 0;
#X connect 21 0 28 1;
#X connect 22 0 19 1;
#X connect 23 0 21 0;
#X connect 23 0 49 0;
#X connect 27 0 52 0;
#X connect 28 0 30 0;
#X connect 29 0 13 0;
#X connect 30 0 69 0;
#X connect 31 0 30 1;
#X connect 32 0 34 0;
#X connect 33 0 32 1;
#X connect 33 0 36 1;
#X connect 34 0 35 0;
#X connect 34 1 39 0;
#X connect 35 0 59 0;
#X connect 36 0 45 0;
#X connect 37 0 65 2;
#X connect 38 0 37 0;
#X connect 39 0 40 0;
#X connect 40 0 38 0;
#X connect 41 0 71 0;
#X connect 41 1 22 0;
#X connect 41 1 64 0;
#X connect 42 0 31 0;
#X connect 43 0 29 0;
#X connect 43 0 32 0;
#X connect 44 0 50 0;
#X connect 45 0 46 0;
#X connect 47 0 11 0;
#X connect 48 0 23 0;
#X connect 49 0 23 1;
#X connect 50 0 19 0;
#X connect 50 0 75 0;
#X connect 51 0 33 0;
#X connect 52 0 48 0;
#X connect 52 1 56 0;
#X connect 53 0 52 1;
#X connect 54 0 57 0;
#X connect 55 0 54 0;
#X connect 56 0 21 0;
#X connect 57 0 56 1;
#X connect 58 0 27 0;
#X connect 58 1 55 0;
#X connect 59 0 65 0;
#X connect 62 0 23 1;
#X connect 63 0 16 0;
#X connect 65 0 36 0;
#X connect 66 0 74 0;
#X connect 67 0 74 0;
#X connect 67 1 66 0;
#X connect 68 0 67 1;
#X connect 69 0 70 0;
#X connect 70 0 43 1;
#X connect 71 0 19 1;
#X connect 74 0 76 0;
#X connect 75 0 47 0;
#X connect 76 0 14 0;
