#N canvas 579 70 647 544 10;
#X msg 483 52 create \, 1;
#X msg 483 71 destroy;
#X obj 463 321 gemhead;
#X obj 481 492 GEMglVertex3f;
#X obj 506 473 #unpack 3;
#X obj 462 511 GEMglEnd;
#X obj 481 378 repeat 16;
#X msg 510 359 0;
#X obj 481 397 t a b;
#X obj 508 416 f;
#X msg 508 435 list \$1;
#X obj 21 127 #cast f;
#X obj 508 454 #store (16 3 f #);
#X obj 27 346 s \$0-gon;
#X obj 462 359 t a a b;
#X obj 541 359 #dim;
#X obj 541 340 t a a;
#X obj 541 378 #unpack;
#X obj 532 416 + 1;
#X obj 213 80 f;
#X obj 21 239 #t;
#X msg 72 230 list f # \$1;
#X msg 318 81 0;
#X obj 213 196 +;
#X obj 467 93 gemwin 30;
#X obj 0 0 doc_demo;
#X text 1 25 Copyright © 2010 by Mathieu Bouchard;
#X obj 213 139 div 10;
#X obj 48 230 # *;
#X obj 27 297 #inner (2 3 f # 1 0 0 0 1 0) \, seed (f #);
#X obj 48 249 # + (2 f #);
#X obj 144 203 #pack 2 f;
#X obj 463 340 GEMglBegin 2;
#X obj 21 365 spigot;
#X obj 193 350 tgl 15 0 empty empty empty 17 7 0 10 -262144 -1 -1 1
1;
#X obj 21 384 t a a;
#X obj 21 403 #finished;
#X obj 21 461 #window;
#X obj 213 441 #cast i;
#X obj 213 422 # + (2 f # 256 256);
#X obj 213 384 #reverse -1;
#X obj 213 403 # * (2 f # -63 63);
#X obj 219 100 moses 360;
#X obj 144 184 * 500;
#X obj 21 277 # cos* (2 2 f #);
#X obj 21 53 tgl 15 0 empty empty empty 17 7 0 10 -4034 -1 -1 1 1;
#X obj 21 480 fps;
#X floatatom 21 499 5 0 0 0 - - -;
#X obj 21 108 #outer + (0 9000);
#X obj 213 177 * 0.1;
#X obj 237 196 * 0.9;
#X obj 123 258 # cos* (2 f # 3 3);
#X obj 123 277 # + (2 f # 1 1);
#X obj 21 70 metro 16.6666;
#X obj 193 331 loadbang;
#X obj 237 80 + 0.1;
#X obj 213 158 shunt;
#X obj 249 159 tgl 15 0 empty empty empty 17 7 0 10 -262144 -1 -1 0
1;
#X obj 358 187 wrap;
#X obj 358 167 / 10;
#X obj 343 225 +;
#X obj 358 206 expr (3-2*$f1)*$f1*$f1;
#X obj 213 120 t f f;
#X obj 21 422 #store (512 512 3 b # 128 0 40);
#X text 368 224 cubic interpolator;
#X text 205 211 linear recursive lop;
#X text 265 157 ease in?;
#X msg 181 152 0;
#X obj 21 89 #for 0 36000 75;
#X obj 541 321 r \$0-gon;
#X floatatom 302 132 5 0 0 0 - - -;
#X obj 21 442 #draw_polygon put (3 b # 255);
#X connect 0 0 24 0;
#X connect 1 0 24 0;
#X connect 2 0 32 0;
#X connect 4 0 3 1;
#X connect 4 1 3 2;
#X connect 4 2 3 3;
#X connect 6 0 8 0;
#X connect 7 0 9 1;
#X connect 8 0 3 0;
#X connect 8 1 9 0;
#X connect 9 0 10 0;
#X connect 9 0 18 0;
#X connect 10 0 12 0;
#X connect 11 0 20 0;
#X connect 12 0 4 0;
#X connect 14 0 5 0;
#X connect 14 1 6 0;
#X connect 14 2 7 0;
#X connect 15 0 17 0;
#X connect 16 0 15 0;
#X connect 16 1 12 1;
#X connect 17 0 6 1;
#X connect 18 0 9 1;
#X connect 19 0 43 0;
#X connect 19 0 42 0;
#X connect 19 0 62 0;
#X connect 20 0 44 0;
#X connect 20 1 28 0;
#X connect 21 0 28 1;
#X connect 22 0 19 1;
#X connect 23 0 21 0;
#X connect 23 0 50 0;
#X connect 27 0 56 0;
#X connect 28 0 30 0;
#X connect 29 0 13 0;
#X connect 30 0 51 0;
#X connect 31 0 30 1;
#X connect 32 0 14 0;
#X connect 33 0 35 0;
#X connect 34 0 33 1;
#X connect 34 0 37 1;
#X connect 35 0 36 0;
#X connect 35 1 40 0;
#X connect 36 0 63 0;
#X connect 37 0 46 0;
#X connect 38 0 71 2;
#X connect 39 0 38 0;
#X connect 40 0 41 0;
#X connect 41 0 39 0;
#X connect 42 0 55 0;
#X connect 42 1 22 0;
#X connect 42 1 70 0;
#X connect 43 0 31 0;
#X connect 44 0 29 0;
#X connect 44 0 33 0;
#X connect 45 0 53 0;
#X connect 46 0 47 0;
#X connect 48 0 11 0;
#X connect 49 0 23 0;
#X connect 50 0 23 1;
#X connect 51 0 52 0;
#X connect 52 0 44 1;
#X connect 53 0 19 0;
#X connect 53 0 68 0;
#X connect 54 0 34 0;
#X connect 55 0 19 1;
#X connect 56 0 49 0;
#X connect 56 1 60 0;
#X connect 57 0 56 1;
#X connect 58 0 61 0;
#X connect 59 0 58 0;
#X connect 60 0 21 0;
#X connect 61 0 60 1;
#X connect 62 0 27 0;
#X connect 62 1 59 0;
#X connect 63 0 71 0;
#X connect 67 0 23 1;
#X connect 68 0 48 0;
#X connect 69 0 16 0;
#X connect 71 0 37 0;
