#N canvas 797 0 450 674 10;
#X obj 6 6 tgl 15 0 empty empty empty 17 7 0 10 -24198 -1 -1 0 1;
#X obj 47 347 #cast i;
#X obj 47 366 #rgb_to_greyscale;
#X obj 87 404 #fold max;
#X obj 47 385 #t;
#X obj 47 404 # >=;
#X obj 47 423 #moment;
#X obj 250 421 #clip;
#X obj 148 231 # inv* (f # 1);
#X obj 148 172 loadbang;
#X msg 154 211 list f # 172800;
#X obj 69 248 # * (f #);
#X obj 78 229 # * (f #);
#X obj 87 385 #ravel;
#X msg 148 191 list f # 76800;
#X obj 47 465 # % (240 320);
#X obj 47 446 # + (120 160);
#X obj 250 383 # >> 5;
#X obj 71 521 t a;
#X msg 188 514 240 320;
#X obj 158 459 loadbang;
#X obj 78 61 s \$0-meuh;
#X obj 94 628 r \$0-meuh;
#X obj 6 42 t b b;
#X obj 6 647 #out window;
#X obj 47 540 #to_list;
#X obj 52 628 #store;
#X obj 47 559 t b a;
#X obj 272 557 display;
#X obj 158 495 t b b;
#X obj 158 478 bng 15 250 50 0 empty empty empty 17 7 0 10 -260818
-1 -1;
#X obj 6 23 metro 100;
#X obj 6 628 #store;
#X msg 12 585 op avg;
#X msg 158 533 480 640 3 #;
#X obj 42 210 #fft \, real;
#X obj 42 42 #camera 0 \, size 240 320;
#X msg 86 559 put_at \$1 \$2 0;
#X obj 250 364 spigot;
#X obj 250 440 #window;
#X obj 300 366 tgl 15 0 empty empty empty 17 7 0 10 -262144 -1 -1 0
1;
#X obj 250 402 # + 128;
#X text 173 476 reset;
#X obj 42 229 t a a;
#X obj 69 267 # C.*conj (2 f #);
#X obj 266 40 fps;
#X obj 266 99 display;
#X obj 47 484 # inv+ (120 160);
#X obj 47 521 # +;
#X text 125 294 crash;
#X obj 69 316 #fft \, real \, sign 1;
#X msg 75 295 sign 1;
#X obj 42 101 shunt;
#X obj 78 102 tgl 15 0 empty empty empty 17 7 0 10 -261682 -1 -1 0
1;
#X obj 42 61 t a a;
#X obj 69 81 #window;
#X obj 117 82 tgl 15 0 empty empty empty 17 7 0 10 -261682 -1 -1 0
1;
#X obj 42 164 #cast f;
#X obj 69 120 #convolve (2 2 # 1);
#X text 358 13 219% @ 10 fps;
#X text 358 26 149% @ 10 fps;
#X connect 0 0 31 0;
#X connect 1 0 2 0;
#X connect 1 0 38 0;
#X connect 2 0 4 0;
#X connect 3 0 5 1;
#X connect 4 0 5 0;
#X connect 4 1 13 0;
#X connect 5 0 6 0;
#X connect 6 0 16 0;
#X connect 7 0 39 0;
#X connect 8 0 11 1;
#X connect 8 0 12 1;
#X connect 9 0 14 0;
#X connect 10 0 8 0;
#X connect 11 0 44 0;
#X connect 12 0 44 1;
#X connect 13 0 3 0;
#X connect 14 0 8 0;
#X connect 15 0 47 0;
#X connect 16 0 15 0;
#X connect 17 0 41 0;
#X connect 18 0 48 1;
#X connect 19 0 48 1;
#X connect 20 0 30 0;
#X connect 22 0 26 1;
#X connect 23 0 32 0;
#X connect 23 1 36 0;
#X connect 25 0 27 0;
#X connect 25 0 28 0;
#X connect 26 0 32 1;
#X connect 27 0 26 0;
#X connect 27 1 37 0;
#X connect 29 0 34 0;
#X connect 29 1 19 0;
#X connect 30 0 29 0;
#X connect 31 0 23 0;
#X connect 31 0 45 0;
#X connect 32 0 24 0;
#X connect 33 0 32 0;
#X connect 34 0 32 1;
#X connect 35 0 43 0;
#X connect 36 0 54 0;
#X connect 37 0 32 1;
#X connect 38 0 17 0;
#X connect 40 0 38 1;
#X connect 40 0 39 1;
#X connect 41 0 7 0;
#X connect 43 0 12 0;
#X connect 43 1 11 0;
#X connect 44 0 50 0;
#X connect 45 0 46 0;
#X connect 47 0 48 0;
#X connect 48 0 18 0;
#X connect 48 0 25 0;
#X connect 50 0 1 0;
#X connect 51 0 50 0;
#X connect 52 0 57 0;
#X connect 52 1 58 0;
#X connect 53 0 52 1;
#X connect 54 0 52 0;
#X connect 54 1 21 0;
#X connect 54 1 55 0;
#X connect 56 0 55 1;
#X connect 57 0 35 0;
#X connect 58 0 57 0;
