#N canvas 614 0 627 627 10;
#X obj 76 508 tgl 15 0 empty empty crosshair_of_centroid 20 7 0 8 -261682
-1 -1 0 1;
#X obj 66 361 # max 0;
#X obj 66 231 #downscale_by 2 smoothly;
#X obj 27 507 shunt 2;
#X obj 76 276 tgl 15 0 empty empty frame_difference 18 7 0 8 -261682
-1 -1 0 1;
#X obj 27 77 tgl 15 0 empty empty empty 0 -6 0 8 -24198 -1 -1 0 1;
#X obj 27 212 shunt 2;
#X obj 76 213 tgl 15 0 empty empty smaller_picture 18 7 0 8 -261682
-1 -1 0 1;
#X obj 94 343 hsl 128 15 0 127 0 0 empty empty empty -2 -6 0 8 -261682
-1 -1 0 1;
#X obj 27 395 shunt 2;
#X obj 157 474 tgl 15 0 empty empty empty 0 -6 0 8 -261682 -1 -1 0
1;
#X obj 27 454 shunt 2;
#X obj 76 455 tgl 15 0 empty empty empty 0 -6 0 8 -261682 -1 -1 0 1
;
#X obj 66 342 # -;
#X obj 76 396 tgl 15 0 empty empty empty 0 -6 0 8 -261682 -1 -1 0 1
;
#N canvas 372 198 399 273 motion 0;
#X obj 15 113 # << 2;
#X obj 15 9 inlet;
#X obj 18 80 # -;
#X obj 70 174 # + 128;
#X obj 15 245 outlet;
#X obj 15 204 # min 255;
#X obj 15 224 # max 0;
#X obj 70 155 # << 2;
#X obj 15 35 t a a;
#X obj 15 134 shunt 2;
#X obj 70 133 inlet render;
#X obj 155 54 inlet type;
#X obj 15 54 shunt 2;
#X obj 15 162 # abs-;
#X connect 0 0 9 0;
#X connect 1 0 8 0;
#X connect 2 0 0 0;
#X connect 3 0 5 0;
#X connect 5 0 6 0;
#X connect 6 0 4 0;
#X connect 7 0 3 0;
#X connect 8 0 12 0;
#X connect 8 1 2 0;
#X connect 9 0 13 0;
#X connect 9 1 7 0;
#X connect 10 0 9 1;
#X connect 11 0 12 1;
#X connect 12 0 2 1;
#X connect 13 0 5 0;
#X restore 66 323 pd motion detection;
#X obj 112 456 hradio 15 1 0 4 empty empty empty 0 -6 0 8 -261682 -1
-1 0;
#X obj 27 94 metro 33.3667;
#X obj 27 275 shunt 2;
#X obj 121 291 vradio 15 1 0 2 empty empty empty 0 -6 0 8 -261682 -1
-1 0;
#X floatatom 169 600 5 0 0 0 - - -;
#X floatatom 213 600 5 0 0 0 - - -;
#N canvas 547 147 477 267 crosshair 0;
#X obj 12 224 outlet;
#X obj 12 9 inlet;
#X msg 21 125 12 2 # \$1 \$2 \$1 \$3 \$2 \$3 \$2 \$4 \$3 \$4 \$3 \$3
\$4 \$3 \$4 \$2 \$3 \$2 \$3 \$1 \$2 \$1 \$2 \$2;
#X msg 54 95 -32 -1 1 32;
#X obj 175 37 #fade 8;
#X obj 175 18 inlet;
#X obj 54 76 #finished;
#X obj 95 169 # + (120 160);
#X obj 12 205 #draw_polygon + (0 170 0);
#X obj 175 56 t a a;
#X connect 1 0 8 0;
#X connect 2 0 7 0;
#X connect 3 0 2 0;
#X connect 4 0 9 0;
#X connect 5 0 4 0;
#X connect 6 0 3 0;
#X connect 7 0 8 2;
#X connect 8 0 0 0;
#X connect 9 0 6 0;
#X connect 9 1 7 1;
#X restore 66 545 pd crosshair;
#X text 137 305 emboss;
#X text 138 291 hilite;
#X obj 177 291 vradio 15 1 0 2 empty empty empty 0 -6 0 8 -261682 -1
-1 0;
#X text 196 291 motion;
#X text 197 305 presence;
#X obj 169 562 #moment;
#X obj 66 526 #t;
#X obj 66 414 #fade (16 4 1);
#X obj 169 581 #unpack;
#X text 89 522 (use with "hilite" mode above);
#X obj 27 132 #camera 0 \, size 240 320;
#N canvas 351 185 480 500 sort_me_out 0;
#X obj 196 295 # * 255;
#X obj 117 472 outlet;
#X obj 192 9 inlet;
#X obj 235 257 # / 2;
#X obj 17 343 # +;
#X obj 44 9 inlet;
#X obj 331 277 # - 1;
#X obj 17 362 #store;
#X obj 17 82 #grade;
#X obj 44 120 #grade;
#X obj 156 9 inlet;
#X text 271 108 extract width;
#X obj 17 286 #finished;
#X obj 283 277 # * 255;
#X obj 17 63 #fold +;
#X obj 17 150 shunt 4;
#X obj 117 399 shunt 4;
#X msg 235 106 \$2;
#X obj 211 45 #dim;
#X obj 44 28 t a a;
#X msg 186 107 \$1 \$2;
#X obj 211 64 #to_list;
#X obj 17 180 t a a;
#X obj 44 343 #outer & (0 -1);
#X obj 17 305 #for (0 0) (240 320) (1 1);
#X obj 17 101 shunt;
#X obj 283 296 # / 320;
#X obj 17 324 # * (1 0);
#X obj 283 335 #outer ignore (3 #);
#X obj 196 276 # < 160;
#X obj 130 434 # avg;
#X connect 0 0 28 0;
#X connect 2 0 25 1;
#X connect 3 0 29 1;
#X connect 4 0 7 0;
#X connect 5 0 19 0;
#X connect 6 0 26 1;
#X connect 7 0 16 0;
#X connect 8 0 25 0;
#X connect 9 0 15 0;
#X connect 10 0 15 1;
#X connect 10 0 16 1;
#X connect 12 0 24 0;
#X connect 13 0 26 0;
#X connect 14 0 8 0;
#X connect 15 0 22 0;
#X connect 15 1 22 0;
#X connect 15 2 29 0;
#X connect 15 3 13 0;
#X connect 16 0 1 0;
#X connect 16 1 30 0;
#X connect 17 0 3 0;
#X connect 17 0 6 0;
#X connect 18 0 21 0;
#X connect 19 0 14 0;
#X connect 19 1 7 1;
#X connect 19 1 18 0;
#X connect 19 1 30 1;
#X connect 20 0 24 1;
#X connect 21 0 17 0;
#X connect 21 0 20 0;
#X connect 22 0 12 0;
#X connect 22 1 23 0;
#X connect 23 0 4 1;
#X connect 24 0 27 0;
#X connect 25 0 15 0;
#X connect 25 1 9 0;
#X connect 26 0 28 0;
#X connect 27 0 4 0;
#X connect 28 0 1 0;
#X connect 29 0 0 0;
#X connect 30 0 1 0;
#X restore 66 473 pd sort_me_out;
#X text 112 361 noise reduction (on hilite only);
#X obj 0 0 doc_demo;
#X text 0 27 Copyright 2001 \, 2002 Mathieu Bouchard;
#X obj 27 113 shunt;
#X obj 63 114 tgl 15 0 empty empty no_camera 18 7 0 8 -261682 -1 -1
0 1;
#X obj 54 172 #store;
#X obj 96 172 #in pure-data.jpg;
#X obj 322 539 #out window;
#X obj 322 596 print;
#X obj 322 577 fps detailed;
#X obj 27 575 s \$0-continue;
#X obj 322 75 r \$0-continue;
#X obj 358 140 tgl 15 0 empty empty posterise 18 8 0 8 -261682 -1 -1
0 1;
#X obj 439 165 hsl 59 15 2 8 0 0 empty empty empty -2 -6 0 8 -261682
-1 -1 0 1;
#X obj 349 329 # ^;
#X obj 376 330 hsl 137 15 0 255 0 0 empty empty empty -2 -6 0 8 -261682
-1 -1 0 1;
#X obj 358 200 tgl 15 0 empty empty empty 0 -6 0 8 -261682 -1 -1 0
1;
#X text 357 294 munchies (XOR effect) in the colour domain;
#X text 375 198 color wrapping;
#X obj 349 218 # %;
#X obj 358 311 tgl 15 0 empty empty empty 0 -6 0 8 -261682 -1 -1 0
1;
#X obj 349 113 # inv+ 255;
#X obj 358 96 tgl 15 0 empty empty negative 18 8 0 8 -261682 -1 -1
0 1;
#X obj 350 261 # /;
#X obj 349 240 # * 255;
#X obj 376 219 hsl 137 15 0 255 0 0 empty empty empty -2 -6 0 8 -261682
-1 -1 0 1;
#X obj 370 164 #posterize;
#X obj 322 94 shunt;
#X obj 322 138 shunt;
#X obj 322 199 shunt;
#X floatatom 436 182 5 0 0 0 - - -;
#X text 336 22 made by merging former videodev_effects.pd and binary_operations.pd
;
#X obj 358 376 tgl 15 0 empty empty gamma_correction 18 7 0 8 -261682
-1 -1 0 1;
#X obj 349 394 #gamma 512;
#X floatatom 415 394 5 0 0 0 - - -;
#X obj 322 375 shunt;
#X text 0 42 note that some of those effects require the camera or
at least something animated.;
#X obj 322 310 shunt;
#X obj 54 153 t b b;
#X obj 96 153 gf.oneshot;
#X obj 322 558 spigot;
#X obj 364 559 tgl 15 0 empty empty empty 0 -6 0 8 -261682 -1 -1 0
1;
#X obj 349 494 #greyscale_to_rgb;
#X obj 322 418 t a a;
#X obj 358 418 #dim;
#X msg 358 456 \$3;
#X obj 358 475 == 1;
#X obj 358 437 #to_list;
#X obj 322 475 shunt;
#X msg 156 414 16;
#X msg 147 395 1 4 16;
#X obj 169 543 #rgb_to_greyscale;
#X text 395 455 note that #gamma and crosshair;
#X text 395 466 don't work with greyscale;
#X connect 0 0 3 1;
#X connect 1 0 9 0;
#X connect 2 0 18 0;
#X connect 3 0 45 0;
#X connect 3 1 29 0;
#X connect 4 0 18 1;
#X connect 5 0 17 0;
#X connect 6 0 18 0;
#X connect 6 1 2 0;
#X connect 7 0 6 1;
#X connect 8 0 13 1;
#X connect 9 0 11 0;
#X connect 9 1 30 0;
#X connect 10 0 34 2;
#X connect 11 0 3 0;
#X connect 11 1 34 0;
#X connect 12 0 11 1;
#X connect 13 0 1 0;
#X connect 14 0 9 1;
#X connect 15 0 13 0;
#X connect 16 0 34 1;
#X connect 17 0 38 0;
#X connect 18 0 9 0;
#X connect 18 1 15 0;
#X connect 19 0 15 1;
#X connect 22 0 45 0;
#X connect 25 0 15 2;
#X connect 28 0 22 1;
#X connect 28 0 31 0;
#X connect 29 0 22 0;
#X connect 29 1 86 0;
#X connect 30 0 11 0;
#X connect 31 0 20 0;
#X connect 31 1 21 0;
#X connect 33 0 6 0;
#X connect 34 0 3 0;
#X connect 38 0 33 0;
#X connect 38 1 73 0;
#X connect 39 0 38 1;
#X connect 40 0 6 0;
#X connect 41 0 40 1;
#X connect 42 0 75 0;
#X connect 44 0 43 0;
#X connect 46 0 62 0;
#X connect 47 0 63 1;
#X connect 48 0 61 1;
#X connect 48 0 65 0;
#X connect 49 0 70 0;
#X connect 50 0 49 1;
#X connect 51 0 64 1;
#X connect 54 0 59 0;
#X connect 55 0 72 1;
#X connect 56 0 63 0;
#X connect 57 0 62 1;
#X connect 58 0 72 0;
#X connect 59 0 58 0;
#X connect 60 0 58 1;
#X connect 60 0 54 1;
#X connect 61 0 64 0;
#X connect 62 0 63 0;
#X connect 62 1 56 0;
#X connect 63 0 64 0;
#X connect 63 1 61 0;
#X connect 64 0 72 0;
#X connect 64 1 54 0;
#X connect 67 0 70 1;
#X connect 69 0 68 1;
#X connect 70 0 78 0;
#X connect 70 1 68 0;
#X connect 72 0 70 0;
#X connect 72 1 49 0;
#X connect 73 0 40 0;
#X connect 73 1 74 0;
#X connect 74 0 41 0;
#X connect 75 0 44 0;
#X connect 76 0 75 1;
#X connect 77 0 42 0;
#X connect 78 0 83 0;
#X connect 78 1 79 0;
#X connect 79 0 82 0;
#X connect 80 0 81 0;
#X connect 81 0 83 1;
#X connect 82 0 80 0;
#X connect 83 0 42 0;
#X connect 83 1 77 0;
#X connect 84 0 30 1;
#X connect 85 0 30 1;
#X connect 86 0 28 0;
