#N canvas 596 0 624 607 10;
#X obj 76 478 tgl 15 0 empty empty crosshair_of_centroid 20 7 0 8 -241291
-1 -1 0 1;
#X obj 66 301 # max 0;
#X obj 27 369 shunt 2;
#X obj 66 191 #downscale_by 2 smoothly;
#X obj 27 477 shunt 2;
#X obj 76 370 tgl 15 0 empty empty gamma_correction 18 7 0 8 -241291
-1 -1 0 1;
#X obj 76 216 tgl 15 0 empty empty frame_difference 18 7 0 8 -241291
-1 -1 0 1;
#X obj 27 47 tgl 15 0 empty empty empty 0 -6 0 8 -24198 -1 -1 1 1;
#X obj 27 172 shunt 2;
#X obj 27 534 #out window;
#X obj 76 173 tgl 15 0 empty empty smaller_picture 18 7 0 8 -241291
-1 -1 0 1;
#X obj 27 572 print;
#X obj 94 283 hsl 128 15 0 127 0 0 empty empty empty -2 -6 0 8 -260818
-1 -1 0 1;
#X obj 27 325 shunt 2;
#X obj 157 444 tgl 15 0 empty empty empty 0 -6 0 8 -241291 -1 -1 0
1;
#X obj 27 424 shunt 2;
#X obj 27 553 fps detailed;
#X obj 76 425 tgl 15 0 empty empty empty 0 -6 0 8 -241291 -1 -1 0 1
;
#X obj 66 282 # -;
#X obj 76 326 tgl 15 0 empty empty empty 0 -6 0 8 -241291 -1 -1 0 1
;
#N canvas 372 198 399 273 motion 0;
#X obj 15 113 # << 2;
#X obj 15 9 inlet;
#X obj 18 80 # -;
#X obj 70 174 # + 128;
#X obj 15 245 outlet;
#X obj 15 204 # min 255;
#X obj 15 224 # max 0;
#X obj 70 155 # << 2;
#X obj 15 35 t a a;
#X obj 15 134 shunt 2;
#X obj 70 133 inlet render;
#X obj 155 54 inlet type;
#X obj 15 54 shunt 2;
#X obj 15 162 # abs-;
#X connect 0 0 9 0;
#X connect 1 0 8 0;
#X connect 2 0 0 0;
#X connect 3 0 5 0;
#X connect 5 0 6 0;
#X connect 6 0 4 0;
#X connect 7 0 3 0;
#X connect 8 0 12 0;
#X connect 8 1 2 0;
#X connect 9 0 13 0;
#X connect 9 1 7 0;
#X connect 10 0 9 1;
#X connect 11 0 12 1;
#X connect 12 0 2 1;
#X connect 13 0 5 0;
#X restore 66 263 pd motion detection;
#X obj 112 426 hradio 15 1 0 4 empty empty empty 0 -6 0 8 -241291 -1
-1 1;
#X obj 27 64 metro 33.3667;
#X obj 27 215 shunt 2;
#X obj 130 231 vradio 15 1 0 2 empty empty empty 0 -6 0 8 -241291 -1
-1 0;
#X floatatom 169 570 5 0 0 0 - - -;
#X floatatom 213 570 5 0 0 0 - - -;
#N canvas 547 147 477 267 crosshair 0;
#X obj 12 224 outlet;
#X obj 12 9 inlet;
#X msg 21 125 12 2 # \$1 \$2 \$1 \$3 \$2 \$3 \$2 \$4 \$3 \$4 \$3 \$3
\$4 \$3 \$4 \$2 \$3 \$2 \$3 \$1 \$2 \$1 \$2 \$2;
#X msg 54 95 -32 -1 1 32;
#X obj 175 37 #fade 8;
#X obj 175 18 inlet;
#X obj 54 76 #finished;
#X obj 95 169 # + (120 160);
#X obj 12 205 #draw_polygon + (0 170 0);
#X obj 175 56 t a a;
#X connect 1 0 8 0;
#X connect 2 0 7 0;
#X connect 3 0 2 0;
#X connect 4 0 9 0;
#X connect 5 0 4 0;
#X connect 6 0 3 0;
#X connect 7 0 8 2;
#X connect 8 0 0 0;
#X connect 9 0 6 0;
#X connect 9 1 7 1;
#X restore 66 515 pd crosshair;
#X obj 27 515 t a;
#X text 146 245 emboss;
#X text 147 231 hilite;
#X obj 194 231 vradio 15 1 0 2 empty empty empty 0 -6 0 8 -241291 -1
-1 0;
#X text 213 231 motion;
#X text 214 245 presence;
#X obj 169 532 #moment;
#X obj 169 513 #rgb_to_greyscale;
#X obj 66 496 #t;
#X obj 66 344 #fade (16 4 1);
#X obj 169 551 #unpack;
#X text 89 492 (use with "hilite" mode above);
#X obj 54 139 #camera 0 \, size 240 320;
#N canvas 351 187 480 500 sort_me_out 0;
#X obj 196 295 # * 255;
#X obj 117 472 outlet;
#X obj 192 9 inlet;
#X obj 235 257 # / 2;
#X obj 17 343 # +;
#X obj 44 9 inlet;
#X obj 331 277 # - 1;
#X obj 17 362 #store;
#X obj 17 82 #grade;
#X obj 44 120 #grade;
#X obj 156 9 inlet;
#X text 271 108 extract width;
#X obj 17 286 #finished;
#X obj 283 277 # * 255;
#X obj 17 63 #fold +;
#X obj 17 150 shunt 4;
#X obj 117 399 shunt 4;
#X msg 235 106 \$2;
#X obj 211 45 #dim;
#X obj 44 28 t a a;
#X msg 186 107 \$1 \$2;
#X obj 211 64 #to_list;
#X obj 17 180 t a a;
#X obj 44 343 #outer & (0 -1);
#X obj 17 305 #for (0 0) (240 320) (1 1);
#X obj 17 101 shunt;
#X obj 283 296 # / 320;
#X obj 17 324 # * (1 0);
#X obj 283 335 #outer ignore (3 #);
#X obj 196 276 # < 160;
#X obj 130 434 # avg;
#X connect 0 0 28 0;
#X connect 2 0 25 1;
#X connect 3 0 29 1;
#X connect 4 0 7 0;
#X connect 5 0 19 0;
#X connect 6 0 26 1;
#X connect 7 0 16 0;
#X connect 8 0 25 0;
#X connect 9 0 15 0;
#X connect 10 0 15 1;
#X connect 10 0 16 1;
#X connect 12 0 24 0;
#X connect 13 0 26 0;
#X connect 14 0 8 0;
#X connect 15 0 22 0;
#X connect 15 1 22 0;
#X connect 15 2 29 0;
#X connect 15 3 13 0;
#X connect 16 0 1 0;
#X connect 16 1 30 0;
#X connect 17 0 3 0;
#X connect 17 0 6 0;
#X connect 18 0 21 0;
#X connect 19 0 14 0;
#X connect 19 1 7 1;
#X connect 19 1 18 0;
#X connect 19 1 30 1;
#X connect 20 0 24 1;
#X connect 21 0 17 0;
#X connect 21 0 20 0;
#X connect 22 0 12 0;
#X connect 22 1 23 0;
#X connect 23 0 4 1;
#X connect 24 0 27 0;
#X connect 25 0 15 0;
#X connect 25 1 9 0;
#X connect 26 0 28 0;
#X connect 27 0 4 0;
#X connect 28 0 1 0;
#X connect 29 0 0 0;
#X connect 30 0 1 0;
#X restore 66 443 pd sort_me_out;
#X text 120 301 noise reduction (on hilite only);
#X obj 0 0 doc_demo;
#X text 0 22 Copyright 2001 \, 2002 Mathieu Bouchard;
#X obj 66 388 #gamma 512;
#X floatatom 132 388 5 0 0 0 - - -;
#X obj 27 83 shunt;
#X obj 63 84 tgl 15 0 empty empty use_camera 18 7 0 8 -241291 -1 -1
1 1;
#X obj 27 120 #store;
#X obj 69 120 #in pure-data.jpg;
#X obj 69 101 loadbang;
#X connect 0 0 4 1;
#X connect 1 0 13 0;
#X connect 2 0 15 0;
#X connect 2 1 45 0;
#X connect 3 0 23 0;
#X connect 4 0 28 0;
#X connect 4 1 36 0;
#X connect 5 0 2 1;
#X connect 6 0 23 1;
#X connect 7 0 22 0;
#X connect 8 0 23 0;
#X connect 8 1 3 0;
#X connect 9 0 16 0;
#X connect 10 0 8 1;
#X connect 12 0 18 1;
#X connect 13 0 2 0;
#X connect 13 1 37 0;
#X connect 14 0 41 2;
#X connect 15 0 4 0;
#X connect 15 1 41 0;
#X connect 16 0 11 0;
#X connect 17 0 15 1;
#X connect 18 0 1 0;
#X connect 19 0 13 1;
#X connect 20 0 18 0;
#X connect 21 0 41 1;
#X connect 22 0 47 0;
#X connect 23 0 13 0;
#X connect 23 1 20 0;
#X connect 24 0 20 1;
#X connect 27 0 28 0;
#X connect 28 0 9 0;
#X connect 31 0 20 2;
#X connect 34 0 27 1;
#X connect 34 0 38 0;
#X connect 35 0 34 0;
#X connect 36 0 27 0;
#X connect 36 1 35 0;
#X connect 37 0 2 0;
#X connect 38 0 25 0;
#X connect 38 1 26 0;
#X connect 40 0 8 0;
#X connect 41 0 4 0;
#X connect 45 0 15 0;
#X connect 46 0 45 1;
#X connect 47 0 49 0;
#X connect 47 1 40 0;
#X connect 48 0 47 1;
#X connect 49 0 8 0;
#X connect 50 0 49 1;
#X connect 51 0 50 0;
