#N canvas 629 108 492 348 10;
#X obj 153 31 cnv 15 184 68 empty \$0-rect empty 20 12 0 14 -233017
-66577 0;
#X obj 215 34 hradio 12 1 0 4 \$0-s_channel \$0-channel _0_1_2_3 -2
7 1 8 -233017 -195568 -195568 0;
#N canvas 470 0 764 715 camera 0;
#X obj 226 384 outlet;
#X obj 11 12 inlet;
#X obj 134 269 t a;
#X obj 134 348 spigot;
#X obj -9 106 args (device a -1);
#X obj 11 162 s \$0-device;
#X obj 134 367 route pwc;
#X msg 134 386 pwc \$1 \, get;
#X obj 107 9 list split 1;
#X obj 107 28 makefilename \$0-%s;
#X obj 120 87 s;
#X obj 120 68 list;
#X obj 120 49 t b s;
#X obj 251 71 list prepend;
#X obj 251 90 list trim;
#X obj 261 169 foreach;
#X obj 261 188 makefilename \$0-%s;
#X msg 261 207 \; \$1 color 10 20 20;
#X msg 110 162 \; \$1 color 18 17 22;
#X obj 171 310 t b a b b;
#X obj 415 411 r \$0-s_device;
#X msg 222 331 0;
#X msg 171 329 1;
#X obj 444 693 s \$0-title;
#X msg 444 674 label \$1;
#X obj 372 655 r \$0-name;
#X obj 372 674 route color;
#X msg 454 636 close;
#X msg 454 655 label No_camera_selected;
#X msg 261 241 label Unknown_camera;
#X obj 261 260 s \$0-title;
#X obj 613 672 s \$0-minsize;
#X msg 613 653 0 0;
#X obj 641 653 s \$0-maxsize;
#X obj 415 430 t a b;
#X obj 116 411 r \$0-palette;
#X obj 188 449 s \$0-palette2;
#X msg 188 430 label \$1;
#X obj 107 106 route minsize maxsize;
#X obj 116 430 route color;
#X obj 11 31 route not_open;
#X obj 251 13 receives \$0-s_ channel tuner frequency brightness contrast
colour hue whiteness white_mode white_red white_blue white_speed white_delay
auto_gain framerate noise_reduction compression pwc size colorspace
norm;
#X msg 261 111 list channel tuner frequency brightness contrast colour
hue whiteness white_mode white_red white_blue white_speed white_delay
auto_gain framerate noise_reduction compression pwc size colorspace
norm;
#X obj -9 125 mod 9;
#N canvas 0 0 450 300 colorspace 0;
#X obj 29 156 outlet;
#X msg 29 137 colorspace \$1;
#X obj 29 80 s \$0-colorspace_e;
#X obj 29 99 r \$0-s_colorspace_e;
#X obj 19 39 route2 color;
#X obj 19 20 r \$0-colorspace;
#X obj 29 61 listfind y yuv rgb rgba magic none;
#X obj 29 118 listread y yuv rgb rgba magic none;
#X connect 1 0 0 0;
#X connect 3 0 7 0;
#X connect 4 0 2 0;
#X connect 4 1 6 0;
#X connect 5 0 4 0;
#X connect 6 0 2 0;
#X connect 7 0 1 0;
#X restore 134 250 pd colorspace;
#X obj 415 449 moses 8;
#X obj 328 449 shunt 7 \, \,;
#X obj 420 196 listfind v4l1 libv4l1 v4l2 libv4l2 dc1394 quicktime
;
#X obj 297 394 s \$0-rect;
#X obj 297 375 t a;
#X msg 297 356 color 15;
#X obj -4 689 listread v4l1 libv4l1 v4l2 libv4l2 dc1394 quicktime;
#X obj 379 359 r \$0-s_api_e;
#X obj 420 263 gf.error unknown api '%s';
#X obj 420 244 symbol;
#X obj 458 359 s \$0-device;
#X obj 420 215 sel -1;
#X msg 345 544 open v4l2 /dev/video\$1 0 \, get;
#X msg 321 634 get;
#X obj 321 615 t b a;
#X obj 321 653 t a;
#X msg 370 487 open quicktimecamera \$1;
#X msg 353 525 open v4l2 /dev/video\$1 1;
#X msg 362 506 open dc1394;
#X obj 11 68 delay 200;
#X msg 336 563 open videodev /dev/video\$1 1;
#X msg 328 582 open videodev /dev/video\$1 0;
#X obj 458 302 t f;
#X obj 458 321 sel 6;
#X msg 494 321 color 15 22 \, 8;
#X msg 458 340 color 10 20 \, 8;
#X obj 420 170 r \$0-api;
#X obj 458 283 r \$0-s_api_e;
#X obj 462 215 s \$0-api_e;
#X msg 11 87 set 8;
#N canvas 0 0 450 300 detect_default_api 0;
#X obj 142 261 outlet;
#X obj 10 10 loadbang;
#X obj 10 48 class_exists;
#X msg 10 29 symbol #io.videodev;
#X msg 34 67 0;
#X obj 10 105 class_exists;
#X msg 10 86 symbol #io.v4l2;
#X msg 34 124 3;
#X obj 10 67 sel;
#X obj 10 124 sel;
#X obj 10 162 class_exists;
#X obj 10 181 sel;
#X msg 10 143 symbol #io.quicktimecamera;
#X msg 34 181 5;
#X msg 10 200 6;
#X connect 1 0 3 0;
#X connect 2 0 8 0;
#X connect 3 0 2 0;
#X connect 4 0 0 0;
#X connect 5 0 9 0;
#X connect 6 0 5 0;
#X connect 7 0 0 0;
#X connect 8 0 6 0;
#X connect 8 1 4 0;
#X connect 9 1 7 0;
#X connect 10 0 11 0;
#X connect 11 0 14 0;
#X connect 11 1 13 0;
#X connect 12 0 10 0;
#X connect 13 0 0 0;
#X connect 14 0 0 0;
#X restore 482 302 pd detect_default_api;
#X obj 379 468 gf.error sorry;
#X connect 1 0 40 0;
#X connect 2 0 3 0;
#X connect 3 0 6 0;
#X connect 4 0 43 0;
#X connect 6 0 7 0;
#X connect 6 1 0 0;
#X connect 7 0 19 0;
#X connect 8 0 9 0;
#X connect 8 1 11 1;
#X connect 9 0 12 0;
#X connect 9 0 38 0;
#X connect 11 0 10 0;
#X connect 12 0 11 0;
#X connect 12 1 10 1;
#X connect 13 0 14 0;
#X connect 14 0 2 0;
#X connect 15 0 16 0;
#X connect 16 0 17 0;
#X connect 19 0 22 0;
#X connect 19 1 0 0;
#X connect 19 2 29 0;
#X connect 19 2 42 0;
#X connect 19 3 21 0;
#X connect 20 0 34 0;
#X connect 21 0 3 1;
#X connect 22 0 3 1;
#X connect 24 0 23 0;
#X connect 25 0 26 0;
#X connect 26 1 24 0;
#X connect 27 0 28 0;
#X connect 27 0 32 0;
#X connect 27 0 60 0;
#X connect 28 0 23 0;
#X connect 29 0 30 0;
#X connect 32 0 31 0;
#X connect 32 0 33 0;
#X connect 34 0 45 0;
#X connect 34 1 32 0;
#X connect 35 0 39 0;
#X connect 37 0 36 0;
#X connect 38 2 18 0;
#X connect 39 1 37 0;
#X connect 40 0 64 0;
#X connect 40 1 8 0;
#X connect 41 0 13 0;
#X connect 41 1 13 1;
#X connect 42 0 15 0;
#X connect 43 0 5 0;
#X connect 44 0 2 0;
#X connect 45 0 46 0;
#X connect 45 1 27 0;
#X connect 46 0 66 0;
#X connect 46 1 65 0;
#X connect 46 2 57 0;
#X connect 46 3 62 0;
#X connect 46 4 63 0;
#X connect 46 5 61 0;
#X connect 46 6 76 0;
#X connect 47 0 56 0;
#X connect 49 0 36 0;
#X connect 49 0 48 0;
#X connect 50 0 49 0;
#X connect 52 0 46 1;
#X connect 54 0 53 0;
#X connect 56 0 54 0;
#X connect 56 1 73 0;
#X connect 57 0 59 0;
#X connect 58 0 60 0;
#X connect 59 0 58 0;
#X connect 59 1 60 0;
#X connect 60 0 19 0;
#X connect 61 0 59 0;
#X connect 62 0 59 0;
#X connect 63 0 59 0;
#X connect 64 0 74 0;
#X connect 65 0 59 0;
#X connect 66 0 59 0;
#X connect 67 0 68 0;
#X connect 68 0 70 0;
#X connect 68 1 69 0;
#X connect 69 0 55 0;
#X connect 70 0 55 0;
#X connect 71 0 54 1;
#X connect 71 0 47 0;
#X connect 72 0 67 0;
#X connect 74 0 5 0;
#X connect 75 0 67 0;
#X restore 152 408 pd camera;
#X obj 125 446 outlet image;
#X obj 7 372 inlet;
#X obj 215 46 hradio 12 1 0 4 \$0-s_tuner \$0-tuner _0_1_2_3 -2 7 1
8 -233017 -195568 -195568 0;
#X obj 125 369 r \$0-o;
#X text 156 35 channel:;
#X text 170 47 tuner:;
#X obj 153 105 cnv 15 184 177 empty \$0-rect empty 20 12 0 14 -233017
-66577 0;
#X obj 342 214 cnv 15 144 128 empty \$0-palette2 YUV420P 86 8 0 10
-233017 -1 0;
#X obj 342 31 cnv 15 144 178 empty \$0-rect empty 20 12 0 14 -233017
-66577 0;
#X obj 384 66 nbx 5 14 -1e+37 1e+37 0 0 \$0-s_height \$0-height empty
0 -6 1 10 -233017 -195568 -195568 0 256;
#X obj 432 66 nbx 5 14 -1e+37 1e+37 0 0 \$0-s_width \$0-width empty
0 -6 1 10 -233017 -195568 -195568 0 256;
#X text 347 65 size:;
#X text 387 35 height;
#X text 437 35 width;
#X obj 401 124 bng 12 250 50 0 \$0-size0 \$0-sizec 120x160 -46 6 1
8 -233017 -195568 -195568;
#X obj 416 124 bng 12 250 50 0 \$0-size1 \$0-sizec 120x180 16 6 1 8
-233017 -195568 -195568;
#X obj 401 136 bng 12 250 50 0 \$0-size2 \$0-sizec 240x320 -46 6 1
8 -233017 -195568 -195568;
#X obj 416 136 bng 12 250 50 0 \$0-size3 \$0-sizec 240x360 16 6 1 8
-233017 -195568 -195568;
#X obj 401 148 bng 12 250 50 0 \$0-size4 \$0-sizec 480x640 -46 6 1
8 -233017 -195568 -195568;
#X obj 416 148 bng 12 250 50 0 \$0-size5 \$0-sizec 480x720 16 6 1 8
-233017 -195568 -195568;
#X obj 416 160 bng 12 250 50 0 \$0-size6 \$0-sizec 576x720 16 6 1 8
-233017 -195568 -195568;
#X obj 416 172 bng 12 250 50 0 \$0-size7 \$0-sizec 288x352 16 6 1 8
-233017 -195568 -195568;
#X obj 432 191 nbx 5 14 -1e+37 1e+37 0 0 \$0-s_framerate \$0-framerate
empty 0 -6 1 10 -233017 -195568 -195568 0 256;
#X obj 155 178 tgl 12 0 \$0-s_white_mode \$0-white_mode manual_white_balance
20 7 1 8 -233017 -195568 -195568 0 65535;
#X text 389 106 presets:;
#X text 162 166 ------- PWC ONLY: -------;
#X obj 155 256 hradio 12 1 0 4 \$0-s_noise_reduction \$0-noise_reduction
_0_1_2_3_noise_reduction -2 7 1 8 -233017 -195568 -195568 0;
#X obj 155 268 hradio 12 1 0 4 \$0-s_compression \$0-compression _0_1_2_3_compression
-2 7 1 8 -233017 -195568 -195568 0;
#X obj 9 185 tgl 12 0 \$0-s_pwc \$0-pwc empty 20 7 1 10 -233017 -195568
-195568 0 1;
#X text 25 170 use PWC;
#X obj 417 232 vradio 12 1 0 6 \$0-s_colorspace_e \$0-colorspace_e
empty 0 -8 0 10 -233017 -195568 -195568 0;
#X text 431 228 y (grey);
#X text 431 240 yuv;
#X text 430 253 rgb;
#X text 341 246 Colorspaces:;
#X text 359 191 framerate:;
#X obj 273 34 vradio 12 1 0 4 \$0-s_norm \$0-norm empty 0 -8 0 10 -233017
-195568 -195568 0;
#X text 286 33 PAL;
#X text 286 45 NTSC;
#X text 285 57 SECAM;
#X text 285 68 auto;
#X obj 6 6 cnv 15 480 20 empty \$0-title Unknown_camera 4 10 1 12 -1
-262144 0;
#X obj 384 52 nbx 5 14 -1e+37 1e+37 0 0 empty \$0-minheight empty 0
-6 1 10 -233017 -1 -195568 0 256;
#X obj 432 52 nbx 5 14 -1e+37 1e+37 0 0 empty \$0-minwidth empty 0
-6 1 10 -233017 -1 -195568 0 256;
#X obj 384 80 nbx 5 14 -1e+37 1e+37 0 0 empty \$0-maxheight empty 0
-6 1 10 -233017 -1 -195568 0 256;
#X obj 432 80 nbx 5 14 -1e+37 1e+37 0 0 empty \$0-maxwidth empty 0
-6 1 10 -233017 -1 -195568 0 256;
#X text 347 79 max:;
#X text 347 51 min:;
#X text 369 214 Palette:;
#X obj 155 107 gf.nbxhsl \$0 contrast;
#X obj 125 408 #in;
#X obj 155 119 gf.nbxhsl \$0 brightness;
#X obj 155 131 gf.nbxhsl \$0 colour;
#X obj 155 143 gf.nbxhsl \$0 hue;
#X obj 155 155 gf.nbxhsl \$0 whiteness;
#X obj 155 193 gf.nbxhsl \$0 white_red;
#X obj 155 205 gf.nbxhsl \$0 white_blue;
#X obj 155 217 gf.nbxhsl \$0 white_speed;
#X obj 155 85 gf.nbxhsl \$0 frequency;
#X text 431 289 none(bad);
#X text 431 276 magic;
#X text 430 265 rgba;
#N canvas 0 0 471 405 size_presets 0;
#X msg 123 314 size \$1 \$2;
#X obj 48 13 r \$0-size0;
#X msg 123 13 120 160;
#X msg 123 32 120 180;
#X obj 48 32 r \$0-size1;
#X msg 123 51 240 320;
#X msg 123 70 240 360;
#X obj 48 51 r \$0-size2;
#X obj 48 70 r \$0-size3;
#X obj 48 89 r \$0-size4;
#X obj 48 108 r \$0-size5;
#X msg 123 89 480 640;
#X msg 123 108 480 720;
#X obj 48 127 r \$0-size6;
#X obj 48 146 r \$0-size7;
#X msg 123 127 576 720;
#X msg 123 146 288 352;
#X obj 123 209 unpack 0 0;
#X obj 218 228 s \$0-width;
#X obj 123 228 s \$0-height;
#X obj 123 276 #pack;
#X obj 123 295 #to_list;
#X obj 123 248 r \$0-s_height;
#X obj 218 248 r \$0-s_width;
#X obj 30 191 r \$0-size;
#X obj 30 210 route2 color;
#X obj 30 229 s \$0-sizec;
#X obj 21 248 s \$0-width;
#X obj 11 268 s \$0-height;
#X obj 123 333 outlet;
#X connect 0 0 29 0;
#X connect 1 0 2 0;
#X connect 2 0 17 0;
#X connect 3 0 17 0;
#X connect 4 0 3 0;
#X connect 5 0 17 0;
#X connect 6 0 17 0;
#X connect 7 0 5 0;
#X connect 8 0 6 0;
#X connect 9 0 11 0;
#X connect 10 0 12 0;
#X connect 11 0 17 0;
#X connect 12 0 17 0;
#X connect 13 0 15 0;
#X connect 14 0 16 0;
#X connect 15 0 17 0;
#X connect 16 0 17 0;
#X connect 17 0 19 0;
#X connect 17 1 18 0;
#X connect 20 0 21 0;
#X connect 21 0 0 0;
#X connect 22 0 20 0;
#X connect 23 0 20 1;
#X connect 24 0 25 0;
#X connect 25 0 26 0;
#X connect 25 0 27 0;
#X connect 25 0 28 0;
#X connect 25 1 17 0;
#X restore 131 388 pd size_presets;
#X obj 6 31 cnv 15 142 311 empty \$0-rect empty 20 12 0 14 -233017
-66577 0;
#X obj 24 224 vradio 15 1 0 7 \$0-s_api_e \$0-api_e empty 0 -8 0 10
-241291 -1 -1 0;
#X text 42 237 libv4l1;
#X text 42 252 ...v4l2;
#X text 42 267 libv4l2;
#X text 42 222 ...v4l1;
#X text 98 253 Linux;
#X text 44 282 dc1394;
#X text 21 206 driver API:;
#X text 43 297 QuickTime OSX;
#X text 43 312 sorry;
#X text 9 30 pick a camera:;
#X obj 24 49 vradio 15 1 0 9 \$0-s_device \$0-device empty 0 -8 0 10
-241291 -1 -1 8;
#X text 42 46 0;
#X text 42 61 1;
#X text 42 77 2;
#X text 42 92 3;
#X text 42 107 4;
#X text 42 122 5;
#X text 42 137 6;
#X text 42 152 7;
#X text 42 168 OFF;
#X obj 155 229 gf.nbxhsl \$0 white_delay;
#X obj 155 241 gf.nbxhsl \$0 auto_gain;
#X obj 89 229 doc_accolade \, color 10;
#N canvas 0 0 450 300 minmaxsize 0;
#X obj 12 13 r \$0-minsize;
#X obj 12 51 unpack 0 0;
#X obj 69 70 s \$0-minwidth;
#X obj 12 89 s \$0-minheight;
#X obj 153 51 unpack 0 0;
#X obj 153 13 r \$0-maxsize;
#X obj 153 89 s \$0-maxheight;
#X obj 210 70 s \$0-maxwidth;
#X obj 12 32 route list;
#X obj 153 32 route list;
#X connect 0 0 8 0;
#X connect 1 0 3 0;
#X connect 1 1 2 0;
#X connect 4 0 6 0;
#X connect 4 1 7 0;
#X connect 5 0 9 0;
#X connect 8 0 1 0;
#X connect 9 0 4 0;
#X restore 227 388 pd minmaxsize;
#X obj 7 448 s \$0-device;
#X obj 53 429 s \$0-api;
#X obj 7 391 route device api;
#X obj 53 410 gf/selector;
#X obj 25 187 tgl 12 0 \$0-s_pwc \$0-pwc empty 20 7 1 10 -233017 -195568
-195568 0 1;
#X obj 7 410 mod 9;
#X text 40 185 use PWC (in v4l1);
#X connect 2 0 53 0;
#X connect 4 0 94 0;
#X connect 6 0 53 0;
#X connect 53 0 3 0;
#X connect 53 1 2 0;
#X connect 65 0 53 0;
#X connect 94 0 97 0;
#X connect 94 1 95 0;
#X connect 94 2 53 0;
#X connect 95 0 93 0;
#X connect 97 0 92 0;
