#N canvas 330 241 663 430 10;
#X obj 38 -6 inlet rgb_color;
#X obj 15 215 outlet rgb_color;
#X obj 173 61 cnv 10 32 11 empty \$0-cnv empty 20 12 0 14 -83667 -262144
0;
#X obj 10 392 s \$0-cnv;
#X msg 10 373 color \$1;
#X obj 149 297 #unpack 3;
#X obj 38 13 route delegate bang;
#X obj 200 373 s \$0-b0;
#X obj 174 335 s \$0-g0;
#X obj 149 373 s \$0-r0;
#X obj 215 140 pack 0 0;
#X obj 215 111 args (min a 0) (max a 255) (nopreview a 0);
#X obj 10 335 shunt;
#X obj 10 354 #to_iem;
#X msg 200 354 set \$1;
#X msg 215 159 delegate range \$1 \$2;
#X msg 174 316 set \$1;
#X msg 149 354 set \$1;
#X obj 10 139 r \$0-r1;
#X obj 29 158 r \$0-g1;
#X obj 49 177 r \$0-b1;
#X obj 10 257 spigot 1;
#X obj 107 123 #unpack 3;
#X msg 158 142 set \$1;
#X msg 132 172 set \$1;
#X obj 175 73 nbx 3 14 -1e+37 1e+37 0 0 \$0-r1 \$0-r0 empty 0 -8 0
8 -172033 -262144 -1 0 256;
#X obj 175 87 nbx 3 14 -1e+37 1e+37 0 0 \$0-g1 \$0-g0 empty 0 -8 0
8 -2689 -262144 -1 0 256;
#X obj 175 101 nbx 3 14 -1e+37 1e+37 0 0 \$0-b1 \$0-b0 empty 0 -8 0
8 -43 -262144 -1 0 256;
#X obj 53 87 hsl 128 14 0 255 0 0 \$0-g1 \$0-g0 empty -2 -6 0 8 -225271
-24198 -1 0 1;
#X obj 53 101 hsl 128 14 0 255 0 0 \$0-b1 \$0-b0 empty -2 -6 0 8 -228992
-62784 -1 0 1;
#X obj 53 73 hsl 128 14 0 255 0 0 \$0-r1 \$0-r0 empty -2 -6 0 8 -261689
-258699 -1 0 1;
#X obj 10 196 #pack 3;
#X connect 0 0 6 0;
#X connect 4 0 3 0;
#X connect 5 0 17 0;
#X connect 5 1 16 0;
#X connect 5 2 14 0;
#X connect 6 0 30 0;
#X connect 6 0 28 0;
#X connect 6 0 29 0;
#X connect 6 1 30 0;
#X connect 6 2 22 0;
#X connect 10 0 15 0;
#X connect 11 0 10 0;
#X connect 11 1 10 1;
#X connect 11 2 12 1;
#X connect 12 0 13 0;
#X connect 13 0 4 0;
#X connect 14 0 7 0;
#X connect 15 0 6 0;
#X connect 16 0 8 0;
#X connect 17 0 9 0;
#X connect 18 0 31 0;
#X connect 19 0 31 1;
#X connect 20 0 31 2;
#X connect 21 0 12 0;
#X connect 22 0 31 0;
#X connect 22 1 24 0;
#X connect 22 2 23 0;
#X connect 23 0 31 2;
#X connect 24 0 31 1;
#X connect 31 0 1 0;
#X connect 31 0 21 0;
#X connect 31 0 5 0;
#X coords 0 -1 1 1 156 55 1 50 60;
