#N canvas 413 192 580 497 10;
#X obj 208 17 inlet command;
#X obj 18 17 inlet image;
#X obj 18 337 outlet image;
#X obj 109 17 inlet colour;
#X obj 142 36 loadbang;
#X obj 208 36 route PU PD PA;
#X obj 107 318 spigot 1;
#X text 167 319 pen;
#X msg 231 109 0;
#X msg 270 109 1;
#X obj 201 80 t a b;
#X obj 240 80 t a b;
#X obj 279 65 route bang;
#X obj 353 103 t a a;
#X msg 142 55 2 2 # -1;
#X obj 353 139 unpack;
#X obj 399 139 unpack;
#X obj 353 162 pack 0 0 0 0;
#X obj 353 181 #import (2 2);
#X obj 107 337 outlet time_to_draw;
#X obj 353 200 t a a;
#X obj 353 219 #finished;
#X obj 353 65 t a;
#X obj 40 55 #store;
#X obj 62 74 #dim;
#X obj 26 185 #reinterval;
#X obj 18 36 t a b a;
#X obj 353 239 inlet start;
#X obj 367 258 inlet end;
#X obj 43 163 #pack;
#X obj 82 163 #pack;
#X obj 62 93 #unpack 3;
#X obj 26 204 #reverse -1;
#X obj 18 290 #draw_polygon \, draw line;
#X connect 0 0 5 0;
#X connect 1 0 26 0;
#X connect 3 0 33 1;
#X connect 4 0 14 0;
#X connect 5 0 10 0;
#X connect 5 1 11 0;
#X connect 5 2 22 0;
#X connect 6 0 19 0;
#X connect 8 0 6 1;
#X connect 9 0 6 1;
#X connect 10 0 12 0;
#X connect 10 1 8 0;
#X connect 11 0 12 0;
#X connect 11 1 9 0;
#X connect 12 1 22 0;
#X connect 13 0 16 0;
#X connect 13 1 15 0;
#X connect 14 0 33 2;
#X connect 15 0 17 0;
#X connect 15 1 17 1;
#X connect 16 0 17 2;
#X connect 16 1 17 3;
#X connect 17 0 18 0;
#X connect 18 0 20 0;
#X connect 20 0 21 0;
#X connect 20 1 23 1;
#X connect 21 0 6 0;
#X connect 22 0 13 0;
#X connect 23 0 25 0;
#X connect 24 0 31 0;
#X connect 25 0 32 0;
#X connect 26 0 33 0;
#X connect 26 1 23 0;
#X connect 26 2 24 0;
#X connect 27 0 25 1;
#X connect 28 0 25 2;
#X connect 29 0 25 3;
#X connect 30 0 25 4;
#X connect 31 0 29 1;
#X connect 31 1 30 0;
#X connect 32 0 33 2;
#X connect 33 0 2 0;
