#N canvas 284 21 761 300 10;
#X obj 19 20 inlet;
#X obj 19 246 outlet;
#X obj 91 246 outlet;
#X obj 146 32 loadbang;
#X obj 146 51 args *;
#X obj 19 59 route open;
#N canvas 116 23 450 300 \$0-placeholder 0;
#X obj 0 0 r 1003-in;
#X obj 0 100 s 1003-out;
#X obj 0 50 #io:png in teapot.png;
#X connect 0 0 2 0;
#X connect 2 0 1 0;
#X restore 19 189 pd \$0-placeholder;
#X obj 247 264 s pd-\$0-placeholder;
#X obj 240 36 bng 15 250 50 0 empty empty empty 17 7 0 10 -262144 -1
-1;
#X obj 247 143 t b l b;
#X msg 247 238 connect 0 0 2 0 \, connect 2 0 1 0;
#X obj 19 170 s \$0-in;
#X obj 19 208 r \$0-out;
#X obj 269 219 list trim;
#X obj 269 200 list prepend obj 0 50 #io:png in;
#X obj 19 227 route2 grid;
#X msg 291 181 clear \, obj 0 0 r \$1-in \, obj 0 100 s \$1-out;
#X obj 291 162 \$0;
#X obj 84 123 route bang;
#X msg 84 143 bang;
#X text 121 145 hack.;
#X obj 48 277 display;
#X obj 418 259 print;
#X obj 146 70 route bang;
#X connect 0 0 5 0;
#X connect 3 0 4 0;
#X connect 4 0 23 0;
#X connect 5 0 9 0;
#X connect 5 1 18 0;
#X connect 8 0 4 0;
#X connect 9 0 10 0;
#X connect 9 1 14 0;
#X connect 9 2 17 0;
#X connect 10 0 7 0;
#X connect 12 0 15 0;
#X connect 12 0 21 0;
#X connect 13 0 7 0;
#X connect 13 0 22 0;
#X connect 14 0 13 0;
#X connect 15 0 1 0;
#X connect 15 1 2 0;
#X connect 16 0 7 0;
#X connect 17 0 16 0;
#X connect 18 0 19 0;
#X connect 18 1 11 0;
#X connect 19 0 11 0;
#X connect 23 1 9 0;
