#N canvas 185 65 450 399 10;
#X obj 15 16 inlet line;
#X obj 15 381 outlet arrow;
#X obj 45 35 #t;
#X obj 240 52 #polygon_perimetre;
#X obj 45 163 # /;
#X obj 15 35 #t;
#X obj 45 214 #t;
#X obj 75 214 #rotate 13500;
#X obj 45 233 #rotate -13500;
#X obj 45 252 #join;
#X obj 45 74 #unpack 4;
#X obj 83 93 pack;
#X obj 45 93 pack;
#X obj 45 271 #redim (2 2);
#X obj 15 341 #join 0;
#X obj 45 299 # +;
#X obj 45 114 # inv+;
#X obj 15 361 #join 0;
#X obj 268 265 #redim (1 2);
#X obj 45 144 # * 15;
#X obj 45 55 #redim (4);
#X connect 0 0 5 0;
#X connect 2 0 20 0;
#X connect 2 1 3 0;
#X connect 3 0 4 1;
#X connect 4 0 6 0;
#X connect 5 0 14 0;
#X connect 5 1 2 0;
#X connect 6 0 8 0;
#X connect 6 1 7 0;
#X connect 7 0 9 1;
#X connect 8 0 9 0;
#X connect 9 0 13 0;
#X connect 10 0 12 0;
#X connect 10 1 12 1;
#X connect 10 2 11 0;
#X connect 10 3 11 1;
#X connect 11 0 15 1;
#X connect 11 0 16 1;
#X connect 11 0 18 0;
#X connect 12 0 16 0;
#X connect 13 0 15 0;
#X connect 14 0 17 0;
#X connect 15 0 14 1;
#X connect 16 0 19 0;
#X connect 17 0 1 0;
#X connect 18 0 17 1;
#X connect 19 0 4 0;
#X connect 20 0 10 0;
