#N canvas 272 99 954 588 10;
#X obj 327 336 namecanvas \$0-yeault;
#X obj 644 163 #import (2);
#X obj 383 278 pack;
#X obj 230 1 inlet;
#X obj 459 448 outlet;
#X obj 233 255 args obj ny nx (sy a 15) (sx a 15);
#X obj 595 277 receives \$0-send-;
#X obj 650 183 #to_list;
#X msg 650 202 add2 \$1-\$2;
#X msg 646 78 set list;
#X obj 890 2 inlet;
#X obj 738 418 outlet;
#X obj 595 78 t b b b;
#N canvas 0 0 365 230 delegate 0;
#X obj 26 85 #import (2);
#X obj 26 142 list;
#X obj 26 47 t b a;
#X obj 26 104 #to_list;
#X obj 26 123 t b l;
#X obj 26 180 s;
#X obj 62 123 list prepend \$0;
#X msg 62 142 symbol \$1-recv-\$2-\$3;
#X obj 26 161 list trim;
#X obj 26 28 inlet;
#X obj 26 66 #for (0 0) ( \$2 \$3 ) (1 1);
#X connect 0 0 3 0;
#X connect 1 0 8 0;
#X connect 2 0 10 0;
#X connect 2 1 1 1;
#X connect 3 0 4 0;
#X connect 4 0 1 0;
#X connect 4 1 6 0;
#X connect 6 0 7 0;
#X connect 7 0 5 1;
#X connect 8 0 5 0;
#X connect 9 0 2 0;
#X connect 10 0 0 0;
#X restore 230 215 pd delegate;
#N canvas 0 0 385 264 recv-grid 0;
#X obj 16 39 t a a;
#X obj 16 58 #finished;
#X obj 16 153 #to_list;
#X obj 55 115 #unpack;
#X obj 16 96 #import (2);
#X obj 16 115 t a a;
#X obj 16 20 inlet;
#X obj 16 77 #for (0 0) ( \$2 \$3 ) (1 1);
#X obj 16 210 outlet;
#X obj 16 172 pack 0 0 0;
#X obj 200 13 inlet;
#X text 238 11 post-loadbang;
#X msg 16 191 \$2 \$3 set \$1;
#X obj 16 134 #store ( \$2 \$3 # );
#X connect 0 0 1 0;
#X connect 0 1 13 1;
#X connect 1 0 7 0;
#X connect 2 0 9 0;
#X connect 3 0 9 1;
#X connect 3 1 9 2;
#X connect 4 0 5 0;
#X connect 5 0 13 0;
#X connect 5 1 3 0;
#X connect 6 0 0 0;
#X connect 7 0 4 0;
#X connect 9 0 12 0;
#X connect 10 0 7 0;
#X connect 12 0 8 0;
#X connect 13 0 2 0;
#X restore 490 97 pd recv-grid;
#X obj 383 297 s \$0-size;
#X obj 703 277 listfind;
#X obj 595 296 #import (1 1);
#X msg 703 361 put_at \$1 \$2;
#X msg 666 380 reassign;
#X obj 639 361 t a b;
#X obj 595 361 t a a;
#X obj 595 380 #finished;
#X obj 703 296 t f f;
#X obj 738 380 pack 0 0 0;
#X obj 703 342 pack;
#X msg 738 399 \$2 \$3 \$1;
#X obj 559 59 loadbang;
#X obj 459 80 # +;
#X obj 554 20 gf/selector;
#X obj 554 39 gf/error #many: no method for '%s';
#N canvas 0 0 431 252 to 0;
#X obj 3 123 list split 2;
#X obj 3 66 t a a;
#X obj 37 142 list trim;
#X obj 3 47 list;
#X msg 52 104 symbol \$3-recv-\$1-\$2;
#X obj 52 85 pack f f \$0;
#X obj 37 161 s;
#X obj 52 66 unpack;
#X obj 3 25 inlet;
#X connect 0 1 2 0;
#X connect 1 0 0 0;
#X connect 1 1 7 0;
#X connect 2 0 6 0;
#X connect 3 0 1 0;
#X connect 4 0 6 1;
#X connect 5 0 4 0;
#X connect 7 0 5 0;
#X connect 7 1 5 1;
#X connect 8 0 3 0;
#X restore 274 114 pd to;
#X obj 416 20 route2 grid list float;
#X obj 595 431 #store ( \$2 \$3 #);
#X obj 659 408 t a;
#X obj 644 144 #for (0 0) ( \$2 \$3 ) (1 1);
#X obj 703 320 div \$3;
#X obj 745 320 mod \$3;
#N canvas 0 0 450 300 big 0;
#X obj 19 18 inlet;
#X obj 19 269 outlet;
#X msg 19 37 list 0-0 0-1 0-2 0-3 0-4 0-5 0-6 1-0 1-1 1-2 1-3 1-4 1-5
1-6 2-0 2-1 2-2 2-3 2-4 2-5 2-6 3-0 3-1 3-2 3-3 3-4 3-5 3-6 4-0 4-1
4-2 4-3 4-4 4-5 4-6 5-0 5-1 5-2 5-3 5-4 5-5 5-6 6-0 6-1 6-2 6-3 6-4
6-5 6-6 7-0 7-1 7-2 7-3 7-4 7-5 7-6 8-0 8-1 8-2 8-3 8-4 8-5 8-6 9-0
9-1 9-2 9-3 9-4 9-5 9-6 10-0 10-1 10-2 10-3 10-4 10-5 10-6 11-0 11-1
11-2 11-3 11-4 11-5 11-6 12-0 12-1 12-2 12-3 12-4 12-5 12-6;
#X connect 0 0 2 0;
#X connect 2 0 1 0;
#X restore 595 244 pd big messagebox;
#X obj 559 78 t b b;
#N canvas 0 0 450 300 create-boxes 0;
#X obj 162 146 symbol \$1;
#X obj 60 51 t a a;
#X obj 60 146 pack f f f f f s;
#X obj 156 108 float \$0;
#X obj 60 70 # *;
#X msg 60 165 obj \$2 \$1 \$6 \, last send \$5-send-\$3-\$4 \, last
receive \$5-recv-\$3-\$4;
#X obj 84 70 r \$0-size;
#X obj 60 108 #unpack;
#X obj 108 108 #unpack;
#X obj 60 89 # + 4;
#N canvas 0 0 409 225 resize-gop 0;
#X obj 15 17 inlet;
#X obj 15 131 outlet;
#X obj 15 93 #to_list;
#X obj 15 55 # *;
#X obj 39 55 r \$0-size;
#X msg 15 112 coords 0 -1 1 1 \$2 \$1 3 0 0;
#X obj 15 74 # + 8;
#X obj 15 36 #store ( \$2 \$3 );
#X msg 187 129 vis_size \$2 \$1;
#X obj 187 148 s \$0-rect;
#X obj 187 91 # - (6 2);
#X obj 187 110 #to_list;
#X obj 66 199 s \$0-rect2;
#X msg 66 180 vis_size \$2 \$1;
#X obj 66 161 #to_list;
#X obj 66 142 # - (2 16);
#X connect 0 0 7 0;
#X connect 2 0 5 0;
#X connect 3 0 6 0;
#X connect 4 0 3 1;
#X connect 5 0 1 0;
#X connect 6 0 2 0;
#X connect 6 0 10 0;
#X connect 6 0 15 0;
#X connect 7 0 3 0;
#X connect 8 0 9 0;
#X connect 10 0 11 0;
#X connect 11 0 8 0;
#X connect 13 0 12 0;
#X connect 14 0 13 0;
#X connect 15 0 14 0;
#X restore 240 90 pd resize-gop;
#X obj 240 71 inlet;
#X obj 60 32 inlet;
#X obj 240 276 s \$0-yeault;
#X connect 0 0 2 5;
#X connect 1 0 4 0;
#X connect 1 1 8 0;
#X connect 2 0 5 0;
#X connect 3 0 2 4;
#X connect 4 0 9 0;
#X connect 5 0 13 0;
#X connect 6 0 4 1;
#X connect 7 0 2 0;
#X connect 7 1 2 1;
#X connect 8 0 2 2;
#X connect 8 1 2 3;
#X connect 9 0 7 0;
#X connect 10 0 13 0;
#X connect 11 0 10 0;
#X connect 11 0 0 0;
#X connect 11 0 3 0;
#X connect 12 0 1 0;
#X restore 644 222 pd create-boxes;
#X obj 644 125 t b b;
#X obj 230 20 route delegate to bang bgcolor;
#X obj 335 229 s \$0-rect;
#X msg 335 170 color \$1;
#X obj 341 209 s \$0-rect2;
#X msg 241 170 pos 0 400;
#X obj 335 189 t a;
#X msg 241 151 size 2 \, vis_size 2 2;
#X obj 1 3 cnv 2 111 197 empty \$0-rect empty 20 12 0 14 -2353 -262144
0;
#X obj 8 1 cnv 2 97 201 empty \$0-rect2 empty 20 12 0 14 -2353 -262144
0;
#X obj 152 318 gf/propertybang;
#N canvas 0 0 450 300 \$0-propholder 0;
#X obj 0 0 #many-prop 1291;
#X restore 224 337 pd \$0-propholder;
#X obj 201 375 s pd-\$0-propholder;
#X msg 200 356 obj 0 0 #many-prop \$1;
#X obj 200 337 \$0;
#X msg 241 113 bang;
#X obj 241 132 t b b;
#X obj 152 477 s \$0-propcanvas;
#X msg 152 458 vis 1;
#X obj 152 337 t b b b;
#X obj 171 435 s \$0-propin;
#X obj 281 299 pack s 0 0 0 0;
#X obj 171 394 t b b;
#X obj 171 416 list;
#X obj 180 235 bng 15 250 50 0 empty empty empty 17 7 0 10 -262144
-1 -1;
#X obj 368 472 delay;
#X msg 368 491 clear;
#X obj 296 434 r \$0-propout;
#X obj 296 453 route2 list;
#X obj 296 529 print \$0-apply;
#X obj 368 453 route cancel;
#X obj 368 510 s pd-\$0-propholder;
#X obj 4 4 tgl 15 0 1291-send-0-0 1291-recv-0-0 empty 17 7 0 10 -262144
-1 -1 0 1;
#X obj 19 4 tgl 15 0 1291-send-0-1 1291-recv-0-1 empty 17 7 0 10 -262144
-1 -1 0 1;
#X obj 34 4 tgl 15 0 1291-send-0-2 1291-recv-0-2 empty 17 7 0 10 -262144
-1 -1 0 1;
#X obj 49 4 tgl 15 0 1291-send-0-3 1291-recv-0-3 empty 17 7 0 10 -262144
-1 -1 0 1;
#X obj 64 4 tgl 15 0 1291-send-0-4 1291-recv-0-4 empty 17 7 0 10 -262144
-1 -1 0 1;
#X obj 79 4 tgl 15 0 1291-send-0-5 1291-recv-0-5 empty 17 7 0 10 -262144
-1 -1 0 1;
#X obj 94 4 tgl 15 0 1291-send-0-6 1291-recv-0-6 empty 17 7 0 10 -262144
-1 -1 0 1;
#X obj 4 19 tgl 15 0 1291-send-1-0 1291-recv-1-0 empty 17 7 0 10 -262144
-1 -1 0 1;
#X obj 19 19 tgl 15 0 1291-send-1-1 1291-recv-1-1 empty 17 7 0 10 -262144
-1 -1 0 1;
#X obj 34 19 tgl 15 0 1291-send-1-2 1291-recv-1-2 empty 17 7 0 10 -262144
-1 -1 0 1;
#X obj 49 19 tgl 15 0 1291-send-1-3 1291-recv-1-3 empty 17 7 0 10 -262144
-1 -1 0 1;
#X obj 64 19 tgl 15 0 1291-send-1-4 1291-recv-1-4 empty 17 7 0 10 -262144
-1 -1 0 1;
#X obj 79 19 tgl 15 0 1291-send-1-5 1291-recv-1-5 empty 17 7 0 10 -262144
-1 -1 0 1;
#X obj 94 19 tgl 15 0 1291-send-1-6 1291-recv-1-6 empty 17 7 0 10 -262144
-1 -1 0 1;
#X obj 4 34 tgl 15 0 1291-send-2-0 1291-recv-2-0 empty 17 7 0 10 -262144
-1 -1 0 1;
#X obj 19 34 tgl 15 0 1291-send-2-1 1291-recv-2-1 empty 17 7 0 10 -262144
-1 -1 0 1;
#X obj 34 34 tgl 15 0 1291-send-2-2 1291-recv-2-2 empty 17 7 0 10 -262144
-1 -1 0 1;
#X obj 49 34 tgl 15 0 1291-send-2-3 1291-recv-2-3 empty 17 7 0 10 -262144
-1 -1 0 1;
#X obj 64 34 tgl 15 0 1291-send-2-4 1291-recv-2-4 empty 17 7 0 10 -262144
-1 -1 0 1;
#X obj 79 34 tgl 15 0 1291-send-2-5 1291-recv-2-5 empty 17 7 0 10 -262144
-1 -1 0 1;
#X obj 94 34 tgl 15 0 1291-send-2-6 1291-recv-2-6 empty 17 7 0 10 -262144
-1 -1 0 1;
#X obj 4 49 tgl 15 0 1291-send-3-0 1291-recv-3-0 empty 17 7 0 10 -262144
-1 -1 0 1;
#X obj 19 49 tgl 15 0 1291-send-3-1 1291-recv-3-1 empty 17 7 0 10 -262144
-1 -1 0 1;
#X obj 34 49 tgl 15 0 1291-send-3-2 1291-recv-3-2 empty 17 7 0 10 -262144
-1 -1 0 1;
#X obj 49 49 tgl 15 0 1291-send-3-3 1291-recv-3-3 empty 17 7 0 10 -262144
-1 -1 0 1;
#X obj 64 49 tgl 15 0 1291-send-3-4 1291-recv-3-4 empty 17 7 0 10 -262144
-1 -1 0 1;
#X obj 79 49 tgl 15 0 1291-send-3-5 1291-recv-3-5 empty 17 7 0 10 -262144
-1 -1 0 1;
#X obj 94 49 tgl 15 0 1291-send-3-6 1291-recv-3-6 empty 17 7 0 10 -262144
-1 -1 0 1;
#X obj 4 64 tgl 15 0 1291-send-4-0 1291-recv-4-0 empty 17 7 0 10 -262144
-1 -1 0 1;
#X obj 19 64 tgl 15 0 1291-send-4-1 1291-recv-4-1 empty 17 7 0 10 -262144
-1 -1 0 1;
#X obj 34 64 tgl 15 0 1291-send-4-2 1291-recv-4-2 empty 17 7 0 10 -262144
-1 -1 0 1;
#X obj 49 64 tgl 15 0 1291-send-4-3 1291-recv-4-3 empty 17 7 0 10 -262144
-1 -1 0 1;
#X obj 64 64 tgl 15 0 1291-send-4-4 1291-recv-4-4 empty 17 7 0 10 -262144
-1 -1 0 1;
#X obj 79 64 tgl 15 0 1291-send-4-5 1291-recv-4-5 empty 17 7 0 10 -262144
-1 -1 0 1;
#X obj 94 64 tgl 15 0 1291-send-4-6 1291-recv-4-6 empty 17 7 0 10 -262144
-1 -1 0 1;
#X obj 4 79 tgl 15 0 1291-send-5-0 1291-recv-5-0 empty 17 7 0 10 -262144
-1 -1 0 1;
#X obj 19 79 tgl 15 0 1291-send-5-1 1291-recv-5-1 empty 17 7 0 10 -262144
-1 -1 0 1;
#X obj 34 79 tgl 15 0 1291-send-5-2 1291-recv-5-2 empty 17 7 0 10 -262144
-1 -1 0 1;
#X obj 49 79 tgl 15 0 1291-send-5-3 1291-recv-5-3 empty 17 7 0 10 -262144
-1 -1 0 1;
#X obj 64 79 tgl 15 0 1291-send-5-4 1291-recv-5-4 empty 17 7 0 10 -262144
-1 -1 0 1;
#X obj 79 79 tgl 15 0 1291-send-5-5 1291-recv-5-5 empty 17 7 0 10 -262144
-1 -1 0 1;
#X obj 94 79 tgl 15 0 1291-send-5-6 1291-recv-5-6 empty 17 7 0 10 -262144
-1 -1 0 1;
#X obj 4 94 tgl 15 0 1291-send-6-0 1291-recv-6-0 empty 17 7 0 10 -262144
-1 -1 0 1;
#X obj 19 94 tgl 15 0 1291-send-6-1 1291-recv-6-1 empty 17 7 0 10 -262144
-1 -1 0 1;
#X obj 34 94 tgl 15 0 1291-send-6-2 1291-recv-6-2 empty 17 7 0 10 -262144
-1 -1 0 1;
#X obj 49 94 tgl 15 0 1291-send-6-3 1291-recv-6-3 empty 17 7 0 10 -262144
-1 -1 0 1;
#X obj 64 94 tgl 15 0 1291-send-6-4 1291-recv-6-4 empty 17 7 0 10 -262144
-1 -1 0 1;
#X obj 79 94 tgl 15 0 1291-send-6-5 1291-recv-6-5 empty 17 7 0 10 -262144
-1 -1 0 1;
#X obj 94 94 tgl 15 0 1291-send-6-6 1291-recv-6-6 empty 17 7 0 10 -262144
-1 -1 0 1;
#X obj 4 109 tgl 15 0 1291-send-7-0 1291-recv-7-0 empty 17 7 0 10 -262144
-1 -1 0 1;
#X obj 19 109 tgl 15 0 1291-send-7-1 1291-recv-7-1 empty 17 7 0 10
-262144 -1 -1 0 1;
#X obj 34 109 tgl 15 0 1291-send-7-2 1291-recv-7-2 empty 17 7 0 10
-262144 -1 -1 0 1;
#X obj 49 109 tgl 15 0 1291-send-7-3 1291-recv-7-3 empty 17 7 0 10
-262144 -1 -1 0 1;
#X obj 64 109 tgl 15 0 1291-send-7-4 1291-recv-7-4 empty 17 7 0 10
-262144 -1 -1 0 1;
#X obj 79 109 tgl 15 0 1291-send-7-5 1291-recv-7-5 empty 17 7 0 10
-262144 -1 -1 0 1;
#X obj 94 109 tgl 15 0 1291-send-7-6 1291-recv-7-6 empty 17 7 0 10
-262144 -1 -1 0 1;
#X obj 4 124 tgl 15 0 1291-send-8-0 1291-recv-8-0 empty 17 7 0 10 -262144
-1 -1 0 1;
#X obj 19 124 tgl 15 0 1291-send-8-1 1291-recv-8-1 empty 17 7 0 10
-262144 -1 -1 0 1;
#X obj 34 124 tgl 15 0 1291-send-8-2 1291-recv-8-2 empty 17 7 0 10
-262144 -1 -1 0 1;
#X obj 49 124 tgl 15 0 1291-send-8-3 1291-recv-8-3 empty 17 7 0 10
-262144 -1 -1 0 1;
#X obj 64 124 tgl 15 0 1291-send-8-4 1291-recv-8-4 empty 17 7 0 10
-262144 -1 -1 0 1;
#X obj 79 124 tgl 15 0 1291-send-8-5 1291-recv-8-5 empty 17 7 0 10
-262144 -1 -1 0 1;
#X obj 94 124 tgl 15 0 1291-send-8-6 1291-recv-8-6 empty 17 7 0 10
-262144 -1 -1 0 1;
#X obj 4 139 tgl 15 0 1291-send-9-0 1291-recv-9-0 empty 17 7 0 10 -262144
-1 -1 0 1;
#X obj 19 139 tgl 15 0 1291-send-9-1 1291-recv-9-1 empty 17 7 0 10
-262144 -1 -1 0 1;
#X obj 34 139 tgl 15 0 1291-send-9-2 1291-recv-9-2 empty 17 7 0 10
-262144 -1 -1 0 1;
#X obj 49 139 tgl 15 0 1291-send-9-3 1291-recv-9-3 empty 17 7 0 10
-262144 -1 -1 0 1;
#X obj 64 139 tgl 15 0 1291-send-9-4 1291-recv-9-4 empty 17 7 0 10
-262144 -1 -1 0 1;
#X obj 79 139 tgl 15 0 1291-send-9-5 1291-recv-9-5 empty 17 7 0 10
-262144 -1 -1 0 1;
#X obj 94 139 tgl 15 0 1291-send-9-6 1291-recv-9-6 empty 17 7 0 10
-262144 -1 -1 0 1;
#X obj 4 154 tgl 15 0 1291-send-10-0 1291-recv-10-0 empty 17 7 0 10
-262144 -1 -1 0 1;
#X obj 19 154 tgl 15 0 1291-send-10-1 1291-recv-10-1 empty 17 7 0 10
-262144 -1 -1 0 1;
#X obj 34 154 tgl 15 0 1291-send-10-2 1291-recv-10-2 empty 17 7 0 10
-262144 -1 -1 0 1;
#X obj 49 154 tgl 15 0 1291-send-10-3 1291-recv-10-3 empty 17 7 0 10
-262144 -1 -1 0 1;
#X obj 64 154 tgl 15 0 1291-send-10-4 1291-recv-10-4 empty 17 7 0 10
-262144 -1 -1 0 1;
#X obj 79 154 tgl 15 0 1291-send-10-5 1291-recv-10-5 empty 17 7 0 10
-262144 -1 -1 0 1;
#X obj 94 154 tgl 15 0 1291-send-10-6 1291-recv-10-6 empty 17 7 0 10
-262144 -1 -1 0 1;
#X obj 4 169 tgl 15 0 1291-send-11-0 1291-recv-11-0 empty 17 7 0 10
-262144 -1 -1 0 1;
#X obj 19 169 tgl 15 0 1291-send-11-1 1291-recv-11-1 empty 17 7 0 10
-262144 -1 -1 0 1;
#X obj 34 169 tgl 15 0 1291-send-11-2 1291-recv-11-2 empty 17 7 0 10
-262144 -1 -1 0 1;
#X obj 49 169 tgl 15 0 1291-send-11-3 1291-recv-11-3 empty 17 7 0 10
-262144 -1 -1 0 1;
#X obj 64 169 tgl 15 0 1291-send-11-4 1291-recv-11-4 empty 17 7 0 10
-262144 -1 -1 0 1;
#X obj 79 169 tgl 15 0 1291-send-11-5 1291-recv-11-5 empty 17 7 0 10
-262144 -1 -1 0 1;
#X obj 94 169 tgl 15 0 1291-send-11-6 1291-recv-11-6 empty 17 7 0 10
-262144 -1 -1 0 1;
#X obj 4 184 tgl 15 0 1291-send-12-0 1291-recv-12-0 empty 17 7 0 10
-262144 -1 -1 0 1;
#X obj 19 184 tgl 15 0 1291-send-12-1 1291-recv-12-1 empty 17 7 0 10
-262144 -1 -1 0 1;
#X obj 34 184 tgl 15 0 1291-send-12-2 1291-recv-12-2 empty 17 7 0 10
-262144 -1 -1 0 1;
#X obj 49 184 tgl 15 0 1291-send-12-3 1291-recv-12-3 empty 17 7 0 10
-262144 -1 -1 0 1;
#X obj 64 184 tgl 15 0 1291-send-12-4 1291-recv-12-4 empty 17 7 0 10
-262144 -1 -1 0 1;
#X obj 79 184 tgl 15 0 1291-send-12-5 1291-recv-12-5 empty 17 7 0 10
-262144 -1 -1 0 1;
#X obj 94 184 tgl 15 0 1291-send-12-6 1291-recv-12-6 empty 17 7 0 10
-262144 -1 -1 0 1;
#X connect 1 0 7 0;
#X connect 1 0 40 0;
#X connect 2 0 15 0;
#X connect 3 0 42 0;
#X connect 5 0 62 0;
#X connect 5 1 62 1;
#X connect 5 2 62 2;
#X connect 5 3 2 0;
#X connect 5 3 62 3;
#X connect 5 4 2 1;
#X connect 5 4 62 4;
#X connect 6 0 17 0;
#X connect 6 0 24 0;
#X connect 6 1 16 0;
#X connect 7 0 8 0;
#X connect 8 0 38 0;
#X connect 9 0 38 0;
#X connect 12 0 38 0;
#X connect 12 1 41 0;
#X connect 12 2 9 0;
#X connect 14 0 31 0;
#X connect 16 0 23 0;
#X connect 17 0 21 0;
#X connect 18 0 34 0;
#X connect 19 0 34 0;
#X connect 20 0 34 0;
#X connect 20 1 19 0;
#X connect 21 0 22 0;
#X connect 21 1 34 0;
#X connect 22 0 33 0;
#X connect 23 0 36 0;
#X connect 23 1 37 0;
#X connect 24 0 26 0;
#X connect 25 0 18 0;
#X connect 26 0 11 0;
#X connect 27 0 39 0;
#X connect 28 0 4 0;
#X connect 28 0 14 0;
#X connect 28 0 20 0;
#X connect 29 0 30 0;
#X connect 32 0 28 0;
#X connect 32 1 28 0;
#X connect 32 2 28 0;
#X connect 32 3 29 0;
#X connect 33 0 4 0;
#X connect 34 0 33 1;
#X connect 35 0 1 0;
#X connect 36 0 25 0;
#X connect 36 0 24 1;
#X connect 37 0 25 1;
#X connect 37 0 24 2;
#X connect 38 0 6 0;
#X connect 38 0 16 1;
#X connect 39 0 14 1;
#X connect 39 1 12 0;
#X connect 41 0 35 0;
#X connect 41 1 40 1;
#X connect 42 0 13 0;
#X connect 42 1 31 0;
#X connect 42 2 33 0;
#X connect 42 3 44 0;
#X connect 42 4 32 0;
#X connect 44 0 47 0;
#X connect 46 0 13 0;
#X connect 47 0 43 0;
#X connect 47 0 45 0;
#X connect 48 0 47 0;
#X connect 51 0 60 0;
#X connect 54 0 53 0;
#X connect 55 0 54 0;
#X connect 56 0 57 0;
#X connect 57 0 48 0;
#X connect 57 1 46 0;
#X connect 59 0 58 0;
#X connect 60 0 59 0;
#X connect 60 1 63 0;
#X connect 60 2 55 0;
#X connect 62 0 64 1;
#X connect 63 0 64 0;
#X connect 64 0 61 0;
#X connect 65 0 5 0;
#X connect 66 0 67 0;
#X connect 67 0 72 0;
#X connect 68 0 69 0;
#X connect 69 0 70 0;
#X connect 69 1 71 0;
#X connect 71 0 66 0;
#X coords 0 -1 1 1 113 203 2 0 0;
