#N canvas 313 211 711 472 10;
#X obj 14 72 t a a;
#X obj 125 157 t a a;
#X text 149 138 is button pressed?;
#X obj 128 192 -;
#X obj 125 138 > 0;
#X obj 106 342 outlet;
#X text 160 157 1=click \, 0=nochange \, -1=unclick;
#X text 123 36 list (y \, x \, buttons);
#X obj 14 15 inlet;
#X text 58 15 compatible with output of [#out window];
#X obj 128 211 inv+ 1;
#X obj 84 362 outlet;
#X obj 123 321 outlet;
#X text 431 321 three toggle-compatible outputs;
#X text 432 337 and one +1/0/-1 for the wheel;
#X text 126 362 click;
#X text 166 321 unclick;
#X obj 469 292 outlet;
#X obj 511 292 outlet;
#X obj 553 292 outlet;
#X obj 595 292 outlet;
#X obj 469 273 change;
#X obj 14 53 t a a;
#X obj 469 125 # & 1;
#X obj 469 163 unpack 0 0 0 0 0;
#X obj 595 254 inv+;
#X obj 511 273 change;
#X obj 553 273 change;
#X obj 595 273 change;
#X obj 469 144 #to_list;
#X obj 133 300 outlet;
#X text 148 342 drag;
#X text 175 300 move;
#X obj 152 240 inv+ 1;
#X obj 391 40 inlet;
#X text 433 9 list of 3 toggles;
#X text 434 23 which buttons should be active;
#X obj 345 83 #fold +;
#X obj 345 102 #to_float;
#X obj 125 119 &;
#X text 147 119 check only wanted buttons;
#X obj 345 17 loadbang;
#X msg 345 36 1 1 1;
#X obj 84 234 shunt 3;
#X obj 345 64 # << (8 9 10);
#X obj 469 106 #outer >> (8 9 10 11 12);
#X obj 14 34 route position /;
#X msg 125 89 \$3;
#X obj 14 160 pack 0 0;
#X obj 14 112 unpack 0 0;
#X obj 14 131 / 1;
#X obj 71 131 / 1;
#X obj 259 231 args;
#X text 285 231 required to support /;
#X obj 106 267 shunt;
#X connect 0 0 49 0;
#X connect 0 1 47 0;
#X connect 1 0 3 1;
#X connect 1 1 3 0;
#X connect 1 1 33 0;
#X connect 3 0 10 0;
#X connect 4 0 1 0;
#X connect 8 0 46 0;
#X connect 10 0 43 1;
#X connect 21 0 17 0;
#X connect 22 0 0 0;
#X connect 23 0 29 0;
#X connect 24 0 21 0;
#X connect 24 1 26 0;
#X connect 24 2 27 0;
#X connect 24 3 25 0;
#X connect 24 4 25 1;
#X connect 25 0 28 0;
#X connect 26 0 18 0;
#X connect 27 0 19 0;
#X connect 28 0 20 0;
#X connect 29 0 24 0;
#X connect 33 0 54 1;
#X connect 34 0 44 0;
#X connect 37 0 38 0;
#X connect 38 0 39 1;
#X connect 39 0 4 0;
#X connect 41 0 42 0;
#X connect 42 0 44 0;
#X connect 43 0 11 0;
#X connect 43 1 54 0;
#X connect 43 2 12 0;
#X connect 44 0 37 0;
#X connect 45 0 23 0;
#X connect 46 0 22 0;
#X connect 46 1 50 1;
#X connect 46 1 51 1;
#X connect 47 0 39 0;
#X connect 47 0 45 0;
#X connect 48 0 43 0;
#X connect 49 0 50 0;
#X connect 49 1 51 0;
#X connect 50 0 48 0;
#X connect 51 0 48 1;
#X connect 54 0 5 0;
#X connect 54 1 30 0;
