#N canvas 133 255 654 300 10;
#X obj 13 24 inlet;
#X obj 53 259 outlet;
#X obj 53 240 #store;
#X obj 93 24 inlet;
#X obj 243 24 inlet;
#X obj 251 88 # put 1;
#X obj 64 217 #for 0 0;
#X obj 13 56 t a a;
#X obj 13 75 #finished;
#X obj 279 26 args (start a 0) (end a 0);
#X obj 80 96 # +;
#X msg 80 115 set \$1;
#X obj 243 66 #ravel;
#X text 281 241 the "set \$1" of a grid doesn't work yet. I don't know
how it would be possible anyway. it's a [#finished] kind of issue.
;
#X obj 93 68 t a;
#X obj 132 116 list prepend set;
#X obj 132 135 list trim;
#X obj 132 97 #to_literal;
#X connect 0 0 7 0;
#X connect 2 0 1 0;
#X connect 3 0 14 0;
#X connect 4 0 12 0;
#X connect 5 0 6 2;
#X connect 6 0 2 0;
#X connect 7 0 8 0;
#X connect 7 1 2 1;
#X connect 8 0 6 0;
#X connect 9 0 14 0;
#X connect 9 1 12 0;
#X connect 10 0 11 0;
#X connect 11 0 6 0;
#X connect 12 0 6 1;
#X connect 12 0 5 0;
#X connect 14 0 17 0;
#X connect 15 0 16 0;
#X connect 16 0 6 0;
#X connect 17 0 15 0;
