#N canvas 0 0 450 300 10;
#X obj 0 0 cnv 14 100 14 empty \$0-rect (Same as argument foo) 2
10 0 10 -262144 -14235 0;
#X obj 188 63 loadbang;
#X obj 169 80 bng 15 250 50 0 empty empty empty 17 7 0 10 -262144 -1
-1;
#X obj 188 143 s \$0-rect;
#X obj 188 83 list append \$1;
#X obj 15 123 inlet dummy;
#X msg 188 103 label (Same as argument \$1);
#X obj 194 123 doc_iemfont 0 8;
#X connect 1 0 4 0;
#X connect 2 0 4 0;
#X connect 4 0 6 0;
#X connect 6 0 3 0;
#X connect 7 0 3 0;
#X coords 0 -1 1 1 100 14 2 0 0;
