#N canvas 258 183 916 502 10;
#X obj 0 20 cnv 15 126 17 \$0-rect_s \$0-rect symbol 4 9 1 9 -261615
-1 0;
#X obj 9 176 gf/string_replace c c/;
#X obj 9 195 gf/string_replace i i/;
#X obj 9 214 gf/string_replace o o/;
#X obj 9 233 pack s s;
#X msg 9 252 name \$1/\$2 \, parent \$1;
#X msg 363 1 97 \$2;
#X obj 35 458 outlet dummy;
#X obj 317 478 outlet to_comment;
#X obj 317 392 gf/lol 1;
#X obj 691 268 loadbang;
#X obj 317 297 gf/canvas_edit_mode 1;
#X obj 317 335 sel 0 1;
#X msg 317 373 wire_hide;
#X obj 691 290 print doc_m:\$1:\$2;
#X obj 317 278 t b b;
#X obj 432 240 gf/canvas_getpos 0;
#X msg 432 259 \$2;
#X obj 317 430 change -242;
#X msg 317 449 height \$1;
#X obj 317 411 max 20;
#X obj 420 158 max;
#X obj 463 77 pack 0 s;
#X msg 463 96 symbol \$1/\$2;
#X obj 463 58 gf/canvas_dollarzero 1;
#X obj 363 39 unpack f f;
#X obj 363 58 pack f f;
#X obj 463 115 pack s s;
#X msg 463 134 before \$1/\$2;
#X obj 429 39 t f f b b;
#N canvas 0 0 468 230 fudgename 0;
#X obj 7 12 inlet;
#X obj 274 197 outlet;
#X obj 7 31 sel bang float grid symbol pointer list <any>;
#X obj 7 180 list;
#X msg 7 50 0b;
#X msg 45 50 0f;
#X msg 83 50 0g;
#X msg 121 50 0s;
#X msg 159 50 1p;
#X msg 197 50 2l;
#X msg 235 50 ~a;
#X connect 0 0 2 0;
#X connect 2 0 4 0;
#X connect 2 1 5 0;
#X connect 2 2 6 0;
#X connect 2 3 7 0;
#X connect 2 4 8 0;
#X connect 2 5 9 0;
#X connect 2 6 10 0;
#X connect 2 7 1 0;
#X connect 3 0 1 0;
#X connect 4 0 3 0;
#X connect 5 0 3 0;
#X connect 6 0 3 0;
#X connect 7 0 3 0;
#X connect 8 0 3 0;
#X connect 9 0 3 0;
#X connect 10 0 3 0;
#X restore 72 233 pd fudgename;
#X obj 518 115 symbol;
#X obj 77 157 s \$0-rect;
#X msg 77 138 label \$1;
#X obj 9 116 args id (type a ~unspecified~) *;
#X obj 9 157 symbol \$1;
#X obj 75 293 gf/canvas_count 1;
#X obj 29 293 t b b;
#X obj 29 276 bng 15 250 50 0 empty empty empty 17 7 0 10 -262144 -1
-1;
#X obj 29 312 f;
#X obj 90 331 gf/canvas_filename 1;
#X obj 90 312 loadbang;
#X obj 29 412 s;
#X msg 90 350 symbol pd-\$1;
#X msg 29 393 obj \$2 200;
#X text 96 411 we don't have our own object index;
#X obj 93 372 +;
#X obj 29 374 pack f f;
#X obj 317 205 gf/canvas_dollarzero 1;
#X msg 317 224 symbol \$1-clock;
#X obj 317 186 loadbang;
#X obj 317 243 receives;
#X msg 484 335 box_dotted 255 170 0;
#X obj 637 344 change 42;
#X msg 432 278 box_align x 232 \$1 8;
#X obj 128 1 doc_layout ~unspecified~ 126 20 dummy;
#X obj 637 363 sel 0 1;
#X msg 637 382 3;
#X obj 637 425 gf/canvas_setgop 0;
#X obj 446 158 doc_bottom 1;
#X obj 363 20 doc_below ??? 0 -20;
#X obj 118 0 bng 8 250 50 0 \$0-create_s \$0-create empty 17 7 0 10
-261682 -1 -1;
#X msg 656 401 1;
#X obj 604 33 r \$0-create_s;
#X msg 640 71 symbol pd-\$1;
#X obj 604 193 s;
#X obj 604 52 t b b;
#X obj 604 90 gf/canvas_count 1;
#X obj 631 109 gf/canvas_index 0;
#X obj 640 52 gf/canvas_filename 1;
#X obj 604 155 pack f f f;
#X obj 128 72 doc_editmode 118 1;
#X msg 604 174 text 232 \$3 ... \, connect \$2 1 \$1 0 \, last_activate
;
#X msg 484 355 wire_dotted 255 170 0;
#X msg 336 354 wire_bracket 255 170 0;
#X msg 393 183 \$2;
#X obj 661 136 +;
#X connect 1 0 2 0;
#X connect 2 0 3 0;
#X connect 3 0 4 0;
#X connect 3 0 22 1;
#X connect 3 0 60 1;
#X connect 4 0 5 0;
#X connect 5 0 55 0;
#X connect 6 0 60 0;
#X connect 9 0 20 0;
#X connect 9 0 76 1;
#X connect 11 0 12 0;
#X connect 11 0 53 0;
#X connect 12 0 13 0;
#X connect 12 1 74 0;
#X connect 13 0 9 0;
#X connect 15 0 11 0;
#X connect 15 1 16 0;
#X connect 16 0 17 0;
#X connect 17 0 54 0;
#X connect 18 0 19 0;
#X connect 18 0 46 1;
#X connect 19 0 55 0;
#X connect 20 0 18 0;
#X connect 21 0 26 1;
#X connect 22 0 23 0;
#X connect 23 0 27 0;
#X connect 23 0 59 1;
#X connect 24 0 22 0;
#X connect 25 0 26 0;
#X connect 25 1 29 0;
#X connect 26 0 55 1;
#X connect 27 0 28 0;
#X connect 28 0 59 0;
#X connect 29 0 21 0;
#X connect 29 1 59 0;
#X connect 29 2 24 0;
#X connect 29 3 31 0;
#X connect 30 0 4 1;
#X connect 30 0 31 1;
#X connect 31 0 27 1;
#X connect 33 0 32 0;
#X connect 34 0 35 0;
#X connect 34 1 33 0;
#X connect 34 1 30 0;
#X connect 35 0 1 0;
#X connect 36 0 39 1;
#X connect 37 0 39 0;
#X connect 37 1 36 0;
#X connect 38 0 37 0;
#X connect 39 0 47 0;
#X connect 40 0 43 0;
#X connect 41 0 40 0;
#X connect 43 0 42 1;
#X connect 44 0 42 0;
#X connect 46 0 47 1;
#X connect 47 0 44 0;
#X connect 48 0 49 0;
#X connect 49 0 51 0;
#X connect 50 0 48 0;
#X connect 51 0 15 0;
#X connect 53 0 56 0;
#X connect 54 0 9 0;
#X connect 55 2 6 0;
#X connect 55 2 46 0;
#X connect 55 2 75 0;
#X connect 56 0 57 0;
#X connect 56 1 62 0;
#X connect 57 0 58 0;
#X connect 59 0 21 1;
#X connect 60 0 25 0;
#X connect 62 0 58 0;
#X connect 63 0 66 0;
#X connect 64 0 65 1;
#X connect 66 0 67 0;
#X connect 66 1 68 0;
#X connect 66 1 69 0;
#X connect 67 0 70 0;
#X connect 68 0 70 1;
#X connect 69 0 64 0;
#X connect 70 0 72 0;
#X connect 72 0 65 0;
#X connect 74 0 9 0;
#X connect 75 0 76 0;
#X connect 76 0 70 2;
#X coords 0 -1 1 1 126 17 1 0 0;
