#N canvas 110 0 620 482 10;
#X obj 3 3 cnv 15 608 18 empty \$0-rect empty 2 9 1 13 -1 -262144 0
;
#X msg 169 28 0 \$2;
#X obj 169 47 doc_below o 1 10;
#X obj 3 28 doc_layout f 582 24;
#X obj 169 66 doc_below also 1 0;
#X connect 1 0 2 0;
#X connect 2 0 4 0;
#X connect 3 2 1 0;
#X connect 4 0 3 1;
#X coords 0 -1 1 1 614 24 2 0 0;
