#N canvas 334 149 946 502 10;
#X obj 0 20 cnv 15 94 17 \$0-rect_s \$0-rect grid 4 9 1 9 -261615 -1
0;
#X obj 68 380 s \$0-rect;
#X obj 25 322 loadbang;
#X obj 87 321 bng 15 250 50 0 empty empty empty 17 7 0 10 -262144 -1
-1;
#X msg 68 360 label \$1;
#X obj 7 99 loadbang;
#X obj 7 137 symbol \$1;
#X obj 7 156 gf/string_replace c c/;
#X obj 7 176 gf/string_replace i i/;
#X obj 7 196 gf/string_replace o o/;
#X obj 61 215 symbol \$2;
#X obj 7 215 pack s s;
#X obj 25 341 args id (type a ...) *;
#X obj 314 41 doc_below ??? 0 -20;
#X msg 7 234 name \$1/\$2 \, parent \$1;
#X obj 136 407 doc_editmode 42 1;
#X obj 84 1 doc_layout ... 94 20;
#X msg 314 21 97 \$2;
#X obj 35 458 outlet dummy;
#X obj 441 460 outlet to_comment;
#X obj 317 377 gf/lol 1;
#X obj 317 171 loadbang;
#X obj 317 237 metro 666;
#X obj 317 220 tgl 15 0 empty empty empty 17 7 0 10 -262144 -1 -1 1
1;
#X obj 317 297 gf/canvas_edit_mode 1;
#X obj 317 316 sel 0 1;
#X msg 317 354 wire_hide;
#X msg 336 335 wire_dotted 255 170 0 \, box_dotted 255 170 0;
#X obj 329 195 print doc_m:\$1:\$2;
#X msg 297 195 1;
#X obj 317 256 t b b;
#X obj 432 226 gf/canvas_getpos 0;
#X msg 432 245 \$2;
#X msg 432 264 box_align_same_x 200 \$1 8;
#X obj 317 415 change -242;
#X msg 317 434 height \$1;
#X obj 317 396 max 20;
#X obj 394 81 t f f;
#X obj 394 109 max;
#X obj 510 26 t f b;
#X obj 510 95 doc_bottom 1;
#X obj 638 74 symbol \$1;
#X obj 638 94 gf/string_replace c c/;
#X obj 638 114 gf/string_replace i i/;
#X obj 638 134 gf/string_replace o o/;
#X obj 611 35 t b b;
#X obj 611 158 pack 0 s;
#X msg 611 177 symbol \$1/\$2;
#X obj 611 54 gf/canvas_dollarzero 1;
#X obj 314 62 unpack f f;
#X obj 317 106 pack f f;
#X obj 7 118 t b b;
#X obj 611 196 pack s s;
#X obj 666 196 symbol \$2;
#X msg 611 216 before \$1/\$2;
#X connect 2 0 12 0;
#X connect 3 0 12 0;
#X connect 4 0 1 0;
#X connect 5 0 51 0;
#X connect 6 0 7 0;
#X connect 7 0 8 0;
#X connect 8 0 9 0;
#X connect 9 0 11 0;
#X connect 9 0 13 1;
#X connect 10 0 11 1;
#X connect 11 0 14 0;
#X connect 12 1 4 0;
#X connect 13 0 49 0;
#X connect 14 0 16 0;
#X connect 16 2 17 0;
#X connect 17 0 13 0;
#X connect 20 0 36 0;
#X connect 21 0 28 0;
#X connect 21 0 29 0;
#X connect 22 0 30 0;
#X connect 23 0 22 0;
#X connect 24 0 25 0;
#X connect 25 0 26 0;
#X connect 25 1 27 0;
#X connect 26 0 20 0;
#X connect 27 0 20 0;
#X connect 29 0 23 0;
#X connect 30 0 24 0;
#X connect 30 1 31 0;
#X connect 31 0 32 0;
#X connect 32 0 33 0;
#X connect 33 0 20 0;
#X connect 34 0 35 0;
#X connect 35 0 16 0;
#X connect 36 0 34 0;
#X connect 37 0 38 0;
#X connect 37 1 39 0;
#X connect 38 0 50 1;
#X connect 39 0 40 0;
#X connect 39 1 45 0;
#X connect 40 0 38 1;
#X connect 41 0 42 0;
#X connect 42 0 43 0;
#X connect 43 0 44 0;
#X connect 44 0 46 1;
#X connect 45 0 48 0;
#X connect 45 1 41 0;
#X connect 45 1 53 0;
#X connect 46 0 47 0;
#X connect 47 0 40 1;
#X connect 47 0 52 0;
#X connect 48 0 46 0;
#X connect 49 0 50 0;
#X connect 49 1 37 0;
#X connect 50 0 16 1;
#X connect 51 0 6 0;
#X connect 51 1 10 0;
#X connect 52 0 54 0;
#X connect 53 0 52 1;
#X connect 54 0 40 0;
#X coords 0 -1 1 1 94 17 1 0 0;
