#N canvas 586 0 435 426 10;
#X obj 33 72 pack f s;
#X obj 33 53 \$0;
#X msg 14 287 bang \, set;
#X msg 23 325;
#X obj 33 230 s;
#X obj 33 192 \$0;
#X msg 23 306 add2 \$1;
#X obj 33 173 t b s;
#X obj 33 154 r \$0-r1;
#X msg 33 122 \; \$2/foreach_child symbol \$1-r1;
#X obj 33 249 r \$0-r2;
#X msg 33 268 \$4;
#X obj 14 34 t b b f;
#X msg 73 53 set \$1;
#X obj 23 363 #fold max;
#X obj 23 382 #to_float;
#X obj 23 344 t a;
#X text 45 343 HACK;
#X obj 33 91 t a a;
#X msg 122 71 symbol \$2/foreach_child;
#X text 174 89 (dummy);
#X text 120 103 to prevent "no such object";
#X obj 14 15 inlet;
#X obj 23 401 outlet;
#X obj 78 19 inlet;
#X msg 33 211 getbounds \$1-r2 1;
#X obj 162 189 display;
#X obj 122 90 receives;
#X connect 0 0 18 0;
#X connect 1 0 0 0;
#X connect 2 0 3 0;
#X connect 3 0 16 0;
#X connect 5 0 25 0;
#X connect 6 0 3 0;
#X connect 7 0 5 0;
#X connect 7 1 4 1;
#X connect 8 0 7 0;
#X connect 8 0 26 0;
#X connect 10 0 11 0;
#X connect 11 0 6 0;
#X connect 12 0 2 0;
#X connect 12 1 1 0;
#X connect 12 2 13 0;
#X connect 13 0 3 0;
#X connect 14 0 15 0;
#X connect 15 0 23 0;
#X connect 16 0 14 0;
#X connect 18 0 9 0;
#X connect 18 1 19 0;
#X connect 19 0 27 0;
#X connect 22 0 12 0;
#X connect 24 0 0 1;
#X connect 25 0 4 0;
