#N canvas 586 0 638 389 10;
#X obj 22 52 t b b b;
#X msg 61 228;
#X obj 61 247 #fold max;
#X obj 61 266 #to_float;
#X msg 22 147 bang \, set;
#X msg 61 199 set list \$1;
#X obj 61 180 f;
#X obj 78 71 pack 0 s;
#X msg 78 90 \; \$1-doc_\$2_sub ping;
#X obj 22 19 inlet bang;
#X obj 501 44 inlet y;
#X obj 424 192 receives;
#X msg 424 211 add2 \$2;
#X msg 424 173 symbol \$1-doc_\$2;
#X obj 478 154 symbol \$1;
#X obj 424 154 pack 0 s;
#X obj 478 135 loadbang;
#X obj 61 285 outlet;
#X obj 132 71 symbol \$1;
#X obj 132 52 loadbang;
#X msg 333 156 list;
#X obj 78 52 float \$2;
#X obj 424 95 float \$2;
#X text 188 7 \$1=infix_id \; \$2=toplevel_\$0;
#X obj 287 24 inlet dollarzero;
#X connect 0 0 4 0;
#X connect 0 0 20 0;
#X connect 0 1 21 0;
#X connect 0 2 6 0;
#X connect 0 2 22 0;
#X connect 1 0 2 0;
#X connect 2 0 3 0;
#X connect 3 0 17 0;
#X connect 4 0 1 0;
#X connect 5 0 1 0;
#X connect 6 0 5 0;
#X connect 7 0 8 0;
#X connect 9 0 0 0;
#X connect 10 0 6 1;
#X connect 11 0 12 0;
#X connect 12 0 1 0;
#X connect 13 0 11 0;
#X connect 14 0 15 1;
#X connect 15 0 13 0;
#X connect 16 0 14 0;
#X connect 18 0 7 1;
#X connect 19 0 18 0;
#X connect 20 0 11 0;
#X connect 21 0 7 0;
#X connect 22 0 15 0;
#X connect 24 0 21 1;
#X connect 24 0 22 1;
