#N canvas 448 257 578 428 10;
#X obj 94 311 s;
#X msg 183 229 symbol pd-\$1;
#X obj 183 210 gf/canvas_filename 2;
#X obj 77 17 inlet y;
#X obj 11 17 inlet bang;
#X obj 94 273 pack 0 s;
#X obj 148 273 symbol \$1;
#X obj 148 254 loadbang;
#X msg 77 36 \$2;
#X obj 77 55 - 20;
#X msg 94 292 obj 100 \$1 doc_m \$2;
#X obj 47 345 gf/canvas_loadbang 2;
#X obj 47 91 t b b b b;
#X obj 114 92 gf/canvas_count 2;
#X obj 47 120 f;
#X obj 11 72 f;
#X obj 94 148 doc_bottom;
#X obj 255 88 symbol \$1;
#X obj 255 108 gf/string_replace c c/;
#X obj 255 128 gf/string_replace i i/;
#X obj 255 148 gf/string_replace o o/;
#X obj 228 30 loadbang;
#X obj 228 68 gf/canvas_dollarzero 2;
#X obj 228 49 t b b;
#X obj 228 172 pack 0 s;
#X msg 228 191 symbol \$1/\$2;
#X obj 11 91 t b b;
#X msg 11 211 last_activate;
#X obj 11 190 delay 444;
#X connect 1 0 0 1;
#X connect 2 0 1 0;
#X connect 3 0 8 0;
#X connect 4 0 15 0;
#X connect 5 0 10 0;
#X connect 6 0 5 1;
#X connect 7 0 6 0;
#X connect 8 0 9 0;
#X connect 9 0 15 1;
#X connect 10 0 0 0;
#X connect 12 0 14 0;
#X connect 12 1 16 0;
#X connect 12 2 2 0;
#X connect 12 3 13 0;
#X connect 13 0 14 1;
#X connect 14 0 11 0;
#X connect 15 0 26 0;
#X connect 16 0 5 0;
#X connect 17 0 18 0;
#X connect 18 0 19 0;
#X connect 19 0 20 0;
#X connect 20 0 24 1;
#X connect 21 0 23 0;
#X connect 22 0 24 0;
#X connect 23 0 22 0;
#X connect 23 1 17 0;
#X connect 24 0 25 0;
#X connect 25 0 16 1;
#X connect 26 0 28 0;
#X connect 26 1 12 0;
#X connect 28 0 27 0;
