#N canvas 0 0 450 300 10;
#X obj 11 262 outlet;
#X obj 55 106 inlet;
#X obj 55 87 outlet;
#X obj 202 0 loadbang;
#X obj 202 38 gf/canvas_dollarzero 2;
#X msg 202 95 symbol \$1/\$2;
#X obj 202 114 receives;
#X obj 202 57 t a a;
#X obj 202 19 t b b;
#X obj 256 76 symbol \$1;
#X obj 202 76 pack 0 s;
#X symbolatom 0 20 32 0 0 0 - - -;
#X obj 55 125 route2 name;
#X msg 55 144 symbol \$1;
#X obj 55 163 t b s;
#X connect 1 0 12 0;
#X connect 3 0 8 0;
#X connect 4 0 7 0;
#X connect 5 0 6 0;
#X connect 5 0 11 0;
#X connect 7 0 10 0;
#X connect 8 0 4 0;
#X connect 8 1 9 0;
#X connect 9 0 10 1;
#X connect 10 0 5 0;
#X connect 12 0 13 0;
#X connect 13 0 14 0;
#X connect 14 0 10 0;
#X connect 14 1 9 0;
#X coords 0 -1 1 1 200 60 1 0 0;
