#N canvas 50 44 572 627 10;
#X obj 3 3 cnv 15 544 18 empty \$0-rect ♯fade 2 9 1 13 -1 -262144
0;
#X obj 166 48 loadbang;
#X obj 135 57 bng 15 250 50 0 empty empty empty 17 7 0 10 -262144 -1
-1;
#X symbolatom 166 88 20 0 0 0 - - -;
#X msg 166 206 label \$1;
#X obj 166 226 s \$0-rect;
#X obj 166 68 gf/canvas_filename 1;
#X obj 166 107 gf/string_replace # ♯;
#X obj 166 186 gf/string_replace -help.pd;
#X obj 447 3 cnv 15 100 18 empty \$0-rect2 GridFlow 1.0 2 9 1 12
-1 -262144 0;
#X obj 166 127 gf/string_replace 0x40 @;
#X obj 166 147 gf/string_replace 0x2a *;
#X obj 166 167 gf/string_replace 0x2b +;
#X obj 391 52 doc_pos;
#X msg 447 52 0 0;
#X obj 394 153 receives;
#X obj 394 115 gf/canvas_dollarzero 1;
#X obj 394 88 bng 15 250 50 0 empty empty empty 17 7 0 10 -262144 -1
-1;
#X obj 411 87 loadbang;
#X msg 394 134 symbol \$1-doc_h;
#X obj 394 172 route redraw;
#X obj 420 248 gf/canvas_filename 1;
#X obj 420 229 loadbang;
#X obj 394 267 s;
#X msg 420 267 symbol pd-\$1;
#X msg 394 210 map 0 \, map 1;
#X obj 394 191 delay 50;
#X obj 257 442 #in;
#X msg 257 423 open x11 here \$1 \, bang;
#X obj 266 586 #out;
#X msg 306 541 open \$1;
#X obj 216 300 bng 15 250 50 0 empty empty empty 17 7 0 10 -262144
-1 -1;
#X obj 306 503 gf/canvas_filename 1;
#X obj 313 571 display;
#X obj 259 358 t b b;
#X obj 239 467 t a a;
#X obj 183 510 #finished;
#X obj 257 404 gf/canvas_xid 1;
#X obj 258 335 route bang float;
#X obj 304 373 delay;
#X obj 304 354 t b f;
#X obj 306 522 gf/string_replace -help.pd -help.ppm;
#X obj 257 314 r justscreenshot;
#X msg 183 529 close \; pd quit;
#X connect 1 0 6 0;
#X connect 2 0 6 0;
#X connect 3 0 7 0;
#X connect 4 0 5 0;
#X connect 6 0 3 0;
#X connect 7 0 10 0;
#X connect 8 0 4 0;
#X connect 10 0 11 0;
#X connect 11 0 12 0;
#X connect 12 0 8 0;
#X connect 13 1 14 0;
#X connect 14 0 13 1;
#X connect 15 0 20 0;
#X connect 16 0 19 0;
#X connect 17 0 16 0;
#X connect 18 0 16 0;
#X connect 19 0 15 0;
#X connect 20 0 26 0;
#X connect 21 0 24 0;
#X connect 22 0 21 0;
#X connect 24 0 23 1;
#X connect 25 0 23 0;
#X connect 26 0 25 0;
#X connect 27 0 35 0;
#X connect 28 0 27 0;
#X connect 30 0 29 0;
#X connect 30 0 33 0;
#X connect 31 0 38 0;
#X connect 32 0 41 0;
#X connect 34 0 37 0;
#X connect 34 1 32 0;
#X connect 35 0 36 0;
#X connect 35 1 29 0;
#X connect 36 0 43 0;
#X connect 37 0 28 0;
#X connect 38 0 34 0;
#X connect 38 1 40 0;
#X connect 39 0 34 0;
#X connect 40 0 39 0;
#X connect 40 1 39 1;
#X connect 41 0 30 0;
#X connect 42 0 38 0;
#X connect 43 0 29 0;
#X coords 0 -1 1 1 550 24 2 0 0;
