#N canvas 0 0 450 431 10;
#X obj 16 111 change 2;
#X obj 16 56 tgl 15 0 empty empty empty 17 7 0 10 -262144 -1 -1 1 1
;
#X obj 16 18 loadbang;
#X msg 16 37 1;
#X obj 52 149 + 20;
#X obj 52 130 * -20;
#X obj 16 130 t b a;
#X obj 16 225 t b b;
#X msg 43 263 symbol pd-\$1;
#X obj 16 301 s;
#X msg 16 282 map 0 \, map 1;
#X obj 16 92 gf/canvas_edit_mode 2;
#X obj 43 244 gf/canvas_filename 2;
#X obj 88 206 gf/canvas_dollarzero 1;
#X msg 88 225 symbol \$1-create;
#X obj 52 225 s;
#X obj 52 206 t a b;
#X obj 52 168 pack 0 \$1;
#X msg 52 187 pos \$2 \$1;
#X obj 16 73 metro 666;
#X connect 0 0 6 0;
#X connect 1 0 19 0;
#X connect 2 0 3 0;
#X connect 3 0 1 0;
#X connect 4 0 17 0;
#X connect 5 0 4 0;
#X connect 6 0 7 0;
#X connect 6 1 5 0;
#X connect 7 0 10 0;
#X connect 7 1 12 0;
#X connect 8 0 9 1;
#X connect 10 0 9 0;
#X connect 11 0 0 0;
#X connect 12 0 8 0;
#X connect 13 0 14 0;
#X connect 14 0 15 1;
#X connect 16 0 15 0;
#X connect 16 1 13 0;
#X connect 17 0 18 0;
#X connect 18 0 16 0;
#X connect 19 0 11 0;
