#N canvas 365 39 774 605 10;
#X obj 3 3 cnv 15 608 18 empty \$0-rect gf/string_0x3c 2 9 1 13 -1
-262144 0;
#X obj 6 28 loadbang;
#X obj 61 30 bng 15 250 50 0 empty empty empty 17 7 0 10 -262144 -1
-1;
#X obj 6 238 s \$0-rect;
#X obj 6 48 gf/canvas_filename 1;
#X obj 6 67 gf/string_replace # ♯;
#X obj 6 162 gf/string_replace -help.pd;
#X obj 501 3 cnv 15 100 18 empty \$0-rect2 GridFlow 9.9 2 9 1 12 -1
-262144 0;
#X obj 6 86 gf/string_replace 0x40 @;
#X obj 6 105 gf/string_replace 0x2a *;
#X obj 6 124 gf/string_replace 0x2b +;
#X msg 396 53 0 0;
#X obj 394 213 receives;
#X obj 394 175 gf/canvas_dollarzero 1;
#X obj 394 148 bng 15 250 50 0 empty empty empty 17 7 0 10 -262144
-1 -1;
#X obj 411 147 loadbang;
#X msg 394 194 symbol \$1-doc_h;
#X obj 394 232 route redraw;
#X obj 418 308 gf/canvas_filename 1;
#X obj 418 289 loadbang;
#X obj 394 327 s;
#X msg 418 327 symbol pd-\$1;
#X msg 394 270 map 0 \, map 1;
#X obj 394 251 delay 50;
#X obj 27 450 #in;
#X msg 27 431 open x11 here \$1 \, bang;
#X obj 87 507 #out;
#X obj 10 337 bng 15 250 50 0 empty empty empty 17 7 0 10 -262144 -1
-1;
#X obj 87 450 gf/canvas_filename 1;
#X obj 27 374 t b b;
#X obj 27 469 t a a;
#X obj 27 488 #finished;
#X obj 27 355 route bang float;
#X obj 73 393 delay;
#X obj 73 374 t b f;
#X obj 87 469 gf/string_replace -help.pd -help.ppm;
#X obj 27 336 r justscreenshot;
#X obj 27 507 t b b;
#X msg 54 526 \; shoot end;
#X msg 87 488 open png/\$1;
#X obj 27 412 gf/canvas_xid 1;
#X msg 27 393 bang;
#X obj 383 530 gf/canvas_hehehe 1;
#X obj 383 379 tgl 15 0 empty empty empty 17 7 0 10 -262144 -1 -1 1
1;
#X obj 383 359 loadbang;
#X obj 258 166 doc_exist c;
#X obj 175 109 loadbang;
#X msg 282 185 obj 0 0 doc_c;
#X obj 258 185 sel;
#X obj 242 223 sel;
#X obj 242 204 doc_exist i;
#X msg 266 223 obj 0 0 doc_i;
#X obj 226 261 sel;
#X msg 250 261 obj 0 0 doc_o;
#X obj 226 242 doc_exist o;
#X obj 211 299 sel;
#X obj 211 280 doc_exist f;
#X msg 235 299 obj 0 0 doc_f;
#X obj 175 147 t b b;
#X msg 383 435 0 0;
#X msg 383 473 \$2;
#X obj 383 454 doc_below f;
#X obj 283 147 gf/canvas_count 1;
#X obj 211 147 t b b b b b;
#X obj 175 318 gf/canvas_loadbang 1;
#X obj 175 197 f;
#X obj 432 70 gf/canvas_dollarzero 1;
#X obj 432 51 t b f;
#X obj 483 4 tgl 15 0 \$0-rollup \$0-nothing empty 17 7 0 10 -84017
-262144 -1 0 1;
#X msg 432 108 \; \$1-pullup \$2;
#X obj 432 89 pack f f;
#X obj 6 200 pack s s;
#X obj 6 181 t a b;
#X obj 51 181 symbol \$1;
#X msg 6 219 label \$2\$1;
#X obj 383 416 t b b;
#X obj 443 378 gf/canvas_dollarzero 1;
#X obj 428 416 s;
#X msg 443 397 symbol \$1-clock;
#X obj 443 359 loadbang;
#X obj 160 27 doc_layout h 582 24;
#X obj 383 511 min 642;
#N canvas 0 0 450 300 doc_anim 0;
#X obj -299 -149 t b b;
#X obj -299 -92 #in;
#X msg -299 -111 open x11 here \$1;
#X obj -299 -130 gf/canvas_xid 1;
#X msg -263 -149 open doc_anim.mov \, codec png;
#X msg -236 -71 close;
#X obj -251 -166 bng 15 250 50 0 empty empty empty 17 7 0 10 -262144
-1 -1;
#X obj -263 -48 #out;
#X obj -236 -166 bng 15 250 50 0 empty empty empty 17 7 0 10 -262144
-1 -1;
#X connect 0 0 3 0;
#X connect 0 1 4 0;
#X connect 1 0 7 0;
#X connect 2 0 1 0;
#X connect 3 0 2 0;
#X connect 4 0 7 0;
#X connect 5 0 7 0;
#X connect 6 0 0 0;
#X connect 8 0 5 0;
#X restore 523 39 pd doc_anim;
#X obj 432 32 r \$0-rollup;
#X obj 175 128 delay 500;
#X text 235 106 delay here is because of;
#X text 235 130 [gf/canvas_loadbang] bug;
#X text 235 118 [loadbang] order \, not the former;
#X obj 575 146 loadbang;
#X obj 575 184 gridflow;
#X msg 575 165 get version;
#X obj 602 291 s \$0-rect2;
#X msg 602 241 label GridFlow \$1.\$2;
#X msg 611 203 \$3;
#X obj 575 222 shunt;
#X msg 575 260 label GridFlow \$1.\$2.\$3;
#X obj 575 203 t a a;
#X obj 611 222 ==;
#X obj 605 526 nbx 5 14 -1e+37 1e+37 0 0 empty \$0-cputime empty 0
-8 0 8 -84017 -262144 -1 2.99776 256;
#X obj 638 351 loadbang;
#X obj 605 430 cputime;
#X obj 620 449 realtime;
#X obj 620 398 t b b b;
#X obj 605 468 /;
#X obj 620 354 tgl 15 0 empty empty empty 17 7 0 10 -262144 -1 -1 1
1;
#X obj 605 487 * 100;
#X obj 605 506 s \$0-cputime;
#X obj 620 371 metro 2000;
#X obj 383 397 metro 400;
#X obj 477 51 * 16;
#X obj 383 492 + 10;
#X obj 6 143 gf/string_replace 0x3c <;
#X connect 1 0 4 0;
#X connect 2 0 4 0;
#X connect 4 0 5 0;
#X connect 5 0 8 0;
#X connect 6 0 72 0;
#X connect 8 0 9 0;
#X connect 9 0 10 0;
#X connect 10 0 111 0;
#X connect 11 0 80 1;
#X connect 12 0 17 0;
#X connect 13 0 16 0;
#X connect 14 0 13 0;
#X connect 15 0 13 0;
#X connect 16 0 12 0;
#X connect 17 0 23 0;
#X connect 18 0 21 0;
#X connect 19 0 18 0;
#X connect 21 0 20 1;
#X connect 22 0 20 0;
#X connect 23 0 22 0;
#X connect 24 0 30 0;
#X connect 25 0 24 0;
#X connect 27 0 32 0;
#X connect 28 0 35 0;
#X connect 29 0 41 0;
#X connect 29 1 28 0;
#X connect 30 0 31 0;
#X connect 30 1 26 0;
#X connect 31 0 37 0;
#X connect 32 0 29 0;
#X connect 32 1 34 0;
#X connect 33 0 29 0;
#X connect 34 0 33 0;
#X connect 34 1 33 1;
#X connect 35 0 39 0;
#X connect 36 0 32 0;
#X connect 37 1 38 0;
#X connect 39 0 26 0;
#X connect 40 0 25 0;
#X connect 41 0 40 0;
#X connect 43 0 108 0;
#X connect 44 0 43 0;
#X connect 45 0 48 0;
#X connect 46 0 84 0;
#X connect 47 0 20 0;
#X connect 48 0 47 0;
#X connect 49 0 51 0;
#X connect 50 0 49 0;
#X connect 51 0 20 0;
#X connect 52 0 53 0;
#X connect 53 0 20 0;
#X connect 54 0 52 0;
#X connect 55 0 57 0;
#X connect 56 0 55 0;
#X connect 57 0 20 0;
#X connect 58 0 65 0;
#X connect 58 1 63 0;
#X connect 59 0 61 0;
#X connect 60 0 110 0;
#X connect 61 0 60 0;
#X connect 62 0 65 1;
#X connect 63 0 56 0;
#X connect 63 1 54 0;
#X connect 63 2 50 0;
#X connect 63 3 45 0;
#X connect 63 4 62 0;
#X connect 65 0 64 0;
#X connect 66 0 70 0;
#X connect 67 0 66 0;
#X connect 67 1 109 0;
#X connect 70 0 69 0;
#X connect 71 0 74 0;
#X connect 72 0 71 0;
#X connect 72 1 73 0;
#X connect 73 0 71 1;
#X connect 74 0 3 0;
#X connect 75 0 59 0;
#X connect 75 1 77 0;
#X connect 76 0 78 0;
#X connect 78 0 77 1;
#X connect 79 0 76 0;
#X connect 80 2 11 0;
#X connect 81 0 42 0;
#X connect 83 0 67 0;
#X connect 84 0 58 0;
#X connect 88 0 90 0;
#X connect 89 0 96 0;
#X connect 90 0 89 0;
#X connect 92 0 91 0;
#X connect 93 0 97 0;
#X connect 94 0 95 0;
#X connect 94 1 92 0;
#X connect 95 0 91 0;
#X connect 96 0 94 0;
#X connect 96 1 93 0;
#X connect 97 0 94 1;
#X connect 100 0 103 0;
#X connect 101 0 103 1;
#X connect 102 0 100 0;
#X connect 102 0 101 0;
#X connect 102 1 100 1;
#X connect 102 2 101 1;
#X connect 103 0 105 0;
#X connect 104 0 107 0;
#X connect 105 0 106 0;
#X connect 107 0 102 0;
#X connect 108 0 75 0;
#X connect 109 0 70 1;
#X connect 110 0 81 0;
#X connect 111 0 6 0;
#X coords 0 -1 1 1 614 24 2 0 0;
