#N canvas 49 157 658 459 10;
#X obj 0 0 cnv 15 92 17 empty \$0-rect See also: 35 9 1 9 -88239
-262144 0;
#X obj 409 156 gf/canvas_setpos 0;
#X obj 409 41 loadbang;
#X obj 409 79 tgl 15 0 empty empty empty 17 7 0 10 -262144 -1 -1 1
1;
#X obj 409 116 gf/canvas_getpos 0;
#X msg 409 136 3 \$2;
#X msg 409 60 1;
#X obj 409 96 metro 400;
#X obj 212 49 doc_below o 1 10;
#X obj 25 263 outlet dummy;
#X obj 168 263 outlet to_child_nodes;
#X obj 0 27 doc_layout s 92 20;
#X obj 327 383 gf/lol 1;
#X obj 327 175 loadbang;
#X obj 327 249 metro 666;
#X obj 327 232 tgl 15 0 empty empty empty 17 7 0 10 -262144 -1 -1 1
1;
#X obj 327 307 gf/canvas_edit_mode 1;
#X obj 327 326 sel 0 1;
#X msg 327 364 wire_hide;
#X msg 346 345 wire_dotted 255 170 0 \, box_dotted 255 170 0;
#X msg 327 213 1;
#X obj 327 288 t b b;
#X obj 442 212 gf/canvas_getpos 0;
#X obj 327 194 delay 2222;
#X obj 442 231 unpack f f;
#X obj 442 269 pack f f;
#X obj 442 250 + 100;
#X obj 18 0 bng 15 250 50 0 empty empty empty 17 7 0 10 -262144 -1
-1;
#X msg 442 288 box_align y \$1 \$2 8;
#X connect 2 0 6 0;
#X connect 3 0 7 0;
#X connect 4 0 5 0;
#X connect 5 0 1 0;
#X connect 6 0 3 0;
#X connect 7 0 4 0;
#X connect 8 0 11 1;
#X connect 11 2 8 0;
#X connect 13 0 23 0;
#X connect 15 0 14 0;
#X connect 16 0 17 0;
#X connect 17 0 18 0;
#X connect 17 1 19 0;
#X connect 18 0 12 0;
#X connect 19 0 12 0;
#X connect 20 0 15 0;
#X connect 21 0 16 0;
#X connect 21 1 22 0;
#X connect 22 0 24 0;
#X connect 23 0 20 0;
#X connect 24 0 26 0;
#X connect 24 1 25 1;
#X connect 25 0 28 0;
#X connect 26 0 25 0;
#X connect 27 0 21 0;
#X connect 28 0 12 0;
#X coords 0 -1 1 1 92 16 2 0 0;
