#N canvas 0 0 450 300 10;
#X obj 11 12 loadbang;
#X obj 11 141 outlet;
#X obj 65 58 float \$2;
#X obj 11 103 pack 0 0;
#X obj 11 60 float \$1;
#X msg 11 122 label_font \$1 \$2;
#X obj 156 67 gridflow;
#X msg 156 48 get os;
#X obj 156 86 route os;
#X obj 156 105 route win32 darwin;
#X msg 156 136 1.332;
#X obj 65 77 * 1;
#X obj 11 31 t b b b;
#X connect 0 0 12 0;
#X connect 2 0 11 0;
#X connect 3 0 5 0;
#X connect 4 0 3 0;
#X connect 5 0 1 0;
#X connect 6 0 8 0;
#X connect 7 0 6 0;
#X connect 8 0 9 0;
#X connect 9 0 10 0;
#X connect 9 1 10 0;
#X connect 10 0 11 1;
#X connect 11 0 3 1;
#X connect 12 0 4 0;
#X connect 12 1 2 0;
#X connect 12 2 7 0;
