#N canvas 326 154 521 300 10;
#X obj 11 12 loadbang;
#X obj 11 153 outlet;
#X obj 65 58 float \$2;
#X obj 11 115 pack 0 0;
#X obj 11 60 float \$1;
#X msg 11 134 label_font \$1 \$2;
#X obj 156 67 gridflow;
#X msg 156 48 get os;
#X obj 156 86 route os;
#X obj 156 105 route win32 darwin;
#X obj 11 31 t b b b;
#X obj 261 143 gridflow;
#X msg 261 124 get pd_version;
#X obj 261 181 moses 43;
#X msg 261 162 \$2;
#X obj 65 96 + 0.5;
#X obj 65 115 i;
#X obj 65 77 / 1;
#X msg 261 200 1.332;
#X connect 0 0 10 0;
#X connect 2 0 17 0;
#X connect 3 0 5 0;
#X connect 4 0 3 0;
#X connect 5 0 1 0;
#X connect 6 0 8 0;
#X connect 7 0 6 0;
#X connect 8 0 9 0;
#X connect 9 2 12 0;
#X connect 10 0 4 0;
#X connect 10 1 2 0;
#X connect 10 2 7 0;
#X connect 11 0 14 0;
#X connect 12 0 11 0;
#X connect 13 0 18 0;
#X connect 14 0 13 0;
#X connect 15 0 16 0;
#X connect 16 0 3 1;
#X connect 17 0 15 0;
#X connect 18 0 17 1;
