#N canvas 252 150 993 567 10;
#X obj 6 368 outlet;
#X obj 5 106 inlet;
#X obj 5 87 outlet;
#X obj 202 0 loadbang;
#X obj 202 38 gf/canvas_dollarzero 2;
#X msg 202 95 symbol \$1/\$2;
#X obj 202 114 receives;
#X obj 202 19 t b b;
#X obj 256 76 symbol \$1;
#X obj 202 76 pack 0 s;
#X symbolatom 0 18 32 0 0 0 - - -;
#X msg 5 144 symbol \$1;
#X obj 5 163 t b s;
#X obj 408 171 inlet;
#X obj 408 152 outlet;
#X obj 408 0 loadbang;
#X obj 408 39 tgl 15 0 empty empty empty 17 7 0 10 -262144 -1 -1 1
1;
#X obj 408 209 #to_list;
#X obj 408 190 #change -99999;
#X obj 408 228 gf/canvas_setpos 1;
#X obj 408 75 gf/canvas_getpos 1;
#X obj 408 133 t a a;
#X floatatom 44 52 5 0 0 0 - - -;
#X floatatom 84 52 5 0 0 0 - - -;
#X floatatom 124 52 5 0 0 0 - - -;
#X floatatom 164 52 5 0 0 0 - - -;
#X obj 44 0 unpack;
#X obj 97 74 + \$3;
#X obj 409 539 gf/canvas_hohoho 2;
#X obj 243 238 #pack 4;
#X obj 243 276 #to_list;
#X obj 67 74 + \$2;
#X obj 152 390 list;
#X obj 75 462 l2s;
#X obj 75 481 gf.error unknown message '%s';
#X obj 152 448 s;
#X obj 152 251 t b a;
#X obj 202 133 route2 getbounds ping;
#X msg 263 152 symbol \$1;
#X obj 280 372 t b a;
#X msg 408 20 1;
#X obj 253 257 #change (4 # -99999);
#X msg 202 152 list \$1 \$2;
#X obj 202 171 unpack s f;
#X obj 408 348 receives;
#X obj 408 405 s;
#X obj 408 367 t b s;
#X obj 408 386 symbol;
#X obj 152 270 shunt;
#X obj 152 429 t a;
#X obj 564 436 unpack f f f f;
#X obj 566 456 pack f f f f;
#X obj 408 251 loadbang;
#X obj 182 394 list;
#X obj 409 501 spigot 1;
#X text 3 350 (dummy);
#X obj 409 520 list;
#X obj 409 465 tgl 15 0 empty empty empty 17 7 0 10 -262144 -1 -1 1
1;
#X obj 409 427 loadbang;
#X msg 409 446 1;
#X obj 645 455 doc_bottom;
#X obj 408 309 pack 0 s;
#X obj 462 309 symbol \$4;
#X obj 468 270 t b s;
#X msg 468 251 symbol \$1;
#X obj 408 270 t b b;
#X obj 408 290 gf/canvas_dollarzero 2;
#X msg 408 329 symbol \$1/\$2/foreach_child;
#X msg 9 201 float \$1;
#X obj 10 220 t b f;
#X obj 123 305 t b b;
#X obj 138 327 gf/canvas_getpos 1;
#X obj 137 350 unpack f f;
#X obj 408 94 unpack f f;
#X obj 408 113 pack f f;
#X obj 409 482 metro 500;
#X obj 408 56 metro 500;
#X obj 465 113 -;
#X obj 5 125 route2 name parent height;
#X obj 522 113 receives;
#X obj 522 56 loadbang;
#X msg 522 94 symbol \$1-pullup;
#X obj 522 132 shunt 2 \$5;
#X text 589 132 avoid pullup for c;
#X obj 522 75 gf/canvas_dollarzero 2;
#X connect 1 0 78 0;
#X connect 3 0 7 0;
#X connect 4 0 9 0;
#X connect 5 0 6 0;
#X connect 5 0 10 0;
#X connect 5 0 47 1;
#X connect 5 0 60 1;
#X connect 6 0 37 0;
#X connect 7 0 4 0;
#X connect 7 1 8 0;
#X connect 8 0 9 1;
#X connect 9 0 5 0;
#X connect 11 0 12 0;
#X connect 12 0 9 0;
#X connect 12 1 8 0;
#X connect 13 0 18 0;
#X connect 15 0 40 0;
#X connect 16 0 76 0;
#X connect 17 0 19 0;
#X connect 18 0 17 0;
#X connect 20 0 26 0;
#X connect 20 0 73 0;
#X connect 21 0 14 0;
#X connect 21 1 18 0;
#X connect 22 0 29 0;
#X connect 22 0 31 0;
#X connect 23 0 27 0;
#X connect 23 0 29 1;
#X connect 24 0 29 2;
#X connect 25 0 29 3;
#X connect 26 0 22 0;
#X connect 26 1 23 0;
#X connect 27 0 25 0;
#X connect 29 0 30 0;
#X connect 30 0 32 1;
#X connect 30 0 50 0;
#X connect 31 0 24 0;
#X connect 32 0 49 0;
#X connect 33 0 34 0;
#X connect 36 0 48 0;
#X connect 36 1 35 1;
#X connect 37 0 42 0;
#X connect 37 1 38 0;
#X connect 38 0 39 0;
#X connect 39 0 35 0;
#X connect 39 1 35 1;
#X connect 40 0 16 0;
#X connect 41 0 30 0;
#X connect 42 0 43 0;
#X connect 43 0 36 0;
#X connect 43 1 48 1;
#X connect 44 0 46 0;
#X connect 46 0 47 0;
#X connect 46 1 45 1;
#X connect 47 0 45 0;
#X connect 48 0 70 0;
#X connect 48 1 53 0;
#X connect 49 0 35 0;
#X connect 50 0 51 0;
#X connect 50 1 51 1;
#X connect 50 2 51 2;
#X connect 50 3 60 0;
#X connect 51 0 53 1;
#X connect 51 0 56 1;
#X connect 52 0 65 0;
#X connect 53 0 49 0;
#X connect 54 0 56 0;
#X connect 56 0 28 0;
#X connect 57 0 75 0;
#X connect 58 0 59 0;
#X connect 59 0 57 0;
#X connect 60 0 51 3;
#X connect 61 0 67 0;
#X connect 62 0 61 1;
#X connect 63 0 61 0;
#X connect 63 1 62 0;
#X connect 64 0 63 0;
#X connect 65 0 66 0;
#X connect 65 1 62 0;
#X connect 66 0 61 0;
#X connect 67 0 44 0;
#X connect 68 0 69 0;
#X connect 69 0 27 0;
#X connect 69 1 27 1;
#X connect 70 0 32 0;
#X connect 70 1 71 0;
#X connect 71 0 72 0;
#X connect 72 0 29 0;
#X connect 72 1 29 1;
#X connect 73 0 74 0;
#X connect 73 1 77 0;
#X connect 74 0 21 0;
#X connect 75 0 54 0;
#X connect 76 0 20 0;
#X connect 77 0 74 1;
#X connect 78 0 11 0;
#X connect 78 1 64 0;
#X connect 78 2 68 0;
#X connect 78 3 33 0;
#X connect 79 0 82 0;
#X connect 80 0 84 0;
#X connect 81 0 79 0;
#X connect 82 0 77 1;
#X connect 84 0 81 0;
#X coords 0 -1 1 1 200 69 1 0 0;
