#N canvas 129 127 577 334 10;
#X obj 18 113 loadbang;
#X obj 28 199 s \$0-rect;
#X msg 28 180 label \$1;
#X obj 28 161 gf/string_replace # ♯;
#X obj 18 132 symbol \$1;
#X obj 18 224 gf/string_length;
#X obj 18 243 * 6;
#X obj 18 281 s \$0-souligne;
#X obj 0 112 bng 15 250 50 0 empty empty empty 17 7 0 10 -262144 -1
-1;
#X obj 3 0 hsl 115 18 0 127 0 0 \$0-hsl_s \$0-hsl empty -2 -8 0 10
-262144 -1 -1 5200 0;
#X obj 0 0 cnv 5 120 18 empty \$0-rect ♯io.dc1394 2 10 0 8 -257983
-49 0;
#X obj 2 16 cnv 1 60 1 empty \$0-souligne empty 20 12 0 14 -49 -33
0;
#X obj 2 17 cnv 1 60 1 empty \$0-souligne empty 20 12 0 14 -262144
-33 0;
#X msg 19 262 vis_size \$1 1;
#X obj 96 126 s \$0-hsl;
#X obj 176 6 r \$0-hsl_s;
#X obj 107 282 s \$0-rect;
#X obj 255 262 s pd;
#X obj 255 61 symbol \$1-help.pd;
#X obj 255 110 gf/find_file 1;
#X obj 176 84 delay 1000;
#X msg 182 64 0;
#X msg 176 103 1;
#X obj 15 33 inlet dummy;
#X obj 176 25 b;
#X obj 255 129 s2l /;
#X obj 255 148 t l l;
#X obj 312 129 list length;
#X obj 312 148 - 1;
#X obj 255 167 list split;
#X obj 255 186 l2s /;
#X msg 255 205 symbol /\$1;
#X obj 255 224 pack s s;
#X msg 255 243 open \$2 \$1;
#X obj 176 44 spigot 1;
#X msg 107 262 size 5 \, vis_size 120 18;
#X msg 96 107 pos 3 0;
#X obj 384 146 gf.error file not found: '%s';
#X obj 384 127 symbol;
#X obj 255 80 t s s;
#X connect 0 0 4 0;
#X connect 2 0 1 0;
#X connect 3 0 2 0;
#X connect 4 0 3 0;
#X connect 4 0 5 0;
#X connect 5 0 6 0;
#X connect 6 0 13 0;
#X connect 8 0 4 0;
#X connect 13 0 7 0;
#X connect 15 0 24 0;
#X connect 18 0 39 0;
#X connect 19 0 25 0;
#X connect 19 1 38 0;
#X connect 20 0 22 0;
#X connect 21 0 34 1;
#X connect 22 0 34 1;
#X connect 24 0 34 0;
#X connect 25 0 26 0;
#X connect 26 0 29 0;
#X connect 26 1 27 0;
#X connect 27 0 28 0;
#X connect 28 0 29 1;
#X connect 29 0 30 0;
#X connect 29 1 32 1;
#X connect 30 0 31 0;
#X connect 31 0 32 0;
#X connect 32 0 33 0;
#X connect 33 0 17 0;
#X connect 34 0 18 0;
#X connect 34 0 20 0;
#X connect 34 0 21 0;
#X connect 35 0 16 0;
#X connect 36 0 14 0;
#X connect 38 0 37 0;
#X connect 39 0 19 0;
#X connect 39 1 38 1;
#X coords 0 -1 1 1 120 18 2 0 0;
