#N canvas 434 167 794 411 10;
#X obj 18 113 loadbang;
#X obj 28 199 s \$0-rect;
#X msg 28 180 label \$1;
#X obj 28 161 gf/string_replace # ♯;
#X obj 18 132 symbol \$1;
#X obj 18 224 gf/string_length;
#X obj 18 243 * 6;
#X obj 17 301 s \$0-souligne;
#X obj 0 112 bng 15 250 50 0 empty empty empty 17 7 0 10 -262144 -1
-1;
#X obj 3 0 hsl 53 18 0 127 0 0 \$0-hsl_s \$0-hsl empty -2 -8 0 10 -262144
-1 -1 0 0;
#X obj 0 0 cnv 5 58 18 empty \$0-rect ♯layer 20 10 0 8 -249661 -64
0;
#X obj 21 16 cnv 1 36 1 empty \$0-souligne empty 20 12 0 14 -64 -33
0;
#X obj 21 17 cnv 1 36 1 empty \$0-souligne empty 20 12 0 14 -262144
-33 0;
#X msg 18 282 vis_size \$1 1;
#X obj 170 300 s \$0-hsl;
#X obj 186 6 r \$0-hsl_s;
#X obj 45 339 s \$0-rect;
#X obj 255 342 s pd;
#X obj 255 61 symbol \$1-help.pd;
#X obj 255 190 gf/find_file 1;
#X obj 186 84 delay 1000;
#X msg 192 64 0;
#X msg 186 103 1;
#X obj 18 94 inlet dummy;
#X obj 186 25 b;
#X obj 255 209 s2l /;
#X obj 255 228 t l l;
#X obj 312 209 list length;
#X obj 312 228 - 1;
#X obj 255 247 list split;
#X obj 255 266 l2s /;
#X msg 255 285 symbol /\$1;
#X obj 255 304 pack s s;
#X msg 255 323 open \$2 \$1;
#X obj 186 44 spigot 1;
#X msg 170 281 pos 3 0;
#X obj 384 226 gf.error file not found: '%s';
#X obj 384 207 symbol;
#X obj 255 80 t s s;
#X obj 581 196 s \$0-rect;
#X obj 581 158 #to_iem;
#X msg 581 177 color \$1 \$2;
#X obj 266 8 t b b b;
#X obj 513 62 delay 1000;
#X obj 255 42 delay 100;
#X text 314 41 c'est laite.;
#X msg 590 47 255 255 0;
#X msg 513 81 240 240 240;
#X msg 581 139 2 3 # \$1 \$2 \$3 0 0 255;
#X obj 363 99 gridflow;
#X msg 363 80 get folder;
#X obj 363 61 loadbang;
#X obj 255 135 pack s s;
#X msg 255 155 symbol \$2/doc/flow_classes/\$1;
#X msg 363 118 symbol \$1;
#X obj 405 315 namecanvas \$0-canvas;
#X obj 459 296 s \$0-canvas;
#X msg 45 320 size 5 \, vis_size \$1 18;
#X obj 89 257 - 5;
#X msg 128 254 size \$1 18;
#X obj 9 9 image /home/matju/src/gridflow/images/help.gif;
#X obj 60 4 loadbang;
#X obj 45 260 + 22;
#X msg 104 301 pos 44 44;
#X msg -4 76 size 8 8 \, open \$1/images/help.gif;
#X msg 60 23 get folder;
#X obj 60 42 gridflow;
#X msg 459 277 map 0 \, coords 0 1 2 3 \$1 18 3 0 0 \, map 1;
#X connect 0 0 4 0;
#X connect 2 0 1 0;
#X connect 3 0 2 0;
#X connect 4 0 3 0;
#X connect 4 0 5 0;
#X connect 5 0 6 0;
#X connect 6 0 13 0;
#X connect 6 0 62 0;
#X connect 8 0 4 0;
#X connect 13 0 7 0;
#X connect 15 0 24 0;
#X connect 18 0 38 0;
#X connect 19 0 25 0;
#X connect 19 1 37 0;
#X connect 20 0 22 0;
#X connect 21 0 34 1;
#X connect 22 0 34 1;
#X connect 24 0 34 0;
#X connect 25 0 26 0;
#X connect 26 0 29 0;
#X connect 26 1 27 0;
#X connect 27 0 28 0;
#X connect 28 0 29 1;
#X connect 29 0 30 0;
#X connect 29 1 32 1;
#X connect 30 0 31 0;
#X connect 31 0 32 0;
#X connect 32 0 33 0;
#X connect 33 0 17 0;
#X connect 34 0 20 0;
#X connect 34 0 21 0;
#X connect 34 0 42 0;
#X connect 35 0 14 0;
#X connect 37 0 36 0;
#X connect 38 0 52 0;
#X connect 38 1 37 1;
#X connect 40 0 41 0;
#X connect 41 0 39 0;
#X connect 42 0 43 0;
#X connect 42 1 44 0;
#X connect 42 2 46 0;
#X connect 43 0 47 0;
#X connect 44 0 18 0;
#X connect 46 0 48 0;
#X connect 47 0 48 0;
#X connect 48 0 40 0;
#X connect 49 0 54 0;
#X connect 50 0 49 0;
#X connect 51 0 50 0;
#X connect 52 0 53 0;
#X connect 53 0 19 0;
#X connect 54 0 52 1;
#X connect 57 0 16 0;
#X connect 58 0 59 0;
#X connect 59 0 14 0;
#X connect 61 0 65 0;
#X connect 62 0 67 0;
#X connect 62 0 57 0;
#X connect 62 0 58 0;
#X connect 63 0 7 0;
#X connect 64 0 60 0;
#X connect 65 0 66 0;
#X connect 66 0 64 0;
#X connect 67 0 56 0;
#X coords 0 1 2 3 58 18 2 0 0;
