#N canvas 0 0 671 431 10;
#X obj 12 157 doc_pos;
#X msg 76 158 100 \$2;
#X obj 0 0 cnv 15 80 16 \$0-rect_s \$0-rect ... 4 8 1 9 -261615 -1
0;
#X obj 12 128 s \$0-rect;
#X obj 12 29 loadbang;
#X obj 74 28 bng 15 250 50 0 empty empty empty 17 7 0 10 -262144 -1
-1;
#X obj 170 50 gf/canvas_dollarzero 1;
#X obj 170 3 bng 15 250 50 0 empty empty empty 17 7 0 10 -262144 -1
-1;
#X obj 187 2 loadbang;
#X obj 170 145 receives;
#X obj 170 31 t b b;
#X obj 215 31 symbol \$1;
#X obj 170 69 pack 0 s;
#X obj 170 202 gf/canvas_getpos 0;
#X msg 170 88 symbol \$1-doc_\$2;
#X obj 170 107 t a a;
#X msg 170 126 symbol \$1_sub;
#X obj 170 221 s;
#X obj 170 164 route ping;
#X obj 170 183 b;
#X msg 12 108 label \$1;
#X obj 12 48 args id (type a ...);
#X obj 370 373 gf/canvas_setgop 0;
#X obj 351 125 tgl 15 0 empty empty empty 17 7 0 10 -262144 -1 -1 0
1;
#X obj 351 161 gf/canvas_edit_mode 1;
#X obj 351 142 metro 1000;
#X obj 351 87 loadbang;
#X obj 370 254 sel 0 1;
#X msg 389 273 0;
#X obj 370 335 delay 0;
#X obj 370 316 t b f;
#X obj 370 354 f;
#X obj 518 362 gf/canvas_filename 1;
#X obj 518 343 loadbang;
#X msg 518 381 symbol pd-\$1;
#X obj 500 335 bng 15 250 50 0 empty empty empty 17 7 0 10 -262144
-1 -1;
#X obj 503 400 s;
#X msg 483 296 map 0;
#X obj 351 209 t b f b;
#X msg 493 276 map 1;
#X msg 370 292 3;
#X obj 351 189 change -666;
#X msg 351 106 0;
#X connect 0 1 1 0;
#X connect 1 0 0 1;
#X connect 4 0 21 0;
#X connect 5 0 21 0;
#X connect 6 0 12 0;
#X connect 7 0 10 0;
#X connect 8 0 10 0;
#X connect 9 0 18 0;
#X connect 10 0 6 0;
#X connect 10 1 11 0;
#X connect 11 0 12 1;
#X connect 12 0 14 0;
#X connect 13 0 17 0;
#X connect 14 0 15 0;
#X connect 15 0 16 0;
#X connect 15 1 17 1;
#X connect 16 0 9 0;
#X connect 18 0 19 0;
#X connect 19 0 13 0;
#X connect 20 0 3 0;
#X connect 21 1 20 0;
#X connect 23 0 25 0;
#X connect 24 0 41 0;
#X connect 25 0 24 0;
#X connect 26 0 42 0;
#X connect 27 0 40 0;
#X connect 27 1 28 0;
#X connect 28 0 30 0;
#X connect 29 0 31 0;
#X connect 30 0 29 0;
#X connect 30 1 31 1;
#X connect 31 0 22 0;
#X connect 32 0 34 0;
#X connect 33 0 32 0;
#X connect 34 0 36 1;
#X connect 35 0 32 0;
#X connect 37 0 36 0;
#X connect 38 1 27 0;
#X connect 39 0 36 0;
#X connect 40 0 30 0;
#X connect 41 0 38 0;
#X connect 42 0 23 0;
#X coords 0 0 1 1 80 16 0;
