#N canvas 267 202 625 418 10;
#X obj 6 368 outlet;
#X obj 5 106 inlet;
#X obj 5 87 outlet;
#X obj 202 0 loadbang;
#X obj 202 38 gf/canvas_dollarzero 2;
#X msg 202 95 symbol \$1/\$2;
#X obj 202 114 receives;
#X obj 202 19 t b b;
#X obj 256 76 symbol \$1;
#X obj 202 76 pack 0 s;
#X symbolatom 0 18 32 0 0 0 - - -;
#X msg 5 144 symbol \$1;
#X obj 5 163 t b s;
#X obj 408 141 inlet;
#X obj 408 122 outlet;
#X obj 408 9 loadbang;
#X obj 408 48 tgl 15 0 empty empty empty 17 7 0 10 -262144 -1 -1 1
1;
#X obj 408 65 metro 666;
#X obj 408 179 #to_list;
#X obj 408 160 #change -99999;
#X obj 408 198 gf/canvas_setpos 1;
#X obj 408 84 gf/canvas_getpos 1;
#X obj 408 103 t a a;
#X floatatom 44 52 5 0 0 0 - - -;
#X floatatom 84 52 5 0 0 0 - - -;
#X floatatom 124 52 5 0 0 0 - - -;
#X floatatom 164 52 5 0 0 0 - - -;
#X obj 44 0 unpack;
#X obj 97 74 + \$3;
#X obj 243 299 gf/canvas_hohoho 2;
#X obj 243 238 #pack 4;
#X obj 243 276 #to_list;
#X msg 23 203 symbol \$1;
#X obj 67 74 + \$2;
#X obj 192 289 list;
#X obj 75 342 l2s;
#X obj 75 361 gf.error unknown message '%s';
#X obj 192 308 s;
#X obj 192 270 t b a;
#X obj 202 133 route2 getbounds ping;
#X msg 263 152 symbol \$1;
#X obj 280 372 t b a;
#X msg 408 29 1;
#X obj 243 257 #change (4 # -99999);
#X msg 202 152 list \$1 \$2;
#X obj 202 171 unpack s f;
#X obj 5 125 route2 name parent;
#X obj 443 308 receives;
#X msg 443 289 symbol \$1/foreach_child;
#X obj 443 365 s;
#X obj 443 327 t b s;
#X obj 443 346 symbol;
#X connect 1 0 46 0;
#X connect 3 0 7 0;
#X connect 4 0 9 0;
#X connect 5 0 6 0;
#X connect 5 0 10 0;
#X connect 5 0 51 1;
#X connect 6 0 39 0;
#X connect 7 0 4 0;
#X connect 7 1 8 0;
#X connect 8 0 9 1;
#X connect 9 0 5 0;
#X connect 11 0 12 0;
#X connect 12 0 9 0;
#X connect 12 1 8 0;
#X connect 13 0 19 0;
#X connect 15 0 42 0;
#X connect 16 0 17 0;
#X connect 17 0 21 0;
#X connect 18 0 20 0;
#X connect 19 0 18 0;
#X connect 21 0 22 0;
#X connect 21 0 27 0;
#X connect 22 0 14 0;
#X connect 22 1 19 0;
#X connect 23 0 30 0;
#X connect 23 0 33 0;
#X connect 24 0 28 0;
#X connect 24 0 30 1;
#X connect 25 0 30 2;
#X connect 26 0 30 3;
#X connect 27 0 23 0;
#X connect 27 1 24 0;
#X connect 28 0 26 0;
#X connect 30 0 43 0;
#X connect 31 0 34 1;
#X connect 31 0 29 0;
#X connect 33 0 25 0;
#X connect 34 0 37 0;
#X connect 35 0 36 0;
#X connect 38 0 34 0;
#X connect 38 1 37 1;
#X connect 39 0 44 0;
#X connect 39 1 40 0;
#X connect 40 0 41 0;
#X connect 41 0 37 0;
#X connect 41 1 37 1;
#X connect 42 0 16 0;
#X connect 43 0 31 0;
#X connect 44 0 45 0;
#X connect 45 0 38 0;
#X connect 46 0 11 0;
#X connect 46 1 32 0;
#X connect 46 1 48 0;
#X connect 46 2 35 0;
#X connect 47 0 50 0;
#X connect 48 0 47 0;
#X connect 50 0 51 0;
#X connect 50 1 49 1;
#X connect 51 0 49 0;
#X coords 0 -1 1 1 200 69 1 0 0;
