#N canvas 560 0 660 383 10;
#X obj 18 11 inlet;
#X obj 113 282 outlet;
#X obj 18 30 route bang detailed mode;
#X obj 129 137 t a;
#X obj 48 137 listprepend;
#X text 290 101 we need a [usertime] and a [systime];
#X text 290 121 we need something to compute medians and quantiles
;
#X text 290 142 we need something to compute averages and deviations
;
#X obj 18 161 +;
#X obj 43 161 t a;
#X obj 18 180 moses 1000;
#X obj 18 85 t a a b;
#X msg 71 86 1;
#X obj 71 105 +;
#X obj 96 105 t a;
#X obj 113 237 inv*;
#X obj 113 218 / 1000;
#X obj 83 199 t b a;
#X msg 83 218 0;
#X obj 126 49 symbol;
#N canvas 173 324 450 300 timer 0;
#X obj 18 32 inlet bang;
#X obj 92 32 inlet mode;
#X obj 92 51 listfind real user system cpu logical process;
#X obj 18 175 realtime;
#X obj 18 148 t b b;
#X obj 304 156 t b b;
#X obj 304 175 cputime;
#X obj 265 175 timer;
#X obj 265 156 t b b;
#X obj 18 51 shunt 6;
#X obj 78 148 t b b;
#X obj 78 175 usertime;
#X obj 138 152 t b b;
#X obj 212 153 t b b;
#X obj 212 175 tsctime;
#X obj 138 175 systemtime;
#X obj 18 236 outlet;
#X obj 221 90 print mode;
#X connect 0 0 9 0;
#X connect 1 0 2 0;
#X connect 2 0 9 1;
#X connect 2 0 17 0;
#X connect 3 0 16 0;
#X connect 4 0 3 0;
#X connect 4 1 3 1;
#X connect 5 0 6 0;
#X connect 5 1 6 1;
#X connect 6 0 16 0;
#X connect 7 0 16 0;
#X connect 8 0 7 0;
#X connect 8 1 7 1;
#X connect 9 0 4 0;
#X connect 9 1 10 0;
#X connect 9 2 12 0;
#X connect 9 4 8 0;
#X connect 9 5 5 0;
#X connect 10 0 11 0;
#X connect 10 1 11 1;
#X connect 12 0 15 0;
#X connect 12 1 15 1;
#X connect 13 0 14 0;
#X connect 13 1 14 1;
#X restore 18 66 pd timer;
#X connect 0 0 2 0;
#X connect 2 0 20 0;
#X connect 2 2 19 0;
#X connect 3 0 4 1;
#X connect 4 0 3 0;
#X connect 8 0 9 0;
#X connect 8 0 10 0;
#X connect 9 0 8 1;
#X connect 10 1 17 0;
#X connect 11 0 8 0;
#X connect 11 1 4 0;
#X connect 11 2 12 0;
#X connect 12 0 13 0;
#X connect 13 0 14 0;
#X connect 14 0 13 1;
#X connect 14 0 15 1;
#X connect 15 0 1 0;
#X connect 16 0 15 0;
#X connect 17 0 18 0;
#X connect 17 1 16 0;
#X connect 18 0 13 1;
#X connect 18 0 8 1;
#X connect 19 0 20 1;
#X connect 20 0 11 0;
