#N canvas 408 149 771 437 10;
#X msg 74 342 connect 0 0 2 0 \, connect 2 0 1 0;
#X obj 96 323 list trim;
#X obj 96 75 list split 1;
#X obj 96 114 gf.suffix_lookup;
#X obj 143 224 list append;
#X obj 96 285 list prepend;
#X obj 96 213 t b s;
#X obj 96 94 t s s;
#X obj 9 10 inlet;
#X obj 322 65 \$1;
#X obj 175 266 pack s s s;
#X obj 251 232 symbol \$2;
#X obj 251 213 loadbang;
#X obj 74 368 outlet;
#X obj 74 48 t b a b;
#X obj 143 148 sel window;
#X msg 143 167 symbol x11;
#X msg 143 186 symbol #io.\$1;
#X obj 143 205 list append \$2;
#X obj 9 29 route bang;
#X msg 322 313 clear \, obj 0 0 r \$1-in \, obj 0 40 s \$1-out;
#X msg 9 387 clear \, obj 0 0 r \$1-in \, obj 0 20 gf.error not open
\, connect 0 0 1 0;
#X obj 96 304 list prepend obj 0 20;
#X obj 9 323 \$1;
#X connect 0 0 13 0;
#X connect 1 0 13 0;
#X connect 2 0 7 0;
#X connect 2 1 4 1;
#X connect 3 0 6 0;
#X connect 3 2 15 0;
#X connect 4 0 22 0;
#X connect 5 0 22 0;
#X connect 6 0 5 0;
#X connect 6 1 10 0;
#X connect 7 0 3 0;
#X connect 7 1 10 2;
#X connect 8 0 19 0;
#X connect 9 0 20 0;
#X connect 10 0 5 1;
#X connect 11 0 10 1;
#X connect 12 0 11 0;
#X connect 14 0 0 0;
#X connect 14 1 2 0;
#X connect 14 2 9 0;
#X connect 15 0 16 0;
#X connect 15 1 17 0;
#X connect 16 0 17 0;
#X connect 17 0 18 0;
#X connect 18 0 4 0;
#X connect 19 0 23 0;
#X connect 19 1 14 0;
#X connect 20 0 13 0;
#X connect 21 0 13 0;
#X connect 22 0 1 0;
#X connect 23 0 21 0;
