#N canvas 453 325 834 759 10;
#X obj 20 15 inlet;
#X obj 198 488 inlet;
#X obj 20 144 textfile;
#X obj 20 34 route3 load;
#X symbolatom 31 58 10 0 0 0 - - -;
#X obj 100 15 gf/selector;
#X obj 100 34 gf/error no method for '%s';
#X msg 56 87 read \$1 \, rewind;
#X obj 20 163 route #X;
#X obj 20 182 route obj msg floatatom symbolatom text;
#X obj 20 201 t a b;
#X obj 66 201 t a b;
#X obj 112 201 t a b;
#X obj 158 201 t a b;
#X obj 204 201 t a b;
#X msg 149 245 1;
#X msg 195 245 2;
#X msg 241 245 3;
#X msg 269 245 0;
#X obj 39 333 list split 2;
#X msg 66 273 PU \$1 \$2;
#X obj 20 87 t b a;
#X obj 20 125 until;
#X obj 73 352 list2symbol;
#X text 148 351 gf/l2s still has the parens problem;
#X obj 73 371 #import;
#X obj 73 390 #to_l;
#X obj 73 428 list trim;
#X obj 15 659 outlet;
#X obj 66 452 t a;
#X obj 198 469 outlet;
#X obj 73 409 list prepend print_from_ascii;
#X obj 66 311 hpgl_op * (1 -1);
#X obj 212 519 hpgl_find_bbox;
#X obj 20 244 t b a a;
#X obj 20 481 s \$0-fin;
#X obj 293 500 r \$0-fin;
#X obj 202 278 t f;
#X obj 212 538 shunt 4;
#X obj 238 589 hpgl_messagebox \$2;
#X obj 225 608 hpgl_objectbox \$2;
#X obj 66 292 hpgl_op * \$1;
#X connect 0 0 3 0;
#X connect 1 0 28 0;
#X connect 1 0 33 0;
#X connect 2 0 8 0;
#X connect 2 1 22 1;
#X connect 3 0 4 0;
#X connect 3 0 21 0;
#X connect 3 1 5 0;
#X connect 5 0 6 0;
#X connect 7 0 2 0;
#X connect 8 0 9 0;
#X connect 9 0 10 0;
#X connect 9 1 11 0;
#X connect 9 2 12 0;
#X connect 9 3 13 0;
#X connect 9 4 14 0;
#X connect 10 0 34 0;
#X connect 10 1 15 0;
#X connect 11 0 34 0;
#X connect 11 1 16 0;
#X connect 12 0 34 0;
#X connect 12 1 17 0;
#X connect 13 0 34 0;
#X connect 13 1 17 0;
#X connect 14 0 34 0;
#X connect 14 1 18 0;
#X connect 15 0 37 0;
#X connect 16 0 37 0;
#X connect 17 0 37 0;
#X connect 18 0 37 0;
#X connect 19 1 23 0;
#X connect 20 0 41 0;
#X connect 21 0 22 0;
#X connect 21 1 7 0;
#X connect 22 0 2 0;
#X connect 23 0 25 0;
#X connect 25 0 26 0;
#X connect 26 0 31 0;
#X connect 27 0 29 0;
#X connect 29 0 30 0;
#X connect 31 0 27 0;
#X connect 32 0 29 0;
#X connect 33 0 38 0;
#X connect 34 0 35 0;
#X connect 34 1 19 0;
#X connect 34 2 20 0;
#X connect 36 0 33 1;
#X connect 37 0 38 1;
#X connect 38 1 40 0;
#X connect 38 2 39 0;
#X connect 40 0 28 0;
#X connect 41 0 32 0;
