#N canvas 348 192 450 300 10;
#X obj 17 19 inlet;
#X obj 16 262 outlet;
#X obj 194 20 inlet offset;
#X obj 97 112 list split 1;
#X obj 17 38 route2 PU PD PA;
#X obj 97 251 list trim;
#X obj 136 170 # +;
#X obj 136 189 #to_list;
#X obj 284 21 loadbang;
#X obj 256 84 #cast f;
#X obj 97 222 list;
#X obj 136 137 #import \, cast f;
#X obj 284 40 args (offset a (0 0));
#X connect 0 0 4 0;
#X connect 2 0 9 0;
#X connect 3 0 10 0;
#X connect 3 1 11 0;
#X connect 4 0 3 0;
#X connect 4 1 3 0;
#X connect 4 2 3 0;
#X connect 4 3 1 0;
#X connect 5 0 1 0;
#X connect 6 0 7 0;
#X connect 7 0 10 1;
#X connect 8 0 12 0;
#X connect 9 0 6 1;
#X connect 10 0 5 0;
#X connect 11 0 6 0;
#X connect 12 0 9 0;
