#N canvas 406 255 503 300 10;
#X obj 28 8 inlet;
#X obj 92 276 outlet;
#X text 188 35 arrange-toi avec ca;
#X obj 28 95 #to_l;
#X msg 28 164 list \$1 \$4 \$1 \$4;
#X msg 48 124 list \$1 \$2 \$1 \$2;
#X msg 92 257 PU \$1 \$2 \, PD \$3 \$2 \$3 \$4 \$1 \$4 \$1 \$2;
#X obj 92 238 #to_l;
#X obj 141 182 #to_l;
#X obj 28 57 #to_l;
#X msg 68 58 list \$1 \$2 \$3 \$4 \$3 \$2 \$4;
#X msg 141 201 PU \$1 \$2 \, PD \$5 \$2 \$3 \$6 \$3 \$7 \$5 \$4 \$1
\$4 \$1 \$2;
#X obj 28 27 t a b;
#X obj 329 22 inlet;
#X obj 328 84 t f;
#X obj 371 22 args (scale a 1);
#X obj 299 130 # *;
#X obj 299 150 # *;
#X obj 299 170 # *;
#X msg 173 83 -1 -3 3 3 7 1 -1;
#X obj 76 89 # +;
#X msg 193 108 -1 -1 6 -3;
#X msg 189 130 -1 1 6 3;
#X obj 48 143 # +;
#X obj 28 183 # +;
#X connect 0 0 12 0;
#X connect 3 0 4 0;
#X connect 3 0 5 0;
#X connect 4 0 24 0;
#X connect 5 0 23 0;
#X connect 6 0 1 0;
#X connect 7 0 6 0;
#X connect 8 0 11 0;
#X connect 9 0 3 0;
#X connect 9 0 10 0;
#X connect 10 0 20 0;
#X connect 11 0 1 0;
#X connect 12 0 9 0;
#X connect 12 1 19 0;
#X connect 12 1 21 0;
#X connect 12 1 22 0;
#X connect 13 0 14 0;
#X connect 14 0 16 1;
#X connect 14 0 17 1;
#X connect 14 0 18 1;
#X connect 15 0 14 0;
#X connect 16 0 20 1;
#X connect 17 0 23 1;
#X connect 18 0 24 1;
#X connect 19 0 16 0;
#X connect 20 0 8 0;
#X connect 21 0 17 0;
#X connect 22 0 18 0;
#X connect 23 0 7 0;
#X connect 24 0 7 0;
