#N canvas 402 0 834 721 10;
#X obj 20 15 inlet;
#X obj 198 488 inlet;
#X obj 20 144 textfile;
#X obj 20 34 route3 load;
#X symbolatom 28 55 10 0 0 0 - - -;
#X obj 100 15 gf/selector;
#X obj 100 34 gf/error no method for '%s';
#X msg 39 104 read \$1 \, rewind;
#X obj 20 163 route #X;
#X obj 20 201 t a b;
#X obj 66 201 t a b;
#X obj 112 201 t a b;
#X obj 158 201 t a b;
#X obj 204 201 t a b;
#X msg 149 245 1;
#X msg 195 245 2;
#X msg 231 245 3;
#X msg 259 245 0;
#X obj 39 333 list split 2;
#X msg 66 273 PU \$1 \$2;
#X obj 20 125 until;
#X obj 73 371 #import;
#X obj 73 390 #to_l;
#X obj 73 428 list trim;
#X obj 15 729 outlet;
#X obj 66 452 t a;
#X obj 198 469 outlet;
#X obj 73 409 list prepend print_from_ascii;
#X obj 66 311 hpgl_op * (1 -1);
#X obj 212 519 hpgl_find_bbox;
#X obj 20 244 t b a a;
#X obj 20 481 s \$0-fin;
#X obj 293 500 r \$0-fin;
#X obj 202 278 t f;
#X obj 212 538 shunt 4;
#X obj 238 557 hpgl_messagebox \$2;
#X obj 225 576 hpgl_objectbox \$2;
#X obj 66 292 hpgl_op * \$1;
#X obj 20 75 t b a b;
#X msg 541 92 0;
#X obj 526 398 f;
#X obj 550 398 + 1;
#X obj 499 379 t a b;
#X obj 415 475 #store (1000 2 2 #);
#X msg 526 417 put_at \$1 0 0;
#X obj 73 352 gf/l2s;
#X msg 415 580 PU \$1 \$2 \, PD \$3 \$4;
#X obj 415 561 #to_l;
#X obj 20 182 route obj msg floatatom symbolatom text connect;
#X msg 320 267 2 2 3 # \$1 0 0 \$1 0 1 \$3 0 0 \$3 1 1;
#X connect 0 0 3 0;
#X connect 1 0 24 0;
#X connect 1 0 29 0;
#X connect 2 0 8 0;
#X connect 2 1 20 1;
#X connect 3 0 4 0;
#X connect 3 0 38 0;
#X connect 3 1 5 0;
#X connect 5 0 6 0;
#X connect 7 0 2 0;
#X connect 8 0 48 0;
#X connect 9 0 30 0;
#X connect 9 1 14 0;
#X connect 10 0 30 0;
#X connect 10 1 15 0;
#X connect 11 0 30 0;
#X connect 11 1 16 0;
#X connect 12 0 30 0;
#X connect 12 1 16 0;
#X connect 13 0 30 0;
#X connect 13 1 17 0;
#X connect 14 0 33 0;
#X connect 15 0 33 0;
#X connect 16 0 33 0;
#X connect 17 0 33 0;
#X connect 18 1 45 0;
#X connect 19 0 37 0;
#X connect 20 0 2 0;
#X connect 21 0 22 0;
#X connect 22 0 27 0;
#X connect 23 0 25 0;
#X connect 25 0 26 0;
#X connect 27 0 23 0;
#X connect 28 0 25 0;
#X connect 29 0 34 0;
#X connect 29 0 42 0;
#X connect 30 0 31 0;
#X connect 30 1 18 0;
#X connect 30 2 19 0;
#X connect 32 0 29 1;
#X connect 33 0 34 1;
#X connect 34 1 36 0;
#X connect 34 2 35 0;
#X connect 35 0 24 0;
#X connect 36 0 24 0;
#X connect 37 0 28 0;
#X connect 38 0 20 0;
#X connect 38 1 7 0;
#X connect 38 2 39 0;
#X connect 39 0 40 1;
#X connect 40 0 41 0;
#X connect 40 0 44 0;
#X connect 41 0 40 1;
#X connect 42 0 43 1;
#X connect 42 1 40 0;
#X connect 43 0 47 0;
#X connect 44 0 43 1;
#X connect 45 0 21 0;
#X connect 46 0 24 0;
#X connect 47 0 46 0;
#X connect 48 0 9 0;
#X connect 48 1 10 0;
#X connect 48 2 11 0;
#X connect 48 3 12 0;
#X connect 48 4 13 0;
#X connect 48 5 49 0;
#X connect 49 0 43 0;
