#N canvas 529 0 693 688 10;
#X obj 11 11 inlet hpgl;
#X obj 11 546 outlet hpgl;
#X obj 85 11 inlet font_name;
#X obj 85 30 symbol;
#X obj 194 30 args font_name;
#X obj 194 11 loadbang;
#X msg 51 230 symbol \$1;
#X obj 51 255 #import;
#X obj 51 274 #to_float;
#X obj 62 303 pack f s;
#X obj 11 211 t a;
#X obj 62 445 t a b;
#X obj 327 158 hpgl_track_position;
#X obj 106 204 t a b;
#X obj 184 354 f;
#X obj 184 416 +;
#X obj 184 435 +;
#X obj 387 199 #unpack;
#X msg 136 223 0;
#X obj 209 435 r \$0-char-width;
#X obj 184 454 s \$0-char-pos;
#X obj 72 125 s \$0-scaling;
#X obj 193 216 t a b;
#X msg 223 235 0;
#X obj 169 158 route print_from_ascii;
#X obj 102 158 route2 LB;
#X obj 134 106 s \$0-rowheight;
#X obj 455 269 f;
#X obj 480 269 -;
#X obj 505 269 r \$0-rowheight;
#X obj 371 263 f;
#X obj 518 435 -;
#X obj 11 66 route spacing scaling rowheight wrap;
#X obj 196 87 s \$0-wrap;
#X obj 557 454 r \$0-wrap;
#X obj 534 416 #unpack;
#X obj 51 342 t b;
#X obj 548 548 s \$0-crlf;
#X obj 17 395 r \$0-crlf;
#X obj 518 454 moses;
#X obj 184 373 shunt;
#X msg 246 283 1;
#X msg 207 283 0;
#X obj 188 264 t b b b b;
#X obj 128 446 f;
#X obj 51 323 route 10 13;
#X obj 132 323 t a a;
#X obj 144 427 * -1;
#X obj 548 521 spigot;
#X obj 594 521 == 32;
#X obj 548 478 spigot 0;
#X obj 608 478 !=;
#X obj 451 295 s \$0-row-pos;
#N canvas 0 0 489 534 draw_one_character 0;
#X msg 132 58 open grid \$2/\$1.hpgl \, headerless \, type b;
#X obj 51 137 until;
#X obj 51 156 #in;
#X obj 90 137 route bang;
#X obj 82 296 hpgl_find_bbox;
#X obj 51 58 t b b b b a;
#X msg 300 125 1;
#X msg 301 162 0;
#X obj 52 277 shunt;
#X msg 23 107 rewind;
#X obj 110 455 #pack;
#X obj 110 436 inv+;
#X obj 82 357 inv+;
#X obj 82 315 #redim (4);
#X obj 52 194 route2 PA PU PD;
#X obj 82 334 #unpack 4;
#X obj 52 230 hpgl_op *;
#X obj 52 474 hpgl_op +;
#X obj 82 395 s \$0-char-width;
#X obj 142 436 r \$0-char-pos;
#X obj 119 230 r \$0-scaling;
#X obj 82 376 max;
#X obj 52 175 plotter_parser;
#X obj 149 455 r \$0-row-pos;
#X obj 51 39 inlet;
#X obj 52 493 outlet;
#X connect 0 0 2 0;
#X connect 1 0 2 0;
#X connect 2 0 22 0;
#X connect 2 1 3 0;
#X connect 3 0 1 1;
#X connect 4 0 13 0;
#X connect 5 0 1 0;
#X connect 5 1 7 0;
#X connect 5 1 9 0;
#X connect 5 1 4 1;
#X connect 5 2 1 0;
#X connect 5 3 6 0;
#X connect 5 4 0 0;
#X connect 6 0 8 1;
#X connect 7 0 8 1;
#X connect 8 0 17 0;
#X connect 8 1 4 0;
#X connect 9 0 2 0;
#X connect 10 0 17 1;
#X connect 11 0 10 0;
#X connect 12 0 21 0;
#X connect 13 0 15 0;
#X connect 14 0 16 0;
#X connect 14 1 16 0;
#X connect 14 2 16 0;
#X connect 15 0 12 0;
#X connect 15 0 11 0;
#X connect 15 2 12 1;
#X connect 16 0 8 0;
#X connect 17 0 25 0;
#X connect 19 0 11 1;
#X connect 20 0 16 1;
#X connect 21 0 18 0;
#X connect 22 0 14 0;
#X connect 23 0 10 1;
#X connect 24 0 5 0;
#X restore 62 510 pd draw_one_character;
#X connect 0 0 32 0;
#X connect 2 0 3 0;
#X connect 3 0 9 1;
#X connect 4 0 3 0;
#X connect 4 1 32 0;
#X connect 5 0 4 0;
#X connect 6 0 7 0;
#X connect 7 0 8 0;
#X connect 8 0 45 0;
#X connect 9 0 11 0;
#X connect 10 0 1 0;
#X connect 11 0 53 0;
#X connect 11 1 43 0;
#X connect 12 0 17 0;
#X connect 12 0 35 0;
#X connect 13 0 6 0;
#X connect 13 1 12 1;
#X connect 13 1 18 0;
#X connect 14 0 40 0;
#X connect 15 0 16 0;
#X connect 16 0 14 1;
#X connect 16 0 20 0;
#X connect 17 0 14 1;
#X connect 17 0 30 1;
#X connect 17 1 27 1;
#X connect 17 1 52 0;
#X connect 18 0 16 1;
#X connect 19 0 16 1;
#X connect 22 0 7 0;
#X connect 22 1 23 0;
#X connect 22 1 12 1;
#X connect 23 0 16 1;
#X connect 24 0 22 0;
#X connect 24 1 12 0;
#X connect 24 1 10 0;
#X connect 25 0 13 0;
#X connect 25 1 24 0;
#X connect 27 0 28 0;
#X connect 28 0 27 1;
#X connect 28 0 52 0;
#X connect 29 0 28 1;
#X connect 30 0 14 1;
#X connect 31 0 39 0;
#X connect 32 0 15 1;
#X connect 32 0 47 0;
#X connect 32 1 21 0;
#X connect 32 2 26 0;
#X connect 32 3 33 0;
#X connect 32 4 25 0;
#X connect 34 0 39 1;
#X connect 34 0 51 0;
#X connect 35 0 31 1;
#X connect 36 0 30 0;
#X connect 36 0 44 0;
#X connect 36 0 27 0;
#X connect 38 0 36 0;
#X connect 39 1 50 0;
#X connect 40 0 15 0;
#X connect 40 1 31 0;
#X connect 41 0 40 1;
#X connect 42 0 40 1;
#X connect 43 0 14 0;
#X connect 43 1 42 0;
#X connect 43 2 14 0;
#X connect 43 3 41 0;
#X connect 44 0 16 1;
#X connect 45 0 36 0;
#X connect 45 2 46 0;
#X connect 46 0 9 0;
#X connect 46 1 49 0;
#X connect 47 0 44 1;
#X connect 48 0 37 0;
#X connect 49 0 48 1;
#X connect 50 0 48 0;
#X connect 51 0 50 1;
#X connect 53 0 1 0;
