#N canvas 0 0 666 472 10;
#X text 337 23 usage:;
#X obj 411 101 symbol \$1;
#X obj 411 248 pack f f s;
#X msg 411 267 obj \$1 \$2 \$3;
#X obj 409 386 s;
#X obj 411 63 loadbang;
#X obj 509 425 namecanvas \$0-yeault;
#X obj 473 99 symbol \$0-yeault;
#X text 380 23 many <obj> <m> <n> <size-x> <size-y>;
#X obj 411 158 #import (2);
#X obj 411 177 # * ( \$5 \$4 );
#X obj 411 120 t b s;
#X obj 411 215 #unpack 2;
#X obj 411 139 #for (0 0) ( \$3 \$2 ) (1 1);
#X obj 411 196 # + (2 17);
#X obj 411 82 t b b b;
#X obj 518 275 # * ( \$5 \$4 );
#X obj 518 256 #store ( \$3 \$2 );
#X obj 518 328 #to_list;
#X obj 525 391 print;
#X msg 428 355 coords 0 -1 1 1 \$1 \$2 1 0 0 0;
#X obj 518 295 # + (4 19);
#X connect 1 0 11 0;
#X connect 2 0 3 0;
#X connect 3 0 4 0;
#X connect 5 0 15 0;
#X connect 7 0 4 1;
#X connect 9 0 10 0;
#X connect 10 0 14 0;
#X connect 11 0 13 0;
#X connect 11 1 2 2;
#X connect 12 0 2 0;
#X connect 12 1 2 1;
#X connect 13 0 9 0;
#X connect 14 0 12 0;
#X connect 15 0 1 0;
#X connect 15 1 17 0;
#X connect 15 2 7 0;
#X connect 16 0 21 0;
#X connect 17 0 16 0;
#X connect 18 0 20 0;
#X connect 20 0 4 0;
#X connect 20 0 19 0;
#X connect 21 0 18 0;
#X coords 0 -1 1 1 85 100 1 0 0;
