#N canvas 474 0 746 464 10;
#X obj 8 4 inlet;
#X obj 8 413 outlet;
#X obj 440 42 gf.error unknown method '%s';
#X obj 440 23 list;
#X msg 8 373 59 10;
#X text 52 373 comma+newline;
#X obj 201 353 #import;
#X msg 201 334 to_ascii \$1;
#X obj 201 372 #to_float;
#X msg 54 353 44;
#X msg 135 220 list IP;
#X obj 82 220 t b a b;
#X obj 346 342 foreach;
#X obj 346 318 t a b;
#X msg 385 318 0;
#X msg 82 239 end;
#X obj 398 361 spigot;
#X msg 423 386 1;
#X obj 345 361 t b a b;
#X obj 367 435 t a;
#X obj 8 132 list split 1;
#X obj 30 170 list;
#X obj 323 138 #import;
#X obj 323 157 # & -33;
#X text 378 156 turns to uppercase if content is only letters;
#X obj 323 176 #export_symbol;
#X msg 100 353 32;
#X obj 85 42 list;
#X msg 138 61 list LB;
#X msg 8 192 end;
#X obj 85 61 t b l b;
#X msg 146 353 3;
#X msg 85 80 break \, end;
#X obj 459 173 t b l b;
#X msg 503 192 list LB;
#X obj 481 213 #export_symbol;
#X obj 459 255 t a;
#X msg 459 236 break \, end;
#X obj 8 23 route other print print_from_ascii;
#X obj 380 23 route ip;
#X obj 237 102 t a;
#X obj 250 23 route2 pu pd pa sp;
#X obj 8 151 t b b s;
#X obj 241 269 t a b;
#X obj 278 235 t a b;
#X obj 373 395 symbol;
#X msg 317 235 symbol space;
#X msg 280 269 symbol comma;
#X obj 8 334 route end comma space break;
#X obj 373 414 list trim;
#X connect 0 0 38 0;
#X connect 3 0 2 0;
#X connect 4 0 1 0;
#X connect 6 0 8 0;
#X connect 7 0 6 0;
#X connect 8 0 1 0;
#X connect 9 0 1 0;
#X connect 10 0 48 0;
#X connect 11 0 15 0;
#X connect 11 1 43 0;
#X connect 11 2 10 0;
#X connect 12 0 18 0;
#X connect 13 0 12 0;
#X connect 13 1 14 0;
#X connect 14 0 16 1;
#X connect 15 0 48 0;
#X connect 16 0 45 0;
#X connect 17 0 16 1;
#X connect 18 0 17 0;
#X connect 18 1 19 0;
#X connect 18 2 16 0;
#X connect 19 0 48 0;
#X connect 20 0 42 0;
#X connect 20 1 21 1;
#X connect 21 0 43 0;
#X connect 22 0 23 0;
#X connect 23 0 25 0;
#X connect 25 0 48 0;
#X connect 26 0 1 0;
#X connect 27 0 30 0;
#X connect 28 0 48 0;
#X connect 29 0 48 0;
#X connect 30 0 32 0;
#X connect 30 1 44 0;
#X connect 30 2 28 0;
#X connect 31 0 1 0;
#X connect 32 0 48 0;
#X connect 33 0 37 0;
#X connect 33 1 35 0;
#X connect 33 2 34 0;
#X connect 34 0 36 0;
#X connect 35 0 36 0;
#X connect 36 0 48 0;
#X connect 37 0 36 0;
#X connect 38 0 20 0;
#X connect 38 1 27 0;
#X connect 38 2 33 0;
#X connect 38 3 41 0;
#X connect 39 0 11 0;
#X connect 39 1 3 0;
#X connect 40 0 20 0;
#X connect 41 0 40 0;
#X connect 41 1 40 0;
#X connect 41 2 40 0;
#X connect 41 3 40 0;
#X connect 41 4 39 0;
#X connect 42 0 29 0;
#X connect 42 1 21 0;
#X connect 42 2 22 0;
#X connect 43 0 13 0;
#X connect 43 1 47 0;
#X connect 44 0 13 0;
#X connect 44 1 46 0;
#X connect 45 0 49 0;
#X connect 46 0 45 1;
#X connect 47 0 45 1;
#X connect 48 0 4 0;
#X connect 48 1 9 0;
#X connect 48 2 26 0;
#X connect 48 3 31 0;
#X connect 48 4 7 0;
#X connect 49 0 19 0;
