#N canvas 430 183 746 405 10;
#X obj 28 24 inlet;
#X obj 28 378 outlet;
#X obj 28 43 route pu pd pa sp ip other print print_from_ascii;
#X obj 375 55 gf.error unknown method '%s';
#X obj 375 36 list;
#X msg 70 201 list PD \, end;
#X msg 28 220 list PU \, end;
#X msg 28 288 59 10;
#X text 72 288 comma+newline;
#X msg 112 182 list PA \, \$1 \, comma \, \$2 \, end;
#X obj 28 239 route end comma;
#X obj 128 334 #import;
#X msg 128 315 to_ascii \$1;
#X obj 128 353 #to_float;
#X msg 78 258 44;
#X msg 154 162 list SP \, \$1 \, end;
#X msg 191 130 list IP \, \$1 \, comma \, \$2 \, comma \, \$3... VARARGS...
OOPS;
#X msg 250 85 list IP;
#X obj 197 85 t b a b;
#X obj 366 207 foreach;
#X obj 366 183 t a b;
#X msg 405 183 0;
#X msg 197 104 end;
#X obj 418 226 spigot;
#X msg 443 251 1;
#X obj 365 226 t b a b;
#X msg 418 270 comma;
#X obj 387 270 t a;
#X connect 0 0 2 0;
#X connect 2 0 6 0;
#X connect 2 1 5 0;
#X connect 2 2 9 0;
#X connect 2 3 15 0;
#X connect 2 4 18 0;
#X connect 2 8 4 0;
#X connect 4 0 3 0;
#X connect 5 0 10 0;
#X connect 6 0 10 0;
#X connect 7 0 1 0;
#X connect 9 0 10 0;
#X connect 10 0 7 0;
#X connect 10 1 14 0;
#X connect 10 2 12 0;
#X connect 11 0 13 0;
#X connect 12 0 11 0;
#X connect 13 0 1 0;
#X connect 14 0 1 0;
#X connect 15 0 10 0;
#X connect 17 0 10 0;
#X connect 18 0 22 0;
#X connect 18 1 20 0;
#X connect 18 2 17 0;
#X connect 19 0 25 0;
#X connect 20 0 19 0;
#X connect 20 1 21 0;
#X connect 21 0 23 1;
#X connect 22 0 10 0;
#X connect 23 0 26 0;
#X connect 24 0 23 1;
#X connect 25 0 24 0;
#X connect 25 1 27 0;
#X connect 25 2 23 0;
#X connect 26 0 27 0;
#X connect 27 0 10 0;
