#N canvas 729 0 520 574 10;
#X obj 20 80 tgl 15 0 empty empty empty 17 7 0 10 -4034 -1 -1 1 1;
#X obj 20 97 metro 33.3667;
#X obj 20 354 #out window;
#X obj 221 99 #join 0 (0 0);
#X obj 221 118 #redim (2 2);
#X obj 221 42 loadbang;
#X msg 221 61 0 0;
#X obj 221 80 var.#;
#X obj 298 60 t a a;
#X obj 298 79 #finished;
#X obj 347 171 display;
#X msg 140 462 draw line;
#X obj 221 137 #line_to_polygon 8;
#X msg 140 443 draw fill;
#X obj 140 381 route keypress;
#X msg 140 400 symbol \$4;
#X obj 140 419 sel f l;
#X obj 20 175 #scale_by 8;
#X obj 20 393 #mouse \, / 8;
#X obj 209 23 r \$0-start;
#X obj 20 434 s \$0-start;
#X obj 298 41 r \$0-end;
#X obj 33 415 s \$0-end;
#X obj 20 116 #store (48 64 3 # 255);
#X obj 20 156 #draw_polygon put (3 #) \, draw line;
#X obj 20 247 #draw_rect put (255 0 0);
#X obj 20 287 #draw_rect put (0 255 0);
#X obj 26 136 r \$0-options;
#X obj 149 486 s \$0-options;
#X obj 183 248 # +;
#X obj 183 268 # +;
#X obj 183 288 # +;
#X obj 183 308 # +;
#X msg 187 228 1 1 7 7;
#X obj 20 211 t a b;
#X obj 265 248 #slice (0 0) (1 2);
#X obj 208 248 # * 8;
#X obj 208 268 # * 8;
#X obj 208 288 # * 8;
#X obj 208 308 # * 8;
#X obj 265 268 #slice (1 0) (2 2);
#X obj 294 352 display;
#X obj 265 288 #slice (2 0) (3 2);
#X obj 265 308 #slice (3 0) (4 2);
#X obj 20 267 #draw_rect put (255 224 0);
#X obj 20 307 #draw_rect put (0 192 255);
#X connect 0 0 1 0;
#X connect 1 0 23 0;
#X connect 2 0 14 0;
#X connect 2 0 18 0;
#X connect 3 0 4 0;
#X connect 4 0 12 0;
#X connect 5 0 6 0;
#X connect 6 0 7 0;
#X connect 7 0 3 0;
#X connect 8 0 9 0;
#X connect 8 1 3 1;
#X connect 9 0 7 0;
#X connect 11 0 28 0;
#X connect 12 0 24 2;
#X connect 12 0 10 0;
#X connect 12 0 35 0;
#X connect 12 0 40 0;
#X connect 12 0 42 0;
#X connect 12 0 43 0;
#X connect 13 0 28 0;
#X connect 14 0 15 0;
#X connect 15 0 16 0;
#X connect 16 0 13 0;
#X connect 16 1 11 0;
#X connect 17 0 34 0;
#X connect 18 0 20 0;
#X connect 18 1 22 0;
#X connect 18 2 22 0;
#X connect 19 0 7 0;
#X connect 21 0 8 0;
#X connect 23 0 24 0;
#X connect 24 0 17 0;
#X connect 25 0 44 0;
#X connect 26 0 45 0;
#X connect 27 0 24 0;
#X connect 29 0 25 2;
#X connect 30 0 44 2;
#X connect 31 0 26 2;
#X connect 31 0 41 0;
#X connect 32 0 45 2;
#X connect 33 0 29 0;
#X connect 33 0 30 0;
#X connect 33 0 31 0;
#X connect 33 0 32 0;
#X connect 34 0 25 0;
#X connect 34 1 33 0;
#X connect 35 0 36 0;
#X connect 36 0 29 1;
#X connect 37 0 30 1;
#X connect 38 0 31 1;
#X connect 39 0 32 1;
#X connect 40 0 37 0;
#X connect 42 0 38 0;
#X connect 43 0 39 0;
#X connect 44 0 26 0;
#X connect 45 0 2 0;
