#N canvas 693 355 959 472 10;
#X obj 72 152 #fold +;
#X obj 72 171 #fold +;
#X obj 72 190 #fold +;
#X obj 72 209 #fold +;
#X obj 72 247 display;
#X obj 72 228 #fold +;
#X obj 92 55 realtime;
#X obj 53 31 t b b b;
#X obj 53 14 bng 15 250 50 0 empty empty empty 17 7 0 10 -262144 -1
-1;
#X obj 92 74 display;
#X msg 72 133 5 1024 1024 1 1 1 # 0 1 3 -2 -1;
#X text 72 262 Dim[5]: 209715 209716 209718 209713 209714;
#X obj 433 152 #fold +;
#X obj 433 171 #fold +;
#X obj 433 190 #fold +;
#X obj 433 247 display;
#X obj 472 55 realtime;
#X obj 433 31 t b b b;
#X obj 433 14 bng 15 250 50 0 empty empty empty 17 7 0 10 -262144 -1
-1;
#X obj 472 74 display;
#X msg 433 133 1080 1920 3 # 0 1 3 -2 -1;
#X text 91 89 GF 9.12 : entre 700 et 750 \, ou entre 775 et 800 ???
;
#X obj 743 42 #fold +;
#X obj 743 61 #fold +;
#X obj 743 80 #fold +;
#X obj 743 99 display;
#X msg 743 23 8 8 3 # 0 1 3 -2 -1;
#X msg 746 128 8 8 0 #;
#X obj 746 147 #fold +;
#X obj 746 166 display;
#X text 471 100 GF 9.13 : entre 165 et 170;
#X text 471 89 GF 9.12 : entre 165 et 170 ou 180 et 205 ??;
#X text 433 262 Dim[]:_1244160;
#X connect 0 0 1 0;
#X connect 1 0 2 0;
#X connect 2 0 3 0;
#X connect 3 0 5 0;
#X connect 5 0 4 0;
#X connect 6 0 9 0;
#X connect 7 0 6 1;
#X connect 7 1 10 0;
#X connect 7 2 6 0;
#X connect 8 0 7 0;
#X connect 10 0 0 0;
#X connect 12 0 13 0;
#X connect 13 0 14 0;
#X connect 14 0 15 0;
#X connect 16 0 19 0;
#X connect 17 0 16 1;
#X connect 17 1 20 0;
#X connect 17 2 16 0;
#X connect 18 0 17 0;
#X connect 20 0 12 0;
#X connect 22 0 23 0;
#X connect 23 0 24 0;
#X connect 24 0 25 0;
#X connect 26 0 22 0;
#X connect 27 0 28 0;
#X connect 28 0 29 0;
