#N canvas 0 0 450 358 10;
#X obj 15 89 bng 15 250 50 0 empty empty empty 17 7 0 10 -262144 -1
-1;
#X obj 15 274 #in;
#X obj 15 257 bng 15 250 50 0 empty empty empty 17 7 0 10 -262144 -1
-1;
#X obj 30 293 display;
#X obj 132 125 display;
#X obj 15 135 bng 15 250 50 0 empty empty empty 17 7 0 10 -262144 -1
-1;
#X obj 36 171 display;
#X obj 15 152 #out;
#X obj 15 201 bng 15 250 50 0 empty empty empty 17 7 0 10 -262144 -1
-1;
#X obj 240 237 display;
#X obj 15 218 #in bon.suffixe.mais.pas.d'fichier.jpg;
#X obj 15 106 #out pas.grand.chose;
#X obj 150 69 display;
#X text 150 84 not_open;
#X obj 15 50 #in grumble-grumble.666;
#X obj 15 33 bng 15 250 50 0 empty empty empty 17 7 0 10 -262144 -1
-1;
#X text 22 6 test pour not_open;
#X connect 0 0 11 0;
#X connect 1 1 3 0;
#X connect 2 0 1 0;
#X connect 5 0 7 0;
#X connect 7 1 6 0;
#X connect 8 0 10 0;
#X connect 10 1 9 0;
#X connect 11 1 4 0;
#X connect 14 1 12 0;
#X connect 15 0 14 0;
