#N canvas 627 85 450 376 10;
#X obj 203 93 #pack;
#X obj 254 93 #pack 5;
#X obj 203 112 #print;
#X obj 254 112 #print;
#X floatatom 233 63 5 0 0 0 - - -;
#X floatatom 276 63 5 0 0 0 - - -;
#X obj 51 209 #unpack 4;
#X msg 51 190 2 3 5 7;
#X floatatom 102 228 5 0 0 0 - - -;
#X floatatom 85 246 5 0 0 0 - - -;
#X floatatom 68 264 5 0 0 0 - - -;
#X floatatom 51 282 5 0 0 0 - - -;
#X obj 324 112 #print;
#X floatatom 346 63 5 0 0 0 - - -;
#X obj 324 93 #pack 5 f;
#X msg 254 36 4 5;
#X msg 225 36 4;
#X msg 203 16 6 7;
#X msg 166 39 6 foo;
#X obj 259 294 #convolve;
#X msg 272 272 patate;
#X msg 266 253 op + *;
#X msg 259 234 op 42;
#X connect 0 0 2 0;
#X connect 1 0 3 0;
#X connect 4 0 0 1;
#X connect 5 0 1 2;
#X connect 5 0 1 0;
#X connect 5 0 1 4;
#X connect 6 0 11 0;
#X connect 6 1 10 0;
#X connect 6 2 9 0;
#X connect 6 3 8 0;
#X connect 7 0 6 0;
#X connect 13 0 14 2;
#X connect 13 0 14 0;
#X connect 13 0 14 4;
#X connect 14 0 12 0;
#X connect 15 0 0 1;
#X connect 16 0 0 1;
#X connect 17 0 0 0;
#X connect 18 0 0 0;
#X connect 20 0 19 0;
#X connect 21 0 19 0;
#X connect 22 0 19 0;
