#N canvas 409 110 665 430 10;
#X obj 486 127 #color;
#X obj 366 311 #out window;
#X msg 486 103 123 234 55;
#X obj 237 275 display;
#X obj 236 255 #redim (1 1 3);
#X obj 366 292 #scale_by 8;
#X obj 537 194 #print;
#X obj 486 319 display;
#X obj 532 229 #to_iem;
#X obj 527 276 hsl 128 15 0 127 0 0 empty empty empty -2 -8 0 10 -258049
-1 -262144 0 1;
#X msg 533 253 color \$1;
#X obj 367 273 #redim (96 128 3);
#X connect 0 0 6 0;
#X connect 0 0 7 0;
#X connect 0 0 8 0;
#X connect 0 0 11 0;
#X connect 2 0 0 0;
#X connect 4 0 3 0;
#X connect 5 0 1 0;
#X connect 8 0 10 0;
#X connect 10 0 9 0;
#X connect 11 0 5 0;
