#N canvas 409 110 665 430 10;
#X obj 486 127 #color;
#X obj 366 311 #out window;
#X msg 486 103 123 234 55;
#X obj 237 275 display;
#X obj 236 255 #redim (1 1 3);
#X obj 486 191 display;
#X obj 367 273 #redim (96 128 3);
#X obj 366 292 #scale_by 8;
#X connect 0 0 4 0;
#X connect 0 0 5 0;
#X connect 0 0 6 0;
#X connect 2 0 0 0;
#X connect 4 0 3 0;
#X connect 6 0 7 0;
#X connect 7 0 1 0;
