#N canvas 770 0 625 714 10;
#X obj 156 496 #outer + (0 9000);
#X obj 30 658 #out window;
#X obj 156 515 # cos* 80;
#X obj 156 534 # + (120 160);
#X obj 30 477 metro 33.3667;
#X obj 30 460 tgl 15 0 empty empty empty 17 7 0 10 -24198 -1 -1 0 1
;
#X obj 30 639 #draw_polygon \, color (255 0 0);
#X obj 30 496 t b b;
#X obj 30 515 #store (240 320 3 #);
#X obj 156 458 #for 0 360 1;
#X obj 156 477 # * 100;
#X msg 198 579 accuracy \$1;
#X floatatom 198 561 5 0 0 0 - - -;
#X obj 156 605 cv/#ApproxPoly;
#X obj 0 0 doc_demo;
#X obj 8 423 doc_section never_worked;
#X msg 23 77 2 2 f # 1 0 0 1;
#X obj 88 193 display;
#X msg 17 57 2 2 f # 1 1 0 1;
#X obj 32 117 display;
#X msg 7 37 3 3 f # 2 3 5 7 11 13 17 19 23;
#X obj 7 294 display;
#X obj 7 97 # + (f #);
#X obj 7 117 #t;
#X obj 22 176 cv/#Invert;
#X obj 7 274 #inner \, seed (f #);
#X obj 285 370 display;
#X floatatom 286 27 5 0 0 0 - - -;
#X floatatom 325 27 5 0 0 0 - - -;
#X floatatom 286 43 5 0 0 0 - - -;
#X floatatom 325 43 5 0 0 0 - - -;
#X obj 285 86 #redim (2 2);
#X msg 397 33 4 f # 2 3 5 7;
#X obj 285 67 #pack 4 f;
#X obj 471 168 display;
#X obj 471 214 display;
#X obj 285 350 #inner \, seed (f #);
#X obj 328 330 #inner \, seed (f #);
#X obj 285 330 #store;
#X obj 285 310 #finished;
#X obj 285 290 t a a;
#X obj 471 122 display;
#X obj 285 105 cv/#SVD;
#X text 346 66 #many still doesn't support floats;
#X connect 0 0 2 0;
#X connect 2 0 3 0;
#X connect 3 0 13 0;
#X connect 4 0 7 0;
#X connect 5 0 4 0;
#X connect 6 0 1 0;
#X connect 7 0 8 0;
#X connect 7 1 9 0;
#X connect 8 0 6 0;
#X connect 9 0 10 0;
#X connect 10 0 0 0;
#X connect 11 0 13 0;
#X connect 12 0 11 0;
#X connect 13 0 6 2;
#X connect 16 0 22 0;
#X connect 18 0 22 0;
#X connect 20 0 22 0;
#X connect 22 0 23 0;
#X connect 23 0 25 0;
#X connect 23 1 19 0;
#X connect 23 1 24 0;
#X connect 24 0 17 0;
#X connect 24 0 25 1;
#X connect 25 0 21 0;
#X connect 27 0 33 0;
#X connect 28 0 33 1;
#X connect 29 0 33 2;
#X connect 30 0 33 3;
#X connect 31 0 42 0;
#X connect 32 0 31 0;
#X connect 33 0 31 0;
#X connect 36 0 26 0;
#X connect 37 0 36 1;
#X connect 38 0 36 0;
#X connect 39 0 38 0;
#X connect 40 0 39 0;
#X connect 40 1 37 0;
#X connect 42 0 35 0;
#X connect 42 0 40 0;
#X connect 42 1 34 0;
#X connect 42 1 38 1;
#X connect 42 2 41 0;
#X connect 42 2 37 1;
