#N canvas 770 0 450 464 10;
#X obj 48 105 cv.SVD;
#X obj 49 320 display;
#X floatatom 49 27 5 0 0 0 - - -;
#X floatatom 88 27 5 0 0 0 - - -;
#X floatatom 49 43 5 0 0 0 - - -;
#X floatatom 88 43 5 0 0 0 - - -;
#X obj 48 86 #redim (2 2);
#X msg 160 33 4 f # 2 3 5 7;
#X obj 48 67 #pack 4 f;
#X obj 94 105 cv.Invert;
#X obj 309 48 display;
#X obj 309 95 display;
#X obj 168 95 display;
#X obj 48 280 #inner \, seed (f #);
#X obj 178 280 #inner \, seed (f #);
#X obj 48 261 #store;
#X obj 48 238 #finished;
#X obj 48 145 t a a;
#X connect 0 0 12 0;
#X connect 0 0 17 0;
#X connect 0 1 9 0;
#X connect 0 1 11 0;
#X connect 0 1 14 1;
#X connect 2 0 8 0;
#X connect 3 0 8 1;
#X connect 4 0 8 2;
#X connect 5 0 8 3;
#X connect 6 0 0 0;
#X connect 7 0 6 0;
#X connect 8 0 6 0;
#X connect 9 0 10 0;
#X connect 9 0 15 1;
#X connect 13 0 1 0;
#X connect 14 0 13 1;
#X connect 15 0 13 0;
#X connect 16 0 15 0;
#X connect 17 0 16 0;
#X connect 17 1 14 0;
