#N canvas 593 286 450 300 10;
#X obj 32 13 metro;
#X obj 32 -4 tgl 15 0 empty empty empty 17 7 0 10 -262144 -1 -1 0 1
;
#X obj 32 125 t b b;
#X obj 32 163 print a;
#X obj 71 144 print b;
#X obj 32 38 random 400;
#X msg 148 5 mode real;
#X msg 148 25 mode user;
#X msg 148 45 mode system;
#X msg 148 65 mode cpu;
#X obj 80 99 t a;
#X msg 148 85 mode logical;
#X obj 32 144 fps;
#X obj 71 125 fps_ruby;
#X msg 148 105 mode process;
#X obj 319 202 systemtime;
#X obj 319 183 bang;
#X obj 319 105 print user;
#X obj 319 221 print system;
#X obj 327 46 t b b;
#X obj 327 20 bng 15 250 50 0 empty empty empty 17 7 0 10 -262144 -1
-1;
#X obj 319 86 usertime;
#X obj 162 239 #out window;
#X obj 162 201 metro 25;
#X obj 162 184 tgl 15 0 empty empty empty 17 7 0 10 -262144 -1 -1 1
1;
#X msg 162 220 240 320 3 # 255 0 0;
#X connect 0 0 5 0;
#X connect 1 0 0 0;
#X connect 2 0 12 0;
#X connect 2 1 13 0;
#X connect 5 0 0 1;
#X connect 5 0 2 0;
#X connect 6 0 10 0;
#X connect 7 0 10 0;
#X connect 8 0 10 0;
#X connect 9 0 10 0;
#X connect 10 0 12 0;
#X connect 10 0 13 0;
#X connect 11 0 10 0;
#X connect 12 0 3 0;
#X connect 13 0 4 0;
#X connect 14 0 10 0;
#X connect 15 0 18 0;
#X connect 19 0 16 0;
#X connect 19 0 21 0;
#X connect 19 1 15 1;
#X connect 19 1 21 1;
#X connect 20 0 19 0;
#X connect 21 0 17 0;
#X connect 23 0 25 0;
#X connect 24 0 23 0;
#X connect 25 0 22 0;
