#N canvas 770 0 630 627 10;
#X obj 25 598 # +;
#X obj 25 542 t a a;
#X msg 25 504 240 320 3 #;
#X obj 52 561 # -;
#X obj 25 523 # *;
#X msg 103 504 240 320 3 #;
#X obj 103 523 # *;
#X obj 197 506 bng 15 250 50 0 empty empty empty 17 7 0 10 -262144
-1 -1;
#X obj 128 523 gf/oneshot 1;
#X obj 0 0 doc_demo;
#X obj 7 475 doc_section conflicts;
#X obj 6 51 doc_section literals;
#X msg 39 92 2 2 # 2 3 5 7 11;
#X obj 39 112 #is (2 2 # 2 3 5 7);
#X msg 39 132 2 2 2 # 2 3 5 7 11;
#X obj 39 152 #is (2 2 2 # 2 3 5 7 11 2 3 5);
#X msg 39 172 2 2 2 # 2 3 5;
#X obj 39 192 #is (2 2 2 # 2 3 5 2 3 5 2 3);
#X msg 39 212 2 2 2 # 2;
#X obj 39 232 #is (2 2 2 # 2 2 2 2 2 2 2 2);
#X msg 39 252 2 2 2 #;
#X obj 39 272 #is (2 2 2 # 0 0 0 0 0 0 0 0);
#X text 519 89 invalides;
#X msg 469 112 2 3 -1 #;
#X obj 469 202 # +;
#X msg 479 132 2 -1 3 #;
#X msg 489 152 -1 2 3 #;
#X msg 498 172 1 2 z #;
#X connect 1 0 0 0;
#X connect 1 1 3 0;
#X connect 2 0 4 0;
#X connect 3 0 0 0;
#X connect 4 0 1 0;
#X connect 5 0 6 0;
#X connect 6 0 8 0;
#X connect 7 0 8 1;
#X connect 8 0 6 0;
#X connect 12 0 13 0;
#X connect 13 0 14 0;
#X connect 14 0 15 0;
#X connect 15 0 16 0;
#X connect 16 0 17 0;
#X connect 17 0 18 0;
#X connect 18 0 19 0;
#X connect 19 0 20 0;
#X connect 20 0 21 0;
#X connect 23 0 24 0;
#X connect 25 0 24 0;
#X connect 26 0 24 0;
#X connect 27 0 24 0;
