#N canvas 0 0 450 300 10;
#X floatatom 60 115 5 0 0 0 - - -;
#X obj 60 89 listfind 2 3 5 papillon 7 11 13;
#X floatatom 60 19 5 0 0 0 - - -;
#X msg 66 38 symbol zutre;
#X msg 72 58 symbol papillon;
#X connect 1 0 0 0;
#X connect 2 0 1 0;
#X connect 3 0 1 0;
#X connect 4 0 1 0;
