#N struct template2 float x float y float z float q;
#N canvas 502 104 622 423 10;
#X obj 13 113 #draw_image put;
#X msg 13 94 get;
#X obj 13 132 route alpha position op image tile;
#X obj 173 151 is 0;
#X obj 133 151 is 1;
#X obj 13 151 is 0;
#X obj 53 151 display;
#X obj 214 151 gf/error;
#X obj 93 151 display;
#X obj 0 0 doc_demo;
#X text 15 30 this file is for testing general things having to do
with gridflow.cxx \, source_filter.rb \, [args] \, etc.;
#X obj 10 333 fork;
#X obj 10 267 pointer;
#X obj 58 268 bng 15 250 50 0 empty empty empty 0 -6 0 8 -262144 -1
-1;
#X msg 10 248 next;
#N canvas 42 312 598 266 stuff 0;
#X obj 353 159 pointer;
#X obj 117 103 t b b b;
#X msg 117 62 bang;
#X obj 117 31 loadbang;
#X text 151 62 click here to re-initialize;
#X text 126 206 Explained later...;
#X msg 20 139 50 250 30 9 \, 200 200 -20 900 \, 100 200 -50 30;
#X obj 20 162 append template2 x y z q;
#X msg 353 101 \; pd-data2 clear;
#X msg 353 137 traverse pd-data2 \, bang;
#X connect 0 0 7 4;
#X connect 1 0 6 0;
#X connect 1 1 9 0;
#X connect 1 2 8 0;
#X connect 2 0 1 0;
#X connect 3 0 2 0;
#X connect 6 0 7 0;
#X connect 9 0 0 0;
#X restore 158 304 pd stuff;
#N canvas 13 22 345 271 data2 0;
#X scalar template2 50 250 30 9 \;;
#X scalar template2 200 200 -20 900 \;;
#X scalar template2 100 200 -50 30 \;;
#X restore 158 266 pd data2;
#N canvas 15 278 554 155 template2 0;
#X obj 15 46 filledpolygon 244 q 5 0 0 20 z 40 0;
#X text 13 79 The template for the two scalars \, as in the last patch
;
#X obj 15 21 struct template2 float x float y float z float q;
#X restore 158 285 pd template2;
#X text 154 251 From 7.stuff;
#X msg 46 229 traverse pd-data2;
#X obj 20 312 print a1;
#X obj 30 354 print b1;
#X obj 10 229 t b b;
#X obj 10 212 bng 15 250 50 0 empty empty empty 0 -6 0 8 -258699 -1
-1;
#X obj 88 354 gf.print b2;
#X obj 79 312 gf.print a2;
#X text 40 332 fork no longer goes through gridflow.pd_linux;
#X obj 3 187 doc_section pointer;
#X obj 3 69 doc_section FObject;
#X obj 311 125 gridflow;
#X msg 311 106 get;
#X obj 311 144 print;
#X connect 0 0 2 0;
#X connect 1 0 0 0;
#X connect 2 0 5 0;
#X connect 2 1 6 0;
#X connect 2 2 8 0;
#X connect 2 3 4 0;
#X connect 2 4 3 0;
#X connect 2 5 7 0;
#X connect 11 1 21 0;
#X connect 11 1 24 0;
#X connect 12 0 11 0;
#X connect 12 0 20 0;
#X connect 12 0 25 0;
#X connect 12 1 13 0;
#X connect 14 0 12 0;
#X connect 19 0 12 0;
#X connect 22 0 14 0;
#X connect 22 1 19 0;
#X connect 23 0 22 0;
#X connect 29 0 31 0;
#X connect 30 0 29 0;
