#N canvas 535 268 632 448 10;
#X obj 0 0 doc_h;
#X obj 0 414 doc_f;
#X obj 3 152 doc_i 1;
#X obj 3 236 doc_o 1;
#X obj 3 112 doc_c 0;
#X text 141 47 part shared between [#in] and [#out];
#X obj 14 182 doc_ii 0;
#X obj 97 182 doc_m i0 bang;
#X obj 14 266 doc_oo 0;
#X obj 97 266 doc_m o0 clear;
#X obj 97 288 doc_m o0 connect;
#X obj 97 310 doc_m o0 else;
#X obj 97 336 doc_m o0 loadbang;
#X obj 97 358 doc_m o0 obj;
#X text 232 182 close;
#X obj 97 204 doc_m i0 symbol;
#X text 232 204 open;
#X text 140 75 FOR INTERNAL USE ONLY;
#X text 232 266 to canvas receive-symbol \, for dynamic-patching;
#X obj 3 394 doc_also;
#X obj 49 48 gf/io_generate;
#X obj 232 310 doc_link canvas 1;
#X text 232 288 etc;
#X obj 103 394 #in;
#X obj 133 394 #in~;
#X obj 169 394 #out;
#X connect 7 1 14 0;
#X connect 9 1 18 0;
#X connect 10 1 22 0;
#X connect 11 1 21 0;
#X connect 15 1 16 0;
#X connect 19 1 23 0;
#X connect 19 1 24 0;
#X connect 19 1 25 0;
