#N canvas 110 0 617 190 10;
#X obj 0 0 cnv 15 606 17 empty \$0-rect Inlets (1) 240 8 1 9 -88239
-262144 0;
#X obj 0 39 loadbang;
#X obj 0 117 s \$0-rect;
#X msg 316 39 3 \$2;
#X obj 0 58 list append \$1;
#X msg 0 77 label Inlets (\$1);
#X msg 280 77 \$2;
#X obj 316 58 doc_below c 1 10;
#X obj 169 39 doc_layout i 574 30;
#X obj 169 58 doc_editmode 598 1;
#X obj 205 77 loadbang;
#X obj 205 115 doc_make i \$1;
#X obj 205 96 delay;
#X obj 6 97 doc_iemfont 1 10;
#X connect 1 0 4 0;
#X connect 3 0 7 0;
#X connect 4 0 5 0;
#X connect 5 0 2 0;
#X connect 6 0 11 1;
#X connect 7 0 8 1;
#X connect 8 2 3 0;
#X connect 8 2 6 0;
#X connect 10 0 12 0;
#X connect 12 0 11 0;
#X connect 13 0 2 0;
#X coords 0 -1 1 1 606 17 1 0 0;
