#N canvas 437 169 634 210 10;
#X obj 0 0 cnv 15 606 17 empty \$0-rect ÇÀ 200 8 1 9 -88239 -262144
0;
#X obj 1 158 s \$0-rect;
#X msg 28 76 symbol  ;
#X text 88 75 &nbsp \;;
#X msg 1 118 label \$1;
#X obj 1 19 loadbang;
#X obj 1 99 gf/l2s;
#X obj 1 38 t b b;
#X obj 1 57 args *;
#X obj 7 138 doc_iemfont 1 10;
#X connect 2 0 6 1;
#X connect 4 0 1 0;
#X connect 5 0 7 0;
#X connect 6 0 4 0;
#X connect 7 0 8 0;
#X connect 7 1 2 0;
#X connect 8 0 6 0;
#X connect 9 0 1 0;
#X coords 0 -1 1 1 606 17 1 0 0;
