#N canvas 301 131 593 440 10;
#X floatatom 18 94 5 0 0 0 - - -;
#X text 19 325 inlet: grid | outlet: grid;
#X text 15 241 absolute value;
#X text 363 241 A * A;
#X floatatom 133 94 5 0 0 0 - - -;
#X floatatom 249 95 5 0 0 0 - - -;
#X floatatom 364 95 5 0 0 0 - - -;
#X text 132 242 random non-;
#X text 133 257 negative number;
#X text 133 273 below A;
#X text 246 325 A refers to the left inlet;
#X text 250 257 of A rounded;
#X text 249 242 sqare root;
#X text 250 273 downwards;
#X obj 115 94 bng 15 250 50 0 empty empty empty 0 -6 0 8 -262144 -1
-1;
#X obj 18 197 route int;
#X obj 133 196 route int;
#X obj 250 197 route int;
#X obj 364 197 route int;
#X floatatom 18 217 5 0 0 0 - - -;
#X floatatom 133 216 5 0 0 0 - - -;
#X floatatom 250 217 5 0 0 0 - - -;
#X floatatom 364 217 5 0 0 0 - - -;
#X text 19 371 see also:;
#X text 13 41 computes one of the four basic one-input operators;
#X text 13 56 on each value of a grid;
#X obj 18 111 #import ( 1 );
#X obj 18 144 # abs-;
#X obj 18 178 #export;
#X obj 133 111 #import ( 1 );
#X obj 133 177 #export;
#X obj 249 112 #import ( 1 );
#X obj 249 178 #export;
#X obj 364 113 #import ( 1 );
#X obj 364 177 #export;
#X obj 364 142 # sqrt;
#X obj 94 376 # +;
#X obj 249 145 # sq-;
#X obj 133 143 # rand;
#X text 465 13 GridFlow 0.8.0;
#X text 14 25 [# abs-] \, [# rand] \, [# sqrt] \, [# sq-];
#X text 15 9 the one-input operators:;
#X connect 0 0 26 0;
#X connect 4 0 29 0;
#X connect 5 0 31 0;
#X connect 6 0 33 0;
#X connect 14 0 4 0;
#X connect 15 0 19 0;
#X connect 16 0 20 0;
#X connect 17 0 21 0;
#X connect 18 0 22 0;
#X connect 26 0 27 0;
#X connect 27 0 28 0;
#X connect 28 0 15 0;
#X connect 29 0 38 0;
#X connect 30 0 16 0;
#X connect 31 0 37 0;
#X connect 32 0 17 0;
#X connect 33 0 35 0;
#X connect 34 0 18 0;
#X connect 35 0 34 0;
#X connect 37 0 32 0;
#X connect 38 0 30 0;
