#N canvas 716 268 675 409 10;
#X obj 55 92 #camera;
#X obj 55 32 tgl 15 0 empty empty empty 0 -6 0 8 -24198 -1 -1 0 1;
#X obj 182 142 #out window;
#X obj 130 32 hsl 128 15 20 300 0 0 empty empty empty -2 -6 0 8 -260818
-1 -1 0 1;
#X obj 182 167 fps detailed;
#X obj 182 191 print;
#X obj 55 66 metro 100;
#X obj 93 245 bng 15 250 50 0 empty empty empty 0 -6 0 8 -262144 -1
-1;
#X obj 169 278 bng 15 250 50 0 empty empty empty 0 -6 0 8 -262144 -1
-1;
#X text 189 277 stop recording;
#X text 113 243 select filename;
#X text 151 260 start recording;
#X obj 131 261 bng 15 250 50 0 empty empty empty 0 -6 0 8 -262144 -1
-1;
#X obj 55 300 #record_quicktime;
#X connect 0 0 2 0;
#X connect 0 0 13 0;
#X connect 1 0 6 0;
#X connect 2 0 4 0;
#X connect 3 0 6 1;
#X connect 4 0 5 0;
#X connect 6 0 0 0;
#X connect 7 0 13 1;
#X connect 8 0 13 3;
#X connect 12 0 13 2;
