#N canvas 557 19 555 528 10;
#X obj 345 6 loadbang ;
#X floatatom 348 39 5 0 0 0 - - -;;
#X obj 42 354 @store ;
#X obj 118 53 bng 15 250 50 0 empty empty empty 0 -6 0 8 -262144 -1 -1;
#X obj 347 115 loadbang ;
#X obj 183 60 bng 15 250 50 0 empty empty empty 0 -6 0 8 -262144 -1 -1;
#X obj 348 291 loadbang ;
#X floatatom 348 24 5 0 0 0 - - -;;
#X floatatom 348 164 5 0 0 0 - - -;;
#X floatatom 348 148 5 0 0 0 - - -;;
#X obj 184 109 @outer + ( 0 0 0 );
#X msg 92 196 open ppm file teapot.ppm \, bang;
#X obj 396 151 hsl 128 15 0 1024 0 0 empty empty empty -2 -6 0 8 -262144 -1 -1 0 1;
#X obj 80 411 @apply_colormap_channelwise ;
#X floatatom 349 342 5 0 0 0 - - -;;
#X obj 92 171 bng 15 250 50 0 empty empty empty 0 -6 0 8 -262144 -1 -1;
#X msg 402 201 256;
#X obj 130 513 display ;
#X obj 265 156 toggle ;
#X obj 396 253 hsl 128 15 0 1024 0 0 empty empty empty -2 -6 0 8 -262144 -1 -1 0 1;
#X obj 113 290 demux 2;
#X text 114 171 step 1;
#X msg 401 7 256;
#X text 232 43 step 2;
#X obj 396 42 hsl 128 15 0 1024 0 0 empty empty empty -2 -6 0 8 -262144 -1 -1 0 1;
#X obj 397 343 hsl 128 15 -256 256 0 0 empty empty empty -2 -6 0 8 -262144 -1 -1 0 1;
#X obj 208 64 metro 5;
#X text 407 271 linear (contrast);
#X text 535 135 red\
green\
blue;
#X obj 216 180 demux 2;
#X obj 236 341 @finished ;
#X floatatom 348 252 5 0 0 0 - - -;;
#X obj 348 72 @three ;
#X text 407 182 sigma (extremes);
#X text 536 313 red\
green\
blue;
#X obj 397 315 hsl 128 15 -256 256 0 0 empty empty empty -2 -6 0 8 -262144 -1 -1 0 1;
#X obj 347 201 loadbang ;
#X obj 208 41 toggle ;
#X obj 117 78 for 0 20 1;
#X obj 396 137 hsl 128 15 0 1024 0 0 empty empty empty -2 -6 0 8 -262144 -1 -1 0 1;
#X obj 183 87 @for 0 256 1;
#X floatatom 349 311 5 0 0 0 - - -;;
#X obj 129 490 fps detailed;
#X floatatom 348 221 5 0 0 0 - - -;;
#N canvas 270 244 237 479 10;
#X obj 112 189 @ tanh* 512;
#X obj 23 265 @ + 128;
#X obj 23 190 @ tanh* 65535;
#X obj 23 387 @ +;
#X obj 23 35 inlet;
#X obj 23 461 @ min 255;
#X obj 23 64 @ gamma;
#X obj 112 112 @ max 32;
#X obj 23 324 @ *;
#X obj 70 41 inlet;
#X obj 23 112 @ *;
#X obj 23 90 @ - 128;
#X obj 23 488 outlet 0;
#X obj 112 89 inlet;
#X obj 71 301 inlet;
#X obj 23 136 @ >> 2;
#X text 108 366 constant (brightness);
#X obj 71 365 inlet;
#X obj 23 346 @ >> 8;
#X text 106 302 linear (contrast);
#X text 107 40 gamma;
#X obj 23 438 @ max 0;
#X obj 23 232 @ /;
#X text 148 89 sigma;
#X obj 112 137 @ << 5;
#X text 89 448 trim;
#X connect 0 0 22 1;
#X connect 1 0 8 0;
#X connect 2 0 22 0;
#X connect 3 0 21 0;
#X connect 4 0 6 0;
#X connect 5 0 12 0;
#X connect 6 0 11 0;
#X connect 7 0 10 1;
#X connect 7 0 24 0;
#X connect 8 0 18 0;
#X connect 9 0 6 1;
#X connect 10 0 15 0;
#X connect 11 0 10 0;
#X connect 13 0 7 0;
#X connect 14 0 8 1;
#X connect 15 0 2 0;
#X connect 17 0 3 1;
#X connect 18 0 3 0;
#X connect 21 0 5 0;
#X connect 22 0 1 0;
#X connect 24 0 0 0;
#X restore 237 317 pd color-correction;
#X text 535 26 red\
green\
blue;
#X floatatom 348 55 5 0 0 0 - - -;;
#X obj 396 225 hsl 128 15 0 1024 0 0 empty empty empty -2 -6 0 8 -262144 -1 -1 0 1;
#X obj 349 359 @three ;
#X floatatom 348 236 5 0 0 0 - - -;;
#X text 408 361 constant (brightness);
#X text 535 223 red\
green\
blue;
#X obj 348 269 @three ;
#X obj 230 204 @solarize ;
#X text 407 74 gamma (midtones);
#X text 184 252 toggle to see graph or picture;
#X obj 161 264 toggle ;
#X msg 403 116 0;
#X obj 396 28 hsl 128 15 0 1024 0 0 empty empty empty -2 -6 0 8 -262144 -1 -1 0 1;
#X floatatom 349 326 5 0 0 0 - - -;;
#X obj 396 56 hsl 128 15 0 1024 0 0 empty empty empty -2 -6 0 8 -262144 -1 -1 0 1;
#X obj 396 239 hsl 128 15 0 1024 0 0 empty empty empty -2 -6 0 8 -262144 -1 -1 0 1;
#X floatatom 348 133 5 0 0 0 - - -;;
#X msg 403 291 0;
#X obj 397 329 hsl 128 15 -256 256 0 0 empty empty empty -2 -6 0 8 -262144 -1 -1 0 1;
#X obj 348 181 @three ;
#X obj 129 466 @out x11;
#X obj 396 165 hsl 128 15 0 1024 0 0 empty empty empty -2 -6 0 8 -262144 -1 -1 0 1;
#X obj 92 319 @in ;
#N canvas 1 96 188 188 10;
#X obj 127 89 inlet;
#X obj 55 112 @outer <;
#X obj 55 67 @for 0 256 1;
#X obj 55 155 @ & 255;
#X obj 55 134 @ inv+;
#X obj 55 22 inlet;
#X obj 55 90 @ inv+ 255;
#X obj 55 43 bng 15 250 50 0 empty empty empty 0 -6 0 8 -262144 -1 -1;
#X obj 55 177 outlet 0;
#X connect 0 0 1 1;
#X connect 1 0 4 0;
#X connect 2 0 6 0;
#X connect 3 0 8 0;
#X connect 4 0 3 0;
#X connect 5 0 7 0;
#X connect 6 0 1 0;
#X connect 7 0 2 0;
#X restore 117 369 pd color correction graph generator;
#X connect 0 0 22 0;
#X connect 1 0 32 1;
#X connect 2 0 13 0;
#X connect 3 0 38 0;
#X connect 4 0 57 0;
#X connect 5 0 40 0;
#X connect 6 0 63 0;
#X connect 7 0 32 0;
#X connect 8 0 65 2;
#X connect 9 0 65 1;
#X connect 10 0 29 0;
#X connect 11 0 68 0;
#X connect 12 0 9 0;
#X connect 13 0 66 0;
#X connect 14 0 48 2;
#X connect 15 0 11 0;
#X connect 16 0 47 0;
#X connect 16 0 61 0;
#X connect 16 0 19 0;
#X connect 18 0 29 1;
#X connect 19 0 31 0;
#X connect 20 0 2 0;
#X connect 20 1 69 0;
#X connect 22 0 58 0;
#X connect 22 0 24 0;
#X connect 22 0 60 0;
#X connect 24 0 1 0;
#X connect 25 0 14 0;
#X connect 26 0 40 0;
#X connect 29 0 44 0;
#X connect 29 1 53 0;
#X connect 30 0 20 0;
#X connect 31 0 52 2;
#X connect 32 0 44 1;
#X connect 35 0 41 0;
#X connect 36 0 16 0;
#X connect 37 0 26 0;
#X connect 38 0 5 0;
#X connect 39 0 62 0;
#X connect 40 0 10 0;
#X connect 41 0 48 0;
#X connect 42 0 17 0;
#X connect 43 0 52 0;
#X connect 44 0 13 1;
#X connect 44 0 30 0;
#X connect 44 0 69 1;
#X connect 46 0 32 2;
#X connect 47 0 43 0;
#X connect 48 0 44 4;
#X connect 49 0 52 1;
#X connect 52 0 44 3;
#X connect 53 0 44 0;
#X connect 56 0 20 1;
#X connect 57 0 39 0;
#X connect 57 0 12 0;
#X connect 57 0 67 0;
#X connect 58 0 7 0;
#X connect 59 0 48 1;
#X connect 60 0 46 0;
#X connect 61 0 49 0;
#X connect 62 0 65 0;
#X connect 63 0 64 0;
#X connect 63 0 35 0;
#X connect 63 0 25 0;
#X connect 64 0 59 0;
#X connect 65 0 44 2;
#X connect 66 0 42 0;
#X connect 67 0 8 0;
#X connect 68 0 2 1;
#X connect 69 0 66 0;
