#N canvas 556 198 528 491 10;
#X obj 294 353 @for ( 0 0 ) ( 256 256 ) ( 1 1 );
#X obj 262 108 @ inv* 10000;
#X obj 47 249 @ >> 10;
#X obj 47 30 fork ;
#X obj 180 289 bng 15 250 50 0 empty empty empty 0 -6 0 8 -262144 -1 -1;
#X obj 95 480 fps detailed;
#X obj 47 363 @ +;
#X obj 47 204 @outer + ( 0 0 );
#X obj 47 49 @store ;
#X floatatom 85 71 5 0 0 0 - - -;;
#X obj 294 331 loadbang ;
#X text 188 250 shading on/off;
#X obj 351 170 @ sin* 256;
#X obj 351 104 loadbang ;
#N canvas 588 233 480 480 10;
#X obj 71 163 @outer atan;
#X obj 168 106 @for -128 128 1;
#X obj 71 55 @finished ;
#X obj 71 107 @for -128 128 1;
#X text 70 210 angles to centre;
#X obj 167 82 inlet;
#X obj 72 188 outlet 0;
#X text 168 63 bang;
#X obj 71 78 bng 15 250 50 0 empty empty empty 0 -6 0 8 -262144 -1 -1;
#X connect 0 0 6 0;
#X connect 1 0 0 1;
#X connect 1 0 2 0;
#X connect 2 0 8 0;
#X connect 3 0 0 0;
#X connect 5 0 1 0;
#X connect 8 0 3 0;
#X restore 351 125 pd angle map;
#X obj 151 4 toggle ;
#N canvas 609 247 480 480 10;
#X text 16 15 bang;
#X obj 18 149 outlet 0;
#X text 15 167 distances to middle;
#X obj 18 103 @fold +;
#X obj 18 58 @for ( -128 -128 ) ( 128 128 ) ( 1 1 );
#X obj 18 125 @! sqrt;
#X obj 18 81 @ ** 2;
#X obj 18 36 inlet;
#X connect 3 0 5 0;
#X connect 4 0 6 0;
#X connect 5 0 1 0;
#X connect 6 0 3 0;
#X connect 7 0 4 0;
#X restore 262 63 pd distance map;
#X obj 56 335 @store ;
#X obj 162 252 toggle ;
#X obj 47 407 demux 2;
#N canvas 580 234 480 480 10;
#X obj 115 17 loadbang ;
#X obj 115 105 @ sin* 64;
#X obj 17 84 @outer + ( 0 );
#X obj 17 57 inlet;
#X obj 93 14 bng 15 250 50 0 empty empty empty 0 -6 0 8 -262144 -1 -1;
#X obj 17 181 outlet 0;
#X obj 115 84 @ * 900;
#X obj 17 158 @store ;
#X obj 115 63 @for 0 1000 1;
#X connect 0 0 8 0;
#X connect 1 0 7 1;
#X connect 2 0 7 0;
#X connect 3 0 2 0;
#X connect 4 0 8 0;
#X connect 6 0 1 0;
#X connect 7 0 5 0;
#X connect 8 0 6 0;
#X restore 47 133 pd @fastsin;
#X msg 71 71 1;
#X text 175 7 here next;
#X obj 47 385 @store ;
#X msg 181 314 open ppm file teapot.ppm \, bang;
#X obj 180 351 @in ;
#X obj 47 177 @ >> 8;
#X obj 71 88 + ;
#X obj 47 110 @ -;
#X obj 95 502 display ;
#X obj 351 149 @outer + ( 0 9000 );
#X obj 95 459 @out x11;
#X obj 47 156 @ *;
#X text 204 291 step 1;
#X obj 57 313 @finished ;
#X obj 272 18 bng 15 250 50 0 empty empty empty 0 -6 0 8 -262144 -1 -1;
#X obj 262 87 @ + 10;
#X obj 47 272 demux 2;
#X obj 47 4 bng 15 250 50 0 empty empty empty 0 -6 0 8 -262144 -1 -1;
#X obj 151 28 metro 5;
#N canvas 632 280 480 480 10;
#X obj 12 16 inlet;
#X obj 60 99 @outer + ( 0 0 0 );
#X obj 60 16 inlet;
#X obj 12 124 @ +;
#X obj 60 73 @ * 5;
#X obj 12 145 @ min 255;
#X obj 12 190 outlet 0;
#X obj 12 166 @ max 0;
#X obj 60 48 @fold + 0;
#X connect 0 0 3 0;
#X connect 1 0 3 1;
#X connect 2 0 8 0;
#X connect 3 0 5 0;
#X connect 4 0 1 0;
#X connect 5 0 7 0;
#X connect 7 0 6 0;
#X connect 8 0 4 0;
#X restore 95 434 pd apply shading;
#X obj 47 227 @ *;
#X obj 262 41 loadbang ;
#X connect 0 0 6 1;
#X connect 1 0 32 1;
#X connect 2 0 37 0;
#X connect 3 0 8 0;
#X connect 3 1 21 0;
#X connect 4 0 24 0;
#X connect 5 0 29 0;
#X connect 6 0 23 0;
#X connect 7 0 41 0;
#X connect 8 0 28 0;
#X connect 9 0 27 1;
#X connect 10 0 0 0;
#X connect 12 0 41 1;
#X connect 13 0 14 0;
#X connect 14 0 30 0;
#X connect 15 0 39 0;
#X connect 16 0 36 0;
#X connect 16 0 8 1;
#X connect 17 0 6 0;
#X connect 18 0 37 1;
#X connect 18 0 19 1;
#X connect 19 0 40 0;
#X connect 19 1 31 0;
#X connect 20 0 32 0;
#X connect 21 0 27 0;
#X connect 23 0 19 0;
#X connect 24 0 25 0;
#X connect 25 0 23 1;
#X connect 26 0 7 0;
#X connect 27 0 9 0;
#X connect 27 0 28 1;
#X connect 28 0 20 0;
#X connect 30 0 12 0;
#X connect 31 0 5 0;
#X connect 32 0 26 0;
#X connect 34 0 17 0;
#X connect 35 0 16 0;
#X connect 36 0 1 0;
#X connect 37 0 40 1;
#X connect 37 0 17 1;
#X connect 37 0 34 0;
#X connect 37 1 6 0;
#X connect 38 0 3 0;
#X connect 39 0 38 0;
#X connect 40 0 31 0;
#X connect 41 0 2 0;
#X connect 42 0 16 0;
