#N canvas 373 118 503 466 10;
#X obj 15 235 display ;
#X floatatom 165 101 5 0 0 0 - - -;;
#X text 305 78 global saturation;
#X obj 213 155 hsl 128 15 -256 512 0 0 empty empty empty -2 -6 0 8 -262144 -1 -1 0 1;
#X obj 14 52 toggle ;
#X text 351 126 Red Green Blue;
#X obj 14 177 @out x11;
#X text 37 54 Click Me Gently :-);
#X msg 166 34 0;
#N canvas 501 202   10;
#X obj 148 387 @ *;
#X obj 194 53 display ;
#X obj 148 82 @rgb_to_greyscale ;
#X text 253 410 cross-fading the original picture with its greyed version;
#X obj 190 490 @ min 255;
#X obj 74 22 inlet;
#X obj 148 365 @store ;
#X obj 148 129 @inner * + 0 ( 1 3 # 1 1 1 );
#X obj 191 434 @ >> 8;
#X obj 148 199 @finished ;
#X obj 74 51 fork ;
#X msg 302 122 0;
#X text 14 26 input picture comes in here;
#X obj 148 175 @ *;
#X obj 303 101 loadbang ;
#X obj 191 413 @ +;
#X text 372 123 saturation factor:\
0 = grey\
256 = identity;
#X obj 190 512 outlet 0;
#X obj 335 145 inlet;
#X text 251 467 keep values inside visible range;
#X obj 247 168 @ inv+ 255;
#X obj 335 213 fork ;
#X text 70 100 convert to greyscale and back to rgb;
#X obj 191 469 @ max 0;
#X connect 0 0 15 0;
#X connect 2 0 1 0;
#X connect 2 0 7 0;
#X connect 4 0 17 0;
#X connect 5 0 10 0;
#X connect 6 0 0 0;
#X connect 7 0 13 0;
#X connect 8 0 23 0;
#X connect 9 0 6 0;
#X connect 10 0 6 1;
#X connect 10 0 2 0;
#X connect 11 0 21 0;
#X connect 13 0 9 0;
#X connect 13 0 15 1;
#X connect 14 0 11 0;
#X connect 15 0 8 0;
#X connect 18 0 21 0;
#X connect 20 0 13 1;
#X connect 21 0 20 0;
#X connect 21 0 0 1;
#X connect 23 0 4 0;
#X restore 14 153 pd @saturation;
#X obj 15 199 fps detailed;
#X text 388 132 per-channel saturation;
#X obj 166 13 loadbang ;
#X obj 14 130 @in ;
#X obj 213 141 hsl 128 15 -256 512 0 0 empty empty empty -2 -6 0 8 -262144 -1 -1 0 1;
#X obj 165 78 hsl 128 15 -256 512 0 0 empty empty empty -2 -6 0 8 -262144 -1 -1 0 1;
#X msg 14 97 open ppm file teapot.ppm \, bang;
#X obj 14 75 metro 10;
#X floatatom 166 156 5 0 0 0 - - -;;
#X floatatom 166 140 5 0 0 0 - - -;;
#X text 327 99 OR;
#X floatatom 166 125 5 0 0 0 - - -;;
#X obj 165 174 @three ;
#X obj 213 127 hsl 128 15 -256 512 0 0 empty empty empty -2 -6 0 8 -262144 -1 -1 0 1;
#X connect 1 0 3 0;
#X connect 1 0 14 0;
#X connect 1 0 23 0;
#X connect 3 0 18 0;
#X connect 4 0 17 0;
#X connect 6 0 10 0;
#X connect 8 0 15 0;
#X connect 9 0 6 0;
#X connect 10 0 0 0;
#X connect 12 0 8 0;
#X connect 13 0 9 0;
#X connect 14 0 19 0;
#X connect 15 0 1 0;
#X connect 16 0 13 0;
#X connect 17 0 16 0;
#X connect 18 0 22 2;
#X connect 19 0 22 1;
#X connect 21 0 22 0;
#X connect 22 0 9 1;
#X connect 23 0 21 0;
