#N canvas 599 22 420 375 10;
#X obj 81 31 cnv 15 184 68 empty empty empty 20 12 0 14 -233017 -66577
0;
#X obj 143 34 hradio 12 1 0 4 \$0-s_channel \$0-channel _0_1_2_3 -2
7 1 8 -233017 -195568 -195568 0;
#N canvas 0 0 906 659 camera 0;
#X obj 276 477 outlet;
#X obj 11 12 inlet;
#X obj 139 239 t a;
#X obj 625 367 makefilename /dev/video%d;
#X obj 184 438 spigot;
#X obj 308 584 args (device a -1);
#X obj 308 622 s \$0-device;
#X obj 184 460 route pwc;
#X msg 184 479 pwc \$1 \, get;
#X obj 101 31 list split 1;
#X obj 101 50 makefilename \$0-%s;
#X obj 101 107 s;
#X obj 101 88 list;
#X obj 101 69 t b s;
#X msg 646 405 open dc1394 \, get;
#X msg 381 318 colorspace \$1;
#X obj 231 71 list prepend;
#X obj 231 90 list trim;
#X obj 231 169 foreach;
#X obj 231 188 makefilename \$0-%s;
#X msg 231 207 \; \$1 color 10 20 20;
#X msg 110 162 \; \$1 color 18 17 22;
#X obj 221 400 t b a b b;
#X obj 381 261 s \$0-colorspace_e;
#X obj 381 280 r \$0-s_colorspace_e;
#X obj 625 195 r \$0-s_device;
#X msg 279 419 0;
#X msg 221 419 1;
#X obj 371 220 route2 color;
#X obj 371 201 r \$0-colorspace;
#X obj 635 543 s \$0-title;
#X msg 635 524 label \$1;
#X obj 563 486 r \$0-name;
#X obj 563 505 route color;
#X msg 622 437 close;
#X msg 622 458 label No_camera_selected;
#X msg 231 241 label Unknown_camera;
#X obj 231 260 s \$0-title;
#X obj 602 13 r \$0-minsize;
#X obj 602 51 unpack 0 0;
#X obj 659 70 s \$0-minwidth;
#X obj 602 89 s \$0-minheight;
#X obj 743 51 unpack 0 0;
#X obj 743 13 r \$0-maxsize;
#X obj 743 89 s \$0-maxheight;
#X obj 800 70 s \$0-maxwidth;
#X obj 602 32 route list;
#X obj 743 32 route list;
#X obj 778 454 s \$0-minsize;
#X msg 778 433 0 0;
#X obj 788 474 s \$0-maxsize;
#X obj 625 214 t a b;
#X obj 166 501 r \$0-palette;
#X obj 238 539 s \$0-palette2;
#X msg 238 520 label \$1;
#X obj -13 143 route minsize maxsize;
#X obj 166 520 route color;
#X obj 231 13 receives \$0-s_ channel tuner frequency brightness contrast
colour hue whiteness white_mode white_red white_blue white_speed white_delay
auto_gain framerate noise_reduction compression pwc size colorspace
norm transfer;
#X msg 231 111 list channel tuner frequency brightness contrast colour
hue whiteness white_mode white_red white_blue white_speed white_delay
auto_gain framerate noise_reduction compression pwc size colorspace
norm transfer;
#X obj 714 510 r \$0-transfer;
#X obj 754 549 listfind read mmap;
#X obj 744 568 s \$0-transfer_e;
#X obj 744 587 r \$0-s_transfer_e;
#X obj 744 606 listread read mmap;
#X msg 744 625 transfer \$1;
#X obj 714 529 route2 color;
#X msg 668 348 open quicktimecamera \$1 \, get;
#X obj 668 329 - 9;
#X obj 11 31 route not_open;
#X obj 11 88 s \$0-device;
#X obj 11 50 delay 200;
#X obj 381 242 listfind y yuv rgb rgba magic none;
#X obj 381 299 listread y yuv rgb rgba magic none;
#X obj 690 282 makefilename /dev/video%d;
#X msg 690 301 open v4l2 \$1 \, get;
#X obj 690 263 - 13;
#X obj 625 244 range 8 9 13 21;
#X msg 11 69 21;
#X obj 308 603 mod 22;
#X msg 625 386 open videodev \$1 0 \, get;
#X obj 509 355 t a;
#X connect 1 0 68 0;
#X connect 2 0 4 0;
#X connect 3 0 79 0;
#X connect 4 0 7 0;
#X connect 5 0 78 0;
#X connect 7 0 8 0;
#X connect 7 1 0 0;
#X connect 8 0 22 0;
#X connect 9 0 10 0;
#X connect 9 1 12 1;
#X connect 10 0 13 0;
#X connect 10 0 55 0;
#X connect 12 0 11 0;
#X connect 13 0 12 0;
#X connect 13 1 11 1;
#X connect 14 0 80 0;
#X connect 15 0 2 0;
#X connect 16 0 17 0;
#X connect 17 0 2 0;
#X connect 18 0 19 0;
#X connect 19 0 20 0;
#X connect 22 0 27 0;
#X connect 22 1 0 0;
#X connect 22 2 36 0;
#X connect 22 2 58 0;
#X connect 22 3 26 0;
#X connect 24 0 72 0;
#X connect 25 0 51 0;
#X connect 26 0 4 1;
#X connect 27 0 4 1;
#X connect 28 0 23 0;
#X connect 28 1 71 0;
#X connect 29 0 28 0;
#X connect 31 0 30 0;
#X connect 32 0 33 0;
#X connect 33 1 31 0;
#X connect 34 0 35 0;
#X connect 34 0 49 0;
#X connect 34 0 80 0;
#X connect 35 0 30 0;
#X connect 36 0 37 0;
#X connect 38 0 46 0;
#X connect 39 0 41 0;
#X connect 39 1 40 0;
#X connect 42 0 44 0;
#X connect 42 1 45 0;
#X connect 43 0 47 0;
#X connect 46 0 39 0;
#X connect 47 0 42 0;
#X connect 49 0 48 0;
#X connect 49 0 50 0;
#X connect 51 0 76 0;
#X connect 51 1 49 0;
#X connect 52 0 56 0;
#X connect 54 0 53 0;
#X connect 55 2 21 0;
#X connect 56 1 54 0;
#X connect 57 0 16 0;
#X connect 57 1 16 1;
#X connect 58 0 18 0;
#X connect 59 0 65 0;
#X connect 60 0 61 0;
#X connect 62 0 63 0;
#X connect 63 0 64 0;
#X connect 64 0 2 0;
#X connect 65 0 61 0;
#X connect 65 1 60 0;
#X connect 66 0 80 0;
#X connect 67 0 66 0;
#X connect 68 0 70 0;
#X connect 68 1 9 0;
#X connect 70 0 77 0;
#X connect 71 0 23 0;
#X connect 72 0 15 0;
#X connect 73 0 74 0;
#X connect 74 0 80 0;
#X connect 75 0 73 0;
#X connect 76 0 3 0;
#X connect 76 1 14 0;
#X connect 76 2 67 0;
#X connect 76 3 75 0;
#X connect 76 4 34 0;
#X connect 77 0 69 0;
#X connect 78 0 6 0;
#X connect 79 0 80 0;
#X connect 80 0 22 0;
#X restore 34 450 pd camera;
#X obj 7 469 outlet image;
#X obj 7 382 inlet;
#X obj 143 46 hradio 12 1 0 4 \$0-s_tuner \$0-tuner _0_1_2_3 -2 7 1
8 -233017 -195568 -195568 0;
#X obj 46 382 r \$0-o;
#X text 84 35 channel:;
#X text 98 47 tuner:;
#X obj 6 31 cnv 15 70 311 empty empty empty 20 12 0 14 -233017 -66577
0;
#X text 9 31 device:;
#X obj 11 50 vradio 12 1 0 22 \$0-s_device \$0-device empty 0 -6 0
8 -241291 -1 -1 0;
#X obj 81 105 cnv 15 184 177 empty empty empty 20 12 0 14 -233017 -66577
0;
#X obj 270 214 cnv 15 144 155 empty \$0-palette2 YUV420P 86 8 0 10
-233017 -1 0;
#X obj 270 31 cnv 15 144 178 empty empty empty 20 12 0 14 -233017 -66577
0;
#X obj 312 66 nbx 5 14 -1e+37 1e+37 0 0 \$0-s_height \$0-height empty
0 -6 1 10 -62784 -44926 -1 480 256;
#X obj 360 66 nbx 5 14 -1e+37 1e+37 0 0 \$0-s_width \$0-width empty
0 -6 1 10 -62784 -44926 -1 640 256;
#X text 275 65 size:;
#X text 315 35 height;
#X text 365 35 width;
#X obj 329 124 bng 12 250 50 0 \$0-size0 \$0-sizec 120x160 -46 6 1
8 -62784 -44926 -1;
#X obj 344 124 bng 12 250 50 0 \$0-size1 \$0-sizec 120x180 16 6 1 8
-62784 -44926 -1;
#X obj 329 136 bng 12 250 50 0 \$0-size2 \$0-sizec 240x320 -46 6 1
8 -62784 -44926 -1;
#X obj 344 136 bng 12 250 50 0 \$0-size3 \$0-sizec 240x360 16 6 1 8
-62784 -44926 -1;
#X obj 329 148 bng 12 250 50 0 \$0-size4 \$0-sizec 480x640 -46 6 1
8 -62784 -44926 -1;
#X obj 344 148 bng 12 250 50 0 \$0-size5 \$0-sizec 480x720 16 6 1 8
-62784 -44926 -1;
#X obj 344 160 bng 12 250 50 0 \$0-size6 \$0-sizec 576x720 16 6 1 8
-62784 -44926 -1;
#X obj 344 172 bng 12 250 50 0 \$0-size7 \$0-sizec 288x352 16 6 1 8
-62784 -44926 -1;
#X obj 360 191 nbx 5 14 -1e+37 1e+37 0 0 \$0-s_framerate \$0-framerate
empty 0 -6 1 10 -233017 -195568 -195568 0 256;
#X obj 83 178 tgl 12 0 \$0-s_white_mode \$0-white_mode manual_white_balance
20 7 1 8 -233017 -195568 -195568 0 65535;
#X text 25 47 #0;
#X text 25 59 #1;
#X text 25 71 #2;
#X text 25 83 #3;
#X text 25 95 #4;
#X text 25 119 #6;
#X text 25 131 #7;
#X text 317 106 presets:;
#X text 90 166 ------- PWC ONLY: -------;
#X obj 83 256 hradio 12 1 0 4 \$0-s_noise_reduction \$0-noise_reduction
_0_1_2_3_noise_reduction -2 7 1 8 -233017 -195568 -195568 0;
#X obj 83 268 hradio 12 1 0 4 \$0-s_compression \$0-compression _0_1_2_3_compression
-2 7 1 8 -233017 -195568 -195568 0;
#X obj 11 325 tgl 12 0 \$0-s_pwc \$0-pwc empty 20 7 1 10 -62784 -44926
-1 0 1;
#X text 26 323 use PWC;
#X text 24 143 DC1394;
#X obj 345 232 vradio 12 1 0 6 \$0-s_colorspace_e \$0-colorspace_e
empty 0 -8 0 10 -62784 -44926 -1 2;
#X text 359 228 y (grey);
#X text 359 240 yuv;
#X text 358 253 rgb;
#X text 269 246 Colorspaces:;
#N canvas 0 22 450 300 command_filtre 0;
#X obj 22 24 inlet;
#X obj 22 92 outlet;
#X obj 22 43 route bang device;
#X obj 79 122 s \$0-device;
#X connect 0 0 2 0;
#X connect 2 0 1 0;
#X connect 2 1 3 0;
#X connect 2 2 1 0;
#X restore 7 401 pd command_filtre;
#X text 287 191 framerate:;
#X obj 201 34 vradio 12 1 0 4 \$0-s_norm \$0-norm empty 0 -8 0 10 -233017
-195568 -195568 0;
#X text 214 33 PAL;
#X text 214 45 NTSC;
#X text 213 57 SECAM;
#X text 213 68 auto;
#X obj 6 6 cnv 15 408 20 empty \$0-title Logitech_QuickCam_Pro_4000
4 10 1 12 -1 -262144 0;
#X obj 345 315 vradio 12 1 0 2 \$0-s_transfer_e \$0-transfer_e empty
0 -8 0 10 -62784 -44926 -1 1;
#X text 286 319 Transfer:;
#X text 359 313 read;
#X text 360 325 mmap;
#X obj 312 52 nbx 5 14 -1e+37 1e+37 0 0 empty \$0-minheight empty 0
-6 1 10 -233017 -1 -195568 120 256;
#X obj 360 52 nbx 5 14 -1e+37 1e+37 0 0 empty \$0-minwidth empty 0
-6 1 10 -233017 -1 -195568 160 256;
#X obj 312 80 nbx 5 14 -1e+37 1e+37 0 0 empty \$0-maxheight empty 0
-6 1 10 -233017 -1 -195568 480 256;
#X obj 360 80 nbx 5 14 -1e+37 1e+37 0 0 empty \$0-maxwidth empty 0
-6 1 10 -233017 -1 -195568 640 256;
#X text 275 79 max:;
#X text 275 51 min:;
#X text 297 214 Palette:;
#X obj 43 54 cnv 1 3 1 empty empty empty 20 12 0 14 -1 -66577 0;
#X obj 43 142 cnv 1 3 1 empty empty empty 20 12 0 14 -1 -66577 0;
#X obj 46 55 cnv 1 1 42 empty empty empty 20 12 0 14 -1 -66577 0;
#X obj 47 98 cnv 1 3 1 empty empty V4L1 5 0 0 8 -1 -66577 0;
#X obj 46 100 cnv 1 1 42 empty empty empty 20 12 0 14 -1 -66577 0;
#X text 24 299 OFF;
#X obj 83 107 gf.nbxhsl \$0 contrast;
#X obj 7 450 #in;
#X obj 83 119 gf.nbxhsl \$0 brightness;
#X obj 83 131 gf.nbxhsl \$0 colour;
#X obj 83 143 gf.nbxhsl \$0 hue;
#X obj 83 155 gf.nbxhsl \$0 whiteness;
#X obj 83 193 gf.nbxhsl \$0 white_red;
#X obj 83 205 gf.nbxhsl \$0 white_blue;
#X obj 83 217 gf.nbxhsl \$0 white_speed;
#X obj 83 229 gf.nbxhsl \$0 white_delay;
#X obj 83 241 gf.nbxhsl \$0 auto_gain;
#X obj 83 85 gf.nbxhsl \$0 frequency;
#X text 359 289 none(bad);
#X text 359 276 magic;
#X text 25 155 #0;
#X text 25 167 #1;
#X text 25 179 #2;
#X text 25 191 #3;
#X obj 43 164 cnv 1 3 1 empty empty empty 20 12 0 14 -1 -66577 0;
#X obj 46 166 cnv 1 1 16 empty empty empty 20 12 0 14 -1 -66577 0;
#X obj 47 183 cnv 1 3 1 empty empty OSX 6 0 0 8 -1 -66577 0;
#X obj 43 201 cnv 1 3 1 empty empty empty 20 12 0 14 -1 -66577 0;
#X obj 46 185 cnv 1 1 16 empty empty empty 20 12 0 14 -1 -66577 0;
#X text 358 265 rgba;
#N canvas 0 0 471 405 size_presets 0;
#X msg 123 314 size \$1 \$2;
#X obj 48 13 r \$0-size0;
#X msg 123 13 120 160;
#X msg 123 32 120 180;
#X obj 48 32 r \$0-size1;
#X msg 123 51 240 320;
#X msg 123 70 240 360;
#X obj 48 51 r \$0-size2;
#X obj 48 70 r \$0-size3;
#X obj 48 89 r \$0-size4;
#X obj 48 108 r \$0-size5;
#X msg 123 89 480 640;
#X msg 123 108 480 720;
#X obj 48 127 r \$0-size6;
#X obj 48 146 r \$0-size7;
#X msg 123 127 576 720;
#X msg 123 146 288 352;
#X obj 123 209 unpack 0 0;
#X obj 218 228 s \$0-width;
#X obj 123 228 s \$0-height;
#X obj 123 276 #pack;
#X obj 123 295 #to_list;
#X obj 123 248 r \$0-s_height;
#X obj 218 248 r \$0-s_width;
#X obj 30 191 r \$0-size;
#X obj 30 210 route2 color;
#X obj 30 229 s \$0-sizec;
#X obj 21 248 s \$0-width;
#X obj 11 268 s \$0-height;
#X obj 123 333 outlet;
#X connect 0 0 29 0;
#X connect 1 0 2 0;
#X connect 2 0 17 0;
#X connect 3 0 17 0;
#X connect 4 0 3 0;
#X connect 5 0 17 0;
#X connect 6 0 17 0;
#X connect 7 0 5 0;
#X connect 8 0 6 0;
#X connect 9 0 11 0;
#X connect 10 0 12 0;
#X connect 11 0 17 0;
#X connect 12 0 17 0;
#X connect 13 0 15 0;
#X connect 14 0 16 0;
#X connect 15 0 17 0;
#X connect 16 0 17 0;
#X connect 17 0 19 0;
#X connect 17 1 18 0;
#X connect 20 0 21 0;
#X connect 21 0 0 0;
#X connect 22 0 20 0;
#X connect 23 0 20 1;
#X connect 24 0 25 0;
#X connect 25 0 26 0;
#X connect 25 0 27 0;
#X connect 25 0 28 0;
#X connect 25 1 17 0;
#X restore 34 420 pd size_presets;
#X text 25 107 #5;
#X text 25 203 #0;
#X text 25 215 #1;
#X text 25 227 #2;
#X text 25 239 #3;
#X text 25 251 #4;
#X text 25 275 #6;
#X text 25 287 #7;
#X obj 43 210 cnv 1 3 1 empty empty empty 20 12 0 14 -1 -66577 0;
#X obj 43 298 cnv 1 3 1 empty empty empty 20 12 0 14 -1 -66577 0;
#X obj 46 211 cnv 1 1 42 empty empty empty 20 12 0 14 -1 -66577 0;
#X obj 47 254 cnv 1 3 1 empty empty V4L2 5 0 0 8 -1 -66577 0;
#X obj 46 256 cnv 1 1 42 empty empty empty 20 12 0 14 -1 -66577 0;
#X text 25 263 #5;
#X connect 2 0 75 0;
#X connect 4 0 49 0;
#X connect 6 0 75 0;
#X connect 49 0 75 0;
#X connect 75 0 3 0;
#X connect 75 1 2 0;
#X connect 98 0 75 0;
