#N canvas 273 276 381 232 10;
#X obj 64 38 inlet;
#X obj 64 134 #fold |;
#X obj 123 126 #store;
#X obj 64 115 #ravel;
#X obj 64 153 #to_float;
#X obj 123 145 outlet;
#X obj 64 57 t a a a;
#X obj 64 172 sel 1;
#X obj 188 25 loadbang;
#X obj 188 82 args (initial a 0);
#X obj 204 133 display;
#X obj 188 44 gf.oneshot;
#X obj 188 63 b;
#X text 255 43 BAD HACK;
#X text 211 62 THIS TOO;
#X obj 64 96 # !=;
#X connect 0 0 6 0;
#X connect 1 0 4 0;
#X connect 2 0 5 0;
#X connect 3 0 1 0;
#X connect 4 0 7 0;
#X connect 6 0 15 1;
#X connect 6 1 15 0;
#X connect 6 2 2 1;
#X connect 7 0 2 0;
#X connect 8 0 11 0;
#X connect 9 0 15 1;
#X connect 11 0 12 0;
#X connect 12 0 9 0;
#X connect 15 0 3 0;
#X connect 15 0 10 0;
