#N canvas 184 193 663 373 10;
#X obj 76 87 hsl 128 14 0 255 0 0 \$0-g1 \$0-g0 empty -2 -6 0 8 -225271
-24198 -1 6900 1;
#X obj 76 101 hsl 128 14 0 255 0 0 \$0-b1 \$0-b0 empty -2 -6 0 8 -228992
-62784 -1 8000 1;
#X obj 76 73 hsl 128 14 0 255 0 0 \$0-r1 \$0-r0 empty -2 -6 0 8 -261689
-258699 -1 6500 1;
#X obj 10 166 #pack 3;
#X obj 39 -6 inlet rgb_color;
#X obj 15 188 outlet rgb_color;
#X obj 122 61 cnv 10 60 10 empty \$0-cnv empty 20 12 0 14 -133289 -262144
0;
#X obj 10 343 s \$0-cnv;
#X msg 10 324 color \$1;
#X obj 10 267 #to_float;
#X obj 10 248 # ^ -1;
#X obj 10 229 #fold |;
#X obj 216 123 loadbang;
#X msg 216 199 range \$1 \$2;
#X obj 216 180 #to_list;
#X obj 64 267 loadbang;
#X obj 64 305 - \$3;
#X msg 64 286 1;
#X obj 10 305 spigot;
#X obj 150 267 #unpack 3;
#X obj 216 161 # || (0 255);
#X obj 10 210 # << (16 8 0);
#X obj 216 142 #store ( \$1 \$2 );
#X floatatom 50 71 3 0 255 0 - #0-r2 #0-r3;
#X floatatom 50 85 3 0 255 0 - #0-g2 #0-g3;
#X floatatom 50 99 3 0 255 0 - #0-b2 #0-b3;
#X obj 356 71 int;
#X obj 38 13 route delegate bang;
#X obj 230 256 s \$0-b0;
#X obj 223 237 s \$0-g0;
#X obj 216 218 s \$0-r0;
#X obj 356 52 r \$0-r1;
#X obj 356 90 s \$0-r2;
#X obj 406 71 int;
#X obj 456 71 int;
#X obj 406 52 r \$0-g1;
#X obj 406 90 s \$0-g2;
#X obj 456 52 r \$0-b1;
#X obj 456 90 s \$0-b2;
#X obj 49 147 r \$0-b3;
#X obj 29 128 r \$0-g3;
#X obj 10 109 r \$0-r3;
#X connect 3 0 5 0;
#X connect 3 0 21 0;
#X connect 4 0 27 0;
#X connect 8 0 7 0;
#X connect 9 0 18 0;
#X connect 10 0 9 0;
#X connect 11 0 10 0;
#X connect 12 0 22 0;
#X connect 13 0 30 0;
#X connect 13 0 29 0;
#X connect 13 0 28 0;
#X connect 14 0 13 0;
#X connect 15 0 17 0;
#X connect 16 0 18 1;
#X connect 17 0 16 0;
#X connect 18 0 8 0;
#X connect 19 0 30 0;
#X connect 19 1 29 0;
#X connect 19 2 28 0;
#X connect 20 0 14 0;
#X connect 21 0 11 0;
#X connect 22 0 20 0;
#X connect 26 0 32 0;
#X connect 27 0 2 0;
#X connect 27 0 0 0;
#X connect 27 0 1 0;
#X connect 27 1 2 0;
#X connect 27 2 19 0;
#X connect 31 0 26 0;
#X connect 33 0 36 0;
#X connect 34 0 38 0;
#X connect 35 0 33 0;
#X connect 37 0 34 0;
#X connect 39 0 3 2;
#X connect 40 0 3 1;
#X connect 41 0 3 0;
#X coords 0 -1 1 1 156 55 1 50 60;
