#N canvas 574 271 567 276 10;
#X obj 19 20 inlet;
#X obj 19 216 outlet;
#X obj 91 216 outlet;
#X obj 182 21 loadbang;
#X obj 182 40 args *;
#N canvas 116 23 450 300 \$0-placeholder 0;
#X obj 0 0 r \$1-in;
#X obj 0 50 gf.error not open;
#X connect 0 0 1 0;
#X restore 19 159 pd \$0-placeholder;
#X obj 19 140 s \$0-in;
#X obj 19 178 r \$0-out;
#X obj 19 197 route2 grid;
#X obj 57 90 route bang;
#X msg 57 110 bang;
#X text 91 111 hack.;
#X obj 197 114 s pd-\$0-placeholder;
#X obj 197 95 gf.io_generate \$0 in;
#X obj 19 39 route open close;
#X msg 206 70 bang;
#X connect 0 0 14 0;
#X connect 3 0 4 0;
#X connect 4 0 13 0;
#X connect 7 0 8 0;
#X connect 8 0 1 0;
#X connect 8 1 2 0;
#X connect 9 0 10 0;
#X connect 9 1 6 0;
#X connect 10 0 6 0;
#X connect 13 0 12 0;
#X connect 14 0 13 0;
#X connect 14 1 15 0;
#X connect 14 2 9 0;
#X connect 15 0 13 0;
