#N canvas 296 123 463 322 10;
#X obj 10 12 inlet;
#X obj 37 224 outlet;
#X obj 64 184 print ok;
#X obj 10 127 shunt;
#X obj 10 31 #t;
#X obj 58 31 args expected;
#X obj 10 244 #to_literal;
#X obj 37 50 # ==;
#X obj 37 69 #ravel;
#X obj 37 88 #fold &;
#X obj 37 107 #to_f;
#X obj 64 165 #to_literal;
#X obj 10 263 gf/l2s;
#X obj 10 282 gf/error got %s instead;
#X obj 37 146 t a a;
#X obj 37 204 #finished;
#X connect 0 0 4 0;
#X connect 3 0 6 0;
#X connect 3 1 14 0;
#X connect 4 0 3 0;
#X connect 4 1 7 0;
#X connect 5 0 7 1;
#X connect 6 0 12 0;
#X connect 7 0 8 0;
#X connect 8 0 9 0;
#X connect 9 0 10 0;
#X connect 10 0 3 1;
#X connect 11 0 2 0;
#X connect 12 0 13 0;
#X connect 14 0 15 0;
#X connect 14 1 11 0;
#X connect 15 0 1 0;
