#N canvas 537 280 450 351 10;
#X obj 45 57 inlet;
#X obj 45 235 outlet;
#X obj 45 216 # +;
#X obj 170 94 #rotate 9000;
#X obj 170 176 # *;
#X obj 170 199 # /;
#X obj 170 113 #t;
#X obj 205 114 # sq-;
#X obj 205 133 #fold +;
#X obj 205 152 # sqrt;
#X obj 281 180 inlet;
#X obj 61 95 #reverse;
#X obj 45 76 #t;
#X obj 45 126 #join 0;
#X obj 75 216 #outer *;
#X obj 45 145 t a b;
#X msg 75 197 -1 -1 1 1;
#X obj 170 74 #fold inv+ \, seed (2 #);
#X obj 282 159 args linewidth;
#X connect 0 0 12 0;
#X connect 2 0 1 0;
#X connect 3 0 6 0;
#X connect 4 0 5 0;
#X connect 5 0 14 1;
#X connect 6 0 4 0;
#X connect 6 1 7 0;
#X connect 7 0 8 0;
#X connect 8 0 9 0;
#X connect 9 0 5 1;
#X connect 10 0 4 1;
#X connect 11 0 13 1;
#X connect 12 0 13 0;
#X connect 12 1 11 0;
#X connect 12 1 17 0;
#X connect 13 0 15 0;
#X connect 14 0 2 1;
#X connect 15 0 2 0;
#X connect 15 1 16 0;
#X connect 16 0 14 0;
#X connect 17 0 3 0;
#X connect 18 0 4 1;
