#N canvas 255 219 635 380 10;
#X obj 331 9 namecanvas \$1-propcanvas;
#X obj 41 59 r \$1-propin;
#X obj 125 341 s \$1-propout;
#X obj 425 251 t b b;
#X obj 6 262 list split 1;
#X msg 131 321 cancel;
#X obj 206 310 cnv 4 4 4 empty empty NOTE: 8 12 0 12 -233017 -258113
0;
#X text 268 312 changes to number of rows and columns will be only
applied when the patch is reloaded (from saving) or delete/undo or
cut/paste or duplicate (ctrl+d).;
#X obj 41 135 s \$0-element_class;
#X obj 75 116 s \$0-rows;
#X obj 29 154 r \$0-s_element_class;
#X obj 52 173 r \$0-s_rows;
#X obj 75 192 r \$0-s_columns;
#X obj 110 97 s \$0-columns;
#X obj 278 48 cnv 15 200 200 empty empty empty 20 12 0 14 -179192 -66577
0;
#X obj 289 127 nbx 5 14 -1e+37 1e+37 0 0 \$0-s_xspacing \$0-xspacing
xspacing 48 8 0 8 -228856 -191407 -228856 0 256;
#X obj 289 111 nbx 5 14 -1e+37 1e+37 0 0 \$0-s_yspacing \$0-yspacing
yspacing 48 8 0 8 -228856 -191407 -228856 0 256;
#X obj 289 95 nbx 5 14 -1e+37 1e+37 0 0 \$0-s_columns \$0-columns columns
48 8 0 8 -262144 -1 -1 7 256;
#X obj 289 79 nbx 5 14 -1e+37 1e+37 0 0 \$0-s_rows \$0-rows rows 48
8 0 8 -262144 -1 -1 13 256;
#X symbolatom 289 61 15 0 0 1 element_class #0-element_class #0-s_element_class
;
#X obj 425 211 button OK;
#X obj 360 211 button Apply;
#X obj 289 211 button Cancel;
#X obj 41 78 unpack s 0 0;
#X obj 6 243 pack 0 s 0 0;
#X obj 289 159 nbx 5 14 -1e+37 1e+37 0 0 \$0-s_xborder \$0-xborder
xborder 48 8 0 8 -228856 -191407 -228856 0 256;
#X obj 289 143 nbx 5 14 -1e+37 1e+37 0 0 \$0-s_yborder \$0-yborder
yborder 48 8 0 8 -228856 -191407 -228856 0 256;
#X text 347 173 should add bgcolor...;
#X text 290 187 how to add delegate and such ?;
#X connect 1 0 23 0;
#X connect 3 0 5 0;
#X connect 3 1 24 0;
#X connect 4 1 2 0;
#X connect 5 0 2 0;
#X connect 10 0 24 1;
#X connect 11 0 24 2;
#X connect 12 0 24 3;
#X connect 20 0 3 0;
#X connect 21 0 24 0;
#X connect 22 0 5 0;
#X connect 23 0 8 0;
#X connect 23 1 9 0;
#X connect 23 2 13 0;
#X connect 24 0 4 0;
