#N canvas 649 347 571 342 10;
#X obj 19 20 inlet;
#X obj 235 227 outlet;
#X obj 350 9 loadbang;
#X obj 350 28 args *;
#N canvas 116 23 450 300 \$0-placeholder 0;
#X obj 0 0 r 1005-in;
#X obj 0 100 s 1005-out;
#X obj 0 50 #io.ppm out teapot.ppm;
#X connect 0 0 2 0;
#X connect 2 0 1 0;
#X restore 235 189 pd \$0-placeholder;
#X obj 235 170 s \$0-in;
#X obj 235 208 r \$0-out;
#X obj 235 132 route bang;
#X msg 235 151 bang;
#X text 272 153 hack.;
#X obj 350 47 route bang;
#X obj 415 102 s pd-\$0-placeholder;
#X obj 415 83 gf.io_generate \$0 out;
#X msg 364 90 clear;
#X obj 19 39 route open close autoclose;
#X obj 205 39 t a a;
#X obj 48 161 spigot;
#X obj 95 142 route bang;
#X msg 94 161 1;
#X obj 48 205 #finished;
#X obj 48 180 route2 grid list float;
#X msg 48 224 close;
#X connect 0 0 14 0;
#X connect 2 0 3 0;
#X connect 3 0 10 0;
#X connect 6 0 1 0;
#X connect 7 0 8 0;
#X connect 7 1 5 0;
#X connect 8 0 5 0;
#X connect 10 1 12 0;
#X connect 12 0 11 0;
#X connect 13 0 11 0;
#X connect 14 0 12 0;
#X connect 14 1 13 0;
#X connect 14 2 17 0;
#X connect 14 2 16 1;
#X connect 14 3 15 0;
#X connect 15 0 16 0;
#X connect 15 1 7 0;
#X connect 16 0 20 0;
#X connect 18 0 16 1;
#X connect 19 0 21 0;
#X connect 20 0 19 0;
#X connect 20 1 19 0;
#X connect 21 0 14 0;
