#N canvas 1036 267 571 412 10;
#X obj 235 302 #out;
#X msg 235 190 close;
#X obj 75 41 inlet filename;
#X obj 205 44 inlet close;
#X obj -32 41 inlet videoin;
#X msg 75 100 open \$1;
#X obj 75 77 savepanel;
#X obj 75 124 print;
#X obj 61 231 spigot;
#X obj 123 194 inlet start;
#X msg 123 218 1;
#X msg 124 240 0;
#X obj 205 106 t b b;
#X obj 324 101 vradio 15 1 0 4 \$0-framerate \$0-framerate select_framerate
0 -6 0 12 -241291 -258699 -1 0;
#X text 350 99 10 fps;
#X text 350 116 24 fps;
#X text 350 132 25 fps;
#X text 350 149 30 fps;
#N canvas 691 426 273 271 framerate 0;
#X obj 95 37 r \$0-framerate;
#X floatatom 95 57 5 0 0 0 - - -;
#X obj 95 116 outlet;
#X msg 95 96 framerate \$1;
#X obj 95 76 listread 10 24 25 30;
#X connect 0 0 1 0;
#X connect 1 0 4 0;
#X connect 3 0 2 0;
#X connect 4 0 3 0;
#X restore 283 278 pd framerate;
#X obj 75 149 s openfilename;
#X msg 283 247 framerate 10;
#X obj 284 305 r openfilename;
#X msg 283 221 codec jpeg;
#X text 343 178 the framerate option;
#X text 108 335 this could be using [#see] to see a preview.;
#X connect 1 0 0 0;
#X connect 2 0 6 0;
#X connect 3 0 12 0;
#X connect 4 0 8 0;
#X connect 5 0 7 0;
#X connect 5 0 19 0;
#X connect 6 0 5 0;
#X connect 8 0 0 0;
#X connect 9 0 10 0;
#X connect 10 0 8 1;
#X connect 11 0 8 1;
#X connect 12 0 11 0;
#X connect 12 1 1 0;
#X connect 18 0 0 0;
#X connect 20 0 0 0;
#X connect 21 0 0 0;
#X connect 22 0 0 0;
