#N canvas 62 179 531 300 10;
#X obj 15 18 inlet hot;
#X obj 82 18 inlet oldstart;
#X obj 184 18 inlet oldend;
#X obj 272 18 inlet newstart;
#X obj 374 18 inlet newend;
#X obj 45 86 #store;
#X obj 235 84 #store;
#X obj 15 67 t a b;
#X obj 45 105 # inv+;
#X obj 235 103 # inv+;
#X obj 15 169 # -;
#X obj 15 190 # *;
#X obj 15 209 # /;
#X obj 15 228 # +;
#X obj 15 247 outlet;
#X obj 122 203 args (oldstart a 0) (oldend a 0) (newstart a 0) (newend
a 0);
#X obj 82 37 t a;
#X obj 272 37 t a;
#X connect 0 0 7 0;
#X connect 1 0 16 0;
#X connect 2 0 8 1;
#X connect 3 0 17 0;
#X connect 4 0 9 1;
#X connect 5 0 8 0;
#X connect 6 0 9 0;
#X connect 7 0 10 0;
#X connect 7 1 5 0;
#X connect 7 1 6 0;
#X connect 8 0 12 1;
#X connect 9 0 11 1;
#X connect 10 0 11 0;
#X connect 11 0 12 0;
#X connect 12 0 13 0;
#X connect 13 0 14 0;
#X connect 15 0 16 0;
#X connect 15 1 8 1;
#X connect 15 2 17 0;
#X connect 15 3 9 1;
#X connect 16 0 10 1;
#X connect 16 0 5 1;
#X connect 17 0 6 1;
#X connect 17 0 13 1;
