#N canvas 448 101 437 260 10;
#X obj 11 12 inlet;
#X obj 43 209 outlet;
#X obj 171 57 t f;
#X obj 171 28 args (angle f 0);
#X obj 196 57 inlet angle;
#X obj 99 121 #rotatificator;
#X obj 11 61 route2 axis;
#X obj 43 133 t a b;
#X obj 43 190 # >> 8;
#X obj 43 171 # + 128;
#X obj 43 152 #inner \, op *>>8;
#X msg 99 100 65536;
#X connect 0 0 6 0;
#X connect 2 0 5 1;
#X connect 3 0 2 0;
#X connect 4 0 2 0;
#X connect 5 0 10 1;
#X connect 6 0 5 0;
#X connect 6 1 7 0;
#X connect 7 0 10 0;
#X connect 7 1 11 0;
#X connect 8 0 1 0;
#X connect 9 0 8 0;
#X connect 10 0 9 0;
#X connect 11 0 5 0;
