#N canvas 133 255 450 300 10;
#X obj 13 24 inlet;
#X obj 53 259 outlet;
#X obj 53 240 #store;
#X obj 93 24 inlet;
#X obj 153 24 inlet;
#X obj 181 98 # put 1;
#X obj 64 217 #for 0 0;
#X obj 13 56 t a a;
#X obj 13 75 #finished;
#X obj 129 198 #ravel;
#X obj 99 178 #ravel;
#X obj 153 66 t a;
#X obj 93 68 t a;
#X obj 198 26 args (start a 0) (end a 0);
#X obj 93 87 # +;
#X msg 93 106 set \$1;
#X connect 0 0 7 0;
#X connect 2 0 1 0;
#X connect 3 0 12 0;
#X connect 4 0 11 0;
#X connect 5 0 9 0;
#X connect 6 0 2 0;
#X connect 7 0 8 0;
#X connect 7 1 2 1;
#X connect 8 0 6 0;
#X connect 9 0 6 2;
#X connect 10 0 6 1;
#X connect 11 0 5 0;
#X connect 11 0 10 0;
#X connect 12 0 14 0;
#X connect 13 0 12 0;
#X connect 13 1 11 0;
#X connect 14 0 15 0;
#X connect 15 0 6 0;
