#N canvas 560 23 684 411 10;
#X obj 165 1 inlet;
#X obj 125 332 outlet;
#X obj 322 96 s \$0-type;
#X obj 1 53 cnv 15 74 24 empty \$0-rect empty 20 12 0 14 -233017 -66577
0;
#X obj 8 51 cnv 15 67 28 empty \$0-rect2 empty 20 12 0 14 -233017 -66577
0;
#X obj 2 54 hradio 12 1 0 6 \$0-s_type \$0-type empty 0 -8 0 10 -262144
-1 -1 2;
#X text 3 63 b s i l f d;
#X obj 93 185 r \$0-s_type;
#X obj 201 1 args;
#X obj 125 294 shunt;
#X obj 161 294 listread b s i l f d;
#X obj 363 20 gf/selector;
#X obj 363 39 gf/error no method for '%s';
#X obj 125 313 listread uint8 int16 int32 int64 float32 float64;
#X obj 165 185 list split 1;
#X obj 165 204 f;
#X msg 234 204 1;
#X obj 165 20 route abbr vertical;
#X obj 250 374 namecanvas \$0-canvas;
#X obj 287 294 s \$0-canvas;
#X obj 295 181 list split 1;
#X obj 295 200 f;
#X obj 328 221 sel 0 1;
#X msg 364 200 1;
#X msg 347 259 coords 0 -1 1 1 64 80 2 0 100;
#X msg 328 240 coords 0 -1 1 1 76 30 2 0 50;
#X obj 1 103 cnv 15 62 74 empty \$0-rect4 empty 20 12 0 14 -233017
-66577 0;
#X obj 8 101 cnv 15 55 78 empty \$0-rect3 empty 20 12 0 14 -233017
-66577 0;
#X obj 2 104 vradio 12 1 0 6 \$0-s_type \$0-type empty 0 -8 0 10 -262144
-1 -1 2;
#X text 16 101 uint8;
#X text 16 113 int16;
#X text 16 125 int32;
#X text 16 137 int64;
#X text 16 149 float32;
#X text 16 161 float64;
#X obj 285 20 route symbol;
#X obj 286 58 listfind uint8 int16 int32 int64 float32 float64 b s
i l f d;
#X obj 286 134 gf/error unknown numtype %s;
#X obj 286 96 b;
#X obj 286 77 moses;
#X obj 286 115 symbol;
#X obj 286 39 t s s;
#X obj 322 77 mod 6;
#X msg 88 36 vertical 0;
#X obj 382 77 loadbang;
#X msg 382 96 set 2;
#X connect 0 0 17 0;
#X connect 7 0 9 0;
#X connect 9 0 13 0;
#X connect 9 1 10 0;
#X connect 10 0 1 0;
#X connect 11 0 12 0;
#X connect 13 0 1 0;
#X connect 14 0 15 0;
#X connect 14 2 16 0;
#X connect 15 0 9 1;
#X connect 16 0 9 1;
#X connect 17 0 14 0;
#X connect 17 1 20 0;
#X connect 17 2 35 0;
#X connect 20 0 21 0;
#X connect 20 2 23 0;
#X connect 21 0 22 0;
#X connect 22 0 25 0;
#X connect 22 1 24 0;
#X connect 23 0 22 0;
#X connect 24 0 19 0;
#X connect 25 0 19 0;
#X connect 35 0 41 0;
#X connect 35 1 11 0;
#X connect 36 0 39 0;
#X connect 38 0 40 0;
#X connect 39 0 38 0;
#X connect 39 1 42 0;
#X connect 40 0 37 0;
#X connect 41 0 36 0;
#X connect 41 1 40 1;
#X connect 42 0 2 0;
#X connect 43 0 17 0;
#X connect 44 0 45 0;
#X connect 45 0 2 0;
#X coords 0 -1 1 1 64 80 2 0 100;
