#N canvas 560 23 572 360 10;
#X obj 195 1 inlet;
#X obj 155 212 outlet;
#X obj 315 39 s \$0-type;
#X obj 1 53 cnv 15 74 24 empty \$0-rect empty 20 12 0 14 -233017 -66577
0;
#X obj 8 51 cnv 15 67 28 empty \$0-rect2 empty 20 12 0 14 -233017 -66577
0;
#X obj 2 54 hradio 12 1 0 6 \$0-s_type \$0-type empty 0 -8 0 10 -262144
-1 -1 0;
#X text 3 63 b s i l f d;
#X obj 123 65 r \$0-s_type;
#X obj 231 1 args;
#X obj 155 174 shunt;
#X obj 191 174 listread b s i l f d;
#X obj 315 20 route float;
#X obj 387 20 gf/selector;
#X obj 387 39 gf/error no method for '%s';
#X obj 155 193 listread uint8 int16 int32 int64 float32 float64;
#X obj 195 65 list split 1;
#X obj 195 84 f;
#X msg 264 84 1;
#X obj 195 20 route abbr vertical;
#X obj 280 254 namecanvas \$0-canvas;
#X obj 317 174 s \$0-canvas;
#X obj 325 61 list split 1;
#X obj 325 80 f;
#X obj 358 101 sel 0 1;
#X msg 394 80 1;
#X msg 377 139 coords 0 -1 1 1 64 80 2 0 100;
#X obj 431 65 loadbang;
#X msg 431 84 0;
#X msg 358 120 coords 0 -1 1 1 76 30 2 0 50;
#X obj 261 134 print vertical;
#X obj 376 226 print vertical2;
#X obj 1 103 cnv 15 62 74 empty \$0-rect4 empty 20 12 0 14 -233017
-66577 0;
#X obj 8 101 cnv 15 55 78 empty \$0-rect3 empty 20 12 0 14 -233017
-66577 0;
#X obj 2 104 vradio 12 1 0 6 \$0-s_type \$0-type empty 0 -8 0 10 -262144
-1 -1 0;
#X text 16 101 uint8;
#X text 16 113 int16;
#X text 16 125 int32;
#X text 16 137 int64;
#X text 16 149 float32;
#X text 16 161 float64;
#X connect 0 0 18 0;
#X connect 7 0 9 0;
#X connect 9 0 14 0;
#X connect 9 1 10 0;
#X connect 10 0 1 0;
#X connect 11 0 2 0;
#X connect 11 1 12 0;
#X connect 12 0 13 0;
#X connect 14 0 1 0;
#X connect 15 0 16 0;
#X connect 15 2 17 0;
#X connect 16 0 9 1;
#X connect 17 0 9 1;
#X connect 18 0 15 0;
#X connect 18 1 21 0;
#X connect 18 1 29 0;
#X connect 21 0 22 0;
#X connect 21 2 24 0;
#X connect 22 0 23 0;
#X connect 23 0 28 0;
#X connect 23 1 25 0;
#X connect 24 0 23 0;
#X connect 25 0 20 0;
#X connect 25 0 30 0;
#X connect 26 0 27 0;
#X connect 28 0 20 0;
#X connect 28 0 30 0;
#X coords 0 -1 1 1 76 30 2 0 50;
