#N canvas 377 199 450 300 10;
#X obj 26 28 inlet;
#X obj 40 47 inlet;
#X obj 26 123 outlet;
#X obj 55 66 inlet;
#X obj 26 104 #pack 4;
#X obj 70 85 inlet;
#X connect 0 0 4 0;
#X connect 1 0 4 1;
#X connect 3 0 4 2;
#X connect 4 0 2 0;
#X connect 5 0 4 3;
