#N canvas 377 199 450 300 10;
#X obj 26 28 inlet;
#X obj 48 47 inlet;
#X obj 26 104 outlet;
#X obj 26 85 #pack 3;
#X obj 70 66 inlet;
#X connect 0 0 3 0;
#X connect 1 0 3 1;
#X connect 3 0 2 0;
#X connect 4 0 3 2;
