#N canvas 113 292 560 322 10;
#X obj 0 0 cnv 16 64 16 empty \$0-rect Outlet 0: 8 8 1 9 -175159
-1 0;
#X obj 0 21 loadbang;
#X obj 0 81 s \$0-rect;
#X obj 0 41 list append \$1;
#X msg 0 61 label Outlet \$1:;
#X msg 63 116 14 \$2;
#X obj 7 116 doc_pos;
#X connect 1 0 3 0;
#X connect 3 0 4 0;
#X connect 4 0 2 0;
#X connect 5 0 6 1;
#X connect 6 1 5 0;
#X coords 0 -1 1 1 64 16 2 0 0;
