#N canvas 113 292 560 242 10;
#X obj 0 0 cnv 16 64 17 empty \$0-rect Outlet 0: 8 9 1 9 -175159 -1
0;
#X obj 218 75 loadbang;
#X obj 218 132 s \$0-rect;
#X obj 218 94 list append \$1;
#X msg 218 113 label Outlet \$1:;
#X msg 218 0 14 \$2;
#X obj 56 0 bng 8 250 50 0 \$0-create_s \$0-create empty 17 7 0 10
-203904 -1 -1;
#X obj 56 99 doc_add o\$1;
#X obj 302 0 loadbang;
#X obj 302 19 float \$1;
#X obj 302 38 moses 1;
#X obj 350 38 - 1;
#X msg 350 95 symbol o/\$1;
#X obj 66 0 doc_layout o/\$1 80 20 o;
#X obj 350 76 t a b;
#X msg 386 76 1;
#X obj 66 19 doc_editmode 56;
#X obj 218 19 doc_below o 0;
#X connect 1 0 3 0;
#X connect 3 0 4 0;
#X connect 4 0 2 0;
#X connect 5 0 17 0;
#X connect 6 0 7 0;
#X connect 8 0 9 0;
#X connect 9 0 10 0;
#X connect 10 1 11 0;
#X connect 11 0 14 0;
#X connect 12 0 17 1;
#X connect 13 2 5 0;
#X connect 13 2 7 1;
#X connect 14 0 12 0;
#X connect 14 1 15 0;
#X connect 15 0 17 2;
#X connect 17 0 13 1;
#X coords 0 -1 1 1 64 17 2 0 0;
