#N canvas 143 119 573 177 10;
#X obj 0 0 cnv 16 64 17 empty \$0-rect Inlet 0: 12 9 1 9 -175159 -1
0;
#X obj 238 73 loadbang;
#X obj 238 151 s \$0-rect;
#X obj 238 92 list append \$1;
#X msg 238 111 label Inlet \$1:;
#X msg 237 0 14 \$2;
#X obj 56 20 bng 8 250 50 0 \$0-create_s \$0-create empty 17 7 0 10
-203904 -1 -1;
#X obj 321 0 loadbang;
#X obj 321 57 moses 1;
#X obj 369 57 - 1;
#X msg 369 95 symbol i/\$1;
#X obj 66 0 doc_layout i/\$1 80 20 i;
#X obj 56 99 doc_add i\$1;
#X obj 369 76 t a b;
#X msg 405 76 1;
#X obj 66 19 doc_editmode 56;
#X obj 237 19 doc_below i 0;
#X obj 321 19 list append \$1;
#X obj 321 38 route float;
#X obj 244 131 doc_iemfont 1 9;
#X connect 1 0 3 0;
#X connect 3 0 4 0;
#X connect 4 0 2 0;
#X connect 5 0 16 0;
#X connect 6 0 12 0;
#X connect 7 0 17 0;
#X connect 8 1 9 0;
#X connect 9 0 13 0;
#X connect 10 0 16 1;
#X connect 11 2 5 0;
#X connect 11 2 12 1;
#X connect 13 0 10 0;
#X connect 13 1 14 0;
#X connect 14 0 16 2;
#X connect 16 0 11 1;
#X connect 17 0 18 0;
#X connect 18 0 8 0;
#X connect 19 0 2 0;
#X coords 0 -1 1 1 64 17 2 0 0;
