#N canvas 0 0 468 270 10;
#X obj 289 145 inlet;
#X obj 289 116 outlet;
#X obj 289 21 loadbang;
#X obj 289 40 tgl 15 0 empty empty empty 17 7 0 10 -262144 -1 -1 0
1;
#X obj 79 125 inlet;
#X obj 79 96 outlet;
#X text 9 28 dummy iolets because side-cross-connect;
#X text 10 43 looks better with iolets that are;
#X text 10 59 last AND non-first;
#X obj 289 77 gf/canvas_getpos 1;
#X obj 289 224 gf/canvas_setpos 1;
#X obj 289 57 metro 2000;
#X obj 289 172 #change;
#X obj 289 202 #to_list;
#X connect 0 0 12 0;
#X connect 2 0 3 0;
#X connect 3 0 11 0;
#X connect 9 0 1 0;
#X connect 11 0 9 0;
#X connect 12 0 13 0;
#X connect 13 0 10 0;
