#N canvas 91 65 567 335 10;
#X obj 0 0 cnv 16 80 16 empty \$0-rect Argument 0: 4 8 1 9 -175159
-1 0;
#X obj 353 175 s \$0-rect;
#X obj 353 135 list append \$1;
#X msg 353 155 label Argument \$1:;
#X obj 182 139 doc_pos;
#X msg 234 140 14 \$2;
#X obj 353 116 loadbang;
#X obj 68 20 bng 12 250 50 0 empty \$0-create empty 17 7 0 10 -262144
-1 -1;
#X obj 182 115 doc_editmodebang 68;
#X obj 68 185 doc_add c\$1;
#X obj 99 147 loadbang;
#X obj 99 166 gf/canvas_dollarzero 1;
#X obj 82 0 doc_layout c/\$1;
#X connect 2 0 3 0;
#X connect 3 0 1 0;
#X connect 4 1 5 0;
#X connect 5 0 4 1;
#X connect 5 0 9 2;
#X connect 6 0 2 0;
#X connect 7 0 9 0;
#X connect 10 0 11 0;
#X connect 11 0 9 1;
#X coords 0 -1 1 1 80 16 2 0 0;
