#N canvas 64 49 554 202 10;
#X obj 0 0 cnv 16 80 17 empty \$0-rect Argument any: 4 9 1 9 -175159
-1 0;
#X obj 243 143 s \$0-rect;
#X obj 243 105 list append \$1;
#X msg 243 124 label Argument \$1:;
#X obj 243 86 loadbang;
#X obj 72 20 bng 8 250 50 0 \$0-create_s \$0-create empty 17 7 0 10
-203904 -1 -1;
#X obj 72 99 doc_add c\$1;
#X obj 321 0 loadbang;
#X obj 321 57 moses 1;
#X obj 369 57 - 1;
#X msg 369 95 symbol c/\$1;
#X obj 369 76 t a b;
#X msg 405 76 1;
#X obj 82 19 doc_editmode 72;
#X msg 237 0 14 \$2;
#X obj 82 0 doc_layout c/\$1 80 20 c;
#X obj 237 19 doc_below c 0;
#X obj 321 19 list append \$1;
#X obj 321 38 route float;
#X connect 2 0 3 0;
#X connect 3 0 1 0;
#X connect 4 0 2 0;
#X connect 5 0 6 0;
#X connect 7 0 17 0;
#X connect 8 1 9 0;
#X connect 9 0 11 0;
#X connect 10 0 16 1;
#X connect 11 0 10 0;
#X connect 11 1 12 0;
#X connect 12 0 16 2;
#X connect 14 0 16 0;
#X connect 15 2 14 0;
#X connect 15 2 6 1;
#X connect 16 0 15 1;
#X connect 17 0 18 0;
#X connect 18 0 8 0;
#X coords 0 -1 1 1 80 17 2 0 0;
