#N canvas 674 68 560 322 10;
#X obj 0 0 cnv 16 64 16 empty \$0-rect Inlet 0: 12 8 1 9 -175159
-1 0;
#X obj 245 77 loadbang;
#X obj 226 94 bng 15 250 50 0 empty empty empty 17 7 0 10 -262144 -1
-1;
#X obj 245 137 s \$0-rect;
#X obj 245 97 list append \$1;
#X msg 245 117 label Inlet \$1:;
#X msg 267 41 14 \$2;
#X obj 219 41 doc_pos;
#X obj 52 0 bng 12 250 50 0 empty \$0-create empty 17 7 0 10 -262144
-1 -1;
#X obj 218 13 doc_editmodebang 52;
#X obj 58 32 gf/canvas_dollarzero 1;
#X obj 58 51 pack 0 \$1;
#X msg 58 70 \; \$1-doc_i\$2_sub ping;
#X obj 404 132 receives;
#X obj 404 75 gf/canvas_dollarzero 1;
#X obj 404 28 bng 15 250 50 0 empty empty empty 17 7 0 10 -262144 -1
-1;
#X obj 421 27 loadbang;
#X msg 404 113 symbol \$1-doc_i\$2;
#X obj 404 94 pack 0 \$1;
#X obj 404 56 t b;
#X obj 2 32 t b b b;
#X msg 41 208;
#X msg 404 151 add2 \$2;
#X obj 41 227 #fold max;
#X obj 41 246 #to_float;
#X obj 41 265 + 20;
#X obj 41 322 s;
#X obj 111 111 gf/canvas_filename 1;
#X msg 111 130 symbol pd-\$1;
#X obj 41 284 pack 0 \$1;
#X msg 2 127 bang \, set;
#X msg 41 303 obj 100 \$1 doc_m i\$2 \, loadbang;
#X msg 41 179 set list \$1;
#X obj 41 160 f;
#X msg 144 158 \$2;
#X obj 144 177 - 20;
#X connect 1 0 4 0;
#X connect 2 0 4 0;
#X connect 4 0 5 0;
#X connect 5 0 3 0;
#X connect 6 0 7 1;
#X connect 7 1 6 0;
#X connect 7 1 34 0;
#X connect 8 0 20 0;
#X connect 10 0 11 0;
#X connect 11 0 12 0;
#X connect 13 0 22 0;
#X connect 14 0 18 0;
#X connect 15 0 19 0;
#X connect 16 0 19 0;
#X connect 17 0 13 0;
#X connect 18 0 17 0;
#X connect 19 0 14 0;
#X connect 20 0 30 0;
#X connect 20 1 10 0;
#X connect 20 2 27 0;
#X connect 20 2 33 0;
#X connect 21 0 23 0;
#X connect 22 0 21 0;
#X connect 23 0 24 0;
#X connect 24 0 25 0;
#X connect 25 0 29 0;
#X connect 27 0 28 0;
#X connect 28 0 26 1;
#X connect 29 0 31 0;
#X connect 30 0 21 0;
#X connect 31 0 26 0;
#X connect 32 0 21 0;
#X connect 33 0 32 0;
#X connect 34 0 35 0;
#X connect 35 0 33 1;
#X coords 0 -1 1 1 64 16 2 0 0;
