#N canvas 254 70 450 300 10;
#X obj 45 28 inlet;
#X obj 45 273 outlet;
#X obj 81 47 t b b;
#X obj 81 66 gf/canvas_dollarzero 2;
#X obj 153 85 symbol \$1;
#X obj 45 47 t a b;
#X msg 81 104 \; \$1/\$2 getbounds \$3-r;
#X obj 81 85 pack 0 s \$0;
#X obj 117 151 r \$0-r;
#X obj 45 191 unpack 0 0;
#X obj 45 234 pack 0 0;
#X obj 102 212 max;
#X msg 117 170 \$4;
#X obj 204 27 inlet;
#X connect 0 0 5 0;
#X connect 2 0 3 0;
#X connect 2 1 4 0;
#X connect 3 0 7 0;
#X connect 4 0 7 1;
#X connect 5 0 9 0;
#X connect 5 1 2 0;
#X connect 7 0 6 0;
#X connect 8 0 12 0;
#X connect 9 0 10 0;
#X connect 9 1 11 0;
#X connect 10 0 1 0;
#X connect 11 0 10 1;
#X connect 12 0 11 1;
#X connect 13 0 4 1;
