#N canvas 91 65 567 335 10;
#X obj 0 0 cnv 16 80 16 empty \$0-rect Argument 0: 4 8 1 9 -175159
-1 0;
#X obj 2 78 s \$0-rect;
#X obj 2 38 list append \$1;
#X msg 2 58 label Argument \$1:;
#X obj 2 115 doc_pos;
#X msg 54 116 14 \$2;
#X obj 2 19 loadbang;
#X connect 2 0 3 0;
#X connect 3 0 1 0;
#X connect 4 1 5 0;
#X connect 5 0 4 1;
#X connect 6 0 2 0;
#X coords 0 -1 1 1 80 16 2 0 0;
