#N canvas 0 53 622 365 10;
#X obj 3 3 cnv 15 608 18 empty \$0-rect ... 2 9 1 13 -1 -262144 0;
#X obj 6 28 loadbang;
#X obj 61 30 bng 15 250 50 0 empty empty empty 17 7 0 10 -262144 -1
-1;
#X symbolatom 6 68 20 0 0 0 - - -;
#X obj 6 243 s \$0-rect;
#X obj 6 48 gf/canvas_filename 1;
#X obj 6 87 gf/string_replace # ♯;
#X obj 6 166 gf/string_replace -help.pd;
#X obj 510 3 cnv 15 100 18 empty \$0-rect2 GridFlow 9.9 2 9 1 12 -1
-262144 0;
#X obj 6 107 gf/string_replace 0x40 @;
#X obj 6 127 gf/string_replace 0x2a *;
#X obj 6 147 gf/string_replace 0x2b +;
#X msg 390 47 0 0;
#X obj 6 205 pack s s;
#X obj 6 185 t a b;
#X obj 51 186 symbol \$1;
#X msg 6 224 label \$2\$1;
#X obj 160 27 doc_layout h 582 24;
#X obj 393 218 tgl 15 0 empty empty empty 17 7 0 10 -262144 -1 -1 0
1;
#X obj 393 159 loadbang;
#X obj 401 179 print doc_h_loadbang;
#X text 345 199 URGHHH;
#X obj 393 255 t b b;
#X obj 463 217 gf/canvas_dollarzero 1;
#X obj 448 255 s;
#X msg 463 236 symbol \$1-clock;
#X obj 463 198 loadbang;
#X obj 393 236 metro 200;
#X msg 393 199 1;
#X connect 1 0 5 0;
#X connect 2 0 5 0;
#X connect 3 0 6 0;
#X connect 5 0 3 0;
#X connect 6 0 9 0;
#X connect 7 0 14 0;
#X connect 9 0 10 0;
#X connect 10 0 11 0;
#X connect 11 0 7 0;
#X connect 12 0 17 1;
#X connect 13 0 16 0;
#X connect 14 0 13 0;
#X connect 14 1 15 0;
#X connect 15 0 13 1;
#X connect 16 0 4 0;
#X connect 17 2 12 0;
#X connect 18 0 27 0;
#X connect 19 0 28 0;
#X connect 19 0 20 0;
#X connect 22 1 24 0;
#X connect 23 0 25 0;
#X connect 25 0 24 1;
#X connect 26 0 23 0;
#X connect 27 0 22 0;
#X connect 28 0 18 0;
#X coords 0 -1 1 1 614 24 2 0 0;
