#N canvas 110 375 560 322 10;
#X obj 0 0 cnv 15 542 16 empty \$0-rect Creation arguments (0)
200 8 1 9 -88239 -262144 0;
#X obj 165 47 loadbang;
#X obj 134 56 bng 15 250 50 0 empty empty empty 17 7 0 10 -262144 -1
-1;
#X obj 165 107 s \$0-rect;
#X obj 409 137 gf/canvas_setpos 0;
#X obj 409 77 metro 1000;
#X obj 409 41 loadbang;
#X obj 409 60 tgl 15 0 empty empty empty 17 7 0 10 -262144 -1 -1 1
1;
#X obj 409 97 gf/canvas_getpos 0;
#X msg 409 117 3 \$2;
#X msg 165 87 label Creation arguments (\$1);
#X obj 165 67 list append \$1;
#X obj 177 192 gf/canvas_dollarzero 1;
#X obj 177 171 loadbang;
#X msg 177 211 symbol \$1-doc_i;
#X obj 162 232 s;
#X obj 148 168 bng 15 250 50 0 empty empty empty 17 7 0 10 -262144
-1 -1;
#X msg 74 204 hello;
#X connect 1 0 11 0;
#X connect 2 0 11 0;
#X connect 5 0 8 0;
#X connect 6 0 7 0;
#X connect 7 0 5 0;
#X connect 8 0 9 0;
#X connect 9 0 4 0;
#X connect 10 0 3 0;
#X connect 11 0 10 0;
#X connect 12 0 14 0;
#X connect 13 0 12 0;
#X connect 14 0 15 1;
#X connect 16 0 12 0;
#X connect 17 0 15 0;
#X coords 0 -1 1 1 542 16 2 0 0;
