#N canvas 0 0 477 387 10;
#X obj 7 7 cnv 1 1 1 empty \$0-a empty 20 12 0 14 -1 -66577 0;
#X obj 8 8 cnv 1 1 32 empty \$0-b empty 20 12 0 14 -1 -66577 0;
#X obj 9 41 cnv 1 2 1 empty \$0-c empty 6 0 0 8 -1 -66577 0;
#X obj 8 43 cnv 1 1 32 empty \$0-d empty 20 12 0 14 -1 -66577 0;
#X obj 7 75 cnv 1 1 1 empty \$0-e empty 20 12 0 14 -1 -66577 0;
#X obj 205 296 namecanvas \$0-canvas;
#X obj 259 277 s \$0-canvas;
#X obj 309 49 s \$0-a;
#X obj 309 87 s \$0-b;
#X obj 309 125 s \$0-c;
#X obj 309 203 s \$0-d;
#X obj 309 241 s \$0-e;
#X msg 309 30 pos 7 7 \, vis_size 1 1;
#X msg 309 106 pos 9 \$1 \, vis_size 2 1;
#X msg 309 184 pos 8 \$1 \, vis_size 1 \$2;
#X msg 309 222 pos 7 \$1 \, vis_size 1 1;
#X floatatom 258 38 5 0 0 0 - - -;
#X obj 257 61 t f f;
#X msg 309 68 pos 8 8 \, vis_size 1 \$1;
#X obj 257 81 + 9;
#X obj 253 109 + 2;
#X obj 308 147 pack f f;
#X obj 256 175 +;
#X floatatom 255 230 5 0 0 0 - - -;
#X obj 255 211 + 7;
#X connect 12 0 7 0;
#X connect 13 0 9 0;
#X connect 14 0 10 0;
#X connect 15 0 11 0;
#X connect 16 0 17 0;
#X connect 16 0 18 0;
#X connect 17 0 19 0;
#X connect 17 1 21 1;
#X connect 17 1 22 1;
#X connect 18 0 8 0;
#X connect 19 0 13 0;
#X connect 19 0 20 0;
#X connect 20 0 21 0;
#X connect 20 0 22 0;
#X connect 21 0 14 0;
#X connect 22 0 15 0;
#X connect 22 0 24 0;
#X connect 24 0 23 0;
#X coords 0 -1 1 1 16 82 2 0 0;
