#N canvas 49 157 560 322 10;
#X obj 0 0 cnv 15 542 16 empty \$0-rect Outlets (1) 235 8 1 9 -88239
-262144 0;
#X obj 165 47 loadbang;
#X obj 134 56 bng 15 250 50 0 empty empty empty 17 7 0 10 -262144 -1
-1;
#X obj 165 107 s \$0-rect;
#X obj 409 137 gf/canvas_setpos 0;
#X obj 409 77 metro 1000;
#X obj 409 41 loadbang;
#X obj 409 60 tgl 15 0 empty empty empty 17 7 0 10 -262144 -1 -1 1
1;
#X obj 409 97 gf/canvas_getpos 0;
#X msg 165 87 label Outlets (\$1);
#X msg 409 117 3 \$2;
#X obj 165 67 list append \$1;
#X connect 1 0 11 0;
#X connect 2 0 11 0;
#X connect 5 0 8 0;
#X connect 6 0 7 0;
#X connect 7 0 5 0;
#X connect 8 0 10 0;
#X connect 9 0 3 0;
#X connect 10 0 4 0;
#X connect 11 0 9 0;
#X coords 0 -1 1 1 542 16 2 0 0;
