#N canvas 334 149 836 502 10;
#X obj 0 0 cnv 15 94 17 \$0-rect_s \$0-rect ~unspecified~ 4 9 1 9 -261615
-1 0;
#X obj 9 176 gf/string_replace c c/;
#X obj 9 195 gf/string_replace i i/;
#X obj 9 214 gf/string_replace o o/;
#X obj 9 233 pack s s;
#X obj 346 20 doc_below ??? 0 -20;
#X msg 9 252 name \$1/\$2 \, parent \$1;
#X msg 346 1 97 \$2;
#X obj 35 458 outlet dummy;
#X obj 317 459 outlet to_comment;
#X obj 317 373 gf/lol 1;
#X obj 337 197 loadbang;
#X obj 317 242 tgl 15 0 empty empty empty 17 7 0 10 -262144 -1 -1 0
1;
#X obj 317 297 gf/canvas_edit_mode 1;
#X obj 317 316 sel 0 1;
#X msg 317 354 wire_hide;
#X msg 336 335 wire_dotted 255 170 0 \, box_dotted 255 170 0;
#X obj 349 221 print doc_m:\$1:\$2;
#X obj 317 278 t b b;
#X obj 432 240 gf/canvas_getpos 0;
#X msg 432 259 \$2;
#X obj 317 411 change -242;
#X msg 317 430 height \$1;
#X obj 317 392 max 20;
#X obj 403 158 max;
#X obj 429 158 doc_bottom 1;
#X obj 446 77 pack 0 s;
#X msg 446 96 symbol \$1/\$2;
#X obj 446 58 gf/canvas_dollarzero 1;
#X obj 346 39 unpack f f;
#X obj 358 65 pack f f;
#X obj 446 115 pack s s;
#X msg 446 134 before \$1/\$2;
#X obj 100 1 doc_layout ~unspecified~ 94 20;
#X obj 412 39 t f f b b;
#N canvas 0 0 468 230 fudgename 0;
#X obj 7 12 inlet;
#X obj 274 197 outlet;
#X obj 7 31 sel bang float grid symbol pointer list <any>;
#X obj 7 180 list;
#X msg 7 50 0b;
#X msg 45 50 0f;
#X msg 83 50 0g;
#X msg 121 50 0s;
#X msg 159 50 1p;
#X msg 197 50 2l;
#X msg 235 50 ~a;
#X connect 0 0 2 0;
#X connect 2 0 4 0;
#X connect 2 1 5 0;
#X connect 2 2 6 0;
#X connect 2 3 7 0;
#X connect 2 4 8 0;
#X connect 2 5 9 0;
#X connect 2 6 10 0;
#X connect 2 7 1 0;
#X connect 3 0 1 0;
#X connect 4 0 3 0;
#X connect 5 0 3 0;
#X connect 6 0 3 0;
#X connect 7 0 3 0;
#X connect 8 0 3 0;
#X connect 9 0 3 0;
#X connect 10 0 3 0;
#X restore 72 233 pd fudgename;
#X obj 501 115 symbol;
#X obj 77 157 s \$0-rect;
#X msg 77 138 label \$1;
#X obj 9 116 args id (type a ~unspecified~) *;
#X obj 9 157 symbol \$1;
#X obj 635 127 doc_editmode 0 1;
#X obj 75 293 gf/canvas_count 1;
#X obj 29 293 t b b;
#X obj 29 276 bng 15 250 50 0 empty empty empty 17 7 0 10 -262144 -1
-1;
#X obj 29 312 f;
#X obj 90 331 gf/canvas_filename 1;
#X obj 90 312 loadbang;
#X obj 29 412 s;
#X msg 90 350 symbol pd-\$1;
#X msg 29 393 obj \$2 200;
#X text 96 392 we don't have our own object index;
#X obj 93 372 +;
#X obj 29 374 pack f f;
#X msg 432 278 box_align x 200 \$1 8;
#X obj 317 259 metro 1000;
#X msg 317 223 0;
#X connect 1 0 2 0;
#X connect 2 0 3 0;
#X connect 3 0 4 0;
#X connect 3 0 5 1;
#X connect 3 0 26 1;
#X connect 4 0 6 0;
#X connect 5 0 29 0;
#X connect 6 0 33 0;
#X connect 7 0 5 0;
#X connect 10 0 23 0;
#X connect 11 0 17 0;
#X connect 11 0 56 0;
#X connect 12 0 55 0;
#X connect 13 0 14 0;
#X connect 14 0 15 0;
#X connect 14 1 16 0;
#X connect 15 0 10 0;
#X connect 16 0 10 0;
#X connect 18 0 13 0;
#X connect 18 1 19 0;
#X connect 19 0 20 0;
#X connect 20 0 54 0;
#X connect 21 0 22 0;
#X connect 21 0 52 1;
#X connect 22 0 33 0;
#X connect 23 0 21 0;
#X connect 24 0 30 1;
#X connect 25 0 24 1;
#X connect 26 0 27 0;
#X connect 27 0 25 1;
#X connect 27 0 31 0;
#X connect 28 0 26 0;
#X connect 29 0 30 0;
#X connect 29 1 34 0;
#X connect 30 0 33 1;
#X connect 31 0 32 0;
#X connect 32 0 25 0;
#X connect 33 2 7 0;
#X connect 33 2 52 0;
#X connect 34 0 24 0;
#X connect 34 1 25 0;
#X connect 34 2 28 0;
#X connect 34 3 36 0;
#X connect 35 0 4 1;
#X connect 35 0 36 1;
#X connect 36 0 31 1;
#X connect 38 0 37 0;
#X connect 39 0 40 0;
#X connect 39 1 38 0;
#X connect 39 1 35 0;
#X connect 40 0 1 0;
#X connect 42 0 45 1;
#X connect 43 0 45 0;
#X connect 43 1 42 0;
#X connect 44 0 43 0;
#X connect 45 0 53 0;
#X connect 46 0 49 0;
#X connect 47 0 46 0;
#X connect 49 0 48 1;
#X connect 50 0 48 0;
#X connect 52 0 53 1;
#X connect 53 0 50 0;
#X connect 54 0 10 0;
#X connect 55 0 18 0;
#X connect 56 0 12 0;
#X coords 0 -1 1 1 94 17 1 0 0;
