#N canvas 316 142 684 502 10;
#X msg 314 21 100 \$2;
#X obj 0 20 cnv 15 80 17 \$0-rect_s \$0-rect grid 4 9 1 9 -261615 -1
0;
#X obj 222 168 s \$0-rect;
#X obj 222 69 loadbang;
#X obj 284 68 bng 15 250 50 0 empty empty empty 17 7 0 10 -262144 -1
-1;
#X msg 222 148 label \$1;
#X obj 370 453 gf/canvas_setgop 0;
#X obj 351 205 tgl 15 0 empty empty empty 17 7 0 10 -262144 -1 -1 0
1;
#X obj 351 241 gf/canvas_edit_mode 1;
#X obj 351 222 metro 1000;
#X obj 351 167 loadbang;
#X obj 370 334 sel 0 1;
#X msg 389 353 0;
#X obj 370 415 delay 0;
#X obj 370 396 t b f;
#X obj 370 434 f;
#X obj 518 442 gf/canvas_filename 1;
#X obj 518 423 loadbang;
#X msg 518 461 symbol pd-\$1;
#X obj 500 415 bng 15 250 50 0 empty empty empty 17 7 0 10 -262144
-1 -1;
#X obj 503 480 s;
#X msg 483 376 map 0;
#X obj 351 289 t b f b;
#X msg 493 356 map 1;
#X msg 370 372 3;
#X obj 351 269 change -666;
#X msg 351 186 0;
#X obj 7 80 loadbang;
#X obj 7 118 symbol \$1;
#X obj 7 137 gf/string_replace c c/;
#X obj 7 157 gf/string_replace i i/;
#X obj 7 177 gf/string_replace o o/;
#X obj 61 216 symbol \$2;
#X obj 61 197 loadbang;
#X obj 7 216 pack s s;
#X obj 222 88 args id (type a ...) *;
#X obj 84 1 doc_layout ... 80 20;
#X obj 314 42 doc_below ??? 0 -20;
#X obj 7 99 gf.oneshot;
#X msg 7 235 name \$1/\$2 \, parent \$1;
#X obj 136 407 doc_editmode 42 1;
#X connect 0 0 37 0;
#X connect 3 0 35 0;
#X connect 4 0 35 0;
#X connect 5 0 2 0;
#X connect 7 0 9 0;
#X connect 8 0 25 0;
#X connect 9 0 8 0;
#X connect 10 0 26 0;
#X connect 11 0 24 0;
#X connect 11 1 12 0;
#X connect 12 0 14 0;
#X connect 13 0 15 0;
#X connect 14 0 13 0;
#X connect 14 1 15 1;
#X connect 15 0 6 0;
#X connect 16 0 18 0;
#X connect 17 0 16 0;
#X connect 18 0 20 1;
#X connect 19 0 16 0;
#X connect 21 0 20 0;
#X connect 22 1 11 0;
#X connect 23 0 20 0;
#X connect 24 0 14 0;
#X connect 25 0 22 0;
#X connect 26 0 7 0;
#X connect 27 0 38 0;
#X connect 28 0 29 0;
#X connect 29 0 30 0;
#X connect 30 0 31 0;
#X connect 31 0 34 0;
#X connect 31 0 37 1;
#X connect 32 0 34 1;
#X connect 33 0 32 0;
#X connect 34 0 39 0;
#X connect 35 1 5 0;
#X connect 36 2 0 0;
#X connect 37 0 36 1;
#X connect 38 0 28 0;
#X connect 39 0 36 0;
#X coords 0 -1 1 1 80 17 1 0 0;
