#N canvas 408 149 771 437 10;
#X msg 24 365 connect 0 0 2 0 \, connect 2 0 1 0;
#X obj 46 346 list trim;
#X msg 242 337 clear \, obj 0 0 r \$1-in \, obj 0 100 s \$1-out;
#X obj 46 98 list split 1;
#X obj 46 137 gf.suffix_lookup;
#X obj 93 247 list append;
#X obj 46 327 list prepend obj 0 50;
#X obj 46 308 list prepend;
#X obj 46 236 t b s;
#X obj 46 117 t s s;
#X obj 24 22 inlet;
#X obj 242 58 \$1;
#X obj 125 289 pack s s s;
#X obj 291 155 symbol \$2;
#X obj 291 136 loadbang;
#X obj 24 391 outlet;
#X obj 24 41 t b a b;
#X obj 93 171 sel window;
#X msg 93 190 symbol x11;
#X msg 93 209 symbol #io.\$1;
#X obj 93 228 list append \$2;
#X connect 0 0 15 0;
#X connect 1 0 15 0;
#X connect 2 0 15 0;
#X connect 3 0 9 0;
#X connect 3 1 5 1;
#X connect 4 0 8 0;
#X connect 4 2 17 0;
#X connect 5 0 6 0;
#X connect 6 0 1 0;
#X connect 7 0 6 0;
#X connect 8 0 7 0;
#X connect 8 1 12 0;
#X connect 9 0 4 0;
#X connect 9 1 12 2;
#X connect 10 0 16 0;
#X connect 11 0 2 0;
#X connect 12 0 7 1;
#X connect 13 0 12 1;
#X connect 14 0 13 0;
#X connect 16 0 0 0;
#X connect 16 1 3 0;
#X connect 16 2 11 0;
#X connect 17 0 18 0;
#X connect 17 1 19 0;
#X connect 18 0 19 0;
#X connect 19 0 20 0;
#X connect 20 0 5 0;
