#N canvas 770 0 450 300 10;
#X obj 50 0 hsl 129 12 0 65535 0 0 1005-s_contrast  contrast 4 7 1
10 -233017 -195568 -195568 0 0;
#X obj 0 0 nbx 5 12 0 65535 0 0 1005-s_contrast  empty 4 7 1 10 -233017
-195568 -195568 0 256;
#X obj 223 11 loadbang;
#X msg 276 49 label \$1;
#X obj 223 30 args (name s);
#X obj 223 49 t s s s;
#X msg 245 87 send \$1 \, receive;
#X msg 223 125 receive \$1 \, receive;
#X obj 223 106 makefilename \$0-%s;
#X obj 245 68 makefilename \$0-s_%s;
#X obj 223 144 t a;
#X connect 2 0 4 0;
#X connect 3 0 0 0;
#X connect 4 0 5 0;
#X connect 5 0 8 0;
#X connect 5 1 9 0;
#X connect 5 2 3 0;
#X connect 6 0 10 0;
#X connect 7 0 10 0;
#X connect 8 0 7 0;
#X connect 9 0 6 0;
#X connect 10 0 0 0;
#X connect 10 0 1 0;
#X coords 0 -1 1 1 181 12 2 0 0;
