#N canvas 772 0 450 688 10;
#X obj 11 11 inlet hpgl;
#X obj 11 628 outlet hpgl;
#X obj 85 11 inlet font_name;
#X obj 85 30 symbol;
#X obj 194 30 args font_name;
#X obj 194 11 loadbang;
#X msg 51 186 symbol \$1;
#X obj 51 205 #import;
#X obj 51 224 #to_float;
#X obj 51 243 pack f s;
#X msg 132 317 open grid \$2/\$1.hpgl \, headerless \, type b;
#X obj 51 436 until;
#X obj 51 455 #in;
#X obj 90 436 route bang;
#X obj 51 474 plotter_parser;
#X obj 11 135 t a;
#X obj 111 132 t b a b;
#X obj 51 262 t a b;
#X obj 90 262 #store;
#X obj 198 266 # +;
#X obj 214 228 #pack;
#X obj 106 78 route2 LB;
#X obj 173 78 hpgl_track_position;
#X obj 11 78 route spacing;
#X obj 81 512 hpgl_find_bbox;
#X obj 326 116 print track;
#X obj 51 291 t b a;
#X obj 198 247 # +;
#X obj 51 582 hpgl_offset;
#X obj 304 271 print bbox;
#X obj 183 512 # * (1 0);
#X obj 183 531 #fold inv+ \, seed (0 0);
#X obj 51 317 t b b b b a;
#X msg 129 358 1;
#X msg 130 395 0;
#X obj 51 493 shunt;
#X msg 23 366 rewind;
#X obj 174 576 #redim (2);
#X obj 174 595 # * (1 0);
#X obj 123 563 # inv+;
#X connect 0 0 23 0;
#X connect 2 0 3 0;
#X connect 3 0 9 1;
#X connect 4 0 3 0;
#X connect 4 1 23 0;
#X connect 5 0 4 0;
#X connect 6 0 7 0;
#X connect 7 0 8 0;
#X connect 8 0 9 0;
#X connect 9 0 17 0;
#X connect 10 0 12 0;
#X connect 11 0 12 0;
#X connect 12 0 14 0;
#X connect 12 1 13 0;
#X connect 13 0 11 1;
#X connect 14 0 35 0;
#X connect 15 0 1 0;
#X connect 16 1 6 0;
#X connect 16 2 22 1;
#X connect 17 0 26 0;
#X connect 17 1 18 0;
#X connect 18 0 27 0;
#X connect 18 0 39 1;
#X connect 19 0 18 1;
#X connect 20 0 27 1;
#X connect 21 0 16 0;
#X connect 21 1 22 0;
#X connect 22 0 15 0;
#X connect 22 1 18 1;
#X connect 22 1 25 0;
#X connect 23 0 20 0;
#X connect 23 1 21 0;
#X connect 24 1 29 0;
#X connect 24 1 30 0;
#X connect 24 1 37 0;
#X connect 26 0 24 1;
#X connect 26 1 32 0;
#X connect 27 0 19 0;
#X connect 28 0 1 0;
#X connect 30 0 31 0;
#X connect 31 0 19 1;
#X connect 32 0 11 0;
#X connect 32 1 34 0;
#X connect 32 1 36 0;
#X connect 32 2 11 0;
#X connect 32 3 33 0;
#X connect 32 4 10 0;
#X connect 33 0 35 1;
#X connect 34 0 35 1;
#X connect 35 0 28 0;
#X connect 35 1 24 0;
#X connect 36 0 12 0;
#X connect 37 0 38 0;
#X connect 38 0 39 0;
#X connect 39 0 28 1;
