#N canvas 772 0 450 688 10;
#X obj 11 11 inlet hpgl;
#X obj 11 662 outlet hpgl;
#X obj 85 11 inlet font_name;
#X obj 85 30 symbol;
#X obj 194 30 args font_name;
#X obj 194 11 loadbang;
#X msg 51 186 symbol \$1;
#X obj 51 205 #import;
#X obj 51 224 #to_float;
#X obj 51 243 pack f s;
#X msg 132 317 open grid \$2/\$1.hpgl \, headerless \, type b;
#X obj 51 436 until;
#X obj 51 455 #in;
#X obj 90 436 route bang;
#X obj 51 474 plotter_parser;
#X obj 11 135 t a;
#X obj 51 262 t a b;
#X obj 106 78 route2 LB;
#X obj 173 78 hpgl_track_position;
#X obj 11 78 route spacing;
#X obj 81 512 hpgl_find_bbox;
#X obj 326 116 print track;
#X obj 51 640 hpgl_offset;
#X obj 81 550 #fold inv+ \, seed (0 0);
#X obj 51 317 t b b b b a;
#X msg 300 384 1;
#X msg 301 421 0;
#X obj 51 493 shunt;
#X msg 23 366 rewind;
#X obj 113 578 #redim (2);
#X obj 113 620 # inv+;
#X obj 113 661 print of;
#X obj 106 124 t a b;
#X obj 90 262 f;
#X obj 198 247 +;
#X obj 198 266 +;
#X obj 150 601 #pack;
#X obj 255 511 print ah;
#X obj 106 293 print boo;
#X obj 219 602 print A;
#X obj 220 652 print B;
#X obj 173 141 #unpack;
#X obj 236 265 #unpack;
#X obj 81 531 # * (1 0);
#X connect 0 0 19 0;
#X connect 2 0 3 0;
#X connect 3 0 9 1;
#X connect 4 0 3 0;
#X connect 4 1 19 0;
#X connect 5 0 4 0;
#X connect 6 0 7 0;
#X connect 7 0 8 0;
#X connect 8 0 9 0;
#X connect 9 0 16 0;
#X connect 10 0 12 0;
#X connect 11 0 12 0;
#X connect 12 0 14 0;
#X connect 12 1 13 0;
#X connect 13 0 11 1;
#X connect 14 0 27 0;
#X connect 15 0 1 0;
#X connect 16 0 24 0;
#X connect 16 1 33 0;
#X connect 17 0 32 0;
#X connect 17 1 18 0;
#X connect 17 1 15 0;
#X connect 18 0 21 0;
#X connect 18 0 41 0;
#X connect 19 0 34 1;
#X connect 19 1 17 0;
#X connect 20 0 43 0;
#X connect 22 0 1 0;
#X connect 23 0 37 0;
#X connect 23 0 42 0;
#X connect 24 0 11 0;
#X connect 24 1 26 0;
#X connect 24 1 28 0;
#X connect 24 1 20 1;
#X connect 24 2 11 0;
#X connect 24 3 25 0;
#X connect 24 4 10 0;
#X connect 25 0 27 1;
#X connect 26 0 27 1;
#X connect 27 0 22 0;
#X connect 27 1 20 0;
#X connect 28 0 12 0;
#X connect 29 0 30 0;
#X connect 29 0 39 0;
#X connect 30 0 22 1;
#X connect 30 0 31 0;
#X connect 30 0 40 0;
#X connect 32 0 6 0;
#X connect 32 1 18 1;
#X connect 33 0 34 0;
#X connect 33 0 36 0;
#X connect 33 0 38 0;
#X connect 34 0 35 0;
#X connect 35 0 33 1;
#X connect 36 0 30 1;
#X connect 41 0 33 1;
#X connect 42 0 35 1;
#X connect 43 0 23 0;
#X connect 43 0 29 0;
