#N canvas 20 236 666 472 10;
#X text 337 23 usage:;
#X obj 341 101 symbol \$1;
#X obj 409 386 s;
#X obj 509 425 namecanvas \$0-yeault;
#X obj 423 99 symbol \$0-yeault;
#X obj 341 158 #import (2);
#X obj 341 120 t b s;
#X obj 341 234 #unpack 2;
#X obj 341 82 t b b b;
#X obj 518 313 #to_list;
#X obj 525 391 print;
#X obj 341 177 t a a;
#X obj 401 234 #unpack 2;
#X obj 361 286 pack f f f f f s;
#X obj 461 234 float \$0;
#X obj 590 219 pack;
#X obj 518 275 # *;
#X obj 341 196 # *;
#X obj 438 43 pack;
#X obj 341 139 #for (0 0) (0 0) (1 1);
#X obj 191 22 inlet;
#X obj 248 414 outlet;
#X obj 377 23 args obj ny nx (sy a 15) (sx a 15);
#X obj 518 256 #store;
#X obj 341 63 loadbang;
#X obj 191 186 #store;
#X obj 191 79 #for (0 0) (0 0) (1 1);
#X obj 191 41 t a a;
#X obj 191 60 #finished;
#X obj 191 205 #to_list;
#X obj 191 243 s;
#X msg 191 224 set \$1;
#X msg 159 310 obj \$2 \$1 \$6 \, last send \$5-send-\$3-\$4 \, last
receive \$5-recv-\$3-\$4;
#X obj 341 214 # + (17 4);
#X msg 428 355 coords 0 -1 1 1 \$2 \$1 1 0 0 0;
#X obj 518 294 # + (21 8);
#X obj 227 117 #unpack;
#X obj 191 98 #import (2);
#X obj 191 117 t a a;
#X obj 210 148 pack f f \$0;
#X msg 210 167 symbol \$3-recv-\$1-\$2;
#X connect 1 0 6 0;
#X connect 4 0 2 1;
#X connect 5 0 11 0;
#X connect 6 0 19 0;
#X connect 6 1 13 5;
#X connect 7 0 13 0;
#X connect 7 1 13 1;
#X connect 8 0 1 0;
#X connect 8 1 23 0;
#X connect 8 2 4 0;
#X connect 8 2 14 0;
#X connect 9 0 34 0;
#X connect 11 0 17 0;
#X connect 11 1 12 0;
#X connect 12 0 13 2;
#X connect 12 1 13 3;
#X connect 13 0 32 0;
#X connect 14 0 13 4;
#X connect 15 0 16 1;
#X connect 15 0 17 1;
#X connect 16 0 35 0;
#X connect 17 0 33 0;
#X connect 18 0 19 1;
#X connect 18 0 23 1;
#X connect 18 0 26 1;
#X connect 19 0 5 0;
#X connect 20 0 27 0;
#X connect 22 1 18 0;
#X connect 22 2 18 1;
#X connect 22 3 15 0;
#X connect 22 4 15 1;
#X connect 23 0 16 0;
#X connect 24 0 8 0;
#X connect 25 0 29 0;
#X connect 26 0 37 0;
#X connect 27 0 28 0;
#X connect 27 1 25 1;
#X connect 28 0 26 0;
#X connect 29 0 31 0;
#X connect 31 0 30 0;
#X connect 32 0 2 0;
#X connect 33 0 7 0;
#X connect 34 0 2 0;
#X connect 34 0 10 0;
#X connect 35 0 9 0;
#X connect 36 0 39 0;
#X connect 36 1 39 1;
#X connect 37 0 38 0;
#X connect 38 0 25 0;
#X connect 38 1 36 0;
#X connect 39 0 40 0;
#X connect 40 0 30 1;
#X coords 0 -1 1 1 200 21 1 0 0;
