#N canvas 351 51 666 472 10;
#X text 337 23 usage:;
#X obj 341 101 symbol \$1;
#X obj 409 386 s;
#X obj 509 425 namecanvas \$0-yeault;
#X obj 423 99 symbol \$0-yeault;
#X obj 341 158 #import (2);
#X obj 341 120 t b s;
#X obj 341 234 #unpack 2;
#X obj 341 215 # + (2 17);
#X obj 341 82 t b b b;
#X obj 518 256 #store ( \$3 \$2 );
#X obj 518 314 #to_list;
#X obj 525 391 print;
#X msg 428 355 coords 0 -1 1 1 \$1 \$2 1 0 0 0;
#X obj 518 295 # + (4 19);
#X obj 341 177 t a a;
#X obj 401 234 #unpack 2;
#X obj 361 286 pack f f f f f s;
#X obj 461 234 float \$0;
#X obj 377 23 args obj nx ny (sx a 15) (sy a 15);
#X obj 590 200 swap;
#X obj 590 219 pack;
#X obj 518 275 # *;
#X obj 341 196 # *;
#X obj 443 53 swap;
#X obj 443 72 pack;
#X obj 341 139 #for (0 0) (0 0) (1 1);
#X obj 341 63 loadbang;
#X msg 159 310 obj \$1 \$2 \$6 \, last send \$5-send-\$3-\$4 \, last
receive \$5-recv-\$3-\$4;
#X obj 2 17 tgl 15 0 1021-send-0-0 1021-recv-0-0 empty 17 7 0 10 -262144
-1 -1 0 1;
#X obj 2 32 tgl 15 0 1021-send-0-1 1021-recv-0-1 empty 17 7 0 10 -262144
-1 -1 0 1;
#X obj 2 47 tgl 15 0 1021-send-0-2 1021-recv-0-2 empty 17 7 0 10 -262144
-1 -1 0 1;
#X obj 2 62 tgl 15 0 1021-send-0-3 1021-recv-0-3 empty 17 7 0 10 -262144
-1 -1 0 1;
#X obj 2 77 tgl 15 0 1021-send-0-4 1021-recv-0-4 empty 17 7 0 10 -262144
-1 -1 0 1;
#X obj 2 92 tgl 15 0 1021-send-0-5 1021-recv-0-5 empty 17 7 0 10 -262144
-1 -1 0 1;
#X obj 2 107 tgl 15 0 1021-send-0-6 1021-recv-0-6 empty 17 7 0 10 -262144
-1 -1 0 1;
#X obj 2 122 tgl 15 0 1021-send-0-7 1021-recv-0-7 empty 17 7 0 10 -262144
-1 -1 0 1;
#X obj 2 137 tgl 15 0 1021-send-0-8 1021-recv-0-8 empty 17 7 0 10 -262144
-1 -1 0 1;
#X obj 17 17 tgl 15 0 1021-send-1-0 1021-recv-1-0 empty 17 7 0 10 -262144
-1 -1 0 1;
#X obj 17 32 tgl 15 0 1021-send-1-1 1021-recv-1-1 empty 17 7 0 10 -262144
-1 -1 0 1;
#X obj 17 47 tgl 15 0 1021-send-1-2 1021-recv-1-2 empty 17 7 0 10 -262144
-1 -1 0 1;
#X obj 17 62 tgl 15 0 1021-send-1-3 1021-recv-1-3 empty 17 7 0 10 -262144
-1 -1 0 1;
#X obj 17 77 tgl 15 0 1021-send-1-4 1021-recv-1-4 empty 17 7 0 10 -262144
-1 -1 0 1;
#X obj 17 92 tgl 15 0 1021-send-1-5 1021-recv-1-5 empty 17 7 0 10 -262144
-1 -1 0 1;
#X obj 17 107 tgl 15 0 1021-send-1-6 1021-recv-1-6 empty 17 7 0 10
-262144 -1 -1 0 1;
#X obj 17 122 tgl 15 0 1021-send-1-7 1021-recv-1-7 empty 17 7 0 10
-262144 -1 -1 0 1;
#X obj 17 137 tgl 15 0 1021-send-1-8 1021-recv-1-8 empty 17 7 0 10
-262144 -1 -1 0 1;
#X obj 32 17 tgl 15 0 1021-send-2-0 1021-recv-2-0 empty 17 7 0 10 -262144
-1 -1 0 1;
#X obj 32 32 tgl 15 0 1021-send-2-1 1021-recv-2-1 empty 17 7 0 10 -262144
-1 -1 0 1;
#X obj 32 47 tgl 15 0 1021-send-2-2 1021-recv-2-2 empty 17 7 0 10 -262144
-1 -1 0 1;
#X obj 32 62 tgl 15 0 1021-send-2-3 1021-recv-2-3 empty 17 7 0 10 -262144
-1 -1 0 1;
#X obj 32 77 tgl 15 0 1021-send-2-4 1021-recv-2-4 empty 17 7 0 10 -262144
-1 -1 0 1;
#X obj 32 92 tgl 15 0 1021-send-2-5 1021-recv-2-5 empty 17 7 0 10 -262144
-1 -1 0 1;
#X obj 32 107 tgl 15 0 1021-send-2-6 1021-recv-2-6 empty 17 7 0 10
-262144 -1 -1 0 1;
#X obj 32 122 tgl 15 0 1021-send-2-7 1021-recv-2-7 empty 17 7 0 10
-262144 -1 -1 0 1;
#X obj 32 137 tgl 15 0 1021-send-2-8 1021-recv-2-8 empty 17 7 0 10
-262144 -1 -1 0 1;
#X obj 47 17 tgl 15 0 1021-send-3-0 1021-recv-3-0 empty 17 7 0 10 -262144
-1 -1 0 1;
#X obj 47 32 tgl 15 0 1021-send-3-1 1021-recv-3-1 empty 17 7 0 10 -262144
-1 -1 0 1;
#X obj 47 47 tgl 15 0 1021-send-3-2 1021-recv-3-2 empty 17 7 0 10 -262144
-1 -1 0 1;
#X obj 47 62 tgl 15 0 1021-send-3-3 1021-recv-3-3 empty 17 7 0 10 -262144
-1 -1 0 1;
#X obj 47 77 tgl 15 0 1021-send-3-4 1021-recv-3-4 empty 17 7 0 10 -262144
-1 -1 0 1;
#X obj 47 92 tgl 15 0 1021-send-3-5 1021-recv-3-5 empty 17 7 0 10 -262144
-1 -1 0 1;
#X obj 47 107 tgl 15 0 1021-send-3-6 1021-recv-3-6 empty 17 7 0 10
-262144 -1 -1 0 1;
#X obj 47 122 tgl 15 0 1021-send-3-7 1021-recv-3-7 empty 17 7 0 10
-262144 -1 -1 0 1;
#X obj 47 137 tgl 15 0 1021-send-3-8 1021-recv-3-8 empty 17 7 0 10
-262144 -1 -1 0 1;
#X obj 62 17 tgl 15 0 1021-send-4-0 1021-recv-4-0 empty 17 7 0 10 -262144
-1 -1 0 1;
#X obj 62 32 tgl 15 0 1021-send-4-1 1021-recv-4-1 empty 17 7 0 10 -262144
-1 -1 0 1;
#X obj 62 47 tgl 15 0 1021-send-4-2 1021-recv-4-2 empty 17 7 0 10 -262144
-1 -1 0 1;
#X obj 62 62 tgl 15 0 1021-send-4-3 1021-recv-4-3 empty 17 7 0 10 -262144
-1 -1 0 1;
#X obj 62 77 tgl 15 0 1021-send-4-4 1021-recv-4-4 empty 17 7 0 10 -262144
-1 -1 0 1;
#X obj 62 92 tgl 15 0 1021-send-4-5 1021-recv-4-5 empty 17 7 0 10 -262144
-1 -1 0 1;
#X obj 62 107 tgl 15 0 1021-send-4-6 1021-recv-4-6 empty 17 7 0 10
-262144 -1 -1 0 1;
#X obj 62 122 tgl 15 0 1021-send-4-7 1021-recv-4-7 empty 17 7 0 10
-262144 -1 -1 0 1;
#X obj 62 137 tgl 15 0 1021-send-4-8 1021-recv-4-8 empty 17 7 0 10
-262144 -1 -1 0 1;
#X obj 77 17 tgl 15 0 1021-send-5-0 1021-recv-5-0 empty 17 7 0 10 -262144
-1 -1 0 1;
#X obj 77 32 tgl 15 0 1021-send-5-1 1021-recv-5-1 empty 17 7 0 10 -262144
-1 -1 0 1;
#X obj 77 47 tgl 15 0 1021-send-5-2 1021-recv-5-2 empty 17 7 0 10 -262144
-1 -1 0 1;
#X obj 77 62 tgl 15 0 1021-send-5-3 1021-recv-5-3 empty 17 7 0 10 -262144
-1 -1 0 1;
#X obj 77 77 tgl 15 0 1021-send-5-4 1021-recv-5-4 empty 17 7 0 10 -262144
-1 -1 0 1;
#X obj 77 92 tgl 15 0 1021-send-5-5 1021-recv-5-5 empty 17 7 0 10 -262144
-1 -1 0 1;
#X obj 77 107 tgl 15 0 1021-send-5-6 1021-recv-5-6 empty 17 7 0 10
-262144 -1 -1 0 1;
#X obj 77 122 tgl 15 0 1021-send-5-7 1021-recv-5-7 empty 17 7 0 10
-262144 -1 -1 0 1;
#X obj 77 137 tgl 15 0 1021-send-5-8 1021-recv-5-8 empty 17 7 0 10
-262144 -1 -1 0 1;
#X obj 92 17 tgl 15 0 1021-send-6-0 1021-recv-6-0 empty 17 7 0 10 -262144
-1 -1 0 1;
#X obj 92 32 tgl 15 0 1021-send-6-1 1021-recv-6-1 empty 17 7 0 10 -262144
-1 -1 0 1;
#X obj 92 47 tgl 15 0 1021-send-6-2 1021-recv-6-2 empty 17 7 0 10 -262144
-1 -1 0 1;
#X obj 92 62 tgl 15 0 1021-send-6-3 1021-recv-6-3 empty 17 7 0 10 -262144
-1 -1 0 1;
#X obj 92 77 tgl 15 0 1021-send-6-4 1021-recv-6-4 empty 17 7 0 10 -262144
-1 -1 0 1;
#X obj 92 92 tgl 15 0 1021-send-6-5 1021-recv-6-5 empty 17 7 0 10 -262144
-1 -1 0 1;
#X obj 92 107 tgl 15 0 1021-send-6-6 1021-recv-6-6 empty 17 7 0 10
-262144 -1 -1 0 1;
#X obj 92 122 tgl 15 0 1021-send-6-7 1021-recv-6-7 empty 17 7 0 10
-262144 -1 -1 0 1;
#X obj 92 137 tgl 15 0 1021-send-6-8 1021-recv-6-8 empty 17 7 0 10
-262144 -1 -1 0 1;
#X obj 107 17 tgl 15 0 1021-send-7-0 1021-recv-7-0 empty 17 7 0 10
-262144 -1 -1 0 1;
#X obj 107 32 tgl 15 0 1021-send-7-1 1021-recv-7-1 empty 17 7 0 10
-262144 -1 -1 0 1;
#X obj 107 47 tgl 15 0 1021-send-7-2 1021-recv-7-2 empty 17 7 0 10
-262144 -1 -1 0 1;
#X obj 107 62 tgl 15 0 1021-send-7-3 1021-recv-7-3 empty 17 7 0 10
-262144 -1 -1 0 1;
#X obj 107 77 tgl 15 0 1021-send-7-4 1021-recv-7-4 empty 17 7 0 10
-262144 -1 -1 0 1;
#X obj 107 92 tgl 15 0 1021-send-7-5 1021-recv-7-5 empty 17 7 0 10
-262144 -1 -1 0 1;
#X obj 107 107 tgl 15 0 1021-send-7-6 1021-recv-7-6 empty 17 7 0 10
-262144 -1 -1 0 1;
#X obj 107 122 tgl 15 0 1021-send-7-7 1021-recv-7-7 empty 17 7 0 10
-262144 -1 -1 0 1;
#X obj 107 137 tgl 15 0 1021-send-7-8 1021-recv-7-8 empty 17 7 0 10
-262144 -1 -1 0 1;
#X obj 122 17 tgl 15 0 1021-send-8-0 1021-recv-8-0 empty 17 7 0 10
-262144 -1 -1 0 1;
#X obj 122 32 tgl 15 0 1021-send-8-1 1021-recv-8-1 empty 17 7 0 10
-262144 -1 -1 0 1;
#X obj 122 47 tgl 15 0 1021-send-8-2 1021-recv-8-2 empty 17 7 0 10
-262144 -1 -1 0 1;
#X obj 122 62 tgl 15 0 1021-send-8-3 1021-recv-8-3 empty 17 7 0 10
-262144 -1 -1 0 1;
#X obj 122 77 tgl 15 0 1021-send-8-4 1021-recv-8-4 empty 17 7 0 10
-262144 -1 -1 0 1;
#X obj 122 92 tgl 15 0 1021-send-8-5 1021-recv-8-5 empty 17 7 0 10
-262144 -1 -1 0 1;
#X obj 122 107 tgl 15 0 1021-send-8-6 1021-recv-8-6 empty 17 7 0 10
-262144 -1 -1 0 1;
#X obj 122 122 tgl 15 0 1021-send-8-7 1021-recv-8-7 empty 17 7 0 10
-262144 -1 -1 0 1;
#X obj 122 137 tgl 15 0 1021-send-8-8 1021-recv-8-8 empty 17 7 0 10
-262144 -1 -1 0 1;
#X connect 1 0 6 0;
#X connect 4 0 2 1;
#X connect 5 0 15 0;
#X connect 6 0 26 0;
#X connect 6 1 17 5;
#X connect 7 0 17 0;
#X connect 7 1 17 1;
#X connect 8 0 7 0;
#X connect 9 0 1 0;
#X connect 9 1 10 0;
#X connect 9 2 4 0;
#X connect 9 2 18 0;
#X connect 10 0 22 0;
#X connect 11 0 13 0;
#X connect 13 0 2 0;
#X connect 13 0 12 0;
#X connect 14 0 11 0;
#X connect 15 0 23 0;
#X connect 15 1 16 0;
#X connect 16 0 17 2;
#X connect 16 1 17 3;
#X connect 17 0 28 0;
#X connect 18 0 17 4;
#X connect 19 1 24 0;
#X connect 19 2 24 1;
#X connect 19 3 20 0;
#X connect 19 4 20 1;
#X connect 20 0 21 0;
#X connect 20 1 21 1;
#X connect 21 0 22 1;
#X connect 21 0 23 1;
#X connect 22 0 14 0;
#X connect 23 0 8 0;
#X connect 24 0 25 0;
#X connect 24 1 25 1;
#X connect 25 0 26 1;
#X connect 26 0 5 0;
#X connect 27 0 9 0;
#X connect 28 0 2 0;
#X coords 0 -1 1 1 139 154 1 0 0;
