#N canvas 351 51 666 472 10;
#X text 337 23 usage:;
#X obj 341 101 symbol \$1;
#X obj 409 386 s;
#X obj 509 425 namecanvas \$0-yeault;
#X obj 423 99 symbol \$0-yeault;
#X obj 341 158 #import (2);
#X obj 341 120 t b s;
#X obj 341 234 #unpack 2;
#X obj 341 214 # + (2 17);
#X obj 341 82 t b b b;
#X obj 518 256 #store ( \$3 \$2 );
#X obj 518 314 #to_list;
#X obj 525 391 print;
#X msg 428 355 coords 0 -1 1 1 \$1 \$2 1 0 0 0;
#X obj 518 295 # + (4 19);
#X obj 341 177 t a a;
#X obj 401 234 #unpack 2;
#X obj 361 286 pack f f f f f s;
#X obj 461 234 float \$0;
#X obj 377 23 args obj nx ny (sx a 15) (sy a 15);
#X obj 590 200 swap;
#X obj 590 219 pack;
#X obj 518 275 # *;
#X obj 341 196 # *;
#X obj 443 53 swap;
#X obj 443 72 pack;
#X obj 341 139 #for (0 0) (0 0) (1 1);
#X obj 341 63 loadbang;
#X msg 159 310 obj \$1 \$2 \$6 \, last send \$5-send-\$3-\$4 \, last
receive \$5-recv-\$3-\$4;
#X obj 259 23 inlet;
#X obj 248 414 outlet;
#X connect 1 0 6 0;
#X connect 4 0 2 1;
#X connect 5 0 15 0;
#X connect 6 0 26 0;
#X connect 6 1 17 5;
#X connect 7 0 17 0;
#X connect 7 1 17 1;
#X connect 8 0 7 0;
#X connect 9 0 1 0;
#X connect 9 1 10 0;
#X connect 9 2 4 0;
#X connect 9 2 18 0;
#X connect 10 0 22 0;
#X connect 11 0 13 0;
#X connect 13 0 2 0;
#X connect 13 0 12 0;
#X connect 14 0 11 0;
#X connect 15 0 23 0;
#X connect 15 1 16 0;
#X connect 16 0 17 2;
#X connect 16 1 17 3;
#X connect 17 0 28 0;
#X connect 18 0 17 4;
#X connect 19 1 24 0;
#X connect 19 2 24 1;
#X connect 19 3 20 0;
#X connect 19 4 20 1;
#X connect 20 0 21 0;
#X connect 20 1 21 1;
#X connect 21 0 22 1;
#X connect 21 0 23 1;
#X connect 22 0 14 0;
#X connect 23 0 8 0;
#X connect 24 0 25 0;
#X connect 24 1 25 1;
#X connect 25 0 26 1;
#X connect 26 0 5 0;
#X connect 27 0 9 0;
#X connect 28 0 2 0;
#X coords 0 -1 1 1 139 154 1 0 0;
