#N canvas 371 309 450 300 10;
#X obj 32 28 inlet;
#X obj 98 234 outlet;
#X obj 98 131 #draw_polygon put;
#X obj 234 1 inlet;
#X obj 234 63 #export_list;
#X msg 234 82 4 2 # \$1 \$2 \$1 \$4 \$3 \$4 \$3 \$2;
#X obj 72 28 inlet;
#X obj 121 13 loadbang;
#X obj 121 32 args op color;
#X msg 107 107 op \$1;
#X obj 234 101 shunt 2;
#X obj 12 60 route outline;
#X obj 242 38 #store;
#X obj 12 82 t b f;
#X obj 286 133 @join 0;
#X obj 289 113 t a a;
#X obj 328 113 # + (1 1 -1 -1);
#X connect 0 0 11 0;
#X connect 2 0 1 0;
#X connect 3 0 12 1;
#X connect 3 0 4 0;
#X connect 4 0 5 0;
#X connect 5 0 10 0;
#X connect 6 0 2 1;
#X connect 7 0 8 0;
#X connect 8 0 9 0;
#X connect 8 1 2 1;
#X connect 9 0 2 0;
#X connect 10 0 2 2;
#X connect 10 1 15 0;
#X connect 11 0 13 0;
#X connect 11 1 2 0;
#X connect 12 0 4 0;
#X connect 13 0 12 0;
#X connect 13 1 10 1;
#X connect 14 0 2 2;
#X connect 15 0 14 0;
#X connect 15 1 16 0;
#X connect 16 0 14 1;
