#N canvas 310 131 669 466 10;
#N canvas 0 0 450 300 test 0;
#X obj 264 137 # +;
#X obj 23 58 #for (0 0) (5 5) (1 1);
#X obj 23 96 #fold & \, seed 1;
#X obj 23 41 bng 15 250 50 0 empty empty empty 0 -6 0 8 -262144 -1
-1;
#X obj 23 115 #convolve (3 3 # 1 2 3 4 5 6 7 8 9) \, wrap 0 \, anti
0;
#X obj 22 77 # == 2;
#X obj 23 134 #print;
#X obj 264 156 #print;
#X connect 0 0 7 0;
#X connect 1 0 5 0;
#X connect 2 0 0 0;
#X connect 2 0 4 0;
#X connect 3 0 1 0;
#X connect 4 0 6 0;
#X connect 5 0 2 0;
#X restore 503 7 pd test convolve attr;
#X obj 43 146 # inv* 65535;
#X obj 18 146 # *;
#X obj 18 165 # >> 16;
#X obj 18 89 #border (0 0 0) (0 0 0);
#X obj 18 108 #scan + \, seed (3 #);
#X obj 18 127 #convolve (1 1 # 1) \, wrap 0;
#X obj 136 13 # / 2;
#X obj 136 32 #outer * (0 1 0);
#X obj 183 70 # / 2;
#X obj 183 89 #outer * (0 1 0);
#X obj 183 51 # + 1;
#X obj 18 15 inlet image;
#X obj 18 184 outlet image;
#X obj 261 5 inlet kernelSize;
#X obj 261 57 #unpack;
#X obj 314 190 @join 1 (1 1 # 1);
#X obj 314 95 # == 0;
#X obj 314 76 #for 0 0 1;
#X obj 314 133 #finished;
#X msg 314 152 1 #;
#X obj 314 114 t a a;
#X obj 314 171 #outer -;
#X obj 314 57 t b f;
#X connect 1 0 2 1;
#X connect 2 0 3 0;
#X connect 3 0 13 0;
#X connect 4 0 5 0;
#X connect 5 0 6 0;
#X connect 6 0 2 0;
#X connect 7 0 8 0;
#X connect 8 0 4 1;
#X connect 9 0 10 0;
#X connect 10 0 4 2;
#X connect 11 0 9 0;
#X connect 12 0 4 0;
#X connect 14 0 15 0;
#X connect 15 1 7 0;
#X connect 15 1 11 0;
#X connect 15 1 23 0;
#X connect 15 1 1 0;
#X connect 16 0 6 1;
#X connect 17 0 21 0;
#X connect 18 0 17 0;
#X connect 19 0 20 0;
#X connect 20 0 22 0;
#X connect 21 0 19 0;
#X connect 21 1 22 1;
#X connect 22 0 16 0;
#X connect 23 0 18 0;
#X connect 23 1 18 1;
