#N canvas 0 0 450 300 10;
#X obj 42 128 print;
#X obj 23 103 listsublist 0 2;
#X obj 50 82 fork;
#X text 177 169 1=click\, 0=nochange\, -1=unclick;
#X text 104 34 list (y\,x\,buttons);
#X obj 140 144 fork;
#X text 198 114 is button pressed?;
#X obj 137 190 -;
#X obj 139 117 > 0;
#X obj 139 95 listelement 2;
#X obj 44 31 r mouse;
#X obj 187 250 outlet;
#X obj 161 225 outlet;
#X obj 48 188 demux 2;
#X obj 53 259 demux 2;
#X connect 1 0 0 0;
#X connect 1 0 13 0;
#X connect 1 0 14 0;
#X connect 2 0 1 0;
#X connect 2 1 9 0;
#X connect 5 0 7 1;
#X connect 5 1 7 0;
#X connect 7 0 14 1;
#X connect 8 0 5 0;
#X connect 8 0 13 1;
#X connect 9 0 8 0;
#X connect 10 0 2 0;
#X connect 13 1 12 0;
#X connect 14 1 11 0;
