#N canvas 0 0 450 300 10;
#X obj 20 -35 inlet;
#X obj 60 -35 inlet;
#X obj 20 -1 swap;
#X obj 20 39 outlet;
#X obj 20 20 /;
#X connect 0 0 2 0;
#X connect 1 0 2 1;
#X connect 2 0 4 0;
#X connect 2 1 4 1;
#X connect 4 0 3 0;
