#N canvas 0 0 450 300 10;
#X text 50 11 counter;
#X obj 67 40 inlet;
#X obj 67 98 %;
#X obj 67 120 -;
#X obj 162 38 inlet;
#X text 156 11 maxvalue;
#X obj 83 77 * 2;
#X obj 67 142 abs;
#X obj 67 245 outlet;
#X text 123 244 values from 0 to maxvalue;
#X obj 67 163 -;
#X obj 67 185 * -1;
#X connect 1 0 2 0;
#X connect 2 0 3 0;
#X connect 3 0 7 0;
#X connect 4 0 6 0;
#X connect 4 0 3 1;
#X connect 4 0 10 1;
#X connect 6 0 2 1;
#X connect 7 0 10 0;
#X connect 10 0 11 0;
#X connect 11 0 8 0;
