#N canvas 594 118 632 386 10;
#X obj 0 0 doc_h;
#X obj 32 70 foreach;
#X obj 3 175 doc_c 0;
#X obj 3 215 doc_i 1;
#X obj 14 245 doc_ii 0;
#X obj 97 245 doc_m i0 list;
#X obj 3 277 doc_o 1;
#X obj 14 307 doc_oo 0;
#X obj 0 357 doc_f;
#X obj 97 307 doc_m o0 <atom>;
#X obj 3 337 doc_also;
#X obj 103 337 drip 0;
#X text 183 49 split a message into separate atoms and output them
all.;
#X text 232 245 Outputs N messages \, one per list element \, in forward
order.;
#X msg 32 51 1 2 1 2 patate poil;
#X obj 32 89 print;
#X obj 153 133 foreach;
#X obj 153 152 print;
#X msg 153 76 symbol foo42;
#X obj 153 114 #to_list;
#X obj 153 95 #import;
#X connect 1 0 15 0;
#X connect 5 1 13 0;
#X connect 10 1 11 0;
#X connect 14 0 1 0;
#X connect 16 0 17 0;
#X connect 18 0 20 0;
#X connect 19 0 16 0;
#X connect 20 0 19 0;
