#N canvas 616 161 623 524 10;
#X obj 29 71 tgl 15 0 empty empty empty 17 7 0 10 -204786 -1 -1 1 1
;
#X obj 29 129 #remap_image;
#X obj 190 124 # c2p (0 0);
#X obj 190 143 # >>;
#X obj 190 203 # <<;
#X obj 190 162 #rotate;
#X obj 379 145 * 100;
#X obj 190 222 # p2c (0 0);
#X obj 264 76 #pack;
#X obj 190 184 # *>>8;
#X obj 291 60 nbx 5 14 -1e+37 1e+37 0 1 empty empty empty 0 -8 0 10
-262130 -1 -1 160 256;
#X obj 291 44 nbx 5 14 -1e+37 1e+37 0 1 empty empty empty 0 -8 0 10
-262130 -1 -1 120 256;
#X obj 291 135 #pack;
#X obj 318 119 nbx 5 14 -1e+37 1e+37 0 1 empty empty empty 0 -8 0 10
-262130 -1 -1 256 256;
#X obj 318 103 nbx 5 14 -1e+37 1e+37 0 1 empty empty empty 0 -8 0 10
-262130 -1 -1 288 256;
#X obj 293 225 #pack;
#X obj 320 209 nbx 5 14 -1e+37 1e+37 0 1 empty empty empty 0 -8 0 10
-262130 -1 -1 9 256;
#X obj 320 193 nbx 5 14 -1e+37 1e+37 0 1 empty empty empty 0 -8 0 10
-262130 -1 -1 7 256;
#X obj 379 129 nbx 5 14 -1e+37 1e+37 0 1 empty empty empty 0 -8 0 10
-262130 -1 -1 0 256;
#X text 10 1 Copyright 2009 Mathieu Bouchard;
#X obj 29 398 shunt;
#X obj 65 399 tgl 15 0 empty empty empty 17 7 0 10 -262130 -1 -1 1
1;
#X obj 56 418 #scale_by 2;
#X msg 57 441 border 0 \, move 120 1440;
#X obj 29 481 fps;
#X floatatom 29 500 5 0 0 0 - - -;
#X obj 29 90 metro 33.3333;
#X obj 0 0 doc_demo;
#X text 3 24 Copyright 2009 by Mathieu Bouchard;
#X obj 29 462 #out window;
#X obj 56 167 t a a;
#X obj 29 148 shunt;
#X obj 65 149 tgl 15 0 empty empty empty 17 7 0 10 -262130 -1 -1 0
1;
#X obj 56 191 # abs-;
#X obj 56 229 #clip;
#X obj 29 263 shunt;
#X obj 65 264 tgl 15 0 empty empty empty 17 7 0 10 -262130 -1 -1 1
1;
#X obj 56 372 #clip;
#X obj 29 109 #camera 0 \, size 240 320;
#X obj 56 285 #convolve (3 3 # 1 4 1 4 -19 4) \, seed 8;
#X obj 56 210 # << 2;
#X obj 190 105 # << 4;
#X obj 190 241 # >> 4;
#X obj 264 95 # << 4;
#X connect 0 0 26 0;
#X connect 1 0 31 0;
#X connect 1 1 41 0;
#X connect 2 0 3 0;
#X connect 3 0 5 0;
#X connect 4 0 7 0;
#X connect 5 0 9 0;
#X connect 6 0 5 1;
#X connect 7 0 42 0;
#X connect 8 0 43 0;
#X connect 9 0 4 0;
#X connect 10 0 8 1;
#X connect 11 0 8 0;
#X connect 12 0 9 1;
#X connect 13 0 12 1;
#X connect 14 0 12 0;
#X connect 15 0 4 1;
#X connect 15 0 3 1;
#X connect 16 0 15 1;
#X connect 17 0 15 0;
#X connect 18 0 6 0;
#X connect 20 0 29 0;
#X connect 20 1 22 0;
#X connect 21 0 20 1;
#X connect 22 0 29 0;
#X connect 23 0 29 0;
#X connect 24 0 25 0;
#X connect 26 0 38 0;
#X connect 29 0 24 0;
#X connect 30 0 33 1;
#X connect 30 1 33 0;
#X connect 31 0 35 0;
#X connect 31 1 30 0;
#X connect 32 0 31 1;
#X connect 33 0 40 0;
#X connect 34 0 35 1;
#X connect 35 0 20 0;
#X connect 35 1 39 0;
#X connect 36 0 35 1;
#X connect 37 0 20 1;
#X connect 38 0 1 0;
#X connect 39 0 37 0;
#X connect 40 0 34 0;
#X connect 41 0 2 0;
#X connect 42 0 1 1;
#X connect 43 0 2 1;
#X connect 43 0 7 1;
