#N canvas 607 100 1254 723 10;
#X obj 673 98 # -;
#X obj 673 47 #for (0 0) (240 320) (1 1);
#X obj 697 81 bng 15 250 50 0 empty empty empty 17 7 0 10 -262144 -1
-1;
#X obj 673 30 bng 15 250 50 0 empty empty empty 17 7 0 10 -262144 -1
-1;
#X obj 673 122 # *;
#X floatatom 697 123 5 0 0 0 - - -;
#X obj 673 147 #inner (2 3 # 1 0 0 0 1 0);
#X obj 697 98 #for (0 0) (1 320) (1 1);
#X obj 552 98 #in;
#X obj 552 60 loadbang;
#X obj 510 155 #out window;
#X obj 510 98 #store;
#X msg 582 117 0 #;
#X msg 552 79 load pure-data.jpg;
#X obj 510 117 # * (1 1 0);
#X obj 510 66 t b b;
#X obj 510 20 tgl 15 0 empty empty empty 17 7 0 10 -262144 -1 -1 0
1;
#X obj 510 37 metro 33.3333;
#X obj 958 64 # rand;
#X obj 958 83 display;
#X msg 1018 63 op sqrt;
#X msg 958 45 10 # 0 1 2;
#X msg 1032 35 op ~;
#X msg 1034 13 op !;
#X floatatom 968 150 5 0 0 0 - - -;
#X floatatom 968 187 10 0 0 0 - - -;
#X obj 968 168 #expr pow(fact($f1) \, 2);
#X floatatom 968 218 5 0 0 0 - - -;
#X floatatom 968 255 10 0 0 0 - - -;
#X obj 968 236 #expr fact($f1)**2;
#X floatatom 968 288 5 0 0 0 - - -;
#X floatatom 968 325 10 0 0 0 - - -;
#X obj 968 306 #expr fact($f1)*fact($f1);
#X floatatom 975 351 5 0 0 0 - - -;
#X floatatom 975 407 10 0 0 0 - - -;
#X obj 975 388 pow 2;
#X obj 975 369 #expr fact($f1);
#X obj 768 383 expr fact($f1);
#X floatatom 771 409 10 0 0 0 - - -;
#X floatatom 768 360 5 0 0 0 - - -;
#X obj 32 42 # + (2 3 5 7);
#X obj 38 62 display;
#X obj 32 108 #is (2 2 # 72 53 35 27);
#X msg 32 207 7 s # 100 200 300 400 500 600 700;
#X obj 32 245 display;
#X obj 32 226 # >> (s 1);
#X obj 32 185 display;
#X msg 32 147 7 b # 30 60 90 120 150 180 210;
#X obj 32 166 # >> (b 1);
#X obj 32 406 # min;
#X msg 32 387 7 \$1 # 30 60 90 120 150 180 210;
#X msg 229 387 7 \$1 # 15 67 93 60 250 80 110;
#X obj 166 364 t s s;
#X obj 166 282 #type-gui;
#X obj 72 406 # max;
#X obj 32 425 #cast;
#X obj 72 425 #cast;
#X obj 78 445 display;
#X obj 78 465 display;
#X msg 32 23 2 2 # 70 50 30 10;
#X obj 72 516 #is (30 67 93 120 250 180 210);
#X obj 32 536 #is (15 60 90 60 150 80 110);
#X obj 304 229 # ** -1;
#X msg 304 210 42;
#X obj 304 248 #is 0;
#X connect 0 0 4 0;
#X connect 1 0 0 0;
#X connect 2 0 7 0;
#X connect 3 0 1 0;
#X connect 4 0 6 0;
#X connect 5 0 4 1;
#X connect 7 0 0 1;
#X connect 8 0 11 1;
#X connect 9 0 13 0;
#X connect 11 0 14 0;
#X connect 12 0 14 1;
#X connect 13 0 8 0;
#X connect 14 0 10 0;
#X connect 15 0 11 0;
#X connect 15 1 12 0;
#X connect 16 0 17 0;
#X connect 17 0 15 0;
#X connect 18 0 19 0;
#X connect 20 0 18 0;
#X connect 21 0 18 0;
#X connect 22 0 18 0;
#X connect 23 0 18 0;
#X connect 24 0 26 0;
#X connect 26 0 25 0;
#X connect 27 0 29 0;
#X connect 29 0 28 0;
#X connect 30 0 32 0;
#X connect 32 0 31 0;
#X connect 33 0 36 0;
#X connect 35 0 34 0;
#X connect 36 0 35 0;
#X connect 37 0 38 0;
#X connect 39 0 37 0;
#X connect 40 0 41 0;
#X connect 40 0 42 0;
#X connect 43 0 45 0;
#X connect 45 0 44 0;
#X connect 47 0 48 0;
#X connect 48 0 46 0;
#X connect 49 0 55 0;
#X connect 50 0 49 0;
#X connect 50 0 54 0;
#X connect 51 0 49 1;
#X connect 51 0 54 1;
#X connect 52 0 50 0;
#X connect 52 1 51 0;
#X connect 53 0 52 0;
#X connect 54 0 56 0;
#X connect 55 0 58 0;
#X connect 55 0 61 0;
#X connect 56 0 57 0;
#X connect 56 0 60 0;
#X connect 59 0 40 0;
#X connect 62 0 64 0;
#X connect 63 0 62 0;
