#N canvas 615 0 909 746 10;
#X obj 9 68 #expr 2+2;
#X obj 9 188 #expr 5+5*12+12;
#X obj 9 108 #expr (2+2);
#X obj 9 227 #expr 5*5+12*12;
#X obj 9 267 #expr 73%15;
#X obj 9 307 #expr 0x5555 | 0xAAAA;
#X obj 9 387 #expr 4<5;
#X obj 9 427 #expr 4<<5;
#X obj 9 467 #expr 0||3;
#X obj 9 28 #expr 2;
#X obj 9 148 #expr 1000-100-10-1;
#X obj 9 506 #expr 42!=43;
#X obj 9 347 #expr -5+3;
#X obj 9 545 #expr + + + 4;
#X obj 9 584 #expr - - + - - + - 4;
#X obj 159 35 #expr ~9;
#X obj 159 75 #expr !0;
#X obj 821 46 #expr 2 \; 3 \; 5 \; 7;
#X obj 821 126 print;
#X obj 821 29 bng 15 250 50 0 empty empty empty 17 7 0 10 -262144 -1
-1;
#X obj 159 193 #expr $f4+($f5-$f4)*($f1-$f2)/($f3-$f2);
#X floatatom 750 277 5 0 0 0 - - -;
#X obj 750 314 display;
#X obj 750 295 #expr log($f1*3);
#X obj 748 354 #expr weight($f1);
#X floatatom 748 336 5 0 0 0 - - -;
#X obj 748 373 display;
#X floatatom 649 278 5 0 0 0 - - -;
#X obj 649 315 display;
#X obj 649 296 #expr tanh($f1);
#X obj 159 251 #expr sqrt($f1);
#X obj 159 369 #expr abs($f1);
#X floatatom 652 336 5 0 0 0 - - -;
#X obj 652 373 display;
#X obj 652 354 #expr rand($f1);
#X obj 431 350 expr a+b*c;
#X obj 431 333 bng 15 250 50 0 empty empty empty 17 7 0 10 -262144
-1 -1;
#X floatatom 431 369 5 0 0 0 - - -;
#X obj 544 418 v a;
#X obj 569 418 v b;
#X obj 595 418 v c;
#X floatatom 595 400 5 0 0 0 - - -;
#X floatatom 569 382 5 0 0 0 - - -;
#X floatatom 544 364 5 0 0 0 - - -;
#X floatatom 871 392 5 0 0 0 - - -;
#X floatatom 748 392 5 0 0 0 - - -;
#X obj 748 429 display;
#X obj 541 71 #expr 1 \, 2 \, 3 \; 4 \; 5 \, 6 \; 7 \, 8 \, 9;
#X obj 748 410 #expr atan2($f1 \, $f2);
#X obj 544 319 #expr 37 \; 42 \; 69;
#X obj 544 300 loadbang;
#X obj 527 300 bng 15 250 50 0 empty empty empty 17 7 0 10 -262144
-1 -1;
#X obj 447 387 #expr a+b*c;
#X floatatom 447 406 5 0 0 0 - - -;
#X obj 541 31 #expr (1 \, 2);
#X obj 656 462 bng 15 250 50 0 empty empty empty 17 7 0 10 -262144
-1 -1;
#X floatatom 656 499 5 0 0 0 - - -;
#X obj 757 540 table foo 10;
#X obj 703 540 loadbang;
#X msg 703 559 0 2 3 5 7 11 13 17 19 23 29;
#X obj 703 578 s foo;
#X obj 656 480 #expr foo[$f1];
#X floatatom 675 461 5 0 0 0 - - -;
#X obj 541 51 #expr 1 \, 2;
#X obj 562 703 #expr tan($f1);
#X obj 536 616 bng 15 250 50 0 empty empty empty 17 7 0 10 -262144
-1 -1;
#X obj 534 658 display;
#X obj 537 635 #expr grumble+2;
#X obj 395 615 bng 15 250 50 0 empty empty empty 17 7 0 10 -262144
-1 -1;
#X obj 395 654 display;
#X obj 704 599 table grumble 444;
#X obj 395 635 expr size("grumble");
#X obj 159 310 #expr log10($f1);
#X obj 9 47 is 2;
#X obj 9 11 bng 15 250 50 0 empty empty empty 17 7 0 10 -262144 -1
-1;
#X obj 9 87 is 4;
#X obj 9 127 is 4;
#X obj 9 167 is 889;
#X obj 9 207 is 77;
#X obj 9 246 is 169;
#X obj 9 286 is 13;
#X obj 9 326 is 65535;
#X obj 9 366 is -2;
#X obj 9 564 is 4;
#X obj 9 603 is -4;
#X obj 159 54 is -10;
#X obj 159 94 is 1;
#X obj 9 406 is 1;
#X obj 9 446 is 128;
#X obj 9 486 is 3;
#X obj 9 525 is 1;
#X obj 9 624 s \$0-A;
#X obj 159 14 r \$0-A;
#X msg 159 155 13 3 5 7 11;
#X obj 159 212 is 27;
#X msg 159 232 196;
#X obj 159 270 is 14;
#X obj 159 174 unpack f f f f f.......................;
#X obj 797 701 doc_link numop1;
#X obj 797 720 doc_link numop2;
#X msg 159 291 100000;
#X obj 159 329 is 5;
#X text 538 13 should not create :;
#X obj 159 115 #expr -14%13.51;
#X obj 159 134 is 13.02;
#X text 214 134 = -14+2*13.51;
#X msg 159 350 -789;
#X obj 159 388 is 789;
#X obj 159 449 #expr max((-567) \, 765);
#X obj 159 468 is 765;
#X obj 159 428 is 765;
#X obj 159 409 #expr max(-567 \, 765);
#X connect 0 0 75 0;
#X connect 1 0 78 0;
#X connect 2 0 76 0;
#X connect 3 0 79 0;
#X connect 4 0 80 0;
#X connect 5 0 81 0;
#X connect 6 0 87 0;
#X connect 7 0 88 0;
#X connect 8 0 89 0;
#X connect 9 0 73 0;
#X connect 10 0 77 0;
#X connect 11 0 90 0;
#X connect 12 0 82 0;
#X connect 13 0 83 0;
#X connect 14 0 84 0;
#X connect 15 0 85 0;
#X connect 16 0 86 0;
#X connect 17 0 18 0;
#X connect 17 1 18 0;
#X connect 17 2 18 0;
#X connect 17 3 18 0;
#X connect 19 0 17 0;
#X connect 20 0 94 0;
#X connect 21 0 23 0;
#X connect 23 0 22 0;
#X connect 24 0 26 0;
#X connect 25 0 24 0;
#X connect 27 0 29 0;
#X connect 29 0 28 0;
#X connect 30 0 96 0;
#X connect 31 0 107 0;
#X connect 32 0 34 0;
#X connect 34 0 33 0;
#X connect 35 0 37 0;
#X connect 36 0 35 0;
#X connect 36 0 52 0;
#X connect 41 0 40 0;
#X connect 42 0 39 0;
#X connect 43 0 38 0;
#X connect 44 0 48 1;
#X connect 45 0 48 0;
#X connect 48 0 46 0;
#X connect 49 0 43 0;
#X connect 49 1 42 0;
#X connect 49 2 41 0;
#X connect 50 0 49 0;
#X connect 51 0 49 0;
#X connect 52 0 53 0;
#X connect 55 0 61 0;
#X connect 58 0 59 0;
#X connect 59 0 60 0;
#X connect 61 0 56 0;
#X connect 62 0 61 0;
#X connect 65 0 67 0;
#X connect 67 0 66 0;
#X connect 68 0 71 0;
#X connect 71 0 69 0;
#X connect 72 0 101 0;
#X connect 73 0 0 0;
#X connect 74 0 9 0;
#X connect 75 0 2 0;
#X connect 76 0 10 0;
#X connect 77 0 1 0;
#X connect 78 0 3 0;
#X connect 79 0 4 0;
#X connect 80 0 5 0;
#X connect 81 0 12 0;
#X connect 82 0 6 0;
#X connect 83 0 14 0;
#X connect 84 0 91 0;
#X connect 85 0 16 0;
#X connect 86 0 103 0;
#X connect 87 0 7 0;
#X connect 88 0 8 0;
#X connect 89 0 11 0;
#X connect 90 0 13 0;
#X connect 92 0 15 0;
#X connect 93 0 97 0;
#X connect 94 0 95 0;
#X connect 95 0 30 0;
#X connect 96 0 100 0;
#X connect 97 0 20 0;
#X connect 97 1 20 1;
#X connect 97 2 20 2;
#X connect 97 3 20 3;
#X connect 97 4 20 4;
#X connect 100 0 72 0;
#X connect 101 0 106 0;
#X connect 103 0 104 0;
#X connect 104 0 93 0;
#X connect 106 0 31 0;
#X connect 107 0 111 0;
#X connect 108 0 109 0;
#X connect 110 0 108 0;
#X connect 111 0 110 0;
