#N canvas 477 81 450 598 10;
#X obj 38 316 #fft;
#X obj 11 526 #out window;
#X obj 17 74 bng 15 250 50 0 empty empty empty 0 -6 0 8 -262144 -1
-1;
#X obj 38 297 #cast f;
#X obj 11 507 #clip;
#X obj 38 411 #cast i;
#X obj 11 202 #rgb_to_yuv;
#X obj 38 259 # - (0 128 128);
#X obj 38 278 #inner (3 2 # 0 0 1 0 0 1);
#X obj 38 430 #inner (2 3 # 0 1 0 0 0 1);
#X obj 11 487 #yuv_to_rgb;
#X obj 11 545 fps detailed;
#X obj 11 564 print;
#X obj 11 9 tgl 15 0 empty empty empty 0 -6 0 8 -262144 -1 -1 0 1;
#X obj 58 131 #remap_image;
#X obj 287 489 # sq-;
#X obj 287 508 #fold +;
#X obj 287 527 # sqrt;
#X obj 287 546 #outer ignore (3 #);
#X obj 287 565 #clip;
#X obj 163 131 #rotate;
#X obj 163 112 # - 128;
#X obj 163 150 # + 128;
#X obj 130 526 #print;
#X obj 130 507 #dim;
#X obj 63 67 loadbang;
#X obj 11 26 metro 30;
#X obj 305 43 spigot;
#X obj 351 43 tgl 15 0 empty empty empty 0 -6 0 8 -262144 -1 -1 0 1
;
#X obj 38 373 #fft \, sign 1;
#X obj 241 209 bng 15 250 50 0 empty empty empty 0 -6 0 8 -262144 -1
-1;
#X obj 11 221 t a a;
#X obj 11 466 # +;
#X obj 38 449 # + (0 128 128);
#X obj 11 240 # * (1 0 0);
#X obj 11 164 #convolve (1 2 # 1 1);
#X obj 11 183 # >> 1;
#X obj 11 95 #store;
#X obj 241 248 #cast f;
#X obj 38 335 # >> (f # 16);
#X obj 241 267 # >> (f # 7);
#X obj 38 392 # >> (f # 0);
#X obj 38 354 # C.* ( 2 f #);
#X obj 241 229 #for (-128 -128) (128 128) (1 1);
#X obj 11 114 shunt;
#X obj 63 105 #in;
#X msg 63 86 load teapot.png;
#X obj 330 114 + 50;
#X obj 305 114 f;
#X obj 261 208 loadbang;
#X connect 0 0 39 0;
#X connect 1 0 11 0;
#X connect 2 0 37 0;
#X connect 3 0 0 0;
#X connect 4 0 1 0;
#X connect 5 0 9 0;
#X connect 6 0 31 0;
#X connect 7 0 8 0;
#X connect 8 0 3 0;
#X connect 9 0 33 0;
#X connect 10 0 4 0;
#X connect 11 0 12 0;
#X connect 13 0 26 0;
#X connect 14 0 35 0;
#X connect 14 1 21 0;
#X connect 15 0 16 0;
#X connect 16 0 17 0;
#X connect 17 0 18 0;
#X connect 18 0 19 0;
#X connect 20 0 22 0;
#X connect 21 0 20 0;
#X connect 22 0 14 1;
#X connect 24 0 23 0;
#X connect 25 0 46 0;
#X connect 26 0 27 0;
#X connect 26 0 37 0;
#X connect 27 0 48 0;
#X connect 28 0 27 1;
#X connect 29 0 41 0;
#X connect 30 0 43 0;
#X connect 31 0 34 0;
#X connect 31 1 7 0;
#X connect 32 0 10 0;
#X connect 33 0 32 1;
#X connect 34 0 32 0;
#X connect 35 0 36 0;
#X connect 36 0 6 0;
#X connect 37 0 44 0;
#X connect 38 0 40 0;
#X connect 39 0 42 0;
#X connect 40 0 42 1;
#X connect 41 0 5 0;
#X connect 42 0 29 0;
#X connect 43 0 38 0;
#X connect 44 0 35 0;
#X connect 44 1 14 0;
#X connect 45 0 37 1;
#X connect 46 0 45 0;
#X connect 47 0 48 1;
#X connect 48 0 20 1;
#X connect 48 0 47 0;
#X connect 49 0 43 0;
