#N canvas 493 325 721 469 10;
#X obj 353 100 #in;
#X obj 299 100 #store;
#X obj 299 64 tgl 15 0 empty empty empty 0 -6 0 8 -262144 -1 -1 0 1
;
#X obj 299 268 fps detailed;
#X obj 299 287 print;
#X text 474 22 -b- -s- -i-;
#X text 500 4 FPS;
#X text 474 37 350 217 200 without conversions;
#X obj 299 119 #rgb_to_rgba;
#X obj 299 138 #rgba_to_rgb;
#X obj 299 188 bng 15 250 50 0 empty empty empty 0 -6 0 8 -262144 -1
-1;
#X text 474 49 ... ... _16 with both conversions;
#X obj 299 16 loadbang;
#X obj 299 45 t b b;
#X obj 299 157 shunt;
#X obj 353 178 tgl 15 0 empty empty empty 0 -6 0 8 -262144 -1 -1 0
1;
#X obj 353 240 #out;
#X obj 403 193 sel 1;
#X obj 353 197 sel 0;
#X msg 403 212 open window;
#X msg 353 216 close;
#N canvas 0 0 450 300 blah 1;
#X restore 470 104 pd blah;
#X obj 299 81 metro 20;
#X text 474 61 ... ... _23.5 dot_add_mul;
#X text 474 73 ... ... _29.5 dot_add_mul<T \, j>;
#X msg 353 81 load babbage.jpg i;
#X obj 15 40 #inner (3 3 # 1 2 3 4 5 6 7 8 9);
#X msg 15 21 3 3 # 1 0 0 0;
#X obj 15 59 #is (3 3 # 1 2 3 4 5 6 7 8 9);
#X obj 15 136 #inner;
#X obj 40 111 #transpose;
#X obj 15 111 #t;
#X obj 15 155 #print;
#X msg 15 92 9 456 # 1 2 3 4 5;
#X connect 0 0 1 1;
#X connect 1 0 8 0;
#X connect 2 0 22 0;
#X connect 3 0 4 0;
#X connect 8 0 9 0;
#X connect 9 0 14 0;
#X connect 10 0 3 0;
#X connect 13 0 2 0;
#X connect 13 1 25 0;
#X connect 14 0 10 0;
#X connect 14 1 16 0;
#X connect 15 0 14 1;
#X connect 15 0 17 0;
#X connect 15 0 18 0;
#X connect 16 0 3 0;
#X connect 17 0 19 0;
#X connect 18 0 20 0;
#X connect 19 0 16 0;
#X connect 20 0 16 0;
#X connect 22 0 1 0;
#X connect 25 0 0 0;
#X connect 26 0 28 0;
#X connect 27 0 26 0;
#X connect 29 0 32 0;
#X connect 30 0 29 1;
#X connect 31 0 29 0;
#X connect 31 1 30 0;
#X connect 33 0 31 0;
