#N canvas 147 70 919 715 10;
#X msg 284 546 open x11 here root;
#X obj 272 569 #out;
#X obj 40 440 #out window;
#X msg 48 415 fullscreen \$1;
#X obj 48 398 tgl 15 0 empty empty empty 17 7 0 10 -262144 -1 -1 0
1;
#X obj 138 398 tgl 15 0 empty empty empty 17 7 0 10 -262144 -1 -1 0
1;
#X msg 138 415 border \$1;
#X msg 73 479 open window here override_redirect;
#X obj 136 520 display;
#X obj 40 508 route bang;
#X msg 96 600 open window;
#X obj 96 576 delay;
#X obj 96 554 #mouse \, \, \, \, \,;
#X msg 120 457 open window;
#X msg 253 433 move \$1 \$2;
#X obj 253 395 #pack;
#X obj 253 414 #to_list;
#X floatatom 289 376 5 0 0 0 - - -;
#X floatatom 253 376 5 0 0 0 - - -;
#X obj 323 395 #pack;
#X obj 323 414 #to_list;
#X floatatom 359 376 5 0 0 0 - - -;
#X floatatom 323 376 5 0 0 0 - - -;
#X msg 323 433 move2 \$1 \$2;
#X msg 58 374 240 320 3 # 255 0 0;
#X obj 41 335 #redim (800 1280 3);
#X obj 41 133 bng 15 250 50 0 empty empty empty 17 7 0 10 -262144 -1
-1;
#X obj 41 316 #store;
#X obj 288 207 # sin* 127;
#X obj 288 169 #for 0 256 1;
#X obj 288 142 bng 15 250 50 0 empty empty empty 17 7 0 10 -262144
-1 -1;
#X obj 288 294 # + 128;
#X obj 288 188 # *>>8 36000;
#X obj 288 262 # tanh* 127;
#X obj 305 142 loadbang;
#X obj 41 297 #cast b;
#X obj 41 179 # c2p (0 0);
#X obj 90 44 t a a;
#X msg 69 6 1200 1920;
#X msg 169 137 \$1 \$2 3;
#X obj 90 82 # / 2;
#X obj 90 101 #t;
#X obj 72 123 # inv+;
#X obj 90 63 # * 3;
#X obj 41 160 #for (0 0) (0 0) (3 1);
#X obj 41 236 #fold ^;
#X obj 41 255 #outer ignore (0);
#X msg 156 7 800 1280;
#X msg 89 25 768 1024;
#X msg 40 354 open window \, grid \$1 \, border 0 \, move 0 1280;
#X obj 41 198 # * (640 64);
#X obj 41 217 # / 180;
#X obj 288 243 # *>>8 60000;
#X obj 485 76 #in x11 here root;
#X obj 593 76 display;
#X obj 584 95 print;
#X obj 485 165 #see;
#X obj 485 38 metro 100;
#X obj 485 21 tgl 15 0 empty empty empty 17 7 0 10 -262144 -1 -1 0
1;
#X obj 759 131 #type-gui;
#X obj 759 112 #type;
#X msg 485 57 out_size 180 240 \, cast b \, bang;
#X obj 485 337 tgl 15 0 empty empty empty 0 -6 0 8 -262144 -1 -1 0
1;
#X obj 502 488 fps;
#X floatatom 502 507 5 0 0 0 - - -;
#X obj 502 469 #out x11;
#X obj 502 336 metro 16.666;
#X obj 502 355 tgl 15 0 empty empty empty 17 7 0 10 -262144 -1 -1 0
1;
#X obj 502 372 * 255;
#X obj 502 431 #redim (700 256 3);
#X obj 665 337 tgl 15 0 empty empty empty 0 -6 0 8 -262144 -1 -1 0
1;
#X obj 682 488 fps;
#X floatatom 682 507 5 0 0 0 - - -;
#X obj 682 469 #out x11;
#X obj 682 336 metro 16.666;
#X obj 682 355 tgl 15 0 empty empty empty 17 7 0 10 -262144 -1 -1 0
1;
#X obj 682 372 * 255;
#X obj 682 431 #redim (700 256 3);
#X obj 682 406 #redim (256 3);
#X text 682 524 this one is about 24 times faster;
#X connect 0 0 1 0;
#X connect 2 0 9 0;
#X connect 3 0 2 0;
#X connect 4 0 3 0;
#X connect 5 0 6 0;
#X connect 6 0 2 0;
#X connect 7 0 2 0;
#X connect 9 1 8 0;
#X connect 10 0 2 0;
#X connect 11 0 10 0;
#X connect 12 0 11 0;
#X connect 13 0 2 0;
#X connect 14 0 2 0;
#X connect 15 0 16 0;
#X connect 16 0 14 0;
#X connect 17 0 15 1;
#X connect 18 0 15 0;
#X connect 19 0 20 0;
#X connect 20 0 23 0;
#X connect 21 0 19 1;
#X connect 22 0 19 0;
#X connect 23 0 2 0;
#X connect 24 0 2 0;
#X connect 25 0 49 0;
#X connect 26 0 44 0;
#X connect 27 0 25 0;
#X connect 28 0 52 0;
#X connect 29 0 32 0;
#X connect 30 0 29 0;
#X connect 31 0 27 1;
#X connect 32 0 28 0;
#X connect 33 0 31 0;
#X connect 34 0 29 0;
#X connect 35 0 27 0;
#X connect 36 0 50 0;
#X connect 37 0 43 0;
#X connect 37 1 39 0;
#X connect 38 0 37 0;
#X connect 39 0 25 1;
#X connect 40 0 41 0;
#X connect 41 0 42 0;
#X connect 41 1 44 1;
#X connect 42 0 44 0;
#X connect 43 0 40 0;
#X connect 44 0 36 0;
#X connect 45 0 46 0;
#X connect 46 0 35 0;
#X connect 47 0 37 0;
#X connect 48 0 37 0;
#X connect 49 0 2 0;
#X connect 50 0 51 0;
#X connect 51 0 45 0;
#X connect 52 0 33 0;
#X connect 53 0 60 0;
#X connect 53 0 56 0;
#X connect 53 1 54 0;
#X connect 53 1 55 0;
#X connect 57 0 61 0;
#X connect 58 0 57 0;
#X connect 60 0 59 0;
#X connect 61 0 53 0;
#X connect 62 0 66 0;
#X connect 63 0 64 0;
#X connect 65 0 63 0;
#X connect 66 0 67 0;
#X connect 67 0 68 0;
#X connect 68 0 69 0;
#X connect 69 0 65 0;
#X connect 70 0 74 0;
#X connect 71 0 72 0;
#X connect 73 0 71 0;
#X connect 74 0 75 0;
#X connect 75 0 76 0;
#X connect 76 0 78 0;
#X connect 77 0 73 0;
#X connect 78 0 77 0;
