#N canvas 296 123 463 373 10;
#X obj 10 12 inlet;
#X obj 37 204 outlet;
#X obj 64 184 print ok;
#X obj 10 299 print error;
#X obj 10 127 shunt;
#X obj 10 31 #t;
#X obj 120 33 args expected;
#X obj 37 146 t b a;
#X obj 10 224 #to_literal;
#X obj 120 244 #to_literal;
#X obj 37 50 # ==;
#X obj 37 69 #ravel;
#X obj 37 88 #fold &;
#X obj 37 107 #to_f;
#X obj 10 261 list prepend got;
#X obj 120 263 list prepend instead of;
#X obj 10 280 list append;
#X obj 64 165 #to_literal;
#X connect 0 0 5 0;
#X connect 4 0 8 0;
#X connect 4 1 7 0;
#X connect 5 0 4 0;
#X connect 5 1 10 0;
#X connect 6 0 9 0;
#X connect 6 0 10 1;
#X connect 7 0 1 0;
#X connect 7 1 17 0;
#X connect 8 0 14 0;
#X connect 9 0 15 0;
#X connect 10 0 11 0;
#X connect 11 0 12 0;
#X connect 12 0 13 0;
#X connect 13 0 4 1;
#X connect 14 0 16 0;
#X connect 15 0 16 1;
#X connect 16 0 3 0;
#X connect 17 0 2 0;
