#N canvas 675 0 542 696 10;
#X obj 31 620 #out window;
#X obj 31 12 tgl 15 0 empty empty empty 17 7 0 10 -262144 -1 -1 1 1
;
#X obj 31 29 metro 33.3333;
#X obj 281 427 #convolve (1 2 # -1 1);
#X obj 281 408 #scan + \, seed (3 #);
#X obj 31 50 #camera 0 \, size 240 320 \, pwc \, framerate 30;
#X obj 281 448 #scan avg \, seed (3 #);
#X obj 281 467 #scan avg \, seed (320 3 #);
#X obj 31 639 fps;
#X floatatom 31 658 5 0 0 0 - - -;
#X obj 31 84 t a a;
#X obj 366 130 #ravel;
#X obj 366 149 #fold +;
#X obj 366 168 # / 76800;
#X obj 366 187 display;
#X obj 218 351 #ravel;
#X obj 218 370 #fold +;
#X obj 218 389 # / 76800;
#X obj 218 408 display;
#X msg 189 141 16 16 16;
#X floatatom 204 232 5 0 0 0 - - -;
#X obj 51 357 shunt;
#X obj 88 358 tgl 15 0 empty empty empty 17 7 0 10 -262144 -1 -1 0
1;
#X obj 31 460 t a;
#X obj 62 482 #cast f;
#X obj 62 520 # exp (f #);
#X obj 62 539 #cast i;
#X obj 153 117 # log* 256;
#X obj 62 501 # / (f # 256);
#X obj 78 396 # inv+;
#X obj 76 422 # + 128;
#X obj 31 169 #lop_space 1 32;
#X obj 30 136 #lop_space 0 32;
#X obj 193 277 #cast i;
#X obj 31 113 # << 4;
#X obj 189 173 #color 0 256;
#X obj 31 600 #scale_by 2;
#X obj 126 72 #downscale_by 24 smoothly;
#X obj 125 94 #rgb_to_greyscale;
#X obj 31 202 #lop_space 0 32 \, reverse;
#X obj 31 266 #lop_space 1 32 \, reverse;
#X obj 52 301 # >> 4;
#X obj 31 577 #clip;
#X connect 0 0 8 0;
#X connect 1 0 2 0;
#X connect 2 0 5 0;
#X connect 4 0 3 0;
#X connect 5 0 10 0;
#X connect 5 0 37 0;
#X connect 6 0 7 0;
#X connect 8 0 9 0;
#X connect 10 0 34 0;
#X connect 10 1 11 0;
#X connect 10 1 29 1;
#X connect 11 0 12 0;
#X connect 12 0 13 0;
#X connect 13 0 14 0;
#X connect 15 0 16 0;
#X connect 16 0 17 0;
#X connect 17 0 18 0;
#X connect 19 0 35 0;
#X connect 20 0 33 0;
#X connect 21 0 23 0;
#X connect 21 1 29 0;
#X connect 22 0 21 1;
#X connect 23 0 42 0;
#X connect 24 0 28 0;
#X connect 25 0 26 0;
#X connect 26 0 42 0;
#X connect 27 0 10 0;
#X connect 28 0 25 0;
#X connect 29 0 30 0;
#X connect 30 0 23 0;
#X connect 32 0 39 0;
#X connect 33 0 31 1;
#X connect 33 0 32 1;
#X connect 33 0 39 1;
#X connect 33 0 40 1;
#X connect 34 0 32 0;
#X connect 35 0 33 0;
#X connect 36 0 0 0;
#X connect 37 0 38 0;
#X connect 39 0 40 0;
#X connect 40 0 41 0;
#X connect 41 0 15 0;
#X connect 41 0 21 0;
#X connect 42 0 36 0;
