#N canvas 41 283 450 300 10;
#X obj 23 54 display;
#X msg 22 15 8 8 # 100 0 0 0 0 0 0 0 0;
#X text 253 68 100 0 0 0 0 0 0 0;
#X text 253 82 0 100 0 0 0 0 0 0;
#X text 253 95 0 0 100 0 0 0 0 0;
#X text 253 110 0 0 0 86 0 0 -50 0;
#X text 253 124 0 0 0 0 100 0 0 0;
#X text 253 138 0 0 0 0 0 100 0 0;
#X text 253 151 0 0 0 49 0 0 86 0;
#X text 253 165 0 0 0 0 0 0 0 100;
#X obj 22 34 #rotate 3000 \, axis 3 6 8;
#X connect 1 0 10 0;
#X connect 10 0 0 0;
