#N canvas 770 0 450 300 10;
#X obj 69 148 # +;
#X obj 69 92 t a a;
#X msg 69 54 240 320 3 #;
#X obj 99 111 # -;
#X obj 69 73 # *;
#X msg 243 58 240 320 3 #;
#X obj 243 77 # *;
#X obj 344 58 bng 15 250 50 0 empty empty empty 17 7 0 10 -262144 -1
-1;
#X obj 268 77 gf/oneshot 1;
#X connect 1 0 0 0;
#X connect 1 1 3 0;
#X connect 2 0 4 0;
#X connect 3 0 0 0;
#X connect 4 0 1 0;
#X connect 5 0 6 0;
#X connect 6 0 8 0;
#X connect 7 0 8 1;
#X connect 8 0 6 0;
