#N canvas 0 0 450 300 10;
#X obj 10 12 inlet;
#X obj 37 50 == \$1;
#X obj 10 259 outlet;
#X obj 52 259 outlet;
#X obj 64 126 print ok;
#X msg 64 107 list \$1;
#X obj 10 31 t f f;
#X obj 10 214 print error;
#X obj 10 69 shunt;
#X obj 37 88 t b f;
#X obj 10 176 list append \$1;
#X msg 10 195 got \$1 instead of \$2;
#X connect 0 0 6 0;
#X connect 1 0 8 1;
#X connect 5 0 4 0;
#X connect 6 0 8 0;
#X connect 6 1 1 0;
#X connect 8 0 10 0;
#X connect 8 1 9 0;
#X connect 9 0 3 0;
#X connect 9 1 5 0;
#X connect 10 0 11 0;
#X connect 11 0 7 0;
