#N canvas 0 0 663 336 10;
#X floatatom 60 115 5 0 0 0 - - -;
#X obj 60 89 listfind 2 3 5 papillon 7 11 13;
#X floatatom 60 19 5 0 0 0 - - -;
#X msg 66 38 symbol zutre;
#X msg 72 58 symbol papillon;
#X obj 284 80 #to_l;
#X obj 284 24 bng 15 250 50 0 empty empty empty 17 7 0 10 -262144 -1
-1;
#X obj 284 99 t b a b;
#X obj 255 154 realtime;
#X obj 336 178 list-find;
#X obj 336 140 t b a;
#X floatatom 336 197 10 0 0 0 - - -;
#X floatatom 255 173 8 0 0 0 - - -;
#X obj 284 60 #reverse;
#X msg 336 159 10;
#X obj 530 168 t b a;
#X floatatom 530 225 10 0 0 0 - - -;
#X msg 530 187 10;
#X obj 530 206 listfind;
#X obj 419 105 t b a b;
#X obj 418 150 realtime;
#X floatatom 418 169 5 0 0 0 - - -;
#X obj 284 41 #for 0 1e+06 1;
#X connect 1 0 0 0;
#X connect 2 0 1 0;
#X connect 3 0 1 0;
#X connect 4 0 1 0;
#X connect 5 0 7 0;
#X connect 5 0 19 0;
#X connect 6 0 22 0;
#X connect 7 0 8 1;
#X connect 7 1 10 0;
#X connect 7 2 8 0;
#X connect 8 0 12 0;
#X connect 9 0 11 0;
#X connect 10 0 14 0;
#X connect 10 1 9 1;
#X connect 13 0 5 0;
#X connect 14 0 9 0;
#X connect 15 0 17 0;
#X connect 15 1 18 1;
#X connect 17 0 18 0;
#X connect 18 0 16 0;
#X connect 19 0 20 1;
#X connect 19 1 15 0;
#X connect 19 2 20 0;
#X connect 20 0 21 0;
#X connect 22 0 13 0;
