#N canvas 82 50 1060 713 10;
#X obj 72 211 print a;
#X obj 72 143 t a a;
#X obj 93 105 # +;
#X msg 99 60 3 3 # 2 3 5 7;
#X obj 108 143 t f f;
#X msg 108 124 1 \, 2 \, 3;
#X obj 99 192 pd/print b;
#X obj 183 208 display;
#X obj 272 129 #pack;
#X msg 272 110 1;
#X msg 299 110 2;
#X msg 206 118 zut;
#X msg 72 28 1 \, 2 \, 3 \, foo \, symbol foo \, bang \, list foo \,
list 42 \, list 42 b c \, list 42 53 67;
#X msg 29 104 zut;
#X obj 48 233 display;
#X msg 123 79 1 2 3 4 5;
#X msg 270 173 list () (()) ((()));
#X msg 602 19 0 #;
#X msg 618 57 2 3 5;
#X msg 626 76 2 2 # 2 3 5 7;
#X msg 633 95 2 2 2 # 2 3 5 7 11 13 17 19;
#X msg 610 38 list # 2;
#X msg 771 193 base 8;
#X msg 798 271 trunc 10;
#X msg 762 174 base 2;
#X msg 786 231 base 16;
#X msg 643 115 2 2 2 # 2 -3 5 -7 -11 13 -17 19;
#X msg 653 135 2 2 2 s # 2 -3 5 -7 -11 13 -17 19;
#X msg 663 155 2 2 2 f # 2 -3 5 -7 -11 13 -17 19;
#X obj 602 369 #print;
#X obj 602 350 t a;
#X obj 649 427 #print;
#X msg 649 355 0 # \, 0 0 # \, 0 3 # \, 3 0 # \, 0 0 0 # 0 0 3 # 0
3 0 # 3 0 0 # \, 3 3 0 # \, 3 0 3 # \, 0 3 3 #;
#X msg 779 212 base 10;
#X msg 806 290 maxrows 3;
#X msg 806 317 4 4 # 1 2 3 4 5;
#X obj 752 435 #print f(x);
#X msg 752 416 3 3 # 2 3 5 7;
#X connect 1 0 0 0;
#X connect 1 0 14 0;
#X connect 1 1 6 0;
#X connect 2 0 1 0;
#X connect 3 0 2 0;
#X connect 4 0 0 0;
#X connect 4 1 6 0;
#X connect 4 1 7 0;
#X connect 5 0 4 0;
#X connect 8 0 7 0;
#X connect 9 0 8 0;
#X connect 10 0 8 1;
#X connect 11 0 7 0;
#X connect 12 0 1 0;
#X connect 13 0 1 0;
#X connect 15 0 2 0;
#X connect 16 0 7 0;
#X connect 17 0 30 0;
#X connect 18 0 30 0;
#X connect 19 0 30 0;
#X connect 20 0 30 0;
#X connect 21 0 30 0;
#X connect 22 0 30 0;
#X connect 23 0 30 0;
#X connect 24 0 30 0;
#X connect 25 0 30 0;
#X connect 26 0 30 0;
#X connect 27 0 30 0;
#X connect 28 0 30 0;
#X connect 30 0 29 0;
#X connect 32 0 31 0;
#X connect 33 0 30 0;
#X connect 34 0 30 0;
#X connect 35 0 30 0;
#X connect 37 0 36 0;
