#N canvas 269 141 638 511 10;
#X msg 398 117 3 3 # 0 4 0 4 9 -4 0 -4 0;
#X obj 36 29 bng 15 250 50 0 empty empty empty 0 -6 0 8 -262144 -1
-1;
#X msg 402 63 3 3 # 4 0 0 0 1 0 0 0 4;
#X obj 36 130 #store;
#X obj 132 218 # / 9;
#X msg 397 37 3 3 # 1 1 1 1 1 1 1 1 1;
#X obj 92 131 #out window;
#X msg 415 180 1 3 # 0 9 -9;
#X obj 74 85 #in;
#X msg 403 90 3 3 # 2 2 2 2 -7 2 2 2 2;
#X obj 36 -24 tgl 15 0 empty empty empty 0 -6 0 8 -24198 -1 -1 0 1
;
#X obj 132 286 @! abs;
#X obj 132 352 # max 0;
#X text 347 -15 step 1: select one of those six grids;
#X obj 132 331 # min 255;
#X obj 74 45 loadbang;
#X obj 36 2 metro 33.3667;
#X obj 74 107 t a;
#X obj 132 197 #convolve \, seed 4;
#X obj 348 5 loadbang;
#X text 9 149 feedback loop;
#X obj 132 244 shunt 2;
#X obj 187 246 tgl 15 0 empty empty empty 0 -6 0 8 -241291 -1 -1 0
1;
#X msg 269 227 0;
#X obj 179 307 # + 128;
#X msg 269 251 1;
#X obj 347 307 display;
#X obj 64 233 fps;
#X obj 56 277 print;
#X obj 3 400 cnv 15 780 30 empty empty empty 20 12 0 14 -200249 -66577
0;
#X text 11 407 GridFlow 0.8.0;
#X obj 3 400 cnv 15 780 30 empty empty empty 20 12 0 14 -200249 -66577
0;
#X text 11 407 GridFlow 0.8.0;
#X obj 3 -77 cnv 15 780 30 empty empty empty 20 12 0 14 -233017 -66577
0;
#X text 16 -64 Copyright 2002 Mathieu Bouchard;
#X text 16 -77 convolve.pd;
#X msg 415 159 1 3 # 0 2 -2;
#X msg 415 212 3 3 # 0 -1 0 -1 4 -1 0 -1 0;
#X msg 413 235 3 3 # -1 -1 -1 -1 8 -1 -1 -1 -1;
#X text 522 192 Laplacian masks;
#X msg 412 280 3 3 # 0 -1 0 -1 13 -1 0 -1 0;
#X text 558 261 Sharpen;
#X text 523 17 Blurs;
#X obj 179 265 # << 4;
#X text 432 140 Edge detection;
#X msg 74 65 open babbage.jpg \, bang;
#X connect 0 0 23 0;
#X connect 0 0 18 1;
#X connect 0 0 26 0;
#X connect 1 0 3 0;
#X connect 2 0 23 0;
#X connect 2 0 18 1;
#X connect 3 0 18 0;
#X connect 4 0 21 0;
#X connect 5 0 23 0;
#X connect 5 0 18 1;
#X connect 6 0 27 0;
#X connect 7 0 18 1;
#X connect 7 0 25 0;
#X connect 8 0 17 0;
#X connect 9 0 23 0;
#X connect 9 0 18 1;
#X connect 10 0 16 0;
#X connect 11 0 14 0;
#X connect 12 0 17 0;
#X connect 14 0 12 0;
#X connect 15 0 45 0;
#X connect 16 0 1 0;
#X connect 17 0 3 1;
#X connect 17 0 6 0;
#X connect 18 0 4 0;
#X connect 19 0 5 0;
#X connect 21 0 11 0;
#X connect 21 1 43 0;
#X connect 22 0 21 1;
#X connect 23 0 22 0;
#X connect 24 0 14 0;
#X connect 25 0 22 0;
#X connect 27 0 28 0;
#X connect 36 0 23 0;
#X connect 36 0 18 1;
#X connect 37 0 18 1;
#X connect 37 0 25 0;
#X connect 38 0 25 0;
#X connect 38 0 18 1;
#X connect 40 0 23 0;
#X connect 40 0 18 1;
#X connect 43 0 24 0;
#X connect 45 0 8 0;
