#N canvas 102 192 533 425 10;
#X obj 8 198 @ *>>8;
#X text 35 242 first picture plus a fraction of the difference;
#X obj 8 240 @ +;
#X obj 8 177 @store;
#X obj 239 110 @ inv+;
#X obj 63 261 tgl 15 0 empty empty empty 0 -6 0 8 -262144 -1 -1 0 1
;
#X text 127 331 note: the @layer/@join objects can make the crossfade
process simpler but it's still not faster.;
#X obj 6 4 tgl 15 0 empty empty empty 0 -6 0 8 -262144 -1 -1 1 1;
#X msg 284 79 open r001.jpg \, cast int16 \, bang;
#X obj 258 79 @in;
#X obj 8 156 @finished;
#X text 84 264 click to clip out-of-range colours;
#X text 57 197 multiply by a N/256 fraction;
#X obj 56 302 @ max 0;
#X obj 239 58 @in;
#X obj 56 281 @ min 255;
#X obj 8 333 @out window;
#X obj 8 116 @cast int16;
#X text 56 177 keep the difference between both pictures;
#X msg 265 58 open b001.jpg \, cast int16 \, bang;
#X obj 265 38 t b b;
#X obj 305 38 loadbang;
#X obj 8 260 shunt 2;
#X obj 25 4 metro 33.3667;
#X obj 25 24 float;
#X obj 37 53 nbx 5 14 -1e+37 1e+37 0 0 empty empty empty 0 -6 0 10
-262144 -1 -1 27228 256;
#X obj 69 23 + 4;
#X obj 25 74 pingpong 256;
#X obj 36 96 hsl 129 15 0 256 0 0 empty empty empty -2 -6 0 8 -262144
-1 -1 4600 1;
#X obj 8 135 t a a;
#X text 128 369 also @draw_image/@join is a possibility;
#X connect 0 0 2 0;
#X connect 2 0 22 0;
#X connect 3 0 0 0;
#X connect 4 0 3 1;
#X connect 5 0 22 1;
#X connect 7 0 23 0;
#X connect 8 0 9 0;
#X connect 9 0 4 1;
#X connect 10 0 3 0;
#X connect 13 0 16 0;
#X connect 14 0 4 0;
#X connect 14 0 2 1;
#X connect 15 0 13 0;
#X connect 17 0 29 0;
#X connect 19 0 14 0;
#X connect 20 0 19 0;
#X connect 20 1 8 0;
#X connect 21 0 20 0;
#X connect 22 0 16 0;
#X connect 22 1 15 0;
#X connect 23 0 24 0;
#X connect 24 0 25 0;
#X connect 24 0 26 0;
#X connect 24 0 27 0;
#X connect 26 0 24 1;
#X connect 27 0 28 0;
#X connect 27 0 17 0;
#X connect 29 0 10 0;
#X connect 29 1 0 1;
