#N canvas 57 220 500 480 10;
#X obj 394 15 loadbang ;
#N canvas 357 216 350 370 10;
#X obj 130 289 outlet 0;
#X obj 139 117 > 0;
#X text 177 169 1=click\, 0=nochange\, -1=unclick;
#X obj 42 128 display ;
#X obj 80 265 demux 2;
#X obj 21 104 listsublist 0 2;
#X obj 94 222 outlet 1;
#X obj 140 144 fork ;
#X obj 140 168 - ;
#X obj 139 95 listelement 2;
#X text 198 114 is button pressed?;
#X obj 51 56 inlet;
#X text 88 55 list (y\,x\,buttons);
#X obj 71 186 demux 2;
#X obj 50 82 fork ;
#X connect 1 0 13 1;
#X connect 1 0 7 0;
#X connect 4 1 0 0;
#X connect 5 0 13 0;
#X connect 5 0 4 0;
#X connect 5 0 3 0;
#X connect 7 0 8 1;
#X connect 7 1 8 0;
#X connect 8 0 4 1;
#X connect 9 0 1 0;
#X connect 11 0 14 0;
#X connect 13 1 6 0;
#X connect 14 0 5 0;
#X connect 14 1 9 0;
#X restore 275 23 pd select rectangle by dragging mouse;
#X obj 276 81 fork ;
#X obj 159 324 @two ;
#X obj 224 133 inv+ 239;
#X obj 228 154 listelement 1;
#X obj 55 417 route position;
#X obj 160 249 @two ;
#X obj 393 96 display ;
#X obj 337 117 listelement 0;
#X obj 274 2 r pos;
#X obj 196 184 hsl 128 15 0 319 0 0 empty empty empty -2 -6 0 8 -262144 -1 -1 0 1;
#X obj 52 269 metro 50;
#X obj 234 113 listelement 0;
#X obj 329 96 display ;
#X text 377 187 horizontal end\, start;
#X obj 196 204 hsl 128 15 0 319 0 0 empty empty empty -2 -6 0 8 -262144 -1 -1 0 1;
#N canvas 480 163   10;
#X obj 64 167 @store ;
#X obj 39 97 fork ;
#X obj 64 74 @store ;
#X obj 112 52 inlet;
#X obj 25 232 @draw_polygon put ( 255 255 255 );
#X obj 115 251 display ;
#X obj 39 57 fork ;
#X msg 123 303 4 2 # 50 50 100 100 150 50 50 150;
#X obj 47 285 outlet 0;
#X obj 120 204 @export_list ;
#X obj 129 103 @join ;
#X obj 39 35 inlet;
#X msg 49 128 4 2 1 # 0 1 0 3 2 3 2 1;
#X obj 177 81 inlet;
#X text 333 116 DOES NOT WORK YET!;
#X msg 6 187 240 320 3 # 0;
#X connect 0 0 9 0;
#X connect 1 0 15 0;
#X connect 1 1 12 0;
#X connect 2 0 10 0;
#X connect 3 0 2 1;
#X connect 4 0 8 0;
#X connect 6 0 1 0;
#X connect 6 1 2 0;
#X connect 7 0 4 2;
#X connect 9 0 5 0;
#X connect 10 0 0 1;
#X connect 11 0 6 0;
#X connect 12 0 0 0;
#X connect 13 0 10 1;
#X connect 15 0 4 0;
#X restore 373 342 pd make rectangle ( 2 );
#X obj 159 302 inv+ 239;
#X obj 175 41 sl 128 15 0 239 0 0 empty empty empty -2 -6 0 8 -262144 -1 -1 0 1;
#X obj 54 391 @out x11;
#X msg 393 36 0 0;
#X obj 355 161 listelement 1;
#X obj 54 452 s pos;
#X text 149 6 vertical start\, end;
#X obj 160 227 inv+ 239;
#X obj 155 41 sl 128 15 0 239 0 0 empty empty empty -2 -6 0 8 -262144 -1 -1 0 1;
#X obj 365 74 fork ;
#X obj 337 141 inv+ 239;
#X obj 48 235 toggle ;
#N canvas 320 367 326 291 10;
#X obj 121 115 @store ;
#X obj 185 56 inlet;
#X obj 27 77 @for ( 0 0 ) ( 240 320 ) ( 1 1 );
#X obj 30 192 @fold & 1;
#X text 221 55 start position;
#X obj 26 26 inlet;
#X obj 26 54 fork ;
#X obj 30 137 @ & 65535;
#X obj 36 218 @cast uint8;
#X obj 29 164 @ <;
#X obj 234 110 inlet;
#X obj 30 247 @outer inv+ ( uint8 0 0 0 );
#X text 271 103 end position;
#X obj 130 140 @ -;
#X text 61 26 bang;
#X obj 27 103 @ -;
#X obj 30 271 outlet 0;
#X connect 0 0 13 0;
#X connect 1 0 13 1;
#X connect 1 0 15 1;
#X connect 2 0 15 0;
#X connect 3 0 8 0;
#X connect 5 0 6 0;
#X connect 6 0 2 0;
#X connect 6 1 0 0;
#X connect 7 0 9 0;
#X connect 8 0 11 0;
#X connect 9 0 3 0;
#X connect 10 0 0 1;
#X connect 11 0 16 0;
#X connect 13 0 9 1;
#X connect 15 0 7 0;
#X restore 52 317 pd make rectangle;
#X connect 0 0 21 0;
#X connect 1 0 2 0;
#X connect 1 1 27 0;
#X connect 2 0 5 0;
#X connect 2 0 13 0;
#X connect 2 1 14 0;
#X connect 3 0 30 2;
#X connect 4 0 26 0;
#X connect 5 0 16 0;
#X connect 6 0 23 0;
#X connect 7 0 30 1;
#X connect 9 0 28 0;
#X connect 10 0 1 0;
#X connect 11 0 3 1;
#X connect 12 0 30 0;
#X connect 13 0 4 0;
#X connect 16 0 7 1;
#X connect 18 0 3 0;
#X connect 19 0 18 0;
#X connect 20 0 6 0;
#X connect 21 0 2 0;
#X connect 21 0 27 0;
#X connect 22 0 11 0;
#X connect 25 0 7 0;
#X connect 26 0 25 0;
#X connect 27 0 22 0;
#X connect 27 0 9 0;
#X connect 28 0 19 0;
#X connect 29 0 12 0;
#X connect 30 0 20 0;
