#N canvas 468 231 500 480 10;
#X obj 31 122 @scale_by 2;
#X obj 38 496 @ min 255;
#X obj 24 256 fork ;
#X floatatom 194 249 5 0 0 0 - - -;;
#X obj 194 269 @two ;
#X msg 105 11 open ppm file r001.ppm;
#X obj 31 95 @ >> 8;
#X obj 21 358 @ *;
#X obj 11 227 @finished ;
#X obj 9 8 toggle ;
#X obj 31 32 @in ;
#X obj 212 343 @ /;
#X obj 217 207 loadbang ;
#X obj 8 32 bng 15 250 50 0 empty empty empty 0 -6 0 8 -262144 -1 -1;
#X obj 38 474 @ >> 7;
#X obj 196 377 @ *;
#X obj 31 207 fork ;
#X obj 184 307 @for ( 0 0 ) ( 240 320 ) ( 1 1 );
#X obj 11 283 @for ( 0 0 ) ( 240 320 ) ( 1 1 );
#X obj 111 166 @inner * + 0 ( 3 2 # 1 0 0 1 0 0 );
#X obj 21 335 @ /;
#X msg 242 229 32;
#X obj 196 400 @store ;
#X obj 31 9 metro 5;
#X obj 38 518 @out x11;
#X obj 32 69 @ * ( 256 256 384 );
#X obj 111 146 @dim ;
#X obj 19 389 @store ;
#X msg 194 229 24;
#X obj 31 176 fork ;
#X obj 38 451 @ *;
#X floatatom 242 249 5 0 0 0 - - -;;
#X connect 0 0 29 0;
#X connect 1 0 24 0;
#X connect 2 0 18 0;
#X connect 2 1 17 0;
#X connect 3 0 4 0;
#X connect 4 0 20 1;
#X connect 4 0 7 1;
#X connect 4 0 11 1;
#X connect 5 0 10 0;
#X connect 6 0 0 0;
#X connect 7 0 27 0;
#X connect 8 0 2 0;
#X connect 9 0 23 0;
#X connect 10 0 25 0;
#X connect 11 0 15 1;
#X connect 12 0 28 0;
#X connect 12 0 21 0;
#X connect 13 0 10 0;
#X connect 14 0 1 0;
#X connect 15 0 22 0;
#X connect 16 0 8 0;
#X connect 16 1 22 1;
#X connect 16 1 27 1;
#X connect 17 0 15 0;
#X connect 18 0 20 0;
#X connect 19 0 18 1;
#X connect 19 0 17 1;
#X connect 19 0 11 0;
#X connect 20 0 7 0;
#X connect 21 0 31 0;
#X connect 22 0 30 1;
#X connect 23 0 10 0;
#X connect 25 0 6 0;
#X connect 26 0 19 0;
#X connect 27 0 30 0;
#X connect 28 0 3 0;
#X connect 29 0 16 0;
#X connect 29 1 26 0;
#X connect 30 0 14 0;
#X connect 31 0 4 1;
