#N canvas 143 15 510 491 10;
#X msg 282 489 close;
#X obj 333 122 fork ;
#X obj 431 203 loadbang ;
#N canvas 1 20   10;
#X text 84 10 bang;
#X obj 47 63 @for ( -36 -64 ) ( 36 64 ) ( 1 1 );
#X obj 47 9 inlet;
#X obj 47 114 @fold +;
#X obj 47 204 outlet 0;
#X obj 47 31 bng 15 250 50 0 empty empty empty 0 -6 0 8 -262144 -1 -1;
#X obj 47 181 @ << 7;
#X obj 47 136 @ >> 6;
#X obj 47 87 @! sq;
#X obj 47 159 @ == 10;
#X connect 1 0 8 0;
#X connect 2 0 5 0;
#X connect 3 0 7 0;
#X connect 5 0 1 0;
#X connect 6 0 4 0;
#X connect 7 0 9 0;
#X connect 8 0 3 0;
#X connect 9 0 6 0;
#X restore 459 26 pd 72*128 circle generator;
#X text 326 356 palette generator;
#X text 47 23 step 2;
#X msg 483 220 75;
#X obj 201 484 fps detailed;
#X msg 284 464 open quicktime file fire.mov  \, codec DIVX;
#X obj 94 45 for 0 100 1;
#N canvas 645 360 400 289 10;
#X obj 174 172 @! rand;
#X obj 336 116 @! rand;
#X obj 174 193 @store ;
#X obj 107 300 @export_list ;
#X obj 48 182 @ >> 2;
#X obj 19 49 fork ;
#X obj 19 81 @convolve * + 0 ( 3 3 # 1 0 0 0 1 0 1 1 1 );
#X obj 48 279 @ & 255;
#X obj 174 128 listmake ;
#X obj 48 224 @ / 80;
#X msg 174 151 \$1 1 # 256;
#X obj 336 73 inlet;
#X obj 174 102 bng 15 250 50 0 empty empty empty 0 -6 0 8 -262144 -1 -1;
#X obj 174 78 route grid;
#X obj 107 256 inlet;
#X obj 342 140 @ + 32;
#X obj 107 278 @dim ;
#X obj 48 258 @ +;
#X obj 48 302 outlet 0;
#X obj 19 21 inlet;
#X msg 336 95 256 \$2 # 64;
#X obj 48 203 @ *;
#X connect 0 0 2 0;
#X connect 1 0 15 0;
#X connect 2 0 21 1;
#X connect 3 0 8 1;
#X connect 4 0 21 0;
#X connect 5 0 6 0;
#X connect 5 1 13 0;
#X connect 6 0 4 0;
#X connect 7 0 18 0;
#X connect 8 0 10 0;
#X connect 9 0 17 0;
#X connect 10 0 0 0;
#X connect 11 0 20 0;
#X connect 12 0 8 0;
#X connect 13 0 12 0;
#X connect 14 0 17 1;
#X connect 14 0 16 0;
#X connect 15 0 2 1;
#X connect 16 0 3 0;
#X connect 17 0 7 0;
#X connect 19 0 5 0;
#X connect 20 0 1 0;
#X connect 21 0 9 0;
#X restore 194 225 pd fire generator itself;
#X obj 333 412 @for 0 256 1;
#X obj 26 45 metro 0.100000001490116;
#X obj 90 184 @store ;
#X obj 333 434 @outer gamma;
#X obj 201 506 print ;
#X msg 138 160 \$1 \$2 # 0;
#X obj 201 364 @outer ignore ( 0 );
#X obj 333 390 @finished ;
#X msg 457 220 200;
#X text 22 185 feedback;
#X text 261 27 step 1;
#X obj 26 22 toggle ;
#X obj 94 22 bng 15 250 50 0 empty empty empty 0 -6 0 8 -262144 -1 -1;
#X obj 239 26 bng 15 250 50 0 empty empty empty 0 -6 0 8 -262144 -1 -1;
#X obj 303 125 bng 15 250 50 0 empty empty empty 0 -6 0 8 -262144 -1 -1;
#X obj 457 241 vsl 20 137 0 800 0 0 empty empty empty -2 -6 0 8 -262144 -1 -1 0 1;
#X obj 437 383 @three ;
#X text 23 352 above this point \, the picture is greyscale and channelless \, but here \, each number is replaced by a color pixel.;
#X obj 67 72 bng 15 250 50 0 empty empty empty 0 -6 0 8 -262144 -1 -1;
#X obj 395 385 fork ;
#X msg 431 220 600;
#X obj 437 241 vsl 20 137 0 800 0 0 empty empty empty -2 -6 0 8 -262144 -1 -1 0 1;
#X obj 303 101 fork ;
#X obj 477 241 vsl 20 137 0 800 0 0 empty empty empty -2 -6 0 8 -262144 -1 -1 0 1;
#X text 145 114 blank image for startup;
#X text 297 49 height width;
#X msg 239 49 72 256;
#X text 90 72 compose;
#X obj 201 462 @out window;
#X text 144 418 applying palette;
#X obj 201 423 @store ;
#N canvas 597 83 340 213 10;
#X obj 14 123 @fold +;
#X obj 156 152 - 4;
#X obj 14 56 bng 15 250 50 0 empty empty empty 0 -6 0 8 -262144 -1 -1;
#X text 84 10 bang;
#X obj 14 101 @ & ( -1 0 );
#X obj 14 146 @ ==;
#X obj 155 131 listelement 0;
#X text 56 37 line generator;
#X obj 14 174 @ << 7;
#X text 195 21 {height width};
#X obj 14 79 @for ( 0 0 ) ( 0 0 ) ( 1 1 );
#X obj 155 104 @export_list ;
#X obj 47 9 inlet;
#X obj 158 19 inlet;
#X obj 14 231 outlet 0;
#X connect 0 0 5 0;
#X connect 1 0 5 1;
#X connect 2 0 10 0;
#X connect 4 0 0 0;
#X connect 5 0 8 0;
#X connect 6 0 1 0;
#X connect 8 0 14 0;
#X connect 10 0 4 0;
#X connect 11 0 6 0;
#X connect 12 0 2 0;
#X connect 13 0 10 1;
#X connect 13 0 11 0;
#X restore 303 148 pd blank picture with a horizontal line at the bottom;
#X connect 0 0 39 0;
#X connect 1 0 42 1;
#X connect 1 1 10 2;
#X connect 2 0 31 0;
#X connect 2 0 19 0;
#X connect 2 0 6 0;
#X connect 6 0 34 0;
#X connect 7 0 15 0;
#X connect 8 0 39 0;
#X connect 9 0 29 0;
#X connect 10 0 17 0;
#X connect 10 0 13 1;
#X connect 11 0 14 0;
#X connect 12 0 13 0;
#X connect 13 0 10 0;
#X connect 14 0 41 1;
#X connect 16 0 13 1;
#X connect 17 0 41 0;
#X connect 18 0 11 0;
#X connect 19 0 26 0;
#X connect 22 0 12 0;
#X connect 23 0 9 0;
#X connect 24 0 37 0;
#X connect 25 0 42 0;
#X connect 26 0 27 1;
#X connect 27 0 30 0;
#X connect 29 0 13 0;
#X connect 30 0 18 0;
#X connect 30 1 14 1;
#X connect 31 0 32 0;
#X connect 32 0 27 0;
#X connect 33 0 25 0;
#X connect 33 1 1 0;
#X connect 34 0 27 2;
#X connect 37 0 16 0;
#X connect 37 0 33 0;
#X connect 39 0 7 0;
#X connect 41 0 39 0;
#X connect 42 0 10 1;
