#N canvas 391 151 548 468 10;
#X obj 3 174 @fold + ( 0 0 0 );
#X obj 223 211 print total_value;
#X obj 474 209 @dim;
#X obj 3 230 @export_list;
#X obj 283 188 print number_of_values;
#X obj 474 253 print number_of_dimensions;
#X obj 474 231 @export;
#X obj 151 129 @fold + 0;
#X obj 247 239 /;
#X obj 151 173 @fold + 0;
#X obj 183 40 bng 15 250 50 0 empty empty empty 0 -6 0 8 -262144 -1
-1;
#X obj 4 258 print total_pixel;
#X obj 132 93 fork;
#X obj 182 69 @in;
#X obj 283 144 @fold * 1;
#X obj 426 161 print dimensions;
#X obj 3 135 @fold + ( 0 0 0 );
#X obj 283 258 print average_value;
#X obj 152 195 @export;
#X obj 151 151 @fold + 0;
#X obj 426 139 @export_list;
#X obj 426 117 @dim;
#X obj 283 122 @dim;
#X obj 283 166 @export;
#X msg 208 6 open bluemarble.ppm;
#X msg 208 26 open teapot.ppm;
#X msg 208 46 open r001.jpg;
#X connect 0 0 3 0;
#X connect 2 0 6 0;
#X connect 3 0 11 0;
#X connect 6 0 5 0;
#X connect 7 0 19 0;
#X connect 8 0 17 0;
#X connect 9 0 18 0;
#X connect 10 0 13 0;
#X connect 12 0 16 0;
#X connect 12 0 7 0;
#X connect 12 1 22 0;
#X connect 13 0 12 0;
#X connect 13 0 21 0;
#X connect 14 0 23 0;
#X connect 16 0 0 0;
#X connect 18 0 1 0;
#X connect 18 0 8 0;
#X connect 19 0 9 0;
#X connect 20 0 15 0;
#X connect 21 0 20 0;
#X connect 21 0 2 0;
#X connect 22 0 14 0;
#X connect 23 0 4 0;
#X connect 23 0 8 1;
#X connect 24 0 13 0;
#X connect 25 0 13 0;
#X connect 26 0 13 0;
