#N canvas 19 71 685 493 10;
#X text 459 12 click here to go in manual mode;
#X floatatom 142 242 5 0 0 0 - - -;
#X obj 11 307 @ >> 11;
#X obj 11 80 @store;
#X obj 198 230 hsl 128 15 -4096 4096 0 0 empty empty empty -2 -6 0
8 -262144 -1 -1 0 1;
#X obj 549 141 * 3;
#X obj 422 405 @ sin*;
#X obj 198 249 hsl 128 15 -4096 4096 0 0 empty empty empty -2 -6 0
8 -262144 -1 -1 0 1;
#X floatatom 142 188 5 0 0 0 - - -;
#X msg 452 155 10000;
#X obj 10 21 tgl 15 0 empty empty empty 0 -6 0 8 -262144 -1 -1 0 1
;
#X obj 198 192 hsl 128 15 -4096 4096 0 0 empty empty empty -2 -6 0
8 -262144 -1 -1 0 1;
#X obj 57 80 loadbang;
#X obj 422 384 @outer + ( 9000 18000 0 9000 );
#X obj 100 286 @redim ( 2 2 );
#X text 195 173 linear transform;
#X obj 57 101 @for ( -128 -128 ) ( 128 128 ) ( 1 1 );
#X obj 11 328 @ + 128;
#X floatatom 142 206 5 0 0 0 - - -;
#X floatatom 142 224 5 0 0 0 - - -;
#X obj 198 211 hsl 128 15 -4096 4096 0 0 empty empty empty -2 -6 0
8 -262144 -1 -1 0 1;
#X obj 422 193 vsl 15 128 0 35999 0 0 empty empty empty 0 -8 0 8 -262144
-1 -1 0 1;
#X obj 457 192 vsl 15 128 -10000 10000 0 0 empty empty empty 0 -8 0
8 -262144 -1 -1 12700 1;
#X obj 431 52 % 36000;
#X obj 452 134 loadbang;
#X text 364 164 rotozoomer;
#X obj 11 286 @inner * + 0;
#X obj 549 161 @ sin* 100;
#X obj 388 12 shunt 2;
#X msg 136 360 open teapot.png \, bang;
#X msg 549 233 set \$1;
#X obj 11 41 metro 33.3667;
#X obj 136 339 loadbang;
#X obj 11 381 @store;
#X obj 11 402 @out window;
#X obj 457 330 t b f;
#X obj 443 13 tgl 15 0 empty empty empty 0 -6 0 8 -262144 -1 -1 0 1
;
#X obj 85 265 @pack 4;
#X obj 11 60 t b b;
#X obj 388 51 float;
#X obj 431 32 + 100;
#X obj 549 182 @ inv* 100000;
#X obj 549 203 @export;
#X obj 67 359 #camera;
#X obj 136 381 @in;
#X obj 67 339 spigot;
#X obj 114 341 tgl 15 0 empty empty empty 0 -6 0 8 -262144 -1 -1 0
1;
#X connect 1 0 37 3;
#X connect 2 0 17 0;
#X connect 3 0 26 0;
#X connect 4 0 19 0;
#X connect 5 0 27 0;
#X connect 6 0 14 0;
#X connect 7 0 1 0;
#X connect 8 0 37 0;
#X connect 9 0 22 0;
#X connect 10 0 31 0;
#X connect 11 0 8 0;
#X connect 12 0 16 0;
#X connect 13 0 6 0;
#X connect 14 0 26 2;
#X connect 16 0 3 1;
#X connect 17 0 33 0;
#X connect 18 0 37 1;
#X connect 19 0 37 2;
#X connect 20 0 18 0;
#X connect 21 0 13 0;
#X connect 22 0 35 0;
#X connect 23 0 39 1;
#X connect 24 0 9 0;
#X connect 26 0 2 0;
#X connect 27 0 41 0;
#X connect 28 0 39 0;
#X connect 29 0 44 0;
#X connect 30 0 22 0;
#X connect 31 0 38 0;
#X connect 32 0 29 0;
#X connect 33 0 34 0;
#X connect 35 0 21 0;
#X connect 35 1 6 1;
#X connect 36 0 28 1;
#X connect 37 0 14 0;
#X connect 38 0 3 0;
#X connect 38 1 28 0;
#X connect 38 1 45 0;
#X connect 39 0 40 0;
#X connect 39 0 21 0;
#X connect 39 0 5 0;
#X connect 40 0 23 0;
#X connect 41 0 42 0;
#X connect 42 0 30 0;
#X connect 42 0 35 0;
#X connect 43 0 33 1;
#X connect 44 0 33 1;
#X connect 45 0 43 0;
#X connect 46 0 45 1;
