#N canvas 35 204 590 517 10;
#X obj 51 35 bng 15 250 50 0 empty empty empty 0 -6 0 8 -262144 -1
-1;
#X obj 42 58 fork;
#X obj 80 58 fork;
#X obj 121 150 @in;
#N canvas 123 298 450 300 counter 0;
#X obj 131 70 + 1;
#X obj 131 23 bng 15 250 50 0 empty empty empty 0 -6 0 8 -262144 -1
-1;
#X floatatom 170 70 5 0 0 0 - - -;
#X msg 131 47 1;
#X floatatom 170 114 5 0 0 0 - - -;
#X obj 132 157 select 1;
#X msg 170 44 0;
#X obj 132 178 bng 15 250 50 0 empty empty empty 0 -6 0 8 -262144 -1
-1;
#X obj 70 25 inlet;
#X obj 132 195 outlet;
#X obj 220 65 inlet;
#X obj 298 106 outlet;
#X obj 170 95 >= 32;
#X connect 0 0 2 0;
#X connect 1 0 3 0;
#X connect 2 0 0 1;
#X connect 2 0 11 0;
#X connect 2 0 12 0;
#X connect 3 0 0 0;
#X connect 4 0 5 0;
#X connect 5 0 6 0;
#X connect 5 0 7 0;
#X connect 6 0 2 0;
#X connect 7 0 9 0;
#X connect 8 0 1 0;
#X connect 10 0 12 1;
#X connect 12 0 4 0;
#X restore 270 166 pd counter;
#X obj 270 145 bng 15 250 50 0 empty empty empty 0 -6 0 8 -262144 -1
-1;
#X obj 42 119 / 10;
#X floatatom 42 159 5 0 0 0 - - -;
#X obj 146 150 @camera_control;
#X obj 21 8 tgl 15 0 empty empty empty 0 -6 0 8 -262144 -1 -1 0 1;
#X text 150 29 It is a clone of Edo Tannenbaum's "nervous video" effect
\, http://effectv.sourceforge.net;
#X text 150 1 This patch was made by Alexandre Castonguay;
#X floatatom 43 337 5 0 0 0 - - -;
#X obj 43 318 fps;
#X obj 42 7 metro 33.3667;
#X msg 43 177 list \$1;
#X msg 242 229 reassign \, 32 240 320 3 #;
#X msg 242 209 reassign \, 32 120 160 3 #;
#X msg 242 249 reassign \, 32 480 640 3 #;
#X obj 43 221 @store ( 32 240 320 3 # );
#X text 152 67 Then matju comes in \, and basically makes this a demo
of the put_at feature of [@store].;
#X obj 42 139 % 32;
#X msg 359 113 32;
#X obj 42 100 random 320;
#X obj 332 113 t f;
#X msg 390 113 1;
#X msg 335 185 put_at ( \$1 0 0 0 );
#X obj 43 299 @out window;
#X connect 0 0 1 0;
#X connect 1 0 23 0;
#X connect 1 1 2 0;
#X connect 2 0 3 0;
#X connect 2 1 5 0;
#X connect 3 0 19 1;
#X connect 4 1 26 0;
#X connect 5 0 4 0;
#X connect 6 0 21 0;
#X connect 7 0 15 0;
#X connect 8 0 3 0;
#X connect 9 0 14 0;
#X connect 13 0 12 0;
#X connect 14 0 1 0;
#X connect 15 0 19 0;
#X connect 16 0 19 1;
#X connect 17 0 19 1;
#X connect 18 0 19 1;
#X connect 19 0 27 0;
#X connect 21 0 7 0;
#X connect 22 0 24 0;
#X connect 23 0 6 0;
#X connect 24 0 4 1;
#X connect 24 0 21 1;
#X connect 25 0 24 0;
#X connect 26 0 19 1;
#X connect 27 0 13 0;
