#N canvas 51 171 632 489 10;
#X obj 119 23 @in lada.jpg;
#X obj 82 464 @out window;
#X obj 7 5 tgl 15 0 empty empty empty 0 -6 0 8 -262144 -1 -1 0 1;
#X obj 82 120 @store;
#X obj 137 2 loadbang;
#X text 486 452 How to play a car;
#X obj 119 3 bng 15 250 50 0 empty empty empty 0 -6 0 8 -262144 -1
-1;
#X obj 508 415 dac~;
#X obj 317 44 +;
#X msg 317 23 1;
#X obj 345 44 % 365;
#N canvas 0 0 450 300 fft 1;
#X obj 23 68 rifft~;
#X obj 23 88 outlet~;
#X obj 359 16 block~ 1024;
#X obj 23 48 tabreceive~ array2;
#X connect 0 0 1 0;
#X connect 3 0 0 0;
#X restore 519 393 pd fft;
#X obj 27 153 for 0 1024 1;
#X obj 27 172 tabwrite array1;
#X obj 6 27 bng 15 250 50 0 empty empty empty 0 -6 0 8 -262144 -1 -1
;
#X obj 82 444 @draw_polygon put ( 3 # 255 0 0 );
#X obj 27 26 t b b;
#X msg 308 404 4 2 # 0 0 0 502 1 502 1 0;
#X obj 308 423 @ +;
#X obj 82 403 t a b;
#X msg 324 380 \$1 0;
#X obj 82 424 @greyscale_to_rgb;
#X obj 147 158 @store;
#X obj 148 242 @export_list;
#X obj 179 282 s array1;
#X obj 148 201 @cast float32;
#X obj 27 5 metro 23.22;
#X obj 140 107 @ / 9;
#X obj 140 85 @convolve * + 0 ( 3 3 # 1 );
#X obj 148 181 @ inv+ 255;
#X obj 114 63 @ min 255;
#X obj 114 44 @ * 3;
#X obj 149 221 @ / ( float32 # 1000 );
#X msg 147 136 1 1 # \$1;
#X obj 435 43 table array2 1024;
#X obj 436 22 table array1 502;
#X obj 149 262 t b a;
#X obj 363 380 r row;
#X obj 345 66 s row;
#X obj 183 113 r row;
#X obj 408 102 for 0 512 1;
#X obj 409 122 t f f;
#X obj 411 181 tabread array1;
#X obj 411 200 tabwrite array2;
#X obj 411 162 exp;
#X obj 411 142 / 2;
#X connect 0 0 31 0;
#X connect 2 0 26 0;
#X connect 3 0 19 0;
#X connect 4 0 0 0;
#X connect 6 0 0 0;
#X connect 8 0 10 0;
#X connect 9 0 8 0;
#X connect 10 0 8 1;
#X connect 10 0 38 0;
#X connect 11 0 7 0;
#X connect 11 0 7 1;
#X connect 12 0 13 0;
#X connect 14 0 16 0;
#X connect 15 0 1 0;
#X connect 16 0 9 0;
#X connect 16 1 3 0;
#X connect 17 0 18 0;
#X connect 18 0 15 2;
#X connect 19 0 21 0;
#X connect 19 1 17 0;
#X connect 20 0 18 1;
#X connect 21 0 15 0;
#X connect 22 0 29 0;
#X connect 23 0 36 0;
#X connect 25 0 32 0;
#X connect 26 0 16 0;
#X connect 27 0 3 1;
#X connect 27 0 22 1;
#X connect 28 0 27 0;
#X connect 29 0 25 0;
#X connect 30 0 28 0;
#X connect 31 0 30 0;
#X connect 32 0 23 0;
#X connect 33 0 22 0;
#X connect 36 0 40 0;
#X connect 36 1 24 0;
#X connect 37 0 20 0;
#X connect 39 0 33 0;
#X connect 40 0 41 0;
#X connect 41 0 45 0;
#X connect 41 1 43 1;
#X connect 42 0 43 0;
#X connect 44 0 42 0;
#X connect 45 0 44 0;
