#N canvas 211 415 420 159 10;
#N canvas 803 450 420 235 plot-a-function 1;
#X obj 8 61 # inv+ 640;
#X obj 8 40 #for 0 640 1;
#X obj 105 59 outlet;
#X obj 33 200 #outer * ( 255 255 255 );
#X obj 33 175 #outer <;
#X obj 105 80 inlet;
#X text 209 199 to rgb;
#X text 97 176 make graph \, twotone channelless;
#X obj 35 232 outlet;
#X obj 105 34 #for 0 640 1;
#X obj 105 10 inlet;
#X obj 92 132 #finished;
#X obj 105 103 t a a;
#X connect 0 0 4 0;
#X connect 1 0 0 0;
#X connect 3 0 8 0;
#X connect 4 0 3 0;
#X connect 5 0 12 0;
#X connect 9 0 2 0;
#X connect 10 0 9 0;
#X connect 11 0 1 0;
#X connect 12 0 11 0;
#X connect 12 1 4 1;
#X restore 26 52 pd plot-a-function ( tm );
#X obj 226 81 # + 320;
#X obj 26 77 #out window;
#X obj 225 12 # - 320;
#X obj 226 58 # tanh* 343;
#X obj 226 34 # * 30;
#X obj 26 26 bng 15 250 50 0 empty empty empty 0 -6 0 8 -262144 -1
-1;
#X connect 0 0 2 0;
#X connect 0 1 3 0;
#X connect 1 0 0 1;
#X connect 3 0 5 0;
#X connect 4 0 1 0;
#X connect 5 0 4 0;
#X connect 6 0 0 0;
