#N canvas 240 151 499 353 10;
#X obj 221 271 @ min 255;
#X obj 60 190 @ >> 3;
#X obj 10 302 @draw_polygon +;
#X obj 184 22 bng 15 250 50 0 empty empty empty 0 -6 0 8 -262144 -1
-1;
#X obj 110 92 +;
#X msg 69 256 240 320 3 uint8 # 0;
#X obj 10 256 @store;
#X obj 221 249 @ max 0;
#X obj 143 114 * 5000;
#X obj 223 315 @ >> 5;
#X obj 63 20 tgl 15 0 empty empty empty 0 -6 0 8 -262144 -1 -1 1 1
;
#X msg 110 73 1;
#X obj 10 321 @out window;
#X obj 60 209 @cast uint8;
#X obj 223 293 @convolve * + 0 ( 1 3 # 4 23 );
#X obj 371 19 vsl 20 137 0 36000 0 1 empty empty empty -2 -6 0 8 -262144
-1 -1 3400 1;
#N canvas 0 0 415 291 create 0;
#X msg 82 66 0 \$1;
#X obj 5 131 @outer + ( 0 9000 );
#X obj 5 153 @ +;
#X obj 5 197 @ + ( 120 160 );
#X obj 5 175 @ cos* 116;
#X obj 5 109 @ * 14400;
#X obj 5 87 @for 0 5 1;
#X obj 34 153 inlet rotation_angle;
#X obj 5 10 inlet bang;
#X obj 5 219 outlet polygon;
#X obj 82 44 inlet tilt_factor;
#X text 81 27 default: 9000 \, for flatness;
#X connect 0 0 1 1;
#X connect 1 0 2 0;
#X connect 2 0 4 0;
#X connect 3 0 9 0;
#X connect 4 0 3 0;
#X connect 5 0 1 0;
#X connect 6 0 5 0;
#X connect 7 0 2 1;
#X connect 8 0 6 0;
#X connect 10 0 0 0;
#X restore 269 161 pd create star;
#X text 284 247 this part is not used for now;
#N canvas 0 0 450 300 color 0;
#X obj 18 141 outlet 0;
#X obj 18 95 @ sin* 128;
#X obj 18 117 @ + 128;
#X obj 18 37 @ * 1146;
#X obj 18 13 inlet;
#X obj 18 60 @outer + ( 0 12000 24000 );
#X text 139 52 each channel is a sine wave \; the three are offset
from each other 120 degrees. it is almost like turning around in the
color wheel except we don't support the HSV color model for now.;
#X connect 1 0 2 0;
#X connect 2 0 0 0;
#X connect 3 0 5 0;
#X connect 4 0 3 0;
#X connect 5 0 1 0;
#X restore 60 171 pd color generator;
#X obj 86 21 metro 33.3667;
#X obj 145 46 t b b b;
#X obj 10 83 t b;
#X floatatom 372 163 6 0 0 0 - - -;
#X obj 69 236 loadbang;
#X obj 138 93 % 36000;
#X connect 0 0 14 0;
#X connect 1 0 13 0;
#X connect 2 0 12 0;
#X connect 2 0 6 1;
#X connect 3 0 20 0;
#X connect 4 0 24 0;
#X connect 5 0 6 1;
#X connect 6 0 2 0;
#X connect 7 0 0 0;
#X connect 8 0 16 1;
#X connect 10 0 19 0;
#X connect 11 0 4 0;
#X connect 13 0 2 1;
#X connect 14 0 9 0;
#X connect 15 0 22 0;
#X connect 16 0 2 2;
#X connect 18 0 1 0;
#X connect 19 0 20 0;
#X connect 20 0 21 0;
#X connect 20 1 11 0;
#X connect 20 2 16 0;
#X connect 21 0 6 0;
#X connect 22 0 16 2;
#X connect 23 0 5 0;
#X connect 24 0 4 1;
#X connect 24 0 18 0;
#X connect 24 0 8 0;
