#N canvas 44 159 528 491 10;
#X obj 78 424 @out window;
#X obj 47 178 @outer ignore ( 0 0 );
#X obj 78 110 +;
#X obj 47 331 @ +;
#X obj 283 175 @outer + ( 0 9000 );
#X obj 47 375 demux 2;
#X obj 283 194 @ sin* 256;
#N canvas 609 247 325 236 distance 0;
#X text 16 15 bang;
#X obj 18 58 @for ( -128 -128 ) ( 128 128 ) ( 1 1 );
#X text 15 167 distances to middle;
#X obj 18 125 @! sqrt;
#X obj 18 36 inlet;
#X obj 18 103 @fold +;
#X obj 18 81 @ ** 2;
#X text 89 101 pythagoras' theorem;
#X obj 18 149 outlet;
#X connect 1 0 6 0;
#X connect 3 0 8 0;
#X connect 4 0 1 0;
#X connect 5 0 3 0;
#X connect 6 0 5 0;
#X restore 164 46 pd distance map;
#X obj 78 445 fps detailed;
#X obj 283 135 loadbang;
#X obj 47 47 fork;
#X obj 168 283 tgl 15 0 empty empty empty 0 -6 0 8 -262144 -1 -1 0
1;
#X msg 78 91 1;
#X obj 47 110 @ -;
#X obj 47 67 @store;
#N canvas 659 552 420 225 apply 0;
#X obj 60 48 @fold + 0;
#X obj 12 190 outlet 0;
#X obj 60 16 inlet;
#X obj 12 124 @ +;
#X obj 12 167 @ max 0;
#X obj 12 146 @ min 255;
#X obj 12 16 inlet;
#X obj 58 101 @outer *>>8;
#X obj 130 69 inlet;
#X obj 60 73 @ << 2;
#X connect 0 0 9 0;
#X connect 2 0 0 0;
#X connect 3 0 5 0;
#X connect 4 0 1 0;
#X connect 5 0 4 0;
#X connect 6 0 3 0;
#X connect 7 0 3 1;
#X connect 8 0 7 1;
#X connect 9 0 7 0;
#X restore 78 405 pd apply shading;
#X obj 28 10 tgl 15 0 empty empty empty 0 -6 0 8 -262144 -1 -1 1 1
;
#X obj 47 353 @store;
#X obj 47 30 bng 15 250 50 0 empty empty empty 0 -6 0 8 -262144 -1
-1;
#X obj 48 286 @finished;
#X obj 164 334 @for ( 0 0 ) ( 256 256 ) ( 1 1 );
#X obj 164 135 @ + 10;
#X text 187 283 shading on/off;
#X obj 47 245 demux 2;
#X floatatom 106 113 5 0 0 0 - - -;
#X obj 47 200 @ *>>8;
#X obj 164 315 loadbang;
#X obj 164 26 loadbang;
#X obj 47 308 @store;
#X obj 78 467 print;
#X obj 164 154 @ inv* 10000;
#N canvas 588 233 480 480 angle 0;
#X obj 71 163 @outer atan;
#X obj 71 55 @finished;
#X text 70 210 angles to centre;
#X text 168 63 bang;
#X obj 167 82 inlet;
#X obj 168 106 @for -128 128 1;
#X obj 71 78 bng 15 250 50 0 empty empty empty 0 -6 0 8 -262144 -1
-1;
#X obj 72 188 outlet 0;
#X obj 71 107 @for -128 128 1;
#X connect 0 0 7 0;
#X connect 1 0 6 0;
#X connect 4 0 5 0;
#X connect 5 0 0 1;
#X connect 5 0 1 0;
#X connect 6 0 8 0;
#X connect 8 0 0 0;
#X restore 283 156 pd angle map;
#X obj 47 156 @ *>>8;
#X obj 353 410 hsl 128 15 0 255 0 1 empty empty empty -2 -6 0 8 -261689
-258699 -1 12700 1;
#X obj 353 427 hsl 128 15 0 255 0 1 empty empty empty -2 -6 0 8 -225271
-24198 -1 12700 1;
#X obj 353 444 hsl 128 15 0 255 0 1 empty empty empty -2 -6 0 8 -228992
-62784 -1 12700 1;
#X text 348 395 colour of ripple shading;
#X obj 46 223 @ *>>8;
#X obj 259 240 hsl 128 15 -256 256 0 1 empty empty empty -2 -6 0 8
-262144 -1 -1 8100 1;
#X obj 259 257 hsl 128 15 -256 256 0 1 empty empty empty -2 -6 0 8
-262144 -1 -1 8100 1;
#N canvas 715 537 387 220 compute 0;
#X obj 8 113 @store;
#X obj 55 113 @ sin* 64;
#X obj 55 71 @for 0 1024 1;
#X obj 55 50 loadbang;
#X obj 8 30 @outer ignore ( 0 );
#X obj 55 92 @ * 900;
#X obj 125 51 bng 15 250 50 0 empty empty empty 0 -6 0 8 -262144 -1
-1;
#X obj 8 135 outlet;
#X text 75 151 This is somewhat like [@ sin];
#X text 75 166 but much faster (lookup table);
#X obj 8 11 inlet;
#X connect 0 0 7 0;
#X connect 1 0 0 1;
#X connect 2 0 5 0;
#X connect 3 0 2 0;
#X connect 4 0 0 0;
#X connect 5 0 1 0;
#X connect 6 0 2 0;
#X connect 10 0 4 0;
#X restore 47 133 pd compute sine;
#X text 232 363 background image;
#X obj 165 380 @in teapot.png;
#X obj 165 361 loadbang;
#X obj 48 266 t a a;
#X obj 305 463 @pack 3;
#X text 215 224 intensity of wave;
#X obj 47 9 metro 33.3667;
#X text 246 10 waves.pd is more interesting;
#X text 225 -4 this is a quite boring wave generator;
#X text 95 66 table for distance map;
#X floatatom 216 242 5 0 0 0 - - -;
#X floatatom 216 258 5 0 0 0 - - -;
#X obj 157 244 @pack 2;
#X connect 0 0 8 0;
#X connect 1 0 25 0;
#X connect 2 0 24 0;
#X connect 2 0 13 1;
#X connect 3 0 17 0;
#X connect 4 0 6 0;
#X connect 5 0 15 0;
#X connect 5 1 0 0;
#X connect 6 0 25 1;
#X connect 7 0 21 0;
#X connect 7 0 14 1;
#X connect 8 0 29 0;
#X connect 9 0 31 0;
#X connect 10 0 14 0;
#X connect 10 1 12 0;
#X connect 11 0 23 1;
#X connect 11 0 5 1;
#X connect 12 0 2 0;
#X connect 13 0 40 0;
#X connect 14 0 13 0;
#X connect 15 0 0 0;
#X connect 16 0 47 0;
#X connect 17 0 5 0;
#X connect 18 0 10 0;
#X connect 19 0 28 0;
#X connect 20 0 3 1;
#X connect 21 0 30 0;
#X connect 23 0 15 1;
#X connect 23 0 44 0;
#X connect 23 1 3 0;
#X connect 24 0 2 1;
#X connect 25 0 37 0;
#X connect 26 0 20 0;
#X connect 27 0 7 0;
#X connect 28 0 3 0;
#X connect 30 0 32 1;
#X connect 31 0 4 0;
#X connect 32 0 1 0;
#X connect 33 0 45 0;
#X connect 34 0 45 1;
#X connect 35 0 45 2;
#X connect 37 0 23 0;
#X connect 38 0 51 0;
#X connect 39 0 52 0;
#X connect 40 0 32 0;
#X connect 42 0 17 1;
#X connect 43 0 42 0;
#X connect 44 0 19 0;
#X connect 44 1 28 1;
#X connect 45 0 15 2;
#X connect 47 0 18 0;
#X connect 51 0 53 0;
#X connect 52 0 53 1;
#X connect 53 0 37 1;
