#N canvas 2 87 647 441 10;
#X msg 150 149 reset;
#X obj 31 419 @out window;
#X obj 16 14 tgl 15 0 empty empty empty 0 -6 0 8 -262144 -1 -1 1 1
;
#X obj 32 360 @ min 255;
#X obj 410 16 adc~;
#X obj 35 110 tabread4 array1;
#X obj 32 379 @ max 0;
#X obj 15 34 bng 15 250 50 0 empty empty empty 0 -6 0 8 -262144 -1
-1;
#X obj 38 309 @greyscale_to_rgb;
#X obj 445 17 table array1 1024;
#X obj 297 140 loadbang;
#X obj 277 142 bng 15 250 50 0 empty empty empty 0 -6 0 8 -262144 -1
-1;
#X obj 276 183 @ + 10;
#N canvas 0 0 306 167 analysis 0;
#X obj 24 -205 inlet~;
#X obj 26 -135 tabsend~ array1;
#X obj 24 -184 rfft~;
#X obj 25 -157 expr~ sqrt($v1*$v1+$v2*$v2)/64;
#X obj 148 -198 block~ 1024;
#X connect 0 0 2 0;
#X connect 2 0 3 0;
#X connect 2 1 3 1;
#X connect 3 0 1 0;
#X restore 411 39 pd analysis;
#X obj 36 169 @ *>>8;
#X obj 37 210 demux 2;
#X obj 380 186 vradio 15 1 0 2 empty empty empty 0 -6 0 8 -262144 -1
-1 1;
#X obj 37 249 @ inv+ 255;
#X obj 112 222 @outer <;
#X obj 254 226 loadbang;
#X obj 231 225 bng 15 250 50 0 empty empty empty 0 -6 0 8 -262144 -1
-1;
#X obj 112 261 @transpose;
#X obj 112 241 @ * 255;
#X obj 226 245 @for 120 0 -1;
#X obj 36 149 @import ( 320 );
#X obj 277 161 @for 0 320 1;
#X obj 34 34 for 0 320 1;
#X obj 37 287 @redim ( 120 320 1 );
#X obj 32 399 @scale_by 2;
#X obj 36 129 * 2000;
#X text 399 187 black stripes;
#X text 398 200 graph;
#X obj 37 190 @fade 2;
#X obj 35 77 / 2;
#X text 84 129 <-- adding some extra gain;
#X obj 95 88 exp;
#X obj 35 55 demux 2;
#X obj 180 46 vradio 15 1 0 2 empty empty empty 0 -6 0 8 -262144 -1
-1 0;
#X text 202 46 linear;
#X text 200 60 logarithmic;
#X obj 96 67 / 51;
#X obj 38 331 #fade;
#X obj 130 332 loadbang;
#X msg 79 331 16 4 1;
#X obj 34 14 metro 23.22;
#X text 122 13 = 1000*1024/44100;
#X connect 0 0 24 0;
#X connect 2 0 44 0;
#X connect 3 0 6 0;
#X connect 4 0 13 0;
#X connect 4 1 13 0;
#X connect 5 0 29 0;
#X connect 6 0 28 0;
#X connect 7 0 26 0;
#X connect 8 0 41 0;
#X connect 10 0 11 0;
#X connect 11 0 25 0;
#X connect 12 0 14 1;
#X connect 14 0 32 0;
#X connect 15 0 17 0;
#X connect 15 1 18 0;
#X connect 16 0 15 1;
#X connect 17 0 27 0;
#X connect 18 0 22 0;
#X connect 19 0 20 0;
#X connect 20 0 23 0;
#X connect 21 0 27 0;
#X connect 22 0 21 0;
#X connect 23 0 18 1;
#X connect 24 0 14 0;
#X connect 25 0 12 0;
#X connect 26 0 36 0;
#X connect 27 0 8 0;
#X connect 28 0 1 0;
#X connect 29 0 24 0;
#X connect 32 0 15 0;
#X connect 33 0 5 0;
#X connect 35 0 5 0;
#X connect 36 0 33 0;
#X connect 36 1 40 0;
#X connect 37 0 36 1;
#X connect 40 0 35 0;
#X connect 41 0 3 0;
#X connect 42 0 43 0;
#X connect 43 0 41 1;
#X connect 44 0 26 0;
