#N canvas 439 171 552 546 10;
#X obj 223 246 @ -;
#X obj 223 269 @ max 0;
#X obj 223 292 @ ||;
#X obj 223 315 @ +;
#X obj 282 268 inv+ 0;
#X obj 174 63 metro 250;
#X obj 223 127 @in;
#X obj 174 44 tgl 15 0 empty empty empty 0 -6 0 8 -262144 -1 -1 0 1
;
#X obj 286 77 @camera_control;
#X obj 278 179 tgl 15 0 empty empty empty 0 -6 0 8 -262144 -1 -1 0
1;
#X obj 295 211 @ max 0;
#X floatatom 372 234 5 0 0 0 - - -;
#X obj 372 99 vsl 15 128 0 127 0 0 empty empty empty 0 -8 0 8 -262144
-1 -1 0 1;
#X obj 223 178 demux 2;
#X obj 317 380 @out window;
#X connect 0 0 1 0;
#X connect 1 0 2 0;
#X connect 2 0 3 0;
#X connect 3 0 14 0;
#X connect 4 0 2 1;
#X connect 5 0 6 0;
#X connect 6 0 13 0;
#X connect 7 0 5 0;
#X connect 8 0 6 0;
#X connect 9 0 13 1;
#X connect 10 0 14 0;
#X connect 11 0 0 1;
#X connect 11 0 4 0;
#X connect 11 0 3 1;
#X connect 12 0 11 0;
#X connect 13 0 0 0;
#X connect 13 1 10 0;
