#N canvas 18 185 753 590 10;
#X obj 256 494 demux 2;
#X obj 288 220 @greyscale_to_rgb;
#X obj 251 300 @ min 255;
#X obj 271 5 loadbang;
#X obj 211 25 fork;
#X obj 251 389 @out x11;
#X obj 313 409 print;
#N canvas 23 304 369 368 mouse 0;
#X text 109 189 coordinates;
#X obj 56 189 outlet;
#X obj 57 164 listsublist 0 2;
#X obj 8 141 demux 2;
#X text 56 9 @out's outlet 0;
#X obj 100 142 outlet;
#X obj 41 94 >> 8;
#X obj 41 115 != 0;
#X obj 16 31 route position;
#X text 154 143 is there a click?;
#X obj 19 8 inlet;
#X obj 16 55 fork;
#X obj 41 73 listelement 2;
#X connect 2 0 1 0;
#X connect 3 1 2 0;
#X connect 6 0 7 0;
#X connect 7 0 5 0;
#X connect 7 0 3 1;
#X connect 8 0 11 0;
#X connect 10 0 8 0;
#X connect 11 0 3 0;
#X connect 11 1 12 0;
#X connect 12 0 6 0;
#X restore 307 449 pd mouse click/drag;
#X obj 12 39 tgl 15 0 empty empty empty 0 -6 0 8 -241291 -1 -1 0 1
;
#N canvas 129 137 419 287 lighting 0;
#X obj 137 12 r size;
#X obj 24 266 outlet;
#X obj 26 179 @ +;
#X obj 97 39 fork;
#X obj 26 62 @finished;
#X obj 26 117 @store;
#X obj 17 9 inlet;
#X obj 59 15 @redim ( );
#X obj 146 83 @outer & ( -1 0 0 );
#X text 136 103 produce red/cyan from horiz differences;
#X text 91 187 produce white/black from vertical differences;
#X obj 120 167 @outer & ( -1 -1 0 );
#X obj 120 145 @convolve & inv+ 0 ( 2 1 # -1 -1 );
#X obj 146 62 @convolve & inv+ 0 ( 1 2 # -1 -1 );
#X connect 0 0 7 1;
#X connect 2 0 1 0;
#X connect 3 0 4 0;
#X connect 3 1 12 0;
#X connect 3 1 13 0;
#X connect 4 0 5 0;
#X connect 5 0 2 0;
#X connect 6 0 7 0;
#X connect 7 0 3 0;
#X connect 8 0 5 1;
#X connect 11 0 2 1;
#X connect 12 0 11 0;
#X connect 13 0 8 0;
#X restore 206 201 pd lighting;
#X obj 307 468 @ / 2;
#X msg 138 46 \$1 \$2 1 # 0;
#N canvas 137 251 392 303 finger 0;
#X obj 149 39 @redim ( 4 2 );
#X obj 71 16 inlet;
#X obj 149 20 inlet;
#X obj 71 217 outlet;
#X obj 149 158 @ +;
#X obj 177 157 @ *;
#X msg 177 137 0 0 0 1 1 1 1 0;
#X obj 193 79 inlet size;
#X text 291 137 square or rect;
#X obj 177 112 @finished;
#X obj 70 195 @draw_polygon put ( 1000 );
#X connect 0 0 4 0;
#X connect 1 0 10 0;
#X connect 2 0 0 0;
#X connect 4 0 10 2;
#X connect 5 0 4 1;
#X connect 6 0 5 0;
#X connect 7 0 9 0;
#X connect 7 0 5 1;
#X connect 9 0 6 0;
#X connect 10 0 3 0;
#X restore 293 536 pd finger;
#X obj 245 25 s size;
#X obj 251 337 @scale_by 2;
#X obj 80 142 @store;
#X obj 312 389 fps detailed;
#X obj 59 142 bng 15 250 50 0 empty empty empty 0 -6 0 8 -241291 -1
-1;
#N canvas 53 323 450 300 wave 0;
#X obj 24 46 fork;
#X obj 26 20 inlet;
#X obj 48 269 outlet;
#X text 91 173 time differential;
#X text 81 50 space differential: (d/dx)^2 + (d/dy)^2;
#X text 71 8 Recurrence equation for propagation of oscillations;
#X obj 49 173 @ -;
#X obj 60 111 @ >> 4;
#X obj 49 194 @ *>>8 242;
#X text 126 195 amortizing by ~5.5%;
#X obj 61 75 @convolve * + 0 ( 3 3 # 1 4 1 4 0 4 );
#X connect 0 0 6 1;
#X connect 0 1 10 0;
#X connect 1 0 0 0;
#X connect 6 0 8 0;
#X connect 7 0 6 0;
#X connect 8 0 2 0;
#X connect 10 0 7 0;
#X restore 80 164 pd wave equation;
#X obj 239 167 demux 2;
#X obj 256 515 t a;
#X obj 117 122 t a;
#X obj 31 39 metro 33.3667;
#X obj 239 80 @convolve * + 0 ( 2 2 # 1 );
#X obj 239 121 demux 2;
#X obj 239 59 demux 2;
#X obj 251 280 @ max 0;
#X obj 288 201 @ >> 1;
#X obj 31 63 s metro;
#X msg 211 5 240 320;
#X text 441 19 Copyright (c) 2003 \, 2004 by Mathieu Bouchard;
#X text 481 72 (Best complemented with a touchscreen);
#X text 441 2 waves.pd;
#X obj 298 165 vradio 15 1 0 2 empty empty empty 0 -6 0 8 -262144 -258699
-1 0;
#X text 316 180 height greys;
#X obj 298 103 vradio 15 1 0 2 empty empty empty 0 -6 0 8 -262144 -258699
-1 0;
#X text 317 102 plain;
#X text 318 118 line-art;
#X text 315 46 smooth;
#X obj 296 46 vradio 15 1 0 2 empty empty empty 0 -6 0 8 -262144 -258699
-1 0;
#X text 316 60 raw;
#X obj 443 379 hradio 18 1 1 4 empty empty _1__2__3__4_ 0 -4 0 8 -262144
-258699 -1 1;
#X text 441 354 scale by...;
#X obj 443 400 + 1;
#X obj 664 129 loadbang;
#X obj 251 242 @ +;
#X obj 359 308 @in;
#X obj 385 309 @camera_control;
#X obj 359 288 spigot;
#X obj 406 289 tgl 15 0 empty empty empty 18 8 0 8 -241291 -1 -62784
0 1;
#X obj 359 268 r metro;
#N canvas 100 470 450 300 line-art 0;
#X obj 31 73 t a a;
#X obj 29 114 @ -;
#X obj 29 134 @ << 8;
#X obj 29 93 @ > 3;
#X obj 77 97 @ < -3;
#X obj 32 37 inlet;
#X obj 25 179 outlet;
#X text 146 31 double-thresholding;
#X text 139 85 < -3 becomes -1;
#X text 139 100 > +3 becomes +1;
#X text 139 114 else becomes 0;
#X connect 0 0 3 0;
#X connect 0 1 4 0;
#X connect 1 0 2 0;
#X connect 2 0 6 0;
#X connect 3 0 1 0;
#X connect 4 0 1 1;
#X connect 5 0 0 0;
#X restore 283 142 pd line-art;
#X text 560 214 Background colour;
#X text 426 289 enable video;
#X msg 385 329 open r001.jpg \, bang;
#X obj 428 496 loadbang;
#X msg 399 496 2;
#X floatatom 382 518 5 0 0 0 - - -;
#X floatatom 421 519 5 0 0 0 - - -;
#X obj 388 535 @two;
#X text 316 165 four-colour emboss;
#X obj 135 402 tgl 15 0 empty empty empty 0 -6 0 8 -241291 -1 -1 0
1;
#X obj 87 401 spigot;
#X obj 88 377 r metro;
#X obj 88 441 @! rand;
#X msg 87 421 240 320;
#X obj 313 494 demux 2;
#X text 153 400 rain;
#X text 558 3 bundled with GridFlow 0.7.7;
#X obj 240 100 @ >> 2;
#X text 378 36 Originally made for Alexandre Castonguay's "DIGITALE"
;
#X text 495 53 But suitable for a lot more uses :-);
#X msg 599 129 3 # 128;
#X obj 557 154 @color;
#X connect 0 0 20 0;
#X connect 0 1 12 0;
#X connect 1 0 45 0;
#X connect 2 0 14 0;
#X connect 3 0 29 0;
#X connect 4 0 11 0;
#X connect 4 1 13 0;
#X connect 5 0 16 0;
#X connect 5 0 7 0;
#X connect 7 0 10 0;
#X connect 7 1 66 0;
#X connect 8 0 22 0;
#X connect 9 0 45 0;
#X connect 10 0 12 1;
#X connect 11 0 21 0;
#X connect 12 0 20 0;
#X connect 14 0 5 0;
#X connect 15 0 18 0;
#X connect 16 0 6 0;
#X connect 17 0 15 0;
#X connect 18 0 0 0;
#X connect 19 0 9 0;
#X connect 19 1 27 0;
#X connect 20 0 21 0;
#X connect 21 0 15 1;
#X connect 21 0 25 0;
#X connect 22 0 15 0;
#X connect 22 0 28 0;
#X connect 23 0 69 0;
#X connect 24 0 19 0;
#X connect 24 1 51 0;
#X connect 25 0 23 0;
#X connect 25 1 24 0;
#X connect 26 0 2 0;
#X connect 27 0 1 0;
#X connect 29 0 4 0;
#X connect 33 0 19 1;
#X connect 35 0 24 1;
#X connect 39 0 25 1;
#X connect 41 0 43 0;
#X connect 43 0 10 1;
#X connect 43 0 14 1;
#X connect 44 0 72 0;
#X connect 45 0 26 0;
#X connect 46 0 45 1;
#X connect 47 0 46 0;
#X connect 48 0 46 0;
#X connect 49 0 48 1;
#X connect 50 0 48 0;
#X connect 51 0 19 0;
#X connect 54 0 46 0;
#X connect 55 0 56 0;
#X connect 56 0 57 0;
#X connect 56 0 58 0;
#X connect 57 0 59 0;
#X connect 58 0 59 1;
#X connect 59 0 12 2;
#X connect 61 0 62 1;
#X connect 61 0 0 1;
#X connect 61 0 66 1;
#X connect 62 0 65 0;
#X connect 63 0 62 0;
#X connect 64 0 12 1;
#X connect 65 0 64 0;
#X connect 66 0 0 1;
#X connect 69 0 24 0;
#X connect 72 0 73 0;
#X connect 73 0 45 1;
