#N canvas 250 270 538 348 10;
#X obj 200 146 @in;
#X obj 107 86 hsl 128 15 1 65536 1 0 empty empty empty -2 -6 0 8 -262144
-1 -1 5200 1;
#X obj 45 158 @store;
#X obj 45 24 tgl 15 0 empty empty empty 0 -6 0 8 -262144 -1 -1 0 1
;
#X text 223 141 (step 1);
#X obj 45 63 @for ( -128 -128 ) ( 128 128 ) ( 1 1 );
#X obj 44 132 @ + 128;
#X obj 46 84 @ *;
#X obj 46 178 @out window;
#X obj 45 43 metro 33.3667;
#X text 61 24 (step 2);
#X msg 203 125 open teapot.png \, bang;
#X obj 45 107 @ >> 4;
#X floatatom 104 112 8 0 0 0 - - -;
#X connect 0 0 2 1;
#X connect 1 0 7 1;
#X connect 1 0 13 0;
#X connect 2 0 8 0;
#X connect 3 0 9 0;
#X connect 5 0 7 0;
#X connect 6 0 2 0;
#X connect 7 0 12 0;
#X connect 9 0 5 0;
#X connect 11 0 0 0;
#X connect 12 0 6 0;
