#N canvas 594 0 632 684 10;
#X obj 86 180 #out window;
#X obj 65 45 bng 15 250 50 0 empty empty empty 0 -6 0 8 -24198 -1 -1
;
#X obj 86 45 tgl 15 0 empty empty empty 0 -6 0 8 -24198 -1 -1 0 1;
#X obj 86 199 fps detailed;
#X obj 86 218 print;
#X text 232 782 Returns a grid from the video capture device for every
bang.;
#X obj 14 782 doc_oo 0;
#X obj 14 431 doc_ii 0;
#X obj 14 282 doc_cc 0;
#X obj 232 659 doc_same 0;
#X text 232 681 same as the class of the camera object being used inside:
see #io.videodev-help.pd for a LONG list of options;
#X obj 0 0 doc_h;
#X obj 0 869 doc_f;
#X obj 3 252 doc_c 1;
#X obj 3 401 doc_i 1;
#X obj 97 282 doc_m c0 float/int;
#X obj 97 782 doc_m o0 grid;
#X obj 97 659 doc_m i0 device;
#X obj 86 62 metro 33.3333;
#X obj 97 431 doc_m i0 api;
#X obj 97 681 doc_m i0 <any>;
#X text 232 431 one of the following symbols:;
#X text 232 523 v4l2 : not supported yet;
#X text 232 545 libv4l2 : not supported yet;
#X text 232 369 -1 (or 8) : none (default);
#X text 232 282 starting with GridFlow 9.9 \, this is the device number
relative to the current. this is a number from 0 to 7 Although more
than 8 cameras might be supported by GridFlow \, only 8 cameras are
supported by [#camera]. if you ever use more than 8 cameras with GridFlow
and would like to use [#camera] \, write to me.;
#X obj 113 150 #scale_by;
#X obj 86 131 shunt;
#X obj 123 132 tgl 15 0 empty empty empty 17 7 0 10 -262144 -1 -1 0
1;
#X obj 232 716 doc_link #io.videodev;
#X obj 3 849 doc_also;
#X obj 185 147 #type-gui;
#X msg 97 88 get;
#X obj 185 128 route3 cast;
#X obj 3 752 doc_o 2;
#X obj 14 804 doc_oo 1;
#X obj 103 849 #in;
#X obj 277 849 doc_link #io.videodev;
#X obj 133 849 doc_link #io.quicktimecamera;
#X obj 379 849 doc_link #io.dc1394;
#X obj 97 804 doc_m o1 <any>;
#X text 232 804 as any of the #io camera interfaces will tell you.
(see the "See Also" section);
#X obj 8 166 display;
#X obj 86 111 #camera 0;
#X obj 7 147 #type \, abbr;
#X obj 185 229 display;
#X text 153 109 <-- (left or right click) Open this abstraction !!!
;
#X text 232 624 sorry : used to indicate that no api was successfully
found in autodétection (e.g. MS-Windows);
#X text 232 589 quicktime : QuickTime Sequence Grabber (OSX only) (OSX
default). See [#io.quicktimecamera];
#X text 232 567 dc1394 : linux interface to DC FireWire®. see [#io.dc1394]
;
#X text 232 453 v4l1 : linux video \, old style \, no wrapper (former
linux default). See [#io.videodev];
#X text 232 488 libv4l1 : linux video \, old style \, with wrapper
(new default). see [#io.videodev] too.;
#X connect 0 0 3 0;
#X connect 1 0 43 0;
#X connect 2 0 18 0;
#X connect 3 0 4 0;
#X connect 15 1 25 0;
#X connect 15 1 24 0;
#X connect 16 1 5 0;
#X connect 17 1 9 0;
#X connect 18 0 43 0;
#X connect 19 1 21 0;
#X connect 19 1 50 0;
#X connect 19 1 51 0;
#X connect 19 1 22 0;
#X connect 19 1 23 0;
#X connect 19 1 49 0;
#X connect 19 1 48 0;
#X connect 19 1 47 0;
#X connect 20 1 10 0;
#X connect 20 1 29 0;
#X connect 26 0 0 0;
#X connect 27 0 0 0;
#X connect 27 1 26 0;
#X connect 28 0 27 1;
#X connect 30 1 36 0;
#X connect 30 1 38 0;
#X connect 30 1 37 0;
#X connect 30 1 39 0;
#X connect 31 0 45 0;
#X connect 32 0 43 0;
#X connect 33 0 31 0;
#X connect 40 1 41 0;
#X connect 43 0 27 0;
#X connect 43 0 44 0;
#X connect 43 1 33 0;
#X connect 44 0 42 0;
