#N canvas 379 49 502 472 10;
#X obj 1 0 cnv 15 500 18 empty empty empty 20 12 0 14 -228992 -66577
0;
#X obj 2 0 #export;
#X text 397 2 GridFlow 0.8.4;
#X obj 0 352 cnv 15 500 17 empty empty empty 20 12 0 14 -228992 -66577
0;
#X obj 0 247 cnv 15 500 18 empty empty empty 20 12 0 14 -228992 -66577
0;
#X obj 0 270 cnv 15 60 18 empty empty empty 20 12 0 14 -228992 -66577
0;
#X text 214 354 Outlets (1);
#X obj 0 450 cnv 15 500 18 empty empty empty 20 12 0 14 -228992 -66577
0;
#X obj 0 373 cnv 15 60 18 empty empty empty 20 12 0 14 -228992 -66577
0;
#X text 1 271 Inlet 0;
#X text 1 374 Outlet 0;
#X text 214 247 Inlets (1);
#X obj 15 188 cnv 15 50 17 empty empty empty 20 12 0 14 -241291 -66577
0;
#X text 5 298 GRID;
#X obj 15 188 #export;
#X obj 15 100 #import ( 2 2 2 );
#X obj 51 133 display;
#X msg 15 73 1 2 3 4 5 6 7 8;
#X obj 15 216 print exported_ints;
#X text 4 401 INTEGER;
#X text 209 449 Arguments (0);
#X text 79 401 The grid is transformed into a sequence of integers.
;
#X text 59 298 Accepts a grid that will be transformed into its elements.
;
#X text 12 27 Produces sequences of elements from grid data. Useful
for the integration into the rest of PureData.;
#X text 138 73 <-- create the grid here;
#X connect 14 0 18 0;
#X connect 15 0 16 0;
#X connect 15 0 14 0;
#X connect 17 0 15 0;
