#N canvas 460 40 516 543 10;
#X obj 51 250 #export_pix;
#X obj 362 62 gemwin;
#X msg 362 43 create \, 1;
#X obj 362 24 loadbang;
#X obj 26 12 gemhead;
#N canvas 220 315 450 300 GOL 0;
#X text 48 122 this is the feedback loop;
#X obj 143 50 bng 15 250 50 0 empty empty empty 0 -6 0 8 -262144 -1
-1;
#X obj 161 49 for 0 10 1;
#X obj 262 87 loadbang;
#X obj 141 103 #store;
#X obj 161 68 bng 15 250 50 0 empty empty empty 0 -6 0 8 -262144 -1
-1;
#X obj 31 143 fork;
#X text 179 68 next;
#N canvas 0 0 450 210 game 0;
#X obj 28 64 inlet matrix;
#X obj 28 141 outlet matrix;
#X text 18 14 this part at the left defines the rule of the game (this
is my own rewriting of the rules. it is equivalent to the original
but faster to compute.);
#X obj 28 83 # << (b # 1);
#X obj 28 103 #convolve (3 3 b # 0 0 0 0 1) \, op >> \, seed (b # -5)
;
#X obj 28 122 # < (b # 3);
#X connect 0 0 3 0;
#X connect 3 0 4 0;
#X connect 4 0 5 0;
#X connect 5 0 1 0;
#X restore 31 102 pd game of life;
#X text 260 60 init with a random map;
#X obj 5 329 cnv 15 780 30 empty empty empty 20 12 0 14 -200249 -66577
0;
#X text 13 336 GridFlow 0.8.0;
#X text 13 336 GridFlow 0.8.0;
#X obj 7 5 cnv 15 780 30 empty empty empty 20 12 0 14 -233017 -66577
0;
#X text 20 5 game_of_life.pd;
#X text 20 18 Copyright 2001 Mathieu Bouchard;
#X obj 262 165 # rand (b #);
#X obj 262 184 # == (b # 0);
#X obj 24 41 inlet metro;
#X obj 22 69 route bang reset;
#X obj 31 276 outlet RGB;
#X obj 31 181 #cast i;
#X obj 86 200 loadbang;
#X obj 31 219 #fade;
#X obj 31 238 #clip;
#X obj 31 257 #apply_colormap_channelwise;
#X obj 207 239 bng 15 250 50 0 empty empty empty 0 -6 0 8 -262144 -1
-1;
#X obj 31 200 # << 10;
#X obj 224 238 #for 0 256 1;
#X obj 224 257 #outer gamma (3 # 333 555 999);
#X text 261 72 20% white dots;
#X msg 261 146 256 256 b # 5;
#X obj 31 162 #outer ignore (4 b #);
#X msg 86 219 8 3 1 1;
#X obj 279 117 t b b;
#X connect 1 0 2 0;
#X connect 2 0 5 0;
#X connect 3 0 34 0;
#X connect 4 0 8 0;
#X connect 5 0 4 0;
#X connect 6 0 32 0;
#X connect 6 1 4 1;
#X connect 8 0 6 0;
#X connect 16 0 17 0;
#X connect 17 0 6 0;
#X connect 18 0 19 0;
#X connect 19 0 4 0;
#X connect 19 1 31 0;
#X connect 21 0 27 0;
#X connect 22 0 33 0;
#X connect 23 0 24 0;
#X connect 24 0 25 0;
#X connect 25 0 20 0;
#X connect 26 0 28 0;
#X connect 27 0 23 0;
#X connect 28 0 29 0;
#X connect 29 0 25 1;
#X connect 31 0 16 0;
#X connect 32 0 21 0;
#X connect 33 0 23 1;
#X connect 34 0 31 0;
#X connect 34 1 28 0;
#X restore 293 219 pd GOL;
#X obj 276 182 tgl 15 0 empty empty empty 0 -6 0 8 -24198 -1 -1 1 1
;
#X msg 298 200 reset;
#X obj 32 145 loadbang;
#X obj 293 347 #export_list;
#X obj 293 309 #cast f;
#X obj 293 328 # / (f # 255);
#X obj 26 453 rotateXYZ;
#X obj 35 430 #unpack 3;
#X obj 35 373 # +;
#X obj 60 373 t a;
#X obj 35 392 #cast f;
#X obj 35 411 # / (f # 100);
#X msg 35 354 100 70 50;
#X obj 293 181 metro 50;
#X obj 26 472 cube 1.5;
#X obj 26 185 pix_set 256 256;
#X obj 293 413 #cast i;
#X obj 293 394 # * (f # 255);
#X obj 293 432 #out;
#X floatatom 111 31 5 0 0 0 - - -;
#X obj 79 12 bang;
#X obj 111 12 fps \, period 5;
#X obj 293 259 shunt 2;
#X obj 166 112 tgl 15 0 empty empty empty 0 -6 0 8 -24198 -1 -1 1 1
;
#X obj 26 93 shunt 2;
#X obj 26 250 t a;
#X obj 26 309 pix_texture;
#X obj 299 239 #out;
#X obj 60 231 bng 15 250 50 0 empty empty empty 0 -6 0 8 -262144 -1
-1;
#X obj 36 332 tgl 15 0 empty empty empty 0 -6 0 8 -24198 -1 -1 0 1
;
#X obj 53 331 metro 50;
#X obj 79 231 shunt 2;
#X obj 293 375 #import (256 256 3) f;
#X msg 32 164 rgb;
#X obj 293 290 #inner (4 3 # 1 0 0 0);
#X obj 135 291 #import_pix;
#X obj 139 348 #out window;
#X connect 0 0 31 0;
#X connect 2 0 1 0;
#X connect 3 0 2 0;
#X connect 4 0 26 0;
#X connect 4 0 30 0;
#X connect 5 0 37 0;
#X connect 5 0 28 0;
#X connect 6 0 19 0;
#X connect 7 0 5 0;
#X connect 8 0 39 0;
#X connect 10 0 11 0;
#X connect 11 0 9 0;
#X connect 12 0 20 0;
#X connect 13 0 12 1;
#X connect 13 1 12 2;
#X connect 13 2 12 3;
#X connect 14 0 15 0;
#X connect 14 0 16 0;
#X connect 15 0 14 1;
#X connect 16 0 17 0;
#X connect 17 0 13 0;
#X connect 18 0 14 0;
#X connect 19 0 5 0;
#X connect 21 0 31 0;
#X connect 22 0 24 0;
#X connect 23 0 22 0;
#X connect 26 0 27 0;
#X connect 27 0 25 0;
#X connect 28 0 40 0;
#X connect 29 0 28 1;
#X connect 29 0 30 1;
#X connect 29 0 37 1;
#X connect 30 0 21 0;
#X connect 30 1 0 0;
#X connect 31 0 32 0;
#X connect 31 0 41 0;
#X connect 32 0 12 0;
#X connect 34 0 0 0;
#X connect 35 0 36 0;
#X connect 36 0 18 0;
#X connect 37 1 0 1;
#X connect 38 0 23 0;
#X connect 39 0 21 0;
#X connect 40 0 10 0;
#X connect 41 1 42 0;
