#N canvas 535 0 632 698 10;
#X obj 0 0 doc_h;
#X obj 0 804 doc_f;
#X obj 30 49 tgl 15 0 empty empty empty 17 7 0 10 -262144 -1 -1 0 1
;
#X obj 30 223 #in~ \, \, \,;
#X obj 56 304 dac~;
#X obj 390 69 s pd;
#X obj 390 31 loadbang;
#X msg 390 50 dsp 1;
#X msg 69 147 colorspace yuv;
#X obj 64 361 # *>>8 240;
#X obj 30 380 #solarize;
#X obj 30 478 fps;
#X floatatom 30 497 5 0 0 0 - - -;
#X obj 30 342 # +;
#X obj 30 323 # >> 4;
#X obj 64 342 #scan avg \, seed (3 #);
#X msg 42 191 open quicktime /home/matju/youtube/Les_Pierrafeu_2.avi
\, with_audio;
#X obj 11 222 bng 15 250 50 0 empty empty empty 17 7 0 10 -262144 -1
-1;
#X obj 42 172 loadbang;
#X obj 30 66 metro 33.3333;
#X obj 30 108 f;
#X msg 45 85 0;
#X obj 55 108 + 1;
#X obj 171 70 bng 15 250 50 0 empty empty empty 17 7 0 10 -262144 -1
-1;
#X obj 30 127 * 0.8;
#X obj 56 285 +~;
#X obj 72 244 delread~ foo 5;
#X text 67 127 *HACK*;
#X obj 30 418 shunt;
#X obj 67 419 tgl 15 0 empty empty empty 17 7 0 10 -262144 -1 -1 0
1;
#X obj 57 438 #scale_by 2;
#X obj 30 459 #out window;
#X obj 30 399 t a;
#X obj 478 44 bng 120 250 50 0 empty empty BANG 17 7 0 36 -262144 -1
-1;
#X obj 72 263 *~ 0.9;
#X floatatom 115 266 5 0 0 0 - - -;
#X floatatom 173 240 5 0 0 0 - - -;
#X obj 475 289 #cast f;
#X obj 475 308 # / (f # 127);
#X obj 475 172 bng 15 250 50 0 empty empty empty 17 7 0 10 -262144
-1 -1;
#X obj 475 327 #outer ** (2 f # 2 1);
#X obj 475 189 #for 0 128 1;
#X obj 475 227 #t;
#X obj 475 208 # ^;
#X floatatom 500 209 5 0 0 0 - - -;
#X obj 475 251 #outer |;
#X obj 475 271 #redim (16384);
#X obj 3 784 doc_also;
#X obj 14 556 doc_cc 0;
#X obj 3 524 doc_c 0..1;
#X obj 97 556 doc_m c0 symbol;
#X text 232 556 filename. same as for [#in].;
#X obj 3 588 doc_i 1;
#X obj 14 620 doc_ii 0;
#X obj 97 620 doc_m i0 <any>;
#X text 232 620 same as for [#in].;
#X obj 97 684 doc_m o0;
#X obj 14 684 doc_oo 0;
#X obj 3 652 doc_o 4;
#X obj 14 708 doc_oo 1;
#X obj 14 732 doc_oo 2;
#X obj 14 754 doc_oo 3;
#X obj 97 708 doc_m o1;
#X obj 80 285 delwrite~ foo 500;
#X connect 2 0 19 0;
#X connect 3 0 14 0;
#X connect 3 2 25 0;
#X connect 6 0 7 0;
#X connect 7 0 5 0;
#X connect 8 0 3 0;
#X connect 9 0 13 1;
#X connect 10 0 32 0;
#X connect 11 0 12 0;
#X connect 13 0 10 0;
#X connect 13 0 15 0;
#X connect 14 0 13 0;
#X connect 15 0 9 0;
#X connect 16 0 3 0;
#X connect 17 0 3 0;
#X connect 18 0 16 0;
#X connect 19 0 20 0;
#X connect 20 0 22 0;
#X connect 20 0 24 0;
#X connect 21 0 20 1;
#X connect 22 0 20 1;
#X connect 23 0 21 0;
#X connect 23 0 16 0;
#X connect 24 0 3 0;
#X connect 25 0 4 0;
#X connect 25 0 63 0;
#X connect 26 0 34 0;
#X connect 28 0 31 0;
#X connect 28 1 30 0;
#X connect 29 0 28 1;
#X connect 30 0 31 0;
#X connect 31 0 11 0;
#X connect 32 0 28 0;
#X connect 34 0 25 1;
#X connect 35 0 34 1;
#X connect 36 0 26 0;
#X connect 37 0 38 0;
#X connect 38 0 40 0;
#X connect 39 0 41 0;
#X connect 41 0 43 0;
#X connect 42 0 45 0;
#X connect 42 1 45 1;
#X connect 43 0 42 0;
#X connect 44 0 43 1;
#X connect 45 0 46 0;
#X connect 46 0 37 0;
#X connect 50 1 51 0;
#X connect 54 1 55 0;
