#N canvas 456 191 632 386 10;
#X obj 0 0 doc_h;
#X obj 3 332 doc_also;
#X obj 0 352 doc_f;
#X obj 103 332 is;
#X obj 3 146 doc_c 1;
#X obj 14 176 doc_cc 0;
#X obj 9 51 #for (0 0) (2 3);
#X obj 9 33 bng 15 250 50 0 empty empty empty 17 7 0 10 -262144 -1
-1;
#X obj 9 71 #is (2 3 2 # 0 0 0 1 0 2 1 0 1 1 1 2);
#X obj 9 91 display;
#X obj 249 51 #for (0 0) (2 3);
#X obj 249 33 bng 15 250 50 0 empty empty empty 17 7 0 10 -262144 -1
-1;
#X obj 249 91 display;
#X text 280 91 shouldn't be reached;
#X obj 249 71 #is (2 3 2 # 1 1 1 2 1 3 2 1 2 2 2 3);
#X obj 3 208 doc_i 1;
#X obj 14 238 doc_ii 0;
#X obj 97 176 doc_m c0 grid;
#X text 232 176 just like [is] but with grid type;
#X text 232 238 just like [is] but with grid type;
#X obj 97 238 doc_m i0 grid;
#X text 477 71 error;
#X obj 3 270 doc_o 1;
#X obj 14 300 doc_oo 0;
#X obj 97 300 doc_m o0 bang;
#X text 232 300 just like [is];
#X connect 1 1 3 0;
#X connect 6 0 8 0;
#X connect 7 0 6 0;
#X connect 8 0 9 0;
#X connect 10 0 14 0;
#X connect 11 0 10 0;
#X connect 14 0 12 0;
#X connect 17 1 18 0;
#X connect 20 1 19 0;
#X connect 24 1 25 0;
