#N canvas 536 0 632 642 10;
#X obj 47 40 tgl 15 0 empty empty empty 0 -6 0 8 -24198 -1 -1 0 1;
#X obj 47 288 fps detailed;
#X obj 47 57 metro 33.3667;
#X obj 47 76 #camera;
#X obj 96 132 vradio 15 1 0 2 empty empty empty 0 -6 0 8 -241291 -1
-1 0;
#X text 115 132 motion;
#X text 116 146 presence;
#X floatatom 223 237 7 0 0 0 - - -;
#X obj 47 269 #out window;
#X obj 209 168 tgl 15 0 empty empty empty 0 -6 0 8 -241291 -1 -1 0
1;
#X obj 74 105 hsl 128 15 0 127 0 0 empty empty empty -2 -6 0 8 -260818
-1 -1 0 1;
#X text 208 104 reduce the noise in the image;
#X obj 156 237 nbx 5 14 -1e+37 1e+37 0 0 empty empty y -10 4 0 10 -24198
-1 -1 0 256;
#X obj 85 237 nbx 5 14 -1e+37 1e+37 0 0 empty empty x -10 4 0 10 -24198
-1 -1 0 256;
#X obj 47 183 #motion_detection;
#X text 279 236 total amount of change;
#X obj 177 142 tgl 15 0 empty empty empty 0 -6 0 8 -241291 -1 -1 0
1;
#X text 195 142 fade;
#X text 227 168 crosshair;
#X obj 0 0 doc_h;
#X obj 0 698 doc_f;
#X obj 3 378 doc_i 5;
#X obj 3 338 doc_c 0;
#X obj 3 550 doc_o 4;
#X obj 14 580 doc_oo 0;
#X obj 14 602 doc_oo 1;
#X obj 14 624 doc_oo 2;
#X obj 14 646 doc_oo 3;
#X obj 14 408 doc_ii 0;
#X obj 14 430 doc_ii 1;
#X obj 14 452 doc_ii 2;
#X obj 14 496 doc_ii 3;
#X obj 14 518 doc_ii 4;
#X obj 97 646 doc_m o3 float;
#X obj 97 624 doc_m o2 float;
#X obj 97 602 doc_m o1 float;
#X text 232 602 x;
#X text 232 624 y;
#X text 232 646 amount of change;
#X obj 97 580 doc_m o0 grid;
#X text 232 580 image;
#X text 232 518 crosshair;
#X text 232 496 fade;
#X text 232 452 0: motion;
#X text 232 474 1: presence;
#X text 232 430 noise reduction;
#X text 232 408 camera input;
#X obj 3 678 doc_also;
#X obj 97 408 doc_m i0 grid;
#X obj 97 430 doc_m i1 float;
#X obj 97 452 doc_m i2 float;
#X obj 97 496 doc_m i3 float;
#X obj 97 518 doc_m i4 float;
#X obj 47 307 display;
#X connect 0 0 2 0;
#X connect 1 0 53 0;
#X connect 2 0 3 0;
#X connect 3 0 14 0;
#X connect 4 0 14 2;
#X connect 8 0 1 0;
#X connect 9 0 14 4;
#X connect 10 0 14 1;
#X connect 14 0 8 0;
#X connect 14 1 13 0;
#X connect 14 2 12 0;
#X connect 14 3 7 0;
#X connect 16 0 14 3;
#X connect 33 1 38 0;
#X connect 34 1 37 0;
#X connect 35 1 36 0;
#X connect 39 1 40 0;
#X connect 48 1 46 0;
#X connect 49 1 45 0;
#X connect 50 1 43 0;
#X connect 50 1 44 0;
#X connect 51 1 42 0;
#X connect 52 1 41 0;
