#N canvas 678 0 568 717 10;
#X msg 263 68 4 2 # 1 1 1 5 5 5 5 1;
#X text 413 68 should give 3 3;
#X obj 239 222 display;
#X obj 214 253 #outer + (-4 4);
#X obj 214 272 #transpose;
#X obj 37 74 metro 42;
#X obj 37 57 tgl 15 0 empty empty empty 0 -6 0 8 -262144 -1 -1 0 1
;
#X msg 37 93 240 320 3 #;
#X obj 37 266 #out window;
#X obj 37 132 #draw_polygon + (255 0 0);
#X obj 37 229 #draw_rect + (255 255 0);
#X obj 378 220 display;
#X obj 377 178 #polygon_moment 2;
#X obj 238 183 #polygon_moment;
#X obj 263 87 # * (10 20);
#X obj 263 106 #rotate;
#X floatatom 316 108 5 0 0 0 - - -;
#X obj 0 0 doc_h;
#X obj 3 373 doc_i 2;
#X obj 3 310 doc_c 1;
#X obj 3 505 doc_o 1;
#X obj 14 535 doc_oo 0;
#X obj 14 403 doc_ii 0;
#X obj 14 423 doc_ii 1;
#X obj 14 340 doc_cc 0;
#X obj 97 340 doc_m c0 float;
#X text 197 332 1: first-order moment (average);
#X text 197 348 2: second-order moment (standard-deviation);
#X obj 97 535 doc_m o0 grid;
#X obj 97 403 doc_m i0 grid;
#X obj 97 423 doc_m i1 grid;
#X text 197 420 centre to subtract from the input;
#X text 196 435 in the case of an average \, you'd leave this unused
;
#X text 198 453 but in the case of a standard-deviation \, you'd put
the average in here \, unless you want a nonstandard deviation.;
#X text 197 529 polygon. size (N 2);
#X text 200 398 polygon. size (N 2);
#X obj 0 565 doc_f;
#X connect 0 0 14 0;
#X connect 3 0 4 0;
#X connect 4 0 10 2;
#X connect 5 0 7 0;
#X connect 6 0 5 0;
#X connect 7 0 9 0;
#X connect 9 0 10 0;
#X connect 10 0 8 0;
#X connect 12 0 11 0;
#X connect 13 0 2 0;
#X connect 13 0 3 0;
#X connect 14 0 15 0;
#X connect 15 0 9 2;
#X connect 15 0 13 0;
#X connect 15 0 12 0;
#X connect 16 0 15 1;
#X connect 25 1 26 0;
#X connect 25 1 27 0;
#X connect 28 1 34 0;
#X connect 29 1 35 0;
#X connect 30 1 31 0;
#X connect 30 1 32 0;
#X connect 30 1 33 0;
