#N canvas 677 0 568 514 10;
#X obj 125 63 route end;
#X obj 126 162 display;
#X obj 125 106 #seq_fold;
#X obj 154 130 # +;
#X msg 125 43 2 1 \, 3 2 \, 5 3 \, 7 4 \, end;
#X msg 206 82 0 0;
#X obj 206 63 loadbang;
#X obj 92 193 #print AAA;
#X obj 0 0 doc_h;
#X obj 3 225 doc_c;
#X obj 3 265 doc_i 4;
#X obj 14 415 doc_oo 0;
#X obj 14 435 doc_oo 1;
#X obj 14 455 doc_oo 2;
#X obj 3 385 doc_o 3;
#X obj 14 295 doc_ii 0;
#X obj 14 315 doc_ii 1;
#X obj 14 335 doc_ii 2;
#X obj 14 355 doc_ii 3;
#X obj 0 485 doc_f;
#X obj 97 295 doc_m i0 bang;
#X obj 97 315 doc_m i1 grid;
#X obj 97 335 doc_m i2 grid;
#X obj 97 355 doc_m i3 grid;
#X obj 97 415 doc_m o0 grid;
#X obj 97 435 doc_m o1 grid;
#X obj 97 455 doc_m o2 grid;
#X connect 0 0 2 0;
#X connect 0 1 2 1;
#X connect 2 0 1 0;
#X connect 2 0 7 0;
#X connect 2 1 3 0;
#X connect 2 2 3 1;
#X connect 3 0 2 3;
#X connect 4 0 0 0;
#X connect 5 0 2 2;
#X connect 6 0 5 0;
