#N canvas 206 135 568 519 10;
#X obj 38 190 display;
#X text 36 213 should print subgrid: 3 5 8 13 21;
#X msg 37 145 0 1 1 2 3 5 8 13 21 34 55 89;
#X obj 37 170 #slice 4 9;
#X obj 256 109 #slice (1 1) (3 3);
#X obj 257 130 display;
#X obj 256 90 #redim (4 4);
#X obj 256 71 #for 0 16 1;
#X obj 256 54 bng 15 250 50 0 empty empty empty 0 -6 0 8 -262144 -1
-1;
#X text 259 177 should print subgrid: 2 2 # 5 6 9 10;
#X obj 0 0 doc_h;
#X obj 3 244 doc_c 2;
#X obj 3 327 doc_i 3;
#X obj 3 430 doc_o 1;
#X obj 14 460 doc_oo 0;
#X obj 14 377 doc_ii 1;
#X obj 14 357 doc_ii 0;
#X obj 14 399 doc_ii 2;
#X obj 14 274 doc_cc 0;
#X obj 14 294 doc_cc 1;
#X obj 0 490 doc_f;
#X obj 97 274 doc_m c0 grid;
#X obj 97 294 doc_m c1 grid;
#X obj 97 357 doc_m i0 grid;
#X obj 97 377 doc_m i1 grid;
#X obj 97 399 doc_m i2 grid;
#X obj 97 460 doc_m o0 grid;
#X connect 2 0 3 0;
#X connect 3 0 0 0;
#X connect 4 0 5 0;
#X connect 6 0 4 0;
#X connect 7 0 6 0;
#X connect 8 0 7 0;
