#N canvas 316 150 632 480 10;
#X obj 0 0 doc_h;
#X obj 0 446 doc_f;
#X obj 101 91 #swap;
#X text 273 55 grid equivalent of [swap];
#X obj 3 258 doc_i 2;
#X obj 3 342 doc_o 2;
#X obj 14 288 doc_ii 0;
#X obj 14 310 doc_ii 1;
#X obj 14 372 doc_oo 0;
#X obj 14 394 doc_oo 1;
#X obj 97 288 doc_m i0 grid;
#X obj 97 310 doc_m i1 grid;
#X obj 97 372 doc_m o0 grid;
#X obj 97 394 doc_m o1 grid;
#X obj 3 426 doc_also;
#X obj 103 426 swap;
#X obj 14 226 doc_cc 0;
#X obj 3 196 doc_c 0..1;
#X obj 232 310 doc_same 0;
#X obj 97 226 doc_m c0 grid;
#X msg 138 61 3 3 # 1 2 3;
#X msg 101 41 4 4 # 1 2 3 4;
#X obj 101 121 display;
#X obj 174 108 display;
#X text 232 226 initial right-hand grid;
#X connect 2 0 22 0;
#X connect 2 1 23 0;
#X connect 11 1 18 0;
#X connect 14 1 15 0;
#X connect 19 1 24 0;
#X connect 20 0 2 1;
#X connect 21 0 2 0;
