#N canvas 442 58 632 617 10;
#X obj 0 0 doc_h;
#X obj 3 320 doc_c 0;
#X obj 3 360 doc_i 3;
#X obj 3 501 doc_o 1;
#X obj 14 390 doc_ii 0;
#X obj 14 434 doc_ii 1;
#X obj 14 469 doc_ii 2;
#X obj 14 531 doc_oo 0;
#X obj 97 531 doc_m o0 grid;
#X obj 97 469 doc_m i2 grid;
#X obj 97 434 doc_m i1 grid;
#X text 232 434 2 by 3 matrix representing the colours to use (e.g.
(2 3 # 0 170 0 255 255 0) means yellow on green);
#X obj 0 583 doc_f;
#X obj 3 563 doc_also;
#X obj 30 177 #text_to_image;
#X obj 131 89 bng 15 250 50 0 empty empty empty 17 7 0 10 -4034 -1
-1;
#X obj 30 197 #draw_image put;
#X obj 131 130 #import (4 64);
#X obj 131 110 #for 0 256;
#X msg 30 110 symbol patate;
#X obj 30 130 #import;
#X obj 131 157 loadbang;
#X obj 131 177 #in lucida-typewriter-12.grid;
#X obj 30 227 #see;
#X text 243 41 Takes a grid containing ascii values \, extracts portions
of a GridFlow font file corresponding to each character and outputs
an image suitable for #draw_image.;
#X obj 97 390 doc_m i0 grid;
#X text 232 469 font grid;
#X obj 103 563 #import;
#X obj 157 563 #draw_image;
#X text 232 390 grid containing the ascii values to be printed.;
#X text 232 412 A grid of 2 dimensions will be considered as multiple
lines.;
#X connect 9 1 26 0;
#X connect 10 1 11 0;
#X connect 13 1 27 0;
#X connect 13 1 28 0;
#X connect 14 0 16 0;
#X connect 15 0 18 0;
#X connect 16 0 23 0;
#X connect 17 0 14 0;
#X connect 18 0 17 0;
#X connect 19 0 20 0;
#X connect 20 0 14 0;
#X connect 21 0 22 0;
#X connect 22 0 14 2;
#X connect 25 1 29 0;
#X connect 25 1 30 0;
