#N canvas 245 108 834 542 10;
#X obj 572 257 #unpack 3;
#X floatatom 562 305 5 0 0 0 - - -;
#X obj 465 190 t a a;
#X obj 382 301 display;
#X floatatom 601 305 5 0 0 0 - - -;
#X floatatom 640 305 5 0 0 0 - - -;
#X text 1 51 [#unpack];
#X obj 579 352 #pack 3;
#X text 0 122 It takes an integer as an argument to specify the number
of Dimensions the incoming grid has.;
#X obj 465 76 #color;
#X obj 565 411 #color;
#X text 1 84 Accepts grids in its inlet and produces integers via its
outlet.;
#X text 10 349 [#pack];
#X text 10 382 Accepts integers in its inlets and produces a corresponding
grid via its outlet.;
#X text 9 421 It takes an integer as an argument to specify the number
of incoming integers and the corresponding number of Dimensions the
outgoing grid will have.;
#X obj 532 332 - 127;
#X obj 18 190 trigger bang bang;
#X obj 215 178 metro 100;
#X obj 138 345 display;
#X obj 223 272 print blah;
#X obj 194 316 print blah2;
#X obj 171 155 tgl 15 0 empty empty empty 0 -6 0 8 -262144 -1 -1 0
1;
#X text 534 23 GridFlow 0.8.0;
#X connect 0 0 1 0;
#X connect 0 1 4 0;
#X connect 0 2 5 0;
#X connect 1 0 15 0;
#X connect 2 0 3 0;
#X connect 2 1 0 0;
#X connect 4 0 7 1;
#X connect 5 0 7 2;
#X connect 7 0 10 0;
#X connect 9 0 2 0;
#X connect 15 0 7 0;
#X connect 17 0 18 0;
#X connect 17 0 19 0;
#X connect 17 0 20 0;
#X connect 21 0 17 0;
