#N canvas 335 118 568 393 10;
#X obj 0 0 doc_h;
#X obj 0 364 doc_f;
#X obj 149 56 tgl 15 0 empty empty click_me 17 7 0 10 -4034 -1 -1 0
1;
#X obj 47 55 #window alakazou;
#X obj 14 140 doc_cc 0;
#X obj 3 110 doc_c 0..1;
#X obj 97 140 doc_m c0 symbol;
#X text 200 140 window title;
#X obj 3 172 doc_i 2;
#X obj 3 304 doc_o 0;
#X obj 14 202 doc_ii 0;
#X obj 14 272 doc_ii 1;
#X obj 97 237 doc_m i0 state;
#X text 200 272 same as 'state';
#X obj 97 202 doc_m i0 grid;
#X obj 97 272 doc_m i1 bool;
#X obj 3 344 doc_also;
#X obj 107 345 #out;
#X text 200 202 as with #out window when state=1 \; else ignored when
state=0;
#X text 200 237 1 to open the window \; 0 to close it.;
#X connect 2 0 3 1;
#X connect 6 1 7 0;
#X connect 12 1 19 0;
#X connect 14 1 18 0;
#X connect 15 1 13 0;
#X connect 16 1 17 0;
