#N canvas 677 0 568 474 10;
#X obj 21 109 @complex_sq;
#X text 136 65 this object computes the square of complex numbers.
if seeing imaginary as Y and real as X \, then this operation squares
the distance of a point from origin and doubles the angle between it
and the +X half-axis clockwise. :);
#X floatatom 21 58 5 0 0 0 - - -;
#X floatatom 21 188 5 0 0 0 - - -;
#X floatatom 64 58 5 0 0 0 - - -;
#X floatatom 58 188 5 0 0 0 - - -;
#X obj 21 78 #pack;
#X text 178 138 However \, this (old) object is backwards from the
rest of GridFlow because it puts Imaginary before Real. [#fft] puts
the Real part first.;
#X obj 114 185 #print;
#X obj 21 159 #unpack;
#X obj 102 425 # +;
#X obj 135 425 # abs-;
#X obj 3 425 doc_also;
#X obj 186 425 # C.sq-;
#X obj 3 261 doc_c 0;
#X obj 3 301 doc_i 1;
#X obj 3 363 doc_o 1;
#X obj 0 0 doc_h;
#X obj 14 393 doc_oo 0;
#X obj 14 331 doc_ii 0;
#X obj 97 331 doc_m i0 grid;
#X obj 97 393 doc_m o0 grid;
#X text 200 331 grid of size (... \, 2);
#X text 200 393 grid of same size;
#X text 178 200 used on an indexmap (#remap_image) \, this makes each
thing appear twice \, each appearance spanning half of the original
angle. straight lines become hyperbolic \, etc.;
#X obj 0 445 doc_f;
#X connect 0 0 8 0;
#X connect 0 0 9 0;
#X connect 2 0 6 0;
#X connect 4 0 6 1;
#X connect 6 0 0 0;
#X connect 9 0 3 0;
#X connect 9 1 5 0;
#X connect 12 1 10 1;
#X connect 12 1 11 0;
#X connect 12 1 13 0;
#X connect 20 1 22 0;
#X connect 21 1 23 0;
