#N canvas 409 226 632 449 10;
#X obj 0 0 doc_h;
#X obj 0 415 doc_f;
#X obj 3 315 doc_i 0;
#X obj 3 355 doc_o 0;
#X obj 3 227 doc_c 1;
#X obj 14 257 doc_cc 0;
#X obj 97 257 doc_m c0 symbol;
#X text 232 257 namespace prefix (can't be figured out automatically
for now). must include trailing slash. hopefully this is a temporary
measure.;
#X text 126 30 an auto-positioning documentation header.;
#X text 126 52 autocreates [doc_c] [doc_i] [doc_o] [doc_f] if not already
present.;
#X text 126 82 blue square on the right of [doc_h] is the rollup button
\, which is a toggle that brings all doc items upwards as much as they
are allowed to go.;
#X text 126 160 [doc_h] contains a clock for driving the layout updates
of the complete patch.;
#X text 126 193 [doc_h] enforces a patch window width and height.;
#X obj 3 395 doc_also;
#X text 125 127 a bang to [s justscreenshot] will make a screenshot
of the patch. requires x11 and png.;
#X obj 103 395 doc_link doc_c;
#X obj 163 395 doc_link doc_i;
#X obj 223 395 doc_link doc_o;
#X obj 283 395 doc_link doc_also;
#X obj 361 395 doc_link doc_f;
#X connect 6 1 7 0;
#X connect 13 1 15 0;
#X connect 13 1 16 0;
#X connect 13 1 17 0;
#X connect 13 1 18 0;
#X connect 13 1 19 0;
