#N canvas 543 148 632 403 10;
#X obj 0 0 doc_h;
#X obj 0 369 doc_f;
#X obj 93 51 doc_make;
#X obj 3 186 doc_i 2;
#X obj 3 309 doc_o 0;
#X obj 14 218 doc_ii 0;
#X obj 14 277 doc_ii 1;
#X obj 14 117 doc_cc 0;
#X obj 97 117 doc_m c0 symbol id;
#X obj 97 218 doc_m i0 bang;
#X obj 97 277 doc_m i1 float;
#X text 232 218 generate subsections;
#X obj 3 85 doc_c 2;
#X obj 14 154 doc_cc 1;
#X obj 97 154 doc_m c1 float;
#X text 232 154 how many subsections;
#X text 232 277 starting position of new subsections;
#X text 169 51 reserved for use by [doc_c] \, [doc_i] and [doc_o];
#X obj 3 349 doc_also;
#X text 232 117 single letter : c for creation args \, i for inlets
\, or o for outlets.;
#X obj 103 349 doc_add;
#X text 232 240 since GF-9.10 \, this only includes subsections that
don't already exist.;
#X obj 157 349 doc_exist;
#X connect 8 1 19 0;
#X connect 9 1 11 0;
#X connect 9 1 21 0;
#X connect 10 1 16 0;
#X connect 14 1 15 0;
#X connect 18 1 20 0;
#X connect 18 1 22 0;
