#N canvas -13 0 579 498 10;
#N canvas 0 0 450 300 image 0;
#X obj 15 113 # << 2;
#X obj 15 162 @! abs;
#X obj 15 9 inlet;
#X obj 18 80 # -;
#X obj 70 174 # + 128;
#X obj 15 245 outlet;
#X obj 15 204 # min 255;
#X obj 15 224 # max 0;
#X obj 70 155 # << 2;
#X obj 15 35 t a a;
#X obj 15 134 shunt 2;
#X obj 70 133 inlet render;
#X obj 155 54 inlet type;
#X obj 15 54 shunt 2;
#X connect 0 0 10 0;
#X connect 1 0 6 0;
#X connect 2 0 9 0;
#X connect 3 0 0 0;
#X connect 4 0 6 0;
#X connect 6 0 7 0;
#X connect 7 0 5 0;
#X connect 8 0 4 0;
#X connect 9 0 13 0;
#X connect 9 1 3 0;
#X connect 10 0 1 0;
#X connect 10 1 8 0;
#X connect 11 0 10 1;
#X connect 12 0 13 1;
#X connect 13 0 3 1;
#X restore 104 117 pd image detection;
#X obj 104 47 metro 40;
#X obj 104 71 #camera;
#X obj 104 24 tgl 15 0 empty empty empty 0 -6 0 8 -24198 -1 -1 0 1
;
#X obj 140 95 #out window \, title original;
#X obj 104 430 #out window \, title motion_detect;
#X obj 104 140 #rgb_to_greyscale;
#X obj 104 410 #greyscale_to_rgb;
#X msg 50 194 help;
#X obj 116 186 hsl 128 15 0 1 0 1 empty empty Threshold -2 -6 0 8 -262144
-1 -1 4800 1;
#X obj 104 242 lti.Thresholding 1;
#X msg 50 214 get;
#X msg 113 208 lowThreshold \$1;
#X msg 250 209 keepInRegion \$1;
#X obj 250 186 tgl 15 1 empty empty empty 0 -6 0 8 -262144 -1 -1 0
1;
#X text 271 185 <--- Gives binary image when not selected;
#X obj 104 308 lti.BlobEMTracker;
#X obj 162 330 display;
#X floatatom 117 268 5 0 0 0 - - -;
#X msg 117 285 minSize \$1;
#X obj 76 72 bng 15 250 50 0 empty empty empty 0 -6 0 8 -262144 -1
-1;
#X obj 104 450 fps detailed;
#X obj 104 471 print fps;
#X connect 0 0 6 0;
#X connect 1 0 2 0;
#X connect 2 0 4 0;
#X connect 2 0 0 0;
#X connect 3 0 1 0;
#X connect 5 0 21 0;
#X connect 6 0 10 0;
#X connect 7 0 5 0;
#X connect 8 0 10 0;
#X connect 9 0 12 0;
#X connect 10 0 16 0;
#X connect 11 0 10 0;
#X connect 12 0 10 0;
#X connect 13 0 10 0;
#X connect 14 0 13 0;
#X connect 16 0 7 0;
#X connect 16 1 17 0;
#X connect 18 0 19 0;
#X connect 19 0 16 0;
#X connect 20 0 2 0;
#X connect 21 0 22 0;
