#N canvas 174 90 634 417 10;
#X msg 45 82 load babbage.jpg;
#X obj 45 103 #in;
#X msg 163 148 help;
#X obj 173 83 tgl 15 0 empty empty empty 0 -6 0 8 -24198 -1 -1 0 1
;
#X obj 212 134 #out window \, title Original;
#X obj 198 103 #camera;
#X obj 198 260 fps detailed;
#X obj 199 282 display;
#X obj 198 82 metro 10;
#X msg 163 168 get;
#X msg 213 188 numberOfColors \$1;
#X obj 198 213 lti.KMColorQuantization 3;
#X obj 198 236 #out window \, title Quantized;
#X obj 213 167 nbx 5 14 2 256 0 1 empty empty numberOfColors 0 -6 0
10 -262144 -1 -1 4 256;
#X obj -11 -10 cnv 15 1100 30 empty empty empty 20 12 0 14 -233017
-355 0;
#X obj -11 24 cnv 15 1100 15 empty empty empty 20 12 0 14 -228992 -66577
0;
#X text 3 -6 GridFlow::Rblti;
#X text 1 23 lti.KMColorQuantization;
#X obj -12 357 cnv 15 1100 30 empty empty empty 20 12 0 14 -233017
-66577 0;
#X text 3 365 GridFlow 0.8.4;
#X connect 0 0 1 0;
#X connect 1 0 11 0;
#X connect 1 0 4 0;
#X connect 2 0 11 0;
#X connect 3 0 8 0;
#X connect 5 0 4 0;
#X connect 5 0 11 0;
#X connect 6 0 7 0;
#X connect 8 0 5 0;
#X connect 9 0 11 0;
#X connect 10 0 11 0;
#X connect 11 0 12 0;
#X connect 12 0 6 0;
#X connect 13 0 10 0;
