#N canvas 687 0 504 509 10;
#X obj 1 253 cnv 15 500 17 empty empty empty 20 12 0 14 -228992 -66577
0;
#X text 10 198 LIST;
#X obj 1 148 cnv 15 500 18 empty empty empty 20 12 0 14 -228992 -66577
0;
#X obj 1 171 cnv 15 60 18 empty empty empty 20 12 0 14 -228992 -66577
0;
#X text 215 255 Outlets (1);
#X obj 2 333 cnv 15 500 18 empty empty empty 20 12 0 14 -228992 -66577
0;
#X obj 1 274 cnv 15 60 18 empty empty empty 20 12 0 14 -228992 -66577
0;
#X text 398 -19 GridFlow 0.8.4;
#X text 2 172 Inlet 0;
#X text 2 275 Outlet 0;
#X obj 1 -20 cnv 15 500 18 empty empty empty 20 12 0 14 -228992 -66577
0;
#X obj 10 -20 listlength;
#X text 398 -18 GridFlow 0.8.4;
#X text 56 176;
#X text 36 56;
#X text 16 64;
#X text 33 56;
#X text 8 6 The [listlength] outputs the number of elements in the
incoming list.;
#X text 221 149 Inlets (1);
#X text 8 299 Integer;
#X text 64 300 Outputs the number of elements in the list.;
#X text 9 360 No argument;
#X text 58 198 The lenght of the list passed to the left inlet will
be returned in the outlet.;
#X text 211 334 Arguments (0);
#X text 9 360 No argument;
#X obj 3 391 cnv 15 500 18 empty empty empty 20 12 0 14 -228992 -66577
0;
#X text 219 392 See also;
#X obj 10 425 listappend;
#X obj 99 425 listelement;
#X obj 198 426 listfind;
#X obj 291 426 listflatten;
#X obj 11 452 listmake;
#X obj 99 451 listprepend;
#X obj 199 452 listreverse;
#X obj 292 452 listsublist;
#X floatatom 206 122 5 0 0 0 - - -;
#X obj 139 120 print;
#X msg 139 43 1 3 hello 8 13;
#X obj 139 82 cnv 15 73 17 empty empty empty 20 12 0 14 -241291 -66577
0;
#X obj 139 82 listlength;
#X msg 246 58 1 12 a b c d e f g h i j k l;
#X connect 37 0 39 0;
#X connect 39 0 35 0;
#X connect 39 0 36 0;
#X connect 40 0 39 0;
