#N canvas 607 68 450 277 10;
#X obj 24 25 inlet;
#X obj 24 101 # *;
#X obj 24 44 #t;
#X obj 24 120 #fold inv+;
#X obj 24 248 outlet;
#X obj 24 63 #convolve (2 2 # 0 0 0 1);
#X obj 177 94 #convolve (2 1 # 1 1);
#X obj 177 115 # >> 1;
#X obj 24 158 # *;
#X obj 24 139 #outer + (2 #);
#X obj 24 177 #fold + \, seed (2 #);
#X obj 24 210 # /;
#X obj 288 136 #polygon_area;
#X obj 24 229 # / 6;
#X connect 0 0 2 0;
#X connect 1 0 3 0;
#X connect 2 0 5 0;
#X connect 2 1 1 1;
#X connect 2 1 6 0;
#X connect 2 1 12 0;
#X connect 3 0 9 0;
#X connect 5 0 1 0;
#X connect 6 0 7 0;
#X connect 6 0 8 1;
#X connect 8 0 10 0;
#X connect 9 0 8 0;
#X connect 10 0 11 0;
#X connect 11 0 13 0;
#X connect 12 0 11 1;
#X connect 13 0 4 0;
