#N canvas 581 75 632 642 10;
#X obj 0 0 doc_h cv/;
#X obj 0 632 doc_f;
#X obj 3 268 doc_i 1;
#X obj 3 528 doc_o 2;
#X obj 14 298 doc_ii 0;
#X obj 14 558 doc_oo 0;
#X obj 14 580 doc_oo 1;
#X obj 97 580 doc_m o1;
#X obj 97 558 doc_m o0 grid;
#X obj 97 364 doc_m i0 center;
#X obj 97 342 doc_m i0 axes;
#X obj 97 320 doc_m i0 angle;
#X obj 97 474 doc_m i0 start_angle;
#X obj 97 408 doc_m i0 end_angle;
#X obj 97 386 doc_m i0 color;
#X obj 97 496 doc_m i0 thickness;
#X obj 97 430 doc_m i0 line_type;
#X obj 97 452 doc_m i0 shift;
#X text 232 580 attributes;
#X obj 3 612 doc_also;
#X obj 103 612 #draw_polygon;
#X obj 63 51 metro 100;
#X msg 63 70 240 320 3 # 255;
#X obj 63 34 tgl 15 0 empty empty empty 17 7 0 10 -204786 -1 -1 1 1
;
#X obj 63 205 #out window;
#X obj 3 228 doc_c 0;
#X obj 163 70 #pack;
#X obj 190 54 nbx 5 14 -1e+37 1e+37 0 0 empty empty empty 0 -8 0 8
-228856 -1 -1 117 256;
#X obj 163 38 nbx 5 14 -1e+37 1e+37 0 0 empty empty empty 0 -8 0 8
-228856 -1 -1 146 256;
#X obj 97 298 doc_m i0 grid;
#X obj 163 89 #to_list;
#X msg 163 108 center ( \$1 \$2 );
#X msg 77 102 get;
#X obj 402 205 print;
#X msg 163 145 end_angle \$1;
#X floatatom 163 129 5 0 0 0 - - -;
#X obj 63 173 cv/#Ellipse \, center (160 120) \, axes (100 100) \,
color (255 0 0) \, thickness 8 \, start_angle 0;
#X text 232 364 (x y);
#X text 232 342 two radiuses;
#X connect 7 1 18 0;
#X connect 9 1 37 0;
#X connect 10 1 38 0;
#X connect 19 1 20 0;
#X connect 21 0 22 0;
#X connect 22 0 36 0;
#X connect 23 0 21 0;
#X connect 26 0 30 0;
#X connect 27 0 26 1;
#X connect 28 0 26 0;
#X connect 30 0 31 0;
#X connect 31 0 36 0;
#X connect 32 0 36 0;
#X connect 34 0 36 0;
#X connect 35 0 34 0;
#X connect 36 0 24 0;
#X connect 36 1 33 0;
