#N canvas 0 0 632 424 10;
#X obj 0 0 doc_h gf/;
#X obj 0 390 doc_f;
#X obj 27 61 gf/canvas_filename 0;
#X obj 27 42 loadbang;
#X symbolatom 27 98 40 0 0 0 - - -;
#X obj 287 42 loadbang;
#X symbolatom 287 98 40 0 0 0 - - -;
#N canvas 0 0 450 161 (subpatch) 1;
#X obj 19 26 inlet;
#X obj 19 64 outlet;
#X obj 19 45 gf/canvas_filename 1;
#X obj 179 62 outlet;
#X obj 179 43 gf/canvas_filename 0;
#X connect 0 0 2 0;
#X connect 0 0 4 0;
#X connect 2 0 1 0;
#X connect 4 0 3 0;
#X restore 287 61 pd;
#X obj 3 184 doc_c 1;
#X obj 3 246 doc_i 1;
#X obj 3 308 doc_o 1;
#X obj 14 214 doc_cc 0;
#X obj 14 276 doc_ii 0;
#X obj 14 338 doc_oo 0;
#X obj 97 214 doc_m c0 float;
#X text 232 276 query;
#X obj 97 276 doc_m i0 bang;
#X text 232 338 filename (without foldernames);
#X text 232 214 canvas level;
#X obj 3 370 doc_also;
#X obj 103 370 gf/find_file;
#X obj 9 121 gf/find_file;
#X symbolatom 302 80 40 0 0 0 - - -;
#X obj 261 47 bng 15 250 50 0 empty empty empty 17 7 0 10 -262144 -1
-1;
#X text 286 114 shouldn't "(subpatch)" be replaced by the filename
?;
#X text 286 127 todo: make a decision about the correct behaviour.
;
#X obj 97 338 doc_m o0 symbol;
#X connect 2 0 4 0;
#X connect 3 0 2 0;
#X connect 5 0 7 0;
#X connect 7 0 6 0;
#X connect 7 1 22 0;
#X connect 14 1 18 0;
#X connect 16 1 15 0;
#X connect 19 1 20 0;
#X connect 26 1 17 0;
