#N canvas 653 59 499 339 10;
#N canvas 0 0 450 300 gop 1;
#X msg 135 67 2 2 # 1 2 3 4;
#X obj 135 86 # +;
#X obj 135 48 inlet;
#X obj 135 105 outlet;
#X obj 142 201 display;
#X msg 135 167 should be invisible;
#X obj 135 148 loadbang;
#X connect 0 0 1 0;
#X connect 1 0 3 0;
#X connect 2 0 0 0;
#X connect 5 0 4 0;
#X connect 6 0 5 0;
#X coords 0 -1 1 1 140 60 2 0 0;
#X restore 34 50 pd gop;
#X obj 34 33 bng 15 250 50 0 empty empty empty 17 7 0 10 -262144 -1
-1;
#X obj 54 29 metro 555;
#X obj 54 12 tgl 15 0 empty empty empty 17 7 0 10 -262144 -1 -1 0 1
;
#X connect 1 0 0 0;
#X connect 2 0 0 0;
#X connect 3 0 2 0;
