#N canvas 619 289 450 300 10;
#X msg 50 181 op ror;
#X obj 42 41 tgl 15 0 empty empty empty 0 -6 0 8 -262144 -1 -1 1 1
;
#X obj 57 41 tgl 15 0 empty empty empty 0 -6 0 8 -262144 -1 -1 1 1
;
#X obj 72 41 tgl 15 0 empty empty empty 0 -6 0 8 -262144 -1 -1 0 1
;
#X obj 87 41 tgl 15 0 empty empty empty 0 -6 0 8 -262144 -1 -1 1 1
;
#X obj 102 41 tgl 15 0 empty empty empty 0 -6 0 8 -262144 -1 -1 1 1
;
#X obj 117 41 tgl 15 0 empty empty empty 0 -6 0 8 -262144 -1 -1 0 1
;
#X obj 132 41 tgl 15 0 empty empty empty 0 -6 0 8 -262144 -1 -1 1 1
;
#X obj 147 41 tgl 15 0 empty empty empty 0 -6 0 8 -262144 -1 -1 0 1
;
#X obj 41 70 #pack 8 \, \, \, \, \, \, \, \, \, \,;
#X obj 52 14 loadbang;
#X obj 41 89 #inner (128 64 32 16 8 4 2 1);
#X msg 50 161 op rol;
#X obj 41 278 #print;
#X obj 52 116 display;
#X obj 19 253 display;
#X obj 192 202 #outer >> (7 6 5 4 3 2 1 0);
#X obj 192 222 # & 1;
#X obj 191 246 #unpack 8;
#X obj 273 276 tgl 15 0 empty empty empty 0 -6 0 8 -262144 -1 -1 1
1;
#X obj 258 276 tgl 15 0 empty empty empty 0 -6 0 8 -262144 -1 -1 0
1;
#X obj 243 276 tgl 15 0 empty empty empty 0 -6 0 8 -262144 -1 -1 1
1;
#X obj 228 276 tgl 15 0 empty empty empty 0 -6 0 8 -262144 -1 -1 1
1;
#X obj 213 276 tgl 15 0 empty empty empty 0 -6 0 8 -262144 -1 -1 0
1;
#X obj 198 276 tgl 15 0 empty empty empty 0 -6 0 8 -262144 -1 -1 1
1;
#X obj 183 276 tgl 15 0 empty empty empty 0 -6 0 8 -262144 -1 -1 1
1;
#X obj 168 276 tgl 15 0 empty empty empty 0 -6 0 8 -262144 -1 -1 0
1;
#X obj 41 137 #cast b;
#X obj 41 224 # rol;
#X obj 130 161 #cast b;
#X floatatom 130 145 5 0 0 0 - - -;
#X obj 192 183 #cast i;
#X obj 130 126 loadbang;
#X connect 0 0 28 0;
#X connect 1 0 9 0;
#X connect 2 0 9 1;
#X connect 3 0 9 2;
#X connect 4 0 9 3;
#X connect 5 0 9 4;
#X connect 6 0 9 5;
#X connect 7 0 9 6;
#X connect 8 0 9 7;
#X connect 9 0 11 0;
#X connect 10 0 2 0;
#X connect 10 0 1 0;
#X connect 10 0 4 0;
#X connect 10 0 7 0;
#X connect 11 0 14 0;
#X connect 11 0 27 0;
#X connect 12 0 28 0;
#X connect 16 0 17 0;
#X connect 17 0 18 0;
#X connect 18 0 26 0;
#X connect 18 1 25 0;
#X connect 18 2 24 0;
#X connect 18 3 23 0;
#X connect 18 4 22 0;
#X connect 18 5 21 0;
#X connect 18 6 20 0;
#X connect 18 7 19 0;
#X connect 27 0 28 0;
#X connect 28 0 13 0;
#X connect 28 0 15 0;
#X connect 28 0 31 0;
#X connect 29 0 28 1;
#X connect 30 0 29 0;
#X connect 31 0 16 0;
#X connect 32 0 30 0;
