#N canvas 434 178 450 300 10;
#X obj 90 35 #color;
#X obj 90 95 #rgb_to_yuv;
#X obj 90 114 #inner (3 3 # 1 0 0 0 0 1 0 1 0);
#X obj 90 133 #yuv_to_rgb;
#X obj 90 152 #reverse;
#X obj 90 171 #color;
#X connect 0 0 1 0;
#X connect 1 0 2 0;
#X connect 2 0 3 0;
#X connect 3 0 4 0;
#X connect 4 0 5 0;
