#N canvas 185 64 560 533 10;
#X obj 2 37 cnv 15 550 15 empty empty empty 20 12 0 14 -228992 -66577
0;
#X obj 2 2 cnv 15 550 30 empty empty empty 20 12 0 14 -233017 -66577
0;
#X obj 2 501 cnv 15 550 30 empty empty empty 20 12 0 14 -233017 -66577
0;
#X text 16 7 2 Introduction to Images;
#X text 14 36 2.3 Patch Example 3;
#X text 2 58 Altering a grid using numop with slider and metro. This
combination allows you to scroll through values and modify a grid in
real time.;
#X obj 19 338 cnv 15 38 17 empty empty empty 20 12 0 14 -241291 -66577
0;
#X obj 225 207 cnv 15 15 15 empty empty empty 20 12 0 14 -259603 -66577
0;
#X obj 280 294 cnv 15 15 15 empty empty empty 20 12 0 14 -259603 -66577
0;
#X text 314 306 the slider;
#X text 161 207 <-- step #1 : start the metro;
#X obj 223 122 cnv 15 15 15 empty empty empty 20 12 0 14 -259603 -66577
0;
#X obj 224 161 cnv 15 15 15 empty empty empty 20 12 0 14 -259603 -66577
0;
#X text 159 122 <-- step #2 : click here to load the image;
#X text 160 161 <-- step #3 : click here to view the image;
#X text 216 293 <-- step #4 : try altering the argument by using;
#X text 4 443 These examples use the [# *] numop. There are several
numeric operators \; they can be found in the numeric operator help
patch (right click on the [# *] and select help to view them).;
#X obj 21 252 #in;
#X obj 54 295 hsl 128 15 0 255 0 0 empty empty empty -2 -6 0 8 -260818
-1 -1 0 1;
#X obj 53 228 metro 33.3;
#X obj 53 206 tgl 15 0 empty empty empty 0 -6 0 8 -24198 -1 -1 0 1
;
#X floatatom 72 326 5 0 0 0 - - -;
#X obj 50 165 bng 15 250 50 0 empty empty empty 0 -6 0 8 -24198 -1
-1;
#X obj 21 398 #out window;
#X text 11 509 GridFlow 0.8.4;
#X msg 21 121 open scissors.jpg;
#X obj 21 338 # + 0;
#X connect 17 0 26 0;
#X connect 18 0 21 0;
#X connect 18 0 26 1;
#X connect 19 0 17 0;
#X connect 20 0 19 0;
#X connect 22 0 17 0;
#X connect 25 0 17 0;
#X connect 26 0 23 0;
