#N canvas 401 211 423 425 10;
#X text 135 193 posterize;
#X obj 74 170 tgl 15 0 empty empty empty 0 -6 0 8 -262144 -1 -1 0 1
;
#X obj 118 170 hsl 59 20 2 8 0 0 empty empty empty -2 -6 0 8 -262144
-1 -1 0 1;
#X obj 16 19 bng 15 250 50 0 empty empty empty 0 -6 0 8 -262144 -1
-1;
#X obj 62 344 @ ^;
#X obj 110 319 hsl 137 20 0 255 0 0 empty empty empty -2 -6 0 8 -262144
-1 -1 0 1;
#X obj 74 220 tgl 15 0 empty empty empty 0 -6 0 8 -262144 -1 -1 0 1
;
#X text 99 127 negative;
#X obj 16 84 @in;
#X text 121 344 munchies (XOR effect) in the colour domain;
#X obj 14 170 demux 2;
#X msg 41 63 open r001.jpg;
#X obj 14 321 demux 2;
#X text 132 280 color wrapping;
#X obj 63 244 @ %;
#X text 288 11 try various combinations of checkboxes and settings.
then click on the image loader to see the result.;
#X obj 16 46 fork;
#X obj 73 321 tgl 15 0 empty empty empty 0 -6 0 8 -262144 -1 -1 0 1
;
#X obj 62 147 @ inv+ 255;
#X obj 74 125 tgl 15 0 empty empty empty 0 -6 0 8 -262144 -1 -1 0 1
;
#X obj 196 39 metro 5;
#X obj 196 16 tgl 15 0 empty empty empty 0 -6 0 8 -262144 -1 -1 1 1
;
#X obj 64 287 @ /;
#X obj 62 195 @posterize;
#X obj 14 125 demux 2;
#X obj 14 406 @out window;
#X obj 63 266 @ * 255;
#X obj 141 248 hsl 137 20 0 255 0 0 empty empty empty -2 -6 0 8 -262144
-1 -1 13600 1;
#X obj 14 220 demux 2;
#X text 39 21 image loader;
#X connect 1 0 10 1;
#X connect 2 0 23 1;
#X connect 3 0 16 0;
#X connect 4 0 25 0;
#X connect 5 0 4 1;
#X connect 6 0 28 1;
#X connect 8 0 24 0;
#X connect 10 0 28 0;
#X connect 10 1 23 0;
#X connect 11 0 8 0;
#X connect 12 0 25 0;
#X connect 12 1 4 0;
#X connect 14 0 26 0;
#X connect 16 0 8 0;
#X connect 16 1 11 0;
#X connect 17 0 12 1;
#X connect 18 0 10 0;
#X connect 19 0 24 1;
#X connect 20 0 3 0;
#X connect 21 0 20 0;
#X connect 22 0 12 0;
#X connect 23 0 28 0;
#X connect 24 0 10 0;
#X connect 24 1 18 0;
#X connect 26 0 22 0;
#X connect 27 0 22 1;
#X connect 27 0 14 1;
#X connect 28 0 12 0;
#X connect 28 1 14 0;
