#N canvas 468 225 500 480 10;
#X obj 31 9 metro 5;
#X floatatom 242 249 5 0 0 0 - - -;;
#X obj 196 377 @ *;
#X msg 194 229 24;
#X obj 32 69 @ * ( 256 256 384 );
#X obj 212 343 @ /;
#X obj 11 283 @for ( 0 0 ) ( 240 320 ) ( 1 1 );
#X msg 105 11 open r001.jpg;
#X obj 21 480 @out window;
#X obj 31 176 fork ;
#X obj 111 166 @inner * + 0 ( 3 2 # 1 0 0 1 0 0 );
#X obj 11 227 @finished ;
#X obj 31 207 fork ;
#X obj 21 458 @ min 255;
#X obj 194 269 @two ;
#X obj 111 146 @dim ;
#X obj 31 32 @in ;
#X obj 31 95 @ >> 8;
#X obj 9 8 toggle ;
#X obj 21 436 @ >> 7;
#X obj 184 307 @for ( 0 0 ) ( 240 320 ) ( 1 1 );
#X obj 217 207 loadbang ;
#X obj 21 413 @ *;
#X msg 242 229 32;
#X floatatom 194 249 5 0 0 0 - - -;;
#X obj 8 32 bng 15 250 50 0 empty empty empty 0 -6 0 8 -262144 -1 -1;
#X obj 31 122 @scale_by 2;
#X obj 24 256 fork ;
#X obj 21 358 @ *;
#X obj 21 335 @ /;
#X obj 196 400 @store ;
#X obj 19 389 @store ;
#X connect 0 0 16 0;
#X connect 1 0 14 1;
#X connect 2 0 30 0;
#X connect 3 0 24 0;
#X connect 4 0 17 0;
#X connect 5 0 2 1;
#X connect 6 0 29 0;
#X connect 7 0 16 0;
#X connect 9 0 12 0;
#X connect 9 1 15 0;
#X connect 10 0 5 0;
#X connect 10 0 20 1;
#X connect 10 0 6 1;
#X connect 11 0 27 0;
#X connect 12 0 11 0;
#X connect 12 1 31 1;
#X connect 12 1 30 1;
#X connect 13 0 8 0;
#X connect 14 0 5 1;
#X connect 14 0 28 1;
#X connect 14 0 29 1;
#X connect 15 0 10 0;
#X connect 16 0 4 0;
#X connect 17 0 26 0;
#X connect 18 0 0 0;
#X connect 19 0 13 0;
#X connect 20 0 2 0;
#X connect 21 0 23 0;
#X connect 21 0 3 0;
#X connect 22 0 19 0;
#X connect 23 0 1 0;
#X connect 24 0 14 0;
#X connect 25 0 16 0;
#X connect 26 0 9 0;
#X connect 27 0 6 0;
#X connect 27 1 20 0;
#X connect 28 0 31 0;
#X connect 29 0 28 0;
#X connect 30 0 22 1;
#X connect 31 0 22 0;
