#N canvas 321 225 500 480 10;
#X obj 353 379 @ min 255;
#X obj 84 233 @ >> 3;
#X obj 25 262 loadbang;
#X obj 98 350 @draw_polygon +;
#X obj 184 22 bng 15 250 50 0 empty empty empty 0 -6 0 8 -262144 -1
-1;
#X obj 71 123 +;
#X msg 25 283 240 320 3 uint8 # 0;
#X obj 10 304 @store;
#X obj 353 357 @ max 0;
#X obj 362 224 * 5000;
#X obj 355 423 @ >> 5;
#X obj 63 20 tgl 15 0 empty empty empty 0 -6 0 8 -262144 -1 -1 1 1
;
#X obj 81 383 fork;
#X obj 23 67 fork;
#X obj 143 66 fork;
#X obj 103 123 % 36000;
#X msg 71 101 1;
#X obj 39 422 @out window;
#X obj 124 322 @cast uint8;
#X obj 355 401 @convolve * + 0 ( 1 3 # 4 23 );
#X obj 334 33 vsl 20 137 0 36000 0 0 empty empty empty -2 -6 0 8 -262144
-1 -1 0 1;
#N canvas 0 0 450 300 create 0;
#X msg 120 111 0 \$1;
#X obj 38 138 @outer + ( 0 9000 );
#X obj 38 160 @ +;
#X text 77 22 bang: activate generator;
#X obj 148 134 inlet;
#X obj 120 89 inlet;
#X obj 38 204 @ + ( 120 160 );
#X obj 38 32 inlet;
#X obj 38 182 @ cos* 116;
#X obj 40 230 outlet 0;
#X obj 38 116 @ * 14400;
#X obj 38 94 @for 0 5 1;
#X text 184 135 rotation angle;
#X text 156 89 tilt factor (default: 9000 \, for flatness);
#X connect 0 0 1 1;
#X connect 1 0 2 0;
#X connect 2 0 8 0;
#X connect 4 0 2 1;
#X connect 5 0 0 0;
#X connect 6 0 9 0;
#X connect 7 0 11 0;
#X connect 8 0 6 0;
#X connect 10 0 1 0;
#X connect 11 0 10 0;
#X restore 312 247 pd create star;
#X obj 39 443 fps detailed;
#X text 416 355 this part is not used for now;
#N canvas 0 0 450 300 color 0;
#X obj 18 141 outlet 0;
#X obj 18 95 @ sin* 128;
#X obj 18 117 @ + 128;
#X obj 18 37 @ * 1146;
#X obj 18 13 inlet;
#X obj 18 60 @outer + ( 0 12000 24000 );
#X text 139 52 each channel is a sine wave \; the three are offset
from each other 120 degrees. it is almost like turning around in the
color wheel except we don't support the HSV color model for now.;
#X connect 1 0 2 0;
#X connect 2 0 0 0;
#X connect 3 0 5 0;
#X connect 4 0 3 0;
#X connect 5 0 1 0;
#X restore 60 184 pd color generator;
#X obj 39 476 print;
#X obj 145 46 fork;
#X obj 86 21 metro 33.3667;
#X connect 0 0 19 0;
#X connect 1 0 18 0;
#X connect 2 0 6 0;
#X connect 3 0 12 0;
#X connect 4 0 26 0;
#X connect 5 0 15 0;
#X connect 6 0 7 1;
#X connect 7 0 3 0;
#X connect 8 0 0 0;
#X connect 9 0 21 2;
#X connect 11 0 27 0;
#X connect 12 0 7 1;
#X connect 12 1 17 0;
#X connect 13 0 7 0;
#X connect 14 0 21 0;
#X connect 14 1 16 0;
#X connect 15 0 5 1;
#X connect 15 0 24 0;
#X connect 15 0 9 0;
#X connect 16 0 5 0;
#X connect 17 0 22 0;
#X connect 18 0 3 1;
#X connect 19 0 10 0;
#X connect 20 0 21 1;
#X connect 21 0 3 2;
#X connect 22 0 25 0;
#X connect 24 0 1 0;
#X connect 26 0 13 0;
#X connect 26 1 14 0;
#X connect 27 0 26 0;
