#N canvas 0 0 613 451 10;
#X obj 172 20 args hello (world a 42) *;
#X obj 63 176 print args;
#X obj 38 115 inlet;
#X obj 38 134 t a;
#X obj 38 205 route temperature pression etc;
#X obj 319 74 display;
#X obj 245 110 display;
#X text 323 58 rest of arguments (*);
#X text 37 224 do whatever you want with those args;
#X obj 246 265 t a;
#X text 253 246 anything else coming from first inlet or named args
;
#X obj 172 145 display;
#X floatatom 38 263 5 0 0 0 - - -;
#X floatatom 97 263 5 0 0 0 - - -;
#X text 249 91 world: defaults to 42;
#X text 176 126 hello: mandatory argument;
#X obj 246 284 display;
#X text 34 70 mandatory left-inlet;
#X text 33 84 for using [args] with;
#X text 33 96 a comma;
#X obj 412 107 list length;
#X floatatom 412 126 5 0 0 0 - - -;
#X obj 409 157 listflatten;
#X obj 409 197 list length;
#X floatatom 409 216 5 0 0 0 - - -;
#X obj 415 177 display;
#X text 344 33 WARNING: nested lists can be troublesome !;
#X text 123 319 a nested list argument becomes a normal list when coming
out of an [args] outlet;
#X connect 0 0 11 0;
#X connect 0 1 6 0;
#X connect 0 2 5 0;
#X connect 0 2 20 0;
#X connect 0 2 22 0;
#X connect 2 0 3 0;
#X connect 3 0 4 0;
#X connect 3 0 1 0;
#X connect 4 0 12 0;
#X connect 4 1 13 0;
#X connect 4 3 9 0;
#X connect 9 0 16 0;
#X connect 20 0 21 0;
#X connect 22 0 23 0;
#X connect 22 0 25 0;
#X connect 23 0 24 0;
