#N canvas 119 122 762 396 10;
#X obj 19 100 @in;
#X obj 19 366 @out;
#X msg 44 345 open x11 here;
#X obj 44 324 loadbang;
#X msg 148 345 close;
#X obj 19 239 @apply_colormap_channelwise;
#X text 14 15 @apply_colormap_channelweb;
#X obj 203 190 @import ( 256 3 );
#X obj 203 168 random 255;
#X msg 203 128 768;
#X obj 203 148 until;
#X text 305 54 this object is usefull for colorcorrection. for each
pixel it takes it apart \, looks up each part seperatly in the colormap
and constructs a new pixel from that.;
#X text 305 108 colormap is a grid dim (2) (intensity channels);
#X text 679 13 gridflow;
#X obj 27 80 bng 15 250 50 0 empty empty empty 0 -6 0 8 -233017 -1
-1;
#X msg 19 58 open jpeg file planet.jpg;
#X connect 0 0 5 0;
#X connect 2 0 1 0;
#X connect 3 0 2 0;
#X connect 4 0 1 0;
#X connect 5 0 1 0;
#X connect 7 0 5 1;
#X connect 8 0 7 0;
#X connect 9 0 10 0;
#X connect 10 0 8 0;
#X connect 14 0 0 0;
#X connect 14 0 9 0;
#X connect 15 0 14 0;
#X connect 15 0 0 0;
