#N canvas 435 101 690 277 10;
#X text 14 15 @cast;
#X floatatom 19 179 5 0 0 0 - - -;
#X floatatom 19 70 5 0 0 0 - - -;
#X obj 19 95 @import ( 1 );
#X obj 19 151 @export_list;
#X obj 19 124 @cast uint8;
#X text 143 14 returns a grid of the same dimensions containing all
the same values after type conversion. note that while casting to a
smaller type \, overflowing values will be truncated.;
#X text 144 67 numbertypes are: int32 \, uint8;
#X text 626 13 gridflow;
#X connect 2 0 3 0;
#X connect 3 0 5 0;
#X connect 4 0 1 0;
#X connect 5 0 4 0;
