#N canvas 435 101 633 282 10;
#X text 14 15 @redim;
#X text 114 14 rearrange a grid's values according to new dimensions
;
#X obj 25 93 @in;
#X msg 25 56 open jpeg file 1.jpg;
#X obj 36 76 bng 15 250 50 0 empty empty empty 0 -6 0 8 -233017 -1
-1;
#X obj 25 132 @redim ( 120 120 3 );
#X obj 25 187 @out 120 120;
#X text 287 192 see also:;
#X obj 367 195 @ravel;
#X obj 418 195 @perspective;
#X text 551 13 gridflow;
#X connect 2 0 5 0;
#X connect 3 0 2 0;
#X connect 3 0 4 0;
#X connect 4 0 2 0;
#X connect 5 0 6 0;
