#N canvas 306 222 526 344 10;
#X obj 28 78 bng 15 250 50 0 empty empty empty 0 -6 0 8 -233017 -1
-1;
#X obj 18 233 @export;
#X obj 18 96 @in;
#X obj 18 264 print value;
#X obj 18 137 @fold + 0;
#X obj 18 160 @fold + 0;
#X obj 18 184 @fold + 0;
#X text 114 133 treats the grid as a grid of one- dimensional grids
such that the same operation (here addition) will be performed on all
its elements together with the base value. the results are combined
back. each @fold operation removes a dimension. syntax: @fold <two-input
operation> <starting value>;
#X text 14 15 @fold;
#X text 451 11 gridflow;
#X obj 85 313 @inner2;
#X text 14 309 see also:;
#X obj 141 313 @join;
#X obj 183 313 @perspective;
#X msg 18 57 open jpeg file 1.jpg;
#X connect 0 0 2 0;
#X connect 1 0 3 0;
#X connect 2 0 4 0;
#X connect 4 0 5 0;
#X connect 5 0 6 0;
#X connect 6 0 1 0;
#X connect 14 0 2 0;
#X connect 14 0 0 0;
