#N canvas 406 300 450 300 10;
#X obj 79 50 inlet;
#X obj 79 181 outlet;
#X obj 79 85 @ +;
#X obj 79 147 fork;
#X text 128 31 new = 7/8 of old input + 1/8 of new input;
#X obj 79 119 @ / \$1;
#X obj 159 108 @ *;
#X obj 231 128 - 1;
#X floatatom 232 152 5 0 0 0 - - -;
#X obj 231 106 float \$1;
#X obj 231 81 loadbang;
#X connect 0 0 2 0;
#X connect 2 0 5 0;
#X connect 3 0 1 0;
#X connect 3 1 6 0;
#X connect 5 0 3 0;
#X connect 6 0 2 1;
#X connect 7 0 8 0;
#X connect 7 0 6 1;
#X connect 9 0 7 0;
#X connect 10 0 9 0;
