#N canvas 36 214 849 457 10;
#X floatatom 407 168 5 0 0 0 - - -;
#X obj 375 128 r move;
#X obj 134 10 bng 15 250 50 0 empty empty empty 0 -6 0 8 -262144 -1
-1;
#X msg 135 45 240 320 3 # 0;
#X msg 468 313 300;
#X obj 405 298 # * 300;
#X obj 318 392 # cos*;
#X msg 467 275 1600;
#X msg 520 205 25;
#X obj 443 213 # * 1100;
#X obj 375 168 +;
#X msg 521 243 10;
#X msg 520 224 100;
#X obj 496 144 hsl 128 15 100 2600 0 0 empty empty empty -2 -6 0 8
-262144 -1 -1 0 1;
#X text 371 391 make circular orbit of variable radius;
#X floatatom 494 161 5 0 0 0 - - -;
#X msg 468 294 800;
#X text 301 281 frequency of the orbit;
#X text 494 128 increment;
#X msg 375 148 1;
#X obj 77 42 s move;
#X obj 318 350 #outer + ( 0 9000 );
#X msg 284 85 4 2 # -8 -8 -8 8 8 8 8 -8;
#X obj 445 234 # cos* 25;
#X obj 151 9 loadbang;
#X obj 9 5 tgl 15 0 empty empty empty 0 -6 0 8 -262144 -1 -1 0 1;
#X obj 91 244 #out window;
#X obj 284 106 # +;
#X obj 445 255 # + 50;
#X text 403 153 counter;
#X obj 32 25 bng 15 250 50 0 empty empty empty 0 -6 0 8 -262144 -1
-1;
#X obj 91 184 #draw_polygon + ( 10 0 0 );
#X obj 318 414 # + ( 120 160 );
#X obj 32 6 metro 33.3667;
#X obj 32 177 #store;
#X text 4 155 superimpose the light of many very dark red squares;
#X text 283 69 a 16x16 square's coordinates;
#X text 143 28 blank image to start with;
#X text 310 107 translate the square;
#X text 454 340 duplicate the angle \; make the 2nd 90 degrees apart
(required for a circle \; else it'll be an oval or a line);
#X text 553 203 make a wavy radius (50-100) \; the 1100 is its frequency
\; tune it for fun and profit.;
#X obj 32 42 t b b;
#X obj 91 224 #solarize;
#X obj 375 188 t a a a;
#X connect 0 0 10 1;
#X connect 1 0 19 0;
#X connect 2 0 3 0;
#X connect 3 0 34 1;
#X connect 4 0 5 1;
#X connect 5 0 21 0;
#X connect 6 0 32 0;
#X connect 7 0 5 1;
#X connect 8 0 23 1;
#X connect 9 0 23 0;
#X connect 10 0 0 0;
#X connect 10 0 43 0;
#X connect 11 0 23 1;
#X connect 12 0 23 1;
#X connect 13 0 15 0;
#X connect 15 0 9 1;
#X connect 16 0 5 1;
#X connect 19 0 10 0;
#X connect 21 0 6 0;
#X connect 22 0 27 0;
#X connect 23 0 28 0;
#X connect 24 0 2 0;
#X connect 25 0 33 0;
#X connect 27 0 31 2;
#X connect 28 0 6 1;
#X connect 30 0 41 0;
#X connect 31 0 34 1;
#X connect 31 0 42 0;
#X connect 32 0 27 1;
#X connect 33 0 30 0;
#X connect 34 0 31 0;
#X connect 41 0 34 0;
#X connect 41 1 20 0;
#X connect 42 0 26 0;
#X connect 43 0 22 0;
#X connect 43 1 5 0;
#X connect 43 2 9 0;
