#N canvas 189 252 737 524 10;
#X obj 35 88 @! rand;
#X obj 35 39 loadbang;
#X obj 10 201 @store;
#X obj 10 239 @convolve * + 0 ( 1 3 # 1 2 4 );
#X obj 85 349 tgl 15 0 empty empty empty 0 -6 0 8 -262144 -1 -1 0 1
;
#X obj 100 349 tgl 15 0 empty empty empty 0 -6 0 8 -262144 -1 -1 1
1;
#X obj 115 349 tgl 15 0 empty empty empty 0 -6 0 8 -262144 -1 -1 1
1;
#X obj 130 349 tgl 15 0 empty empty empty 0 -6 0 8 -262144 -1 -1 0
1;
#X obj 145 349 tgl 15 0 empty empty empty 0 -6 0 8 -262144 -1 -1 1
1;
#X obj 160 349 tgl 15 0 empty empty empty 0 -6 0 8 -262144 -1 -1 0
1;
#X obj 175 349 tgl 15 0 empty empty empty 0 -6 0 8 -262144 -1 -1 1
1;
#X obj 190 349 tgl 15 0 empty empty empty 0 -6 0 8 -262144 -1 -1 0
1;
#X obj 116 412 @fold +;
#X obj 116 465 nbx 5 14 -1e+37 1e+37 0 0 empty empty empty 0 -6 0 10
-262144 -1 -1 86 256;
#X obj 10 259 fork;
#X obj 10 279 @finished;
#X obj 10 339 @ &;
#X obj 10 359 @ != 0;
#X obj 10 24 bng 15 250 50 0 empty empty empty 0 -6 0 8 -262144 -1
-1;
#X msg 10 299 1 256 # 1;
#X obj 10 319 @ <<;
#X msg 35 69 1 256 # 2;
#X obj 8 3 tgl 15 0 empty empty empty 0 -6 0 8 -262144 -1 -1 0 1;
#X obj 410 164 loadbang;
#X obj 344 162 @store;
#X obj 408 102 @finished;
#X obj 344 142 @outer ignore ( 0 );
#X obj 344 182 @join 0;
#X obj 344 345 fps detailed;
#X obj 344 365 print;
#X obj 408 63 @import ( 1 256 );
#X msg 410 184 1 256 # 0;
#X text 123 449 characteristic number;
#X obj 459 17 nbx 5 14 -1e+37 1e+37 0 1 empty empty empty 0 -6 0 10
-262144 -1 -1 1 256;
#X msg 459 36 \$1 256;
#X msg 344 49 set \$1;
#X text 516 17 number of new lines per frame;
#X text 88 86 randomizer;
#X text 83 328 specify behaviour here;
#X text 17 221 compute new state;
#X text 353 201 make scrollie;
#X text 352 271 convert bit matrix to rgb image;
#X text 351 214 (window height = 128);
#X obj 116 392 @ << ( 0 1 2 3 4 5 6 7 );
#X obj 194 5 bng 15 250 50 0 empty empty empty 0 -6 0 8 -262144 -1
-1;
#X obj 194 23 @for 0 256 1;
#X obj 194 43 @ == 128;
#X obj 194 63 @redim ( 1 256 );
#X obj 532 97 vsl 15 128 0 255 0 0 empty empty empty 0 -8 0 8 -261689
-258699 -1 0 1;
#X obj 549 97 vsl 15 128 0 255 0 0 empty empty empty 0 -8 0 8 -225271
-24198 -1 0 1;
#X obj 566 97 vsl 15 128 0 255 0 0 empty empty empty 0 -8 0 8 -228992
-62784 -1 0 1;
#X obj 590 97 vsl 15 128 0 255 0 1 empty empty empty 0 -8 0 8 -261689
-258699 -1 12700 1;
#X obj 607 97 vsl 15 128 0 255 0 1 empty empty empty 0 -8 0 8 -225271
-24198 -1 12700 1;
#X obj 624 97 vsl 15 128 0 255 0 1 empty empty empty 0 -8 0 8 -228992
-62784 -1 12700 1;
#X obj 344 287 @outer ignore ( 0 );
#X obj 344 306 @store;
#X obj 390 306 @redim ( 2 3 );
#X text 527 78 colour selection;
#X obj 143 304 loadbang;
#X obj 344 325 @out window;
#X obj 532 234 @pack 6;
#X text 39 55 click here to restart;
#X obj 217 149 t a a;
#X obj 115 373 @pack 8;
#X obj 344 122 @for 1 128 1;
#X obj 27 3 metro 33.3667;
#X obj 408 82 t a a;
#X text 213 4 make single dot;
#X obj 116 432 @export;
#X connect 0 0 62 0;
#X connect 1 0 21 0;
#X connect 2 0 3 0;
#X connect 3 0 14 0;
#X connect 4 0 63 0;
#X connect 5 0 63 1;
#X connect 6 0 63 2;
#X connect 7 0 63 3;
#X connect 8 0 63 4;
#X connect 9 0 63 5;
#X connect 10 0 63 6;
#X connect 11 0 63 7;
#X connect 12 0 68 0;
#X connect 13 0 16 1;
#X connect 14 0 15 0;
#X connect 14 1 20 1;
#X connect 15 0 19 0;
#X connect 16 0 17 0;
#X connect 17 0 62 0;
#X connect 18 0 2 0;
#X connect 19 0 20 0;
#X connect 20 0 16 0;
#X connect 21 0 0 0;
#X connect 22 0 65 0;
#X connect 23 0 31 0;
#X connect 24 0 27 0;
#X connect 25 0 64 0;
#X connect 26 0 24 0;
#X connect 27 0 24 1;
#X connect 27 0 54 0;
#X connect 28 0 29 0;
#X connect 30 0 66 0;
#X connect 31 0 24 1;
#X connect 33 0 34 0;
#X connect 33 0 35 0;
#X connect 34 0 30 1;
#X connect 35 0 64 0;
#X connect 43 0 12 0;
#X connect 44 0 45 0;
#X connect 45 0 46 0;
#X connect 46 0 47 0;
#X connect 47 0 62 0;
#X connect 48 0 60 0;
#X connect 49 0 60 1;
#X connect 50 0 60 2;
#X connect 51 0 60 3;
#X connect 52 0 60 4;
#X connect 53 0 60 5;
#X connect 54 0 55 0;
#X connect 55 0 59 0;
#X connect 56 0 55 1;
#X connect 58 0 5 0;
#X connect 58 0 6 0;
#X connect 58 0 10 0;
#X connect 58 0 8 0;
#X connect 59 0 28 0;
#X connect 60 0 56 0;
#X connect 62 0 2 1;
#X connect 62 1 30 0;
#X connect 63 0 43 0;
#X connect 64 0 26 0;
#X connect 65 0 2 0;
#X connect 66 0 25 0;
#X connect 66 1 27 1;
#X connect 68 0 13 0;
