#N canvas 537 234 499 471 10;
#X obj 299 268 @! sq;
#X obj 206 493 print ;
#X obj 31 379 @ > 0;
#X obj 299 129 hsl 137 15 0 255 0 0 empty empty empty -2 -6 0 8 -262144 -1 -1 0 1;
#X msg 81 116 open teapot.png  \, bang;
#X text 104 318 strict vs fuzzy;
#X obj 92 384 @ + 128;
#X obj 136 194 loadbang ;
#X text 313 53 step 3: select a point in the color cube \, and a radius of accepted similarity.;
#X obj 31 340 demux 2;
#X text 211 186 enable red\
enable green\
enable blue;
#X obj 32 223 @! sq;
#X obj 299 143 hsl 137 15 0 255 0 0 empty empty empty -2 -6 0 8 -262144 -1 -1 0 1;
#X obj 196 214 toggle ;
#X obj 299 101 hsl 137 15 0 255 0 0 empty empty empty -2 -6 0 8 -262144 -1 -1 0 1;
#X obj 207 449 @out window;
#X obj 206 379 @outer ignore ( 3 # 0 );
#X obj 80 317 toggle ;
#X text 290 186 all three = select sphere in color cube\
pick two = select circle in a color square\
pick one = select range in one channel;
#X obj 32 244 @ *;
#X obj 148 229 @three ;
#X obj 207 400 @ *;
#X obj 92 362 @ tanh* 127;
#X text 439 100 red\
green\
blue\
similarity;
#X obj 32 172 @store ;
#X obj 207 471 fps detailed;
#X text 268 399 apply alpha channel;
#X obj 207 423 @ >> 8;
#X obj 196 199 toggle ;
#X obj 32 64 bng 15 250 50 0 empty empty empty 0 -6 0 8 -262144 -1 -1;
#X obj 32 20 toggle ;
#X obj 196 184 toggle ;
#X obj 243 153 @three ;
#X obj 80 92 bng 15 250 50 0 empty empty empty 0 -6 0 8 -262144 -1 -1;
#X obj 80 138 @in ;
#X obj 32 202 @ -;
#X obj 299 115 hsl 137 15 0 255 0 0 empty empty empty -2 -6 0 8 -262144 -1 -1 0 1;
#X obj 32 43 metro 2;
#X obj 31 295 @ inv+;
#X obj 31 401 @ << 8;
#X obj 32 268 @fold +;
#X text 56 22 step 2;
#X text 102 92 step 1;
#X connect 0 0 38 1;
#X connect 2 0 39 0;
#X connect 3 0 32 2;
#X connect 4 0 34 0;
#X connect 6 0 16 0;
#X connect 7 0 31 0;
#X connect 7 0 28 0;
#X connect 7 0 13 0;
#X connect 9 0 2 0;
#X connect 9 1 22 0;
#X connect 11 0 19 0;
#X connect 12 0 0 0;
#X connect 13 0 20 2;
#X connect 14 0 32 0;
#X connect 15 0 25 0;
#X connect 16 0 21 0;
#X connect 17 0 9 1;
#X connect 19 0 40 0;
#X connect 20 0 19 1;
#X connect 21 0 27 0;
#X connect 22 0 6 0;
#X connect 24 0 35 0;
#X connect 25 0 1 0;
#X connect 27 0 15 0;
#X connect 28 0 20 1;
#X connect 29 0 24 0;
#X connect 30 0 37 0;
#X connect 31 0 20 0;
#X connect 32 0 35 1;
#X connect 33 0 4 0;
#X connect 34 0 24 1;
#X connect 34 0 21 1;
#X connect 35 0 11 0;
#X connect 36 0 32 1;
#X connect 37 0 29 0;
#X connect 38 0 9 0;
#X connect 39 0 16 0;
#X connect 40 0 38 0;
