#N canvas 58 238 559 436 10;
#X text 360 75 sigma (extremes);
#X obj 134 412 #out window;
#X text 361 150 linear (contrast);
#X obj 29 51 #outer + ( 0 0 0 );
#X obj 134 343 shunt 2;
#N canvas 1 96 188 188 color 0;
#X obj 55 134 # inv+;
#X obj 55 90 # inv+ 255;
#X obj 127 89 inlet;
#X obj 55 177 outlet 0;
#X obj 55 43 bng 15 250 50 0 empty empty empty 0 -6 0 8 -262144 -1
-1;
#X obj 55 22 inlet;
#X obj 55 112 #outer <;
#X obj 55 155 # & 255;
#X obj 55 67 #for 0 256 1;
#X connect 0 0 7 0;
#X connect 1 0 6 0;
#X connect 2 0 6 1;
#X connect 4 0 8 0;
#X connect 5 0 4 0;
#X connect 6 0 0 0;
#X connect 7 0 3 0;
#X connect 8 0 1 0;
#X restore 184 365 pd color correction graph generator;
#X obj 19 274 #in;
#X text 360 223 constant (brightness);
#N canvas 604 262 237 400 color-correction 0;
#X obj 23 214 # + 128;
#X obj 23 194 # /;
#X obj 23 112 # *;
#X obj 23 291 # +;
#X obj 77 112 # max 32;
#X obj 23 317 # max 0;
#X obj 77 151 # tanh* 512;
#X obj 23 340 # min 255;
#X obj 23 64 # gamma;
#X obj 77 131 # << 5;
#X obj 23 93 # - 128;
#X obj 23 172 # tanh* 65535;
#X obj 23 132 # >> 2;
#X text 89 327 trim;
#X obj 95 242 inlet linear;
#X obj 114 264 inlet constant;
#X obj 23 243 # *>>8;
#X obj 77 93 inlet sigma;
#X obj 34 38 inlet gamma;
#X obj 23 12 inlet image;
#X obj 23 369 outlet image;
#X connect 0 0 16 0;
#X connect 1 0 0 0;
#X connect 2 0 12 0;
#X connect 3 0 5 0;
#X connect 4 0 2 1;
#X connect 4 0 9 0;
#X connect 5 0 7 0;
#X connect 6 0 1 1;
#X connect 7 0 20 0;
#X connect 8 0 10 0;
#X connect 9 0 6 0;
#X connect 10 0 2 0;
#X connect 11 0 1 0;
#X connect 12 0 11 0;
#X connect 14 0 16 1;
#X connect 15 0 3 1;
#X connect 16 0 3 0;
#X connect 17 0 4 0;
#X connect 18 0 8 1;
#X connect 19 0 8 0;
#X restore 176 253 pd color-correction;
#X obj 134 365 #store;
#X obj 10 12 tgl 15 0 empty empty empty 0 -6 0 8 -262144 -1 -1 1 1
;
#X obj 29 32 #for 0 256 1;
#X msg 19 253 open teapot.png \, bang;
#X obj 164 277 #finished;
#X obj 29 12 metro 33.3667;
#X obj 19 233 loadbang;
#X obj 256 31 vradio 15 1 0 3 empty empty empty 0 -6 0 8 -262144 -1
-1 0;
#X text 277 32 regular;
#X text 276 47 solarize;
#X text 277 61 solarize 2;
#X obj 29 70 shunt 3;
#X obj 29 142 t a;
#X obj 122 125 # sin* 255;
#X obj 123 106 # / 255;
#X obj 123 87 # * 18000;
#X obj 190 330 vradio 15 1 0 2 empty empty empty 0 -6 0 8 -262144 -1
-1 0;
#X text 209 330 see picture;
#X text 209 345 see graph;
#X obj 8 210 spigot;
#X obj 57 211 tgl 15 0 empty empty empty 0 -6 0 8 -262144 -1 -1 0 1
;
#X text 13 193 enable stream;
#X text 361 -1 gamma (midtones);
#X msg 254 122 3 # 256;
#X obj 253 102 loadbang;
#X msg 237 150 3 # 0;
#X obj 8 299 #camera;
#X obj 362 16 #color 0 1024 1;
#X obj 362 91 #color 0 1024 1;
#X obj 362 165 #color 0 1024 1;
#X obj 362 237 #color -256 256 1;
#X obj 51 93 #solarize;
#X obj 134 390 #apply_colormap_channelwise;
#X connect 3 0 20 0;
#X connect 4 0 9 0;
#X connect 4 1 5 0;
#X connect 5 0 1 0;
#X connect 6 0 9 1;
#X connect 8 0 13 0;
#X connect 8 0 5 1;
#X connect 8 0 41 1;
#X connect 9 0 41 0;
#X connect 10 0 14 0;
#X connect 11 0 3 0;
#X connect 12 0 6 0;
#X connect 13 0 4 0;
#X connect 14 0 11 0;
#X connect 14 0 28 0;
#X connect 15 0 12 0;
#X connect 16 0 20 1;
#X connect 20 0 21 0;
#X connect 20 1 40 0;
#X connect 20 2 24 0;
#X connect 21 0 8 0;
#X connect 22 0 21 0;
#X connect 23 0 22 0;
#X connect 24 0 23 0;
#X connect 25 0 4 1;
#X connect 28 0 35 0;
#X connect 29 0 28 1;
#X connect 32 0 36 0;
#X connect 32 0 37 0;
#X connect 32 0 38 0;
#X connect 33 0 32 0;
#X connect 33 0 34 0;
#X connect 34 0 39 0;
#X connect 35 0 9 1;
#X connect 36 0 8 1;
#X connect 37 0 8 2;
#X connect 38 0 8 3;
#X connect 39 0 8 4;
#X connect 40 0 21 0;
#X connect 41 0 1 0;
