#N canvas 307 248 1083 445 10;
#X msg 398 108 3 3 # 0 4 0 4 9 -4 0 -4 0;
#X obj 25 30 bng 15 250 50 0 empty empty empty 0 -6 0 8 -262144 -1
-1;
#X msg 402 54 3 3 # 4 0 0 0 1 0 0 0 4;
#X obj 36 121 #store;
#X obj 132 209 # / 9;
#X msg 397 28 3 3 # 1 1 1 1 1 1 1 1 1;
#X obj 92 122 #out window;
#X msg 415 159 1 3 # 0 9 -9;
#X obj 74 76 #in;
#X msg 403 81 3 3 # 2 2 2 2 -7 2 2 2 2;
#X obj 6 11 tgl 15 0 empty empty empty 0 -6 0 8 -262144 -1 -1 0 1;
#X obj 132 277 @! abs;
#X obj 132 343 # max 0;
#X text 311 7 step 1: select one of those six grids;
#X obj 132 322 # min 255;
#X obj 74 36 loadbang;
#X obj 25 9 metro 33.3667;
#X obj 74 98 t a;
#X obj 132 188 #convolve \, seed 4;
#X obj 312 27 loadbang;
#X text 9 140 feedback loop;
#X obj 132 235 shunt 2;
#X obj 187 237 tgl 15 0 empty empty empty 0 -6 0 8 -262144 -1 -1 0
1;
#X obj 179 277 @! abs;
#X msg 269 218 0;
#X obj 179 298 # + 128;
#X obj 179 256 # << 4;
#X msg 269 242 1;
#X msg 415 137 1 3 # 0 2 -2;
#X obj 307 306 display;
#X obj 64 224 fps;
#X obj 56 268 print;
#X msg 74 56 open /home/alx/Desktop/babbage.jpg \, bang;
#X connect 0 0 24 0;
#X connect 0 0 18 1;
#X connect 0 0 29 0;
#X connect 1 0 3 0;
#X connect 2 0 24 0;
#X connect 2 0 18 1;
#X connect 3 0 18 0;
#X connect 4 0 21 0;
#X connect 5 0 24 0;
#X connect 5 0 18 1;
#X connect 6 0 30 0;
#X connect 7 0 18 1;
#X connect 7 0 27 0;
#X connect 8 0 17 0;
#X connect 9 0 24 0;
#X connect 9 0 18 1;
#X connect 10 0 16 0;
#X connect 11 0 14 0;
#X connect 12 0 17 0;
#X connect 14 0 12 0;
#X connect 15 0 32 0;
#X connect 16 0 1 0;
#X connect 17 0 3 1;
#X connect 17 0 6 0;
#X connect 18 0 4 0;
#X connect 19 0 5 0;
#X connect 21 0 11 0;
#X connect 21 1 26 0;
#X connect 22 0 21 1;
#X connect 23 0 25 0;
#X connect 24 0 22 0;
#X connect 25 0 14 0;
#X connect 26 0 23 0;
#X connect 27 0 22 0;
#X connect 28 0 24 0;
#X connect 28 0 18 1;
#X connect 30 0 31 0;
#X connect 32 0 8 0;
