#N canvas 623 253 388 484 10;
#X floatatom 262 338 5 0 0 0 - - -;
#X obj 77 257 @ *;
#X msg 214 318 24;
#X obj 111 257 @ /;
#X obj 31 201 @for ( 0 0 ) ( 240 320 ) ( 1 1 );
#X msg 131 8 open r001.jpg;
#X obj 40 393 @out window;
#X obj 111 132 @inner * + 0 ( 3 2 # 1 0 0 1 0 0 );
#X obj 31 162 @finished;
#X obj 40 371 @ min 255;
#X obj 111 112 @dim;
#X obj 31 32 @in;
#X obj 9 8 tgl 15 0 empty empty empty 0 -6 0 8 -262144 -1 -1 0 1;
#X obj 40 349 @ >> 7;
#X obj 77 223 @for ( 0 0 ) ( 240 320 ) ( 1 1 );
#X obj 214 296 loadbang;
#X obj 40 326 @ *;
#X msg 262 318 32;
#X floatatom 214 338 5 0 0 0 - - -;
#X obj 8 32 bng 15 250 50 0 empty empty empty 0 -6 0 8 -262144 -1 -1
;
#X obj 31 249 @ *;
#X obj 31 226 @ /;
#X obj 77 280 @store;
#X obj 28 280 @store;
#X obj 57 35 @camera_control;
#X obj 31 9 metro 33.3667;
#X obj 31 88 @scale_by 2;
#X obj 214 358 @pack 2;
#X text 209 273 size of subimages;
#X obj 31 142 t a a a;
#X obj 31 181 t a a;
#X text 194 69 gain on colour blue;
#X obj 31 68 @ *>>8 ( 256 256 384 );
#X connect 0 0 27 1;
#X connect 1 0 22 0;
#X connect 2 0 18 0;
#X connect 3 0 1 1;
#X connect 4 0 21 0;
#X connect 5 0 11 0;
#X connect 7 0 3 0;
#X connect 7 0 14 1;
#X connect 7 0 4 1;
#X connect 8 0 30 0;
#X connect 9 0 6 0;
#X connect 10 0 7 0;
#X connect 11 0 32 0;
#X connect 11 1 24 0;
#X connect 12 0 25 0;
#X connect 13 0 9 0;
#X connect 14 0 1 0;
#X connect 15 0 17 0;
#X connect 15 0 2 0;
#X connect 16 0 13 0;
#X connect 17 0 0 0;
#X connect 18 0 27 0;
#X connect 19 0 11 0;
#X connect 20 0 23 0;
#X connect 21 0 20 0;
#X connect 22 0 16 1;
#X connect 23 0 16 0;
#X connect 24 0 11 0;
#X connect 25 0 11 0;
#X connect 26 0 29 0;
#X connect 27 0 3 1;
#X connect 27 0 20 1;
#X connect 27 0 21 1;
#X connect 29 0 8 0;
#X connect 29 1 10 0;
#X connect 29 1 23 1;
#X connect 29 1 22 1;
#X connect 30 0 4 0;
#X connect 30 1 14 0;
#X connect 32 0 26 0;
