#N canvas 141 204 524 472 10;
#N canvas 0 0 450 300 experimental 0;
#X obj 32 212 outlet 0;
#X obj 39 81 @for ( 0 0 ) ( 256 256 ) ( 1 1 );
#X obj 39 55 bng 15 250 50 0 empty empty empty 0 -6 0 8 -262144 -1
-1;
#X obj 207 64 bng 15 250 50 0 empty empty empty 0 -6 0 8 -262144 -1
-1;
#X obj 206 87 @for ( 0 0 ) ( 256 256 ) ( 1 1 );
#X obj 206 109 @ >> ( 4 6 );
#X obj 39 104 @ << ( 4 2 );
#X obj 198 140 @inner & ^ 1 ( 2 2 # 85 170 170 85 );
#X obj 39 126 @ +;
#X obj 39 33 inlet;
#X connect 1 0 6 0;
#X connect 2 0 1 0;
#X connect 3 0 4 0;
#X connect 4 0 5 0;
#X connect 5 0 8 1;
#X connect 6 0 8 0;
#X connect 8 0 0 0;
#X connect 9 0 2 0;
#X restore 97 205 pd experimental features;
#X text 104 38 Choose Julia Mapping or Rotation;
#X obj 183 248 tgl 15 0 empty empty empty 0 -6 0 8 -262144 -1 -1 0
1;
#X obj 234 363 fork 2;
#X obj 183 272 metro 5;
#X text 46 4 update transform;
#X obj 24 205 @store;
#X obj 24 10 bng 15 250 50 0 empty empty empty 0 -6 0 8 -262144 -1
-1;
#X obj 354 295 @in teapot.png;
#X text 279 340 apply transform (with feedback);
#X text 204 248 step 3;
#X obj 56 130 @complex_sq;
#X text 375 5 step 2: load picture \, etc;
#X text 59 39 step 1;
#X floatatom 64 363 5 0 0 0 - - -;
#X floatatom 61 405 5 0 0 0 - - -;
#X obj 369 432 @out window;
#X obj 264 407 @store;
#X msg 354 274 cast uint8 \, bang;
#X text 140 363 zoom;
#X obj 24 385 @ /;
#X obj 354 35 fork 2;
#X text 141 406 move x;
#X obj 105 343 loadbang;
#X msg 111 406 -45;
#X msg 111 363 128;
#X obj 245 302 for 0 16 1;
#X obj 369 455 fps detailed;
#X obj 354 10 bng 15 250 50 0 empty empty empty 0 -6 0 8 -262144 -1
-1;
#X obj 246 338 bng 15 250 50 0 empty empty empty 0 -6 0 8 -262144 -1
-1;
#X obj 264 386 @store;
#X obj 332 411 fork;
#X obj 71 151 @inner2 * + 0 ( 2 2 # 120 -30 30 120 );
#X obj 60 83 @for ( -128 -128 ) ( 128 128 ) ( 1 1 );
#X obj 48 427 @two;
#X obj 60 58 bng 15 250 50 0 empty empty empty 0 -6 0 8 -262144 -1
-1;
#X obj 23 473 @ -;
#X obj 245 278 bng 15 250 50 0 empty empty empty 0 -6 0 8 -262144 -1
-1;
#X obj 60 107 demux 2;
#X obj 83 58 tgl 15 0 empty empty empty 0 -6 0 8 -262144 -1 -1 0 1
;
#X floatatom 61 385 5 0 0 0 - - -;
#X text 141 385 move y;
#X obj 126 486 print;
#X obj 48 449 @ - 128;
#X msg 111 385 193;
#X connect 0 0 6 1;
#X connect 2 0 4 0;
#X connect 3 1 30 0;
#X connect 4 0 3 0;
#X connect 6 0 20 0;
#X connect 7 0 6 0;
#X connect 8 0 16 0;
#X connect 8 0 17 1;
#X connect 11 0 6 1;
#X connect 14 0 20 1;
#X connect 15 0 34 1;
#X connect 16 0 27 0;
#X connect 17 0 31 0;
#X connect 18 0 8 0;
#X connect 20 0 36 0;
#X connect 21 0 18 0;
#X connect 21 1 7 0;
#X connect 23 0 25 0;
#X connect 23 0 44 0;
#X connect 23 0 24 0;
#X connect 24 0 15 0;
#X connect 25 0 44 0;
#X connect 25 0 14 0;
#X connect 26 0 29 0;
#X connect 27 0 42 0;
#X connect 28 0 21 0;
#X connect 29 0 3 0;
#X connect 30 0 17 0;
#X connect 31 0 17 1;
#X connect 31 1 16 0;
#X connect 32 0 6 1;
#X connect 33 0 38 0;
#X connect 34 0 43 0;
#X connect 35 0 33 0;
#X connect 36 0 30 1;
#X connect 37 0 26 0;
#X connect 38 0 11 0;
#X connect 38 1 32 0;
#X connect 39 0 38 1;
#X connect 40 0 34 0;
#X connect 43 0 36 1;
#X connect 44 0 40 0;
