#N canvas 451 270 633 501 10;
#X obj 119 23 @in lada.jpg;
#X obj 82 464 @out window;
#X obj 7 5 tgl 15 0 empty empty empty 0 -6 0 8 -262144 -1 -1 0 1;
#X obj 82 120 @store;
#X obj 137 2 loadbang;
#X text 492 470 How to play a car;
#X obj 119 3 bng 15 250 50 0 empty empty empty 0 -6 0 8 -262144 -1
-1;
#X obj 405 474 dac~;
#X obj 317 44 +;
#X msg 317 23 1;
#X obj 345 44 % 365;
#N canvas 0 0 450 300 fft 0;
#X obj 23 68 rifft~;
#X obj 23 88 outlet~;
#X obj 359 16 block~ 1024;
#X obj 23 48 tabreceive~ array2;
#X connect 0 0 1 0;
#X connect 3 0 0 0;
#X restore 404 434 pd fft;
#X obj 27 153 for 0 1024 1;
#X obj 27 172 tabwrite array1;
#X obj 6 27 bng 15 250 50 0 empty empty empty 0 -6 0 8 -262144 -1 -1
;
#X obj 82 444 @draw_polygon put ( 3 # 255 0 0 );
#X obj 27 26 t b b;
#X msg 308 404 4 2 # 0 0 0 502 1 502 1 0;
#X obj 308 423 @ +;
#X obj 82 403 t a b;
#X msg 324 380 \$1 0;
#X obj 82 424 @greyscale_to_rgb;
#X obj 476 121 @store;
#X obj 475 200 @export_list;
#X obj 516 220 s array1;
#X obj 476 160 @cast float32;
#X obj 185 109 @ inv+ 255;
#X obj 114 63 @ min 255;
#X obj 114 44 @ * 3;
#X msg 476 99 1 1 # \$1;
#X obj 444 0 table array1 502;
#X obj 476 220 t b a;
#X obj 363 380 r row;
#X obj 345 66 s row;
#X obj 504 272 t f f;
#X obj 506 379 tabwrite array2;
#X obj 505 313 exp;
#X obj 151 224 @mouse \, ...;
#X obj 269 225 tgl 15 0 empty empty empty 0 -6 0 8 -262144 -1 -1 0
1;
#X obj 239 225 tgl 15 0 empty empty empty 0 -6 0 8 -262144 -1 -1 0
1;
#X obj 164 360 @draw_polygon put;
#X msg 271 245 1 # 255;
#X msg 222 247 1 # 0;
#X obj 145 299 spigot;
#X obj 277 271 t a a;
#X obj 289 360 @ +;
#X obj 145 125 t a;
#X msg 277 293 4 2 # 0 0 0 1 1 1 1 0;
#X obj 279 322 @ *;
#X obj 356 319 nbx 5 14 -1e+37 1e+37 0 1 empty empty empty 0 -6 0 10
-262131 -1 -1 20 256;
#X msg 205 166 365 502 1 # 255;
#X text 205 148 clear;
#X obj 506 360 tabread4 array1;
#X obj 503 252 for 0 64 1;
#X obj 476 140 @fade 5;
#X obj 443 21 table array2 1024;
#X obj 405 454 lop~ 1000;
#X obj 505 292 / 20;
#X obj 506 333 * 22;
#X obj 27 5 metro 46.44;
#X obj 356 336 nbx 5 14 -1e+37 1e+37 0 1 empty empty empty 0 -6 0 10
-262131 -1 -1 1 256;
#X obj 328 359 @pack 2;
#X obj 474 180 @ / ( float32 # 4000 );
#X obj 185 133 @convolve * + 0 ( 1 7 # 1 1 2 8 2 1 1 );
#X obj 514 75 @ >> 4;
#X obj 140 85 @convolve * + 0 ( 2 2 # 1 );
#X obj 140 104 @ / 4;
#X connect 0 0 28 0;
#X connect 1 0 37 0;
#X connect 2 0 59 0;
#X connect 3 0 19 0;
#X connect 3 0 43 0;
#X connect 4 0 0 0;
#X connect 6 0 0 0;
#X connect 8 0 10 0;
#X connect 9 0 8 0;
#X connect 10 0 8 1;
#X connect 10 0 33 0;
#X connect 10 0 29 0;
#X connect 11 0 56 0;
#X connect 12 0 13 0;
#X connect 14 0 16 0;
#X connect 15 0 1 0;
#X connect 16 0 9 0;
#X connect 16 1 3 0;
#X connect 17 0 18 0;
#X connect 18 0 15 2;
#X connect 19 0 21 0;
#X connect 19 1 17 0;
#X connect 20 0 18 1;
#X connect 21 0 15 0;
#X connect 22 0 54 0;
#X connect 23 0 31 0;
#X connect 25 0 62 0;
#X connect 26 0 63 0;
#X connect 27 0 65 0;
#X connect 28 0 27 0;
#X connect 29 0 22 0;
#X connect 31 0 53 0;
#X connect 31 1 24 0;
#X connect 32 0 20 0;
#X connect 34 0 57 0;
#X connect 34 1 35 1;
#X connect 36 0 58 0;
#X connect 37 0 44 0;
#X connect 37 1 44 0;
#X connect 37 4 39 0;
#X connect 37 4 43 1;
#X connect 37 6 38 0;
#X connect 37 6 43 1;
#X connect 38 0 41 0;
#X connect 39 0 42 0;
#X connect 40 0 46 0;
#X connect 41 0 40 1;
#X connect 42 0 40 1;
#X connect 43 0 40 0;
#X connect 44 0 47 0;
#X connect 44 1 45 1;
#X connect 45 0 40 2;
#X connect 46 0 3 1;
#X connect 46 0 26 0;
#X connect 47 0 48 0;
#X connect 48 0 45 0;
#X connect 49 0 61 0;
#X connect 50 0 46 0;
#X connect 52 0 35 0;
#X connect 53 0 34 0;
#X connect 54 0 25 0;
#X connect 56 0 7 0;
#X connect 56 0 7 1;
#X connect 57 0 36 0;
#X connect 58 0 52 0;
#X connect 59 0 16 0;
#X connect 60 0 61 1;
#X connect 61 0 48 1;
#X connect 62 0 23 0;
#X connect 63 0 64 0;
#X connect 64 0 22 1;
#X connect 65 0 66 0;
#X connect 66 0 46 0;
