#N canvas 49 21 753 588 10;
#X obj 431 416 demux 2;
#X obj 373 301 @greyscale_to_rgb;
#X obj 285 336 @ min 255;
#X obj 271 5 loadbang;
#X obj 211 25 fork;
#X obj 285 376 @out x11;
#X obj 185 422 print;
#N canvas 23 304 369 368 mouse 0;
#X text 109 189 coordinates;
#X obj 56 189 outlet;
#X obj 57 164 listsublist 0 2;
#X obj 8 141 demux 2;
#X text 56 9 @out's outlet 0;
#X obj 100 142 outlet;
#X obj 41 94 >> 8;
#X obj 41 115 != 0;
#X obj 16 31 route position;
#X text 154 143 is there a click?;
#X obj 19 8 inlet;
#X obj 16 55 fork;
#X obj 41 73 listelement 2;
#X connect 2 0 1 0;
#X connect 3 1 2 0;
#X connect 6 0 7 0;
#X connect 7 0 5 0;
#X connect 7 0 3 1;
#X connect 8 0 11 0;
#X connect 10 0 8 0;
#X connect 11 0 3 0;
#X connect 11 1 12 0;
#X connect 12 0 6 0;
#X restore 347 376 pd mouse click/drag;
#X obj 12 39 tgl 15 0 empty empty empty 0 -6 0 8 -262144 -1 -1 0 1
;
#N canvas 769 372 391 252 lighting 0;
#X obj 137 12 r size;
#X obj 176 57 @convolve & inv+ 0 ( 1 3 # 0 -1 -1 );
#X obj 24 266 outlet;
#X obj 27 180 @ +;
#X obj 97 39 fork;
#X obj 26 62 @finished;
#X text 290 88 produce magenta from horizontal differences;
#X obj 169 190 @convolve & inv+ 0 ( 3 1 # 0 -1 -1 );
#X obj 176 81 @outer & ( -1 0 -1 );
#X text 288 216 produce green from vertical differences;
#X obj 25 149 @ + 128;
#X obj 26 118 @store;
#X obj 169 212 @outer & ( 0 -1 0 );
#X obj 17 9 inlet;
#X obj 73 12 @redim ( );
#X connect 0 0 14 1;
#X connect 1 0 8 0;
#X connect 3 0 2 0;
#X connect 4 0 5 0;
#X connect 4 1 1 0;
#X connect 4 1 7 0;
#X connect 5 0 11 0;
#X connect 7 0 12 0;
#X connect 8 0 11 1;
#X connect 10 0 3 0;
#X connect 11 0 10 0;
#X connect 12 0 3 1;
#X connect 13 0 14 0;
#X connect 14 0 4 0;
#X restore 281 253 pd lighting;
#X obj 347 395 @ / 2;
#X msg 138 46 \$1 \$2 1 # 0;
#N canvas 406 347 312 298 finger 0;
#X obj 229 40 @redim ( 4 2 );
#X obj 71 16 inlet;
#X obj 233 12 inlet;
#X obj 198 92 @ + ( 0 0 0 5 5 5 5 0 );
#X obj 70 148 outlet;
#X obj 70 126 @draw_polygon put ( 1000 );
#X connect 0 0 3 0;
#X connect 1 0 5 0;
#X connect 2 0 0 0;
#X connect 3 0 5 2;
#X connect 5 0 4 0;
#X restore 294 469 pd finger;
#X obj 197 75 s size;
#X obj 285 356 @scale_by 2;
#X obj 144 128 @store;
#X obj 184 402 fps detailed;
#X obj 123 128 bng 15 250 50 0 empty empty empty 0 -6 0 8 -262144 -1
-1;
#N canvas 247 476 450 300 wave 0;
#X obj 47 194 @ *>>8 240;
#X obj 24 46 fork;
#X obj 26 20 inlet;
#X obj 47 216 outlet;
#X obj 50 73 @convolve * + 0 ( 3 3 # 1 4 1 4 -16 4 );
#X obj 47 173 @ -;
#X obj 49 151 @ >> 4;
#X text 96 175 time differential;
#X text 126 195 amortizing by 15/16ths;
#X text 81 50 space differential: (d/dx)^2 + (d/dy)^2;
#X text 71 8 Recurrence equation for propagation of oscillations;
#X connect 0 0 3 0;
#X connect 1 0 5 1;
#X connect 1 1 4 0;
#X connect 2 0 1 0;
#X connect 4 0 6 0;
#X connect 5 0 0 0;
#X connect 6 0 5 0;
#X restore 143 159 pd wave equation;
#X obj 283 228 demux 2;
#X obj 340 229 tgl 15 0 empty empty empty 0 -6 0 8 -262144 -1 -1 0
1;
#X obj 329 507 t a;
#X obj 185 105 t a;
#X obj 31 39 metro 33.3667;
#X obj 283 68 @convolve * + 0 ( 2 2 # 1 );
#X obj 283 88 @ >> 2;
#X obj 283 110 demux 2;
#X obj 337 111 tgl 15 0 empty empty empty 0 -6 0 8 -262144 -1 -1 0
1;
#X text 357 111 plain vs line-art;
#X obj 283 47 demux 2;
#X obj 337 46 tgl 15 0 empty empty empty 0 -6 0 8 -262144 -1 -1 0 1
;
#X text 357 46 smooth vs raw;
#X text 361 230 green/purple emboss vs height=greys;
#X obj 285 316 @ max 0;
#X obj 373 281 @ + 128;
#X obj 372 262 @ >> 1;
#X obj 30 68 s metro;
#X obj 329 132 t a a;
#X obj 330 177 @ -;
#X obj 326 200 @ << 8;
#X obj 327 152 @ > 3;
#X obj 377 151 @ < -3;
#X msg 211 5 240 320;
#X text 441 19 Copyright (c) 2003 \, 2004 by Mathieu Bouchard;
#X text 451 36 Made for Alexandre Castonguay's "DIGITALE";
#X text 478 52 (Best complemented with a touchscreen);
#X text 441 2 waves.pd;
#X connect 0 0 21 0;
#X connect 0 1 12 0;
#X connect 1 0 33 0;
#X connect 2 0 14 0;
#X connect 3 0 42 0;
#X connect 4 0 11 0;
#X connect 4 1 13 0;
#X connect 5 0 16 0;
#X connect 5 0 7 0;
#X connect 7 0 10 0;
#X connect 7 1 0 1;
#X connect 8 0 23 0;
#X connect 9 0 33 0;
#X connect 10 0 12 1;
#X connect 11 0 22 0;
#X connect 12 0 21 0;
#X connect 14 0 5 0;
#X connect 15 0 18 0;
#X connect 16 0 6 0;
#X connect 17 0 15 0;
#X connect 18 0 0 0;
#X connect 19 0 9 0;
#X connect 19 1 35 0;
#X connect 20 0 19 1;
#X connect 21 0 22 0;
#X connect 22 0 15 1;
#X connect 22 0 29 0;
#X connect 23 0 15 0;
#X connect 23 0 36 0;
#X connect 24 0 25 0;
#X connect 25 0 26 0;
#X connect 26 0 19 0;
#X connect 26 1 37 0;
#X connect 27 0 26 1;
#X connect 29 0 24 0;
#X connect 29 1 26 0;
#X connect 30 0 29 1;
#X connect 33 0 2 0;
#X connect 34 0 1 0;
#X connect 35 0 34 0;
#X connect 37 0 40 0;
#X connect 37 1 41 0;
#X connect 38 0 39 0;
#X connect 39 0 19 0;
#X connect 40 0 38 0;
#X connect 41 0 38 1;
#X connect 42 0 4 0;
