#N canvas 0 26 1001 638 10;
#X text 76 287 A + B;
#X text 52 380 A * B;
#X text 58 407 rounded towards zero;
#X text 14 73 angles are in hundredth of degrees \, so a full circle
(two pi radians) is 36000 you can convert from radians to our angles
by multiplying by 18000/pi.;
#X text 13 44 for all of these \, A refers to the left inlet and B
to the value on the right.;
#X text 15 27 Consult doc/architecture.html to see all the 40 of them.
;
#X obj 479 70 #color;
#X obj 684 72 #color;
#X msg 38 286 op +;
#X msg 15 379 op *;
#X obj 440 104 r op;
#X obj 15 255 s op;
#X text 77 309 A - B;
#X msg 38 308 op -;
#X msg 15 522 op %;
#X text 51 518 A % B;
#X msg 25 399 op /;
#X text 64 395 A / B;
#X text 84 542 B % A;
#X text 15 14 Numeric Operators: *whoa \, there's a lot of them;
#X obj 16 349 s op;
#X msg 16 330 op inv+;
#X text 79 331 B -A;
#X text 81 419 A / B;
#X msg 32 423 op div;
#X text 80 431 rounded downwards;
#X msg 32 449 op inv*;
#X text 90 444 B / A;
#X text 87 456 rounded towards 0;
#X text 98 480 rounded downwards;
#X text 99 469 B / A;
#X text 51 529 modulo (goes with div);
#X text 82 553 modulo (goes with div);
#X msg 20 546 op swap%;
#X msg 15 207 op ignore;
#X text 90 208 A;
#X msg 25 228 op put;
#X text 86 228 B;
#X msg 22 474 op swapdiv;
#X msg 32 574 op rem;
#X text 85 567 A % B;
#X text 107 605 B % A;
#X text 84 578 remainder;
#X text 85 589 (goes with /);
#X text 106 616 remainder;
#X text 105 627 (goes with /);
#X obj 196 230 s op;
#X text 258 193 greatest common divisor;
#X text 258 215 least common multiple;
#X text 259 264 A or B \, bitwise;
#X text 259 288 A xor B \, bitwise;
#X msg 205 286 op ^;
#X msg 215 309 op &;
#X text 270 311 A and B \, bitwise;
#X text 280 336 A * (2**(B % 32);
#X text 279 351 left-shifthing;
#X obj 211 388 s op;
#X text 275 385 right-shifthing;
#X text 276 371 A / (2**(B % 32);
#X text 289 427 if A is zero then;
#X text 290 441 B else A;
#X obj 235 478 s op;
#X text 299 461 if A is zero then;
#X text 15 110 comment;
#X msg 235 459 op &&;
#X text 300 475 zero else B;
#X obj 246 616 s op;
#X msg 246 568 op min;
#X text 295 563 the lowest value;
#X text 296 575 in A \, B;
#X msg 270 591 op max;
#X text 319 597 in A \, B;
#X text 319 586 the highest value;
#X msg 420 263 op cmp;
#X text 467 252 -1 when A<B;
#X text 474 280 1 when A>B;
#X text 474 266 0 when A=B;
#X msg 440 296 op ==;
#X text 497 297 is A equal to B ?;
#X text 497 309 1 = true \, 0 = false;
#X msg 450 323 op !=;
#X text 507 324 is A not equal to B ?;
#X msg 460 346 op >;
#X text 517 347 is A greater than B ?;
#X msg 468 367 op <=;
#X text 525 368 is A not greater than B ?;
#X msg 476 388 op <;
#X text 533 389 is A less than B ?;
#X obj 453 434 s op;
#X msg 481 409 op >=;
#X text 538 410 is A not less than B ?;
#X msg 507 455 op sin*;
#X text 566 456 B * sin(A);
#X msg 516 475 op cos*;
#X text 576 477 B * cos(A);
#X msg 521 495 op atan;
#X text 581 496 arctan(A/B);
#X text 768 236 tanh(A);
#X msg 722 278 op log*;
#X text 779 279 B*log(A);
#X text 778 296 in base e;
#X msg 731 311 op gamma;
#X text 802 311 floor(pow(a/256.0 \, 256.0/b)*256.0);
#X obj 682 320 s op;
#X msg 740 333 op **;
#X text 789 329 A**B;
#X text 789 340 A raised to power B;
#X msg 734 401 op abs-;
#X text 796 401 absolute value of (A-B);
#X obj 697 498 s op;
#X msg 697 479 op rand;
#X text 760 493 number below A;
#X text 759 478 randomly produces a non-negative;
#X msg 727 525 op sqrt;
#X text 783 518 square root of A;
#X text 784 533 rounded downwards;
#X obj 734 441 s op;
#X msg 743 420 op sq-;
#X text 806 419 (A-B) times (A-B);
#X obj 453 555 bng 15 250 50 0 empty empty empty 0 -6 0 8 -258699 -1
-1;
#X msg 470 555 op clip+;
#X text 538 555 A+B but output is clipped;
#X obj 452 603 s op;
#X obj 453 575 bng 15 250 50 0 empty empty empty 0 -6 0 8 -258699 -1
-1;
#X msg 470 575 op clip-;
#X text 538 575 A-B but output is clipped;
#X obj 250 536 s op;
#X obj 727 567 s op;
#X msg 250 516 op avg;
#X msg 737 548 op hypot;
#X text 805 548 square root of (A*A+B*B);
#X obj 733 358 bng 15 250 50 0 empty empty empty 0 -6 0 8 -258699 -1
-1;
#X msg 750 358 op erf;
#X text 798 359 integral of e^(-x*x)dx;
#N canvas 8 30 615 351 all_operators 0;
#X obj 174 99 # -;
#X obj 522 97 # swap%;
#X obj 186 177 # abs-;
#X obj 238 177 # rand;
#X obj 342 177 # sq-;
#X obj 290 177 # sqrt;
#X obj 144 99 # +;
#X obj 492 97 # %;
#X obj 260 99 # *;
#X obj 289 99 # /;
#X obj 206 99 # inv+;
#X obj 321 99 # div;
#X obj 367 98 # inv*;
#X obj 420 98 # swapdiv;
#X obj 35 99 # ignore;
#X obj 100 100 # put;
#X obj 35 125 # rem;
#X obj 78 125 # swaprem;
#X obj 149 125 # gcd;
#X obj 191 125 # lcm;
#X obj 234 125 # |;
#X obj 234 125 # |;
#X obj 263 125 # ^;
#X obj 293 125 # &;
#X obj 322 125 # <<;
#X obj 358 125 # >>;
#X obj 394 125 # ||;
#X obj 431 125 # &&;
#X obj 467 125 # min;
#X obj 35 151 # max;
#X obj 79 151 # cmp;
#X obj 124 151 # ==;
#X obj 162 151 # !=;
#X obj 199 151 # >;
#X obj 234 151 # <=;
#X obj 274 151 # <;
#X obj 304 152 # >=;
#X obj 341 152 # sin*;
#X obj 391 152 # cos*;
#X obj 442 152 # atan;
#X obj 493 152 # tanh*;
#X obj 35 177 # log*;
#X obj 87 177 # gamma;
#X obj 148 177 # **;
#X obj 388 177 # avg;
#X obj 433 177 # hypot;
#X restore 15 144 pd all_operators;
#X text 585 31 select values below;
#X text 14 173 select an operator below;
#X text 478 51 A;
#X text 683 53 B;
#X obj 479 136 # +;
#X obj 464 183 #color;
#X obj 702 177 #unpack 3;
#X floatatom 702 197 5 0 0 0 - - -;
#X obj 642 150 t a a;
#X obj 643 171 display;
#X msg 26 613 op swaprem;
#X msg 196 189 op gcd;
#X msg 203 209 op lcm;
#X obj 11 495 s op;
#X obj 7 639 s op;
#X msg 225 334 op <<;
#X msg 231 368 op >>;
#X msg 195 262 op |;
#X msg 225 425 op ||;
#X obj 492 163 display;
#X text 861 23 GridFlow 0.8.3;
#X msg 708 235 op tanh*;
#X obj 507 519 s op;
#X msg 715 258 op exp*;
#X text 318 517 (A+B)/2: average;
#X connect 6 0 139 0;
#X connect 6 0 143 0;
#X connect 7 0 139 1;
#X connect 8 0 20 0;
#X connect 9 0 148 0;
#X connect 10 0 139 0;
#X connect 13 0 20 0;
#X connect 14 0 149 0;
#X connect 16 0 148 0;
#X connect 21 0 20 0;
#X connect 24 0 148 0;
#X connect 26 0 148 0;
#X connect 33 0 149 0;
#X connect 34 0 11 0;
#X connect 36 0 11 0;
#X connect 38 0 148 0;
#X connect 39 0 149 0;
#X connect 51 0 56 0;
#X connect 52 0 56 0;
#X connect 64 0 61 0;
#X connect 67 0 66 0;
#X connect 70 0 66 0;
#X connect 73 0 88 0;
#X connect 77 0 88 0;
#X connect 80 0 88 0;
#X connect 82 0 88 0;
#X connect 84 0 88 0;
#X connect 86 0 88 0;
#X connect 89 0 88 0;
#X connect 91 0 157 0;
#X connect 93 0 157 0;
#X connect 95 0 157 0;
#X connect 98 0 103 0;
#X connect 101 0 103 0;
#X connect 104 0 103 0;
#X connect 107 0 116 0;
#X connect 110 0 109 0;
#X connect 113 0 127 0;
#X connect 117 0 116 0;
#X connect 120 0 122 0;
#X connect 124 0 122 0;
#X connect 128 0 126 0;
#X connect 129 0 127 0;
#X connect 132 0 103 0;
#X connect 139 0 140 0;
#X connect 139 0 154 0;
#X connect 141 0 142 0;
#X connect 143 0 144 0;
#X connect 143 1 141 0;
#X connect 145 0 149 0;
#X connect 146 0 46 0;
#X connect 147 0 46 0;
#X connect 150 0 56 0;
#X connect 151 0 56 0;
#X connect 152 0 56 0;
#X connect 153 0 61 0;
#X connect 156 0 103 0;
#X connect 158 0 103 0;
