#N canvas 327 0 632 642 10;
#X obj 58 86 #camera;
#X obj 58 50 tgl 15 0 empty empty empty 0 -6 0 8 -24198 -1 -1 0 1;
#X obj 194 115 tgl 15 0 empty empty binaryFlag 0 -6 0 8 -24198 -1 -1
0 1;
#X obj 126 96 tgl 15 0 empty empty addBackground 0 -6 0 8 -24198 -1
-1 0 1;
#X obj 266 105 hsl 128 15 0 700 0 0 empty empty outputThreshold -2
-6 0 8 -260818 -1 -1 0 1;
#X obj 41 86 bng 15 250 50 0 empty empty empty 0 -6 0 8 -24198 -1 -1
;
#X obj 58 286 #greyscale_to_rgb;
#X text 72 224 Arguments : size of buffer \, columns \, rows \, channel
;
#X text 70 242 <-- output is a greyscale image;
#X obj 58 305 #out window \, title backgroundModel;
#X obj 58 324 fps detailed;
#X obj 58 343 print;
#X obj 146 198 #out window \, title variance;
#X obj 235 160 #out window \, title Mean;
#X obj 146 160 # << 2;
#X obj 146 179 #clip;
#X floatatom 280 128 5 0 0 0 - - -;
#X obj 58 267 #clip;
#X obj 58 67 metro 33.33;
#X obj 58 141 #background_model 20 120 160 3;
#X obj 14 660 doc_oo 0;
#X obj 14 682 doc_oo 1;
#X obj 14 704 doc_oo 2;
#X obj 14 532 doc_ii 0;
#X obj 14 554 doc_ii 1;
#X obj 14 576 doc_ii 2;
#X obj 14 598 doc_ii 3;
#X obj 14 404 doc_cc 0;
#X obj 14 426 doc_cc 1;
#X obj 14 448 doc_cc 2;
#X obj 14 470 doc_cc 3;
#X text 232 554 addBackground;
#X text 232 576 binary_flag;
#X text 232 598 output_threshold;
#X text 232 404 frames;
#X text 232 426 height;
#X text 232 448 width;
#X text 232 470 channels;
#X text 232 682 variance;
#X text 232 704 mean;
#X text 232 660 greyscale image;
#X obj 0 0 doc_h;
#X obj 0 756 doc_f;
#X obj 3 374 doc_c 4;
#X obj 3 502 doc_i 4;
#X obj 3 630 doc_o 3;
#X obj 97 404 doc_m c0 float;
#X obj 97 426 doc_m c1 float;
#X obj 97 448 doc_m c2 float;
#X obj 97 470 doc_m c3 float;
#X obj 97 554 doc_m i1 grid;
#X obj 97 532 doc_m i0 grid;
#X obj 97 576 doc_m i2 float bool;
#X obj 97 660 doc_m o0 grid;
#X obj 97 682 doc_m o1 grid;
#X obj 97 704 doc_m o2 grid;
#X obj 3 736 doc_also;
#X obj 97 598 doc_m i3 float;
#X connect 0 0 19 0;
#X connect 1 0 18 0;
#X connect 2 0 19 2;
#X connect 3 0 19 1;
#X connect 4 0 16 0;
#X connect 4 0 19 3;
#X connect 5 0 0 0;
#X connect 6 0 9 0;
#X connect 9 0 10 0;
#X connect 10 0 11 0;
#X connect 14 0 15 0;
#X connect 15 0 12 0;
#X connect 17 0 6 0;
#X connect 18 0 0 0;
#X connect 19 0 17 0;
#X connect 19 1 14 0;
#X connect 19 2 13 0;
#X connect 46 1 34 0;
#X connect 47 1 35 0;
#X connect 48 1 36 0;
#X connect 49 1 37 0;
#X connect 50 1 31 0;
#X connect 52 1 32 0;
#X connect 53 1 40 0;
#X connect 54 1 38 0;
#X connect 55 1 39 0;
#X connect 57 1 33 0;
