#N canvas 526 103 502 584 10;
#X obj 4 1 cnv 15 500 18 empty empty empty 20 12 0 14 -228992 -66577
0;
#X text 401 2 GridFlow 0.8.4;
#X obj 126 98 #color;
#X text 5 0 [#color];
#X obj 3 171 cnv 15 500 18 empty empty empty 20 12 0 14 -228992 -66577
0;
#X obj 5 199 cnv 15 60 18 empty empty empty 20 12 0 14 -228992 -66577
0;
#X text 6 200 Inlet 0;
#X obj 3 364 cnv 15 500 17 empty empty empty 20 12 0 14 -228992 -66577
0;
#X obj 3 392 cnv 15 60 18 empty empty empty 20 12 0 14 -228992 -66577
0;
#X text 4 393 Outlet 0;
#X obj 3 364 cnv 15 500 17 empty empty empty 20 12 0 14 -228992 -66577
0;
#X obj 3 392 cnv 15 60 18 empty empty empty 20 12 0 14 -228992 -66577
0;
#X text 4 393 Outlet 0;
#X obj 3 364 cnv 15 500 17 empty empty empty 20 12 0 14 -228992 -66577
0;
#X obj 3 392 cnv 15 60 18 empty empty empty 20 12 0 14 -228992 -66577
0;
#X text 4 393 Outlet 0;
#X obj 3 364 cnv 15 500 17 empty empty empty 20 12 0 14 -228992 -66577
0;
#X text 214 366 Outlets (1);
#X obj 3 392 cnv 15 60 18 empty empty empty 20 12 0 14 -228992 -66577
0;
#X text 4 393 Outlet 0;
#X text 315 121 <-- vary these;
#X text 223 172 Inlets (1);
#X text 3 227 GRID;
#X text 3 269 MESSAGE;
#X text 3 423 GRID;
#X text 63 423 [#color] produces a three dimensional grid of RBG values
;
#X text 6 25 The [#color] object contains a triple slider for RGB value
selection on each channel.;
#X text 70 314 a message containing a list of three values between
0 and 255 will asign each value to the corresponding position on each
channel.;
#X text 67 264 "delegate"- followed by a value between 0 and 255 will
cause all the colour values on each channel to go to the value corresponding
to that position.;
#X obj 2 453 cnv 15 500 17 empty empty empty 20 12 0 14 -228992 -66577
0;
#X obj 2 453 cnv 15 500 17 empty empty empty 20 12 0 14 -228992 -66577
0;
#X obj 2 453 cnv 15 500 17 empty empty empty 20 12 0 14 -228992 -66577
0;
#X obj 2 453 cnv 15 500 17 empty empty empty 20 12 0 14 -228992 -66577
0;
#X text 216 455 Arguments (0);
#X obj 3 364 cnv 15 500 17 empty empty empty 20 12 0 14 -228992 -66577
0;
#X obj 3 364 cnv 15 500 17 empty empty empty 20 12 0 14 -228992 -66577
0;
#X obj 3 364 cnv 15 500 17 empty empty empty 20 12 0 14 -228992 -66577
0;
#X obj 0 501 cnv 15 500 17 empty empty empty 20 12 0 14 -228992 -66577
0;
#X text 214 366 Outlets (1);
#X text 2 473 None;
#X text 3 501 also see:;
#X text 214 66 <-- click here;
#X msg 142 66 255 0 204;
#X text 69 226 [#color] accepts three dimensional grids and allows
for colour value (RGB) changes on each channel;
#X connect 42 0 2 0;
