#N canvas 610 97 632 390 10;
#X obj 92 137 #out window;
#X obj 92 117 #hello;
#X obj 92 77 loadbang;
#X obj 0 0 doc_h;
#X obj 3 170 doc_c;
#X obj 0 356 doc_f;
#X obj 3 210 doc_i 1;
#X obj 14 242 doc_ii 0;
#X obj 97 242 doc_m i0 list;
#X text 232 242 Size of the grid.;
#X obj 3 274 doc_o 1;
#X obj 14 304 doc_oo 0;
#X obj 97 304 doc_m o0 grid;
#X text 9 35 Generates a television test pattern of 7 colour bars à
la SMPTE.;
#X text 232 304 Returns a grid representing the 7 colour bars.;
#X msg 92 97 200 200;
#X obj 3 336 doc_also;
#X text 103 336 examples/hello-world.pd;
#X connect 1 0 0 0;
#X connect 2 0 15 0;
#X connect 8 1 9 0;
#X connect 12 1 14 0;
#X connect 15 0 1 0;
#X connect 16 1 17 0;
