#N canvas 870 13 518 928 10;
#X obj 354 172 #out window;
#X obj 7 9 cnv 15 500 18 empty empty empty 20 12 0 14 -228992 -66577
0;
#X obj 17 10 #in;
#X text 13 34 This object imports a grid \, usually an image \, video
or live stream.;
#X msg 362 126 open working.jpg;
#X obj 354 106 bng 15 250 50 0 empty empty empty 0 -6 0 8 -24198 -1
-1;
#X text 55 181 <--click here;
#X obj 8 338 cnv 15 60 18 empty empty empty 20 12 0 14 -228992 -66577
0;
#X text 13 339 Inlet_0;
#X text 79 365 A bang sends a grid to [#out]. Since frames from videos
and live streams are read as a series of individual grids \, successive
bangs advance through the frames.;
#X text 77 452 "set" - followed by a number will select the corresponding
video frame. A bang must be sent to [#in] in order to display the frame.
;
#X text 77 498 "close" - Closes the video input device. Only necessary
when you are using a live capture device.;
#X text 76 532 "rewind" - Will rewind video to the beginning.;
#X text 76 586 "loop 0" - turns off the loop option. The video stops
once it reaches the end.;
#X text 81 848 Signals the end of a file and when a file is unreadable.
;
#X obj 8 775 cnv 15 60 18 empty empty empty 20 12 0 14 -228992 -66577
0;
#X text 9 776 Outlet_0;
#X text 82 800 Displays the resulting grid when connected to [#out
window];
#X obj 10 825 cnv 15 60 18 empty empty empty 20 12 0 14 -228992 -66577
0;
#X text 10 826 Outlet_1;
#X text 81 878 Displays the frame number of the frame currently being
viewed. Applies to formats that have frame numbers \, i.e. video.;
#X obj 7 314 cnv 15 500 18 empty empty empty 20 12 0 14 -228992 -66577
0;
#X text 201 315 Inlets (1);
#N canvas 82 93 663 454 quicktime 1;
#X text 5 -3 The following messages can be used to set parameters for
video (.mov) files.;
#X text 124 271 different versions of LibQuickTime may include support
for different codecs \, and some may also support entirely different
wrapper formats such as AVI.;
#X text 125 355 Codecs must be set before first frame is written.;
#X text 124 318 QuickTime library for Macintosh: Apple QuickTime (some
codecs/features may not be available).;
#X obj 5 260 cnv 15 24 17 empty empty empty 20 12 0 14 -241291 -66577
0;
#X msg 34 218 codec jpg;
#X msg 19 104 framerate 33;
#X msg 29 191 colorspace rgb;
#X msg 14 66 size 400 600;
#X obj 6 260 #in;
#X text 141 105 Number of frames per second.;
#X msg 28 159 parameter jpeg_quality 85;
#X text 183 135 Determines window size when reading a video file.;
#X text 125 218 quicktime library for linux accepts LibQuickTime (libquicktime.so).
codecs currently available are: Raw \, jpeg \, png \, mipa \, yuv2
\, yuv4.;
#X text 130 72 Sets height and width. Must be set before setting the
codec parameters and after setting framerate and codec.;
#X text 103 218 <--;
#X text 104 68 <--;
#X text 115 106 <--;
#X text 104 68 <--;
#X text 104 68 <--;
#X text 158 135 <--;
#X text 208 161 <--;
#X text 135 194 <--;
#X text 233 162 Sets compression quality (100 being the highest quality
\, but a large file. 75-85 is the standard setting).;
#X text 159 197 Other colorspaces include rgba \, bgr \, bgra \, yuv
\, yuva.;
#X msg 6 42 open example.mov;
#X msg 24 133 force_size 480 640;
#X obj 99 415 #record;
#X text 11 415 see also :;
#X connect 5 0 9 0;
#X connect 6 0 9 0;
#X connect 7 0 9 0;
#X connect 8 0 9 0;
#X connect 11 0 9 0;
#X connect 25 0 9 0;
#X connect 26 0 9 0;
#X restore 145 674 pd quicktime file messages;
#X obj 353 151 cnv 15 25 17 empty empty empty 20 12 0 14 -241291 -66577
0;
#X obj 354 151 #in;
#X obj 15 228 cnv 15 25 17 empty empty empty 20 12 0 14 -241291 -66577
0;
#X floatatom 202 195 5 0 0 0 - - -;
#X msg 202 151 set 2;
#X msg 202 107 loop 0;
#X msg 202 129 loop 1;
#X floatatom 32 268 5 0 0 0 - - -;
#X msg 202 173 rewind;
#X obj 41 250 bng 15 250 50 0 empty empty empty 0 -6 0 8 -262144 -1
-1;
#X obj 16 228 #in;
#X text 39 98 <--click here;
#X obj 17 96 tgl 15 0 empty empty empty 0 -6 0 8 -24198 -1 -1 0 1;
#X obj 17 120 metro 33.3;
#X obj 355 255 cnv 15 101 17 empty empty empty 20 12 0 14 -241291 -66577
0;
#X obj 356 234 bng 15 250 50 0 empty empty empty 0 -6 0 8 -24198 -1
-1;
#X obj 356 280 #out window;
#X obj 356 255 #in sewing.jpg;
#X text 378 234 <--click here;
#X text 77 657 For info about messages specifically for quickTime files
\, click on:;
#N canvas 150 0 874 560 more 0;
#X msg 287 400 open videodev \$1 \, get;
#X msg 148 159 brightness 1000;
#X msg 137 136 hue 1000;
#X msg 122 113 color 1000;
#X msg 161 183 contrast 1000;
#X msg 110 90 whiteness 1000;
#X msg 176 276 channel 2;
#X msg 176 306 tuner 2;
#X msg 177 336 norm 2;
#X msg 177 364 frequency 2;
#X msg 286 468 transfer mmap 4;
#X msg 287 368 transfer read;
#X msg 286 446 colorspace RGB24;
#X msg 287 423 size 400 600;
#X obj 110 453 #in;
#X obj 288 184 #contrast;
#X text 262 184 or;
#X text 402 423 Sets height and width of the input.;
#X text 418 500 In the case of mmap \, the extra numeric argument sets
the queue length in number of frames \, so you can select an appropriate
tradeoff between efficiency and latency.;
#X text 112 24 Grid Settings;
#X text 418 469 This is the standard and fastest way to receive pictures
from the camera.;
#X text 217 111 Message "get brightness" or "get" followed by any of
the other colour attributes will display its values in the console.
;
#X text 471 402 Opens video device.;
#X text 427 447 Supported values are RGB24 or YUV420P.;
#X text 110 60 Color Adjustments;
#X text 240 87 Values from 0 to 65535;
#X text 379 424 <--;
#X text 405 447 <--;
#X text 441 402 <--;
#X text 396 468 <--;
#X text 383 369 <--;
#X text 406 369 Some cameras/drivers only support "transfer read" and
not mmap.;
#X text 102 532 see also :;
#X obj 188 532 #camera;
#X connect 0 0 14 0;
#X connect 1 0 14 0;
#X connect 2 0 14 0;
#X connect 3 0 14 0;
#X connect 4 0 14 0;
#X connect 5 0 14 0;
#X connect 6 0 14 0;
#X connect 7 0 14 0;
#X connect 8 0 14 0;
#X connect 9 0 14 0;
#X connect 10 0 14 0;
#X connect 11 0 14 0;
#X connect 12 0 14 0;
#X connect 13 0 14 0;
#X restore 145 635 pd more info about video devices;
#X text 77 618 For info about messages specifically for video devices
\, click on:;
#X text 8 799 GRID;
#X text 10 849 BANG;
#X text 9 876 INTEGER;
#X text 7 952 FILE NAME;
#X text 9 367 GRID;
#X text 9 419 MESSAGE;
#X text 8 713 INTEGER;
#X text 169 213 (and turn off the metro);
#X text 244 195 <-- vary this;
#X obj 7 751 cnv 15 500 17 empty empty empty 20 12 0 14 -228992 -66577
0;
#X text 197 752 Outlets (2);
#X text 197 752 Outlets (2);
#X obj 8 929 cnv 15 500 18 empty empty empty 20 12 0 14 -228992 -66577
0;
#X text 195 930 Arguments;
#X text 352 74 IMAGE FILES:;
#X text 12 72 VIDEO FILES:;
#X obj 28 183 bng 15 250 50 0 empty empty empty 0 -6 0 8 -24198 -1
-1;
#X text 380 106 <-- click here;
#X text 68 248 <-- sends a bang upon reaching;
#X text 97 261 the end of the file;
#X msg 24 147 open looting.mov;
#X obj 16 291 #out window \, title video;
#X text 402 10 GridFlow 0.9.0;
#X text 90 952 Including the file name of a grid into the [#in] object
eliminates the need for an "open" message but limits the action to
one specified grid.;
#X text 77 418 "open" - followed by the filename \, sends it as a resource
to [#out]. For example: "open sewing.jpg".;
#X text 77 713 Outputs the frame that corresponds to the value. Applies
to formats that have frame numbers \, i.e. video.;
#X text 76 552 "loop 1" - Restarts a video each time it reaches the
end (default setting).;
#X connect 4 0 25 0;
#X connect 5 0 25 0;
#X connect 25 0 0 0;
#X connect 27 0 34 0;
#X connect 28 0 34 0;
#X connect 29 0 34 0;
#X connect 30 0 34 0;
#X connect 32 0 34 0;
#X connect 34 0 67 0;
#X connect 34 1 31 0;
#X connect 34 1 33 0;
#X connect 36 0 37 0;
#X connect 37 0 34 0;
#X connect 39 0 41 0;
#X connect 41 0 40 0;
#X connect 62 0 34 0;
#X connect 66 0 34 0;
