#N canvas 271 133 568 601 10;
#X obj 332 118 #outer + (0 9000);
#X text 340 62 make regular triangle;
#X obj 332 216 #rotate;
#X obj 284 42 tgl 15 0 empty empty empty 0 -6 0 8 -262144 -1 -1 0 1
;
#X obj 385 216 * 100;
#X floatatom 385 200 5 0 0 0 - - -;
#X obj 302 61 t b b;
#X obj 332 235 #polygon_comparator;
#X obj 283 61 bng 15 250 50 0 empty empty empty 0 -6 0 8 -262144 -1
-1;
#X obj 332 175 #t;
#X obj 303 42 metro 1000;
#X text 32 264 BUG: first try doesn't work;
#X text 69 275 please bang twice;
#X msg 466 106 4 2 # 1 1 1 -1 -1 -1 -1 1;
#X obj 507 152 display;
#X obj 332 99 # * 12000;
#X obj 332 80 #for 0 3 1;
#X obj 466 126 # * (100 100);
#X obj 332 156 # + (0 0);
#X obj 332 137 # cos* (100 100);
#X obj 292 267 #fold min;
#X obj 372 267 #fold max;
#X obj 292 286 #export;
#X obj 372 286 #export;
#X obj 467 85 loadbang;
#X obj 292 305 nbx 8 14 -1e+37 1e+37 0 0 empty empty empty 0 -6 0 9
-262144 -1 -1 0 256;
#X obj 372 305 nbx 8 14 -1e+37 1e+37 0 0 empty empty empty 0 -6 0 9
-262144 -1 -1 0 256;
#X text 274 414 or method "precision" for setting the size of the output
grid.;
#X text 291 484 in which the peak represents the amount of similarity
between the two polygons \, and the position of the peak represents
the optimal rotation for maximum overlapping of the polygons. The rotation
origin is assumed to be the centroid (#moment 1);
#X text 25 248 NOTE: requires [#fft];
#X text 37 152 translations \, e.g. [# +];
#X text 37 170 rotations \, e.g. [#rotate];
#X text 37 188 scalar scalings \, e.g. [# *] with only one value.;
#X obj 0 0 doc_h;
#X obj 3 328 doc_c;
#X obj 3 368 doc_i 2;
#X text 2 118 Comparisons are meant to be invariant to the following
transformation:;
#X obj 3 512 doc_o 1;
#X text 287 445 a 2-D polygon as N by 2 grid;
#X text 277 391 a 2-D polygon as N by 2 grid;
#X obj 14 398 doc_ii 0;
#X obj 14 425 doc_ii 1;
#X obj 14 542 doc_oo 0;
#X obj 0 572 doc_f;
#X obj 97 398 doc_m i0 grid;
#X obj 97 445 doc_m i1;
#X connect 0 0 19 0;
#X connect 2 0 7 0;
#X connect 3 0 10 0;
#X connect 4 0 2 1;
#X connect 5 0 4 0;
#X connect 6 1 16 0;
#X connect 7 0 20 0;
#X connect 7 0 21 0;
#X connect 8 0 6 0;
#X connect 9 0 2 0;
#X connect 10 0 6 0;
#X connect 13 0 17 0;
#X connect 15 0 0 0;
#X connect 16 0 15 0;
#X connect 17 0 14 0;
#X connect 17 0 7 1;
#X connect 18 0 9 0;
#X connect 19 0 18 0;
#X connect 20 0 22 0;
#X connect 21 0 23 0;
#X connect 22 0 25 0;
#X connect 23 0 26 0;
#X connect 24 0 13 0;
#X connect 44 1 39 0;
#X connect 44 1 27 0;
#X connect 45 1 38 0;
#X connect 45 1 28 0;
