#N canvas 271 30 511 573 10;
#X obj 109 137 cnv 15 130 17 empty empty empty 20 12 0 14 -241291 -66577
0;
#X obj 6 381 cnv 15 500 17 empty empty empty 20 12 0 14 -228992 -66577
0;
#X obj 4 193 cnv 15 500 18 empty empty empty 20 12 0 14 -228992 -66577
0;
#X obj 4 216 cnv 15 60 18 empty empty empty 20 12 0 14 -228992 -66577
0;
#X text 9 217 Inlet_0;
#X text 206 195 Inlets (2);
#X text 215 383 Outlets (1);
#X obj 5 463 cnv 15 500 18 empty empty empty 20 12 0 14 -228992 -66577
0;
#X text 221 464 Arguments (1);
#X obj 5 312 cnv 15 60 18 empty empty empty 20 12 0 14 -228992 -66577
0;
#X obj 6 402 cnv 15 60 18 empty empty empty 20 12 0 14 -228992 -66577
0;
#X text 10 403 Inlet_0;
#X text 10 313 Inlet_1;
#X text 7 242 GRID;
#X text 7 340 GRID;
#X text 11 426 GRID;
#X obj 5 535 cnv 15 500 18 empty empty empty 20 12 0 14 -228992 -66577
0;
#X text 325 538 Help Files GridFlow 0.8.4;
#X text 86 20 rearrange a grid's values according to new dimensions
;
#X obj 21 19 bng 15 250 50 0 empty empty empty 0 -6 0 8 -24198 -1 -1
;
#X text 834 82 gridflow;
#X obj 21 42 fork;
#X obj 21 86 #in;
#X obj 111 166 #out window;
#X obj 7 -17 cnv 15 500 18 empty empty empty 20 12 0 14 -228992 -66577
0;
#X msg 44 64 open working.jpg;
#X text 19 533 see also:;
#X obj 99 536 #ravel;
#X obj 149 536 #perspective;
#X obj 21 167 #out window;
#X obj 21 110 t a a;
#X obj 22 -17 #redim ( 2 );
#X obj 111 137 #redim (120 160 3);
#X text 72 427 Outputs the redimensioned data as a grid.;
#X text 24 494 Accepts a grid as a creation argument \, here (120 160
3).;
#X msg 232 114 240 320 3;
#X text 70 243 Accepts a grid which elements are serialized. If the
resulting grid must be larger \, the sequence is repeated as much as
necessary. It is truncated if it must be smaller. The elements are
then deserialized to form the resulting grid.;
#X text 71 340 Accepts grids that is a dimension list.;
#X connect 19 0 21 0;
#X connect 21 0 22 0;
#X connect 21 1 25 0;
#X connect 22 0 30 0;
#X connect 25 0 22 0;
#X connect 30 0 29 0;
#X connect 30 1 32 0;
#X connect 32 0 23 0;
#X connect 35 0 32 1;
