#N canvas 113 134 502 394 10;
#X obj 1 -20 cnv 15 500 18 empty empty empty 20 12 0 14 -228992 -66577
0;
#X obj 1 279 cnv 15 500 17 empty empty empty 20 12 0 14 -228992 -66577
0;
#X obj 1 190 cnv 15 500 18 empty empty empty 20 12 0 14 -228992 -66577
0;
#X obj 1 213 cnv 15 60 18 empty empty empty 20 12 0 14 -228992 -66577
0;
#X text 215 281 Outlets (1);
#X obj 1 300 cnv 15 60 18 empty empty empty 20 12 0 14 -228992 -66577
0;
#X text 398 -19 GridFlow 0.8.4;
#X text 2 214 Inlet 0;
#X text 2 301 Outlet 0;
#X obj 166 163 #out window;
#X obj 166 92 #in;
#X obj 14 -20 #rgb_to_greyscale;
#X obj 166 117 cnv 15 121 17 empty empty empty 20 12 0 14 -241291 -66577
0;
#X obj 166 117 #rgb_to_greyscale;
#X obj 174 71 bng 15 250 50 0 empty empty empty 0 -6 0 8 -24198 -1
-1;
#X msg 166 48 open working.jpg;
#X obj 166 140 #greyscale_to_rgb;
#X text 221 191 Inlets (1);
#X text 7 239 GRID;
#X text 8 326 GRID;
#X text 87 240 A color grid at the left inlet is accepted.;
#X text 84 329 A grid equivalrnt to the original one is output in greyscale.
;
#X text 15 7 Creates a greyscale image from a color image.;
#X connect 10 0 13 0;
#X connect 13 0 16 0;
#X connect 14 0 10 0;
#X connect 15 0 10 0;
#X connect 16 0 9 0;
