#N canvas 122 0 556 615 10;
#X obj 90 170 cnv 15 135 17 empty empty empty 20 12 0 14 -241291 -66577
0;
#X obj 1 259 cnv 15 60 18 empty empty empty 20 12 0 14 -228992 -66577
0;
#X obj 1 329 cnv 15 60 18 empty empty empty 20 12 0 14 -228992 -66577
0;
#X obj 1 415 cnv 15 60 18 empty empty empty 20 12 0 14 -228992 -66577
0;
#X text 2 259 Inlet 0;
#X text 2 333 Inlet 1;
#X text 2 419 Outlet 0;
#X obj 11 75 tgl 15 0 empty empty empty 0 -6 0 8 -24198 -1 -1 0 1;
#X obj 11 94 metro 100;
#X obj 89 171 #scale_to (133 133);
#X obj 89 133 #in;
#X obj 284 159 #pack;
#X obj 325 138 hsl 128 8 0 640 0 0 empty empty empty 0 -8 0 8 -260818
-1 -1 0 1;
#X obj 325 148 hsl 128 8 0 640 0 0 empty empty empty 0 -8 0 8 -260818
-1 -1 0 1;
#X obj 89 208 #out window \, title #scale_to;
#X obj 176 541 #downscale_by;
#X msg 89 73 open scissors.jpg \, bang;
#X obj 300 183 #print;
#X msg 284 75 2 # 500 500;
#X obj 412 97 #print;
#X text 7 283 GRID;
#X msg 284 94 2 # 100 500;
#X msg 285 115 2 # 500 100;
#X text 460 133 height;
#X text 460 145 width;
#X text 62 357 A height width value pair in pixels.;
#X text 3 444 GRID;
#X text 64 444 Outputs the resulting scaled image.;
#X text 3 506 INT INT;
#X text 65 504 A (height width) pair of integers indicating the size
to scale to image to. This initial argument is required.;
#X text 62 284 The Grid passed at inlet 0 will be the image on which
the scale_to will be performed.;
#X text 284 58 2 grid size values y=500 x=500;
#X obj 103 541 #scale_by;
#X text 9 22 The [#scale_to] scales the image received to the x and
y values passed. Initial creation arguments are mandatory (0 0) otherwise.
;
#X text 3 358 INT INT;
#X obj 0 0 doc_h;
#X obj 3 236 doc_i 2;
#X obj 3 390 doc_o 1;
#X obj 3 480 doc_c 1;
#X obj 3 541 doc_also;
#X connect 7 0 8 0;
#X connect 8 0 10 0;
#X connect 9 0 14 0;
#X connect 10 0 9 0;
#X connect 11 0 9 1;
#X connect 11 0 17 0;
#X connect 12 0 11 0;
#X connect 13 0 11 1;
#X connect 16 0 10 0;
#X connect 18 0 9 1;
#X connect 18 0 19 0;
#X connect 21 0 9 1;
#X connect 21 0 19 0;
#X connect 22 0 9 1;
#X connect 22 0 19 0;
