#N canvas 670 44 554 638 10;
#X text 9 385 BANG;
#X obj 1 326 cnv 15 60 18 empty empty empty 20 12 0 14 -228992 -66577
0;
#X obj 1 426 cnv 15 60 18 empty empty empty 20 12 0 14 -228992 -66577
0;
#X obj 1 565 cnv 15 60 18 empty empty empty 20 12 0 14 -228992 -66577
0;
#X text 2 327 Inlet 0;
#X text 2 427 Inlet 1;
#X text 2 566 Outlet 0;
#X floatatom 132 89 5 0 0 0 - - -;
#X floatatom 177 89 5 0 0 0 - - -;
#X floatatom 20 160 5 0 0 0 - - -;
#X floatatom 132 200 5 0 0 0 - - -;
#X text 115 201 R:;
#X floatatom 193 200 5 0 0 0 - - -;
#X floatatom 253 200 5 0 0 0 - - -;
#X text 176 201 G:;
#X text 237 201 B:;
#X floatatom 73 161 5 0 0 0 - - -;
#X text 1 161 X:;
#X text 58 162 Y:;
#X obj 132 107 #pack;
#X obj 296 134 #in;
#X msg 296 115 load r001.jpg;
#X obj 20 131 #unpack;
#X obj 132 175 #unpack 3;
#X obj 134 150 #store;
#X text 60 384 A bang at the left inlet will force [#store] to send
its value to the outlet.;
#X text 7 352 GRID;
#X text 129 54 this example allows you to select a single pixel from
the loaded picture and view its rgb value.;
#X text 8 24 The [#store] stores exactly one grid \, using the right
inlet. You fetch it back \, or selected subparts using the left inlet.
;
#X text 10 261 GRID;
#X text 60 263 [#store] accepts a grid as a creation argument which
initializes the first value to be stored.;
#X obj 296 181 display;
#X obj 86 94 bng 15 250 50 0 empty empty empty 0 -6 0 8 -262144 -1
-1;
#X obj 296 161 display;
#X text 59 351 Accepts a grid.;
#X text 7 451 GRID;
#X text 60 451 Accepts a grid or a subpart of it.;
#X text 62 481 Reassign;
#X text 63 503 put_at;
#X text 131 490 To be clarified;
#X text 12 589 GRID;
#X text 59 589 Outputs the grid as requested.;
#X obj 296 96 loadbang;
#X obj 3 306 doc_i 2;
#X obj 0 0 doc_h;
#X obj 3 541 doc_o;
#X obj 3 234 doc_c 1;
#X connect 7 0 19 0;
#X connect 8 0 19 1;
#X connect 19 0 22 0;
#X connect 19 0 24 0;
#X connect 19 0 33 0;
#X connect 20 0 24 1;
#X connect 21 0 20 0;
#X connect 22 0 9 0;
#X connect 22 1 16 0;
#X connect 23 0 10 0;
#X connect 23 1 12 0;
#X connect 23 2 13 0;
#X connect 24 0 23 0;
#X connect 24 0 31 0;
#X connect 32 0 24 0;
#X connect 42 0 21 0;
