#N canvas 399 114 632 639 10;
#X obj 0 0 doc_h;
#X obj 3 583 doc_also;
#X obj 0 605 doc_f;
#X obj 76 83 bng 15 250 50 0 empty empty empty 17 7 0 10 -262144 -1
-1;
#X obj 86 223 print;
#X obj 86 203 #to_l;
#X obj 76 101 #for 0 15 1;
#X obj 439 116 table \$0-matable 10;
#X text 26 36 Takes a grid containing indexes and outputs a grid containing
the values read from a table \, for each index.;
#X obj 86 168 #tabread \$0-matable;
#X obj 3 270 doc_c 1;
#X obj 14 300 doc_cc 0;
#X obj 97 300 doc_m c0 symbol;
#X obj 14 362 doc_ii 0;
#X obj 3 521 doc_o 1;
#X obj 14 551 doc_oo 0;
#X obj 103 583 tabread;
#X obj 97 362 doc_m i0 grid;
#X obj 97 551 doc_m o0 grid;
#X text 232 300 Name of the table to read from.;
#X text 232 362 Input grid containing index values to be read from
the table.;
#X text 232 397 If an index is negative \, it will return the value
of the first element.;
#X msg 96 121 3 3 # 0 0 2 4 6 6 1 2 3;
#X text 232 432 If an index is greater than the last element of the
table \, it will return the value of the last element.;
#X text 232 551 Output grid containing all values read from the table.
;
#X obj 3 332 doc_i 1;
#X obj 97 467 doc_m i0 set;
#X text 232 467 \$1=table;
#X text 232 489 Dynamically set the table to read from.;
#X obj 439 136 table \$0-tatable 10;
#X obj 261 121 symbol \$0-tatable;
#X obj 261 101 bng 15 250 50 0 empty empty empty 17 7 0 10 -262144
-1 -1;
#X msg 261 141 set \$1;
#N canvas 6 63 450 300 init_tables 0;
#X obj 55 47 loadbang;
#X msg 75 77 0 3 72 55 64 87 2 11 5 6 22;
#X obj 75 97 s \$0-matable;
#X msg 55 127 0 99 98 97 96 95 94 93 92 91 90;
#X obj 55 147 s \$0-tatable;
#X connect 0 0 1 0;
#X connect 0 0 3 0;
#X connect 1 0 2 0;
#X connect 3 0 4 0;
#X restore 439 96 pd init_tables;
#X obj 154 204 display;
#X connect 1 1 16 0;
#X connect 3 0 6 0;
#X connect 5 0 4 0;
#X connect 6 0 9 0;
#X connect 9 0 5 0;
#X connect 9 0 34 0;
#X connect 12 1 19 0;
#X connect 17 1 20 0;
#X connect 17 1 21 0;
#X connect 17 1 23 0;
#X connect 18 1 24 0;
#X connect 22 0 9 0;
#X connect 26 1 27 0;
#X connect 26 1 28 0;
#X connect 30 0 32 0;
#X connect 31 0 30 0;
#X connect 32 0 9 0;
