#N canvas 678 0 568 462 10;
#X obj 15 188 cnv 15 55 17 empty empty empty 20 12 0 14 -241291 -66577
0;
#X obj 39 135 display;
#X msg 15 73 1 2 3 4 5 6 7 8;
#X text 186 289 Accepts a grid that will be transformed into its elements.
;
#X text 138 73 <-- create the grid here;
#X text 195 386 The grid is transformed into a sequence of floats.
;
#X obj 15 188 #to_float;
#X text 12 27 Produces sequences of floats from grid data. Useful for
the integration into the rest of PureData.;
#X obj 15 216 print converted_grid;
#X obj 15 100 #import (2 2 2);
#X obj 0 0 doc_h;
#X obj 3 280 doc_i 1;
#X obj 3 240 doc_c;
#X obj 14 387 doc_oo 0;
#X obj 14 310 doc_ii 0;
#X obj 3 356 doc_o 1;
#X obj 97 310 doc_m i0 grid;
#X obj 97 387 doc_m o0 float;
#X obj 0 417 doc_f;
#X connect 2 0 9 0;
#X connect 6 0 8 0;
#X connect 9 0 1 0;
#X connect 9 0 6 0;
#X connect 16 1 3 0;
#X connect 17 1 5 0;
