#N canvas 544 108 557 485 10;
#X obj 0 290 cnv 15 60 18 empty empty empty 20 12 0 14 -228992 -66577
0;
#X obj 0 373 cnv 15 60 18 empty empty empty 20 12 0 14 -228992 -66577
0;
#X text 1 291 Inlet 0;
#X text 1 374 Outlet 0;
#X obj 15 164 cnv 15 52 17 empty empty empty 20 12 0 14 -241291 -66577
0;
#X text 5 318 GRID;
#X obj 50 115 display;
#X msg 14 64 1 2 3 4 5 6 7 8;
#X obj 161 217 display;
#X text 59 318 Accepts a grid that will be transformed into a list.
;
#X text 3 401 LIST;
#X text 12 27 Produces a list from grid data. Useful for the integration
into the rest of PureData.;
#X text 130 63 <-- create the grid here;
#X obj 14 165 #to_list;
#X obj 14 216 print converted_grid;
#X obj 14 91 #import (2 2 2);
#X obj 0 0 doc_h;
#X obj 3 355 doc_o 1;
#X obj 3 265 doc_i 1;
#X obj 3 244 doc_c 0;
#X text 56 399 The grid is transformed into a single message containing
a sequence of floats.;
#X connect 7 0 15 0;
#X connect 13 0 8 0;
#X connect 13 0 14 0;
#X connect 15 0 6 0;
#X connect 15 0 13 0;
