#N canvas 674 0 568 479 10;
#X obj 3 116 doc_c 2;
#X obj 19 42 #transpose;
#X obj 3 196 doc_i 3;
#X obj 3 306 doc_o 1;
#X obj 0 0 doc_h;
#X obj 14 146 doc_cc 0;
#X obj 14 166 doc_cc 1;
#X obj 14 226 doc_ii 0;
#X obj 14 252 doc_ii 1;
#X obj 14 276 doc_ii 2;
#X obj 14 336 doc_oo 0;
#X obj 97 146 doc_m c0 float;
#X obj 97 166 doc_m c1 float;
#X obj 97 226 doc_m i0 grid;
#X obj 97 252 doc_m i1 float;
#X obj 97 276 doc_m i2 float;
#X obj 97 336 doc_m o0 grid;
#X text 196 204 swaps the two specified dimensions \; dimension numbers
are as in [#join].;
#X text 199 140 dimension number;
#X text 199 160 dimension number;
#X text 199 251 same as arg 0;
#X text 199 271 same as arg 1;
#X obj 0 366 doc_f;
#X connect 11 1 18 0;
#X connect 12 1 19 0;
#X connect 13 1 17 0;
#X connect 14 1 20 0;
#X connect 15 1 21 0;
