#N canvas 539 110 632 634 10;
#X obj 0 0 doc_h;
#X obj 3 580 doc_also;
#X obj 0 600 doc_f;
#X obj 103 580 #type;
#X obj 145 580 #cast;
#X obj 187 580 doc_link numtype 1;
#X obj 3 302 doc_c 0;
#X obj 3 342 doc_i 1;
#X obj 14 372 doc_ii 0;
#X obj 3 518 doc_o 1;
#X obj 14 548 doc_oo 0;
#X obj 97 372 doc_m i0 symbol;
#X text 232 372 numtype;
#X obj 97 394 doc_m i0 abbr;
#X text 232 394 0: output will be one of: uint8 int16 int32 int64 float32
float64;
#X text 232 429 1: output will be one of: b s i l f d (same thing \,
respectively);
#X obj 97 548 doc_m o0 symbol;
#X text 232 548 numtype;
#X obj 56 105 #type-gui;
#X obj 56 137 display;
#X obj 156 137 display;
#X text 144 47 abbreviated output;
#X text 50 48 regular output;
#X obj 298 188 display;
#X obj 424 188 display;
#X text 422 48 abbreviated output;
#X text 300 48 regular output;
#X text 55 30 horizontal with letter labels;
#X text 336 30 vertical with full labels;
#X obj 97 464 doc_m i0 vertical;
#X text 232 464 0: horizontal (see above);
#X text 232 486 1: vertical (see above too);
#X text 54 64 [#type-gui];
#X text 144 64 [#type-gui \, abbr];
#X text 291 64 [#type-gui \, vertical];
#X text 421 64 [#type-gui \, vertical \, abbr];
#X obj 156 105 #type-gui \, abbr;
#X obj 298 106 #type-gui \, vertical;
#X obj 424 106 #type-gui \, vertical \, abbr;
#X obj 56 86 r \$0-a;
#X obj 156 86 r \$0-a;
#X obj 298 87 r \$0-a;
#X obj 424 87 r \$0-a;
#X obj 37 281 s \$0-a;
#X msg 52 160 symbol uint8;
#X msg 52 180 symbol int16;
#X msg 52 200 symbol int32;
#X msg 52 220 symbol int64;
#X msg 52 240 symbol float32;
#X msg 52 260 symbol float64;
#X obj 147 281 s \$0-a;
#X msg 162 160 symbol b;
#X msg 162 180 symbol s;
#X msg 162 200 symbol i;
#X msg 162 220 symbol l;
#X msg 162 240 symbol f;
#X msg 162 260 symbol d;
#X connect 1 1 3 0;
#X connect 1 1 4 0;
#X connect 1 1 5 0;
#X connect 11 1 12 0;
#X connect 13 1 14 0;
#X connect 13 1 15 0;
#X connect 16 1 17 0;
#X connect 18 0 19 0;
#X connect 29 1 30 0;
#X connect 29 1 31 0;
#X connect 36 0 20 0;
#X connect 37 0 23 0;
#X connect 38 0 24 0;
#X connect 39 0 18 0;
#X connect 40 0 36 0;
#X connect 41 0 37 0;
#X connect 42 0 38 0;
#X connect 44 0 43 0;
#X connect 45 0 43 0;
#X connect 46 0 43 0;
#X connect 47 0 43 0;
#X connect 48 0 43 0;
#X connect 49 0 43 0;
#X connect 51 0 50 0;
#X connect 52 0 50 0;
#X connect 53 0 50 0;
#X connect 54 0 50 0;
#X connect 55 0 50 0;
#X connect 56 0 50 0;
