#N canvas 618 54 632 403 10;
#X obj 0 0 doc_h;
#X obj 0 374 doc_f;
#X obj 3 259 doc_i 1;
#X obj 3 334 doc_o 0;
#X obj 14 289 doc_ii 0;
#X obj 14 157 doc_cc 0;
#X obj 97 289 doc_m i0 <none>;
#X text 232 289 dummy inlet designed to be a hook for the <evil> outlet
of [doc_m].;
#X obj 59 53 doc_link #hello;
#X obj 97 157 doc_m c0 symbol;
#X text 232 157 name to be displayed. clicking on the object will cause
\$1-help.pd to be opened.;
#X text 182 54 <--- this is a [doc_link #hello] that points to #hello-help.pd.
the file will be looked for according to [gf/find_file 1] \, that is
\, like a [gf/find_file 0] in its parent.;
#X obj 3 127 doc_c 2;
#X obj 14 192 doc_cc 1;
#X obj 97 192 doc_m c1 float;
#X text 232 192 if 0 \, look for \$1-help.pd in doc/flow_classes/;
#X text 232 214 if 1 \, look for \$1.pd in doc/;
#X connect 6 1 7 0;
#X connect 9 1 10 0;
#X connect 14 1 15 0;
#X connect 14 1 16 0;
