#N canvas 335 118 568 300 10;
#X obj 0 0 doc_h;
#X obj 0 258 doc_f;
#X obj 108 45 doc_add;
#X obj 3 136 doc_i 2;
#X obj 3 218 doc_o 0;
#X obj 14 166 doc_ii 0;
#X obj 14 186 doc_ii 1;
#X obj 97 186 doc_m i1 float;
#X text 200 186 y;
#X obj 97 166 doc_m i0 bang;
#X obj 3 76 doc_c 1;
#X obj 14 106 doc_cc 0;
#X obj 97 106 doc_m c0 symbol;
#X text 195 37 add one [doc_m] to a given subsection.;
#X text 194 57 for use by [doc_c] [doc_i] [doc_o] only.;
#X connect 7 1 8 0;
