#N canvas 335 118 632 298 10;
#X obj 0 0 doc_h;
#X obj 0 264 doc_f;
#X text 146 38 an auto-positioning documentation header;
#X obj 3 67 doc_c 1;
#X obj 3 164 doc_i 0;
#X obj 3 204 doc_o 0;
#X obj 14 97 doc_cc 0;
#X obj 97 97 doc_m c0 float;
#X text 232 97 number of creation arguments in the class being documented.
;
#X obj 3 244 doc_also;
#X text 232 119 this will cause at least that many [doc_cc] objects
to be attached to this object.;
#X obj 103 244 doc_link doc_h;
#X obj 163 244 doc_link doc_o;
#X obj 223 244 doc_link doc_i;
#X obj 283 244 doc_link doc_cc;
#X connect 7 1 8 0;
#X connect 7 1 10 0;
#X connect 9 1 11 0;
#X connect 9 1 12 0;
#X connect 9 1 13 0;
#X connect 9 1 14 0;
