#N canvas 1049 565 632 299 10;
#X obj 0 0 doc_h;
#X obj 0 265 doc_f;
#X text 130 35 an auto-positioning documentation header;
#X obj 3 68 doc_c 1;
#X obj 3 165 doc_i 0;
#X obj 14 98 doc_cc 0;
#X obj 3 205 doc_o 0;
#X obj 97 98 doc_m c0 float;
#X obj 3 245 doc_also;
#X obj 103 245 doc_link doc_h;
#X obj 163 245 doc_link doc_i;
#X text 232 98 number of outlets in the class being documented.;
#X obj 223 245 doc_link doc_c;
#X text 232 120 this will cause at least that many [doc_oo] objects
to be attached to this object.;
#X obj 283 245 doc_link doc_oo;
#X connect 7 1 11 0;
#X connect 7 1 13 0;
#X connect 8 1 9 0;
#X connect 8 1 10 0;
#X connect 8 1 12 0;
#X connect 8 1 14 0;
