#N canvas 223 59 632 503 10;
#X obj 0 0 doc_h;
#X obj 3 449 doc_also;
#X obj 0 469 doc_f;
#X obj 14 245 doc_cc 0;
#X obj 3 215 doc_c 1;
#X obj 97 245 doc_m c0 float;
#X msg 37 77 200 200 300 300;
#X obj 37 39 bng 15 250 50 0 empty empty empty 17 7 0 10 -262144 -1
-1;
#X obj 37 57 t b b;
#X obj 3 303 doc_i 2;
#X obj 14 333 doc_ii 0;
#X obj 14 355 doc_ii 1;
#X obj 97 333 doc_m i0 grid;
#X text 232 333 4-element grid describing bounding box (bbox) of text
;
#X obj 232 355 doc_same 0;
#X obj 97 355 doc_m i1 float;
#X obj 3 387 doc_o 1;
#X obj 14 417 doc_oo 0;
#X obj 103 449 hpgl_objectbox;
#X obj 97 417 doc_m o0 <hpgl>;
#X text 232 417 messagebox shape (one box \, one inlet \, one outlet
\, two wings);
#X obj 37 117 list prepend add2;
#X obj 37 137 list trim;
#X msg 37 167 PU 190 310 PD 260 310 260 330 190 330 190 310 PU 190
190 PD 260 190 260 170 190 170 190 190 PU 190 170 PD 370 170 330 210
330 290 370 330 190 330 190 170;
#X msg 98 140 set;
#X obj 37 97 hpgl_messagebox 10;
#X text 232 245 scale factor. just like in [hpgl_objectbox]. in addition
\, the wings go 7*scale farther to the right and go diagonally left
by 4*scale in both x and y.;
#X connect 1 1 18 0;
#X connect 5 1 26 0;
#X connect 6 0 25 0;
#X connect 7 0 8 0;
#X connect 8 0 6 0;
#X connect 8 1 24 0;
#X connect 12 1 13 0;
#X connect 15 1 14 0;
#X connect 19 1 20 0;
#X connect 21 0 22 0;
#X connect 22 0 23 0;
#X connect 24 0 23 0;
#X connect 25 0 21 0;
