#N canvas 596 141 632 402 10;
#X obj 0 0 doc_h;
#X obj 0 368 doc_f;
#X obj 46 97 list.==;
#X obj 3 140 doc_c any;
#X obj 14 170 doc_cc any;
#X obj 97 170 doc_m cany <any>;
#X obj 3 202 doc_i 2;
#X obj 3 286 doc_o 1;
#X obj 14 232 doc_ii 0;
#X obj 14 254 doc_ii 1;
#X obj 14 316 doc_oo 0;
#X obj 97 232 doc_m i0 list;
#X obj 97 254 doc_m i1 list;
#X obj 97 316 doc_m o0 float bool;
#X text 232 316 1 if lists are same \, 0 if they are different.;
#X text 232 232 compare this list with the stored list;
#X text 232 170 all arguments together form a list being stored;
#X text 232 254 same as all arguments together;
#X msg 88 77 1 2 3;
#X msg 46 77 1 2 3;
#X floatatom 46 116 5 0 0 0 - - -;
#X obj 3 348 doc_also;
#X text 184 59 compare two lists and tell whether they are exactly
equal to each other.;
#X text 183 96 NOTE: does not really support nested lists.;
#X obj 103 348 sel;
#X msg 39 57 1 2 4;
#X msg 23 37 1 2 3 4;
#X connect 2 0 20 0;
#X connect 5 1 16 0;
#X connect 11 1 15 0;
#X connect 12 1 17 0;
#X connect 13 1 14 0;
#X connect 18 0 2 1;
#X connect 19 0 2 0;
#X connect 21 1 24 0;
#X connect 25 0 2 0;
#X connect 26 0 2 0;
