#N canvas 26 23 799 435 10;
#X obj 132 72 #transpose;
#X obj 133 51 #t;
#X obj 402 129 display;
#X obj 406 68 display;
#X obj 406 7 display;
#X obj 132 207 lti.CholeskyDecomposition 1;
#X obj 402 221 display;
#X obj 132 280 #transpose;
#X obj 132 250 #t;
#X obj 400 301 display;
#X obj 132 299 #inner \, seed (f #);
#X obj 132 226 #fold +;
#X obj 132 94 #inner \, seed (f #);
#X obj 132 188 #outer ignore (1 f #);
#X text 230 128 this will be decomposed:;
#X text 230 338 this is reconstituted:;
#X msg 133 29 3 3 f # 4 0 0 2 4 0 1 1 4;
#X connect 0 0 12 0;
#X connect 0 0 3 0;
#X connect 1 0 4 0;
#X connect 1 0 0 0;
#X connect 1 1 12 1;
#X connect 5 0 11 0;
#X connect 7 0 10 0;
#X connect 8 0 7 0;
#X connect 8 1 10 1;
#X connect 10 0 9 0;
#X connect 11 0 6 0;
#X connect 11 0 8 0;
#X connect 12 0 2 0;
#X connect 12 0 13 0;
#X connect 13 0 5 0;
#X connect 16 0 1 0;
