#N canvas 52 131 599 575 10;
#X obj 162 78 tgl 15 0 empty empty empty 0 -6 0 8 -24198 -1 -1 0 1
;
#X obj 182 99 #camera;
#X obj 182 77 metro 30;
#X msg 76 159 help;
#X msg 76 181 get;
#X obj 28 121 #in;
#X obj 110 210 lti.SplitImageToRGB 2;
#X msg 77 258 help;
#X msg 77 280 get;
#X obj 164 101 bng 15 250 50 0 empty empty empty 0 -6 0 8 -262144 -1
-1;
#X obj 110 356 #out window \, title Filtered;
#X obj 110 382 fps detailed;
#X obj 110 404 print fps;
#X obj 110 306 lti.MedianFilter 3;
#X obj 157 286 lti.MedianFilter 3;
#X obj 204 266 lti.MedianFilter 3;
#X obj 110 331 lti.MergeRGBToImage 1;
#X msg 28 98 load babbage.jpg;
#X obj 245 236 #out window \, title Original;
#X obj 127 164 t a;
#X obj 241 468 #clip;
#X obj 241 411 # -;
#X obj 241 449 # + 128;
#X obj 241 487 #out window \, title Difference;
#X obj 241 430 # << 3;
#X obj 28 74 loadbang;
#X obj -11 -10 cnv 15 600 30 empty empty empty 20 12 0 14 -233017 -355
0;
#X obj -11 24 cnv 15 600 15 empty empty empty 20 12 0 14 -228992 -66577
0;
#X text 3 -6 GridFlow::Rblti;
#X text 1 23 lti.MedianFilter;
#X obj -8 532 cnv 15 1100 30 empty empty empty 20 12 0 14 -233017 -66577
0;
#X text 7 540 GridFlow 0.8.5;
#X text 344 265 takes on channel at a time;
#X text 344 278 classifies neighbouring pixels;
#X text 344 291 and does a median. Useful for;
#X text 344 304 eliminating noise.;
#X connect 0 0 2 0;
#X connect 1 0 19 0;
#X connect 2 0 1 0;
#X connect 3 0 6 0;
#X connect 4 0 6 0;
#X connect 5 0 19 0;
#X connect 6 0 13 0;
#X connect 6 1 14 0;
#X connect 6 2 15 0;
#X connect 7 0 13 0;
#X connect 8 0 13 0;
#X connect 9 0 1 0;
#X connect 10 0 11 0;
#X connect 11 0 12 0;
#X connect 13 0 16 0;
#X connect 14 0 16 1;
#X connect 15 0 16 2;
#X connect 16 0 10 0;
#X connect 16 0 21 0;
#X connect 17 0 5 0;
#X connect 19 0 6 0;
#X connect 19 0 18 0;
#X connect 19 0 21 1;
#X connect 20 0 23 0;
#X connect 21 0 24 0;
#X connect 22 0 20 0;
#X connect 24 0 22 0;
#X connect 25 0 17 0;
