#N canvas 95 160 695 365 10;
#X msg 45 12 load babbage.jpg;
#X obj 45 33 #in;
#X msg 124 129 help;
#X obj 178 13 tgl 15 0 empty empty empty 0 -6 0 8 -24198 -1 -1 0 1
;
#X obj 208 55 #out window \, title Original;
#X obj 198 33 #camera;
#X obj 198 228 fps detailed;
#X obj 199 250 display;
#X obj 198 12 metro 10;
#X msg 124 149 get;
#X obj 198 181 lti.CannyEdges 10;
#X obj 197 204 #out window \, title Edge_detection;
#X obj 228 121 t a a;
#X obj 228 145 # avg;
#X obj 198 99 shunt;
#X obj 228 76 tgl 15 0 empty empty empty 0 -6 0 8 -262144 -1 -1 0 1
;
#X text 250 74 <-- Click to reduce noise by 30%;
#X msg 272 145 kernelSize \$1;
#X obj 272 128 nbx 5 14 0 1e+37 0 1 empty empty kernelSize 0 -6 0 10
-262144 -1 -1 7 256;
#X msg 377 145 variance \$1;
#X obj 377 128 nbx 5 14 0 128 0 1 empty empty variance 0 -6 0 10 -262144
-1 -1 1 256;
#X connect 0 0 1 0;
#X connect 1 0 4 0;
#X connect 1 0 10 0;
#X connect 2 0 10 0;
#X connect 3 0 8 0;
#X connect 5 0 4 0;
#X connect 5 0 14 0;
#X connect 6 0 7 0;
#X connect 8 0 5 0;
#X connect 9 0 10 0;
#X connect 10 0 11 0;
#X connect 11 0 6 0;
#X connect 12 0 13 1;
#X connect 12 1 13 0;
#X connect 13 0 10 0;
#X connect 14 0 10 0;
#X connect 14 1 12 0;
#X connect 15 0 14 1;
#X connect 17 0 10 0;
#X connect 18 0 17 0;
#X connect 19 0 10 0;
#X connect 20 0 19 0;
