#N canvas 10 71 613 583 10;
#X msg 144 38 load babbage.jpg;
#X obj 144 59 #in;
#X msg 11 124 help;
#X obj 40 40 tgl 15 0 empty empty empty 0 -6 0 8 -24198 -1 -1 0 1;
#X obj 65 81 lti.SplitImageToRGB 2;
#X obj 320 273 #greyscale_to_rgb;
#X obj 320 294 #out window \, title Thresholded;
#X obj 65 60 #camera;
#X obj 77 116 hsl 128 15 0 1 0 1 empty empty Threshold -2 -6 0 8 -262144
-1 -1 5400 1;
#X obj 320 318 fps detailed;
#X obj 321 340 display;
#X obj 65 39 metro 10;
#X obj 65 172 lti.Thresholding 1;
#X msg 11 144 get;
#X msg 74 138 lowThreshold \$1;
#X msg 211 139 keepInRegion \$1;
#X obj 211 116 tgl 15 1 empty empty empty 0 -6 0 8 -262144 -1 -1 0
1;
#X text 232 115 <--- Gives binary image when not selected;
#X obj 65 199 lti.FastRelabeling 3;
#X obj 40 59 bng 15 250 50 0 empty empty empty 0 -6 0 8 -262144 -1
-1;
#X obj 320 251 #outer + (0);
#X obj 321 229 # << 4;
#X obj 65 260 lti.RegionsPolygonizer 1;
#X msg 228 238 5;
#X obj 66 286 display;
#X obj 120 312 display;
#X connect 0 0 1 0;
#X connect 1 0 4 0;
#X connect 2 0 12 0;
#X connect 3 0 11 0;
#X connect 4 0 12 0;
#X connect 5 0 6 0;
#X connect 6 0 9 0;
#X connect 7 0 4 0;
#X connect 8 0 14 0;
#X connect 9 0 10 0;
#X connect 11 0 7 0;
#X connect 12 0 18 0;
#X connect 13 0 12 0;
#X connect 14 0 12 0;
#X connect 15 0 12 0;
#X connect 16 0 15 0;
#X connect 18 0 21 0;
#X connect 18 0 22 0;
#X connect 19 0 7 0;
#X connect 20 0 5 0;
#X connect 21 0 20 0;
#X connect 22 0 24 0;
#X connect 22 1 25 0;
#X connect 23 0 22 1;
