#N canvas 119 228 613 419 10;
#X msg 144 38 load babbage.jpg;
#X obj 144 59 #in;
#X msg 11 175 help;
#X obj 40 40 tgl 15 0 empty empty empty 0 -6 0 8 -24198 -1 -1 1 1;
#X obj 65 81 lti.SplitImageToRGB 2;
#X obj 65 312 #greyscale_to_rgb;
#X obj 65 333 #out window \, title Thresholded;
#X obj 77 124 #out window \, title Original;
#X obj 77 103 #greyscale_to_rgb;
#X obj 65 60 #camera;
#X obj 77 167 hsl 128 15 0 1 0 1 empty empty Threshold -2 -6 0 8 -262144
-1 -1 6800 1;
#X obj 65 357 fps detailed;
#X obj 66 379 display;
#X obj 65 39 metro 10;
#X obj 65 223 lti.Thresholding 1;
#X msg 11 195 get;
#X msg 74 189 lowThreshold \$1;
#X msg 211 190 keepInRegion \$1;
#X obj 211 167 tgl 15 1 empty empty empty 0 -6 0 8 -262144 -1 -1 0
1;
#X text 232 166 <--- Gives binary image when not selected;
#X obj 89 255 lti.DistanceTransform 3;
#X obj 293 313 #greyscale_to_rgb;
#X obj 293 334 #out window \, title Thresholded;
#X obj 293 292 # *;
#X obj 40 61 bng 15 250 50 0 empty empty empty 0 -6 0 8 -262144 -1
-1;
#X obj 309 272 nbx 5 14 -1e+37 1e+37 0 1 empty empty empty 0 -6 0 10
-262144 -1 -1 9 256;
#X connect 0 0 1 0;
#X connect 1 0 4 0;
#X connect 2 0 14 0;
#X connect 3 0 13 0;
#X connect 4 0 8 0;
#X connect 4 0 14 0;
#X connect 5 0 6 0;
#X connect 6 0 11 0;
#X connect 8 0 7 0;
#X connect 9 0 4 0;
#X connect 10 0 16 0;
#X connect 11 0 12 0;
#X connect 13 0 9 0;
#X connect 14 0 5 0;
#X connect 14 0 20 0;
#X connect 15 0 14 0;
#X connect 16 0 14 0;
#X connect 17 0 14 0;
#X connect 18 0 17 0;
#X connect 20 0 23 0;
#X connect 21 0 22 0;
#X connect 23 0 21 0;
#X connect 24 0 9 0;
#X connect 25 0 23 1;
