#N canvas 482 269 566 300 10;
#X msg 240 124 load babbage.jpg;
#X obj 240 149 #in;
#X msg 103 146 help;
#X obj 147 195 #out window;
#X msg 236 71 0.5;
#X obj 146 127 f;
#X obj 98 73 metro 33;
#X obj 80 74 tgl 15 0 empty empty empty 0 -6 0 8 -24198 -1 -1 1 1;
#X obj 162 73 nbx 5 14 -1e+24 1e+24 0 1 empty empty empty 0 -6 0 10
-260818 -1 -1 6.72 256;
#X obj 186 125 print;
#X obj 241 103 loadbang;
#X obj 147 172 lti.Rotation 7;
#X msg 146 150 list d # \$1;
#X connect 0 0 1 0;
#X connect 1 0 11 1;
#X connect 2 0 11 0;
#X connect 4 0 5 1;
#X connect 5 0 12 0;
#X connect 6 0 5 0;
#X connect 7 0 6 0;
#X connect 8 0 5 1;
#X connect 8 0 9 0;
#X connect 10 0 0 0;
#X connect 11 0 3 0;
#X connect 12 0 11 0;
