#N canvas 0 0 628 251 10;
#X obj 184 201 setargs;
#X obj 184 163 list prepend set setargs-demo;
#X msg 194 136 bang;
#X obj 184 182 list trim;
#X msg 184 113 list hello world;
#X obj 53 96 # rand;
#X obj 53 41 tgl 15 0 empty empty empty 17 7 0 10 -204786 -1 -1 1 1
;
#X msg 53 77 10 # 1000;
#X obj 53 115 #to_list;
#X obj 53 22 inlet;
#X text 183 91 TRY THIS;
#X obj 53 58 metro 300;
#X connect 1 0 3 0;
#X connect 2 0 1 0;
#X connect 3 0 0 0;
#X connect 4 0 1 0;
#X connect 5 0 8 0;
#X connect 6 0 11 0;
#X connect 7 0 5 0;
#X connect 8 0 1 0;
#X connect 9 0 6 0;
#X connect 11 0 7 0;
