#N canvas 421 102 467 581 10;
#N canvas 0 0 570 631 files 0;
#X obj 45 109 hcs/folder_list;
#X obj 26 35 t b b b;
#X msg 45 128 add2 \$1;
#X msg 163 140;
#X msg 26 164 bang \, set;
#X obj 103 168 outlet;
#X obj 26 15 inlet;
#X msg 45 71 list *-help.pd cv/*-help.pd gf/*-help.pd;
#X obj 45 90 foreach;
#X msg 114 52 set list;
#X connect 0 0 2 0;
#X connect 1 0 4 0;
#X connect 1 1 7 0;
#X connect 1 2 9 0;
#X connect 2 0 3 0;
#X connect 3 0 5 0;
#X connect 4 0 3 0;
#X connect 6 0 1 0;
#X connect 7 0 8 0;
#X connect 8 0 0 0;
#X connect 9 0 3 0;
#X restore 172 115 pd files;
#X obj 172 96 loadbang;
#X obj 118 76 f;
#X obj 142 76 + 1;
#X symbolatom 184 153 30 0 0 0 - - -;
#X msg 138 57 0;
#X obj 142 402 r shoot;
#X obj 142 421 route end;
#X obj 178 489 symbol;
#X msg 178 508 \; pd-\$1 menuclose;
#X obj 142 440 delay;
#X obj 142 489 t b b;
#X obj 82 20 r \$0-next;
#X obj 142 559 s \$0-next;
#X obj 82 188 spigot;
#X obj 124 189 tgl 15 1 empty empty empty 17 7 0 10 -257985 -1 -1 1
1;
#X obj 142 540 spigot;
#X obj 184 541 tgl 15 1 empty empty empty 17 7 0 10 -257985 -1 -1 0
1;
#X floatatom 118 39 5 0 0 0 - - -;
#X obj 290 226 gf/canvas_xid 0;
#X msg 290 207 bang;
#X obj 290 297 #in;
#X obj 306 251 display;
#X msg 290 278 open x11 here \$1 up \, bang;
#X obj 82 169 symbol;
#X obj 118 115 listread;
#X obj 82 97 bng 15 250 50 0 empty empty empty 17 7 0 10 -4034 -1 -1
;
#X obj 82 116 t b b;
#X floatatom 124 96 5 0 0 0 - - -;
#X obj 118 134 route bang;
#X obj 65 142 bng 15 250 50 0 empty empty empty 17 7 0 10 -4034 -1
-1;
#X text 2 140 do current;
#X text 36 96 do next;
#X obj 82 226 list split 2;
#X obj 82 331 t l l;
#X msg 82 350 \; pd open \$1 \$2 \; justscreenshot 2500;
#X msg 211 348 symbol \$1;
#X obj 82 207 gf/s2l /;
#X obj 99 286 display;
#X msg 151 245 list \$1 .;
#X obj 185 188 r do;
#X obj 142 459 shunt;
#X obj 185 207 t b s b;
#X msg 178 459 \; pd quit;
#X msg 224 227 1;
#X msg 82 245 list \$2 \$1;
#X obj 290 316 #window;
#X obj 339 316 tgl 15 0 empty empty empty 17 7 0 10 -262144 -1 -1 0
1;
#X connect 0 0 25 1;
#X connect 1 0 0 0;
#X connect 2 0 3 0;
#X connect 2 0 25 0;
#X connect 2 0 28 0;
#X connect 3 0 2 1;
#X connect 4 0 24 1;
#X connect 5 0 2 1;
#X connect 6 0 7 0;
#X connect 7 0 10 0;
#X connect 8 0 9 0;
#X connect 10 0 41 0;
#X connect 11 0 16 0;
#X connect 11 1 8 0;
#X connect 12 0 26 0;
#X connect 14 0 37 0;
#X connect 15 0 14 1;
#X connect 16 0 13 0;
#X connect 17 0 16 1;
#X connect 18 0 2 0;
#X connect 19 0 23 0;
#X connect 19 0 22 0;
#X connect 20 0 19 0;
#X connect 21 0 46 0;
#X connect 23 0 21 0;
#X connect 24 0 14 0;
#X connect 25 0 29 0;
#X connect 26 0 27 0;
#X connect 27 0 24 0;
#X connect 27 1 2 0;
#X connect 29 1 4 0;
#X connect 30 0 24 0;
#X connect 33 0 45 0;
#X connect 33 2 39 0;
#X connect 34 0 35 0;
#X connect 34 1 36 0;
#X connect 36 0 8 1;
#X connect 37 0 33 0;
#X connect 39 0 34 0;
#X connect 39 0 38 0;
#X connect 40 0 42 0;
#X connect 41 0 11 0;
#X connect 41 1 43 0;
#X connect 42 0 30 0;
#X connect 42 1 4 0;
#X connect 42 2 44 0;
#X connect 44 0 41 1;
#X connect 45 0 34 0;
#X connect 45 0 38 0;
#X connect 47 0 46 1;
