#N canvas 0 191 425 458 10;
#N canvas 0 0 450 300 files 0;
#X obj 46 85 hcs/folder_list;
#X msg 46 65 symbol *-help.pd;
#X obj 26 35 t b b b;
#X msg 84 35 set;
#X msg 46 105 add2 \$1;
#X msg 223 143;
#X msg 26 147 bang \, set;
#X obj 223 171 outlet;
#X obj 26 15 inlet;
#X connect 0 0 4 0;
#X connect 1 0 0 0;
#X connect 2 0 6 0;
#X connect 2 1 1 0;
#X connect 2 2 3 0;
#X connect 3 0 5 0;
#X connect 4 0 5 0;
#X connect 5 0 7 0;
#X connect 6 0 5 0;
#X connect 8 0 2 0;
#X restore 139 92 pd files;
#X obj 82 109 list;
#X obj 139 73 loadbang;
#X obj 82 71 f;
#X obj 107 71 + 1;
#X obj 82 90 t b a;
#X obj 82 128 listelement;
#X obj 82 54 bng 15 250 50 0 empty empty empty 17 7 0 10 -4034 -1 -1
;
#X symbolatom 82 166 30 0 0 0 - - -;
#X msg 99 52 0;
#X obj 82 289 r shoot;
#X obj 82 308 route end;
#X obj 82 147 t a a;
#X obj 118 346 symbol;
#X msg 118 365 \; pd-\$1 menuclose;
#X obj 82 327 delay;
#X obj 82 346 t b b;
#X obj 57 32 r \$0-next;
#X obj 82 416 s \$0-next;
#X obj 82 194 spigot;
#X obj 124 195 tgl 15 1 empty empty empty 17 7 0 10 -257985 -1 -1 1
1;
#X obj 82 397 spigot;
#X obj 124 398 tgl 15 1 empty empty empty 17 7 0 10 -257985 -1 -1 0
1;
#X floatatom 20 38 5 0 0 0 - - -;
#X floatatom 20 98 5 0 0 0 - - -;
#X obj 250 256 gf/canvas_xid 0;
#X msg 260 234 bang;
#X msg 250 209 whole;
#X obj 250 327 #in;
#X obj 266 281 display;
#X obj 250 346 #out window;
#X msg 250 308 open x11 here \$1 up \, bang;
#X msg 20 19 2;
#X msg 82 223 \; pd open \$1 . \; justscreenshot 2500;
#X connect 0 0 1 1;
#X connect 1 0 6 0;
#X connect 2 0 0 0;
#X connect 3 0 4 0;
#X connect 3 0 5 0;
#X connect 3 0 24 0;
#X connect 4 0 3 1;
#X connect 5 0 1 0;
#X connect 5 1 6 1;
#X connect 6 0 12 0;
#X connect 7 0 3 0;
#X connect 8 0 19 0;
#X connect 9 0 3 1;
#X connect 10 0 11 0;
#X connect 11 0 15 0;
#X connect 12 0 8 0;
#X connect 12 1 13 1;
#X connect 13 0 14 0;
#X connect 15 0 16 0;
#X connect 16 0 21 0;
#X connect 16 1 13 0;
#X connect 17 0 7 0;
#X connect 19 0 33 0;
#X connect 20 0 19 1;
#X connect 21 0 18 0;
#X connect 22 0 21 1;
#X connect 23 0 3 1;
#X connect 25 0 31 0;
#X connect 25 0 29 0;
#X connect 26 0 25 0;
#X connect 27 0 25 0;
#X connect 28 0 30 0;
#X connect 31 0 28 0;
#X connect 32 0 23 0;
