#N canvas 0 0 450 300 10;
#X obj 43 108 # weight;
#X obj 44 136 display;
#X obj 124 108 #print \, base 2;
#X msg 50 81 123456;
#X text 40 158 (should give 6);
#X connect 0 0 1 0;
#X connect 3 0 0 0;
#X connect 3 0 2 0;
