#N canvas 371 309 473 313 10;
#X obj 12 28 inlet;
#X obj 98 250 outlet;
#X obj 234 1 inlet;
#X obj 221 157 #to_list;
#X obj 68 28 inlet;
#X msg 107 207 op \$1;
#X obj 12 110 route outline;
#X obj 245 135 #store;
#X obj 245 116 t b f;
#X obj 257 233 #join 0;
#X obj 257 214 t a a;
#X obj 98 231 #draw_polygon put;
#X obj 120 32 args op color (polygon a (2 2 #));
#X obj 221 195 shunt;
#X msg 221 176 4 2 # \$1 \$2 \$1 \$4 \$3 \$4 \$3 \$2;
#X obj 257 195 #redim (5 2);
#X obj 296 214 # + (1 1 1 -1 -1 -1 -1 1 1);
#X connect 0 0 6 0;
#X connect 2 0 7 1;
#X connect 2 0 3 0;
#X connect 3 0 14 0;
#X connect 4 0 11 1;
#X connect 5 0 11 0;
#X connect 6 0 8 0;
#X connect 6 1 11 0;
#X connect 7 0 3 0;
#X connect 8 0 7 0;
#X connect 8 1 13 1;
#X connect 9 0 11 2;
#X connect 10 0 9 0;
#X connect 10 1 16 0;
#X connect 11 0 1 0;
#X connect 12 0 5 0;
#X connect 12 1 11 1;
#X connect 12 2 3 0;
#X connect 13 0 11 2;
#X connect 13 1 15 0;
#X connect 14 0 13 0;
#X connect 15 0 10 0;
#X connect 16 0 9 1;
