#N canvas 411 242 450 300 10;
#X obj 18 25 inlet;
#X obj 18 44 #clip;
#X obj 18 93 # << (16 8 0);
#X obj 18 112 #fold |;
#X obj 18 150 #to_list;
#X obj 18 169 outlet;
#X obj 132 31 args (bits18 a 0);
#X obj 132 50 sel 0;
#X msg 159 94 12 6 0;
#X obj 18 73 # >>;
#X msg 129 80 2;
#X obj 18 131 # ^ -1;
#X connect 0 0 1 0;
#X connect 1 0 9 0;
#X connect 2 0 3 0;
#X connect 3 0 11 0;
#X connect 4 0 5 0;
#X connect 6 0 7 0;
#X connect 7 1 8 0;
#X connect 7 1 10 0;
#X connect 8 0 2 1;
#X connect 9 0 2 0;
#X connect 10 0 9 1;
#X connect 11 0 4 0;
