#N canvas 173 217 450 300 10;
#X obj 20 20 inlet;
#X obj 20 229 outlet;
#X obj 87 104 pack 0 s \$0;
#X obj 159 39 inlet;
#X obj 68 39 t b b b;
#X msg 87 123 \; \$1/\$2 ping \$3-r;
#X obj 87 155 r \$0-r;
#X msg 59 169 0;
#X obj 20 39 t b b b;
#X obj 20 210 f;
#X obj 87 174 b;
#X msg 87 193 1;
#X obj 87 58 gf/canvas_dollarzero \$1;
#X obj 107 77 symbol \$2;
#X connect 0 0 8 0;
#X connect 2 0 5 0;
#X connect 3 0 13 1;
#X connect 4 1 12 0;
#X connect 4 2 13 0;
#X connect 6 0 10 0;
#X connect 7 0 9 1;
#X connect 8 0 9 0;
#X connect 8 1 4 0;
#X connect 8 2 7 0;
#X connect 9 0 1 0;
#X connect 10 0 11 0;
#X connect 11 0 9 1;
#X connect 12 0 2 0;
#X connect 13 0 2 1;
