#N canvas 0 0 632 387 10;
#X obj 0 0 doc_h gf/;
#X obj 0 353 doc_f;
#X obj 73 74 gf/canvas_dollarzero 0;
#N canvas 64 251 450 108 look_here 0;
#X obj 8 8 inlet;
#X obj 8 46 outlet;
#X obj 8 27 gf/canvas_dollarzero 1;
#X connect 0 0 2 0;
#X connect 2 0 1 0;
#X restore 211 74 pd look_here;
#X floatatom 73 93 5 0 0 0 - - -;
#X floatatom 211 93 5 0 0 0 - - -;
#X obj 141 46 loadbang;
#X text 344 64 fetch the \$0 of any canvas.;
#X obj 3 187 doc_i 1;
#X obj 3 125 doc_c 1;
#X obj 3 249 doc_o 1;
#X obj 14 155 doc_cc 0;
#X obj 14 217 doc_ii 0;
#X obj 14 279 doc_oo 0;
#X text 232 217 fetch value;
#X obj 97 217 doc_m i0 bang;
#X obj 97 155 doc_m c0 float;
#X text 232 155 canvas level;
#X text 232 301 if canvas level is 0 \, this is same as [\$0];
#X text 232 279 \$0 of the canvas at the specified level.;
#X obj 3 333 doc_also;
#X obj 97 279 doc_m o0 float;
#X obj 103 333 gf/canvas_filename;
#X connect 2 0 4 0;
#X connect 3 0 5 0;
#X connect 6 0 2 0;
#X connect 6 0 3 0;
#X connect 15 1 14 0;
#X connect 16 1 17 0;
#X connect 20 1 22 0;
#X connect 21 1 18 0;
#X connect 21 1 19 0;
