#N canvas 609 0 455 543 10;
#X obj 35 13 loadbang;
#X obj 63 61 bng 15 250 50 0 empty empty empty 17 7 0 10 -262144 -1
-1;
#X obj 18 369 bng 15 250 50 0 empty empty empty 17 7 0 10 -262144 -1
-1;
#X obj 16 42 bng 15 250 50 0 empty empty empty 17 7 0 10 -262144 -1
-1;
#X obj 34 41 t b b b;
#X obj 56 142 t a b;
#X obj 299 191 gf.suffix_lookup;
#X obj 299 248 display;
#X obj 392 210 display;
#X msg 299 172 symbol bar.jpg;
#X obj 345 229 display;
#X obj 34 485 print;
#X obj 56 188 #out;
#X msg 49 437 close;
#X msg 100 185 240 320 3 #;
#X obj 324 102 unix_time;
#X msg 322 80 bang;
#X obj 380 125 print c;
#X obj 357 144 print b;
#X obj 327 125 print a;
#X obj 34 367 #in;
#X obj 34 466 #out window \, title example_of_initbang_message;
#X msg 92 142 open teapot.ppm \, autoclose 1;
#X msg 59 367 open teapot.ppm \, bang \, bang \, bang;
#X msg 34 311 load teapot.ppm;
#X obj 254 403 #dim;
#X obj 254 422 display;
#X obj 34 330 t b a b;
#X obj 82 330 realtime;
#X floatatom 82 349 5 0 0 0 - - -;
#X msg 49 229 load rose-P2.pgm;
#X msg 49 249 load rose-P3.ppm;
#X msg 49 269 load rose-P5.pgm;
#X msg 49 290 load rose-P6.ppm;
#X msg 155 249 load rose-P3-gimp.ppm;
#X msg 155 290 load rose-P6-gimp.ppm;
#X obj 56 123 #scale_by 1;
#X obj 34 409 #downscale_by 1 smoothly;
#X msg 129 123 16;
#X msg 184 409 16;
#X obj 56 79 #in teapot.png;
#X obj 56 98 #rgb_to_greyscale;
#X connect 1 0 40 0;
#X connect 2 0 20 0;
#X connect 3 0 4 0;
#X connect 4 0 24 0;
#X connect 4 1 40 0;
#X connect 5 0 12 0;
#X connect 5 1 22 0;
#X connect 6 0 7 0;
#X connect 6 1 10 0;
#X connect 6 2 8 0;
#X connect 9 0 6 0;
#X connect 13 0 21 0;
#X connect 14 0 12 0;
#X connect 15 0 19 0;
#X connect 15 1 18 0;
#X connect 15 2 17 0;
#X connect 16 0 15 0;
#X connect 20 0 25 0;
#X connect 20 0 37 0;
#X connect 21 0 11 0;
#X connect 22 0 12 0;
#X connect 23 0 20 0;
#X connect 24 0 27 0;
#X connect 25 0 26 0;
#X connect 27 0 28 1;
#X connect 27 1 20 0;
#X connect 27 2 28 0;
#X connect 28 0 29 0;
#X connect 30 0 27 0;
#X connect 31 0 27 0;
#X connect 32 0 27 0;
#X connect 33 0 27 0;
#X connect 34 0 27 0;
#X connect 35 0 27 0;
#X connect 36 0 5 0;
#X connect 37 0 21 0;
#X connect 38 0 36 1;
#X connect 39 0 37 1;
#X connect 40 0 41 0;
#X connect 41 0 36 0;
