#N canvas 324 166 904 519 10;
#X msg 27 193 close;
#X obj 27 155 t a a b;
#X obj 75 228 #out;
#X obj 27 174 #finished;
#X obj 27 20 bng 15 250 50 0 empty empty empty 17 7 0 10 -24198 -1
-1;
#X obj 282 16 bng 15 250 50 0 empty empty empty 17 7 0 10 -24198 -1
-1;
#X obj 27 136 #cast b;
#X obj 282 71 #redim (16 16 13 7 1);
#X obj 282 90 #transpose 1 2;
#X obj 282 109 #redim (208 112 1);
#X obj 282 128 #greyscale_to_rgb;
#X obj 282 147 # * 170;
#X obj 282 52 #cast i;
#X obj 282 166 #out window;
#X obj 27 37 #in lucida-typewriter-12.grid;
#X text 52 17 BUG;
#X obj 32 59 #fold +;
#X obj 32 78 #fold +;
#X msg 75 155 open lucida-typewriter-12b.grid;
#X obj 32 97 #fold +;
#X obj 96 115 #print \, trunc 240;
#X obj 96 96 #redim (16 16);
#X obj 282 33 #in lucida-typewriter-12.grid;
#X obj 502 216 bng 15 250 50 0 empty empty empty 17 7 0 10 -24198 -1
-1;
#X obj 502 290 #greyscale_to_rgb;
#X obj 502 309 # * 170;
#X obj 502 252 #cast i;
#X obj 502 328 #out window;
#X obj 502 271 #redim (13 7 1);
#X obj 623 279 display;
#X obj 503 21 bng 15 250 50 0 empty empty empty 17 7 0 10 -24198 -1
-1;
#X obj 503 76 #redim (16 16 13 7 1);
#X obj 503 95 #transpose 1 2;
#X obj 503 114 #redim (208 112 1);
#X obj 503 133 #greyscale_to_rgb;
#X obj 503 152 # * 170;
#X obj 503 57 #cast i;
#X obj 503 171 #out window;
#X text 524 19 CRASH 2009.12.06;
#X obj 502 233 #in lucida-typewriter-12.grid \, headerless 13 7 1 \,
type b;
#X obj 691 160 * 91;
#X msg 691 198 seek_byte \$1 \, bang;
#X floatatom 691 142 5 0 0 0 - - -;
#X obj 691 179 + 24;
#X obj 503 38 #in lucida-typewriter-12.grid \, headerless 16 13 7 1
\, type b;
#X text 552 56 not needed anymore;
#X msg 279 265 9 # 1;
#X obj 279 284 #scan +;
#X obj 279 246 loadbang;
#X obj 237 303 #store;
#X obj 279 303 #redim (3 3);
#X obj 237 444 #print;
#X obj 237 286 bng 15 250 50 0 empty empty empty 0 -6 0 8 -262144 -1
-1;
#X obj 295 385 #out;
#X msg 317 360 open temp.grid;
#X msg 273 360 close;
#X obj 237 425 #in;
#X msg 237 406 load temp.grid;
#X obj 273 322 t a a b;
#X obj 273 341 #finished;
#X obj 237 322 t b a;
#X text 19 275 note: saving an incomplete grid;
#X text 19 287 causes an infinite loop on reload;
#X connect 0 0 2 0;
#X connect 1 0 3 0;
#X connect 1 1 2 0;
#X connect 1 2 18 0;
#X connect 3 0 0 0;
#X connect 4 0 14 0;
#X connect 5 0 22 0;
#X connect 6 0 1 0;
#X connect 7 0 8 0;
#X connect 8 0 9 0;
#X connect 9 0 10 0;
#X connect 10 0 11 0;
#X connect 11 0 13 0;
#X connect 12 0 7 0;
#X connect 14 0 6 0;
#X connect 14 0 16 0;
#X connect 16 0 17 0;
#X connect 17 0 19 0;
#X connect 18 0 2 0;
#X connect 19 0 21 0;
#X connect 21 0 20 0;
#X connect 22 0 12 0;
#X connect 23 0 39 0;
#X connect 24 0 25 0;
#X connect 25 0 27 0;
#X connect 26 0 28 0;
#X connect 28 0 24 0;
#X connect 30 0 44 0;
#X connect 31 0 32 0;
#X connect 32 0 33 0;
#X connect 33 0 34 0;
#X connect 34 0 35 0;
#X connect 35 0 37 0;
#X connect 36 0 31 0;
#X connect 39 0 26 0;
#X connect 39 0 29 0;
#X connect 40 0 43 0;
#X connect 41 0 39 0;
#X connect 42 0 40 0;
#X connect 43 0 41 0;
#X connect 44 0 36 0;
#X connect 46 0 47 0;
#X connect 47 0 50 0;
#X connect 48 0 46 0;
#X connect 49 0 60 0;
#X connect 50 0 49 1;
#X connect 52 0 49 0;
#X connect 54 0 53 0;
#X connect 55 0 53 0;
#X connect 56 0 51 0;
#X connect 57 0 56 0;
#X connect 58 0 59 0;
#X connect 58 1 53 0;
#X connect 58 2 54 0;
#X connect 59 0 55 0;
#X connect 60 0 57 0;
#X connect 60 1 58 0;
