#N canvas 443 0 806 413 10;
#X obj 28 158 gf/gl;
#X obj 28 177 display;
#X msg 28 139 get unpack_swap_bytes;
#X msg 36 116 get zoom_x;
#X msg 38 90 get projection_matrix;
#X text 172 89 16 elements;
#X text 101 117 normally float 1;
#X obj 415 50 gemwin;
#X obj 415 158 gf/gl;
#X obj 415 69 gemhead;
#X msg 415 31 dimen 256 256 \, create \, 1;
#X msg 415 126 scale 2 2 2 \, rotate \$1 0 0 1 \, begin quads \, vertex
-1 1 \, vertex 1 1 \, vertex 1 -1 \, vertex -1 -1 \, end;
#X obj 415 88 b;
#X obj 415 107 f;
#X obj 439 107 +;
#X floatatom 471 107 5 0 0 0 - - -;
#X obj 28 210 route3 projection_matrix;
#X obj 28 229 list prepend 4 4 f #;
#X obj 28 267 display;
#X obj 28 248 # + (f #);
#X msg 23 60 get_string version;
#X connect 0 0 1 0;
#X connect 0 0 16 0;
#X connect 2 0 0 0;
#X connect 3 0 0 0;
#X connect 4 0 0 0;
#X connect 9 0 12 0;
#X connect 10 0 7 0;
#X connect 11 0 8 0;
#X connect 12 0 13 0;
#X connect 13 0 11 0;
#X connect 13 0 14 0;
#X connect 14 0 13 1;
#X connect 15 0 14 1;
#X connect 16 0 17 0;
#X connect 17 0 19 0;
#X connect 19 0 18 0;
#X connect 20 0 0 0;
