#N canvas 770 0 450 300 10;
#X obj 72 211 print a;
#X obj 72 143 t a a;
#X obj 93 105 # +;
#X msg 99 60 3 3 # 2 3 5 7;
#X obj 108 143 t f f;
#X msg 108 124 1 \, 2 \, 3;
#X obj 99 192 pd/print b;
#X obj 183 208 display;
#X obj 272 129 #pack;
#X msg 272 110 1;
#X msg 299 110 2;
#X msg 206 118 zut;
#X msg 72 28 1 \, 2 \, 3 \, foo \, symbol foo \, bang \, list foo \,
list 42 \, list 42 b c \, list 42 53 67;
#X msg 29 104 zut;
#X obj 48 233 display;
#X msg 123 79 1 2 3 4 5;
#X msg 270 173 list () (()) ((()));
#X connect 1 0 0 0;
#X connect 1 0 14 0;
#X connect 1 1 6 0;
#X connect 2 0 1 0;
#X connect 3 0 2 0;
#X connect 4 0 0 0;
#X connect 4 1 6 0;
#X connect 4 1 7 0;
#X connect 5 0 4 0;
#X connect 8 0 7 0;
#X connect 9 0 8 0;
#X connect 10 0 8 1;
#X connect 11 0 7 0;
#X connect 12 0 1 0;
#X connect 13 0 1 0;
#X connect 15 0 2 0;
#X connect 16 0 7 0;
