#N canvas 0 0 632 305 10;
#X obj 0 0 doc_h;
#X obj 3 251 doc_also;
#X obj 0 271 doc_f;
#X obj 3 87 doc_c 1;
#X obj 14 117 doc_cc 0;
#X obj 97 117 doc_m c0 float;
#X obj 103 251 gf/canvas_loadbang;
#X text 232 117 canvas level;
#X obj 3 149 doc_i 1;
#X obj 14 179 doc_ii 0;
#X obj 97 179 doc_m i0 <any>;
#X text 232 179 any message (just like inlet of [s]);
#X obj 3 211 doc_o 0;
#N canvas 348 190 450 300 test 1;
#X obj 16 66 gf/canvas_send;
#X msg 16 47 vis 0;
#X obj 16 4 gf/canvas_send 1;
#X msg 16 -15 put bng;
#X text 14 -34 click here to add a bang button to the main help patch
;
#X text 14 30 click here to hide this subpatch;
#X connect 1 0 0 0;
#X connect 3 0 2 0;
#X restore 268 53 pd test;
#X connect 1 1 6 0;
#X connect 5 1 7 0;
#X connect 10 1 11 0;
