#N canvas 0 0 632 412 10;
#X obj 0 0 doc_h gf/;
#X obj 0 383 doc_f;
#X obj 63 76 gf/string_replace hiver printemps;
#X msg 57 56 symbol mon_pays_ce_n'est_pas_un_pays_c'est_l'hiver;
#X symbolatom 63 95 50 0 0 0 - - -;
#X obj 3 169 doc_c 2;
#X obj 3 253 doc_i 1;
#X obj 3 315 doc_o 1;
#X obj 14 199 doc_cc 0;
#X obj 14 221 doc_cc 1;
#X obj 14 283 doc_ii 0;
#X obj 14 345 doc_oo 0;
#X obj 97 199 doc_m c0 symbol;
#X obj 97 221 doc_m c1 symbol;
#X obj 97 283 doc_m i0 symbol;
#X obj 97 345 doc_m o0 symbol;
#X obj 57 37 loadbang;
#X text 232 199 string to look for;
#X text 232 221 string to replace with;
#X text 232 283 string to make modifications on;
#X text 233 345 modified string \, or unmodified string if no changes
were to be made.;
#X symbolatom 57 133 50 0 0 0 - - -;
#X obj 57 114 gf/string_replace pays ****;
#X text 365 55 lyric;
#X text 360 133 edited for the Clarity Act;
#X text 366 93 edited for the Global Warming;
#X connect 2 0 4 0;
#X connect 3 0 2 0;
#X connect 3 0 22 0;
#X connect 12 1 17 0;
#X connect 13 1 18 0;
#X connect 14 1 19 0;
#X connect 16 0 3 0;
#X connect 22 0 21 0;
