#N canvas 0 0 632 456 10;
#X obj 0 0 doc_h tk/;
#X obj 3 402 doc_also;
#X obj 0 422 doc_f;
#X obj 8 90 display;
#X obj 8 36 gf/tk_button c'est_une_étiquette_très_longue_pour_un_bouton_mais_quand_même
;
#X obj 38 68 f;
#X obj 62 68 + 1;
#X floatatom 38 87 5 0 0 0 - - -;
#X obj 149 91 gf/tk_button OK;
#X text 194 99 [gf/tk_button OK];
#X text 194 133 [gf/tk_button Cancel];
#X obj 126 126 gf/tk_button Cancel;
#X obj 3 194 doc_c 1;
#X obj 14 224 doc_cc 0;
#X obj 97 224 doc_m c0 symbol;
#X obj 3 256 doc_i 1;
#X obj 14 286 doc_ii 0;
#X obj 3 340 doc_o 1;
#X obj 14 370 doc_oo 0;
#X obj 97 286 doc_m i0 bang;
#X text 232 286 internal: sent from TkButton to this pd object;
#X obj 97 308 doc_m i0 size;
#X text 232 308 internal use only \, don't touch;
#X obj 97 370 doc_m o0 bang;
#X text 232 370 bang \, what else ?;
#X obj 103 402 bng 15 250 50 0 empty empty empty 17 7 0 10 -262144
-1 -1;
#X msg 126 402 bang;
#X text 232 224 given to TkButton's -text option (default: OK);
#X connect 1 1 25 0;
#X connect 1 1 26 0;
#X connect 4 0 3 0;
#X connect 4 0 5 0;
#X connect 5 0 7 0;
#X connect 5 0 6 0;
#X connect 6 0 5 1;
#X connect 14 1 27 0;
#X connect 19 1 20 0;
#X connect 21 1 22 0;
#X connect 23 1 24 0;
