#N canvas 497 75 622 468 10;
#X obj 20 102 bng 15 250 50 0 empty empty empty 0 -6 0 8 -24198 -1
-1;
#X obj 20 350 #store;
#X obj 136 306 # / 9;
#X obj 78 428 #out window;
#X obj 78 178 #in;
#X obj 20 66 tgl 15 0 empty empty empty 0 -6 0 8 -24198 -1 -1 0 1;
#X text 321 75 step 1: select one of those six grids;
#X obj 78 140 loadbang;
#X obj 20 83 metro 33.3667;
#X obj 78 409 t a;
#X obj 136 287 #convolve \, seed 4;
#X obj 322 95 loadbang;
#X text 10 365 feedback loop;
#X obj 136 325 shunt 2;
#X obj 191 327 tgl 15 0 empty empty empty 0 -6 0 8 -241291 -1 -1 0
1;
#X msg 307 205 0;
#X obj 183 365 # + 128;
#X msg 317 365 1;
#X text 0 24 Copyright 2002 Mathieu Bouchard;
#X text 380 318 Sharpen;
#X text 497 107 Blurs;
#X obj 183 346 # << 4;
#X msg 78 159 open babbage.jpg \, bang;
#X obj 136 344 # abs-;
#X obj 136 392 #clip;
#X msg 380 336 3 3 # -1 -1 -1 -1 17;
#X msg 380 291 3 3 # -1 -1 -1 -1 8;
#X msg 383 268 3 3 # 0 1 0 1 -4 1 0 1 0;
#X msg 383 246 1 3 # 0 9 -9;
#X msg 383 227 1 3 # 0 2 -2;
#X msg 371 127 3 3 # 1 1 1 1 1 1 1 1 1;
#X msg 377 147 3 3 # 4 0 0 0 1 0 0 0 4;
#X msg 367 187 3 3 # 2 2 2 2 -7 2 2 2 2;
#X msg 372 207 3 3 # 0 4 0 4 9 -4 0 -4 0;
#X text 390 170 Simple edge detection;
#X obj 134 197 display;
#X obj 277 186 t a b;
#X obj 287 346 t a b;
#X obj 210 217 # +;
#X msg 379 366 3 3 # 0 1 0 0 -1 0 0 0 0;
#X msg 379 386 3 3 # 0 0 0 0 -1 0 0 1 0;
#X text 506 281 Laplacian masks;
#X obj 0 0 doc_demo;
#X connect 0 0 1 0;
#X connect 1 0 10 0;
#X connect 2 0 13 0;
#X connect 4 0 9 0;
#X connect 5 0 8 0;
#X connect 7 0 22 0;
#X connect 8 0 0 0;
#X connect 9 0 1 1;
#X connect 9 0 3 0;
#X connect 10 0 2 0;
#X connect 11 0 30 0;
#X connect 13 0 23 0;
#X connect 13 1 21 0;
#X connect 14 0 13 1;
#X connect 15 0 14 0;
#X connect 16 0 24 0;
#X connect 17 0 14 0;
#X connect 21 0 16 0;
#X connect 22 0 4 0;
#X connect 23 0 24 0;
#X connect 24 0 9 0;
#X connect 25 0 36 0;
#X connect 26 0 37 0;
#X connect 27 0 37 0;
#X connect 28 0 37 0;
#X connect 29 0 36 0;
#X connect 30 0 36 0;
#X connect 31 0 36 0;
#X connect 32 0 36 0;
#X connect 33 0 36 0;
#X connect 36 0 38 0;
#X connect 36 1 15 0;
#X connect 37 0 38 0;
#X connect 37 1 17 0;
#X connect 38 0 10 1;
#X connect 38 0 35 0;
#X connect 39 0 37 0;
#X connect 40 0 37 0;
