#N canvas 0 0 1226 463 10;
#X obj 89 89 #in lucida-typewriter-12.grid;
#X obj 8 129 #text_to_image;
#X obj 8 91 gf/l2s;
#X obj 8 110 #import;
#X obj 8 72 t a b;
#X obj 44 148 #dim;
#X obj 44 167 #to_l;
#X msg 281 92 2 1 # 0 255;
#X obj 44 226 #for (0 0) (0 0);
#X obj 44 205 t b l;
#X msg 44 186 \$1 \$2;
#X obj 8 264 #join;
#X obj 8 302 #import (3);
#X obj 8 148 t a a;
#X obj 8 283 #reverse -1;
#X obj 59 340 == 255;
#X obj 8 359 spigot;
#X obj 8 321 #unpack 3;
#X obj 8 340 pack;
#X obj 50 397 namecanvas dude;
#X obj 8 397 s dude;
#X obj 281 73 loadbang;
#X obj 44 264 # + (128 192);
#X msg 8 53 list Who's your daddy ?;
#X obj 8 36 bng 15 250 50 0 empty empty empty 17 7 0 10 -4034 -1 -1
;
#X obj 0 0 doc_demo;
#X obj 44 245 # * 8;
#X msg 8 378 obj \$1 \$2 bng \, last color 13 \, last size 12;
#X text 9 413 the 'last' method is a GridFlow feature even though it
is in the canvas-class. See doc/canvas.pd for more info.;
#X connect 0 0 1 2;
#X connect 1 0 13 0;
#X connect 2 0 3 0;
#X connect 3 0 1 0;
#X connect 4 0 2 0;
#X connect 4 1 0 0;
#X connect 5 0 6 0;
#X connect 6 0 10 0;
#X connect 7 0 1 1;
#X connect 8 0 26 0;
#X connect 9 0 8 0;
#X connect 9 1 8 1;
#X connect 10 0 9 0;
#X connect 11 0 14 0;
#X connect 12 0 17 0;
#X connect 13 0 11 0;
#X connect 13 1 5 0;
#X connect 14 0 12 0;
#X connect 15 0 16 1;
#X connect 16 0 27 0;
#X connect 17 0 18 0;
#X connect 17 1 18 1;
#X connect 17 2 15 0;
#X connect 18 0 16 0;
#X connect 21 0 7 0;
#X connect 22 0 11 1;
#X connect 23 0 4 0;
#X connect 24 0 23 0;
#X connect 26 0 22 0;
#X connect 27 0 20 0;
