#N canvas 541 0 622 421 10;
#X obj 30 42 metro 33.3667;
#X obj 9 42 tgl 15 0 empty empty empty 0 -6 0 8 -262144 -1 -1 1 1;
#X obj 191 94 t b l;
#X obj 278 113 loadbang;
#X msg 278 132 0 192 255;
#X obj 30 153 #scale_by 8;
#X obj 30 206 #out window;
#X obj 30 334 # / 8;
#X obj 30 353 #to_list;
#X obj 191 113 #store;
#X obj 278 151 #color;
#X obj 208 245 #for (0 0) (8 8) (1 1);
#X obj 208 283 #fold &;
#X obj 219 223 loadbang;
#X obj 197 225 bng 15 250 50 0 empty empty empty 0 -6 0 8 -262144 -1
-1;
#X msg 204 188 0 0;
#X obj 30 187 #draw_image *>>8 \, tile 1;
#X obj 208 264 # !=;
#X obj 208 302 # * 128;
#X obj 208 321 #outer + (3 # 127);
#X obj 30 134 #store (64 64 3 #);
#X msg 76 107 64 64 3 #;
#X text 135 105 reset;
#X msg 230 94 put_at \$1 \$2 0;
#X obj 0 0 doc_demo;
#X obj 30 225 #mouse \, \, \, \, \,;
#X connect 0 0 20 0;
#X connect 1 0 0 0;
#X connect 2 0 9 0;
#X connect 2 1 23 0;
#X connect 3 0 4 0;
#X connect 4 0 10 0;
#X connect 4 0 15 0;
#X connect 5 0 16 0;
#X connect 6 0 25 0;
#X connect 7 0 8 0;
#X connect 8 0 2 0;
#X connect 9 0 20 1;
#X connect 10 0 9 1;
#X connect 11 0 17 0;
#X connect 12 0 18 0;
#X connect 13 0 11 0;
#X connect 14 0 11 0;
#X connect 15 0 16 2;
#X connect 16 0 6 0;
#X connect 17 0 12 0;
#X connect 18 0 19 0;
#X connect 19 0 16 1;
#X connect 20 0 5 0;
#X connect 21 0 20 1;
#X connect 23 0 20 1;
#X connect 25 0 7 0;
#X connect 25 1 7 0;
