#N canvas 551 40 646 541 10;
#X floatatom 234 296 5 0 0 0 - - -;
#X obj 61 -35 tgl 15 0 empty empty empty 0 -6 0 8 -24198 -1 -1 1 1
;
#X obj 200 255 loadbang;
#X floatatom 200 296 5 0 0 0 - - -;
#X obj 61 -18 metro 33.3667;
#X text 199 238 size of subimages;
#X obj 61 149 # /;
#X obj 61 168 # *;
#X obj 61 187 #store;
#X obj 61 225 #out window;
#X obj 127 178 #store;
#X obj 127 159 # *;
#X obj 1 418 cnv 15 640 30 empty empty empty 20 12 0 14 -200249 -66577
0;
#X obj 3 -85 cnv 15 640 30 empty empty empty 20 12 0 14 -233017 -66577
0;
#X text 16 -85 eclipse.pd;
#X obj 61 96 t b b;
#X obj 61 263 print;
#X obj 61 244 fps detailed;
#X text 9 425 GridFlow 0.8.3;
#X obj 200 333 # inv* (240 320);
#X text 16 -72 Copyright 2002 \, 2006 Mathieu Bouchard;
#X obj 160 113 #for (0 0) (240 320) (1 1);
#X obj 61 130 #store;
#X obj 127 140 #store;
#X obj 160 94 loadbang;
#X obj 61 206 # *>>8;
#X obj 61 20 #gamma 600;
#X text 183 131 this is actually like #remap_image but faster;
#X obj 61 1 #camera 0 \, size 240 320;
#X msg 234 277 16;
#X msg 200 277 12;
#X obj 61 58 t a a;
#X obj 61 77 #finished;
#X obj 200 314 #pack;
#X connect 0 0 33 1;
#X connect 1 0 4 0;
#X connect 2 0 29 0;
#X connect 2 0 30 0;
#X connect 3 0 33 0;
#X connect 4 0 28 0;
#X connect 6 0 7 0;
#X connect 7 0 8 0;
#X connect 8 0 25 0;
#X connect 9 0 17 0;
#X connect 10 0 25 1;
#X connect 11 0 10 0;
#X connect 15 0 22 0;
#X connect 15 1 23 0;
#X connect 17 0 16 0;
#X connect 19 0 6 1;
#X connect 19 0 7 1;
#X connect 21 0 22 1;
#X connect 21 0 23 1;
#X connect 22 0 6 0;
#X connect 23 0 11 0;
#X connect 24 0 21 0;
#X connect 25 0 9 0;
#X connect 26 0 31 0;
#X connect 28 0 26 0;
#X connect 29 0 0 0;
#X connect 30 0 3 0;
#X connect 31 0 32 0;
#X connect 31 1 8 1;
#X connect 31 1 10 1;
#X connect 32 0 15 0;
#X connect 33 0 11 1;
#X connect 33 0 19 0;
