#N canvas 595 0 621 704 10;
#X obj 13 52 tgl 15 0 empty empty empty 17 7 0 10 -24198 -1 -1 1 1
;
#X obj 13 387 t a a;
#X obj 13 412 # -;
#X obj 13 431 t a a;
#X obj 13 456 # -;
#X obj 13 475 t a a;
#X obj 13 500 # -;
#X obj 13 567 #clip;
#X obj 13 586 #out window;
#X obj 13 548 # + 128;
#X obj 13 529 # << 2;
#X obj 13 605 fps;
#X floatatom 13 624 5 0 0 0 - - -;
#X obj 13 167 #fft \, real;
#X obj 13 148 #cast f;
#X obj 13 205 #fft \, real \, sign 1;
#X obj 13 224 #cast i;
#X obj 13 243 # / 76800;
#X obj 314 95 # sq-;
#X obj 314 114 #fold +;
#X obj 314 209 #out window;
#X obj 314 57 #cast i;
#X obj 314 152 #clip;
#X obj 314 190 #remap_image;
#X obj 402 190 # - (120 160);
#X obj 13 69 metro 10;
#X obj 314 133 # sqrt;
#X obj 314 76 # / 277;
#X text 22 353 2nd derivative effects;
#X text 22 367 chosen because they emphasise noise;
#X obj 13 312 shunt;
#X obj 82 504 #convolve (3 3 # 0 1 0 1 -4 1);
#X obj 52 313 tgl 15 0 empty empty empty 17 7 0 10 -241291 -1 -1 0
1;
#X obj 314 171 #gamma 768;
#X obj 13 88 #camera 0 \, size 240 320;
#X obj 314 228 #mouse \, \, \, \,;
#X obj 439 270 sel 1;
#X obj 478 270 sel 1;
#X msg 478 289 0;
#X msg 439 289 1;
#X obj 346 347 pack 0 0 0;
#X obj 13 186 # * (2 f # 1 0);
#X obj 45 288 #out window;
#X obj 13 262 #clip;
#X obj 304 513 #inner (1 0);
#X obj 304 532 # * 255;
#X obj 304 494 #cast i;
#X obj 314 251 t b a;
#X obj 249 270 gf/oneshot;
#X obj 456 344 display;
#X obj 13 107 t a b;
#X obj 304 570 #out window \, title mask;
#X obj 239 342 #unpack;
#X obj 239 304 # * -1;
#X obj 239 323 # % (240 320);
#X obj 308 412 bng 15 250 50 0 empty empty empty 17 7 0 10 -262144
-1 -1;
#X obj 325 410 loadbang;
#X obj 239 361 pack 0 0 0;
#X obj 304 475 #store (240 320 3 2 f # 1);
#X obj 439 313 t a;
#X msg 339 448 reassign \, 240 320 3 2 f # 1;
#X obj 309 429 t b b;
#X obj 344 270 # + (120 160);
#X obj 344 298 #unpack;
#X obj 304 551 #remap_image;
#X obj 392 551 # - (120 160);
#X obj 0 0 doc_demo;
#X text 10 23 Copyright 2007 by Mathieu Bouchard;
#X text 63 623 8.35;
#X text 53 476 third time-derivative;
#X text 84 520 second space-derivative;
#X msg 346 366 put_at \$1 \$2 0 0 \, 1 1 3 2 f # \$3 \$3;
#X text 292 23 this patch is not really useful at this point. sorry.
;
#X connect 0 0 25 0;
#X connect 1 0 2 1;
#X connect 1 1 2 0;
#X connect 2 0 3 0;
#X connect 3 0 4 1;
#X connect 3 1 4 0;
#X connect 4 0 5 0;
#X connect 5 0 6 1;
#X connect 5 1 6 0;
#X connect 6 0 10 0;
#X connect 7 0 8 0;
#X connect 8 0 11 0;
#X connect 9 0 7 0;
#X connect 10 0 9 0;
#X connect 11 0 12 0;
#X connect 13 0 21 0;
#X connect 13 0 41 0;
#X connect 14 0 13 0;
#X connect 15 0 16 0;
#X connect 16 0 17 0;
#X connect 17 0 43 0;
#X connect 18 0 19 0;
#X connect 19 0 26 0;
#X connect 20 0 35 0;
#X connect 21 0 27 0;
#X connect 22 0 33 0;
#X connect 23 0 20 0;
#X connect 23 1 24 0;
#X connect 24 0 23 1;
#X connect 25 0 34 0;
#X connect 26 0 22 0;
#X connect 27 0 18 0;
#X connect 30 0 1 0;
#X connect 30 1 31 0;
#X connect 31 0 10 0;
#X connect 32 0 30 1;
#X connect 33 0 23 0;
#X connect 34 0 50 0;
#X connect 35 0 47 0;
#X connect 35 1 47 0;
#X connect 35 4 36 0;
#X connect 35 6 37 0;
#X connect 36 0 39 0;
#X connect 37 0 38 0;
#X connect 38 0 59 0;
#X connect 39 0 59 0;
#X connect 40 0 71 0;
#X connect 40 0 49 0;
#X connect 41 0 15 0;
#X connect 43 0 42 0;
#X connect 43 0 30 0;
#X connect 44 0 45 0;
#X connect 45 0 64 0;
#X connect 46 0 44 0;
#X connect 47 0 48 1;
#X connect 47 1 62 0;
#X connect 48 0 58 0;
#X connect 50 0 14 0;
#X connect 50 1 48 0;
#X connect 52 0 57 0;
#X connect 52 1 57 1;
#X connect 53 0 54 0;
#X connect 54 0 52 0;
#X connect 55 0 61 0;
#X connect 56 0 61 0;
#X connect 57 0 71 0;
#X connect 58 0 41 1;
#X connect 58 0 46 0;
#X connect 59 0 57 2;
#X connect 59 0 40 2;
#X connect 60 0 58 1;
#X connect 61 0 58 0;
#X connect 61 1 60 0;
#X connect 62 0 53 0;
#X connect 62 0 63 0;
#X connect 63 0 40 0;
#X connect 63 1 40 1;
#X connect 64 0 51 0;
#X connect 64 1 65 0;
#X connect 65 0 64 1;
#X connect 71 0 58 1;
