#N canvas 604 74 640 541 10;
#X obj 248 53 bng 15 250 50 0 empty empty empty 0 -6 0 8 -262144 -1
-1;
#N canvas 199 232 450 308 heat 1;
#X obj 99 56 inlet mask;
#X obj 22 42 t a a;
#X obj 22 23 inlet heatmap;
#X obj 22 234 outlet heatmap;
#X obj 22 80 #store;
#X obj 22 61 #finished;
#X obj 99 75 # > 128;
#X obj 84 151 # >> 4;
#X obj 22 215 # +;
#X obj 84 94 #convolve (3 3 # 1 3 1 3 -16 3);
#X obj 84 132 # + 8;
#X obj 84 113 # *;
#X connect 0 0 6 0;
#X connect 1 0 5 0;
#X connect 1 1 4 1;
#X connect 1 1 9 0;
#X connect 2 0 1 0;
#X connect 4 0 8 0;
#X connect 5 0 4 0;
#X connect 6 0 11 1;
#X connect 7 0 8 1;
#X connect 8 0 3 0;
#X connect 9 0 11 0;
#X connect 10 0 7 0;
#X connect 11 0 10 0;
#X restore 27 131 pd heat;
#X obj 27 111 #store;
#X obj 81 92 loadbang;
#X obj 27 75 tgl 15 0 empty empty empty 0 -6 0 8 -4034 -1 -1 1 1;
#X obj 27 413 #out window;
#X obj 247 187 #greyscale_to_rgb;
#X obj 247 168 # >> 2;
#X obj 48 73 s metro;
#X obj 27 432 #mouse \, ...;
#X obj 104 438 # >> 1;
#X obj 27 364 #scale_by 2;
#X msg 81 111 240 320 1 # 0;
#N canvas 205 52 520 286 finger 0;
#X msg 289 71 4 2 # 0 0 0 1 1 1 1 0;
#X obj 289 128 # +;
#X obj 28 23 inlet;
#X obj 28 189 outlet;
#X obj 289 14 inlet position;
#X obj 55 107 inlet button;
#X obj 289 33 #to_list;
#X obj 289 52 t b a;
#X obj 28 126 shunt;
#X obj 55 145 #draw_polygon + (40000);
#X obj 289 109 # - 1;
#X obj 289 90 # * 2;
#X connect 0 0 11 0;
#X connect 1 0 9 2;
#X connect 2 0 8 0;
#X connect 4 0 6 0;
#X connect 5 0 8 1;
#X connect 6 0 7 0;
#X connect 7 0 0 0;
#X connect 7 1 1 1;
#X connect 8 0 3 0;
#X connect 8 1 9 0;
#X connect 9 0 3 0;
#X connect 10 0 1 0;
#X connect 11 0 10 0;
#X restore 62 213 pd finger;
#X obj 15 453 fps detailed;
#X obj 16 473 display;
#X obj 90 154 f;
#X obj 115 154 + 1;
#X obj 27 150 t a b;
#X obj 140 173 ==;
#X obj 140 154 % 4;
#N canvas 340 133 341 379 render 0;
#X obj 12 285 # +;
#X obj 26 23 inlet heatmap;
#X obj 12 323 outlet rgb;
#X obj 123 23 inlet mask;
#X obj 26 53 t a a;
#X obj 26 80 #inner (1 3 # 2 4 6) \, op >>;
#X obj 82 161 t a a;
#X obj 88 189 # -;
#X obj 88 227 # + 128;
#X obj 12 304 #clip;
#X obj 88 208 # << 6;
#X obj 26 108 shunt 2;
#X obj 79 109 tgl 15 0 empty empty empty 0 -6 0 8 -262144 -1 -1 0 1
;
#X connect 0 0 9 0;
#X connect 1 0 4 0;
#X connect 3 0 0 1;
#X connect 4 0 5 0;
#X connect 5 0 11 0;
#X connect 6 0 7 1;
#X connect 6 1 7 0;
#X connect 7 0 10 0;
#X connect 8 0 0 0;
#X connect 9 0 2 0;
#X connect 10 0 8 0;
#X connect 11 0 0 0;
#X connect 11 1 6 0;
#X connect 12 0 11 1;
#X restore 28 321 pd render;
#X obj 295 282 #fold +;
#X obj 295 301 #fold +;
#X obj 295 339 #fold +;
#X obj 265 53 loadbang;
#X obj 247 130 # max;
#X obj 247 111 # << 1;
#X obj 247 149 # min 256;
#X obj 295 320 # / 320;
#X obj 295 358 # / 240;
#X obj 295 377 #to_float;
#X floatatom 294 406 5 0 0 0 - - -;
#X text 0 25 heat propagation simulation;
#X text 396 93 use a greyscale image here;
#X text 396 107 as a heat conduction map;
#X obj 247 73 #in pmask.png;
#X obj 0 0 doc_demo;
#X msg 107 395 border 0 \, move 0 1280;
#X obj 27 179 shunt;
#X obj 27 92 metro 10;
#X obj 247 92 # - 55;
#X text -1 39 Copyright 2005 \, 2010 by Mathieu Bouchard;
#X connect 0 0 36 0;
#X connect 1 0 18 0;
#X connect 2 0 1 0;
#X connect 3 0 12 0;
#X connect 4 0 40 0;
#X connect 5 0 9 0;
#X connect 5 0 14 0;
#X connect 6 0 21 1;
#X connect 7 0 6 0;
#X connect 9 0 10 0;
#X connect 9 1 10 0;
#X connect 9 4 13 1;
#X connect 10 0 13 2;
#X connect 11 0 5 0;
#X connect 12 0 2 1;
#X connect 13 0 2 1;
#X connect 13 0 21 0;
#X connect 14 0 15 0;
#X connect 16 0 17 0;
#X connect 17 0 20 0;
#X connect 18 0 39 0;
#X connect 18 1 16 0;
#X connect 19 0 39 1;
#X connect 20 0 16 1;
#X connect 20 0 19 0;
#X connect 21 0 11 0;
#X connect 22 0 23 0;
#X connect 23 0 29 0;
#X connect 24 0 30 0;
#X connect 25 0 36 0;
#X connect 26 0 28 0;
#X connect 27 0 26 0;
#X connect 28 0 1 1;
#X connect 28 0 7 0;
#X connect 29 0 24 0;
#X connect 30 0 31 0;
#X connect 31 0 32 0;
#X connect 36 0 41 0;
#X connect 38 0 5 0;
#X connect 39 0 2 1;
#X connect 39 1 13 0;
#X connect 40 0 2 0;
#X connect 40 0 8 0;
#X connect 41 0 27 0;
