#N canvas 692 45 580 451 10;
#X floatatom 176 332 5 0 0 0 - - -;
#X floatatom 221 213 5 0 0 0 - - -;
#X obj 119 294 route position;
#X obj -13 0 cnv 15 580 30 empty empty empty 20 12 0 14 -233017 -66577
0;
#X obj -16 417 cnv 15 580 30 empty empty empty 20 12 0 14 -200249 -66577
0;
#X text 0 13 Copyright 2003 Alexandre Castonguay;
#X text -4 38 Use the mouse position to scratch the video \, a touchscreen
works well.;
#X obj 119 275 #out window;
#X text 255 213 <-- frame number;
#X text 211 331 <-- get x values;
#X obj 92 130 bng 15 250 50 0 empty empty empty 0 -6 0 8 -24198 -1
-1;
#X text 0 0 scratch_video.pd;
#X text 16 424 GridFlow 0.9.0;
#X obj 176 374 s frame_number;
#X obj 143 112 r frame_number;
#X floatatom 135 378 5 0 0 0 - - -;
#X msg 47 137 get;
#X floatatom 169 236 5 0 0 0 - - -;
#X text 325 113 320 x 240 \, 128 frames;
#X obj 176 351 / 2.8;
#X text 326 128 as shot by matju in august 2004;
#X text 326 152 (it is Andrée's vintage cello);
#X text 326 140 in the city of Aylmer \, QC;
#X obj 119 177 #in;
#X msg 137 142 open quicktime violoncelle.mov;
#X obj 169 194 route frames float;
#X obj 119 313 unpack f f;
#X text 202 236 number of frames;
#X obj 283 194 display;
#X obj 119 93 metro 33.3333;
#X obj 119 112 f;
#X obj 119 76 tgl 15 0 empty empty empty 17 7 0 10 -4034 -1 -1 1 1
;
#X connect 0 0 19 0;
#X connect 2 0 26 0;
#X connect 7 0 2 0;
#X connect 10 0 23 0;
#X connect 14 0 30 1;
#X connect 16 0 23 0;
#X connect 19 0 13 0;
#X connect 19 0 15 0;
#X connect 23 0 7 0;
#X connect 23 1 25 0;
#X connect 24 0 23 0;
#X connect 25 0 17 0;
#X connect 25 1 1 0;
#X connect 25 2 28 0;
#X connect 26 1 0 0;
#X connect 29 0 30 0;
#X connect 30 0 23 0;
#X connect 31 0 29 0;
