#N canvas 618 79 623 432 10;
#X obj 40 56 tgl 15 0 empty empty empty 0 -6 0 8 -24198 -1 -1 1 1;
#X obj 76 111 tgl 15 0 empty empty empty 0 -6 0 8 -241291 -1 -1 1 1
;
#X floatatom 432 306 5 0 0 0 - - -;
#X obj 432 237 vsl 15 64 0 256 0 0 empty empty empty 0 -8 0 8 -260818
-1 -1 4000 1;
#X text 7 148 simple per-channel threshold;
#X text 276 93 bluescreen luma threshold;
#X text 401 151 here we have a mask;
#X text 381 163 (alpha as separate image);
#X text 399 175 make a RGBA image;
#X text 210 343 = medium blue;
#X obj 40 399 fps;
#X floatatom 64 399 5 0 0 0 - - -;
#X msg 70 342 240 320 3 # 0 0 170;
#X text 279 108 with alpha channel;
#X text 13 313 you could also load a picture;
#X text 13 325 instead of using uniform blue;
#X obj 40 92 #camera;
#X text -1 27 Copyright 2002 Mathieu Bouchard;
#X obj 330 166 # * 255;
#X obj 330 147 # >=;
#X obj 330 128 #rgb_to_greyscale;
#X obj 40 210 # -;
#X obj 40 267 # ||;
#X obj 40 286 # +;
#X obj 40 380 #out window;
#X text 427 32 see also color_detect.pd;
#X obj 306 190 #join;
#X obj 270 128 t b a;
#X obj 306 128 #t;
#X obj 40 229 # max;
#X obj 61 248 inv+;
#X obj 40 73 metro 33.333;
#X obj 0 0 doc_demo;
#X obj 70 361 #draw_image put \, alpha;
#X obj 40 111 shunt;
#X connect 0 0 31 0;
#X connect 1 0 34 1;
#X connect 2 0 19 1;
#X connect 2 0 21 1;
#X connect 2 0 23 1;
#X connect 2 0 30 0;
#X connect 3 0 2 0;
#X connect 10 0 11 0;
#X connect 12 0 33 0;
#X connect 16 0 34 0;
#X connect 18 0 26 1;
#X connect 19 0 18 0;
#X connect 20 0 19 0;
#X connect 21 0 29 0;
#X connect 22 0 23 0;
#X connect 23 0 24 0;
#X connect 24 0 10 0;
#X connect 26 0 33 1;
#X connect 27 0 12 0;
#X connect 27 1 28 0;
#X connect 28 0 26 0;
#X connect 28 1 20 0;
#X connect 29 0 22 0;
#X connect 30 0 22 1;
#X connect 31 0 16 0;
#X connect 33 0 24 0;
#X connect 34 0 21 0;
#X connect 34 1 27 0;
