#N canvas 770 0 450 689 10;
#X obj 28 15 tgl 15 0 empty empty empty 17 7 0 10 -24198 -1 -1 1 1
;
#X obj 172 7 bng 15 250 50 0 empty empty empty 17 7 0 10 -241291 -1
-1;
#X obj 189 12 loadbang;
#X obj 28 120 #remap_image;
#X floatatom 378 62 5 0 0 0 - - -;
#X obj 345 83 #pack;
#X obj 28 195 #cast f;
#X obj 28 492 #cast i;
#X obj 172 195 #cast f;
#X obj 172 233 #fft;
#X obj 172 214 #outer * (2 f # 1 0);
#X obj 28 176 # - 128;
#X obj 172 176 # - 128;
#X obj 28 511 #rgb_to_greyscale;
#X obj 29 648 display;
#X obj 28 411 # C.*conj;
#X obj 28 530 #t;
#X obj 28 609 # >=;
#X obj 28 628 #moment;
#X floatatom 378 42 5 0 0 0 - - -;
#X obj 193 610 #moment;
#X obj 194 633 display;
#X obj 191 567 #clip;
#X obj 191 548 # + 128;
#X obj 28 469 #inner (2 f # 1 0) \, seed (f #);
#X text 241 459 this is the same as magnitude;
#X text 244 472 because imaginary = 0 here;
#X obj 28 101 #store;
#X obj 28 51 shunt;
#X obj 65 52 tgl 15 0 empty empty empty 17 7 0 10 -241291 -1 -1 0 1
;
#X obj 58 70 #camera;
#X obj 228 121 gf.oneshot;
#X obj 189 121 t a a;
#X obj 301 122 bng 15 250 50 0 empty empty empty 17 7 0 10 -260818
-1 -1;
#X obj 141 645 fps;
#X obj 142 665 display;
#X obj 141 626 bang;
#X obj 331 216 # inv* (f # 1);
#X obj 172 252 # * (f #);
#X obj 191 529 # >> 5;
#X obj 189 31 t b b;
#X obj 233 164 #window A;
#X obj 83 182 #window B;
#X obj 148 183 tgl 15 0 empty empty empty 17 7 0 10 -241291 -1 -1 0
1;
#X obj 298 165 tgl 15 0 empty empty empty 17 7 0 10 -241291 -1 -1 0
1;
#X obj 319 587 tgl 15 0 empty empty empty 17 7 0 10 -241291 -1 -1 0
1;
#X obj 44 568 #fold max;
#X obj 44 549 #ravel;
#X obj 28 430 #t;
#X text 54 431 this bufferises the data to avoid an alignment warning
;
#X obj 28 450 #fft \, sign 1;
#X obj 331 235 # sq- (f #);
#X obj 116 120 # -;
#X obj 11 36 bng 15 250 50 0 empty empty empty 17 7 0 10 -24198 -1
-1;
#X obj 28 240 #fft \, real;
#X obj 350 280 tgl 15 0 empty empty empty 17 7 0 10 -241291 -1 -1 0
1;
#X obj 28 311 t a;
#X obj 262 301 #cast i;
#X obj 262 396 #clip;
#X obj 172 63 #in pure-data.jpg;
#X msg 331 197 list f # 76800;
#X obj 262 320 # sq-;
#X obj 262 282 spigot;
#X obj 262 339 #fold +;
#X obj 262 358 # sqrt;
#X obj 262 377 # >> 4;
#X obj 262 415 #window D;
#X obj 350 261 loadbang;
#X obj 191 586 #window C;
#X obj 191 510 spigot;
#X obj 319 568 loadbang;
#X obj 28 32 metro 33.3667;
#X connect 0 0 71 0;
#X connect 1 0 59 0;
#X connect 2 0 40 0;
#X connect 3 0 11 0;
#X connect 3 0 42 0;
#X connect 3 1 52 0;
#X connect 4 0 5 1;
#X connect 5 0 52 1;
#X connect 6 0 54 0;
#X connect 7 0 13 0;
#X connect 7 0 69 0;
#X connect 8 0 10 0;
#X connect 9 0 38 0;
#X connect 10 0 9 0;
#X connect 11 0 6 0;
#X connect 12 0 8 0;
#X connect 13 0 16 0;
#X connect 13 0 20 0;
#X connect 15 0 48 0;
#X connect 16 0 17 0;
#X connect 16 1 47 0;
#X connect 17 0 18 0;
#X connect 18 0 14 0;
#X connect 18 0 36 0;
#X connect 19 0 5 0;
#X connect 20 0 21 0;
#X connect 22 0 68 0;
#X connect 23 0 22 0;
#X connect 24 0 7 0;
#X connect 27 0 3 0;
#X connect 28 0 27 0;
#X connect 28 1 30 0;
#X connect 29 0 28 1;
#X connect 30 0 32 0;
#X connect 31 0 12 0;
#X connect 31 0 41 0;
#X connect 32 0 11 0;
#X connect 32 1 31 0;
#X connect 33 0 31 1;
#X connect 34 0 35 0;
#X connect 36 0 34 0;
#X connect 37 0 51 0;
#X connect 38 0 15 1;
#X connect 39 0 23 0;
#X connect 40 0 59 0;
#X connect 40 1 60 0;
#X connect 43 0 42 1;
#X connect 44 0 41 1;
#X connect 45 0 68 1;
#X connect 45 0 69 1;
#X connect 46 0 17 1;
#X connect 47 0 46 0;
#X connect 48 0 50 0;
#X connect 50 0 24 0;
#X connect 51 0 38 1;
#X connect 52 0 3 1;
#X connect 53 0 28 0;
#X connect 54 0 56 0;
#X connect 55 0 62 1;
#X connect 55 0 66 1;
#X connect 56 0 15 0;
#X connect 56 0 62 0;
#X connect 57 0 61 0;
#X connect 58 0 66 0;
#X connect 59 0 27 1;
#X connect 59 0 12 0;
#X connect 60 0 37 0;
#X connect 61 0 63 0;
#X connect 62 0 57 0;
#X connect 63 0 64 0;
#X connect 64 0 65 0;
#X connect 65 0 58 0;
#X connect 67 0 55 0;
#X connect 69 0 39 0;
#X connect 70 0 45 0;
#X connect 71 0 28 0;
