#N canvas 427 50 597 660 10;
#X obj 85 386 tgl 15 0 empty empty empty 0 -6 0 8 -241291 -1 -1 0 1
;
#X obj 71 138 # max 0;
#N canvas 52 305 399 248 motion 0;
#X obj 60 49 inlet;
#X obj 60 72 # +;
#X obj 60 161 outlet;
#X msg 108 51 0;
#X text 164 114 divide by 32 \, 16 \, 4;
#X text 4 1 we do like #fade but faster (because of >>);
#X text 4 15 feedback factors are 1/32 for red \, 1/16 for green \,
1/8 for blue.;
#X obj 175 85 # * (31 15 3);
#X obj 60 114 # >> (5 4 2);
#X obj 60 142 t a a;
#X connect 0 0 1 0;
#X connect 1 0 8 0;
#X connect 3 0 1 1;
#X connect 7 0 1 1;
#X connect 8 0 9 0;
#X connect 9 0 2 0;
#X connect 9 1 7 0;
#X restore 129 207 pd motion fade;
#X obj 27 252 shunt 2;
#X obj 71 58 #downscale_by 2 smoothly;
#X obj 27 387 shunt 2;
#X obj 81 254 tgl 15 0 empty empty empty 0 -6 0 8 -241291 -1 -1 0 1
;
#X obj 86 77 tgl 15 0 empty empty empty 0 -6 0 8 -241291 -1 -1 0 1
;
#X obj 26 -36 tgl 15 0 empty empty empty 0 -6 0 8 -24198 -1 -1 0 1
;
#X obj 315 250 fork;
#X obj 27 37 shunt 2;
#X msg 285 232 256;
#X obj 27 463 #out window;
#X obj 83 38 tgl 15 0 empty empty empty 0 -6 0 8 -241291 -1 -1 0 1
;
#X obj 27 504 print;
#X obj 284 273 #for 0 256 1;
#X floatatom 315 231 5 0 0 0 - - -;
#N canvas 67 462 236 230 detect 0;
#X obj 6 49 # max 0;
#X obj 6 11 inlet;
#X obj 6 68 # min 255;
#X obj 6 106 outlet;
#X obj 6 30 #inner (-1 -1 2) \, seed -20;
#X obj 6 87 #outer ignore (3 #);
#X connect 0 0 2 0;
#X connect 1 0 4 0;
#X connect 2 0 5 0;
#X connect 4 0 0 0;
#X connect 5 0 3 0;
#X restore 436 225 pd detect blue;
#X obj 102 120 hsl 128 15 0 127 0 0 empty empty empty -2 -6 0 8 -260818
-1 -1 0 1;
#X obj 27 178 shunt 2;
#X obj 169 324 tgl 15 0 empty empty empty 0 -6 0 8 -241291 -1 -1 0
1;
#X obj 27 324 shunt 2;
#X obj 27 484 fps detailed;
#X obj 285 212 loadbang;
#X obj 86 324 tgl 15 0 empty empty empty 0 -6 0 8 -241291 -1 -1 0 1
;
#X obj 71 296 #store;
#N canvas 81 205 480 500 sort 0;
#X obj 180 257 # * 255;
#X obj 10 345 # >> 0;
#X obj 113 472 outlet;
#X obj 226 42 inlet;
#X obj 225 191 # / 2;
#X obj 10 325 # +;
#X obj 44 9 inlet;
#X obj 242 150 # - 1;
#X obj 131 422 # +;
#X obj 180 238 # < 176;
#X obj 10 369 #store;
#X obj 91 28 #grade;
#X obj 131 444 # >> 1;
#X obj 283 266 # / 351;
#X obj 91 47 shunt 2;
#X obj 135 66 #grade;
#X obj 144 119 inlet;
#X text 271 128 extract width;
#X obj 10 266 #finished;
#X obj 283 247 # * 255;
#X obj 91 9 #fold +;
#X obj 91 119 shunt 4;
#X obj 117 399 shunt 4;
#X msg 235 126 \$2;
#X obj 211 65 #dim;
#X obj 44 37 t a a;
#X msg 186 127 \$1 \$2;
#X obj 211 85 #export_list;
#X obj 76 146 t a a;
#X obj 10 285 #for (0 0) (288 352) (1 1);
#X obj 106 176 #outer & (0 -1);
#X obj 292 300 #outer ignore (3 #);
#X obj 10 305 # * (1 0);
#X connect 0 0 31 0;
#X connect 1 0 10 0;
#X connect 3 0 14 1;
#X connect 4 0 9 1;
#X connect 5 0 1 0;
#X connect 6 0 25 0;
#X connect 7 0 13 1;
#X connect 8 0 12 0;
#X connect 9 0 0 0;
#X connect 10 0 22 0;
#X connect 11 0 14 0;
#X connect 12 0 2 0;
#X connect 13 0 31 0;
#X connect 14 0 21 0;
#X connect 14 1 15 0;
#X connect 15 0 21 0;
#X connect 16 0 21 1;
#X connect 16 0 22 1;
#X connect 18 0 29 0;
#X connect 19 0 13 0;
#X connect 20 0 11 0;
#X connect 21 0 28 0;
#X connect 21 1 28 0;
#X connect 21 2 9 0;
#X connect 21 3 19 0;
#X connect 22 0 2 0;
#X connect 22 1 8 0;
#X connect 23 0 4 0;
#X connect 23 0 7 0;
#X connect 24 0 27 0;
#X connect 25 0 20 0;
#X connect 25 1 10 1;
#X connect 25 1 24 0;
#X connect 25 1 8 1;
#X connect 26 0 29 1;
#X connect 27 0 23 0;
#X connect 27 0 26 0;
#X connect 28 0 18 0;
#X connect 28 1 30 0;
#X connect 29 0 32 0;
#X connect 30 0 5 1;
#X connect 31 0 2 0;
#X connect 32 0 5 0;
#X restore 86 344 pd sort me out;
#X obj 284 293 # gamma;
#X obj 71 118 # -;
#X obj 81 180 tgl 15 0 empty empty empty 0 -6 0 8 -241291 -1 -1 0 1
;
#X text 73 227 enable gamma correction;
#X obj 284 255 bng 15 250 50 0 empty empty empty 0 -6 0 8 -241291 -1
-1;
#N canvas 372 198 399 273 motion 0;
#X obj 15 113 # << 2;
#X obj 15 162 @! abs;
#X obj 15 9 inlet;
#X obj 18 80 # -;
#X obj 70 174 # + 128;
#X obj 15 245 outlet;
#X obj 15 204 # min 255;
#X obj 15 224 # max 0;
#X obj 70 155 # << 2;
#X obj 15 35 t a a;
#X obj 15 134 shunt 2;
#X obj 70 133 inlet render;
#X obj 155 54 inlet type;
#X obj 15 54 shunt 2;
#X connect 0 0 10 0;
#X connect 1 0 6 0;
#X connect 2 0 9 0;
#X connect 3 0 0 0;
#X connect 4 0 6 0;
#X connect 6 0 7 0;
#X connect 7 0 5 0;
#X connect 8 0 4 0;
#X connect 9 0 13 0;
#X connect 9 1 3 0;
#X connect 10 0 1 0;
#X connect 10 1 8 0;
#X connect 11 0 10 1;
#X connect 12 0 13 1;
#X connect 13 0 3 1;
#X restore 71 98 pd motion detection;
#X obj 104 324 hradio 15 1 0 4 empty empty empty 0 -6 0 8 -241291 -1
-1 0;
#X text 125 138 noise reduction (on find-edges only);
#N canvas 67 462 236 230 detect 0;
#X obj 16 49 # max 0;
#X obj 16 11 inlet;
#X obj 16 68 # min 255;
#X obj 16 106 outlet;
#X obj 16 30 #inner (2 -1 -1) \, seed -20;
#X obj 16 87 #outer ignore (3 #);
#X connect 0 0 2 0;
#X connect 1 0 4 0;
#X connect 2 0 5 0;
#X connect 4 0 0 0;
#X connect 5 0 3 0;
#X restore 436 206 pd detect red;
#X obj 26 -8 metro 33.3667;
#X obj 27 58 t a a;
#X text 100 38 Smaller Picture;
#X obj 27 78 shunt 2;
#X obj 210 85 vradio 15 1 0 2 empty empty empty 0 -6 0 8 -241291 -1
-1 0;
#X obj 162 416 #centroid;
#X obj 162 437 #export_list;
#X floatatom 164 476 5 0 0 0 - - -;
#X obj 163 456 unpack 0 0;
#X floatatom 228 476 5 0 0 0 - - -;
#N canvas 547 147 477 267 crosshair 0;
#X obj 12 224 outlet;
#X obj 12 9 inlet;
#X msg 21 125 12 2 # \$1 \$2 \$1 \$3 \$2 \$3 \$2 \$4 \$3 \$4 \$3 \$3
\$4 \$3 \$4 \$2 \$3 \$2 \$3 \$1 \$2 \$1 \$2 \$2;
#X msg 54 95 -32 -1 1 32;
#X obj 175 37 #fade 8;
#X obj 175 18 inlet;
#X obj 54 76 #finished;
#X obj 95 169 # + (120 160);
#X obj 12 205 #draw_polygon + (0 170 0);
#X obj 175 56 t a a;
#X connect 1 0 8 0;
#X connect 2 0 7 0;
#X connect 3 0 2 0;
#X connect 4 0 9 0;
#X connect 5 0 4 0;
#X connect 6 0 3 0;
#X connect 7 0 8 2;
#X connect 8 0 0 0;
#X connect 9 0 6 0;
#X connect 9 1 7 1;
#X restore 71 417 pd crosshair;
#X msg 127 -9 open dc1394;
#X msg 216 -8 open mpeg file images/movies/washington_zoom_in.mpeg
;
#X msg 216 12 open xine images/movies/washington_zoom_in.mpeg;
#X obj 27 16 #camera;
#X obj 185 13 #in;
#X obj 103 181 #fade;
#X msg 144 181 32 16 4;
#X obj 27 439 t a;
#X text 230 99 emboss;
#X text 229 85 hilite;
#X text 109 386 designed to work with "hilite" above;
#X obj 280 85 vradio 15 1 0 2 empty empty empty 0 -6 0 8 -241291 -1
-1 0;
#X text 299 85 motion;
#X text 300 99 presence;
#X obj -15 542 cnv 15 620 30 empty empty empty 20 12 0 14 -200249 -66577
0;
#X text -7 550 GridFlow 0.8.0;
#X text -7 550 GridFlow 0.8.0;
#X obj -13 -85 cnv 15 620 30 empty empty empty 20 12 0 14 -233017 -66577
0;
#X text 0 -72 Copyright 2002 Mathieu Bouchard;
#X text 0 -86 videodev_effects.pd;
#X obj 71 274 #outer ignore (0);
#X connect 0 0 5 1;
#X connect 1 0 19 0;
#X connect 2 0 3 0;
#X connect 3 0 21 0;
#X connect 3 1 67 0;
#X connect 4 0 37 0;
#X connect 5 0 54 0;
#X connect 5 1 41 0;
#X connect 5 1 46 0;
#X connect 6 0 3 1;
#X connect 7 0 39 1;
#X connect 8 0 36 0;
#X connect 9 0 31 0;
#X connect 9 1 27 1;
#X connect 10 0 37 0;
#X connect 10 1 4 0;
#X connect 11 0 16 0;
#X connect 12 0 22 0;
#X connect 13 0 10 1;
#X connect 15 0 27 0;
#X connect 16 0 9 0;
#X connect 18 0 28 1;
#X connect 19 0 3 0;
#X connect 19 1 2 0;
#X connect 20 0 26 2;
#X connect 21 0 5 0;
#X connect 21 1 26 0;
#X connect 22 0 14 0;
#X connect 23 0 11 0;
#X connect 24 0 21 1;
#X connect 25 0 21 0;
#X connect 26 0 5 0;
#X connect 27 0 25 1;
#X connect 28 0 1 0;
#X connect 29 0 19 1;
#X connect 31 0 15 0;
#X connect 32 0 28 0;
#X connect 33 0 26 1;
#X connect 36 0 50 0;
#X connect 37 0 39 0;
#X connect 39 0 19 0;
#X connect 39 1 32 0;
#X connect 40 0 32 1;
#X connect 41 0 42 0;
#X connect 41 0 46 1;
#X connect 42 0 44 0;
#X connect 44 0 43 0;
#X connect 44 1 45 0;
#X connect 46 0 54 0;
#X connect 50 0 10 0;
#X connect 52 0 3 0;
#X connect 53 0 52 1;
#X connect 54 0 12 0;
#X connect 58 0 32 2;
#X connect 67 0 25 0;
