#N canvas 560 15 621 659 10;
#X obj 44 86 @ min;
#X obj 7 1 tgl 15 0 empty empty empty 0 -6 0 8 -262144 -1 -1 1 1;
#X obj 44 106 @ max;
#X obj 355 116 @! abs;
#X obj 385 64 bng 15 250 50 0 empty empty empty 0 -6 0 8 -262144 -1
-1;
#X obj 45 596 @out x11;
#X obj 45 496 @outer <;
#X obj 45 516 @transpose;
#X obj 46 130 t a a;
#X obj 105 496 @for 64 -64 -1;
#X obj 46 310 shunt 2;
#X obj 107 313 tgl 15 0 empty empty empty 0 -6 0 8 -262144 -1 -1 0
1;
#X msg 328 284 4 2 # 0 0 0 1 1 1 1 0;
#X obj 45 555 @fade;
#X obj 45 535 @outer * ( 3 # 255 );
#X obj 197 185 f;
#X obj 222 194 % 36000;
#X obj 194 308 @redim ( 1 );
#X obj 46 616 fps;
#X floatatom 72 617 5 0 0 0 - - -;
#X obj 48 352 t a b;
#X obj 94 356 fps;
#X floatatom 123 360 5 0 0 0 - - -;
#X obj 45 379 spigot;
#X obj 125 388 f;
#X obj 151 386 + 1;
#X obj 115 407 == 0;
#X obj 388 89 @for -128 128 1;
#X obj 45 452 @redim ( 256 );
#X obj 35 66 @store ( 1 256 1 # 0 );
#X obj 200 87 @ * 1e+07;
#X obj 200 107 @ * -1e+07;
#X obj 38 45 t b;
#X obj 332 334 @ + ( 0 6 );
#X obj 372 31 loadbang;
#X obj 105 477 loadbang;
#X obj 132 555 loadbang;
#X obj 328 260 loadbang;
#X obj 240 523 @mouse \, ...;
#X obj 222 175 + 10;
#X obj 246 590 unpack 0 0;
#X obj 246 609 inv+ 64;
#X msg 309 611 0 \$1;
#X obj 351 310 t b l;
#X obj 109 334 @draw_polygon put ( 1 # );
#X obj 197 216 @ sin* 242666;
#X obj 246 629 << 12;
#X obj 45 399 @ >> 12;
#X obj 48 223 @ -;
#X obj 48 244 t a a;
#X obj 50 284 @ -;
#N canvas 627 255 450 300 synth 1;
#X obj 17 16 inlet;
#X obj 17 102 s foo;
#X obj 20 125 tabreceive~ foo;
#X obj 20 259 outlet~;
#X obj 17 80 @export_list;
#X obj 97 251 env~;
#X floatatom 98 274 5 0 0 0 - - -;
#X obj 109 17 loadbang;
#X obj 86 15 bng 15 250 50 0 empty empty empty 0 -6 0 8 -262144 -1
-1;
#X obj 18 58 @ /;
#X obj 68 58 @for 1 257 1;
#X obj 181 75 table foo 2048;
#X obj 21 144 rifft~;
#X obj 20 224 +~;
#X obj 21 168 expr~ tanh($v1*0.0001);
#X obj 79 213 lop~ 2000;
#X obj 17 36 @ * 2048;
#X obj 339 24 block~ 2048;
#X connect 0 0 16 0;
#X connect 2 0 12 0;
#X connect 4 0 1 0;
#X connect 5 0 6 0;
#X connect 7 0 10 0;
#X connect 8 0 10 0;
#X connect 9 0 4 0;
#X connect 10 0 9 1;
#X connect 12 0 14 0;
#X connect 13 0 5 0;
#X connect 13 0 3 0;
#X connect 14 0 15 0;
#X connect 15 0 13 0;
#X connect 16 0 9 0;
#X restore 510 499 pd synth;
#X obj 509 533 dac~;
#X obj 518 584 osc~ 440;
#X obj 297 86 @ < 127;
#X obj 295 107 @ < 127;
#X obj 244 567 @export_list;
#X obj 244 547 @ / 4;
#X obj 46 577 @scale_by 4;
#X obj 148 404 % 2;
#X obj 30 1 metro 16;
#X msg 84 555 4 1 16;
#X text 390 -3 comment;
#X obj 78 153 @convolve * + 1 ( 1 3 # 1 2 1 );
#X obj 73 173 @ >> 1;
#X obj 78 266 @ >> 8;
#X connect 0 0 2 0;
#X connect 1 0 60 0;
#X connect 2 0 8 0;
#X connect 3 0 54 0;
#X connect 3 0 55 0;
#X connect 4 0 27 0;
#X connect 5 0 18 0;
#X connect 5 0 38 0;
#X connect 6 0 7 0;
#X connect 7 0 14 0;
#X connect 8 0 48 1;
#X connect 8 1 63 0;
#X connect 9 0 6 1;
#X connect 10 0 20 0;
#X connect 10 1 44 0;
#X connect 11 0 10 1;
#X connect 12 0 33 0;
#X connect 13 0 58 0;
#X connect 14 0 13 0;
#X connect 15 0 39 0;
#X connect 15 0 45 0;
#X connect 16 0 15 1;
#X connect 17 0 44 1;
#X connect 18 0 19 0;
#X connect 20 0 23 0;
#X connect 20 0 29 1;
#X connect 20 1 21 0;
#X connect 20 1 24 0;
#X connect 21 0 22 0;
#X connect 23 0 47 0;
#X connect 24 0 25 0;
#X connect 24 0 26 0;
#X connect 25 0 59 0;
#X connect 26 0 23 1;
#X connect 27 0 3 0;
#X connect 28 0 6 0;
#X connect 28 0 51 0;
#X connect 29 0 0 0;
#X connect 30 0 0 1;
#X connect 31 0 2 1;
#X connect 32 0 15 0;
#X connect 32 0 29 0;
#X connect 33 0 44 2;
#X connect 34 0 27 0;
#X connect 35 0 9 0;
#X connect 36 0 61 0;
#X connect 37 0 12 0;
#X connect 38 0 57 0;
#X connect 38 1 57 0;
#X connect 38 4 11 0;
#X connect 39 0 16 0;
#X connect 40 0 41 0;
#X connect 40 1 42 0;
#X connect 41 0 46 0;
#X connect 42 0 43 0;
#X connect 43 0 12 0;
#X connect 43 1 33 1;
#X connect 44 0 20 0;
#X connect 46 0 17 0;
#X connect 47 0 28 0;
#X connect 48 0 49 0;
#X connect 49 0 50 0;
#X connect 49 1 65 0;
#X connect 50 0 10 0;
#X connect 51 0 52 0;
#X connect 51 0 52 1;
#X connect 54 0 30 0;
#X connect 55 0 31 0;
#X connect 56 0 40 0;
#X connect 57 0 56 0;
#X connect 58 0 5 0;
#X connect 59 0 24 1;
#X connect 60 0 32 0;
#X connect 61 0 13 1;
#X connect 63 0 64 0;
#X connect 64 0 48 0;
#X connect 65 0 50 1;
