#N canvas 11 80 632 461 10;
#X obj 0 0 doc_h gf/;
#X obj 0 427 doc_f;
#X text 471 61 strcmp for pd;
#X msg 73 161 list 1 1 0 1 1 1 0 1 1 0 0 1;
#X msg 73 122 add2 \$1;
#X obj 73 84 foreach;
#X obj 73 65 t a b;
#X msg 249 82 set list;
#X msg 73 46 list ah bay say day er eff jay ash ee jee kah ell;
#X obj 73 103 gf/string_< fence;
#X text 254 154 whether they respectively would go after "fence" in
a sorted list of words \, according to strcmp().;
#X obj 3 199 doc_c 1;
#X obj 3 261 doc_i 2;
#X obj 3 345 doc_o 1;
#X obj 14 229 doc_cc 0;
#X obj 14 291 doc_ii 0;
#X obj 14 313 doc_ii 1;
#X obj 14 375 doc_oo 0;
#X obj 97 229 doc_m c0 symbol;
#X obj 97 291 doc_m i0 symbol;
#X obj 97 313 doc_m i1 symbol;
#X obj 97 375 doc_m o0 float;
#X text 232 375 0 if first goes before \, 1 if first does not.;
#X text 232 291 first word;
#X text 232 229 second word;
#X obj 232 313 doc_same 0;
#X obj 3 407 doc_also;
#X obj 103 407 moses;
#X obj 145 407 <;
#X connect 4 0 3 0;
#X connect 5 0 9 0;
#X connect 6 0 5 0;
#X connect 6 1 7 0;
#X connect 7 0 3 0;
#X connect 8 0 6 0;
#X connect 9 0 4 0;
#X connect 18 1 24 0;
#X connect 19 1 23 0;
#X connect 20 1 25 0;
#X connect 21 1 22 0;
#X connect 26 1 27 0;
#X connect 26 1 28 0;
