#N canvas 184 193 450 373 10;
#X obj 93 88 hsl 128 15 0 255 0 0 empty empty empty -2 -6 0 8 -225271
-24198 -1 0 1;
#X obj 93 103 hsl 128 15 0 255 0 0 empty empty empty -2 -6 0 8 -228992
-62784 -1 0 1;
#X obj 93 73 hsl 128 15 0 255 0 0 empty empty empty -2 -6 0 8 -261689
-258699 -1 0 1;
#X obj 10 166 #pack 3;
#X obj 79 14 inlet rgb_color;
#X obj 15 188 outlet rgb_color;
#X obj 93 72 int;
#X obj 93 87 int;
#X obj 93 102 int;
#X obj 122 62 cnv 10 60 10 empty \$0-cnv empty 20 12 0 14 -262144 -262144
0;
#X obj 10 343 s \$0-cnv;
#X msg 10 324 color \$1;
#X obj 10 267 #export;
#X obj 10 248 # ^ -1;
#X obj 10 229 #fold |;
#X obj 216 123 loadbang;
#X msg 216 199 range \$1 \$2;
#X obj 216 180 #export_list;
#X obj 64 267 loadbang;
#X obj 64 305 - \$3;
#X msg 64 286 1;
#X obj 10 305 spigot;
#X obj 79 33 route delegate;
#X obj 181 33 #unpack 3;
#X obj 50 73 nbx 4 14 -1e+37 1e+37 0 0 empty empty empty 0 -6 0 8 -262144
-1 -1 0 256;
#X obj 50 88 nbx 4 14 -1e+37 1e+37 0 0 empty empty empty 0 -6 0 8 -262144
-1 -1 0 256;
#X obj 50 103 nbx 4 14 -1e+37 1e+37 0 0 empty empty empty 0 -6 0 8
-262144 -1 -1 0 256;
#X obj 216 161 # || (0 255);
#X obj 10 210 # << (16 8 0);
#X obj 216 142 #store ( \$1 \$2 );
#X connect 0 0 7 0;
#X connect 1 0 8 0;
#X connect 2 0 6 0;
#X connect 3 0 5 0;
#X connect 3 0 28 0;
#X connect 4 0 22 0;
#X connect 6 0 24 0;
#X connect 7 0 25 0;
#X connect 8 0 26 0;
#X connect 11 0 10 0;
#X connect 12 0 21 0;
#X connect 13 0 12 0;
#X connect 14 0 13 0;
#X connect 15 0 29 0;
#X connect 16 0 1 0;
#X connect 16 0 0 0;
#X connect 16 0 2 0;
#X connect 17 0 16 0;
#X connect 18 0 20 0;
#X connect 19 0 21 1;
#X connect 20 0 19 0;
#X connect 21 0 11 0;
#X connect 22 0 2 0;
#X connect 22 0 0 0;
#X connect 22 0 1 0;
#X connect 22 1 23 0;
#X connect 23 0 2 0;
#X connect 23 1 0 0;
#X connect 23 2 1 0;
#X connect 24 0 3 0;
#X connect 25 0 3 1;
#X connect 26 0 3 2;
#X connect 27 0 17 0;
#X connect 28 0 14 0;
#X connect 29 0 27 0;
#X coords 0 -1 1 1 173 58 1 50 60;
