#N canvas 324 243 578 415 10;
#X obj 179 99 @in ;
#X msg 391 127 3 3 # 0 4 0 4 9 -4 0 -4 0;
#X msg 311 127 3 3 # 4 0 0 0 1 0 0 0 4;
#X obj 48 180 bng 15 250 50 0 empty empty empty 0 -6 0 8 -262144 -1 -1;
#X obj 179 207 @convolve ;
#X obj 182 411 display ;
#X msg 338 262 1;
#X obj 179 291 @ +;
#X obj 181 386 fps detailed;
#X obj 82 133 for 0 10 1;
#X msg 274 127 3 3 # 1 1 1 1 1 1 1 1 1;
#X obj 179 359 @out x11;
#X obj 179 333 @ max 0;
#X msg 442 169 1 3 # 4 1 4;
#X obj 179 228 @ / 9;
#X obj 179 38 bng 15 250 50 0 empty empty empty 0 -6 0 8 -262144 -1 -1;
#X obj 82 103 bng 15 250 50 0 empty empty empty 0 -6 0 8 -262144 -1 -1;
#X text 75 173 step 3 (you may repeat);
#X obj 19 100 toggle ;
#X msg 313 336 16;
#X msg 338 283 0;
#X msg 179 64 open ppm file teapot.ppm \, bang;
#X obj 179 270 @! abs;
#X text 384 105 step 1: select one of those six grids;
#X obj 19 127 metro 5;
#X text 205 40 step 2;
#X obj 179 249 @ *;
#X msg 442 191 1 3 # 0 9 -9;
#X obj 179 312 @ min 255;
#X obj 58 267 @store ;
#X msg 350 127 3 3 # 2 2 2 2 -7 2 2 2 2;
#X msg 313 357 128;
#X connect 0 0 4 0;
#X connect 1 0 6 0;
#X connect 1 0 4 1;
#X connect 2 0 6 0;
#X connect 2 0 4 1;
#X connect 3 0 29 0;
#X connect 4 0 14 0;
#X connect 6 0 20 0;
#X connect 6 0 26 1;
#X connect 7 0 28 0;
#X connect 8 0 5 0;
#X connect 9 0 3 0;
#X connect 10 0 6 0;
#X connect 10 0 4 1;
#X connect 11 0 8 0;
#X connect 12 0 29 1;
#X connect 12 0 11 0;
#X connect 13 0 6 0;
#X connect 13 0 4 1;
#X connect 14 0 26 0;
#X connect 15 0 21 0;
#X connect 16 0 9 0;
#X connect 18 0 24 0;
#X connect 19 0 31 0;
#X connect 19 0 26 1;
#X connect 20 0 7 1;
#X connect 21 0 0 0;
#X connect 22 0 7 0;
#X connect 24 0 3 0;
#X connect 26 0 22 0;
#X connect 27 0 19 0;
#X connect 27 0 4 1;
#X connect 28 0 12 0;
#X connect 29 0 4 0;
#X connect 30 0 6 0;
#X connect 30 0 4 1;
#X connect 31 0 7 1;
