#N canvas 371 309 450 300 10;
#X obj 32 28 inlet;
#X obj 32 236 outlet;
#X obj 32 111 #draw_polygon put;
#X obj 233 20 inlet;
#X obj 233 40 #export_list;
#X msg 233 63 4 2 # \$1 \$2 \$1 \$4 \$3 \$4 \$3 \$2;
#X obj 72 28 inlet;
#X obj 121 13 loadbang;
#X obj 121 32 args op color;
#X msg 41 87 op \$1;
#X connect 0 0 2 0;
#X connect 2 0 1 0;
#X connect 3 0 4 0;
#X connect 4 0 5 0;
#X connect 5 0 2 2;
#X connect 6 0 2 1;
#X connect 7 0 8 0;
#X connect 8 0 9 0;
#X connect 8 1 2 1;
#X connect 9 0 2 0;
