#N canvas 210 217 686 442 10;
#X obj 33 38 inlet;
#X obj 33 418 outlet;
#X obj 33 305 #draw_polygon \$1;
#X obj 597 412 outlet attr;
#X msg 115 260 op \$1;
#X obj 115 222 loadbang;
#X obj 86 286 inlet;
#X obj 149 305 inlet;
#X obj 115 241 args op color pos;
#X obj 189 279 print foo;
#X obj 33 57 route2 grid position;
#X obj 100 76 #mouse \, \, \, \,;
#X obj 123 125 #transpose;
#X obj 33 399 #draw_rect put (3 # 255 0 0) (2 2 #);
#X msg 282 330 2 2 #;
#X msg 58 376 outline 1;
#X obj 67 354 loadbang;
#X obj 123 106 #outer + (12 -12);
#X connect 0 0 10 0;
#X connect 2 0 13 0;
#X connect 4 0 2 0;
#X connect 5 0 8 0;
#X connect 5 0 14 0;
#X connect 6 0 2 1;
#X connect 7 0 2 2;
#X connect 8 0 4 0;
#X connect 8 1 2 1;
#X connect 8 1 9 0;
#X connect 8 2 2 2;
#X connect 10 0 2 0;
#X connect 10 1 11 0;
#X connect 10 2 1 0;
#X connect 11 0 17 0;
#X connect 11 1 17 0;
#X connect 11 2 17 0;
#X connect 11 3 17 0;
#X connect 12 0 13 2;
#X connect 13 0 1 0;
#X connect 14 0 13 2;
#X connect 15 0 13 0;
#X connect 16 0 15 0;
#X connect 17 0 12 0;
