#N canvas 398 352 418 256 10;
#X obj 21 50 inlet;
#X obj 21 181 outlet;
#X obj 21 85 @ +;
#X obj 21 147 fork;
#X obj 21 119 @ / \$1;
#X obj 101 108 @ *;
#X obj 192 103 float \$1;
#X obj 192 80 loadbang;
#X obj 173 55 inlet;
#X text 20 7 new = (x-1)/x of old input + 1/x of new input;
#X obj 173 128 @ - 1;
#X text 215 56 select fade rate;
#X text 61 50 input;
#X text 70 184 output;
#X connect 0 0 2 0;
#X connect 2 0 4 0;
#X connect 3 0 1 0;
#X connect 3 1 5 0;
#X connect 4 0 3 0;
#X connect 5 0 2 1;
#X connect 6 0 10 0;
#X connect 7 0 6 0;
#X connect 8 0 4 1;
#X connect 8 0 10 0;
#X connect 10 0 5 1;
