#N canvas 365 236 450 300 10;
#X obj 27 152 outlet;
#X obj 27 25 inlet point;
#X obj 108 25 inlet size;
#X msg 27 101 12 2 # \$1 \$2 \$1 \$3 \$2 \$3 \$2 \$4 \$3 \$4 \$3 \$3
\$4 \$3 \$4 \$2 \$3 \$2 \$3 \$1 \$2 \$1 \$2 \$2;
#X msg 27 82 -32 -1 1 32;
#X obj 27 63 #finished;
#X obj 27 44 t a a;
#X obj 27 133 # +;
#X connect 1 0 6 0;
#X connect 3 0 7 0;
#X connect 4 0 3 0;
#X connect 5 0 4 0;
#X connect 6 0 5 0;
#X connect 6 1 7 1;
#X connect 7 0 0 0;
