#N canvas 0 0 583 454 10;
#X obj 21 20 inlet 2nd_moment_matrix;
#X obj 21 419 outlet angle;
#X obj 21 69 lti.Jacobi;
#X obj 21 208 #grade;
#X obj 53 88 #transpose;
#X obj 21 285 #store;
#X obj 21 189 # inv+ (f #);
#X text 76 211 sort eigenvectors;
#X text 76 223 by eigenvalues downwards;
#X obj 21 266 #redim (1);
#X obj 21 342 # atan;
#X obj 21 304 #unpack;
#X obj 74 304 #pack 1 f;
#X obj 21 323 #pack 1 f;
#X text 29 358 angle of (one of the two) longest radius;
#X text 113 247 but pick only biggest;
#X text 96 70 eigenvectors (axes of the ellipse);
#X text 28 370 centidegrees 0..35999;
#X text 27 148 squareroots of eigenvalues (radiuses of the ellipse)
;
#X obj 21 165 #t;
#X obj 147 296 #store;
#X text 185 21 (float);
#X obj 21 132 # sqrt (f #);
#X obj 21 45 #cast f;
#X obj 21 396 #export;
#X obj 21 238 #t;
#X obj 147 277 #outer + (0);
#X obj 134 420 outlet radiuses_sorted;
#X connect 0 0 23 0;
#X connect 2 0 22 0;
#X connect 2 1 4 0;
#X connect 3 0 25 0;
#X connect 4 0 5 1;
#X connect 5 0 11 0;
#X connect 6 0 3 0;
#X connect 9 0 5 0;
#X connect 10 0 24 0;
#X connect 11 0 13 0;
#X connect 11 1 12 0;
#X connect 12 0 10 1;
#X connect 13 0 10 0;
#X connect 19 0 6 0;
#X connect 19 1 20 1;
#X connect 20 0 27 0;
#X connect 22 0 19 0;
#X connect 23 0 2 0;
#X connect 24 0 1 0;
#X connect 25 0 9 0;
#X connect 25 1 26 0;
#X connect 26 0 20 0;
