#N canvas 183 47 528 562 10;
#X obj 10 15 inlet polygon;
#X obj 10 34 route2 precision;
#X obj 26 92 f;
#X obj 26 54 loadbang;
#X msg 26 73 256;
#X obj 16 509 outlet signature;
#X obj 304 502 #polygon_area;
#X obj 288 483 #t;
#X obj 288 521 # /;
#X msg 26 111 \$0-table resize \$1;
#X msg 239 55 \$0-table const 0;
#X obj 327 15 table \$0-table 256;
#X obj 208 74 #polygon_each_edge;
#X obj 208 93 #t;
#X obj 233 93 #t;
#X text 257 94 split;
#X obj 233 150 # atan;
#X obj 233 169 # *;
#X obj 51 92 s \$0-precision;
#X obj 258 169 r \$0-precision;
#X obj 233 188 # / 36000;
#X obj 233 226 #unpack;
#X obj 258 207 r \$0-precision;
#X obj 233 207 # %;
#X obj 249 112 #inner (0 1);
#X obj 233 131 #inner (1 0);
#X obj 233 245 t f f;
#X obj 267 455 for 0 0 1;
#X obj 353 476 for 0 0 -1;
#X obj 233 370 f;
#X obj 186 55 t b a b;
#X obj 233 351 until;
#X obj 135 369 sel;
#X obj 135 388 s \$0-stop;
#X obj 263 332 r \$0-stop;
#X obj 160 369 print;
#X obj 283 370 mod;
#X obj 299 351 r \$0-precision;
#X obj 258 370 +;
#X obj 138 162 #print edge;
#N canvas 642 350 344 210 closest-direction 1;
#X obj 27 23 inlet;
#X obj 52 68 r \$0-precision;
#X obj 27 144 outlet;
#X obj 27 49 -;
#X obj 27 68 mod;
#X obj 52 87 / 2;
#X obj 77 23 inlet;
#X obj 27 106 * 2;
#X obj 27 125 - 1;
#X obj 27 87 >;
#X connect 0 0 3 0;
#X connect 1 0 4 1;
#X connect 1 0 5 0;
#X connect 3 0 4 0;
#X connect 4 0 9 0;
#X connect 5 0 9 1;
#X connect 6 0 3 1;
#X connect 7 0 8 0;
#X connect 8 0 2 0;
#X connect 9 0 7 0;
#X restore 274 269 pd closest-direction;
#X msg 233 332 666;
#X connect 0 0 1 0;
#X connect 1 0 2 0;
#X connect 1 1 30 0;
#X connect 2 0 9 0;
#X connect 2 0 18 0;
#X connect 3 0 4 0;
#X connect 4 0 2 0;
#X connect 6 0 8 1;
#X connect 7 0 8 0;
#X connect 7 1 6 0;
#X connect 12 0 13 0;
#X connect 13 1 14 0;
#X connect 14 0 25 0;
#X connect 14 1 24 0;
#X connect 16 0 17 0;
#X connect 17 0 20 0;
#X connect 19 0 17 1;
#X connect 20 0 23 0;
#X connect 21 0 26 0;
#X connect 21 1 32 1;
#X connect 21 1 40 1;
#X connect 22 0 23 1;
#X connect 23 0 39 0;
#X connect 23 0 21 0;
#X connect 24 0 16 1;
#X connect 25 0 16 0;
#X connect 26 0 41 0;
#X connect 26 1 29 1;
#X connect 26 1 40 0;
#X connect 29 0 32 0;
#X connect 29 0 38 0;
#X connect 30 1 12 0;
#X connect 30 2 10 0;
#X connect 31 0 29 0;
#X connect 32 0 33 0;
#X connect 32 1 35 0;
#X connect 34 0 31 1;
#X connect 36 0 29 1;
#X connect 37 0 36 1;
#X connect 38 0 36 0;
#X connect 40 0 38 1;
#X connect 41 0 31 0;
