#N canvas 402 93 733 455 10;
#X obj 11 12 inlet;
#X obj 30 356 outlet;
#X obj 171 9 loadbang;
#X obj 171 47 t f;
#X obj 171 28 args (angle f 0);
#X obj 11 52 route axis;
#X obj 11 80 unpack 0 0 0;
#X obj 196 47 inlet angle;
#X obj 265 178 bng 15 250 50 0 empty empty empty 0 -6 0 8 -262144 -1
-1;
#X msg 92 56 1 2 3;
#X obj 325 245 #for (0 0) (0 0) (1 1);
#X obj 399 226 #redim (2);
#X obj 325 264 #fold inv+;
#X obj 325 283 # ==;
#X obj 342 108 # cos* 256;
#X obj 342 89 # +;
#X msg 342 69 2 2 1 # 0 9000 -9000 0;
#X obj 342 128 # - (2 2 1 # 256 0 0 256);
#X obj 342 198 #border (0 0 0) (0 0 0);
#X msg 498 179 \$1 \$1 0;
#X obj 498 160 - 2;
#X obj 325 302 # * 256;
#X obj 325 321 # +;
#X obj 84 375;
#X obj 92 37 loadbang;
#X text 346 51 do basic 2-D rotation;
#X text 352 173 add dummy dimensions;
#X obj 363 329 display;
#X obj 154 185 t a a;
#X obj 154 204 #finished;
#X obj 154 242 #store;
#X obj 154 261 #transpose;
#X obj 154 280 t a a;
#X obj 154 299 #finished;
#X obj 154 337 #store;
#X obj 154 356 #transpose;
#X msg 154 223 3 1 # 2 0 1;
#X msg 154 318 3 1 # 2 0 1;
#X obj 240 338 display;
#X obj 50 138 t a b b;
#X obj 443 316 cnv 15 250 60 empty empty empty 20 12 0 14 -258699 -66577
0;
#X text 449 323 doesn't work yet!;
#X text 451 338 making a [#rotate] should still;
#X text 450 353 use the Ruby version.;
#X connect 0 0 5 0;
#X connect 2 0 4 0;
#X connect 3 0 15 1;
#X connect 4 0 3 0;
#X connect 5 0 6 0;
#X connect 5 1 39 0;
#X connect 6 2 11 0;
#X connect 6 2 20 0;
#X connect 7 0 3 0;
#X connect 8 0 10 0;
#X connect 9 0 6 0;
#X connect 10 0 12 0;
#X connect 11 0 10 1;
#X connect 12 0 13 0;
#X connect 13 0 21 0;
#X connect 14 0 17 0;
#X connect 15 0 14 0;
#X connect 16 0 15 0;
#X connect 17 0 18 0;
#X connect 18 0 22 1;
#X connect 19 0 18 2;
#X connect 20 0 19 0;
#X connect 21 0 22 0;
#X connect 22 0 27 0;
#X connect 22 0 28 0;
#X connect 24 0 9 0;
#X connect 28 0 29 0;
#X connect 28 1 30 1;
#X connect 29 0 36 0;
#X connect 30 0 31 0;
#X connect 31 0 32 0;
#X connect 32 0 33 0;
#X connect 32 1 34 1;
#X connect 33 0 37 0;
#X connect 34 0 35 0;
#X connect 35 0 38 0;
#X connect 36 0 30 0;
#X connect 37 0 34 0;
#X connect 39 1 8 0;
#X connect 39 2 16 0;
