#N canvas 306 89 585 255 10;
#X obj 166 26 inlet;
#X obj 44 106 @rgb_to_greyscale;
#X obj 44 162 @fold +;
#X obj 44 188 @ >> 8;
#N canvas 0 0 450 300 gravity 0;
#X obj 77 20 inlet;
#X obj 75 276 outlet;
#X obj 77 54 t a a;
#X obj 41 90 @finished;
#X obj 125 79 @dim;
#X obj 126 105 @fold +;
#X obj 68 140 @for 0 0 1;
#X obj 172 190 @fold +;
#X obj 72 179 @ *;
#X obj 72 199 @fold +;
#X obj 72 249 @ /;
#X connect 0 0 2 0;
#X connect 2 0 3 0;
#X connect 2 1 4 0;
#X connect 2 1 7 0;
#X connect 2 1 8 1;
#X connect 3 0 6 0;
#X connect 4 0 5 0;
#X connect 5 0 6 1;
#X connect 6 0 8 0;
#X connect 7 0 10 1;
#X connect 8 0 9 0;
#X connect 9 0 10 0;
#X connect 10 0 1 0;
#X restore 43 221 pd gravity;
#X obj 50 244 @export;
#X obj 84 277 @two;
#X obj 85 301 @export_list;
#X obj 86 367 @ ==;
#X obj 51 132 @fold +;
#X obj 85 344 @for ( 0 0 ) ( 288 352 ) ( 1 1 );
#X obj 264 253 @finished;
#X obj 86 388 @fold |;
#X obj 194 319 inlet;
#X obj 98 441 @finished;
#X obj 98 469 @store;
#X obj 110 499 @outer * ( 255 -255 -255 );
#X obj 112 520 @ +;
#X obj 112 540 @ min 255;
#X obj 112 560 @ max 0;
#X obj 112 586 outlet;
#N canvas 521 225 442 279 transpose 0;
#X obj 82 16 inlet;
#X obj 79 219 outlet;
#X obj 88 54 t a a;
#X obj 79 90 @finished;
#X obj 79 120 @for ( 0 0 ) ( 0 0 ) ( 1 1 );
#X obj 79 147 @inner & + 0 ( 2 2 # 0 -1 -1 0 );
#X obj 79 173 @store;
#X obj 160 88 @inner & + 0 ( 2 2 # 0 -1 -1 0 );
#X obj 147 42 @dim;
#X connect 0 0 2 0;
#X connect 2 0 3 0;
#X connect 2 1 8 0;
#X connect 2 1 6 1;
#X connect 3 0 4 0;
#X connect 4 0 5 0;
#X connect 5 0 6 0;
#X connect 6 0 1 0;
#X connect 7 0 4 1;
#X connect 8 0 7 0;
#X restore 122 134 pd transpose;
#X obj 124 164 @fold +;
#X obj 137 189 @ >> 8;
#N canvas 0 0 450 300 gravity 0;
#X obj 77 20 inlet;
#X obj 75 276 outlet;
#X obj 77 54 t a a;
#X obj 41 90 @finished;
#X obj 125 79 @dim;
#X obj 126 105 @fold +;
#X obj 68 140 @for 0 0 1;
#X obj 172 190 @fold +;
#X obj 72 179 @ *;
#X obj 72 199 @fold +;
#X obj 72 249 @ /;
#X connect 0 0 2 0;
#X connect 2 0 3 0;
#X connect 2 1 4 0;
#X connect 2 1 7 0;
#X connect 2 1 8 1;
#X connect 3 0 6 0;
#X connect 4 0 5 0;
#X connect 5 0 6 1;
#X connect 6 0 8 0;
#X connect 7 0 10 1;
#X connect 8 0 9 0;
#X connect 9 0 10 0;
#X connect 10 0 1 0;
#X restore 134 219 pd gravity;
#X obj 141 242 @export;
#X obj 9 352 print list;
#X obj 91 414 fork;
#X obj 166 51 fork;
#X obj 9 332 outlet;
#X connect 0 0 28 0;
#X connect 1 0 9 0;
#X connect 2 0 3 0;
#X connect 3 0 4 0;
#X connect 4 0 5 0;
#X connect 5 0 6 0;
#X connect 6 0 7 0;
#X connect 7 0 8 1;
#X connect 7 0 29 0;
#X connect 8 0 12 0;
#X connect 9 0 21 0;
#X connect 9 0 2 0;
#X connect 10 0 8 0;
#X connect 11 0 10 0;
#X connect 12 0 27 0;
#X connect 13 0 10 1;
#X connect 14 0 15 0;
#X connect 15 0 16 0;
#X connect 16 0 17 0;
#X connect 17 0 18 0;
#X connect 18 0 19 0;
#X connect 19 0 20 0;
#X connect 21 0 22 0;
#X connect 22 0 23 0;
#X connect 23 0 24 0;
#X connect 24 0 25 0;
#X connect 25 0 6 1;
#X connect 27 0 14 0;
#X connect 27 1 15 1;
#X connect 28 0 11 0;
#X connect 28 0 1 0;
#X connect 28 1 17 1;
