#N canvas 0 0 209 71 10;
#X floatatom 3 37 5 0 0 0 - - -;
#X obj 75 36 hsl 128 15 0 1024 0 0 empty empty empty -2 -6 0 8 -225271
-24198 -1 0 1;
#X obj 75 55 hsl 128 15 0 1024 0 0 empty empty empty -2 -6 0 8 -228992
-62784 -1 0 1;
#X floatatom 3 56 5 0 0 0 - - -;
#X obj 75 17 hsl 128 15 0 255 0 0 empty empty empty -2 -6 0 8 -261689
-258699 -1 0 1;
#X floatatom 3 19 5 0 0 0 - - -;
#X obj 3 70 @pack 3;
#X obj 113 0 @export_list;
#X obj 58 0 unpack 0 0 0;
#X obj 3 1 inlet rgb_color;
#X obj 78 71 outlet rgb_color;
#X obj 43 16 int;
#X obj 43 35 int;
#X obj 43 54 int;
#X connect 0 0 6 1;
#X connect 1 0 12 0;
#X connect 2 0 13 0;
#X connect 3 0 6 2;
#X connect 4 0 11 0;
#X connect 5 0 6 0;
#X connect 6 0 10 0;
#X connect 7 0 8 0;
#X connect 8 0 4 0;
#X connect 8 1 1 0;
#X connect 8 2 2 0;
#X connect 9 0 7 0;
#X connect 11 0 5 0;
#X connect 12 0 0 0;
#X connect 13 0 3 0;
#X coords 0 0 1 1 120 56 1;
