#N canvas 0 0 450 300 10;
#X obj 131 81 + 1;
#X obj 131 37 bng 15 250 50 0 empty empty empty 0 -6 0 8 -262144 -1
-1;
#X floatatom 190 82 5 0 0 0 - - -;
#X msg 131 61 1;
#X floatatom 190 131 5 0 0 0 - - -;
#X obj 202 159 select 1;
#X obj 189 181 bng 15 250 50 0 empty empty empty 0 -6 0 8 -262144 -1
-1;
#X obj 70 39 inlet;
#X obj 131 119 outlet;
#X obj 247 89 inlet;
#X obj 190 106 == \$2;
#X msg 192 56 \$1;
#X floatatom 131 101 5 0 0 0 - - -;
#X obj 189 204 outlet;
#X connect 0 0 2 0;
#X connect 0 0 12 0;
#X connect 1 0 3 0;
#X connect 2 0 0 1;
#X connect 2 0 10 0;
#X connect 3 0 0 0;
#X connect 4 0 5 0;
#X connect 5 0 11 0;
#X connect 5 0 6 0;
#X connect 6 0 13 0;
#X connect 7 0 1 0;
#X connect 9 0 10 1;
#X connect 10 0 4 0;
#X connect 11 0 2 0;
#X connect 12 0 8 0;
