#N canvas 466 124 450 301 10;
#X obj 30 56 inlet from;
#X obj 190 56 inlet to;
#X obj 250 56 inlet step;
#X obj 55 234 outlet;
#X obj 250 82 t f;
#X obj 190 82 t f;
#X obj 55 34 args from to step;
#X obj 30 120 t f;
#X obj 55 120 t b f;
#X obj 30 81 route set float bang;
#X obj 55 140 until;
#X obj 55 159 f;
#X obj 80 159 +;
#X obj 55 190 moses;
#X obj 163 165 bang;
#X obj 260 112 print step;
#X obj 55 15 loadbang;
#X connect 0 0 9 0;
#X connect 1 0 5 0;
#X connect 2 0 4 0;
#X connect 2 0 15 0;
#X connect 4 0 12 1;
#X connect 5 0 13 1;
#X connect 6 0 7 0;
#X connect 6 1 5 0;
#X connect 6 2 4 0;
#X connect 7 0 11 1;
#X connect 8 0 10 0;
#X connect 8 1 7 0;
#X connect 9 0 7 0;
#X connect 9 1 8 0;
#X connect 9 2 10 0;
#X connect 10 0 11 0;
#X connect 11 0 12 0;
#X connect 11 0 13 0;
#X connect 12 0 11 1;
#X connect 13 0 3 0;
#X connect 13 1 14 0;
#X connect 14 0 10 1;
#X connect 16 0 6 0;
