#N canvas 585 232 450 420 10;
#X msg 47 78 2 2 f # 1 0 0 1;
#X obj 244 227 display;
#X msg 64 56 2 2 f # 1 1 0 1;
#X obj 234 94 display;
#X msg 77 31 3 3 f # 2 3 5 7 11 13 17 19 23;
#X obj 35 326 display;
#X obj 47 97 # + (f #);
#X obj 46 128 #t;
#X obj 34 304 #inner;
#X msg 48 277 seed (f #);
#X obj 48 256 loadbang;
#X obj 63 180 cv/#Invert;
#X connect 0 0 6 0;
#X connect 2 0 6 0;
#X connect 4 0 6 0;
#X connect 6 0 7 0;
#X connect 7 0 8 0;
#X connect 7 1 3 0;
#X connect 7 1 11 0;
#X connect 8 0 5 0;
#X connect 9 0 8 0;
#X connect 10 0 9 0;
#X connect 11 0 1 0;
#X connect 11 0 8 1;
