#N canvas 336 384 450 424 10;
#X obj 39 61 @in videodev /dev/video0;
#X msg 100 32 option size 120 160 \, option channel 1;
#X obj 9 35 metro 5;
#X obj 10 14 tgl 15 0 empty empty empty 0 -6 0 8 -262144 -1 -1 1 1
;
#X obj 36 246 @downscale_by ( 15 20 ) smoothly;
#X obj 37 269 @scale_by ( 32 32 );
#X obj 38 293 @out x11;
#X obj 39 85 t a a;
#X obj 39 109 @ -;
#X obj 36 225 @ min 255;
#X obj 35 200 @ max 0;
#X obj 36 128 @! abs;
#X obj 36 151 @ * 8;
#X obj 37 177 @ - 64;
#X obj 38 313 fps detailed;
#X obj 38 333 print;
#X connect 0 0 7 0;
#X connect 1 0 0 0;
#X connect 2 0 0 0;
#X connect 3 0 2 0;
#X connect 4 0 5 0;
#X connect 5 0 6 0;
#X connect 6 0 14 0;
#X connect 7 0 8 1;
#X connect 7 1 8 0;
#X connect 8 0 11 0;
#X connect 9 0 4 0;
#X connect 10 0 9 0;
#X connect 11 0 12 0;
#X connect 12 0 13 0;
#X connect 13 0 10 0;
#X connect 14 0 15 0;
