#N canvas 0 0 450 300 10;
#X obj 16 16 inlet;
#X obj 16 35 t b b;
#X obj 16 111 outlet;
#X obj 43 73 gf/error not open;
#X msg 16 92 not_open;
#X msg 43 54 uplevel 1;
#X connect 0 0 1 0;
#X connect 1 0 4 0;
#X connect 1 1 5 0;
#X connect 4 0 2 0;
#X connect 5 0 3 0;
