#N canvas 467 182 484 473 10;
#X obj 34 382 s;
#X obj 34 306 * 24;
#X obj 34 325 +;
#X msg 280 76 symbol pd-\$1;
#X obj 34 268 t f f;
#X obj 34 287 + 1;
#X obj 15 40 t b b b;
#X obj 15 21 inlet;
#X obj 280 57 gf/canvas_filename 2;
#X msg 34 363 obj 3 \$1 \$2 \$3;
#X obj 34 344 pack f s f;
#X obj 137 82 loadbang;
#X obj 134 63 inlet y;
#X obj 34 73 for 0 \$2 1;
#X obj 15 429 gf/canvas_loadbang 2;
#X obj 15 407 f;
#X obj 211 390 gf/canvas_count 2;
#X obj 34 113 t f b f;
#X obj 137 101 symbol doc_\$1\$1;
#X obj 73 158 pack f s;
#X obj 118 139 symbol \$1;
#X obj 118 120 loadbang;
#X obj 34 249 spigot;
#X msg 73 177 symbol \$2/\$1;
#X obj 53 199 doc_exist 3;
#X obj 53 218 ==;
#X connect 1 0 2 0;
#X connect 2 0 10 0;
#X connect 3 0 0 1;
#X connect 4 0 5 0;
#X connect 4 1 10 2;
#X connect 5 0 1 0;
#X connect 6 0 15 0;
#X connect 6 1 13 0;
#X connect 6 2 8 0;
#X connect 6 2 16 0;
#X connect 7 0 6 0;
#X connect 8 0 3 0;
#X connect 9 0 0 0;
#X connect 10 0 9 0;
#X connect 11 0 18 0;
#X connect 12 0 2 1;
#X connect 13 0 17 0;
#X connect 15 0 14 0;
#X connect 16 0 15 1;
#X connect 17 0 22 0;
#X connect 17 1 24 0;
#X connect 17 2 19 0;
#X connect 18 0 10 1;
#X connect 19 0 23 0;
#X connect 20 0 19 1;
#X connect 21 0 20 0;
#X connect 22 0 4 0;
#X connect 23 0 24 1;
#X connect 24 0 25 0;
#X connect 25 0 22 1;
