#N canvas 437 169 613 288 10;
#X obj 0 0 cnv 15 606 17 empty \$0-rect Classes 200 8 1 9 -88239 -262144
0;
#X obj 0 104 s \$0-rect;
#X obj 0 66 l2s;
#X msg 15 47 symbol  ;
#X text 75 46 &nbsp \;;
#X obj 0 28 args *;
#X msg 0 85 label \$1;
#X connect 2 0 6 0;
#X connect 3 0 2 1;
#X connect 5 0 2 0;
#X connect 6 0 1 0;
#X coords 0 -1 1 1 606 17 1 0 0;
