#N canvas 659 71 450 417 10;
#X obj 51 52 #in babbage.jpg;
#X obj 24 16 bng 15 250 50 0 empty empty empty 17 7 0 10 -4034 -1 -1
;
#X obj 56 240 #out;
#X msg 56 221 open babbage.png \, autoclose \, grid \$1;
#X obj 24 278 #in;
#X msg 24 259 load babbage.png;
#X obj 24 351 #out window;
#X obj 51 71 shunt 4;
#X obj 100 72 hradio 15 1 0 4 empty empty empty 0 -8 0 10 -262144 -1
-1 3;
#X obj 64 150 #inner (3 2 # 1 0 0 1 0 0);
#X obj 51 172 #rgb_to_greyscale;
#X obj 24 33 t b b;
#X obj 80 337 #inner (2 3 # 1 0 0 0 1 0);
#X obj 88 97 #rgb_to_rgba;
#X obj 22 305 #reverse -1;
#X obj 88 116 #reverse -1;
#X connect 0 0 7 0;
#X connect 1 0 11 0;
#X connect 3 0 2 0;
#X connect 4 0 14 0;
#X connect 5 0 4 0;
#X connect 7 0 10 0;
#X connect 7 1 9 0;
#X connect 7 2 3 0;
#X connect 7 3 13 0;
#X connect 8 0 7 1;
#X connect 9 0 3 0;
#X connect 10 0 3 0;
#X connect 11 0 5 0;
#X connect 11 1 0 0;
#X connect 12 0 6 0;
#X connect 13 0 15 0;
#X connect 14 0 6 0;
#X connect 15 0 3 0;
