#N canvas 515 0 732 691 10;
#X obj 63 174 #moment;
#X obj 32 174 #dim;
#X obj 13 155 t a a a;
#X obj 13 198 #finished;
#X obj 13 220 #for (0 0) (0 0) (1 1);
#X obj 153 6 r \$0-a;
#X obj 13 281 s \$0-a;
#X obj 63 155 #outer + (0);
#X obj 13 239 # ==;
#X obj 13 260 #fold |;
#X obj 153 25 #many tgl 8 8;
#X obj 13 25 #many tgl 8 8;
#X obj 302 39 #many #color 1 1 55 156;
#X text 299 21 [#many #color 1 1 55 156];
#X obj 293 174 #many tgl 3 3;
#X msg 293 120 delegate color 14;
#X obj 293 229 display;
#X msg 303 141 bang;
#X msg 427 122 3 3 # 1 0 0 0;
#X obj 541 266 s zut;
#X obj 487 285 namecanvas zut;
#X msg 541 247 last list 3 3 # 1 0 0 0;
#X msg 427 160 3 3 # 1 0;
#X msg 427 141 3 3 # 1 0 0;
#X obj 12 322 #many tgl 5 5 \, list 5 5 # 1 0 0 1;
#X text 12 302 [#many tgl 5 5 \, list 5 5 # 1 0 0 1];
#X obj 12 501 display;
#X msg 12 430 3 3 f #;
#X obj 12 449 #many nbx 3 3;
#X obj 259 447 #many #many-piece 3 3;
#X obj 22 566 #many hsl 3 3;
#X connect 0 0 8 1;
#X connect 1 0 4 1;
#X connect 2 0 3 0;
#X connect 2 1 1 0;
#X connect 2 2 7 0;
#X connect 3 0 4 0;
#X connect 4 0 8 0;
#X connect 5 0 10 0;
#X connect 7 0 0 0;
#X connect 8 0 9 0;
#X connect 9 0 6 0;
#X connect 11 0 2 0;
#X connect 14 0 16 0;
#X connect 15 0 14 0;
#X connect 17 0 14 0;
#X connect 18 0 14 0;
#X connect 21 0 19 0;
#X connect 22 0 14 0;
#X connect 23 0 14 0;
#X connect 27 0 28 0;
#X connect 28 0 26 0;
