#N canvas 555 28 450 551 10;
#X obj 17 242 #fft;
#X obj 17 122 #cast f;
#X obj 17 431 #clip;
#X obj 17 320 #cast i;
#X obj 17 469 fps detailed;
#X obj 18 493 print;
#X obj 8 11 tgl 15 0 empty empty empty 0 -6 0 8 -262144 -1 -1 1 1;
#X obj 207 239 # sq-;
#X obj 207 258 #fold +;
#X obj 207 277 # sqrt;
#X obj 207 296 #outer ignore (3 #);
#X obj 207 315 #clip;
#X obj 113 509 #print;
#X obj 113 490 #dim;
#X obj 17 348 #inner (2 3 # 1 0 0 0 1 0);
#X msg 50 241 sign \$1;
#X obj 108 222 tgl 15 0 empty empty empty 0 -6 0 8 -262144 -1 -1 0
1;
#X obj 108 239 * 2;
#X obj 108 258 - 1;
#X msg 26 218 skip \$1;
#X obj 26 201 tgl 15 0 empty empty empty 0 -6 0 8 -262144 -1 -1 0 1
;
#N canvas 227 350 642 300 moose 0;
#X obj 122 14 inlet mouse;
#X msg 249 147 1 # \$1;
#X obj 17 115 inlet rg;
#X obj 17 167 outlet rg;
#X obj 17 147 #draw_image put;
#X obj 203 14 loadbang;
#X obj 171 119 + 1;
#X obj 118 61 t a;
#X obj 122 33 #mouse ...;
#X msg 171 100 1;
#X obj 171 62 change;
#X obj 171 81 sel 1;
#X obj 249 166 #store (4 1 1 2 # 0 0 255 0 0 255 255 255);
#X obj 249 185 #scale_by;
#X obj 223 119 + 1;
#X msg 223 100 1;
#X obj 223 62 change;
#X obj 223 81 sel 1;
#X obj 249 119 % 4;
#X msg 197 201 1 # \$1;
#X floatatom 179 285 5 0 0 0 - - -;
#X floatatom 276 125 5 0 0 0 - - -;
#X obj 136 134 print;
#X obj 197 240 #export;
#X obj 210 261 t b a;
#X obj 197 220 #store (8 # 1 2 4 8 16 32 64 128);
#X obj 197 119 % 8;
#X connect 0 0 8 0;
#X connect 1 0 12 0;
#X connect 2 0 4 0;
#X connect 4 0 3 0;
#X connect 5 0 6 0;
#X connect 5 0 14 0;
#X connect 6 0 26 0;
#X connect 7 0 4 2;
#X connect 8 0 7 0;
#X connect 8 1 7 0;
#X connect 8 5 10 0;
#X connect 8 5 22 0;
#X connect 8 6 16 0;
#X connect 9 0 6 0;
#X connect 10 0 11 0;
#X connect 11 0 9 0;
#X connect 12 0 13 0;
#X connect 13 0 4 1;
#X connect 14 0 18 0;
#X connect 15 0 14 0;
#X connect 16 0 17 0;
#X connect 17 0 15 0;
#X connect 18 0 14 1;
#X connect 18 0 1 0;
#X connect 18 0 21 0;
#X connect 19 0 25 0;
#X connect 23 0 20 0;
#X connect 23 0 24 0;
#X connect 24 0 18 0;
#X connect 24 1 13 1;
#X connect 25 0 23 0;
#X connect 26 0 6 1;
#X connect 26 0 19 0;
#X restore 25 47 pd moose;
#X obj 25 28 #store (256 256 2 #);
#X obj 25 66 #inner (2 3 # 1 0 0 0 1 0);
#X obj 17 367 # + 128;
#X obj 233 56 #for 0 256 1;
#X obj 233 75 #solarize;
#X obj 233 151 #outer *;
#X obj 233 132 #store;
#X obj 233 113 #finished;
#X obj 233 170 #cast f;
#X obj 233 38 bng 15 250 50 0 empty empty empty 0 -6 0 8 -262144 -1
-1;
#X obj 253 36 loadbang;
#X obj 17 300 # *;
#X obj 233 94 t a a;
#X obj 233 207 # >> (f # 20);
#X obj 25 85 #out window \, title IN;
#X obj 17 450 #out window \, title OUT1;
#X obj 207 334 #out window \, title OUT2;
#X msg 133 3 256 256 2 #;
#X obj 25 9 metro 50;
#X connect 0 0 33 0;
#X connect 1 0 0 0;
#X connect 2 0 37 0;
#X connect 3 0 14 0;
#X connect 4 0 5 0;
#X connect 6 0 40 0;
#X connect 7 0 8 0;
#X connect 8 0 9 0;
#X connect 9 0 10 0;
#X connect 10 0 11 0;
#X connect 11 0 38 0;
#X connect 13 0 12 0;
#X connect 14 0 24 0;
#X connect 14 0 7 0;
#X connect 15 0 0 0;
#X connect 16 0 17 0;
#X connect 17 0 18 0;
#X connect 18 0 15 0;
#X connect 19 0 0 0;
#X connect 20 0 19 0;
#X connect 21 0 22 1;
#X connect 21 0 23 0;
#X connect 21 0 1 0;
#X connect 22 0 21 0;
#X connect 23 0 36 0;
#X connect 24 0 2 0;
#X connect 25 0 26 0;
#X connect 26 0 34 0;
#X connect 27 0 30 0;
#X connect 28 0 27 0;
#X connect 29 0 28 0;
#X connect 30 0 35 0;
#X connect 31 0 25 0;
#X connect 32 0 25 0;
#X connect 33 0 3 0;
#X connect 34 0 29 0;
#X connect 34 1 28 1;
#X connect 34 1 27 1;
#X connect 35 0 33 1;
#X connect 36 0 21 1;
#X connect 37 0 4 0;
#X connect 39 0 22 1;
#X connect 40 0 22 0;
