#N canvas 697 165 450 520 10;
#X obj 41 16 tgl 15 0 empty empty empty 17 7 0 10 -24198 -1 -1 0 1
;
#N canvas 0 0 450 300 hello 0;
#X obj 31 24 inlet;
#X obj 31 81 # / 320;
#X obj 31 157 # * 255;
#X obj 31 138 # != 0;
#X obj 31 100 # inv+ 7;
#X obj 31 43 #for 0 320 1;
#X obj 31 62 # * 7;
#X obj 31 119 #outer & (2 4 1);
#X obj 31 176 #redim (240 320 3);
#X obj 31 195 outlet;
#X connect 0 0 5 0;
#X connect 1 0 4 0;
#X connect 2 0 8 0;
#X connect 3 0 2 0;
#X connect 4 0 7 0;
#X connect 5 0 6 0;
#X connect 6 0 1 0;
#X connect 7 0 3 0;
#X connect 8 0 9 0;
#X restore 41 63 pd hello;
#X obj 41 86 shunt 2 \, mode 1;
#X obj 141 105 # inv+ 255;
#X obj 41 301 bng 15 250 50 0 empty empty empty 17 7 0 10 -241291 -1
-1;
#X obj 41 38 metro 1000;
#X text 62 300 this should receive a bang every second;
#X obj 41 181 route bang;
#X obj 115 181 #mouse \, ...;
#X obj 146 217 display;
#X obj 136 237 display;
#X obj 126 257 display;
#X obj 116 277 display;
#X obj 156 200 tgl 10 0 empty empty empty 17 7 0 10 -241291 -1 -1 0
1;
#X obj 166 200 tgl 10 0 empty empty empty 17 7 0 10 -241291 -1 -1 0
1;
#X obj 176 200 tgl 10 0 empty empty empty 17 7 0 10 -241291 -1 -1 0
1;
#X obj 196 162 loadbang;
#X obj 221 181 t f;
#X obj 196 181 +;
#X floatatom 196 200 5 0 0 0 - - -;
#X obj 250 61 #pack;
#X floatatom 280 45 5 0 0 0 - - -;
#X floatatom 250 29 5 0 0 0 - - -;
#X msg 250 110 move \$1 \$2;
#X msg 354 111 title BLAH;
#X obj 250 91 #to_list;
#X obj 61 247 print;
#X obj 41 153 #out sdl;
#X connect 0 0 5 0;
#X connect 1 0 2 0;
#X connect 2 0 27 0;
#X connect 2 1 3 0;
#X connect 3 0 27 0;
#X connect 5 0 1 0;
#X connect 7 0 4 0;
#X connect 7 1 8 0;
#X connect 7 1 26 0;
#X connect 8 0 12 0;
#X connect 8 1 11 0;
#X connect 8 2 10 0;
#X connect 8 3 9 0;
#X connect 8 4 13 0;
#X connect 8 5 14 0;
#X connect 8 6 15 0;
#X connect 8 7 18 0;
#X connect 16 0 18 0;
#X connect 17 0 18 1;
#X connect 18 0 17 0;
#X connect 18 0 19 0;
#X connect 20 0 25 0;
#X connect 21 0 20 1;
#X connect 22 0 20 0;
#X connect 23 0 27 0;
#X connect 24 0 27 0;
#X connect 25 0 23 0;
#X connect 27 0 7 0;
