#N canvas 770 204 450 483 10;
#X msg 32 29 0 #;
#X msg 48 67 2 3 5;
#X msg 56 86 2 2 # 2 3 5 7;
#X msg 63 105 2 2 2 # 2 3 5 7 11 13 17 19;
#X msg 40 48 list # 2;
#X msg 201 203 base 8;
#X msg 228 281 trunc 10;
#X msg 192 184 base 2;
#X msg 216 241 base 16;
#X msg 73 125 2 2 2 # 2 -3 5 -7 -11 13 -17 19;
#X msg 83 145 2 2 2 s # 2 -3 5 -7 -11 13 -17 19;
#X msg 93 165 2 2 2 f # 2 -3 5 -7 -11 13 -17 19;
#X obj 32 379 #print;
#X obj 32 360 t a;
#X obj 79 437 #print;
#X msg 79 365 0 # \, 0 0 # \, 0 3 # \, 3 0 # \, 0 0 0 # 0 0 3 # 0 3
0 # 3 0 0 # \, 3 3 0 # \, 3 0 3 # \, 0 3 3 #;
#X msg 209 222 base 10;
#X msg 236 300 maxrows 0;
#X connect 0 0 13 0;
#X connect 1 0 13 0;
#X connect 2 0 13 0;
#X connect 3 0 13 0;
#X connect 4 0 13 0;
#X connect 5 0 13 0;
#X connect 6 0 13 0;
#X connect 7 0 13 0;
#X connect 8 0 13 0;
#X connect 9 0 13 0;
#X connect 10 0 13 0;
#X connect 11 0 13 0;
#X connect 13 0 12 0;
#X connect 15 0 14 0;
#X connect 16 0 13 0;
#X connect 17 0 13 0;
