#N canvas 428 175 690 379 10;
#X obj 107 122 #to_list;
#X obj 167 122 #export_list;
#X obj 107 141 print a;
#X obj 167 141 print b;
#X obj 107 97 t a a;
#X msg 107 78 3 3 # 1 4 7 2 5 8 3 6 9;
#X obj 287 141 print a;
#X obj 363 141 print b;
#X obj 287 97 t a a;
#X obj 287 122 #to_symbol;
#X obj 363 122 #export_symbol;
#X obj 481 122 #to_float;
#X obj 548 122 #export;
#X obj 481 141 print a;
#X obj 548 141 print b;
#X obj 481 97 t a a;
#X msg 481 78 list f # 2.71828;
#X obj 405 251 #import (3 2 1 0);
#X msg 405 217 42;
#X msg 532 216 3 2 1 0;
#X msg 509 186 0;
#X msg 287 78 2 3 # 77 85 77 66 76 69;
#X msg 51 210 72 101 108 108 111 32 87 111 114 108 100 33;
#X obj 51 229 #to_float;
#X obj 51 248 print;
#X obj 51 294 #to_symbol;
#X symbolatom 51 321 15 0 0 0 - - -;
#X msg 51 275 72 101 108 108 111 32 87 111 114 108 100 33;
#X connect 0 0 2 0;
#X connect 1 0 3 0;
#X connect 4 0 0 0;
#X connect 4 1 1 0;
#X connect 5 0 4 0;
#X connect 8 0 9 0;
#X connect 8 1 10 0;
#X connect 9 0 6 0;
#X connect 10 0 7 0;
#X connect 11 0 13 0;
#X connect 12 0 14 0;
#X connect 15 0 11 0;
#X connect 15 1 12 0;
#X connect 16 0 15 0;
#X connect 18 0 17 0;
#X connect 19 0 17 1;
#X connect 20 0 17 1;
#X connect 21 0 8 0;
#X connect 22 0 23 0;
#X connect 23 0 24 0;
#X connect 25 0 26 0;
#X connect 27 0 25 0;
