#N canvas 528 73 677 550 10;
#X text 188 43 epicycloid;
#X text 198 56 x(t) = (R+r) cos(t) - p*cos((R+r)t/r);
#X text 198 69 y(t) = (R+r) sin(t) - p*sin((R+r)t/r);
#X obj 8 311 #out window;
#X obj 8 68 tgl 15 0 empty empty empty 0 -6 0 8 -24198 -1 -1 0 1;
#X obj 217 419 pack f f f f;
#X msg 217 438 \$2 \$1 \$4 \$1 \$4 \$3 \$2 \$3;
#X text 223 403 x;
#X text 268 401 y;
#X text 283 401 y+1;
#X text 236 404 x+1;
#X floatatom 223 372 5 0 0 0 - - -;
#X obj 258 371 + 1;
#X floatatom 290 373 5 0 0 0 - - -;
#X obj 327 373 + 1;
#X obj 223 349 t f f;
#X obj 290 352 t f f;
#X obj 14 108 s met;
#X obj 217 391 r met;
#X obj 288 178 hsl 128 15 5 100 0 1 empty empty empty -2 -6 0 8 -24198
-1 -1 5500 1;
#X obj 365 209 hsl 128 15 -100 100 0 1 empty empty empty -2 -6 0 8
-44926 -1 -1 4000 1;
#X obj 505 252 hsl 128 15 -150 150 0 1 empty empty empty -2 -6 0 8
-258699 -1 -1 3200 1;
#X text 233 146 t = valeur en angles de 0 a 360;
#X obj 285 222 t f f;
#X obj 362 241 t f f;
#X obj 502 272 t f f;
#X obj 223 208 * 6.28319;
#X obj 223 187 / 360;
#X floatatom 223 169 5 0 0 0 - - -;
#X obj 223 227 t f f;
#X obj 8 273 #store;
#X obj 16 129 loadbang;
#X obj 290 314 expr ($f2+$f3)*sin($f1) - $f4*sin(($f2+$f3)*$f1/$f3)
;
#X obj 223 293 expr ($f2+$f3)*cos($f1) - $f4*cos(($f2+$f3)*$f1/$f3)
;
#X obj 223 126 + 1;
#X msg 223 102 1;
#X floatatom 255 129 5 0 0 0 - - -;
#X msg 255 110 0;
#X text 286 113 reset count;
#X text 100 148 reset image;
#X text 361 193 r = Rayon du deuxieme cercle -100 a 100;
#X obj 290 333 + 150;
#X obj 223 330 + 150;
#X floatatom 297 204 5 0 0 0 - - -;
#X floatatom 413 234 5 0 0 0 - - -;
#X floatatom 552 275 5 0 0 0 - - -;
#X obj 8 85 metro 1;
#X obj 50 68 hsl 128 15 0 15 0 0 empty empty empty -2 -6 0 8 -260818
-1 -1 0 1;
#X text 284 161 R = Rayon du premier cercle 5 a 100;
#X obj 57 235 #color;
#X obj 57 197 loadbang;
#X msg 57 216 230 224 0;
#X msg 16 148 300 300 3 # 0;
#X text 1 25 Copyright 2004 Alexandre Castonguay;
#X text 22 163 start with a blank \, black image;
#X text 500 237 deuxieme cercle - 150 a 150;
#X text 500 222 p = distance du centre du;
#X obj 217 457 #import (4 2);
#X obj 0 0 doc_demo;
#X obj 8 292 #draw_polygon put;
#X connect 4 0 46 0;
#X connect 5 0 6 0;
#X connect 6 0 57 0;
#X connect 11 0 5 0;
#X connect 12 0 5 2;
#X connect 13 0 5 1;
#X connect 14 0 5 3;
#X connect 15 0 11 0;
#X connect 15 1 12 0;
#X connect 16 0 13 0;
#X connect 16 1 14 0;
#X connect 18 0 5 0;
#X connect 19 0 23 0;
#X connect 19 0 43 0;
#X connect 20 0 24 0;
#X connect 20 0 44 0;
#X connect 21 0 25 0;
#X connect 21 0 45 0;
#X connect 23 0 33 1;
#X connect 23 1 32 1;
#X connect 24 0 33 2;
#X connect 24 1 32 2;
#X connect 25 0 33 3;
#X connect 25 1 32 3;
#X connect 26 0 29 0;
#X connect 27 0 26 0;
#X connect 28 0 27 0;
#X connect 29 0 33 0;
#X connect 29 1 32 0;
#X connect 30 0 59 0;
#X connect 31 0 52 0;
#X connect 32 0 41 0;
#X connect 33 0 42 0;
#X connect 34 0 36 0;
#X connect 34 0 28 0;
#X connect 35 0 34 0;
#X connect 36 0 34 1;
#X connect 37 0 36 0;
#X connect 41 0 16 0;
#X connect 42 0 15 0;
#X connect 46 0 17 0;
#X connect 46 0 30 0;
#X connect 46 0 35 0;
#X connect 47 0 46 1;
#X connect 49 0 59 1;
#X connect 50 0 51 0;
#X connect 51 0 49 0;
#X connect 52 0 30 1;
#X connect 57 0 59 2;
#X connect 59 0 3 0;
#X connect 59 0 30 1;
