#N canvas 437 169 613 288 10;
#X obj 0 20 cnv 15 606 17 empty \$0-rect Creation arguments (1) 200
8 1 9 -88239 -262144 0;
#X obj 0 39 loadbang;
#X obj 0 98 s \$0-rect;
#X msg 426 59 3 \$2;
#X msg 0 78 label Creation arguments (\$1);
#X obj 0 58 list append \$1;
#X obj 598 0 bng 8 250 50 0 \$0-create_s \$0-create empty 17 7 0 10
-203904 -1 -1;
#X msg 389 110 \$2;
#X obj 460 143 doc_make cc \$1;
#X obj 196 39 doc_layout c 574 30 - 1;
#X obj 426 78 doc_below h 1 10;
#X obj 196 110 doc_editmode 598 1;
#X connect 1 0 5 0;
#X connect 3 0 10 0;
#X connect 4 0 2 0;
#X connect 5 0 4 0;
#X connect 6 0 8 0;
#X connect 7 0 8 1;
#X connect 9 2 3 0;
#X connect 9 2 7 0;
#X connect 10 0 9 1;
#X coords 0 -1 1 1 606 17 1 0 0;
