#N canvas 633 0 614 655 10;
#X obj 19 38 tgl 15 0 empty empty empty 17 7 0 10 -262144 -1 -1 1 1
;
#X obj 19 61 metro 33.3333;
#X obj 19 525 #out window;
#X obj 19 80 t b b;
#X obj 55 80 #camera 0 \, size 240 320 \, pwc \, framerate 30;
#X obj 55 99 t a b;
#X obj 91 99 f;
#X msg 91 118 put_at \$1 0 0 0;
#X obj 0 0 doc_demo;
#X obj 55 143 #cast b;
#X obj 19 211 # +;
#X obj 43 211 #pack 3;
#X obj 19 549 fps;
#X floatatom 18 574 5 0 0 0 - - -;
#X obj 19 476 #scale_by 2;
#X obj 212 137 #for (0 0) (240 320);
#X obj 212 99 loadbang;
#X obj 212 118 t b b;
#X obj 397 135 #for (0 0) (240 320);
#X obj 212 310 #join -1;
#X obj 19 187 #store;
#X obj 194 119 bng 15 250 50 0 empty empty empty 17 7 0 10 -262144
-1 -1;
#X obj 139 99 mod 64;
#X obj 212 290 #outer inv+ (-1);
#X obj 38 321 t a a;
#X obj 19 249 #cast i;
#X obj 38 389 # -;
#X obj 38 451 #clip;
#X obj 80 352 #fade (8 3 1);
#X obj 80 372 # * 3;
#X obj 38 370 # << 2;
#X obj 65 418 #convolve (3 3 # 0 -1 0 -1 5 -1);
#X msg 33 503 border 0 \, move 0 1280;
#X obj 19 268 shunt 3;
#X obj 67 269 hradio 15 1 0 3 empty empty empty 0 -8 0 10 -262144 -1
-1 0;
#X obj 115 99 + 1;
#X obj 260 236 # & 7;
#X obj 260 189 hradio 15 1 0 4 empty empty empty 0 -8 0 10 -262144
-1 -1 0;
#X obj 260 255 #inner (8 1);
#X obj 354 237 #inner (1 0);
#X obj 361 312 # * 4;
#X obj 361 331 #solarize;
#X obj 361 350 # >> 2;
#X obj 212 236 #fold ^;
#X obj 355 256 # / 5;
#X obj 212 188 shunt 4;
#X obj 449 293 #fold ^;
#X obj 524 193 #pack;
#X floatatom 563 193 5 0 0 0 - - -;
#X floatatom 523 175 5 0 0 0 - - -;
#X obj 447 237 # >> 8;
#X obj 449 274 # >> 8;
#X floatatom 516 284 5 0 0 0 - - -;
#X obj 212 156 # & -1;
#X floatatom 264 158 5 0 0 0 - - -;
#X obj 248 382 # & -1;
#X floatatom 300 384 5 0 0 0 - - -;
#X obj 19 230 #store (64 240 320 3 b #);
#X obj 448 256 # C.sq- (0 0);
#X obj 447 218 # C.sq- (120 160);
#X connect 0 0 1 0;
#X connect 1 0 3 0;
#X connect 2 0 12 0;
#X connect 3 0 20 0;
#X connect 3 1 4 0;
#X connect 3 1 17 0;
#X connect 4 0 5 0;
#X connect 5 0 9 0;
#X connect 5 1 6 0;
#X connect 6 0 7 0;
#X connect 6 0 35 0;
#X connect 7 0 57 1;
#X connect 9 0 57 1;
#X connect 10 0 57 0;
#X connect 11 0 10 1;
#X connect 12 0 13 0;
#X connect 14 0 2 0;
#X connect 15 0 53 0;
#X connect 16 0 17 0;
#X connect 17 0 15 0;
#X connect 17 1 18 0;
#X connect 18 0 19 1;
#X connect 19 0 20 1;
#X connect 20 0 10 0;
#X connect 21 0 17 0;
#X connect 22 0 6 1;
#X connect 23 0 19 0;
#X connect 24 0 28 0;
#X connect 24 1 30 0;
#X connect 25 0 33 0;
#X connect 26 0 27 0;
#X connect 27 0 14 0;
#X connect 28 0 29 0;
#X connect 29 0 26 1;
#X connect 30 0 26 0;
#X connect 31 0 27 0;
#X connect 32 0 2 0;
#X connect 33 0 14 0;
#X connect 33 1 24 0;
#X connect 33 2 31 0;
#X connect 34 0 33 1;
#X connect 35 0 11 0;
#X connect 35 0 22 0;
#X connect 36 0 38 0;
#X connect 37 0 45 1;
#X connect 38 0 55 0;
#X connect 39 0 44 0;
#X connect 40 0 41 0;
#X connect 41 0 42 0;
#X connect 42 0 23 0;
#X connect 43 0 55 0;
#X connect 44 0 55 0;
#X connect 45 0 43 0;
#X connect 45 1 36 0;
#X connect 45 2 39 0;
#X connect 45 3 59 0;
#X connect 46 0 55 0;
#X connect 47 0 58 1;
#X connect 48 0 47 1;
#X connect 49 0 47 0;
#X connect 50 0 58 0;
#X connect 51 0 46 0;
#X connect 52 0 50 1;
#X connect 52 0 51 1;
#X connect 53 0 45 0;
#X connect 54 0 53 1;
#X connect 55 0 23 0;
#X connect 56 0 55 1;
#X connect 57 0 25 0;
#X connect 58 0 51 0;
#X connect 59 0 50 0;
