#N canvas 0 0 632 398 10;
#X obj 0 0 doc_h gf/;
#X obj 0 355 doc_f;
#X obj 3 134 doc_c 1;
#X obj 3 196 doc_i 1;
#X obj 3 258 doc_o 1;
#X obj 14 164 doc_cc 0;
#X obj 14 226 doc_ii 0;
#X obj 14 288 doc_oo 0;
#X obj 97 164 doc_m c0 float;
#X text 232 164 canvas level;
#X obj 97 226 doc_m i0 bang;
#X text 232 226 query;
#X obj 97 288 doc_m o0 float;
#X text 232 288 1 if specified canvas is selected (according to the
parent of that canvas);
#X text 232 323 0 if not;
#X obj 90 33 loadbang;
#X obj 90 52 tgl 15 0 empty empty empty 17 7 0 10 -262144 -1 -1 1 1
;
#X obj 90 69 metro 100;
#X obj 90 107 tgl 15 0 empty empty empty 17 7 0 10 -262144 -1 -1 0
1;
#N canvas 0 0 450 115 select_me 0;
#X obj 37 24 inlet;
#X obj 37 43 gf/canvas_isselected 0;
#X obj 37 62 outlet;
#X connect 0 0 1 0;
#X connect 1 0 2 0;
#X restore 90 88 pd select_me;
#X connect 8 1 9 0;
#X connect 10 1 11 0;
#X connect 12 1 13 0;
#X connect 12 1 14 0;
#X connect 15 0 16 0;
#X connect 16 0 17 0;
#X connect 17 0 19 0;
#X connect 19 0 18 0;
