#N canvas 624 48 623 637 10;
#X obj 178 59 openpanel;
#X obj 178 41 bng 15 250 50 0 empty empty empty 17 7 0 10 -4034 -1
-1;
#X obj 47 546 #out window;
#X obj 74 310 #remap_image;
#X obj 74 519 #remap_image;
#X obj 178 515 # + (0 9000);
#X msg 357 439 1 \$1 # 1;
#X obj 82 404 hsl 128 15 1 127 0 1 empty \$0.bluramount empty -2 -8
0 10 -260097 -1 -1 800 1;
#N canvas 3 94 450 300 blurtype 0;
#X obj 51 49 inlet;
#X obj 81 221 outlet;
#X msg 78 165 set \, adddollar 1 \, add2 1 # 1;
#X obj 82 113 sel 0;
#X msg 147 138 set \, add2 1 \, adddollar 1 \, add2 # 1;
#X obj 63 82 t b a;
#X obj 47 256 s \$0.bluramount;
#X connect 0 0 5 0;
#X connect 2 0 1 0;
#X connect 3 0 2 0;
#X connect 3 1 4 0;
#X connect 4 0 1 0;
#X connect 5 0 6 0;
#X connect 5 1 3 0;
#X restore 357 419 pd blurtype;
#X obj 79 422 i;
#X obj 159 319 # - (0 9000);
#X obj 285 203 #dim;
#X obj 285 223 #redim (2);
#X obj 334 337 # * (1 0);
#X obj 334 357 # + (0 36000);
#X obj 159 281 # * (0 0);
#X obj 159 300 # / (1 1);
#X obj 159 338 # p2c (0 0);
#X obj 178 495 # c2p (0 0);
#X obj 178 535 # * (0 0);
#X obj 178 555 # / (1 1);
#X obj 47 71 tgl 15 0 empty empty empty 17 7 0 10 -4034 -1 -1 1 1;
#X obj 47 89 metro 100;
#X text 78 385 amount:;
#X text 195 39 1) OPEN AN IMAGE;
#X msg 189 121 symbol teapot.png;
#X msg 178 79 symbol babbage.jpg;
#X obj 357 386 vradio 15 1 0 2 empty empty empty 0 -8 0 10 -4034 -1
-1 0;
#X text 375 400 angular blur;
#X text 376 384 radial blur;
#X obj 30 155 bng 15 250 50 0 empty empty empty 17 7 0 10 -4034 -1
-1;
#X text 4 23 Copyright 2009 by Federico Ferri;
#X text 58 367 3) PLAY WITH CONTROLS;
#X obj 0 0 doc_demo;
#X obj 47 565 fps;
#X floatatom 47 584 5 0 0 0 - - -;
#X obj 47 238 t a a;
#X obj 47 176 #store;
#X obj 47 155 shunt;
#X obj 83 155 tgl 15 0 empty empty empty 17 7 0 10 -4034 -1 -1 0 1
;
#X obj 106 182 #camera;
#X obj 178 159 #in;
#X msg 178 140 load \$1;
#X obj 297 252 # / 2;
#X obj 47 456 #convolve (1 1 # 1);
#X obj 47 476 # /;
#X obj 189 102 loadbang;
#X obj 47 291 shunt;
#X obj 83 292 tgl 15 1 empty empty empty 17 7 0 10 -4034 -1 -1 1 1
;
#X obj 47 500 shunt;
#X obj 83 501 tgl 15 1 empty empty empty 17 7 0 10 -4034 -1 -1 1 1
;
#X connect 0 0 42 0;
#X connect 1 0 0 0;
#X connect 2 0 34 0;
#X connect 3 0 44 0;
#X connect 3 1 15 0;
#X connect 4 0 2 0;
#X connect 4 1 18 0;
#X connect 5 0 19 0;
#X connect 6 0 44 1;
#X connect 7 0 9 0;
#X connect 8 0 6 0;
#X connect 9 0 6 0;
#X connect 9 0 45 1;
#X connect 10 0 17 0;
#X connect 11 0 12 0;
#X connect 12 0 16 1;
#X connect 12 0 19 1;
#X connect 12 0 43 0;
#X connect 13 0 14 0;
#X connect 14 0 15 1;
#X connect 14 0 20 1;
#X connect 15 0 16 0;
#X connect 16 0 10 0;
#X connect 17 0 3 1;
#X connect 18 0 5 0;
#X connect 19 0 20 0;
#X connect 20 0 4 1;
#X connect 21 0 22 0;
#X connect 22 0 38 0;
#X connect 25 0 42 0;
#X connect 26 0 42 0;
#X connect 27 0 8 0;
#X connect 30 0 38 0;
#X connect 34 0 35 0;
#X connect 36 0 47 0;
#X connect 36 1 11 0;
#X connect 37 0 36 0;
#X connect 38 0 37 0;
#X connect 38 1 40 0;
#X connect 39 0 38 1;
#X connect 40 0 36 0;
#X connect 41 0 37 1;
#X connect 42 0 41 0;
#X connect 43 0 13 0;
#X connect 43 0 17 1;
#X connect 43 0 18 1;
#X connect 44 0 45 0;
#X connect 45 0 49 0;
#X connect 46 0 25 0;
#X connect 47 0 44 0;
#X connect 47 1 3 0;
#X connect 48 0 47 1;
#X connect 49 0 2 0;
#X connect 49 1 4 0;
#X connect 50 0 49 1;
