#N canvas 251 70 632 455 10;
#X obj 0 0 doc_h gf/;
#X obj 3 401 doc_also;
#X obj 0 421 doc_f;
#X obj 153 186 gf/canvas_hohoho 0;
#X obj 3 215 doc_c 1;
#X obj 14 245 doc_cc 0;
#X obj 97 245 doc_m c0 float;
#X text 232 245 uplevel;
#X obj 3 277 doc_i 1;
#X obj 14 307 doc_ii 0;
#X obj 3 361 doc_o 0;
#X text 329 102 make dashed box;
#X obj 153 69 #many hsl 4 1 15 128;
#X obj 153 139 #to_list;
#X obj 97 307 doc_m i0 list;
#X text 232 307 make dashed box where \$1=x1 \$2=y1 \$3=x2 \$4=y2;
#X obj 97 329 doc_m i0 hide;
#X text 232 329 hide dashed box;
#X obj 153 31 loadbang;
#X msg 161 163 hide;
#X msg 153 50 delegate range 0 500 \, 4 1 # 50 50 100 175;
#X obj 103 401 gf/lol 0;
#X connect 1 1 21 0;
#X connect 6 1 7 0;
#X connect 12 0 13 0;
#X connect 13 0 3 0;
#X connect 14 1 15 0;
#X connect 16 1 17 0;
#X connect 18 0 20 0;
#X connect 19 0 3 0;
#X connect 20 0 12 0;
