#N canvas 227 91 440 355 10;
#X obj 20 47 bng 15 250 50 0 empty empty empty 0 -6 0 8 -233017 -1
-1;
#X obj 20 309 @out;
#X msg 51 256 open x11 here;
#X msg 68 279 close;
#X obj 20 105 @checkers;
#X obj 20 81 @for ( 0 0 ) ( 128 128 ) ( 1 1 );
#X floatatom 58 142 5 0 255 0 - - -;
#X obj 84 179 @three;
#X floatatom 101 142 5 0 255 0 - - -;
#X floatatom 144 142 5 0 255 0 - - -;
#X obj 195 158 until;
#X obj 195 177 random 128;
#X msg 195 139 14;
#X text 16 7 @draw_polygon;
#X text 362 6 gridflow;
#X text 224 317 see also:;
#X obj 297 322 @checkers;
#X obj 20 209 @draw_polygon put 1;
#X obj 195 196 @import ( 7 2 );
#X connect 0 0 5 0;
#X connect 0 0 12 0;
#X connect 2 0 1 0;
#X connect 3 0 1 0;
#X connect 4 0 17 0;
#X connect 5 0 4 0;
#X connect 6 0 7 0;
#X connect 7 0 17 1;
#X connect 8 0 7 1;
#X connect 9 0 7 2;
#X connect 10 0 11 0;
#X connect 11 0 18 0;
#X connect 12 0 10 0;
#X connect 17 0 1 0;
#X connect 18 0 17 2;
