#N canvas 587 8 632 678 10;
#X obj 28 87 metro 100;
#X obj 28 70 tgl 15 0 empty empty empty 17 7 0 10 -24198 -1 -1 1 1
;
#X obj 28 183 #out window;
#X text 232 451 Grid values are clipped to the high and low values
stored in the object;
#X text 232 596 Outputs the modified grid;
#X text 232 486 An integer can be used to vary the minimum value of
the range.;
#X text 232 521 An integer can be used to vary the maximum value of
the range.;
#X obj 28 106 #in scissors.jpg;
#X obj 238 89 hsl 128 15 0 127 0 0 empty empty empty -2 -8 0 10 -241291
-1 -1 6800 1;
#X text 378 88 <-- value to be displayed;
#X msg 126 135 255 200 150;
#X text 209 135 <-- colour;
#X obj 28 164 #draw_slider put (0 255 0) (255 0 255) (40 40 80 200)
0 127;
#X obj 0 0 doc_h;
#X obj 3 421 doc_i 3;
#X obj 3 566 doc_o 1;
#X obj 14 596 doc_oo 0;
#X obj 14 451 doc_ii 0;
#X obj 14 486 doc_ii 1;
#X obj 14 521 doc_ii 2;
#X obj 14 253 doc_cc 0;
#X obj 14 301 doc_cc 1;
#X obj 14 323 doc_cc 2;
#X obj 14 345 doc_cc 3;
#X obj 14 367 doc_cc 4;
#X obj 97 367 doc_m c4;
#X obj 97 253 doc_m c0 symbol/numop;
#X obj 97 301 doc_m c1 grid[3];
#X obj 97 323 doc_m c2 grid[3];
#X obj 97 345 doc_m c3 grid;
#X obj 3 223 doc_c 6;
#X obj 14 389 doc_cc 5;
#X obj 97 389 doc_m c5;
#X obj 97 451 doc_m i0 grid;
#X obj 97 486 doc_m i1 float int;
#X obj 97 521 doc_m i2 float int;
#X obj 97 596 doc_m o0 grid;
#X obj 0 648 doc_f;
#X obj 3 628 doc_also;
#X text 5 25 Draws a slider-like rectangle (or progress bar) on an
image.;
#X text 232 253 composition mode;
#X obj 232 275 doc_link numop2 1;
#X text 232 301 rgb fill colour;
#X text 232 323 rgb outline colour;
#X text 232 345 (y1 x1 y2 x2) position;
#X text 232 367 minimum value;
#X text 232 389 maximum value;
#X connect 0 0 7 0;
#X connect 1 0 0 0;
#X connect 7 0 12 0;
#X connect 8 0 12 2;
#X connect 10 0 12 1;
#X connect 12 0 2 0;
#X connect 25 1 45 0;
#X connect 26 1 40 0;
#X connect 26 1 41 0;
#X connect 27 1 42 0;
#X connect 28 1 43 0;
#X connect 29 1 44 0;
#X connect 32 1 46 0;
#X connect 33 1 3 0;
#X connect 34 1 5 0;
#X connect 35 1 6 0;
#X connect 36 1 4 0;
