#N canvas 349 105 632 474 10;
#X obj 0 0 doc_h;
#X obj 3 249 doc_c 0;
#X obj 3 289 doc_i 1;
#X obj 3 351 doc_o 1;
#X obj 14 319 doc_ii 0;
#X obj 14 381 doc_oo 0;
#X obj 0 433 doc_f;
#X obj 97 319 doc_m i0 grid;
#X obj 97 381 doc_m o0 grid;
#X obj 56 83 bng 15 250 50 0 empty empty empty 17 7 0 10 -4034 -1 -1
;
#X obj 56 121 #scale_to (256 256);
#X obj 56 161 #greyscale_to_rgb;
#X obj 56 101 #for (0) (256);
#X obj 56 141 #outer + (0);
#X obj 3 413 doc_also;
#X text 232 319 greyscale image;
#X text 232 381 the image converted to RGB;
#X obj 56 201 #out window;
#X obj 103 413 #rgb_to_greyscale;
#X obj 56 181 # gamma (512 256 128);
#X text 25 37 Creates a RGB color image from a greyscale image;
#X connect 7 1 15 0;
#X connect 8 1 16 0;
#X connect 9 0 12 0;
#X connect 10 0 13 0;
#X connect 11 0 19 0;
#X connect 12 0 10 0;
#X connect 13 0 11 0;
#X connect 14 1 18 0;
#X connect 19 0 17 0;
