#N canvas 476 51 632 642 10;
#X obj 0 0 doc_h;
#X obj 3 386 doc_c 0..1;
#X obj 3 448 doc_i 2;
#X obj 3 532 doc_o 1;
#X obj 14 478 doc_ii 0;
#X obj 14 500 doc_ii 1;
#X obj 14 416 doc_cc 0;
#X obj 14 562 doc_oo 0;
#X obj 97 416 doc_m c0 float;
#X obj 97 478 doc_m i0 grid;
#X obj 97 500 doc_m i1 float;
#X obj 232 500 doc_same 0;
#X obj 97 562 doc_m o0 grid;
#X obj 0 614 doc_f;
#X obj 3 594 doc_also;
#X obj 332 94 #see;
#X obj 332 74 r \$0-a;
#X text 232 416 angle of rotation;
#X text 232 478 pixels to apply on;
#X text 232 562 output pixels;
#X text 20 38 Hueshift a RGB picture by a rotation in the colorwheel
of the specified angle;
#X floatatom 116 208 5 0 0 0 - - -;
#X obj 116 128 loadbang;
#X obj 116 237 t b f;
#X obj 116 297 s \$0-a;
#X obj 116 257 #store;
#X obj 116 148 t b b;
#X msg 116 175 0;
#X msg 156 175 2000;
#X msg 196 175 4000;
#X msg 236 175 8000;
#X obj 116 277 #hueshift;
#X obj 160 257 #in bluemarble.jpg;
#X connect 8 1 17 0;
#X connect 9 1 18 0;
#X connect 10 1 11 0;
#X connect 12 1 19 0;
#X connect 16 0 15 0;
#X connect 21 0 23 0;
#X connect 22 0 26 0;
#X connect 23 0 25 0;
#X connect 23 1 31 1;
#X connect 25 0 31 0;
#X connect 26 0 27 0;
#X connect 26 1 32 0;
#X connect 27 0 21 0;
#X connect 28 0 21 0;
#X connect 29 0 21 0;
#X connect 30 0 21 0;
#X connect 31 0 24 0;
#X connect 32 0 25 1;
