#N canvas 617 0 632 576 10;
#X obj 47 260 print;
#X obj 47 222 #out window;
#X text 279 113 OR;
#X text 261 75 global saturation;
#X obj 47 241 fps detailed;
#X text 273 127 per-channel saturation;
#X msg 217 70 0;
#X obj 217 49 loadbang;
#X obj 220 91 hsl 137 15 -256 512 0 0 empty empty empty -2 -6 0 8 -260818
-128992 -1 4533 1;
#X floatatom 223 109 5 0 0 0 - - -;
#X obj 47 122 tgl 15 0 empty empty empty 0 -6 0 8 -24198 -1 -1 0 1
;
#X obj 47 139 metro 33.3667;
#X msg 217 128 3 # \$1;
#X obj 89 177 #in babbage.jpg;
#X obj 217 148 #color -256 512 1;
#X obj 47 203 #saturation -128;
#X obj 0 0 doc_h;
#X obj 3 376 doc_i 2;
#X obj 3 301 doc_c 1;
#X obj 3 460 doc_o 1;
#X obj 14 406 doc_ii 0;
#X obj 14 428 doc_ii 1;
#X obj 14 490 doc_oo 0;
#X obj 14 331 doc_cc 0;
#X obj 232 428 doc_same 0;
#X obj 97 331 doc_m c0 float/int;
#X obj 97 406 doc_m i0 grid;
#X obj 97 428 doc_m i1 grid;
#X obj 97 490 doc_m o0 grid;
#X obj 0 542 doc_f;
#X text 232 406 image to be modified;
#X text 232 331 Saturation multiplier. 256 does nothing. 0 turns to
greyscale. -256 does like [#hueshift 18000].;
#X text 232 490 modified image;
#X obj 3 522 doc_also;
#X obj 89 158 loadbang;
#X obj 47 177 #store;
#X connect 1 0 4 0;
#X connect 4 0 0 0;
#X connect 6 0 8 0;
#X connect 7 0 6 0;
#X connect 8 0 9 0;
#X connect 8 0 12 0;
#X connect 10 0 11 0;
#X connect 11 0 35 0;
#X connect 12 0 14 0;
#X connect 13 0 35 1;
#X connect 14 0 15 1;
#X connect 15 0 1 0;
#X connect 25 1 31 0;
#X connect 26 1 30 0;
#X connect 27 1 24 0;
#X connect 28 1 32 0;
#X connect 34 0 13 0;
#X connect 35 0 15 0;
