#N canvas 193 0 450 300 10;
#X obj 43 15 key;
#X obj 94 178 outlet;
#X obj 308 70 outlet;
#X obj 194 13 keyup;
#X obj 43 38 t f b;
#X msg 87 38 1;
#X obj 194 36 t f b;
#X msg 238 36 0;
#X obj 43 148 select -1;
#X obj 43 98 listfind 122 115 120 100 99 118 103 98 104 110 106 109
113 50 119 51 101 114 53 116 54 121 55 117 105 57 111 48 112 91 61
93;
#X connect 0 0 4 0;
#X connect 3 0 6 0;
#X connect 4 0 9 0;
#X connect 4 1 5 0;
#X connect 5 0 2 0;
#X connect 6 0 9 0;
#X connect 6 1 7 0;
#X connect 7 0 2 0;
#X connect 8 1 1 0;
#X connect 9 0 8 0;
