#N canvas 641 43 401 530 10;
#X obj 18 460 #out window;
#X obj 18 205 #store;
#X obj 18 178 #store;
#X obj 75 159 loadbang;
#X obj 18 106 t b b;
#X obj 18 55 tgl 15 0 empty empty empty 17 7 0 10 -24198 -1 -1 1 1
;
#X obj 18 432 #store;
#X obj 18 411 #store;
#X obj 64 356 loadbang;
#X obj 18 83 metro 33.3333;
#X obj 0 498 cnv 15 400 30 empty empty empty 20 12 0 14 -200249 -66577
0;
#X text 8 505 GridFlow 0.9.0;
#X obj 1 0 cnv 15 400 30 empty empty empty 20 12 0 14 -233017 -66577
0;
#X text 14 0 slitscanning.pd;
#X text 14 13 Copyright 2007 Roman Haefeli;
#X text 38 55 <- start / stop;
#X obj 75 178 #for (119 0) (120 320) (1 1);
#X obj 76 304 #store (600 320 3 #);
#X obj 64 375 #for (0 0) (600 320) (1 1);
#X obj 65 205 #camera 0 \, size 240 320;
#X obj 37 323 #join 0;
#X floatatom 107 473 5 0 0 0 - - -;
#X obj 105 450 fps;
#X obj 18 227 t a a b;
#X obj 18 247 #finished;
#X connect 0 0 22 0;
#X connect 1 0 23 0;
#X connect 2 0 1 0;
#X connect 3 0 16 0;
#X connect 4 0 2 0;
#X connect 4 1 19 0;
#X connect 5 0 9 0;
#X connect 6 0 0 0;
#X connect 6 0 17 1;
#X connect 7 0 6 0;
#X connect 8 0 18 0;
#X connect 9 0 4 0;
#X connect 16 0 2 1;
#X connect 17 0 20 1;
#X connect 18 0 7 1;
#X connect 19 0 1 1;
#X connect 20 0 6 1;
#X connect 22 0 21 0;
#X connect 23 0 24 0;
#X connect 23 1 20 0;
#X connect 23 2 17 0;
#X connect 24 0 7 0;
