#N canvas 660 79 581 531 10;
#X obj 40 8 tgl 15 0 empty empty empty 0 -6 0 8 -24198 -1 -1 1 1;
#X obj 88 67 tgl 15 0 empty empty empty 0 -6 0 8 -241291 -1 -1 0 1
;
#X floatatom 124 224 5 0 0 0 - - -;
#X obj 124 91 vsl 15 128 0 256 0 0 empty empty empty 0 -8 0 8 -260818
-1 -1 5600 1;
#X obj 40 67 shunt 2;
#X text 7 104 simple per-channel threshold;
#X text 276 49 bluescreen luma threshold;
#X text 392 126 here we have a mask;
#X text 372 138 (alpha as separate image);
#X text 398 157 make a RGBA image;
#X text 210 379 = medium blue;
#X obj 121 416 fps;
#X floatatom 146 418 5 0 0 0 - - -;
#X msg 70 378 240 320 3 # 0 0 170;
#X text 279 64 with alpha channel;
#X text 13 349 you could also load a picture;
#X text 13 361 instead of using uniform blue;
#X obj 40 48 #camera;
#X obj -13 -45 cnv 15 580 30 empty empty empty 20 12 0 14 -233017 -66577
0;
#X text 0 -32 Copyright 2002 Mathieu Bouchard;
#X obj -15 450 cnv 15 580 30 empty empty empty 20 12 0 14 -200249 -66577
0;
#X text -7 457 GridFlow 0.8.0;
#X text -7 457 GridFlow 0.8.0;
#X text 0 -45 threshold.pd;
#X obj 321 141 # * 255;
#X obj 321 122 # >=;
#X obj 321 103 #rgb_to_greyscale;
#X obj 70 397 #draw_image put \, alpha 1;
#X obj 40 166 # -;
#X obj 40 223 # ||;
#X obj 40 242 # +;
#X obj 40 416 #out window;
#X text 387 -38 see also color_detect.pd;
#X obj 306 170 #join;
#X obj 270 84 t b a;
#X obj 306 84 #t;
#X obj 40 185 # max;
#X obj 61 204 inv+;
#X obj 40 29 metro 33.333;
#X connect 0 0 38 0;
#X connect 1 0 4 1;
#X connect 2 0 25 1;
#X connect 2 0 28 1;
#X connect 2 0 30 1;
#X connect 2 0 37 0;
#X connect 3 0 2 0;
#X connect 4 0 28 0;
#X connect 4 1 34 0;
#X connect 11 0 12 0;
#X connect 13 0 27 0;
#X connect 17 0 4 0;
#X connect 24 0 33 1;
#X connect 25 0 24 0;
#X connect 26 0 25 0;
#X connect 27 0 31 0;
#X connect 28 0 36 0;
#X connect 29 0 30 0;
#X connect 30 0 31 0;
#X connect 31 0 11 0;
#X connect 33 0 27 1;
#X connect 34 0 13 0;
#X connect 34 1 35 0;
#X connect 35 0 33 0;
#X connect 35 1 26 0;
#X connect 36 0 29 0;
#X connect 37 0 29 1;
#X connect 38 0 17 0;
